<svg xmlns="http://www.w3.org/2000/svg" width="541" height="357" fill="none"><g clip-path="url(#a)"><path fill="#E7ECF5" d="M0 0h541v357H0z"/><g filter="url(#b)"><g clip-path="url(#c)"><path fill="#E2E7EE" d="M62 60h780v56H62z"/><path fill="#ED6A5E" fill-rule="evenodd" d="M92 94c3.3137 0 6-2.6863 6-6s-2.6863-6-6-6-6 2.6863-6 6 2.6863 6 6 6Z" clip-rule="evenodd"/><path fill="#F4BF4F" fill-rule="evenodd" d="M112 94c3.314 0 6-2.6863 6-6s-2.686-6-6-6-6 2.6863-6 6 2.686 6 6 6Z" clip-rule="evenodd"/><path fill="#61C554" fill-rule="evenodd" d="M132 94c3.314 0 6-2.6863 6-6s-2.686-6-6-6-6 2.6863-6 6 2.686 6 6 6Z" clip-rule="evenodd"/><path fill="#F6F8FC" d="M62 116h780v344H62z"/></g></g><g filter="url(#d)"><path fill="#fff" d="M63 116h478v55H63z"/></g><path fill="#0C419A" d="m94.472 143.432-.368 1.28h2.672l-.368-1.28a54.413 54.413 0 0 1-.496-1.712 434.372 434.372 0 0 0-.448-1.744H95.4c-.1387.587-.288 1.174-.448 1.76a38.9618 38.9618 0 0 1-.48 1.696ZM90.968 149l3.408-10.464h2.176L99.96 149h-1.952l-.816-2.832h-3.52L92.856 149h-1.888Zm11.954.192c-.651 0-1.115-.197-1.392-.592-.267-.394-.4-.933-.4-1.616v-9.28h1.84v9.376c0 .224.043.384.128.48.085.086.176.128.272.128h.112c.043-.01.101-.021.176-.032l.24 1.376c-.107.043-.245.08-.416.112-.16.032-.347.048-.56.048Zm4.384 0c-.651 0-1.115-.197-1.392-.592-.267-.394-.4-.933-.4-1.616v-9.28h1.84v9.376c0 .224.042.384.128.48.085.086.176.128.272.128h.112c.042-.01.101-.021.176-.032l.24 1.376c-.107.043-.246.08-.416.112-.16.032-.347.048-.56.048Zm5.951 0c-.725 0-1.381-.16-1.968-.48-.586-.33-1.05-.8-1.392-1.408-.341-.618-.512-1.36-.512-2.224 0-.853.171-1.589.512-2.208.352-.618.806-1.093 1.36-1.424.555-.33 1.136-.496 1.744-.496.715 0 1.312.16 1.792.48.48.31.843.747 1.088 1.312.246.555.368 1.2.368 1.936 0 .384-.026.683-.08.896h-4.992c.086.694.336 1.232.752 1.616.416.384.939.576 1.568.576.342 0 .656-.048.944-.144.299-.106.592-.25.88-.432l.624 1.152c-.373.246-.789.448-1.248.608-.458.16-.938.24-1.44.24Zm-2.096-4.864h3.488c0-.608-.133-1.082-.4-1.424-.266-.352-.666-.528-1.2-.528-.458 0-.869.171-1.232.512-.352.331-.57.811-.656 1.44Zm6.886 4.672v-7.856h1.52l.128 1.392h.064c.277-.512.613-.901 1.008-1.168.394-.277.8-.416 1.216-.416.373 0 .672.054.896.16l-.32 1.6a3.706 3.706 0 0 0-.384-.096c-.118-.021-.262-.032-.432-.032-.31 0-.635.123-.976.368-.342.235-.635.651-.88 1.248v4.8h-1.84Zm12.004.192c-.982 0-1.766-.362-2.352-1.088-.587-.725-.88-1.733-.88-3.024 0-.853.154-1.589.464-2.208.32-.618.736-1.093 1.248-1.424.512-.33 1.05-.496 1.616-.496.448 0 .826.08 1.136.24.32.15.629.358.928.624l-.064-1.264v-2.848h1.84V149h-1.52l-.128-.848h-.064c-.288.288-.624.534-1.008.736-.384.203-.79.304-1.216.304Zm.448-1.52c.586 0 1.136-.293 1.648-.88v-3.664c-.267-.245-.534-.416-.8-.512-.267-.096-.534-.144-.8-.144-.502 0-.934.23-1.296.688-.352.448-.528 1.083-.528 1.904 0 .843.154 1.488.464 1.936.309.448.746.672 1.312.672ZM136.37 149v-7.856h1.84V149h-1.84Zm.928-9.232c-.331 0-.597-.096-.8-.288-.203-.192-.304-.448-.304-.768 0-.309.101-.56.304-.752.203-.192.469-.288.8-.288.331 0 .597.096.8.288.203.192.304.443.304.752 0 .32-.101.576-.304.768-.203.192-.469.288-.8.288Zm3.299 9.232v-7.856h1.52l.128 1.392h.064c.278-.512.614-.901 1.008-1.168.395-.277.8-.416 1.216-.416.374 0 .672.054.896.16l-.32 1.6a3.584 3.584 0 0 0-.384-.096c-.117-.021-.261-.032-.432-.032-.309 0-.634.123-.976.368-.341.235-.634.651-.88 1.248v4.8h-1.84Zm9.213.192c-.725 0-1.381-.16-1.968-.48-.587-.33-1.051-.8-1.392-1.408-.341-.618-.512-1.36-.512-2.224 0-.853.171-1.589.512-2.208.352-.618.805-1.093 1.36-1.424.555-.33 1.136-.496 1.744-.496.715 0 1.312.16 1.792.48.48.31.843.747 1.088 1.312.245.555.368 1.2.368 1.936 0 .384-.027.683-.08.896h-4.992c.085.694.336 1.232.752 1.616.416.384.939.576 1.568.576.341 0 .656-.048.944-.144.299-.106.592-.25.88-.432l.624 1.152c-.373.246-.789.448-1.248.608-.459.16-.939.24-1.44.24Zm-2.096-4.864h3.488c0-.608-.133-1.082-.4-1.424-.267-.352-.667-.528-1.2-.528-.459 0-.869.171-1.232.512-.352.331-.571.811-.656 1.44Zm10.165 4.864c-.714 0-1.36-.16-1.936-.48-.565-.33-1.018-.8-1.36-1.408-.33-.618-.496-1.36-.496-2.224 0-.874.182-1.616.544-2.224.363-.618.843-1.088 1.44-1.408.608-.33 1.259-.496 1.952-.496.502 0 .939.086 1.312.256.374.171.704.379.992.624l-.896 1.2c-.202-.181-.41-.32-.624-.416-.213-.106-.442-.16-.688-.16-.629 0-1.146.24-1.552.72-.394.48-.592 1.115-.592 1.904 0 .779.192 1.408.576 1.888.395.48.902.72 1.52.72.31 0 .598-.064.864-.192.278-.138.528-.298.752-.48l.752 1.216c-.362.32-.768.56-1.216.72-.448.16-.896.24-1.344.24Zm6.763 0c-.907 0-1.552-.261-1.936-.784-.374-.533-.56-1.221-.56-2.064V142.6h-1.12v-1.376l1.216-.08.224-2.144h1.536v2.144h2v1.456h-2v3.744c0 .918.368 1.376 1.104 1.376.138 0 .282-.016.432-.048.149-.042.277-.085.384-.128l.32 1.36c-.214.075-.459.139-.736.192-.267.064-.555.096-.864.096Zm6.163 0c-.725 0-1.381-.16-1.968-.48-.587-.33-1.051-.8-1.392-1.408-.341-.618-.512-1.36-.512-2.224 0-.853.171-1.589.512-2.208.352-.618.805-1.093 1.36-1.424.555-.33 1.136-.496 1.744-.496.715 0 1.312.16 1.792.48.48.31.843.747 1.088 1.312.245.555.368 1.2.368 1.936 0 .384-.027.683-.08.896h-4.992c.085.694.336 1.232.752 1.616.416.384.939.576 1.568.576.341 0 .656-.048.944-.144.299-.106.592-.25.88-.432l.624 1.152c-.373.246-.789.448-1.248.608-.459.16-.939.24-1.44.24Zm-2.096-4.864h3.488c0-.608-.133-1.082-.4-1.424-.267-.352-.667-.528-1.2-.528-.459 0-.869.171-1.232.512-.352.331-.571.811-.656 1.44Zm6.885 4.672v-7.856h1.52l.128 1.072h.064c.331-.352.688-.65 1.072-.896.395-.245.838-.368 1.328-.368.576 0 1.035.128 1.376.384.352.246.619.587.8 1.024.374-.405.763-.741 1.168-1.008.416-.266.87-.4 1.36-.4.832 0 1.446.272 1.84.816.395.544.592 1.312.592 2.304V149h-1.856v-4.688c0-.65-.101-1.109-.304-1.376-.192-.266-.49-.4-.896-.4-.49 0-1.04.326-1.648.976V149h-1.84v-4.688c0-.65-.101-1.109-.304-1.376-.192-.266-.496-.4-.912-.4-.49 0-1.04.326-1.648.976V149h-1.84Zm16.885.192c-.726 0-1.382-.16-1.968-.48-.587-.33-1.051-.8-1.392-1.408-.342-.618-.512-1.36-.512-2.224 0-.853.17-1.589.512-2.208.352-.618.805-1.093 1.36-1.424.554-.33 1.136-.496 1.744-.496.714 0 1.312.16 1.792.48.48.31.842.747 1.088 1.312.245.555.368 1.2.368 1.936 0 .384-.027.683-.08.896h-4.992c.085.694.336 1.232.752 1.616.416.384.938.576 1.568.576.341 0 .656-.048.944-.144.298-.106.592-.25.88-.432l.624 1.152c-.374.246-.79.448-1.248.608-.459.16-.939.24-1.44.24Zm-2.096-4.864h3.488c0-.608-.134-1.082-.4-1.424-.267-.352-.667-.528-1.2-.528-.459 0-.87.171-1.232.512-.352.331-.571.811-.656 1.44Zm6.885 4.672v-7.856h1.52l.128 1.056h.064c.352-.341.736-.634 1.152-.88.416-.245.891-.368 1.424-.368.843 0 1.456.272 1.84.816.384.544.576 1.312.576 2.304V149h-1.84v-4.688c0-.65-.096-1.109-.288-1.376-.192-.266-.507-.4-.944-.4-.341 0-.645.086-.912.256-.256.16-.549.4-.88.72V149h-1.84Zm11.761.192c-.907 0-1.552-.261-1.936-.784-.373-.533-.56-1.221-.56-2.064V142.6h-1.12v-1.376l1.216-.08.224-2.144h1.536v2.144h2v1.456h-2v3.744c0 .918.368 1.376 1.104 1.376.139 0 .283-.016.432-.048.149-.042.277-.085.384-.128l.32 1.36c-.213.075-.459.139-.736.192-.267.064-.555.096-.864.096Zm8.201 0c-.683 0-1.243-.213-1.68-.64-.427-.426-.64-.981-.64-1.664 0-.842.368-1.493 1.104-1.952.736-.469 1.909-.789 3.52-.96-.011-.416-.123-.773-.336-1.072-.203-.309-.571-.464-1.104-.464-.384 0-.763.075-1.136.224-.363.15-.72.331-1.072.544l-.672-1.232c.437-.277.928-.517 1.472-.72.554-.202 1.141-.304 1.76-.304.981 0 1.712.294 2.192.88.49.576.736 1.414.736 2.512V149h-1.52l-.128-.864h-.064c-.352.299-.731.55-1.136.752-.395.203-.827.304-1.296.304Zm.592-1.44c.32 0 .608-.074.864-.224.266-.16.549-.373.848-.64v-1.76c-1.067.139-1.808.347-2.224.624-.416.267-.624.598-.624.992 0 .352.106.608.32.768.213.16.485.24.816.24Zm8.129 1.44c-.842 0-1.456-.272-1.84-.816-.384-.544-.576-1.312-.576-2.304v-4.928h1.84v4.688c0 .651.096 1.11.288 1.376.192.267.502.4.928.4.342 0 .64-.085.896-.256.267-.17.55-.448.848-.832v-5.376h1.84V149h-1.504l-.144-1.152h-.048c-.341.406-.714.731-1.12.976-.405.246-.874.368-1.408.368Zm13.118 0c-.714 0-1.36-.16-1.936-.48-.565-.33-1.018-.8-1.36-1.408-.33-.618-.496-1.36-.496-2.224 0-.874.182-1.616.544-2.224.363-.618.843-1.088 1.44-1.408.608-.33 1.259-.496 1.952-.496.502 0 .939.086 1.312.256.374.171.704.379.992.624l-.896 1.2c-.202-.181-.41-.32-.624-.416-.213-.106-.442-.16-.688-.16-.629 0-1.146.24-1.552.72-.394.48-.592 1.115-.592 1.904 0 .779.192 1.408.576 1.888.395.48.902.72 1.52.72.31 0 .598-.064.864-.192.278-.138.528-.298.752-.48l.752 1.216c-.362.32-.768.56-1.216.72-.448.16-.896.24-1.344.24Zm6.976 0c-.65 0-1.258-.16-1.824-.48-.565-.33-1.024-.8-1.376-1.408-.352-.618-.528-1.36-.528-2.224 0-.874.176-1.616.528-2.224.352-.618.811-1.088 1.376-1.408.566-.33 1.174-.496 1.824-.496.662 0 1.275.166 1.84.496.566.32 1.024.79 1.376 1.408.352.608.528 1.35.528 2.224 0 .864-.176 1.606-.528 2.224-.352.608-.81 1.078-1.376 1.408-.565.32-1.178.48-1.84.48Zm0-1.504c.576 0 1.03-.24 1.36-.72.331-.48.496-1.109.496-1.888 0-.789-.165-1.424-.496-1.904-.33-.48-.784-.72-1.36-.72-.576 0-1.029.24-1.36.72-.32.48-.48 1.115-.48 1.904 0 .779.16 1.408.48 1.888.331.48.784.72 1.36.72ZM251.65 149v-7.856h1.52l.128 1.056h.064c.352-.341.736-.634 1.152-.88.416-.245.891-.368 1.424-.368.843 0 1.456.272 1.84.816.384.544.576 1.312.576 2.304V149h-1.84v-4.688c0-.65-.096-1.109-.288-1.376-.192-.266-.506-.4-.944-.4-.341 0-.645.086-.912.256-.256.16-.549.4-.88.72V149h-1.84Zm11.762.192c-.907 0-1.552-.261-1.936-.784-.374-.533-.56-1.221-.56-2.064V142.6h-1.12v-1.376l1.216-.08.224-2.144h1.536v2.144h2v1.456h-2v3.744c0 .918.368 1.376 1.104 1.376.138 0 .282-.016.432-.048.149-.042.277-.085.384-.128l.32 1.36c-.214.075-.459.139-.736.192-.267.064-.555.096-.864.096Zm6.163 0c-.725 0-1.381-.16-1.968-.48-.587-.33-1.051-.8-1.392-1.408-.341-.618-.512-1.36-.512-2.224 0-.853.171-1.589.512-2.208.352-.618.805-1.093 1.36-1.424.555-.33 1.136-.496 1.744-.496.715 0 1.312.16 1.792.48.48.31.843.747 1.088 1.312.245.555.368 1.2.368 1.936 0 .384-.027.683-.08.896h-4.992c.085.694.336 1.232.752 1.616.416.384.939.576 1.568.576.341 0 .656-.048.944-.144.299-.106.592-.25.88-.432l.624 1.152c-.373.246-.789.448-1.248.608-.459.16-.939.24-1.44.24Zm-2.096-4.864h3.488c0-.608-.133-1.082-.4-1.424-.267-.352-.667-.528-1.2-.528-.459 0-.869.171-1.232.512-.352.331-.571.811-.656 1.44Zm6.885 4.672v-7.856h1.52l.128 1.056h.064c.352-.341.736-.634 1.152-.88.416-.245.891-.368 1.424-.368.843 0 1.456.272 1.84.816.384.544.576 1.312.576 2.304V149h-1.84v-4.688c0-.65-.096-1.109-.288-1.376-.192-.266-.506-.4-.944-.4-.341 0-.645.086-.912.256-.256.16-.549.4-.88.72V149h-1.84Zm11.329.192c-.842 0-1.456-.272-1.84-.816-.384-.544-.576-1.312-.576-2.304v-4.928h1.84v4.688c0 .651.096 1.11.288 1.376.192.267.502.4.928.4.342 0 .64-.085.896-.256.267-.17.55-.448.848-.832v-5.376h1.84V149h-1.504l-.144-1.152h-.048c-.341.406-.714.731-1.12.976-.405.246-.874.368-1.408.368Z"/><rect width="232" height="35.0003" x="75.5" y="125.5" stroke="#0C419A" rx="3.5"/></g><defs><clipPath id="a"><path fill="#fff" d="M0 0h541v357H0z"/></clipPath><clipPath id="c"><rect width="780" height="400" x="62" y="60" fill="#fff" rx="16"/></clipPath><filter id="b" width="940" height="580" x="-18" y="60" color-interpolation-filters="sRGB" filterUnits="userSpaceOnUse"><feFlood flood-opacity="0" result="BackgroundImageFix"/><feColorMatrix in="SourceAlpha" result="hardAlpha" values="0 0 0 0 0 0 0 0 0 0 0 0 0 0 0 0 0 0 127 0"/><feOffset dy="2.7673"/><feGaussianBlur stdDeviation="1.1069"/><feColorMatrix values="0 0 0 0 0 0 0 0 0 0 0 0 0 0 0 0 0 0 0.0196802 0"/><feBlend in2="BackgroundImageFix" result="effect1_dropShadow_506_106173"/><feColorMatrix in="SourceAlpha" result="hardAlpha" values="0 0 0 0 0 0 0 0 0 0 0 0 0 0 0 0 0 0 127 0"/><feOffset dy="6.6501"/><feGaussianBlur stdDeviation="2.66"/><feColorMatrix values="0 0 0 0 0 0 0 0 0 0 0 0 0 0 0 0 0 0 0.0282725 0"/><feBlend in2="effect1_dropShadow_506_106173" result="effect2_dropShadow_506_106173"/><feColorMatrix in="SourceAlpha" result="hardAlpha" values="0 0 0 0 0 0 0 0 0 0 0 0 0 0 0 0 0 0 127 0"/><feOffset dy="12.5216"/><feGaussianBlur stdDeviation="5.0086"/><feColorMatrix values="0 0 0 0 0 0 0 0 0 0 0 0 0 0 0 0 0 0 0.035 0"/><feBlend in2="effect2_dropShadow_506_106173" result="effect3_dropShadow_506_106173"/><feColorMatrix in="SourceAlpha" result="hardAlpha" values="0 0 0 0 0 0 0 0 0 0 0 0 0 0 0 0 0 0 127 0"/><feOffset dy="22.3363"/><feGaussianBlur stdDeviation="8.9345"/><feColorMatrix values="0 0 0 0 0 0 0 0 0 0 0 0 0 0 0 0 0 0 0.0417275 0"/><feBlend in2="effect3_dropShadow_506_106173" result="effect4_dropShadow_506_106173"/><feColorMatrix in="SourceAlpha" result="hardAlpha" values="0 0 0 0 0 0 0 0 0 0 0 0 0 0 0 0 0 0 127 0"/><feOffset dy="41.7776"/><feGaussianBlur stdDeviation="16.711"/><feColorMatrix values="0 0 0 0 0 0 0 0 0 0 0 0 0 0 0 0 0 0 0.0503198 0"/><feBlend in2="effect4_dropShadow_506_106173" result="effect5_dropShadow_506_106173"/><feColorMatrix in="SourceAlpha" result="hardAlpha" values="0 0 0 0 0 0 0 0 0 0 0 0 0 0 0 0 0 0 127 0"/><feOffset dy="100"/><feGaussianBlur stdDeviation="40"/><feColorMatrix values="0 0 0 0 0 0 0 0 0 0 0 0 0 0 0 0 0 0 0.07 0"/><feBlend in2="effect5_dropShadow_506_106173" result="effect6_dropShadow_506_106173"/><feBlend in="SourceGraphic" in2="effect6_dropShadow_506_106173" result="shape"/></filter><filter id="d" width="486" height="63" x="60" y="116" color-interpolation-filters="sRGB" filterUnits="userSpaceOnUse"><feFlood flood-opacity="0" result="BackgroundImageFix"/><feColorMatrix in="SourceAlpha" result="hardAlpha" values="0 0 0 0 0 0 0 0 0 0 0 0 0 0 0 0 0 0 127 0"/><feOffset dx="1" dy="4"/><feGaussianBlur stdDeviation="2"/><feComposite in2="hardAlpha" operator="out"/><feColorMatrix values="0 0 0 0 0 0 0 0 0 0 0 0 0 0 0 0 0 0 0.05 0"/><feBlend in2="BackgroundImageFix" result="effect1_dropShadow_506_106173"/><feBlend in="SourceGraphic" in2="effect1_dropShadow_506_106173" result="shape"/></filter></defs></svg>