<svg width="541" height="357" viewBox="0 0 541 357" fill="none" xmlns="http://www.w3.org/2000/svg">
<g clip-path="url(#clip0_506_106173)">
<rect width="541" height="357" fill="#E7ECF5"/>
<g filter="url(#filter0_dddddd_506_106173)">
<g clip-path="url(#clip1_506_106173)">
<rect width="780" height="56" transform="translate(62 60)" fill="#E2E7EE"/>
<path fill-rule="evenodd" clip-rule="evenodd" d="M92 94C95.3137 94 98 91.3137 98 88C98 84.6863 95.3137 82 92 82C88.6863 82 86 84.6863 86 88C86 91.3137 88.6863 94 92 94Z" fill="#ED6A5E"/>
<path fill-rule="evenodd" clip-rule="evenodd" d="M112 94C115.314 94 118 91.3137 118 88C118 84.6863 115.314 82 112 82C108.686 82 106 84.6863 106 88C106 91.3137 108.686 94 112 94Z" fill="#F4BF4F"/>
<path fill-rule="evenodd" clip-rule="evenodd" d="M132 94C135.314 94 138 91.3137 138 88C138 84.6863 135.314 82 132 82C128.686 82 126 84.6863 126 88C126 91.3137 128.686 94 132 94Z" fill="#61C554"/>
<rect x="62" y="116" width="780" height="344" fill="#F6F8FC"/>
</g>
</g>
<g filter="url(#filter1_d_506_106173)">
<rect x="63" y="116" width="478" height="55" fill="white"/>
</g>
<path d="M94.472 143.432L94.104 144.712H96.776L96.408 143.432C96.2373 142.878 96.072 142.307 95.912 141.72C95.7627 141.134 95.6133 140.552 95.464 139.976H95.4C95.2613 140.563 95.112 141.15 94.952 141.736C94.8027 142.312 94.6427 142.878 94.472 143.432ZM90.968 149L94.376 138.536H96.552L99.96 149H98.008L97.192 146.168H93.672L92.856 149H90.968ZM102.922 149.192C102.271 149.192 101.807 148.995 101.53 148.6C101.263 148.206 101.13 147.667 101.13 146.984V137.704H102.97V147.08C102.97 147.304 103.013 147.464 103.098 147.56C103.183 147.646 103.274 147.688 103.37 147.688C103.413 147.688 103.45 147.688 103.482 147.688C103.525 147.678 103.583 147.667 103.658 147.656L103.898 149.032C103.791 149.075 103.653 149.112 103.482 149.144C103.322 149.176 103.135 149.192 102.922 149.192ZM107.306 149.192C106.655 149.192 106.191 148.995 105.914 148.6C105.647 148.206 105.514 147.667 105.514 146.984V137.704H107.354V147.08C107.354 147.304 107.396 147.464 107.482 147.56C107.567 147.646 107.658 147.688 107.754 147.688C107.796 147.688 107.834 147.688 107.866 147.688C107.908 147.678 107.967 147.667 108.042 147.656L108.282 149.032C108.175 149.075 108.036 149.112 107.866 149.144C107.706 149.176 107.519 149.192 107.306 149.192ZM113.257 149.192C112.532 149.192 111.876 149.032 111.289 148.712C110.703 148.382 110.239 147.912 109.897 147.304C109.556 146.686 109.385 145.944 109.385 145.08C109.385 144.227 109.556 143.491 109.897 142.872C110.249 142.254 110.703 141.779 111.257 141.448C111.812 141.118 112.393 140.952 113.001 140.952C113.716 140.952 114.313 141.112 114.793 141.432C115.273 141.742 115.636 142.179 115.881 142.744C116.127 143.299 116.249 143.944 116.249 144.68C116.249 145.064 116.223 145.363 116.169 145.576H111.177C111.263 146.27 111.513 146.808 111.929 147.192C112.345 147.576 112.868 147.768 113.497 147.768C113.839 147.768 114.153 147.72 114.441 147.624C114.74 147.518 115.033 147.374 115.321 147.192L115.945 148.344C115.572 148.59 115.156 148.792 114.697 148.952C114.239 149.112 113.759 149.192 113.257 149.192ZM111.161 144.328H114.649C114.649 143.72 114.516 143.246 114.249 142.904C113.983 142.552 113.583 142.376 113.049 142.376C112.591 142.376 112.18 142.547 111.817 142.888C111.465 143.219 111.247 143.699 111.161 144.328ZM118.047 149V141.144H119.567L119.695 142.536H119.759C120.036 142.024 120.372 141.635 120.767 141.368C121.161 141.091 121.567 140.952 121.983 140.952C122.356 140.952 122.655 141.006 122.879 141.112L122.559 142.712C122.42 142.67 122.292 142.638 122.175 142.616C122.057 142.595 121.913 142.584 121.743 142.584C121.433 142.584 121.108 142.707 120.767 142.952C120.425 143.187 120.132 143.603 119.887 144.2V149H118.047ZM130.051 149.192C129.069 149.192 128.285 148.83 127.699 148.104C127.112 147.379 126.819 146.371 126.819 145.08C126.819 144.227 126.973 143.491 127.283 142.872C127.603 142.254 128.019 141.779 128.531 141.448C129.043 141.118 129.581 140.952 130.147 140.952C130.595 140.952 130.973 141.032 131.283 141.192C131.603 141.342 131.912 141.55 132.211 141.816L132.147 140.552V137.704H133.987V149H132.467L132.339 148.152H132.275C131.987 148.44 131.651 148.686 131.267 148.888C130.883 149.091 130.477 149.192 130.051 149.192ZM130.499 147.672C131.085 147.672 131.635 147.379 132.147 146.792V143.128C131.88 142.883 131.613 142.712 131.347 142.616C131.08 142.52 130.813 142.472 130.547 142.472C130.045 142.472 129.613 142.702 129.251 143.16C128.899 143.608 128.723 144.243 128.723 145.064C128.723 145.907 128.877 146.552 129.187 147C129.496 147.448 129.933 147.672 130.499 147.672ZM136.37 149V141.144H138.21V149H136.37ZM137.298 139.768C136.967 139.768 136.701 139.672 136.498 139.48C136.295 139.288 136.194 139.032 136.194 138.712C136.194 138.403 136.295 138.152 136.498 137.96C136.701 137.768 136.967 137.672 137.298 137.672C137.629 137.672 137.895 137.768 138.098 137.96C138.301 138.152 138.402 138.403 138.402 138.712C138.402 139.032 138.301 139.288 138.098 139.48C137.895 139.672 137.629 139.768 137.298 139.768ZM140.597 149V141.144H142.117L142.245 142.536H142.309C142.587 142.024 142.923 141.635 143.317 141.368C143.712 141.091 144.117 140.952 144.533 140.952C144.907 140.952 145.205 141.006 145.429 141.112L145.109 142.712C144.971 142.67 144.843 142.638 144.725 142.616C144.608 142.595 144.464 142.584 144.293 142.584C143.984 142.584 143.659 142.707 143.317 142.952C142.976 143.187 142.683 143.603 142.437 144.2V149H140.597ZM149.81 149.192C149.085 149.192 148.429 149.032 147.842 148.712C147.255 148.382 146.791 147.912 146.45 147.304C146.109 146.686 145.938 145.944 145.938 145.08C145.938 144.227 146.109 143.491 146.45 142.872C146.802 142.254 147.255 141.779 147.81 141.448C148.365 141.118 148.946 140.952 149.554 140.952C150.269 140.952 150.866 141.112 151.346 141.432C151.826 141.742 152.189 142.179 152.434 142.744C152.679 143.299 152.802 143.944 152.802 144.68C152.802 145.064 152.775 145.363 152.722 145.576H147.73C147.815 146.27 148.066 146.808 148.482 147.192C148.898 147.576 149.421 147.768 150.05 147.768C150.391 147.768 150.706 147.72 150.994 147.624C151.293 147.518 151.586 147.374 151.874 147.192L152.498 148.344C152.125 148.59 151.709 148.792 151.25 148.952C150.791 149.112 150.311 149.192 149.81 149.192ZM147.714 144.328H151.202C151.202 143.72 151.069 143.246 150.802 142.904C150.535 142.552 150.135 142.376 149.602 142.376C149.143 142.376 148.733 142.547 148.37 142.888C148.018 143.219 147.799 143.699 147.714 144.328ZM157.879 149.192C157.165 149.192 156.519 149.032 155.943 148.712C155.378 148.382 154.925 147.912 154.583 147.304C154.253 146.686 154.087 145.944 154.087 145.08C154.087 144.206 154.269 143.464 154.631 142.856C154.994 142.238 155.474 141.768 156.071 141.448C156.679 141.118 157.33 140.952 158.023 140.952C158.525 140.952 158.962 141.038 159.335 141.208C159.709 141.379 160.039 141.587 160.327 141.832L159.431 143.032C159.229 142.851 159.021 142.712 158.807 142.616C158.594 142.51 158.365 142.456 158.119 142.456C157.49 142.456 156.973 142.696 156.567 143.176C156.173 143.656 155.975 144.291 155.975 145.08C155.975 145.859 156.167 146.488 156.551 146.968C156.946 147.448 157.453 147.688 158.071 147.688C158.381 147.688 158.669 147.624 158.935 147.496C159.213 147.358 159.463 147.198 159.687 147.016L160.439 148.232C160.077 148.552 159.671 148.792 159.223 148.952C158.775 149.112 158.327 149.192 157.879 149.192ZM164.642 149.192C163.735 149.192 163.09 148.931 162.706 148.408C162.332 147.875 162.146 147.187 162.146 146.344V142.6H161.026V141.224L162.242 141.144L162.466 139H164.002V141.144H166.002V142.6H164.002V146.344C164.002 147.262 164.37 147.72 165.106 147.72C165.244 147.72 165.388 147.704 165.538 147.672C165.687 147.63 165.815 147.587 165.922 147.544L166.242 148.904C166.028 148.979 165.783 149.043 165.506 149.096C165.239 149.16 164.951 149.192 164.642 149.192ZM170.805 149.192C170.08 149.192 169.424 149.032 168.837 148.712C168.25 148.382 167.786 147.912 167.445 147.304C167.104 146.686 166.933 145.944 166.933 145.08C166.933 144.227 167.104 143.491 167.445 142.872C167.797 142.254 168.25 141.779 168.805 141.448C169.36 141.118 169.941 140.952 170.549 140.952C171.264 140.952 171.861 141.112 172.341 141.432C172.821 141.742 173.184 142.179 173.429 142.744C173.674 143.299 173.797 143.944 173.797 144.68C173.797 145.064 173.77 145.363 173.717 145.576H168.725C168.81 146.27 169.061 146.808 169.477 147.192C169.893 147.576 170.416 147.768 171.045 147.768C171.386 147.768 171.701 147.72 171.989 147.624C172.288 147.518 172.581 147.374 172.869 147.192L173.493 148.344C173.12 148.59 172.704 148.792 172.245 148.952C171.786 149.112 171.306 149.192 170.805 149.192ZM168.709 144.328H172.197C172.197 143.72 172.064 143.246 171.797 142.904C171.53 142.552 171.13 142.376 170.597 142.376C170.138 142.376 169.728 142.547 169.365 142.888C169.013 143.219 168.794 143.699 168.709 144.328ZM175.594 149V141.144H177.114L177.242 142.216H177.306C177.637 141.864 177.994 141.566 178.378 141.32C178.773 141.075 179.216 140.952 179.706 140.952C180.282 140.952 180.741 141.08 181.082 141.336C181.434 141.582 181.701 141.923 181.882 142.36C182.256 141.955 182.645 141.619 183.05 141.352C183.466 141.086 183.92 140.952 184.41 140.952C185.242 140.952 185.856 141.224 186.25 141.768C186.645 142.312 186.842 143.08 186.842 144.072V149H184.986V144.312C184.986 143.662 184.885 143.203 184.682 142.936C184.49 142.67 184.192 142.536 183.786 142.536C183.296 142.536 182.746 142.862 182.138 143.512V149H180.298V144.312C180.298 143.662 180.197 143.203 179.994 142.936C179.802 142.67 179.498 142.536 179.082 142.536C178.592 142.536 178.042 142.862 177.434 143.512V149H175.594ZM192.479 149.192C191.753 149.192 191.097 149.032 190.511 148.712C189.924 148.382 189.46 147.912 189.119 147.304C188.777 146.686 188.607 145.944 188.607 145.08C188.607 144.227 188.777 143.491 189.119 142.872C189.471 142.254 189.924 141.779 190.479 141.448C191.033 141.118 191.615 140.952 192.223 140.952C192.937 140.952 193.535 141.112 194.015 141.432C194.495 141.742 194.857 142.179 195.103 142.744C195.348 143.299 195.471 143.944 195.471 144.68C195.471 145.064 195.444 145.363 195.391 145.576H190.399C190.484 146.27 190.735 146.808 191.151 147.192C191.567 147.576 192.089 147.768 192.719 147.768C193.06 147.768 193.375 147.72 193.663 147.624C193.961 147.518 194.255 147.374 194.543 147.192L195.167 148.344C194.793 148.59 194.377 148.792 193.919 148.952C193.46 149.112 192.98 149.192 192.479 149.192ZM190.383 144.328H193.871C193.871 143.72 193.737 143.246 193.471 142.904C193.204 142.552 192.804 142.376 192.271 142.376C191.812 142.376 191.401 142.547 191.039 142.888C190.687 143.219 190.468 143.699 190.383 144.328ZM197.268 149V141.144H198.788L198.916 142.2H198.98C199.332 141.859 199.716 141.566 200.132 141.32C200.548 141.075 201.023 140.952 201.556 140.952C202.399 140.952 203.012 141.224 203.396 141.768C203.78 142.312 203.972 143.08 203.972 144.072V149H202.132V144.312C202.132 143.662 202.036 143.203 201.844 142.936C201.652 142.67 201.337 142.536 200.9 142.536C200.559 142.536 200.255 142.622 199.988 142.792C199.732 142.952 199.439 143.192 199.108 143.512V149H197.268ZM209.029 149.192C208.122 149.192 207.477 148.931 207.093 148.408C206.72 147.875 206.533 147.187 206.533 146.344V142.6H205.413V141.224L206.629 141.144L206.853 139H208.389V141.144H210.389V142.6H208.389V146.344C208.389 147.262 208.757 147.72 209.493 147.72C209.632 147.72 209.776 147.704 209.925 147.672C210.074 147.63 210.202 147.587 210.309 147.544L210.629 148.904C210.416 148.979 210.17 149.043 209.893 149.096C209.626 149.16 209.338 149.192 209.029 149.192ZM217.23 149.192C216.547 149.192 215.987 148.979 215.55 148.552C215.123 148.126 214.91 147.571 214.91 146.888C214.91 146.046 215.278 145.395 216.014 144.936C216.75 144.467 217.923 144.147 219.534 143.976C219.523 143.56 219.411 143.203 219.198 142.904C218.995 142.595 218.627 142.44 218.094 142.44C217.71 142.44 217.331 142.515 216.958 142.664C216.595 142.814 216.238 142.995 215.886 143.208L215.214 141.976C215.651 141.699 216.142 141.459 216.686 141.256C217.24 141.054 217.827 140.952 218.446 140.952C219.427 140.952 220.158 141.246 220.638 141.832C221.128 142.408 221.374 143.246 221.374 144.344V149H219.854L219.726 148.136H219.662C219.31 148.435 218.931 148.686 218.526 148.888C218.131 149.091 217.699 149.192 217.23 149.192ZM217.822 147.752C218.142 147.752 218.43 147.678 218.686 147.528C218.952 147.368 219.235 147.155 219.534 146.888V145.128C218.467 145.267 217.726 145.475 217.31 145.752C216.894 146.019 216.686 146.35 216.686 146.744C216.686 147.096 216.792 147.352 217.006 147.512C217.219 147.672 217.491 147.752 217.822 147.752ZM225.951 149.192C225.109 149.192 224.495 148.92 224.111 148.376C223.727 147.832 223.535 147.064 223.535 146.072V141.144H225.375V145.832C225.375 146.483 225.471 146.942 225.663 147.208C225.855 147.475 226.165 147.608 226.591 147.608C226.933 147.608 227.231 147.523 227.487 147.352C227.754 147.182 228.037 146.904 228.335 146.52V141.144H230.175V149H228.671L228.527 147.848H228.479C228.138 148.254 227.765 148.579 227.359 148.824C226.954 149.07 226.485 149.192 225.951 149.192ZM239.069 149.192C238.355 149.192 237.709 149.032 237.133 148.712C236.568 148.382 236.115 147.912 235.773 147.304C235.443 146.686 235.277 145.944 235.277 145.08C235.277 144.206 235.459 143.464 235.821 142.856C236.184 142.238 236.664 141.768 237.261 141.448C237.869 141.118 238.52 140.952 239.213 140.952C239.715 140.952 240.152 141.038 240.525 141.208C240.899 141.379 241.229 141.587 241.517 141.832L240.621 143.032C240.419 142.851 240.211 142.712 239.997 142.616C239.784 142.51 239.555 142.456 239.309 142.456C238.68 142.456 238.163 142.696 237.757 143.176C237.363 143.656 237.165 144.291 237.165 145.08C237.165 145.859 237.357 146.488 237.741 146.968C238.136 147.448 238.643 147.688 239.261 147.688C239.571 147.688 239.859 147.624 240.125 147.496C240.403 147.358 240.653 147.198 240.877 147.016L241.629 148.232C241.267 148.552 240.861 148.792 240.413 148.952C239.965 149.112 239.517 149.192 239.069 149.192ZM246.045 149.192C245.395 149.192 244.787 149.032 244.221 148.712C243.656 148.382 243.197 147.912 242.845 147.304C242.493 146.686 242.317 145.944 242.317 145.08C242.317 144.206 242.493 143.464 242.845 142.856C243.197 142.238 243.656 141.768 244.221 141.448C244.787 141.118 245.395 140.952 246.045 140.952C246.707 140.952 247.32 141.118 247.885 141.448C248.451 141.768 248.909 142.238 249.261 142.856C249.613 143.464 249.789 144.206 249.789 145.08C249.789 145.944 249.613 146.686 249.261 147.304C248.909 147.912 248.451 148.382 247.885 148.712C247.32 149.032 246.707 149.192 246.045 149.192ZM246.045 147.688C246.621 147.688 247.075 147.448 247.405 146.968C247.736 146.488 247.901 145.859 247.901 145.08C247.901 144.291 247.736 143.656 247.405 143.176C247.075 142.696 246.621 142.456 246.045 142.456C245.469 142.456 245.016 142.696 244.685 143.176C244.365 143.656 244.205 144.291 244.205 145.08C244.205 145.859 244.365 146.488 244.685 146.968C245.016 147.448 245.469 147.688 246.045 147.688ZM251.65 149V141.144H253.17L253.298 142.2H253.362C253.714 141.859 254.098 141.566 254.514 141.32C254.93 141.075 255.405 140.952 255.938 140.952C256.781 140.952 257.394 141.224 257.778 141.768C258.162 142.312 258.354 143.08 258.354 144.072V149H256.514V144.312C256.514 143.662 256.418 143.203 256.226 142.936C256.034 142.67 255.72 142.536 255.282 142.536C254.941 142.536 254.637 142.622 254.37 142.792C254.114 142.952 253.821 143.192 253.49 143.512V149H251.65ZM263.412 149.192C262.505 149.192 261.86 148.931 261.476 148.408C261.102 147.875 260.916 147.187 260.916 146.344V142.6H259.796V141.224L261.012 141.144L261.236 139H262.772V141.144H264.772V142.6H262.772V146.344C262.772 147.262 263.14 147.72 263.876 147.72C264.014 147.72 264.158 147.704 264.308 147.672C264.457 147.63 264.585 147.587 264.692 147.544L265.012 148.904C264.798 148.979 264.553 149.043 264.276 149.096C264.009 149.16 263.721 149.192 263.412 149.192ZM269.575 149.192C268.85 149.192 268.194 149.032 267.607 148.712C267.02 148.382 266.556 147.912 266.215 147.304C265.874 146.686 265.703 145.944 265.703 145.08C265.703 144.227 265.874 143.491 266.215 142.872C266.567 142.254 267.02 141.779 267.575 141.448C268.13 141.118 268.711 140.952 269.319 140.952C270.034 140.952 270.631 141.112 271.111 141.432C271.591 141.742 271.954 142.179 272.199 142.744C272.444 143.299 272.567 143.944 272.567 144.68C272.567 145.064 272.54 145.363 272.487 145.576H267.495C267.58 146.27 267.831 146.808 268.247 147.192C268.663 147.576 269.186 147.768 269.815 147.768C270.156 147.768 270.471 147.72 270.759 147.624C271.058 147.518 271.351 147.374 271.639 147.192L272.263 148.344C271.89 148.59 271.474 148.792 271.015 148.952C270.556 149.112 270.076 149.192 269.575 149.192ZM267.479 144.328H270.967C270.967 143.72 270.834 143.246 270.567 142.904C270.3 142.552 269.9 142.376 269.367 142.376C268.908 142.376 268.498 142.547 268.135 142.888C267.783 143.219 267.564 143.699 267.479 144.328ZM274.364 149V141.144H275.884L276.012 142.2H276.076C276.428 141.859 276.812 141.566 277.228 141.32C277.644 141.075 278.119 140.952 278.652 140.952C279.495 140.952 280.108 141.224 280.492 141.768C280.876 142.312 281.068 143.08 281.068 144.072V149H279.228V144.312C279.228 143.662 279.132 143.203 278.94 142.936C278.748 142.67 278.434 142.536 277.996 142.536C277.655 142.536 277.351 142.622 277.084 142.792C276.828 142.952 276.535 143.192 276.204 143.512V149H274.364ZM285.693 149.192C284.851 149.192 284.237 148.92 283.853 148.376C283.469 147.832 283.277 147.064 283.277 146.072V141.144H285.117V145.832C285.117 146.483 285.213 146.942 285.405 147.208C285.597 147.475 285.907 147.608 286.333 147.608C286.675 147.608 286.973 147.523 287.229 147.352C287.496 147.182 287.779 146.904 288.077 146.52V141.144H289.917V149H288.413L288.269 147.848H288.221C287.88 148.254 287.507 148.579 287.101 148.824C286.696 149.07 286.227 149.192 285.693 149.192Z" fill="#0C419A"/>
<rect x="75.5" y="125.5" width="232" height="35.0003" rx="3.5" stroke="#0C419A"/>
</g>
<defs>
<filter id="filter0_dddddd_506_106173" x="-18" y="60" width="940" height="580" filterUnits="userSpaceOnUse" color-interpolation-filters="sRGB">
<feFlood flood-opacity="0" result="BackgroundImageFix"/>
<feColorMatrix in="SourceAlpha" type="matrix" values="0 0 0 0 0 0 0 0 0 0 0 0 0 0 0 0 0 0 127 0" result="hardAlpha"/>
<feOffset dy="2.76726"/>
<feGaussianBlur stdDeviation="1.1069"/>
<feColorMatrix type="matrix" values="0 0 0 0 0 0 0 0 0 0 0 0 0 0 0 0 0 0 0.0196802 0"/>
<feBlend mode="normal" in2="BackgroundImageFix" result="effect1_dropShadow_506_106173"/>
<feColorMatrix in="SourceAlpha" type="matrix" values="0 0 0 0 0 0 0 0 0 0 0 0 0 0 0 0 0 0 127 0" result="hardAlpha"/>
<feOffset dy="6.6501"/>
<feGaussianBlur stdDeviation="2.66004"/>
<feColorMatrix type="matrix" values="0 0 0 0 0 0 0 0 0 0 0 0 0 0 0 0 0 0 0.0282725 0"/>
<feBlend mode="normal" in2="effect1_dropShadow_506_106173" result="effect2_dropShadow_506_106173"/>
<feColorMatrix in="SourceAlpha" type="matrix" values="0 0 0 0 0 0 0 0 0 0 0 0 0 0 0 0 0 0 127 0" result="hardAlpha"/>
<feOffset dy="12.5216"/>
<feGaussianBlur stdDeviation="5.00862"/>
<feColorMatrix type="matrix" values="0 0 0 0 0 0 0 0 0 0 0 0 0 0 0 0 0 0 0.035 0"/>
<feBlend mode="normal" in2="effect2_dropShadow_506_106173" result="effect3_dropShadow_506_106173"/>
<feColorMatrix in="SourceAlpha" type="matrix" values="0 0 0 0 0 0 0 0 0 0 0 0 0 0 0 0 0 0 127 0" result="hardAlpha"/>
<feOffset dy="22.3363"/>
<feGaussianBlur stdDeviation="8.93452"/>
<feColorMatrix type="matrix" values="0 0 0 0 0 0 0 0 0 0 0 0 0 0 0 0 0 0 0.0417275 0"/>
<feBlend mode="normal" in2="effect3_dropShadow_506_106173" result="effect4_dropShadow_506_106173"/>
<feColorMatrix in="SourceAlpha" type="matrix" values="0 0 0 0 0 0 0 0 0 0 0 0 0 0 0 0 0 0 127 0" result="hardAlpha"/>
<feOffset dy="41.7776"/>
<feGaussianBlur stdDeviation="16.711"/>
<feColorMatrix type="matrix" values="0 0 0 0 0 0 0 0 0 0 0 0 0 0 0 0 0 0 0.0503198 0"/>
<feBlend mode="normal" in2="effect4_dropShadow_506_106173" result="effect5_dropShadow_506_106173"/>
<feColorMatrix in="SourceAlpha" type="matrix" values="0 0 0 0 0 0 0 0 0 0 0 0 0 0 0 0 0 0 127 0" result="hardAlpha"/>
<feOffset dy="100"/>
<feGaussianBlur stdDeviation="40"/>
<feColorMatrix type="matrix" values="0 0 0 0 0 0 0 0 0 0 0 0 0 0 0 0 0 0 0.07 0"/>
<feBlend mode="normal" in2="effect5_dropShadow_506_106173" result="effect6_dropShadow_506_106173"/>
<feBlend mode="normal" in="SourceGraphic" in2="effect6_dropShadow_506_106173" result="shape"/>
</filter>
<filter id="filter1_d_506_106173" x="60" y="116" width="486" height="63" filterUnits="userSpaceOnUse" color-interpolation-filters="sRGB">
<feFlood flood-opacity="0" result="BackgroundImageFix"/>
<feColorMatrix in="SourceAlpha" type="matrix" values="0 0 0 0 0 0 0 0 0 0 0 0 0 0 0 0 0 0 127 0" result="hardAlpha"/>
<feOffset dx="1" dy="4"/>
<feGaussianBlur stdDeviation="2"/>
<feComposite in2="hardAlpha" operator="out"/>
<feColorMatrix type="matrix" values="0 0 0 0 0 0 0 0 0 0 0 0 0 0 0 0 0 0 0.05 0"/>
<feBlend mode="normal" in2="BackgroundImageFix" result="effect1_dropShadow_506_106173"/>
<feBlend mode="normal" in="SourceGraphic" in2="effect1_dropShadow_506_106173" result="shape"/>
</filter>
<clipPath id="clip0_506_106173">
<rect width="541" height="357" fill="white"/>
</clipPath>
<clipPath id="clip1_506_106173">
<rect x="62" y="60" width="780" height="400" rx="16" fill="white"/>
</clipPath>
</defs>
</svg>
