<svg width="541" height="357" viewBox="0 0 541 357" fill="none" xmlns="http://www.w3.org/2000/svg">
<g clip-path="url(#clip0_139_105231)">
<rect width="541" height="357" fill="#E7ECF5"/>
<g filter="url(#filter0_dddddd_139_105231)">
<g clip-path="url(#clip1_139_105231)">
<rect width="780" height="56" transform="translate(62 60)" fill="#E2E7EE"/>
<path fill-rule="evenodd" clip-rule="evenodd" d="M92 94C95.3137 94 98 91.3137 98 88C98 84.6863 95.3137 82 92 82C88.6863 82 86 84.6863 86 88C86 91.3137 88.6863 94 92 94Z" fill="#ED6A5E"/>
<path fill-rule="evenodd" clip-rule="evenodd" d="M112 94C115.314 94 118 91.3137 118 88C118 84.6863 115.314 82 112 82C108.686 82 106 84.6863 106 88C106 91.3137 108.686 94 112 94Z" fill="#F4BF4F"/>
<path fill-rule="evenodd" clip-rule="evenodd" d="M132 94C135.314 94 138 91.3137 138 88C138 84.6863 135.314 82 132 82C128.686 82 126 84.6863 126 88C126 91.3137 128.686 94 132 94Z" fill="#61C554"/>
<rect x="62" y="116" width="780" height="344" fill="#F6F8FC"/>
</g>
</g>
<path d="M96.6667 147.333H88.5533L92.28 143.607L91.3333 142.667L86 148L91.3333 153.333L92.2733 152.393L88.5533 148.667H96.6667V147.333Z" fill="#0C419A"/>
<path d="M106.661 154V143.536H110.197C110.923 143.536 111.573 143.632 112.149 143.824C112.736 144.016 113.195 144.341 113.525 144.8C113.867 145.248 114.037 145.861 114.037 146.64C114.037 147.44 113.845 148.085 113.461 148.576C113.088 149.067 112.587 149.419 111.957 149.632L114.453 154H112.373L110.117 149.904H108.517V154H106.661ZM108.517 148.432H110.005C110.72 148.432 111.264 148.283 111.637 147.984C112.021 147.675 112.213 147.227 112.213 146.64C112.213 146.043 112.021 145.627 111.637 145.392C111.264 145.147 110.72 145.024 110.005 145.024H108.517V148.432ZM119.214 154.192C118.488 154.192 117.832 154.032 117.246 153.712C116.659 153.381 116.195 152.912 115.854 152.304C115.512 151.685 115.342 150.944 115.342 150.08C115.342 149.227 115.512 148.491 115.854 147.872C116.206 147.253 116.659 146.779 117.214 146.448C117.768 146.117 118.35 145.952 118.958 145.952C119.672 145.952 120.27 146.112 120.75 146.432C121.23 146.741 121.592 147.179 121.838 147.744C122.083 148.299 122.206 148.944 122.206 149.68C122.206 150.064 122.179 150.363 122.126 150.576H117.134C117.219 151.269 117.47 151.808 117.886 152.192C118.302 152.576 118.824 152.768 119.454 152.768C119.795 152.768 120.11 152.72 120.398 152.624C120.696 152.517 120.99 152.373 121.278 152.192L121.902 153.344C121.528 153.589 121.112 153.792 120.654 153.952C120.195 154.112 119.715 154.192 119.214 154.192ZM117.118 149.328H120.606C120.606 148.72 120.472 148.245 120.206 147.904C119.939 147.552 119.539 147.376 119.006 147.376C118.547 147.376 118.136 147.547 117.774 147.888C117.422 148.219 117.203 148.699 117.118 149.328ZM126.615 154.192C125.708 154.192 125.063 153.931 124.679 153.408C124.306 152.875 124.119 152.187 124.119 151.344V147.6H122.999V146.224L124.215 146.144L124.439 144H125.975V146.144H127.975V147.6H125.975V151.344C125.975 152.261 126.343 152.72 127.079 152.72C127.218 152.72 127.362 152.704 127.511 152.672C127.66 152.629 127.788 152.587 127.895 152.544L128.215 153.904C128.002 153.979 127.756 154.043 127.479 154.096C127.212 154.16 126.924 154.192 126.615 154.192ZM132.634 154.192C131.983 154.192 131.375 154.032 130.81 153.712C130.245 153.381 129.786 152.912 129.434 152.304C129.082 151.685 128.906 150.944 128.906 150.08C128.906 149.205 129.082 148.464 129.434 147.856C129.786 147.237 130.245 146.768 130.81 146.448C131.375 146.117 131.983 145.952 132.634 145.952C133.295 145.952 133.909 146.117 134.474 146.448C135.039 146.768 135.498 147.237 135.85 147.856C136.202 148.464 136.378 149.205 136.378 150.08C136.378 150.944 136.202 151.685 135.85 152.304C135.498 152.912 135.039 153.381 134.474 153.712C133.909 154.032 133.295 154.192 132.634 154.192ZM132.634 152.688C133.21 152.688 133.663 152.448 133.994 151.968C134.325 151.488 134.49 150.859 134.49 150.08C134.49 149.291 134.325 148.656 133.994 148.176C133.663 147.696 133.21 147.456 132.634 147.456C132.058 147.456 131.605 147.696 131.274 148.176C130.954 148.656 130.794 149.291 130.794 150.08C130.794 150.859 130.954 151.488 131.274 151.968C131.605 152.448 132.058 152.688 132.634 152.688ZM140.575 154.192C139.733 154.192 139.119 153.92 138.735 153.376C138.351 152.832 138.159 152.064 138.159 151.072V146.144H139.999V150.832C139.999 151.483 140.095 151.941 140.287 152.208C140.479 152.475 140.789 152.608 141.215 152.608C141.557 152.608 141.855 152.523 142.111 152.352C142.378 152.181 142.661 151.904 142.959 151.52V146.144H144.799V154H143.295L143.151 152.848H143.103C142.762 153.253 142.389 153.579 141.983 153.824C141.578 154.069 141.109 154.192 140.575 154.192ZM147.17 154V146.144H148.69L148.818 147.536H148.882C149.159 147.024 149.495 146.635 149.89 146.368C150.285 146.091 150.69 145.952 151.106 145.952C151.479 145.952 151.778 146.005 152.002 146.112L151.682 147.712C151.543 147.669 151.415 147.637 151.298 147.616C151.181 147.595 151.037 147.584 150.866 147.584C150.557 147.584 150.231 147.707 149.89 147.952C149.549 148.187 149.255 148.603 149.01 149.2V154H147.17Z" fill="#0C419A"/>
<rect opacity="0.5" x="86" y="179" width="409" height="20" rx="10" fill="#CED9EB"/>
<rect opacity="0.5" x="86" y="220" width="409" height="20" rx="10" fill="#CED9EB"/>
<rect opacity="0.5" x="86" y="261" width="409" height="20" rx="10" fill="#CED9EB"/>
</g>
<defs>
<filter id="filter0_dddddd_139_105231" x="-18" y="60" width="940" height="580" filterUnits="userSpaceOnUse" color-interpolation-filters="sRGB">
<feFlood flood-opacity="0" result="BackgroundImageFix"/>
<feColorMatrix in="SourceAlpha" type="matrix" values="0 0 0 0 0 0 0 0 0 0 0 0 0 0 0 0 0 0 127 0" result="hardAlpha"/>
<feOffset dy="2.76726"/>
<feGaussianBlur stdDeviation="1.1069"/>
<feColorMatrix type="matrix" values="0 0 0 0 0 0 0 0 0 0 0 0 0 0 0 0 0 0 0.0196802 0"/>
<feBlend mode="normal" in2="BackgroundImageFix" result="effect1_dropShadow_139_105231"/>
<feColorMatrix in="SourceAlpha" type="matrix" values="0 0 0 0 0 0 0 0 0 0 0 0 0 0 0 0 0 0 127 0" result="hardAlpha"/>
<feOffset dy="6.6501"/>
<feGaussianBlur stdDeviation="2.66004"/>
<feColorMatrix type="matrix" values="0 0 0 0 0 0 0 0 0 0 0 0 0 0 0 0 0 0 0.0282725 0"/>
<feBlend mode="normal" in2="effect1_dropShadow_139_105231" result="effect2_dropShadow_139_105231"/>
<feColorMatrix in="SourceAlpha" type="matrix" values="0 0 0 0 0 0 0 0 0 0 0 0 0 0 0 0 0 0 127 0" result="hardAlpha"/>
<feOffset dy="12.5216"/>
<feGaussianBlur stdDeviation="5.00862"/>
<feColorMatrix type="matrix" values="0 0 0 0 0 0 0 0 0 0 0 0 0 0 0 0 0 0 0.035 0"/>
<feBlend mode="normal" in2="effect2_dropShadow_139_105231" result="effect3_dropShadow_139_105231"/>
<feColorMatrix in="SourceAlpha" type="matrix" values="0 0 0 0 0 0 0 0 0 0 0 0 0 0 0 0 0 0 127 0" result="hardAlpha"/>
<feOffset dy="22.3363"/>
<feGaussianBlur stdDeviation="8.93452"/>
<feColorMatrix type="matrix" values="0 0 0 0 0 0 0 0 0 0 0 0 0 0 0 0 0 0 0.0417275 0"/>
<feBlend mode="normal" in2="effect3_dropShadow_139_105231" result="effect4_dropShadow_139_105231"/>
<feColorMatrix in="SourceAlpha" type="matrix" values="0 0 0 0 0 0 0 0 0 0 0 0 0 0 0 0 0 0 127 0" result="hardAlpha"/>
<feOffset dy="41.7776"/>
<feGaussianBlur stdDeviation="16.711"/>
<feColorMatrix type="matrix" values="0 0 0 0 0 0 0 0 0 0 0 0 0 0 0 0 0 0 0.0503198 0"/>
<feBlend mode="normal" in2="effect4_dropShadow_139_105231" result="effect5_dropShadow_139_105231"/>
<feColorMatrix in="SourceAlpha" type="matrix" values="0 0 0 0 0 0 0 0 0 0 0 0 0 0 0 0 0 0 127 0" result="hardAlpha"/>
<feOffset dy="100"/>
<feGaussianBlur stdDeviation="40"/>
<feColorMatrix type="matrix" values="0 0 0 0 0 0 0 0 0 0 0 0 0 0 0 0 0 0 0.07 0"/>
<feBlend mode="normal" in2="effect5_dropShadow_139_105231" result="effect6_dropShadow_139_105231"/>
<feBlend mode="normal" in="SourceGraphic" in2="effect6_dropShadow_139_105231" result="shape"/>
</filter>
<clipPath id="clip0_139_105231">
<rect width="541" height="357" fill="white"/>
</clipPath>
<clipPath id="clip1_139_105231">
<rect x="62" y="60" width="780" height="400" rx="16" fill="white"/>
</clipPath>
</defs>
</svg>
