<svg xmlns="http://www.w3.org/2000/svg" width="541" height="357" fill="none"><path fill="#E7ECF5" d="M0 0h541v357H0z"/><g filter="url(#a)"><g clip-path="url(#b)"><rect width="416" height="211" x="63" y="73" fill="#fff" rx="6.92"/><path fill="#000" d="m92.927 98.023.456-1.2-4.464-1.944-.624 1.488 4.632 1.656Zm-8.328 17.736h1.68l1.464-4.608h6.168l1.488 4.608h1.68l-5.304-16.224h-1.872l-5.304 16.224Zm3.6-6.048 1.92-5.976c.216-.672.504-1.632.72-2.496.24.864.504 1.848.72 2.496l1.896 5.976h-5.256Zm19.34 5.352c.744.48 1.92 1.008 3.192 1.008 2.472 0 4.608-1.584 4.608-5.136v-2.64c0-3.336-2.184-5.112-4.704-5.112-2.496 0-4.68 1.776-4.68 5.112v12.528h1.584v-5.76Zm0-1.512v-5.136c0-2.592 1.368-3.768 3.096-3.768 1.704 0 3.12 1.176 3.12 3.768v2.4c0 2.832-1.464 3.792-3.144 3.792-1.056 0-2.064-.408-3.072-1.056Zm11.532 2.208h1.584v-8.088c0-1.824 1.224-3.024 2.952-3.024.36 0 .96.096 1.104.12l.288-1.44c-.288-.048-.96-.144-1.416-.144-2.52 0-4.512 1.752-4.512 4.488v8.088Zm8.2-5.088c0 3.72 2.064 5.4 4.824 5.4 2.784 0 4.848-1.68 4.848-5.4v-2.088c0-3.744-2.064-5.4-4.848-5.4-2.76 0-4.824 1.632-4.824 5.376v2.112Zm1.584-.12v-1.848c0-3.096 1.44-4.056 3.24-4.056 1.872 0 3.264.96 3.264 4.056v1.848c0 3.072-1.44 4.056-3.264 4.056-1.848 0-3.24-.984-3.24-4.056Zm13.037 4.512c.744.48 1.92 1.008 3.192 1.008 2.472 0 4.608-1.584 4.608-5.136v-2.64c0-3.336-2.184-5.112-4.704-5.112-2.496 0-4.68 1.776-4.68 5.112v12.528h1.584v-5.76Zm0-1.512v-5.136c0-2.592 1.368-3.768 3.096-3.768 1.704 0 3.12 1.176 3.12 3.768v2.4c0 2.832-1.464 3.792-3.144 3.792-1.056 0-2.064-.408-3.072-1.056Zm11.171-2.88c0 3.72 2.064 5.4 4.824 5.4 2.784 0 4.848-1.68 4.848-5.4v-2.088c0-3.744-2.064-5.4-4.848-5.4-2.76 0-4.824 1.632-4.824 5.376v2.112Zm1.584-.12v-1.848c0-3.096 1.44-4.056 3.24-4.056 1.872 0 3.264.96 3.264 4.056v1.848c0 3.072-1.44 4.056-3.264 4.056-1.848 0-3.24-.984-3.24-4.056Zm11.069 4.944a10.01 10.01 0 0 0 3.432.576c2.904 0 4.2-1.8 4.2-3.504 0-4.392-5.76-3.192-5.76-6.072 0-1.08.744-1.848 2.256-1.848.936 0 1.776.192 2.688.48l.408-1.416c-1.032-.336-2.04-.528-3.096-.528-2.448 0-3.888 1.416-3.888 3.312 0 4.224 5.76 2.952 5.76 6.12 0 1.152-1.008 1.992-2.568 1.992-1.056 0-2.088-.264-3.144-.552l-.288 1.44Zm16.849-4.536c0 3.336 2.184 5.112 4.704 5.112 2.496 0 4.656-1.776 4.656-5.112V98.191h-1.584v6c-.72-.48-1.896-1.008-3.168-1.008-2.472 0-4.608 1.584-4.608 5.136v2.64Zm1.584-.12v-2.4c0-2.832 1.44-3.792 3.144-3.792 1.056 0 2.04.408 3.048 1.056v5.136c0 2.592-1.344 3.768-3.072 3.768s-3.12-1.176-3.12-3.768Zm11.124.24c0 3.288 2.016 4.992 4.8 4.992 1.224 0 2.4-.192 3.6-.576l-.312-1.44c-1.104.312-2.16.552-3.288.552-1.944 0-3.216-1.08-3.216-3.528v-1.008h7.56v-2.448c0-2.64-2.04-4.44-4.584-4.44-2.496 0-4.56 1.704-4.56 4.896v3Zm1.584-2.4v-.6c0-2.352 1.248-3.432 2.976-3.432 1.752 0 3 1.2 3 2.976v1.056h-5.976Zm10.413 6.816a10.01 10.01 0 0 0 3.432.576c2.904 0 4.2-1.8 4.2-3.504 0-4.392-5.76-3.192-5.76-6.072 0-1.08.744-1.848 2.256-1.848.936 0 1.776.192 2.688.48l.408-1.416c-1.032-.336-2.04-.528-3.096-.528-2.448 0-3.888 1.416-3.888 3.312 0 4.224 5.76 2.952 5.76 6.12 0 1.152-1.008 1.992-2.568 1.992-1.056 0-2.088-.264-3.144-.552l-.288 1.44Zm16.848-4.8c0 3.672 2.016 5.376 4.968 5.376 1.152 0 2.28-.216 3.408-.552l-.264-1.392c-1.056.288-2.088.48-3.12.48-2.28 0-3.408-1.296-3.408-4.08v-1.824c0-2.784 1.128-4.056 3.408-4.056 1.056 0 2.088.24 3.12.504l.264-1.416c-1.128-.336-2.256-.552-3.408-.552-2.952 0-4.968 1.68-4.968 5.352v2.16Zm11.49-.024c0 3.72 2.064 5.4 4.824 5.4 2.784 0 4.848-1.68 4.848-5.4v-2.088c0-3.744-2.064-5.4-4.848-5.4-2.76 0-4.824 1.632-4.824 5.376v2.112Zm1.584-.12v-1.848c0-3.096 1.44-4.056 3.24-4.056 1.872 0 3.264.96 3.264 4.056v1.848c0 3.072-1.44 4.056-3.264 4.056-1.848 0-3.24-.984-3.24-4.056Zm11.453.12c0 3.72 2.064 5.4 4.824 5.4 2.784 0 4.848-1.68 4.848-5.4v-2.088c0-3.744-2.064-5.4-4.848-5.4-2.76 0-4.824 1.632-4.824 5.376v2.112Zm1.584-.12v-1.848c0-3.096 1.44-4.056 3.24-4.056 1.872 0 3.264.96 3.264 4.056v1.848c0 3.072-1.44 4.056-3.264 4.056-1.848 0-3.24-.984-3.24-4.056Zm11.933 5.208h1.584v-5.064l2.232-.84 3.048 5.904h1.68l-3.336-6.408c1.248-.456 1.632-1.416 1.968-2.64l.888-3.216h-1.584l-.816 3.024c-.24.888-.576 1.32-1.368 1.608l-2.712.984v-10.92h-1.584v17.568Zm12.329-14.592c.6 0 1.128-.504 1.128-1.104 0-.6-.528-1.08-1.128-1.08-.624 0-1.128.48-1.128 1.08 0 .6.504 1.104 1.128 1.104Zm-.792 14.592h1.584v-12.264h-1.584v12.264Zm5.432-4.68c0 3.288 2.016 4.992 4.8 4.992 1.224 0 2.4-.192 3.6-.576l-.312-1.44c-1.104.312-2.16.552-3.288.552-1.944 0-3.216-1.08-3.216-3.528v-1.008h7.56v-2.448c0-2.64-2.04-4.44-4.584-4.44-2.496 0-4.56 1.704-4.56 4.896v3Zm1.584-2.4v-.6c0-2.352 1.248-3.432 2.976-3.432 1.752 0 3 1.2 3 2.976v1.056h-5.976Zm10.413 6.816a10.01 10.01 0 0 0 3.432.576c2.904 0 4.2-1.8 4.2-3.504 0-4.392-5.76-3.192-5.76-6.072 0-1.08.744-1.848 2.256-1.848.936 0 1.776.192 2.688.48l.408-1.416c-1.032-.336-2.04-.528-3.096-.528-2.448 0-3.888 1.416-3.888 3.312 0 4.224 5.76 2.952 5.76 6.12 0 1.152-1.008 1.992-2.568 1.992-1.056 0-2.088-.264-3.144-.552l-.288 1.44Z"/><g clip-path="url(#c)"><path fill="#000" fill-opacity=".87" d="m453.916 100.303-1.219-1.22-4.835 4.836-4.836-4.835-1.219 1.219 4.835 4.835-4.835 4.835 1.219 1.22 4.836-4.835 4.835 4.835 1.219-1.22-4.835-4.835 4.835-4.835Z"/></g></g></g><rect width="371" height="17" x="87" y="148" fill="#CED9EB" opacity=".5" rx="8.5"/><rect width="371" height="18" x="87" y="183" fill="#CED9EB" opacity=".5" rx="9"/><rect width="52.762" height="17.299" x="222.383" y="238.022" fill="#CED9EB" opacity=".5" rx="8.65"/><g filter="url(#d)"><g clip-path="url(#e)"><rect width="69.196" height="31.139" x="297" y="232.103" fill="#0C419A" rx="3.46"/></g></g><rect width="52.762" height="17.299" x="304.784" y="238.022" fill="#CED9EB" opacity=".5" rx="8.65"/><g filter="url(#f)"><g clip-path="url(#g)"><rect width="69.196" height="31.139" x="387" y="232.103" fill="#0C419A" rx="3.46"/></g></g><rect width="52.762" height="17.299" x="394.784" y="238.022" fill="#CED9EB" opacity=".5" rx="8.65"/><defs><clipPath id="b"><rect width="416" height="211" x="63" y="73" fill="#fff" rx="6.92"/></clipPath><clipPath id="c"><path fill="#fff" d="M437.482 94.759h20.759v20.759h-20.759z"/></clipPath><clipPath id="e"><rect width="69.196" height="31.139" x="297" y="232.103" fill="#fff" rx="3.46"/></clipPath><clipPath id="g"><rect width="69.196" height="31.139" x="387" y="232.103" fill="#fff" rx="3.46"/></clipPath><filter id="a" width="433.299" height="228.299" x="54.35" y="65.215" color-interpolation-filters="sRGB" filterUnits="userSpaceOnUse"><feFlood flood-opacity="0" result="BackgroundImageFix"/><feColorMatrix in="SourceAlpha" result="hardAlpha" values="0 0 0 0 0 0 0 0 0 0 0 0 0 0 0 0 0 0 127 0"/><feOffset dy=".865"/><feGaussianBlur stdDeviation="4.325"/><feColorMatrix values="0 0 0 0 0 0 0 0 0 0 0 0 0 0 0 0 0 0 0.12 0"/><feBlend in2="BackgroundImageFix" result="effect1_dropShadow_311_106074"/><feColorMatrix in="SourceAlpha" result="hardAlpha" values="0 0 0 0 0 0 0 0 0 0 0 0 0 0 0 0 0 0 127 0"/><feOffset dy="3.46"/><feGaussianBlur stdDeviation="2.162"/><feColorMatrix values="0 0 0 0 0 0 0 0 0 0 0 0 0 0 0 0 0 0 0.14 0"/><feBlend in2="effect1_dropShadow_311_106074" result="effect2_dropShadow_311_106074"/><feColorMatrix in="SourceAlpha" result="hardAlpha" values="0 0 0 0 0 0 0 0 0 0 0 0 0 0 0 0 0 0 127 0"/><feMorphology in="SourceAlpha" radius=".865" result="effect3_dropShadow_311_106074"/><feOffset dy="1.73"/><feGaussianBlur stdDeviation="1.73"/><feColorMatrix values="0 0 0 0 0 0 0 0 0 0 0 0 0 0 0 0 0 0 0.2 0"/><feBlend in2="effect2_dropShadow_311_106074" result="effect3_dropShadow_311_106074"/><feBlend in="SourceGraphic" in2="effect3_dropShadow_311_106074" result="shape"/></filter><filter id="d" width="77.846" height="39.788" x="292.675" y="228.643" color-interpolation-filters="sRGB" filterUnits="userSpaceOnUse"><feFlood flood-opacity="0" result="BackgroundImageFix"/><feColorMatrix in="SourceAlpha" result="hardAlpha" values="0 0 0 0 0 0 0 0 0 0 0 0 0 0 0 0 0 0 127 0"/><feOffset dy=".865"/><feGaussianBlur stdDeviation="2.162"/><feColorMatrix values="0 0 0 0 0 0 0 0 0 0 0 0 0 0 0 0 0 0 0.12 0"/><feBlend in2="BackgroundImageFix" result="effect1_dropShadow_311_106074"/><feColorMatrix in="SourceAlpha" result="hardAlpha" values="0 0 0 0 0 0 0 0 0 0 0 0 0 0 0 0 0 0 127 0"/><feOffset dy="1.73"/><feGaussianBlur stdDeviation=".865"/><feColorMatrix values="0 0 0 0 0 0 0 0 0 0 0 0 0 0 0 0 0 0 0.14 0"/><feBlend in2="effect1_dropShadow_311_106074" result="effect2_dropShadow_311_106074"/><feColorMatrix in="SourceAlpha" result="hardAlpha" values="0 0 0 0 0 0 0 0 0 0 0 0 0 0 0 0 0 0 127 0"/><feMorphology in="SourceAlpha" radius="1.73" result="effect3_dropShadow_311_106074"/><feOffset dy="2.595"/><feGaussianBlur stdDeviation=".432"/><feColorMatrix values="0 0 0 0 0 0 0 0 0 0 0 0 0 0 0 0 0 0 0.2 0"/><feBlend in2="effect2_dropShadow_311_106074" result="effect3_dropShadow_311_106074"/><feBlend in="SourceGraphic" in2="effect3_dropShadow_311_106074" result="shape"/></filter><filter id="f" width="77.846" height="39.788" x="382.675" y="228.643" color-interpolation-filters="sRGB" filterUnits="userSpaceOnUse"><feFlood flood-opacity="0" result="BackgroundImageFix"/><feColorMatrix in="SourceAlpha" result="hardAlpha" values="0 0 0 0 0 0 0 0 0 0 0 0 0 0 0 0 0 0 127 0"/><feOffset dy=".865"/><feGaussianBlur stdDeviation="2.162"/><feColorMatrix values="0 0 0 0 0 0 0 0 0 0 0 0 0 0 0 0 0 0 0.12 0"/><feBlend in2="BackgroundImageFix" result="effect1_dropShadow_311_106074"/><feColorMatrix in="SourceAlpha" result="hardAlpha" values="0 0 0 0 0 0 0 0 0 0 0 0 0 0 0 0 0 0 127 0"/><feOffset dy="1.73"/><feGaussianBlur stdDeviation=".865"/><feColorMatrix values="0 0 0 0 0 0 0 0 0 0 0 0 0 0 0 0 0 0 0.14 0"/><feBlend in2="effect1_dropShadow_311_106074" result="effect2_dropShadow_311_106074"/><feColorMatrix in="SourceAlpha" result="hardAlpha" values="0 0 0 0 0 0 0 0 0 0 0 0 0 0 0 0 0 0 127 0"/><feMorphology in="SourceAlpha" radius="1.73" result="effect3_dropShadow_311_106074"/><feOffset dy="2.595"/><feGaussianBlur stdDeviation=".432"/><feColorMatrix values="0 0 0 0 0 0 0 0 0 0 0 0 0 0 0 0 0 0 0.2 0"/><feBlend in2="effect2_dropShadow_311_106074" result="effect3_dropShadow_311_106074"/><feBlend in="SourceGraphic" in2="effect3_dropShadow_311_106074" result="shape"/></filter></defs></svg>