<svg width="541" height="357" viewBox="0 0 541 357" fill="none" xmlns="http://www.w3.org/2000/svg">
<rect width="541" height="357" fill="#E7ECF5"/>
<rect x="63" y="88" width="415" height="181" fill="white"/>
<rect opacity="0.5" x="193" y="169" width="190" height="20" rx="10" fill="#CED9EB"/>
<path d="M172 168H160C158.9 168 158 168.9 158 170V184H160V170H172V168ZM175 172H164C162.9 172 162 172.9 162 174V188C162 189.1 162.9 190 164 190H175C176.1 190 177 189.1 177 188V174C177 172.9 176.1 172 175 172ZM175 188H164V174H175V188Z" fill="black" fill-opacity="0.6"/>
</svg>
