<svg xmlns="http://www.w3.org/2000/svg" width="541" height="357" fill="none" viewBox="0 0 541 357">
  <path fill="#E7ECF5" d="M0 0h541v357H0z"/>
  <path fill="#fff" d="M63 88h415v181H63z"/>
  <g clip-path="url(#a)">
    <rect width="76.9" height="16.021" x="169" y="125" fill="#E7ECF5" rx="8.01"/>
    <g filter="url(#b)">
      <path fill="#fff" fill-opacity=".8" d="M146.726 125.194h19.096l3.613 16.021h-19.354l-3.355-16.021Z"/>
    </g>
  </g>
  <g clip-path="url(#c)">
    <rect width="76.9" height="16.021" x="169" y="190.151" fill="#E7ECF5" rx="8.01"/>
    <g filter="url(#d)">
      <path fill="#fff" fill-opacity=".8" d="M146.726 190.345h19.096l3.613 16.021h-19.354l-3.355-16.021Z"/>
    </g>
  </g>
  <g clip-path="url(#e)">
    <rect width="204" height="22.429" x="169" y="146.358" fill="#E7ECF5" rx="11.215"/>
    <g filter="url(#f)">
      <path fill="#fff" fill-opacity=".8" d="M109.913 146.63h50.658l9.584 22.429h-51.343l-8.899-22.429Z"/>
    </g>
  </g>
  <g clip-path="url(#g)">
    <rect width="204" height="22.429" x="169" y="211.516" fill="#E7ECF5" rx="11.215"/>
    <g filter="url(#h)">
      <path fill="#fff" fill-opacity=".8" d="M109.913 211.788h50.658l9.584 22.429h-51.343l-8.899-22.429Z"/>
    </g>
  </g>
  <defs>
    <clipPath id="a">
      <rect width="76.9" height="16.021" x="169" y="125" fill="#fff" rx="8.01"/>
    </clipPath>
    <clipPath id="c">
      <rect width="76.9" height="16.021" x="169" y="190.151" fill="#fff" rx="8.01"/>
    </clipPath>
    <clipPath id="e">
      <rect width="204" height="22.429" x="169" y="146.358" fill="#fff" rx="11.215"/>
    </clipPath>
    <clipPath id="g">
      <rect width="204" height="22.429" x="169" y="211.516" fill="#fff" rx="11.215"/>
    </clipPath>
    <filter id="b" width="70.709" height="64.021" x="122.726" y="101.194" color-interpolation-filters="sRGB" filterUnits="userSpaceOnUse">
      <feFlood flood-opacity="0" result="BackgroundImageFix"/>
      <feBlend in="SourceGraphic" in2="BackgroundImageFix" result="shape"/>
      <feGaussianBlur result="effect1_foregroundBlur_256_106046" stdDeviation="12"/>
    </filter>
    <filter id="d" width="70.709" height="64.021" x="122.726" y="166.345" color-interpolation-filters="sRGB" filterUnits="userSpaceOnUse">
      <feFlood flood-opacity="0" result="BackgroundImageFix"/>
      <feBlend in="SourceGraphic" in2="BackgroundImageFix" result="shape"/>
      <feGaussianBlur result="effect1_foregroundBlur_256_106046" stdDeviation="12"/>
    </filter>
    <filter id="f" width="108.242" height="70.429" x="85.913" y="122.63" color-interpolation-filters="sRGB" filterUnits="userSpaceOnUse">
      <feFlood flood-opacity="0" result="BackgroundImageFix"/>
      <feBlend in="SourceGraphic" in2="BackgroundImageFix" result="shape"/>
      <feGaussianBlur result="effect1_foregroundBlur_256_106046" stdDeviation="12"/>
    </filter>
    <filter id="h" width="108.242" height="70.429" x="85.913" y="187.788" color-interpolation-filters="sRGB" filterUnits="userSpaceOnUse">
      <feFlood flood-opacity="0" result="BackgroundImageFix"/>
      <feBlend in="SourceGraphic" in2="BackgroundImageFix" result="shape"/>
      <feGaussianBlur result="effect1_foregroundBlur_256_106046" stdDeviation="12"/>
    </filter>
  </defs>
</svg>
