<svg xmlns="http://www.w3.org/2000/svg" width="541" height="357" fill="none" viewBox="0 0 541 357">
  <path fill="#E7ECF5" d="M0 0h541v357H0z"/>
  <path fill="#fff" d="M63 88h415v181H63z"/>
  <rect width="200" height="56" x="171" y="151" fill="#fff" rx="4"/>
  <g clip-path="url(#a)">
    <path fill="#000" fill-opacity=".6" d="M352 179h-5v5h5v-5Zm-1-11v2h-8v-2h-2v2h-1c-1.11 0-1.99.9-1.99 2l-.01 14a2 2 0 0 0 2 2h14c1.1 0 2-.9 2-2v-14c0-1.1-.9-2-2-2h-1v-2h-2Zm3 18h-14v-11h14v11Z"/>
  </g>
  <rect width="199" height="55" x="171.5" y="151.5" stroke="#000" stroke-opacity=".38" rx="3.5"/>
  <path fill="#fff" d="M183 144h36v13h-36z"/>
  <path fill="#000" fill-opacity=".6" d="M188.26 155.5v-9.184h2.296c1.419 0 2.497.397 3.234 1.19.737.784 1.106 1.904 1.106 3.36 0 1.465-.369 2.604-1.106 3.416-.728.812-1.787 1.218-3.178 1.218h-2.352Zm1.162-.952h1.05c1.073 0 1.876-.322 2.408-.966.541-.653.812-1.559.812-2.716 0-1.157-.271-2.044-.812-2.66-.532-.625-1.335-.938-2.408-.938h-1.05v7.28Zm8.963 1.12c-.569 0-1.045-.168-1.428-.504-.373-.345-.56-.821-.56-1.428 0-.747.332-1.316.994-1.708.672-.401 1.732-.681 3.178-.84 0-.289-.042-.565-.126-.826a1.18 1.18 0 0 0-.42-.63c-.196-.168-.48-.252-.854-.252-.392 0-.76.075-1.106.224a5.375 5.375 0 0 0-.924.504l-.448-.798a7.155 7.155 0 0 1 1.162-.588 3.867 3.867 0 0 1 1.512-.294c.831 0 1.433.257 1.806.77.374.504.56 1.181.56 2.03v4.172h-.952l-.098-.812h-.042a5.81 5.81 0 0 1-1.05.686 2.549 2.549 0 0 1-1.204.294Zm.336-.924c.327 0 .635-.079.924-.238.29-.159.598-.383.924-.672v-1.89c-1.129.14-1.922.35-2.38.63-.448.28-.672.639-.672 1.078 0 .383.117.663.35.84.234.168.518.252.854.252Zm7.158.924c-.728 0-1.237-.21-1.526-.63-.28-.42-.42-.966-.42-1.638v-3.766h-1.008v-.868l1.064-.07.14-1.904h.966v1.904h1.834v.938h-1.834v3.78c0 .42.074.747.224.98.158.224.434.336.826.336.121 0 .252-.019.392-.056l.378-.126.224.868a5.013 5.013 0 0 1-.616.168c-.215.056-.43.084-.644.084Zm5.211 0c-.607 0-1.158-.14-1.652-.42a3.111 3.111 0 0 1-1.176-1.232c-.29-.532-.434-1.167-.434-1.904 0-.747.144-1.386.434-1.918.298-.532.681-.943 1.148-1.232a2.747 2.747 0 0 1 1.47-.434c.868 0 1.535.289 2.002.868.476.579.714 1.353.714 2.324 0 .121-.005.243-.014.364 0 .112-.01.21-.028.294h-4.592c.046.719.27 1.293.672 1.722.41.429.942.644 1.596.644.326 0 .625-.047.896-.14a4.22 4.22 0 0 0 .798-.392l.406.756a5.2 5.2 0 0 1-.994.49c-.364.14-.78.21-1.246.21Zm-2.142-4.116h3.64c0-.691-.15-1.213-.448-1.568-.29-.364-.7-.546-1.232-.546-.476 0-.906.187-1.288.56-.374.364-.598.882-.672 1.554Z"/>
  <rect width="136" height="19" x="187" y="170" fill="#CED9EB" opacity=".5" rx="9.5"/>
  <defs>
    <clipPath id="a">
      <path fill="#fff" d="M0 0h24v24H0z" transform="translate(335 167)"/>
    </clipPath>
  </defs>
</svg>
