<svg width="541" height="357" viewBox="0 0 541 357" fill="none" xmlns="http://www.w3.org/2000/svg">
<rect width="541" height="357" fill="#E7ECF5"/>
<rect x="63" y="88" width="415" height="181" fill="white"/>
<rect x="171" y="151" width="200" height="56" rx="4" fill="white"/>
<g clip-path="url(#clip0_181_105618)">
<path d="M352 179H347V184H352V179ZM351 168V170H343V168H341V170H340C338.89 170 338.01 170.9 338.01 172L338 186C338 187.1 338.89 188 340 188H354C355.1 188 356 187.1 356 186V172C356 170.9 355.1 170 354 170H353V168H351ZM354 186H340V175H354V186Z" fill="black" fill-opacity="0.6"/>
</g>
<rect width="36" height="1" transform="translate(183 151)" fill="white"/>
<path d="M188.26 156.5V147.316H190.556C191.975 147.316 193.053 147.713 193.79 148.506C194.527 149.29 194.896 150.41 194.896 151.866C194.896 153.331 194.527 154.47 193.79 155.282C193.062 156.094 192.003 156.5 190.612 156.5H188.26ZM189.422 155.548H190.472C191.545 155.548 192.348 155.226 192.88 154.582C193.421 153.929 193.692 153.023 193.692 151.866C193.692 150.709 193.421 149.822 192.88 149.206C192.348 148.581 191.545 148.268 190.472 148.268H189.422V155.548ZM198.385 156.668C197.816 156.668 197.34 156.5 196.957 156.164C196.584 155.819 196.397 155.343 196.397 154.736C196.397 153.989 196.729 153.42 197.391 153.028C198.063 152.627 199.123 152.347 200.569 152.188C200.569 151.899 200.527 151.623 200.443 151.362C200.369 151.101 200.229 150.891 200.023 150.732C199.827 150.564 199.543 150.48 199.169 150.48C198.777 150.48 198.409 150.555 198.063 150.704C197.718 150.853 197.41 151.021 197.139 151.208L196.691 150.41C197.009 150.205 197.396 150.009 197.853 149.822C198.32 149.626 198.824 149.528 199.365 149.528C200.196 149.528 200.798 149.785 201.171 150.298C201.545 150.802 201.731 151.479 201.731 152.328V156.5H200.779L200.681 155.688H200.639C200.322 155.949 199.972 156.178 199.589 156.374C199.216 156.57 198.815 156.668 198.385 156.668ZM198.721 155.744C199.048 155.744 199.356 155.665 199.645 155.506C199.935 155.347 200.243 155.123 200.569 154.834V152.944C199.44 153.084 198.647 153.294 198.189 153.574C197.741 153.854 197.517 154.213 197.517 154.652C197.517 155.035 197.634 155.315 197.867 155.492C198.101 155.66 198.385 155.744 198.721 155.744ZM205.879 156.668C205.151 156.668 204.642 156.458 204.353 156.038C204.073 155.618 203.933 155.072 203.933 154.4V150.634H202.925V149.766L203.989 149.696L204.129 147.792H205.095V149.696H206.929V150.634H205.095V154.414C205.095 154.834 205.169 155.161 205.319 155.394C205.477 155.618 205.753 155.73 206.145 155.73C206.266 155.73 206.397 155.711 206.537 155.674C206.677 155.627 206.803 155.585 206.915 155.548L207.139 156.416C206.952 156.481 206.747 156.537 206.523 156.584C206.308 156.64 206.093 156.668 205.879 156.668ZM211.09 156.668C210.483 156.668 209.932 156.528 209.438 156.248C208.943 155.959 208.551 155.548 208.262 155.016C207.972 154.484 207.828 153.849 207.828 153.112C207.828 152.365 207.972 151.726 208.262 151.194C208.56 150.662 208.943 150.251 209.41 149.962C209.876 149.673 210.366 149.528 210.88 149.528C211.748 149.528 212.415 149.817 212.882 150.396C213.358 150.975 213.596 151.749 213.596 152.72C213.596 152.841 213.591 152.963 213.582 153.084C213.582 153.196 213.572 153.294 213.554 153.378H208.962C209.008 154.097 209.232 154.671 209.634 155.1C210.044 155.529 210.576 155.744 211.23 155.744C211.556 155.744 211.855 155.697 212.126 155.604C212.406 155.501 212.672 155.371 212.924 155.212L213.33 155.968C213.04 156.155 212.709 156.318 212.336 156.458C211.972 156.598 211.556 156.668 211.09 156.668ZM208.948 152.552H212.588C212.588 151.861 212.438 151.339 212.14 150.984C211.85 150.62 211.44 150.438 210.908 150.438C210.432 150.438 210.002 150.625 209.62 150.998C209.246 151.362 209.022 151.88 208.948 152.552Z" fill="black" fill-opacity="0.6"/>
<rect x="171.5" y="151.5" width="199" height="55" rx="3.5" stroke="black" stroke-opacity="0.38"/>
<rect opacity="0.5" x="187" y="170" width="136" height="19" rx="9.5" fill="#CED9EB"/>
<defs>
<clipPath id="clip0_181_105618">
<rect width="24" height="24" fill="white" transform="translate(335 167)"/>
</clipPath>
</defs>
</svg>
