<svg xmlns="http://www.w3.org/2000/svg" width="541" height="357" fill="none"><path fill="#E7ECF5" d="M0 0h541v357H0z"/><path fill="#fff" d="M63 88h415v181H63z"/><rect width="214" height="19" x="164" y="141" fill="#CED9EB" opacity=".5" rx="9.5"/><g clip-path="url(#a)"><g clip-path="url(#b)"><path fill="#0C419A" d="M236.667 200H234v-4h-4v4h-2.667l4.667 4.667 4.667-4.667Zm-9.334 6v1.334h9.334V206h-9.334Z"/></g><path fill="#0C419A" d="M249.44 208v-8.896h-3.024v-1.568h7.904v1.568h-3.024V208h-1.856Zm8.722.192c-.726 0-1.382-.16-1.968-.48-.587-.33-1.051-.8-1.392-1.408-.342-.618-.512-1.36-.512-2.224 0-.853.17-1.589.512-2.208.352-.618.805-1.093 1.36-1.424.554-.33 1.136-.496 1.744-.496.714 0 1.312.16 1.792.48.48.31.842.747 1.088 1.312.245.555.368 1.2.368 1.936 0 .384-.027.683-.08.896h-4.992c.085.694.336 1.232.752 1.616.416.384.938.576 1.568.576.341 0 .656-.048.944-.144.298-.106.592-.25.88-.432l.624 1.152c-.374.246-.79.448-1.248.608-.459.16-.939.24-1.44.24Zm-2.096-4.864h3.488c0-.608-.134-1.082-.4-1.424-.267-.352-.667-.528-1.2-.528-.459 0-.87.171-1.232.512-.352.331-.571.811-.656 1.44Zm1.792-4.496-.912-.912 2.352-2.784 1.28 1.216-2.72 2.48Zm6.885 9.36c-.651 0-1.115-.197-1.392-.592-.267-.394-.4-.933-.4-1.616v-9.28h1.84v9.376c0 .224.043.384.128.48.085.086.176.128.272.128h.112c.043-.01.101-.021.176-.032l.24 1.376c-.107.043-.245.08-.416.112-.16.032-.347.048-.56.048Zm5.952 0c-.725 0-1.381-.16-1.968-.48-.587-.33-1.051-.8-1.392-1.408-.341-.618-.512-1.36-.512-2.224 0-.853.171-1.589.512-2.208.352-.618.805-1.093 1.36-1.424.555-.33 1.136-.496 1.744-.496.715 0 1.312.16 1.792.48.48.31.843.747 1.088 1.312.245.555.368 1.2.368 1.936 0 .384-.027.683-.08.896h-4.992c.085.694.336 1.232.752 1.616.416.384.939.576 1.568.576.341 0 .656-.048.944-.144.299-.106.592-.25.88-.432l.624 1.152c-.373.246-.789.448-1.248.608-.459.16-.939.24-1.44.24Zm-2.096-4.864h3.488c0-.608-.133-1.082-.4-1.424-.267-.352-.667-.528-1.2-.528-.459 0-.869.171-1.232.512-.352.331-.571.811-.656 1.44Zm1.792-4.496-.912-.912 2.352-2.784 1.28 1.216-2.72 2.48Zm8.373 9.36c-.714 0-1.36-.16-1.936-.48-.565-.33-1.018-.8-1.36-1.408-.33-.618-.496-1.36-.496-2.224 0-.874.182-1.616.544-2.224.363-.618.843-1.088 1.44-1.408.608-.33 1.259-.496 1.952-.496.502 0 .939.086 1.312.256.374.171.704.379.992.624l-.896 1.2c-.202-.181-.41-.32-.624-.416-.213-.106-.442-.16-.688-.16-.629 0-1.146.24-1.552.72-.394.48-.592 1.115-.592 1.904 0 .779.192 1.408.576 1.888.395.48.902.72 1.52.72.31 0 .598-.064.864-.192.278-.138.528-.298.752-.48l.752 1.216c-.362.32-.768.56-1.216.72-.448.16-.896.24-1.344.24Zm4.151-.192v-11.296h1.84v2.912l-.064 1.52c.331-.309.699-.581 1.104-.816.405-.245.875-.368 1.408-.368.843 0 1.456.272 1.84.816.384.544.576 1.312.576 2.304V208h-1.84v-4.688c0-.65-.096-1.109-.288-1.376-.192-.266-.507-.4-.944-.4-.341 0-.645.086-.912.256-.256.16-.549.4-.88.72V208h-1.84Zm10.866.192c-.683 0-1.243-.213-1.68-.64-.427-.426-.64-.981-.64-1.664 0-.842.368-1.493 1.104-1.952.736-.469 1.909-.789 3.52-.96-.011-.416-.123-.773-.336-1.072-.203-.309-.571-.464-1.104-.464-.384 0-.763.075-1.136.224-.363.15-.72.331-1.072.544l-.672-1.232c.437-.277.928-.517 1.472-.72.554-.202 1.141-.304 1.76-.304.981 0 1.712.294 2.192.88.49.576.736 1.414.736 2.512V208h-1.52l-.128-.864h-.064c-.352.299-.731.55-1.136.752-.395.203-.827.304-1.296.304Zm.592-1.44c.32 0 .608-.074.864-.224.266-.16.549-.373.848-.64v-1.76c-1.067.139-1.808.347-2.224.624-.416.267-.624.598-.624.992 0 .352.106.608.32.768.213.16.485.24.816.24Zm5.794 1.248v-7.856h1.52l.128 1.392h.064c.277-.512.613-.901 1.008-1.168.394-.277.8-.416 1.216-.416.373 0 .672.054.896.16l-.32 1.6a3.706 3.706 0 0 0-.384-.096c-.118-.021-.262-.032-.432-.032-.31 0-.635.123-.976.368-.342.235-.635.651-.88 1.248v4.8h-1.84Zm8.588 3.472c-.618 0-1.178-.074-1.68-.224-.49-.149-.88-.378-1.168-.688-.277-.298-.416-.677-.416-1.136 0-.65.374-1.21 1.12-1.68v-.064c-.202-.128-.373-.298-.512-.512-.128-.213-.192-.48-.192-.8 0-.309.086-.586.256-.832.182-.256.384-.464.608-.624v-.064c-.266-.202-.506-.485-.72-.848-.202-.362-.304-.773-.304-1.232 0-.608.144-1.12.432-1.536.288-.416.667-.73 1.136-.944.48-.224.992-.336 1.536-.336.214 0 .416.022.608.064.203.032.384.075.544.128h2.816v1.36h-1.44c.128.15.235.342.32.576.086.224.128.475.128.752 0 .576-.133 1.067-.4 1.472-.266.395-.624.694-1.072.896-.448.203-.949.304-1.504.304-.17 0-.346-.016-.528-.048a2.6229 2.6229 0 0 1-.544-.16c-.117.107-.213.214-.288.32-.064.107-.096.251-.096.432 0 .224.091.4.272.528.192.128.528.192 1.008.192h1.392c.95 0 1.664.155 2.144.464.491.299.736.79.736 1.472 0 .512-.17.976-.512 1.392-.341.427-.826.763-1.456 1.008-.629.246-1.37.368-2.224.368Zm.096-7.12c.374 0 .694-.138.96-.416.267-.277.4-.666.4-1.168 0-.49-.133-.869-.4-1.136-.256-.277-.576-.416-.96-.416s-.709.134-.976.4c-.266.267-.4.651-.4 1.152 0 .502.134.891.4 1.168.267.278.592.416.976.416Zm.192 5.92c.63 0 1.142-.128 1.536-.384.395-.256.592-.549.592-.88 0-.309-.122-.517-.368-.624-.234-.106-.576-.16-1.024-.16h-1.072c-.426 0-.784-.037-1.072-.112-.405.31-.608.656-.608 1.04 0 .352.182.624.544.816.363.203.854.304 1.472.304Zm8.439-2.08c-.726 0-1.382-.16-1.968-.48-.587-.33-1.051-.8-1.392-1.408-.342-.618-.512-1.36-.512-2.224 0-.853.17-1.589.512-2.208.352-.618.805-1.093 1.36-1.424.554-.33 1.136-.496 1.744-.496.714 0 1.312.16 1.792.48.48.31.842.747 1.088 1.312.245.555.368 1.2.368 1.936 0 .384-.027.683-.08.896h-4.992c.085.694.336 1.232.752 1.616.416.384.938.576 1.568.576.341 0 .656-.048.944-.144.298-.106.592-.25.88-.432l.624 1.152c-.374.246-.79.448-1.248.608-.459.16-.939.24-1.44.24Zm-2.096-4.864h3.488c0-.608-.134-1.082-.4-1.424-.267-.352-.667-.528-1.2-.528-.459 0-.87.171-1.232.512-.352.331-.571.811-.656 1.44Zm6.885 4.672v-7.856h1.52l.128 1.392h.064c.277-.512.613-.901 1.008-1.168.395-.277.8-.416 1.216-.416.373 0 .672.054.896.16l-.32 1.6a3.706 3.706 0 0 0-.384-.096c-.117-.021-.261-.032-.432-.032-.309 0-.635.123-.976.368-.341.235-.635.651-.88 1.248v4.8h-1.84Z"/></g><rect width="135" height="35.0003" x="208.5" y="184.5" stroke="#0C419A" rx="3.5"/><defs><clipPath id="a"><rect width="136" height="36.0003" x="208" y="184" fill="#fff" rx="4"/></clipPath><clipPath id="b"><path fill="#fff" d="M224 194h16v16h-16z"/></clipPath></defs></svg>