<svg width="541" height="357" viewBox="0 0 541 357" fill="none" xmlns="http://www.w3.org/2000/svg">
<rect width="541" height="357" fill="#E7ECF5"/>
<rect x="63" y="88" width="415" height="181" fill="white"/>
<path d="M266.794 193.168C266.243 193.168 265.725 193.028 265.24 192.748C264.764 192.468 264.377 192.062 264.078 191.53C263.789 190.998 263.644 190.359 263.644 189.612C263.644 188.847 263.789 188.198 264.078 187.666C264.377 187.134 264.764 186.728 265.24 186.448C265.725 186.168 266.243 186.028 266.794 186.028C267.354 186.028 267.872 186.168 268.348 186.448C268.824 186.728 269.207 187.134 269.496 187.666C269.795 188.198 269.944 188.847 269.944 189.612C269.944 190.359 269.795 190.998 269.496 191.53C269.207 192.062 268.824 192.468 268.348 192.748C267.872 193.028 267.354 193.168 266.794 193.168ZM266.794 192.216C267.382 192.216 267.853 191.978 268.208 191.502C268.572 191.017 268.754 190.387 268.754 189.612C268.754 188.828 268.572 188.193 268.208 187.708C267.853 187.223 267.382 186.98 266.794 186.98C266.215 186.98 265.744 187.223 265.38 187.708C265.016 188.193 264.834 188.828 264.834 189.612C264.834 190.387 265.016 191.017 265.38 191.502C265.744 191.978 266.215 192.216 266.794 192.216ZM273.724 193.168C273.005 193.168 272.478 192.944 272.142 192.496C271.806 192.039 271.638 191.376 271.638 190.508V186.196H272.8V190.354C272.8 190.989 272.898 191.451 273.094 191.74C273.299 192.029 273.626 192.174 274.074 192.174C274.429 192.174 274.741 192.085 275.012 191.908C275.292 191.721 275.591 191.427 275.908 191.026V186.196H277.056V193H276.104L276.006 191.936H275.964C275.647 192.309 275.311 192.608 274.956 192.832C274.601 193.056 274.191 193.168 273.724 193.168Z" fill="black" fill-opacity="0.45"/>
<g filter="url(#filter0_ddd_213_106951)">
<g clip-path="url(#clip0_213_106951)">
<rect x="229.5" y="211" width="80" height="36.0003" rx="4" fill="#0C419A"/>
</g>
</g>
<rect opacity="0.5" x="177" y="153" width="191" height="19" rx="9.5" fill="#CED9EB"/>
<g clip-path="url(#clip1_213_106951)">
<path d="M282.25 116.733C281.117 110.983 276.067 106.667 270 106.667C265.183 106.667 261 109.4 258.917 113.4C253.9 113.933 250 118.183 250 123.333C250 128.85 254.483 133.333 260 133.333H281.667C286.267 133.333 290 129.6 290 125C290 120.6 286.583 117.033 282.25 116.733ZM273.333 121.667V128.333H266.667V121.667H261.667L270 113.333L278.333 121.667H273.333Z" fill="#0C419A"/>
</g>
<rect opacity="0.5" x="241" y="219" width="57" height="19" rx="9.5" fill="#CED9EB"/>
<defs>
<filter id="filter0_ddd_213_106951" x="224.5" y="207" width="90" height="46.0002" filterUnits="userSpaceOnUse" color-interpolation-filters="sRGB">
<feFlood flood-opacity="0" result="BackgroundImageFix"/>
<feColorMatrix in="SourceAlpha" type="matrix" values="0 0 0 0 0 0 0 0 0 0 0 0 0 0 0 0 0 0 127 0" result="hardAlpha"/>
<feOffset dy="1"/>
<feGaussianBlur stdDeviation="2.5"/>
<feColorMatrix type="matrix" values="0 0 0 0 0 0 0 0 0 0 0 0 0 0 0 0 0 0 0.12 0"/>
<feBlend mode="normal" in2="BackgroundImageFix" result="effect1_dropShadow_213_106951"/>
<feColorMatrix in="SourceAlpha" type="matrix" values="0 0 0 0 0 0 0 0 0 0 0 0 0 0 0 0 0 0 127 0" result="hardAlpha"/>
<feOffset dy="2"/>
<feGaussianBlur stdDeviation="1"/>
<feColorMatrix type="matrix" values="0 0 0 0 0 0 0 0 0 0 0 0 0 0 0 0 0 0 0.14 0"/>
<feBlend mode="normal" in2="effect1_dropShadow_213_106951" result="effect2_dropShadow_213_106951"/>
<feColorMatrix in="SourceAlpha" type="matrix" values="0 0 0 0 0 0 0 0 0 0 0 0 0 0 0 0 0 0 127 0" result="hardAlpha"/>
<feMorphology radius="2" operator="erode" in="SourceAlpha" result="effect3_dropShadow_213_106951"/>
<feOffset dy="3"/>
<feGaussianBlur stdDeviation="0.5"/>
<feColorMatrix type="matrix" values="0 0 0 0 0 0 0 0 0 0 0 0 0 0 0 0 0 0 0.2 0"/>
<feBlend mode="normal" in2="effect2_dropShadow_213_106951" result="effect3_dropShadow_213_106951"/>
<feBlend mode="normal" in="SourceGraphic" in2="effect3_dropShadow_213_106951" result="shape"/>
</filter>
<clipPath id="clip0_213_106951">
<rect x="229.5" y="211" width="80" height="36.0003" rx="4" fill="white"/>
</clipPath>
<clipPath id="clip1_213_106951">
<rect width="40" height="40" fill="white" transform="translate(250 100)"/>
</clipPath>
</defs>
</svg>
