<svg xmlns="http://www.w3.org/2000/svg" width="541" height="357" fill="none" viewBox="0 0 541 357">
  <path fill="#E7ECF5" d="M0 0h541v357H0z"/>
  <path fill="#fff" d="M63 88h415v181H63z"/>
  <rect width="353" height="20" x="94" y="148" fill="#CED9EB" opacity=".5" rx="10"/>
  <path stroke="#EEE" d="M94 177.5h353"/>
  <rect width="353" height="20" x="94" y="188" fill="#CED9EB" opacity=".5" rx="10"/>
  <path stroke="#EEE" d="M94 217.5h353"/>
  <rect width="353" height="20" x="94" y="228" fill="#CED9EB" opacity=".5" rx="10"/>
  <path fill="#0C419A" d="M388.36 127.557h2.582v-1.291h-2.582v1.291Zm-4.519-7.747v1.291h11.62v-1.291h-11.62Zm1.937 4.519h7.747v-1.291h-7.747v1.291ZM404.494 129v-10.133h6.121v1.518h-4.323v2.867h3.687v1.518h-3.687V129h-1.798Zm7.783 0v-7.607h1.781V129h-1.781Zm.898-8.94c-.32 0-.578-.093-.775-.279-.196-.186-.294-.434-.294-.744 0-.299.098-.542.294-.728.197-.186.455-.279.775-.279s.579.093.775.279c.196.186.294.429.294.728 0 .31-.098.558-.294.744-.196.186-.455.279-.775.279Zm4.931 9.126c-.63 0-1.08-.191-1.348-.573-.259-.383-.388-.904-.388-1.565v-8.987h1.782v9.08c0 .217.041.372.124.465.083.082.17.124.263.124h.109c.041-.011.098-.021.17-.031l.233 1.332a2.79 2.79 0 0 1-.945.155Zm5.19 0c-.878 0-1.503-.253-1.875-.759-.361-.517-.542-1.183-.542-1.999v-3.626h-1.085v-1.332l1.178-.077.217-2.077h1.487v2.077h1.937v1.409h-1.937v3.626c0 .888.356 1.332 1.069 1.332.134 0 .274-.015.418-.046a3.84 3.84 0 0 0 .372-.124l.31 1.317a5.145 5.145 0 0 1-.712.186 3.59 3.59 0 0 1-.837.093Zm2.957-.186v-7.607h1.471l.124 1.347h.062c.269-.495.594-.872.976-1.131.383-.268.775-.402 1.178-.402.362 0 .651.051.868.155l-.31 1.549a3.42 3.42 0 0 0-.372-.093 2.356 2.356 0 0 0-.418-.031c-.3 0-.615.119-.946.356-.33.228-.614.63-.852 1.209V129h-1.781Zm8.921.186a3.912 3.912 0 0 1-1.906-.465 3.492 3.492 0 0 1-1.348-1.363c-.331-.599-.496-1.317-.496-2.154 0-.826.165-1.539.496-2.138.341-.599.78-1.059 1.317-1.379.537-.32 1.1-.48 1.689-.48.692 0 1.27.155 1.735.464.465.3.816.723 1.054 1.271.237.537.356 1.162.356 1.875 0 .372-.026.661-.078.867h-4.834c.083.672.326 1.193.729 1.565.402.372.909.558 1.518.558a2.9 2.9 0 0 0 .914-.139c.289-.104.573-.243.852-.419l.605 1.116a5.517 5.517 0 0 1-1.209.589 4.226 4.226 0 0 1-1.394.232Zm-2.03-4.71h3.378c0-.589-.13-1.049-.388-1.379-.258-.341-.645-.511-1.162-.511-.444 0-.842.165-1.193.495-.341.321-.552.785-.635 1.395Zm6.667 4.524v-7.607h1.472l.124 1.347h.062c.269-.495.594-.872.976-1.131.383-.268.775-.402 1.178-.402.361 0 .651.051.868.155l-.31 1.549a3.42 3.42 0 0 0-.372-.093 2.356 2.356 0 0 0-.418-.031c-.3 0-.615.119-.946.356-.33.228-.614.63-.852 1.209V129h-1.782Z"/>
  <g filter="url(#a)">
    <rect width="217.043" height="78" x="229" y="140" fill="#fff" rx="3.391"/>
    <rect width="190.761" height="16.956" x="242.141" y="146.783" fill="#CED9EB" opacity=".5" rx="8.478"/>
    <rect width="190.761" height="16.956" x="242.141" y="170.522" fill="#CED9EB" opacity=".5" rx="8.478"/>
    <rect width="190.761" height="16.956" x="242.141" y="194.261" fill="#CED9EB" opacity=".5" rx="8.478"/>
  </g>
  <defs>
    <filter id="a" width="234" height="94.957" x="220.522" y="132.37" color-interpolation-filters="sRGB" filterUnits="userSpaceOnUse">
      <feFlood flood-opacity="0" result="BackgroundImageFix"/>
      <feColorMatrix in="SourceAlpha" result="hardAlpha" values="0 0 0 0 0 0 0 0 0 0 0 0 0 0 0 0 0 0 127 0"/>
      <feOffset dy=".848"/>
      <feGaussianBlur stdDeviation="4.239"/>
      <feColorMatrix values="0 0 0 0 0 0 0 0 0 0 0 0 0 0 0 0 0 0 0.12 0"/>
      <feBlend in2="BackgroundImageFix" result="effect1_dropShadow_250_106308"/>
      <feColorMatrix in="SourceAlpha" result="hardAlpha" values="0 0 0 0 0 0 0 0 0 0 0 0 0 0 0 0 0 0 127 0"/>
      <feOffset dy="3.391"/>
      <feGaussianBlur stdDeviation="2.12"/>
      <feColorMatrix values="0 0 0 0 0 0 0 0 0 0 0 0 0 0 0 0 0 0 0.14 0"/>
      <feBlend in2="effect1_dropShadow_250_106308" result="effect2_dropShadow_250_106308"/>
      <feColorMatrix in="SourceAlpha" result="hardAlpha" values="0 0 0 0 0 0 0 0 0 0 0 0 0 0 0 0 0 0 127 0"/>
      <feMorphology in="SourceAlpha" radius=".848" result="effect3_dropShadow_250_106308"/>
      <feOffset dy="1.696"/>
      <feGaussianBlur stdDeviation="1.696"/>
      <feColorMatrix values="0 0 0 0 0 0 0 0 0 0 0 0 0 0 0 0 0 0 0.2 0"/>
      <feBlend in2="effect2_dropShadow_250_106308" result="effect3_dropShadow_250_106308"/>
      <feBlend in="SourceGraphic" in2="effect3_dropShadow_250_106308" result="shape"/>
    </filter>
  </defs>
</svg>
