<svg width="541" height="357" viewBox="0 0 541 357" fill="none" xmlns="http://www.w3.org/2000/svg">
<rect width="541" height="357" fill="#E7ECF5"/>
<rect x="63" y="88" width="415" height="181" fill="white"/>
<path d="M438.667 124L439.607 124.94L443.333 121.22V129.333H444.667V121.22L448.387 124.947L449.333 124L444 118.667L438.667 124Z" fill="#0C419A"/>
<g clip-path="url(#clip0_36_95610)">
<path d="M133.387 139.593H134.227L135.544 143.643H134.772L134.159 141.493C134.023 141.063 133.909 140.611 133.796 140.159H133.773C133.659 140.611 133.546 141.063 133.41 141.493L132.774 143.643H132.047L133.387 139.593ZM132.842 141.991H134.749V142.557H132.842V141.991Z" fill="#0C419A"/>
<path d="M135.975 144.208C135.975 143.959 136.134 143.733 136.406 143.552V143.529C136.248 143.439 136.134 143.258 136.134 143.032C136.134 142.805 136.293 142.579 136.475 142.466V142.443C136.27 142.285 136.066 141.991 136.066 141.629C136.066 140.928 136.634 140.543 137.269 140.543C137.428 140.543 137.587 140.566 137.723 140.611H138.813V141.131H138.245C138.336 141.244 138.427 141.425 138.427 141.652C138.427 142.33 137.905 142.692 137.269 142.692C137.133 142.692 136.997 142.67 136.861 142.602C136.77 142.67 136.702 142.76 136.702 142.896C136.702 143.077 136.815 143.167 137.201 143.167H137.746C138.473 143.167 138.858 143.394 138.858 143.914C138.858 144.525 138.223 145 137.224 145C136.52 145 135.975 144.751 135.975 144.208ZM138.2 144.05C138.2 143.823 138.018 143.756 137.655 143.756H137.247C137.088 143.756 136.951 143.733 136.838 143.71C136.679 143.823 136.611 143.982 136.611 144.118C136.611 144.389 136.906 144.547 137.383 144.547C137.86 144.547 138.2 144.321 138.2 144.05ZM137.814 141.629C137.814 141.244 137.587 141.018 137.292 141.018C136.997 141.018 136.77 141.244 136.77 141.629C136.77 142.013 136.997 142.24 137.292 142.24C137.587 142.24 137.814 142.013 137.814 141.629Z" fill="#0C419A"/>
<path d="M139.562 139.661C139.562 139.412 139.744 139.254 140.016 139.254C140.266 139.254 140.47 139.412 140.47 139.661C140.47 139.887 140.289 140.068 140.016 140.068C139.767 140.068 139.562 139.91 139.562 139.661ZM139.653 140.611H140.38V143.665H139.653V140.611Z" fill="#0C419A"/>
<path d="M141.492 140.611H142.082L142.128 141.154H142.15C142.377 140.747 142.695 140.543 143.013 140.543C143.172 140.543 143.263 140.566 143.354 140.611L143.24 141.222C143.127 141.199 143.059 141.176 142.922 141.176C142.673 141.176 142.377 141.335 142.196 141.81V143.665H141.469V140.611H141.492Z" fill="#0C419A"/>
<path d="M145.284 142.127C145.284 141.131 145.965 140.52 146.691 140.52C147.509 140.52 147.963 141.109 147.963 141.968C147.963 142.104 147.94 142.24 147.94 142.308H145.988C146.056 142.851 146.396 143.167 146.896 143.167C147.168 143.167 147.372 143.077 147.599 142.941L147.849 143.394C147.554 143.597 147.191 143.733 146.805 143.733C145.942 143.733 145.284 143.145 145.284 142.127ZM147.35 141.833C147.35 141.357 147.145 141.086 146.714 141.086C146.351 141.086 146.033 141.357 145.988 141.833H147.35Z" fill="#0C419A"/>
<path d="M148.848 140.611H149.438L149.484 141.018H149.507C149.779 140.747 150.097 140.52 150.506 140.52C151.164 140.52 151.436 140.973 151.436 141.742V143.643H150.71V141.833C150.71 141.335 150.574 141.131 150.233 141.131C149.961 141.131 149.779 141.267 149.529 141.516V143.643H148.803V140.611H148.848Z" fill="#0C419A"/>
<path d="M152.254 143.303L152.594 142.851C152.867 143.054 153.139 143.19 153.434 143.19C153.775 143.19 153.934 143.032 153.934 142.828C153.934 142.579 153.593 142.466 153.275 142.33C152.867 142.172 152.413 141.946 152.413 141.448C152.413 140.928 152.844 140.543 153.525 140.543C153.956 140.543 154.297 140.724 154.547 140.905L154.229 141.335C154.025 141.176 153.798 141.063 153.548 141.063C153.23 141.063 153.094 141.199 153.094 141.403C153.094 141.652 153.412 141.742 153.729 141.855C154.138 142.013 154.615 142.217 154.615 142.783C154.615 143.303 154.206 143.733 153.434 143.733C153.003 143.733 152.549 143.552 152.254 143.303Z" fill="#0C419A"/>
<path d="M155.251 142.127C155.251 141.131 155.932 140.52 156.658 140.52C157.476 140.52 157.93 141.109 157.93 141.968C157.93 142.104 157.907 142.24 157.907 142.308H155.955C156.023 142.851 156.363 143.167 156.863 143.167C157.135 143.167 157.339 143.077 157.567 142.941L157.816 143.394C157.521 143.597 157.158 143.733 156.772 143.733C155.909 143.733 155.251 143.145 155.251 142.127ZM157.294 141.833C157.294 141.357 157.09 141.086 156.658 141.086C156.295 141.086 155.977 141.357 155.932 141.833H157.294Z" fill="#0C419A"/>
<path d="M158.815 140.611H159.405L159.451 141.018H159.474C159.723 140.747 160.018 140.52 160.404 140.52C160.859 140.52 161.108 140.724 161.244 141.063C161.54 140.747 161.835 140.52 162.221 140.52C162.856 140.52 163.174 140.973 163.174 141.742V143.643H162.448V141.833C162.448 141.335 162.289 141.131 161.971 141.131C161.767 141.131 161.562 141.244 161.335 141.516V143.643H160.609V141.833C160.609 141.335 160.45 141.131 160.132 141.131C159.95 141.131 159.723 141.244 159.496 141.516V143.643H158.77V140.611H158.815Z" fill="#0C419A"/>
<path d="M164.923 143.349L164.832 143.665H164.264V139.276H164.991V140.407L164.968 140.905C165.218 140.679 165.536 140.52 165.853 140.52C166.625 140.52 167.057 141.131 167.057 142.059C167.057 143.1 166.421 143.711 165.74 143.711C165.49 143.733 165.195 143.597 164.923 143.349ZM166.33 142.104C166.33 141.493 166.126 141.131 165.672 141.131C165.445 141.131 165.24 141.244 165.013 141.471V142.896C165.218 143.077 165.445 143.145 165.626 143.145C166.012 143.145 166.33 142.783 166.33 142.104Z" fill="#0C419A"/>
<path d="M167.965 142.873V139.276H168.691V142.919C168.691 143.1 168.782 143.168 168.85 143.168C168.873 143.168 168.918 143.168 168.964 143.145L169.055 143.688C168.964 143.733 168.85 143.756 168.669 143.756C168.146 143.733 167.965 143.394 167.965 142.873Z" fill="#0C419A"/>
<path d="M169.668 142.127C169.668 141.131 170.349 140.52 171.075 140.52C171.893 140.52 172.347 141.109 172.347 141.968C172.347 142.104 172.324 142.24 172.324 142.308H170.372C170.44 142.851 170.78 143.167 171.28 143.167C171.552 143.167 171.756 143.077 171.984 142.941L172.233 143.394C171.938 143.597 171.575 143.733 171.189 143.733C170.326 143.733 169.668 143.145 169.668 142.127ZM171.711 141.833C171.711 141.357 171.507 141.086 171.075 141.086C170.712 141.086 170.394 141.357 170.349 141.833H171.711Z" fill="#0C419A"/>
<path d="M173.663 142.76C173.391 142.76 173.187 142.941 173.187 143.19C173.187 143.484 173.414 143.62 173.641 143.62C173.663 143.62 173.686 143.62 173.686 143.62C173.686 143.937 173.459 144.231 173.05 144.367L173.209 144.751C173.822 144.548 174.185 144.073 174.185 143.462C174.185 143.032 174.004 142.76 173.663 142.76Z" fill="#0C419A"/>
<path d="M176.683 140.611H177.273L177.319 140.928H177.342C177.591 140.701 177.932 140.52 178.272 140.52C179.044 140.52 179.476 141.131 179.476 142.081C179.476 143.122 178.84 143.733 178.159 143.733C177.886 143.733 177.614 143.62 177.364 143.394L177.387 143.891V144.842H176.66V140.611H176.683ZM178.726 142.104C178.726 141.493 178.522 141.131 178.068 141.131C177.841 141.131 177.637 141.244 177.41 141.471V142.896C177.637 143.077 177.841 143.145 178.023 143.145C178.409 143.145 178.726 142.783 178.726 142.104Z" fill="#0C419A"/>
<path d="M180.384 140.611H180.974L181.019 141.154H181.042C181.269 140.747 181.587 140.543 181.905 140.543C182.064 140.543 182.155 140.566 182.245 140.611L182.132 141.222C182.018 141.199 181.95 141.176 181.814 141.176C181.564 141.176 181.269 141.335 181.088 141.81V143.665H180.361V140.611H180.384Z" fill="#0C419A"/>
<path d="M182.541 142.127C182.541 141.109 183.245 140.52 183.994 140.52C184.743 140.52 185.447 141.109 185.447 142.127C185.447 143.145 184.743 143.733 183.994 143.733C183.245 143.733 182.541 143.145 182.541 142.127ZM184.698 142.127C184.698 141.516 184.425 141.109 183.971 141.109C183.517 141.109 183.245 141.516 183.245 142.127C183.245 142.738 183.517 143.145 183.971 143.145C184.425 143.145 184.698 142.738 184.698 142.127Z" fill="#0C419A"/>
<path d="M186.355 142.625V141.177H185.924V140.634L186.4 140.611L186.491 139.774H187.081V140.611H187.853V141.177H187.081V142.625C187.081 142.987 187.218 143.168 187.513 143.168C187.626 143.168 187.74 143.122 187.831 143.1L187.944 143.62C187.785 143.665 187.558 143.733 187.309 143.733C186.627 143.733 186.355 143.281 186.355 142.625Z" fill="#0C419A"/>
<path d="M188.421 142.127C188.421 141.131 189.102 140.52 189.829 140.52C190.646 140.52 191.1 141.109 191.1 141.968C191.1 142.104 191.077 142.24 191.077 142.308H189.125C189.193 142.851 189.533 143.167 190.033 143.167C190.305 143.167 190.51 143.077 190.737 142.941L190.986 143.394C190.691 143.597 190.328 143.733 189.942 143.733C189.079 143.733 188.421 143.145 188.421 142.127ZM190.464 141.833C190.464 141.357 190.26 141.086 189.829 141.086C189.465 141.086 189.147 141.357 189.102 141.833H190.464ZM189.443 139.751L190.351 138.665L190.85 139.14L189.806 140.091L189.443 139.751Z" fill="#0C419A"/>
<path d="M191.736 144.208C191.736 143.959 191.895 143.733 192.167 143.552V143.529C192.008 143.439 191.895 143.258 191.895 143.032C191.895 142.805 192.054 142.579 192.235 142.466V142.443C192.031 142.285 191.827 141.991 191.827 141.629C191.827 140.928 192.394 140.543 193.03 140.543C193.189 140.543 193.348 140.566 193.484 140.611H194.574V141.131H194.006C194.097 141.244 194.188 141.425 194.188 141.652C194.188 142.33 193.666 142.692 193.03 142.692C192.894 142.692 192.758 142.67 192.621 142.602C192.53 142.67 192.462 142.76 192.462 142.896C192.462 143.077 192.576 143.167 192.962 143.167H193.507C194.233 143.167 194.619 143.394 194.619 143.914C194.619 144.525 193.984 145 192.985 145C192.281 145 191.736 144.751 191.736 144.208ZM193.961 144.05C193.961 143.823 193.779 143.756 193.416 143.756H193.007C192.848 143.756 192.712 143.733 192.599 143.71C192.44 143.823 192.372 143.982 192.372 144.118C192.372 144.389 192.667 144.547 193.143 144.547C193.62 144.547 193.961 144.321 193.961 144.05ZM193.575 141.629C193.575 141.244 193.348 141.018 193.053 141.018C192.758 141.018 192.53 141.244 192.53 141.629C192.53 142.013 192.758 142.24 193.053 142.24C193.348 142.24 193.575 142.013 193.575 141.629Z" fill="#0C419A"/>
<path d="M195.073 142.127C195.073 141.131 195.754 140.52 196.481 140.52C197.298 140.52 197.752 141.109 197.752 141.968C197.752 142.104 197.73 142.24 197.73 142.308H195.777C195.845 142.851 196.186 143.167 196.685 143.167C196.958 143.167 197.162 143.077 197.389 142.941L197.639 143.394C197.344 143.597 196.98 143.733 196.594 143.733C195.732 143.733 195.073 143.145 195.073 142.127ZM197.117 141.833C197.117 141.357 196.912 141.086 196.481 141.086C196.118 141.086 195.8 141.357 195.754 141.833H197.117Z" fill="#0C419A"/>
<path d="M198.638 140.611H199.228L199.273 141.154H199.296C199.523 140.747 199.841 140.543 200.159 140.543C200.318 140.543 200.409 140.566 200.499 140.611L200.386 141.222C200.272 141.199 200.204 141.176 200.068 141.176C199.818 141.176 199.523 141.335 199.342 141.81V143.665H198.615V140.611H198.638Z" fill="#0C419A"/>
<path d="M202.429 142.127C202.429 141.109 203.156 140.52 203.973 140.52C204.359 140.52 204.654 140.679 204.859 140.86L204.518 141.335C204.359 141.199 204.2 141.109 204.018 141.109C203.519 141.109 203.178 141.516 203.178 142.127C203.178 142.738 203.519 143.145 203.996 143.145C204.246 143.145 204.45 143.032 204.631 142.873L204.927 143.348C204.631 143.597 204.268 143.733 203.928 143.733C203.065 143.733 202.429 143.145 202.429 142.127Z" fill="#0C419A"/>
<path d="M205.698 139.276H206.425V140.407L206.402 140.996C206.652 140.747 206.97 140.543 207.379 140.543C208.037 140.543 208.309 140.996 208.309 141.765V143.665H207.583V141.855C207.583 141.358 207.447 141.154 207.106 141.154C206.834 141.154 206.652 141.29 206.402 141.539V143.665H205.676V139.276H205.698Z" fill="#0C419A"/>
<path d="M209.172 142.828C209.172 142.172 209.717 141.833 210.966 141.697C210.966 141.38 210.829 141.086 210.421 141.086C210.126 141.086 209.831 141.222 209.558 141.38L209.286 140.905C209.626 140.701 210.058 140.498 210.534 140.498C211.306 140.498 211.67 140.973 211.67 141.81V143.62H211.102L211.057 143.281H211.034C210.761 143.507 210.444 143.688 210.08 143.688C209.535 143.733 209.172 143.371 209.172 142.828ZM210.966 142.851V142.172C210.126 142.285 209.853 142.489 209.853 142.805C209.853 143.077 210.035 143.19 210.285 143.19C210.557 143.167 210.739 143.054 210.966 142.851Z" fill="#0C419A"/>
<path d="M212.532 142.127C212.532 141.109 213.259 140.52 214.076 140.52C214.462 140.52 214.757 140.679 214.962 140.86L214.621 141.335C214.462 141.199 214.303 141.109 214.122 141.109C213.622 141.109 213.282 141.516 213.282 142.127C213.282 142.738 213.622 143.145 214.099 143.145C214.349 143.145 214.553 143.032 214.735 142.873L215.03 143.348C214.735 143.597 214.371 143.733 214.031 143.733C213.168 143.733 212.532 143.145 212.532 142.127Z" fill="#0C419A"/>
<path d="M215.756 142.511V140.611H216.483V142.421C216.483 142.919 216.619 143.122 216.96 143.122C217.232 143.122 217.414 143.009 217.641 142.692V140.611H218.367V143.665H217.777L217.732 143.213H217.686C217.414 143.53 217.119 143.733 216.71 143.733C216.052 143.733 215.756 143.281 215.756 142.511Z" fill="#0C419A"/>
<path d="M219.412 140.611H220.002L220.047 141.018H220.07C220.342 140.747 220.66 140.52 221.069 140.52C221.727 140.52 222 140.973 222 141.742V143.642H221.319V141.833C221.319 141.335 221.183 141.131 220.842 141.131C220.57 141.131 220.388 141.267 220.138 141.516V143.642H219.412V140.611Z" fill="#0C419A"/>
<path d="M92.0659 125.158L91.7935 124.91C91.907 124.774 91.9978 124.615 92.0205 124.457C92.0205 124.276 91.9524 124.186 91.8616 124.186C91.7481 124.186 91.7027 124.276 91.6346 124.457L91.521 124.706C91.4302 124.887 91.2713 125.068 90.9988 125.068C90.681 125.045 90.454 124.774 90.4767 124.367C90.4767 124.14 90.5902 123.937 90.7491 123.778L90.9988 124.005C90.908 124.118 90.8399 124.231 90.8399 124.389C90.8399 124.525 90.8853 124.638 90.9988 124.638C91.1124 124.638 91.1578 124.525 91.2259 124.367L91.3394 124.14C91.4529 123.914 91.6119 123.778 91.8616 123.801C92.1794 123.824 92.4292 124.095 92.4065 124.548C92.3611 124.706 92.2476 124.977 92.0659 125.158Z" fill="#0C419A"/>
<path d="M90.3179 122.466L90 121.923L90.2952 121.742L90.5676 122.308L90.3179 122.466ZM90.5449 122.896L90.7265 121.719L91.0898 121.765L90.9763 122.511L91.3622 122.556L91.453 121.923L91.8163 121.968L91.7255 122.602L92.1569 122.67L92.2704 121.9L92.6336 121.946L92.452 123.145L90.5449 122.896Z" fill="#0C419A"/>
<path d="M91.7482 121.244C91.1352 121.086 90.8855 120.611 90.999 120.136C91.0671 119.909 91.2261 119.728 91.385 119.638L91.5893 119.932C91.4758 120 91.385 120.09 91.3623 120.226C91.2942 120.475 91.4758 120.724 91.8391 120.814C92.225 120.905 92.4748 120.792 92.5429 120.52C92.5883 120.362 92.5429 120.226 92.4521 120.113L92.7699 119.955C92.9061 120.158 92.9515 120.385 92.8834 120.611C92.7926 121.109 92.3612 121.403 91.7482 121.244Z" fill="#0C419A"/>
<path d="M92.3386 119.276L91.385 118.914L91.5439 118.507L92.5429 118.891C92.8835 119.027 93.0424 118.959 93.1332 118.756C93.2013 118.552 93.1332 118.394 92.7926 118.258L91.7937 117.873L91.9299 117.489L92.8835 117.851C93.4738 118.077 93.6327 118.416 93.4738 118.869C93.2921 119.344 92.9289 119.48 92.3386 119.276Z" fill="#0C419A"/>
<path d="M92.3157 116.606L92.6335 115.995C92.8152 115.633 93.0876 115.407 93.4963 115.611C93.8822 115.814 93.9049 116.176 93.7006 116.538L93.5871 116.765L94.2001 117.081L93.9958 117.466L92.3157 116.606ZM93.3828 116.425C93.4963 116.222 93.4509 116.086 93.2919 115.995C93.133 115.905 93.0195 115.995 92.906 116.176L92.8152 116.38L93.2692 116.629L93.3828 116.425ZM93.5644 116.584L93.4509 116.199L94.6769 116.154L94.4498 116.584H93.5644Z" fill="#0C419A"/>
<path d="M93.4055 114.57L93.6326 114.208L95.2218 115.226L94.9948 115.588L93.4055 114.57Z" fill="#0C419A"/>
<path d="M94.6089 113.439L94.291 113.846L93.9958 113.62L94.8813 112.466L95.1764 112.692L94.8586 113.1L96.0846 114.027L95.8349 114.367L94.6089 113.439Z" fill="#0C419A"/>
<path d="M95.3582 111.901L96.1755 111.041L96.4479 111.29L95.9257 111.833L96.1982 112.082L96.6296 111.606L96.902 111.855L96.4706 112.33L96.7885 112.625L97.3334 112.059L97.6058 112.308L96.7885 113.19L95.3582 111.901ZM95.4036 111.425L95.449 110.792L95.8122 110.815L95.6987 111.425H95.4036Z" fill="#0C419A"/>
<path d="M98.5367 111.063L98.5594 110.679C98.741 110.679 98.9226 110.656 99.0362 110.543C99.1724 110.43 99.1951 110.317 99.127 110.226C99.0589 110.136 98.9453 110.158 98.7637 110.226L98.514 110.294C98.3096 110.362 98.0599 110.339 97.901 110.113C97.7193 109.864 97.7875 109.502 98.0826 109.253C98.2642 109.118 98.4913 109.05 98.7183 109.072V109.412C98.5594 109.412 98.4459 109.434 98.3096 109.525C98.1961 109.615 98.1507 109.728 98.2188 109.796C98.2869 109.887 98.4232 109.842 98.5821 109.796L98.8318 109.728C99.0816 109.661 99.2859 109.683 99.4448 109.909C99.6265 110.158 99.6038 110.52 99.2405 110.814C99.0589 110.995 98.7864 111.086 98.5367 111.063Z" fill="#0C419A"/>
<path d="M99.6945 109.253C99.3766 108.733 99.4902 108.235 99.9215 107.986C100.353 107.715 100.83 107.851 101.148 108.371C101.465 108.891 101.352 109.389 100.92 109.661C100.512 109.909 100.012 109.774 99.6945 109.253ZM100.807 108.597C100.603 108.28 100.353 108.167 100.126 108.303C99.8988 108.439 99.8761 108.71 100.08 109.027C100.285 109.344 100.535 109.48 100.762 109.344C100.966 109.208 100.989 108.914 100.807 108.597Z" fill="#0C419A"/>
<path d="M101.715 108.077C101.443 107.511 101.67 107.013 102.101 106.81C102.328 106.697 102.555 106.719 102.714 106.787L102.623 107.127C102.51 107.081 102.373 107.081 102.26 107.127C102.033 107.24 101.942 107.534 102.101 107.873C102.26 108.235 102.532 108.348 102.782 108.235C102.918 108.167 103.009 108.054 103.032 107.918L103.35 108.077C103.282 108.303 103.145 108.484 102.918 108.575C102.487 108.778 101.987 108.642 101.715 108.077Z" fill="#0C419A"/>
<path d="M103.395 106.312L103.804 106.176L104.462 107.941L104.054 108.077L103.395 106.312Z" fill="#0C419A"/>
<path d="M105.098 105.747L105.598 105.611L106.665 107.285L106.233 107.398L105.757 106.539C105.666 106.38 105.552 106.177 105.461 105.996C105.461 106.199 105.484 106.425 105.484 106.629V107.625L105.053 107.738L105.098 105.747ZM105.189 106.855L106.074 106.629L106.165 106.946L105.28 107.172L105.189 106.855Z" fill="#0C419A"/>
<path d="M106.869 105.317L107.3 105.249L107.527 106.765L108.254 106.651L108.299 107.013L107.141 107.194L106.869 105.317Z" fill="#0C419A"/>
<path d="M108.708 105.068L109.889 105L109.911 105.362L109.162 105.407L109.185 105.792L109.82 105.747L109.843 106.109L109.207 106.154L109.23 106.584L110.025 106.538L110.048 106.9L108.844 106.968L108.708 105.068Z" fill="#0C419A"/>
<path d="M152.799 133.145V124.095H155.183V133.235C155.183 133.756 155.41 133.914 155.614 133.914C155.705 133.914 155.773 133.914 155.909 133.892L156.204 135.679C155.932 135.792 155.546 135.882 155.001 135.882C153.366 135.905 152.799 134.797 152.799 133.145Z" fill="#0C419A"/>
<path d="M137.497 130.249C137.701 129.593 139.835 124.91 139.835 124.91H142.355V135.701H140.085V129.027L138.2 133.869H136.747L134.863 129.027V135.701H132.593V124.91H135.113C135.113 124.91 137.224 129.593 137.451 130.249H137.497Z" fill="#0C419A"/>
<path d="M157.181 133.416C157.181 131.697 158.634 130.724 161.835 130.385C161.79 129.661 161.335 129.231 160.45 129.231C159.769 129.231 159.088 129.525 158.316 129.977L157.476 128.371C158.497 127.738 159.655 127.285 160.927 127.285C162.993 127.285 164.128 128.484 164.128 130.996V135.679H161.858V134.887C161.858 134.887 160.927 135.882 159.61 135.882C158.112 135.905 157.181 134.797 157.181 133.416ZM161.835 133.281V131.855C160.132 132.082 159.474 132.625 159.474 133.235C159.474 133.756 159.837 134.027 160.405 134.027C160.927 134.005 161.404 133.711 161.835 133.281Z" fill="#0C419A"/>
<path d="M144.012 133.416C144.012 131.697 145.465 130.724 148.667 130.385C148.621 129.661 148.167 129.231 147.282 129.231C146.601 129.231 145.92 129.525 145.148 129.977L144.308 128.371C145.329 127.738 146.487 127.285 147.759 127.285C149.825 127.285 150.96 128.484 150.96 130.996V135.679H148.689V134.887C148.689 134.887 147.759 135.882 146.442 135.882C144.943 135.905 144.012 134.797 144.012 133.416ZM148.667 133.281V131.855C146.964 132.082 146.306 132.625 146.306 133.235C146.306 133.756 146.669 134.027 147.236 134.027C147.759 134.005 148.235 133.711 148.667 133.281Z" fill="#0C419A"/>
<path d="M170.871 124.095V128.077C170.326 127.557 169.781 127.285 168.896 127.285C167.193 127.285 165.558 128.914 165.558 131.584C165.558 134.276 166.852 135.882 168.85 135.882C169.94 135.882 170.803 135.068 170.871 135V135.701H173.255V124.095H170.871ZM169.463 133.914C168.533 133.914 167.988 133.19 167.988 131.584C167.988 130.023 168.669 129.299 169.441 129.299C169.872 129.299 170.349 129.435 170.871 129.819V133.19C170.394 133.711 169.986 133.914 169.463 133.914Z" fill="#0C419A"/>
<path d="M175.094 125.023C175.094 124.276 175.684 123.756 176.479 123.756C177.274 123.756 177.864 124.276 177.864 125.023C177.864 125.769 177.274 126.29 176.479 126.29C175.684 126.29 175.094 125.747 175.094 125.023ZM175.276 127.489H177.66V135.701H175.276V127.489Z" fill="#0C419A"/>
<path d="M179.158 131.584C179.158 128.914 180.838 127.285 182.859 127.285C185.152 127.285 186.423 128.982 186.423 131.222C186.423 131.652 186.378 132.104 186.333 132.308H181.497C181.701 133.507 182.518 134.05 183.585 134.05C184.198 134.05 184.721 133.801 185.311 133.462L186.128 134.977C185.311 135.566 184.221 135.905 183.268 135.905C180.884 135.905 179.158 134.321 179.158 131.584ZM184.38 130.701C184.38 129.797 183.858 129.14 182.904 129.14C182.155 129.14 181.633 129.661 181.474 130.701H184.38Z" fill="#0C419A"/>
<path d="M132.593 119.57V110.52H134.976V119.661C134.976 120.181 135.203 120.339 135.408 120.339C135.499 120.339 135.567 120.339 135.703 120.317L135.998 122.104C135.726 122.217 135.34 122.308 134.795 122.308C133.137 122.308 132.593 121.222 132.593 119.57Z" fill="#0C419A"/>
<path d="M145.261 119.548L145.92 122.127H148.394L145.057 111.335H142.31L138.972 122.127H141.447L142.105 119.548H145.261ZM142.605 117.647L143.649 113.552H143.74L144.784 117.647H142.605Z" fill="#0C419A"/>
<path d="M148.871 121.176L149.938 119.661C150.665 120.226 151.346 120.52 152.027 120.52C152.731 120.52 153.049 120.249 153.049 119.819C153.049 119.276 152.254 119.027 151.414 118.71C150.415 118.326 149.28 117.647 149.28 116.29C149.28 114.751 150.506 113.71 152.368 113.71C153.594 113.71 154.525 114.208 155.206 114.751L154.139 116.222C153.571 115.792 153.003 115.52 152.436 115.52C151.823 115.52 151.505 115.769 151.505 116.176C151.505 116.697 152.254 116.9 153.094 117.217C154.116 117.602 155.274 118.19 155.274 119.683C155.274 121.176 154.116 122.33 151.959 122.33C150.915 122.308 149.689 121.855 148.871 121.176Z" fill="#0C419A"/>
<path d="M156.023 121.176L157.09 119.661C157.817 120.226 158.498 120.52 159.179 120.52C159.883 120.52 160.2 120.249 160.2 119.819C160.2 119.276 159.406 119.027 158.566 118.71C157.567 118.326 156.432 117.647 156.432 116.29C156.432 114.751 157.658 113.71 159.519 113.71C160.745 113.71 161.676 114.208 162.357 114.751L161.29 116.222C160.723 115.792 160.155 115.52 159.587 115.52C158.974 115.52 158.657 115.769 158.657 116.176C158.657 116.697 159.406 116.9 160.246 117.217C161.268 117.602 162.425 118.19 162.425 119.683C162.425 121.176 161.268 122.33 159.111 122.33C158.066 122.308 156.84 121.855 156.023 121.176Z" fill="#0C419A"/>
<path d="M172.937 113.914H175.321V115.09C175.775 114.185 176.888 113.869 177.455 113.869C177.909 113.869 178.182 113.937 178.409 114.027L178.159 116.244C177.841 116.154 177.478 115.995 177.137 115.995C176.207 116.018 175.389 116.81 175.321 117.851V122.127H172.937V113.914Z" fill="#0C419A"/>
<path d="M187.649 113.914H190.033V114.955C190.714 114.299 191.395 113.71 192.508 113.71C194.256 113.71 195.005 114.977 195.005 117.013V122.104H192.621V117.308C192.621 116.131 192.303 115.747 191.622 115.747C191.032 115.747 190.578 116.041 190.056 116.538V122.081H187.672V113.914H187.649Z" fill="#0C419A"/>
<path d="M203.27 118.009C203.27 115.339 204.95 113.71 206.97 113.71C209.263 113.71 210.535 115.407 210.535 117.647C210.535 118.077 210.489 118.529 210.444 118.733H205.608C205.812 119.932 206.63 120.475 207.697 120.475C208.31 120.475 208.832 120.226 209.422 119.887L210.24 121.403C209.422 121.991 208.332 122.33 207.379 122.33C205.018 122.308 203.27 120.724 203.27 118.009ZM208.514 117.127C208.514 116.222 207.992 115.566 207.038 115.566C206.289 115.566 205.767 116.086 205.608 117.127H208.514Z" fill="#0C419A"/>
<path d="M178.931 119.842C178.931 118.122 180.384 117.149 183.585 116.81C183.54 116.086 183.086 115.656 182.2 115.656C181.519 115.656 180.838 115.95 180.066 116.403L179.226 114.796C180.248 114.163 181.406 113.71 182.677 113.71C184.743 113.71 185.878 114.909 185.878 117.421V122.104H183.608V121.312C183.608 121.312 182.677 122.308 181.36 122.308C179.862 122.308 178.931 121.222 178.931 119.842ZM183.585 119.706V118.28C181.882 118.507 181.224 119.05 181.224 119.661C181.224 120.181 181.587 120.452 182.155 120.452C182.7 120.43 183.177 120.136 183.585 119.706Z" fill="#0C419A"/>
<path d="M138.11 110.475C137.61 110.475 136.929 110.86 136.929 111.539C136.929 112.149 137.406 112.511 137.905 112.511C137.928 112.511 137.951 112.511 137.973 112.511C137.951 113.235 137.292 113.643 136.974 113.824L137.61 114.706C139.699 114.05 140.13 110.498 138.11 110.475Z" fill="#0C419A"/>
<path d="M168.578 113.914V119.344C168.101 120 167.738 120.249 167.148 120.249C166.467 120.249 166.149 119.887 166.149 118.688V113.914H163.765V119.095C163.765 121.041 164.605 122.33 166.308 122.33C167.852 122.33 168.624 121.29 168.624 121.29V122.127H170.985V113.914H168.578Z" fill="#0C419A"/>
<path d="M200.545 120.362C199.501 120.362 198.729 119.435 198.729 118.032C198.729 116.607 199.478 115.679 200.613 115.679C200.977 115.679 201.294 115.815 201.658 116.131L202.793 114.57C202.203 114.073 201.453 113.733 200.477 113.733C198.252 113.733 196.3 115.317 196.3 118.032C196.3 120.747 198.002 122.33 200.25 122.33C201.135 122.33 202.134 122.059 202.906 121.358L202.044 119.706C201.59 120.091 201.09 120.362 200.545 120.362Z" fill="#0C419A"/>
<path d="M111.796 110.588C111.75 110.498 111.591 110.43 111.478 110.407C111.342 110.385 111.274 110.385 111.274 110.385C111.115 110.339 107.959 110.385 107.21 110.882C107.141 110.385 106.96 109.774 106.097 109.593C105.484 109.457 104.167 110.045 104.599 111.357C104.667 111.584 104.826 111.742 105.053 111.855C105.166 111.923 105.348 111.878 105.484 112.24C105.529 112.33 105.598 112.33 105.666 112.308C105.711 112.285 105.734 112.308 105.802 112.353C105.87 112.398 105.915 112.376 105.915 112.376C105.915 112.376 105.938 112.398 105.984 112.398C106.006 112.398 106.097 112.376 106.097 112.398C106.347 112.602 106.642 112.285 106.755 112.081C106.869 112.421 107.164 113.303 107.164 113.303C107.073 113.213 106.074 112.941 105.598 113.462C105.189 113.914 104.871 114.548 104.531 115.611C104.44 115.905 104.258 116.041 103.918 116.176C103.373 116.38 103.69 116.629 103.827 116.652C104.167 116.719 104.939 116.674 105.098 116.606C105.302 116.516 105.144 116.041 105.371 115.747C105.575 115.498 105.734 115.271 105.87 115.113C105.87 115.452 105.87 115.633 105.688 116.063C105.529 116.471 105.03 116.674 104.871 116.855C104.599 117.195 105.212 117.217 105.371 117.172C105.779 117.036 106.052 117.036 106.211 116.946C106.438 116.81 106.279 116.448 106.347 116.312C106.551 115.905 107.255 115.023 107.346 114.887C107.368 114.864 107.368 114.842 107.368 114.819C107.868 114.977 108.436 115.023 108.64 115C109.798 114.864 110.048 114.05 109.934 113.394C109.821 112.805 109.457 112.443 109.344 112.262C109.049 111.787 108.867 111.538 108.753 111.403C109.094 111.312 110.933 110.814 110.933 110.837C111.001 110.995 111.16 111.018 111.205 111.063C111.319 111.131 111.387 111.018 111.342 110.995C111.251 110.928 111.228 110.882 111.228 110.882C111.387 110.882 111.523 110.905 111.637 110.905C111.818 110.928 111.887 110.656 111.796 110.588Z" fill="#0C419A"/>
<path fill-rule="evenodd" clip-rule="evenodd" d="M128.211 121.674C127.915 120.09 126.44 119.118 125.668 118.778C125.145 118.552 124.918 118.507 124.828 118.484C124.714 118.439 124.623 118.416 124.578 118.394C124.623 118.054 125.032 118.032 125.282 117.534C125.963 116.131 124.555 115.158 123.534 115.385C123.034 115.498 122.716 115.656 122.625 116.041C122.58 116.244 122.421 116.244 122.171 116.516C122.08 116.606 122.262 116.742 122.308 116.81C122.308 116.833 122.262 116.9 122.239 116.991C122.217 117.081 122.239 117.059 122.239 117.081C122.239 117.081 122.194 117.172 122.194 117.285C122.194 117.285 122.08 117.511 122.194 117.76C122.217 117.828 122.353 117.964 122.398 118.28C122.398 118.326 122.398 118.348 122.217 118.28C122.171 118.258 120.287 117.715 120.083 117.579C119.856 117.421 117.994 115.407 117.789 115.023C117.676 114.796 117.562 114.661 117.494 114.661C117.063 114.683 117.812 115.475 117.381 115.204C117.267 115.136 116.949 114.909 116.927 114.887C116.836 114.819 116.859 114.842 116.813 114.751C116.768 114.661 116.722 114.593 116.677 114.57C116.632 114.547 116.609 114.525 116.563 114.525C116.495 114.547 116.518 114.593 116.495 114.593C116.495 114.593 116.45 114.593 116.427 114.593C116.314 114.615 116.405 114.887 116.427 115.023C116.427 115.045 116.722 115.747 116.813 115.86C117.29 116.176 117.744 116.471 117.767 116.471C118.289 117.059 118.879 117.805 119.424 118.371C119.856 118.823 121.808 119.955 121.853 119.977C121.99 120.045 122.194 120.475 121.899 123.439C121.785 124.547 120.991 126.923 121.377 128.145C121.626 128.937 121.899 129.48 122.194 131.652C122.262 132.127 121.876 132.443 121.331 132.828C121.127 132.986 120.514 133.348 120.469 133.394C120.378 133.484 120.469 133.62 120.582 133.688C120.718 133.733 120.945 133.869 121.082 133.891C121.309 133.937 121.649 133.914 122.012 133.71C122.398 133.484 122.444 133.461 122.671 133.303C122.943 133.145 123.261 133.099 123.352 132.828C123.465 132.466 123.148 131.946 123.193 131.719C123.42 130.023 123.715 129.185 123.284 128.145C123.193 127.941 123.897 125.679 123.965 125.973C124.078 126.561 124.124 128.348 124.147 129.661C124.147 130.249 124.623 132.285 124.782 133.032C125.009 134.163 123.102 135.068 123.511 135.407C123.602 135.475 123.851 135.588 124.078 135.633C124.351 135.679 124.555 135.633 124.782 135.543C124.918 135.498 125.123 135.249 125.168 135.204C125.577 134.706 125.441 134.842 125.781 134.48C126.054 134.163 125.849 133.62 125.827 133.348C125.758 132.783 125.827 132.624 125.804 131.584C125.804 130.385 125.872 130.045 125.94 129.593C126.235 127.602 126.417 126.516 126.53 125.679V125.633C126.53 125.633 126.667 125.679 126.735 125.588C126.848 125.407 126.826 125.249 126.848 125.136C126.871 125.023 126.916 125.158 126.916 125.158C126.916 125.158 127.007 125.43 127.007 125.52C127.007 125.656 126.916 125.814 126.848 126.018C126.78 126.244 126.962 126.267 127.007 126.29C127.053 126.312 127.643 125.882 127.734 125.724C127.825 125.543 127.802 125.317 127.825 125.204C127.847 124.909 127.666 124.072 127.666 124.072C127.802 123.507 128.301 122.081 128.211 121.674ZM126.848 123.959C126.78 124.231 126.757 123.982 126.508 125.023L126.53 124.864C126.53 124.728 126.53 124.57 126.53 124.412C126.53 123.122 125.531 120.362 126.144 120.928C126.144 120.928 126.871 121.425 127.007 121.81C127.121 122.149 127.098 122.964 126.848 123.959Z" fill="#0C419A"/>
<path d="M102.578 127.059C102.351 126.855 101.556 125.792 101.057 125.362C100.716 125 100.625 124.819 100.353 124.434C99.4221 123.213 99.2178 123.122 98.582 123.032C98.4458 122.941 98.4912 122.851 98.5139 122.828C99.354 122.511 99.0815 121.787 99.0588 121.765C99.0134 121.606 99.1269 121.538 99.1269 121.38C99.1269 121.131 99.0815 120.95 99.0134 120.769C99.0361 120.656 99.0588 120.498 98.9453 120.339C98.4912 119.774 97.356 119.751 96.7657 120.136C96.289 120.452 96.5614 120.679 96.4252 121.154C96.3344 121.425 96.4252 121.674 96.6068 121.878C96.6295 122.036 97.1063 122.33 97.0155 122.647C96.9247 122.986 96.3798 123.054 96.3798 123.054C96.3117 123.077 96.2663 123.1 96.2208 123.122C95.3581 123.62 94.5181 124.344 94.4045 125.113C94.4499 125.747 95.4489 126.674 96.0846 127.172C96.1754 128.258 96.8566 129.909 96.902 129.977C96.9928 130.181 96.6976 129.819 96.0165 129.593C95.676 129.48 95.2446 129.027 95.1311 129.57C95.0857 129.796 95.1765 130.181 94.9721 130.679C94.8132 131.041 94.9948 131.629 95.4035 131.629C95.6987 131.629 95.8803 130.724 95.8803 130.724C95.8803 130.724 97.3106 131.425 97.9917 131.199C98.4004 131.063 98.4912 129.48 98.0826 128.054C97.9463 127.557 98.3323 128.869 99.2859 130C99.4902 130.249 99.3086 130.452 99.4448 131.403C99.4902 131.765 99.4902 131.855 99.4902 132.014C99.4675 132.466 99.0361 133.009 100.035 133.258C101.057 133.529 100.966 133.756 101.602 133.326C101.897 133.145 100.716 133.009 100.489 132.33C100.489 132.308 100.466 132.217 100.466 132.172C100.444 131.629 100.694 130.385 100.603 129.932C100.239 127.783 99.3313 126.787 99.2178 126.29C99.2178 124.796 99.1042 124.321 99.2405 124.661C99.2632 124.728 99.581 125.249 99.8989 125.656C99.9216 125.701 99.967 125.747 100.012 125.792C100.103 125.905 100.194 125.995 100.285 126.041C100.921 126.584 101.92 127.24 102.056 127.376C102.056 127.376 102.124 128.032 102.396 127.986C102.646 127.941 103.849 127.421 103.827 127.285C103.781 127.104 102.601 127.104 102.578 127.059ZM96.0392 126.244C95.8576 125.905 95.3581 125.249 95.4035 125.136C95.676 124.683 95.9711 124.547 96.0619 124.57C96.13 124.593 96.0392 126.244 96.0392 126.244Z" fill="#0C419A"/>
<path d="M122.466 139.231C122.421 139.208 121.717 138.937 121.081 137.941C120.809 137.489 118.698 133.62 118.425 132.873C117.857 131.38 113.43 128.688 113.249 128.529C113.112 128.416 113.135 128.167 113.181 127.986C113.544 126.719 113.408 125.611 113.476 125.43C113.657 125 113.93 124.389 113.725 123.982L113.271 123.258C113.271 123.258 115.61 124.095 116.155 123.982C116.631 123.891 118.97 122.262 119.106 122.194C119.424 122.036 120.219 122.262 121.013 121.403C121.308 121.086 121.104 120.973 121.036 121.018C121.059 120.995 120.9 120.86 120.764 120.95C120.582 121.063 119.924 121.244 120.037 121.154C120.514 120.792 120.173 120.701 120.173 120.701C119.969 120.882 119.038 121.108 118.834 121.267C118.629 121.448 118.47 121.584 118.38 121.651C117.812 121.968 116.836 122.443 115.86 122.67C115.655 122.715 113.794 121.493 112.704 121.335C112.113 121.244 111.909 121.289 111.591 121.38C111.205 121.493 111.228 120.927 111.523 120.792C111.682 120.724 111.932 120.679 112.023 120.498C112.136 120.271 112 120.068 112 120.023C112 120 112.023 119.977 111.977 119.887C111.954 119.819 111.954 119.864 111.954 119.796C111.954 119.751 111.932 119.706 111.909 119.661C111.909 119.638 111.909 119.547 111.932 119.525C112.159 119.344 112.068 119.253 112.023 119.231C111.954 119.163 111.614 119.027 111.591 118.801C111.546 118.439 111.41 118.258 111.364 118.077C111.341 118.009 111.296 117.579 111.114 117.421C110.887 117.217 110.411 116.968 109.366 117.24C109.026 117.33 109.094 117.489 108.276 117.647C107.278 117.828 106.733 119.299 106.823 119.909C106.892 120.407 107.323 120.158 107.3 120.384C107.278 120.724 107.232 121.289 107.959 121.493C108.118 121.538 109.071 121.38 109.434 121.448C109.434 121.448 109.73 121.47 109.571 121.765C109.502 121.9 108.549 122.285 108.299 122.375C107.686 122.624 106.074 125.249 105.597 125.498C105.189 125.701 104.939 125.86 104.78 125.973C104.122 126.38 103.486 126.9 103.123 126.878C102.646 126.855 102.26 127.081 101.942 127.783C101.851 127.986 101.897 128.099 102.078 128.145C102.146 128.213 102.237 128.303 102.373 128.303C102.51 128.439 102.669 128.348 102.805 128.28C103.168 128.077 103.259 127.918 103.395 127.873C103.758 127.76 105.893 126.923 106.369 126.561C107.096 126.176 108.549 124.683 108.867 124.661C109.162 124.638 109.888 125.294 109.661 126.561C109.593 126.991 109.048 127.76 108.753 128.213C108.163 129.095 108.617 129.887 108.504 130.068C107.891 131.063 107.141 132.398 105.87 133.529C105.37 133.846 104.349 133.914 103.781 134.072C102.51 134.434 101.17 135.339 100.217 135.882C99.8988 136.063 99.6036 135.679 99.1949 135.633C98.809 135.588 98.7636 136.199 98.5592 136.742C98.4911 136.9 98.4684 136.991 98.1733 137.67C98.0598 137.941 97.7419 138.733 98.0598 139.072C98.3549 139.48 99.036 138.213 99.5809 137.602C99.8534 137.285 100.035 137.172 100.648 137.036C101.034 136.946 104.144 136.108 106.188 135.656C106.233 135.656 106.301 135.633 106.347 135.611C109.003 134.932 111.75 131.47 111.796 131.493L116.314 133.71C116.768 133.959 116.768 134.819 117.313 135.837C117.63 136.448 118.107 136.968 120.037 138.846C120.287 139.095 120.082 139.48 120.196 139.864C120.31 140.271 120.514 140.271 120.877 140.249C121.218 140.226 121.513 140.158 121.853 140.136C122.285 140.113 122.171 140.158 122.671 140.226C122.92 140.271 123.465 140.339 123.874 139.955C124.578 139.208 123.147 139.57 122.466 139.231Z" fill="#0C419A"/>
<path d="M117.585 137.285C117.517 137.149 117.358 137.104 117.222 137.172C115.292 138.145 113.135 138.665 110.956 138.665C108.526 138.665 106.142 138.032 104.054 136.832C103.917 136.765 103.759 136.81 103.668 136.923C103.6 137.059 103.645 137.217 103.759 137.308C105.938 138.552 108.413 139.208 110.933 139.208C113.203 139.208 115.451 138.665 117.449 137.647C117.608 137.579 117.653 137.421 117.585 137.285Z" fill="#0C419A"/>
<path d="M98.0826 119.299C98.0372 119.299 98.0145 119.299 97.9691 119.276C97.8329 119.208 97.7648 119.05 97.8329 118.914C99.0816 116.199 101.102 113.959 103.69 112.443C103.827 112.376 103.986 112.421 104.076 112.534C104.145 112.67 104.099 112.828 103.986 112.919C101.488 114.367 99.5357 116.516 98.3551 119.14C98.2869 119.253 98.1961 119.299 98.0826 119.299Z" fill="#0C419A"/>
<path d="M121.536 115.792C121.468 115.792 121.377 115.769 121.331 115.702C119.152 113.235 116.155 111.629 112.908 111.177C112.749 111.154 112.658 111.018 112.681 110.86C112.704 110.702 112.84 110.611 112.999 110.634C116.382 111.109 119.492 112.783 121.763 115.34C121.854 115.453 121.854 115.634 121.74 115.724C121.672 115.769 121.604 115.792 121.536 115.792Z" fill="#0C419A"/>
</g>
<rect opacity="0.5" x="190" y="225" width="162" height="20" rx="10" fill="#CED9EB"/>
<rect opacity="0.5" x="90" y="186" width="115" height="20" rx="10" fill="#CED9EB"/>
<rect opacity="0.5" x="213" y="186" width="116" height="20" rx="10" fill="#CED9EB"/>
<rect opacity="0.5" x="337" y="186" width="115" height="20" rx="10" fill="#CED9EB"/>
<line x1="90" y1="165.5" x2="452" y2="165.5" stroke="#E4E4E4"/>
<defs>
<clipPath id="clip0_36_95610">
<rect width="132" height="40" fill="white" transform="translate(90 105)"/>
</clipPath>
</defs>
</svg>
