<svg xmlns="http://www.w3.org/2000/svg" width="541" height="357" fill="none"><path fill="#E7ECF5" d="M0 0h541v357H0z"/><path fill="#fff" d="M63 88h415v181H63z"/><path fill="#0C419A" d="m438.667 124 .94.94 3.726-3.72v8.113h1.334v-8.113l3.72 3.727.946-.947-5.333-5.333-5.333 5.333Z"/><g fill="#0C419A" clip-path="url(#a)"><path d="M133.387 139.593h.84l1.317 4.05h-.772l-.613-2.15c-.136-.43-.25-.882-.363-1.334h-.023c-.114.452-.227.904-.363 1.334l-.636 2.15h-.727l1.34-4.05Zm-.545 2.398h1.907v.566h-1.907v-.566ZM135.975 144.208c0-.249.159-.475.431-.656v-.023c-.158-.09-.272-.271-.272-.497 0-.227.159-.453.341-.566v-.023c-.205-.158-.409-.452-.409-.814 0-.701.568-1.086 1.203-1.086.159 0 .318.023.454.068h1.09v.52h-.568c.091.113.182.294.182.521 0 .678-.522 1.04-1.158 1.04-.136 0-.272-.022-.408-.09-.091.068-.159.158-.159.294 0 .181.113.271.499.271h.545c.727 0 1.112.227 1.112.747 0 .611-.635 1.086-1.634 1.086-.704 0-1.249-.249-1.249-.792Zm2.225-.158c0-.227-.182-.294-.545-.294h-.408c-.159 0-.296-.023-.409-.046-.159.113-.227.272-.227.408 0 .271.295.429.772.429.477 0 .817-.226.817-.497Zm-.386-2.421c0-.385-.227-.611-.522-.611-.295 0-.522.226-.522.611 0 .384.227.611.522.611.295 0 .522-.227.522-.611ZM139.562 139.661c0-.249.182-.407.454-.407.25 0 .454.158.454.407 0 .226-.181.407-.454.407-.249 0-.454-.158-.454-.407Zm.091.95h.727v3.054h-.727v-3.054ZM141.492 140.611h.59l.046.543h.022c.227-.407.545-.611.863-.611.159 0 .25.023.341.068l-.114.611c-.113-.023-.181-.046-.318-.046-.249 0-.545.159-.726.634v1.855h-.727v-3.054h.023ZM145.284 142.127c0-.996.681-1.607 1.407-1.607.818 0 1.272.589 1.272 1.448 0 .136-.023.272-.023.34h-1.952c.068.543.408.859.908.859.272 0 .476-.09.703-.226l.25.453c-.295.203-.658.339-1.044.339-.863 0-1.521-.588-1.521-1.606Zm2.066-.294c0-.476-.205-.747-.636-.747-.363 0-.681.271-.726.747h1.362ZM148.848 140.611h.59l.046.407h.023c.272-.271.59-.498.999-.498.658 0 .93.453.93 1.222v1.901h-.726v-1.81c0-.498-.136-.702-.477-.702-.272 0-.454.136-.704.385v2.127h-.726v-3.032h.045ZM152.254 143.303l.34-.452c.273.203.545.339.84.339.341 0 .5-.158.5-.362 0-.249-.341-.362-.659-.498-.408-.158-.862-.384-.862-.882 0-.52.431-.905 1.112-.905.431 0 .772.181 1.022.362l-.318.43c-.204-.159-.431-.272-.681-.272-.318 0-.454.136-.454.34 0 .249.318.339.635.452.409.158.886.362.886.928 0 .52-.409.95-1.181.95-.431 0-.885-.181-1.18-.43ZM155.251 142.127c0-.996.681-1.607 1.407-1.607.818 0 1.272.589 1.272 1.448 0 .136-.023.272-.023.34h-1.952c.068.543.408.859.908.859.272 0 .476-.09.704-.226l.249.453c-.295.203-.658.339-1.044.339-.863 0-1.521-.588-1.521-1.606Zm2.043-.294c0-.476-.204-.747-.636-.747-.363 0-.681.271-.726.747h1.362ZM158.815 140.611h.59l.046.407h.023c.249-.271.544-.498.93-.498.455 0 .704.204.84.543.296-.316.591-.543.977-.543.635 0 .953.453.953 1.222v1.901h-.726v-1.81c0-.498-.159-.702-.477-.702-.204 0-.409.113-.636.385v2.127h-.726v-1.81c0-.498-.159-.702-.477-.702-.182 0-.409.113-.636.385v2.127h-.726v-3.032h.045ZM164.923 143.349l-.091.316h-.568v-4.389h.727v1.131l-.023.498c.25-.226.568-.385.885-.385.772 0 1.204.611 1.204 1.539 0 1.041-.636 1.652-1.317 1.652-.25.022-.545-.114-.817-.362Zm1.407-1.245c0-.611-.204-.973-.658-.973-.227 0-.432.113-.659.34v1.425c.205.181.432.249.613.249.386 0 .704-.362.704-1.041ZM167.965 142.873v-3.597h.726v3.643c0 .181.091.249.159.249.023 0 .068 0 .114-.023l.091.543c-.091.045-.205.068-.386.068-.523-.023-.704-.362-.704-.883ZM169.668 142.127c0-.996.681-1.607 1.407-1.607.818 0 1.272.589 1.272 1.448 0 .136-.023.272-.023.34h-1.952c.068.543.408.859.908.859.272 0 .476-.09.704-.226l.249.453c-.295.203-.658.339-1.044.339-.863 0-1.521-.588-1.521-1.606Zm2.043-.294c0-.476-.204-.747-.636-.747-.363 0-.681.271-.726.747h1.362ZM173.663 142.76c-.272 0-.476.181-.476.43 0 .294.227.43.454.43h.045c0 .317-.227.611-.636.747l.159.384c.613-.203.976-.678.976-1.289 0-.43-.181-.702-.522-.702ZM176.683 140.611h.59l.046.317h.023c.249-.227.59-.408.93-.408.772 0 1.204.611 1.204 1.561 0 1.041-.636 1.652-1.317 1.652-.273 0-.545-.113-.795-.339l.023.497v.951h-.727v-4.231h.023Zm2.043 1.493c0-.611-.204-.973-.658-.973-.227 0-.431.113-.658.34v1.425c.227.181.431.249.613.249.386 0 .703-.362.703-1.041ZM180.384 140.611h.59l.045.543h.023c.227-.407.545-.611.863-.611.159 0 .25.023.34.068l-.113.611c-.114-.023-.182-.046-.318-.046-.25 0-.545.159-.726.634v1.855h-.727v-3.054h.023ZM182.541 142.127c0-1.018.704-1.607 1.453-1.607.749 0 1.453.589 1.453 1.607s-.704 1.606-1.453 1.606c-.749 0-1.453-.588-1.453-1.606Zm2.157 0c0-.611-.273-1.018-.727-1.018-.454 0-.726.407-.726 1.018s.272 1.018.726 1.018c.454 0 .727-.407.727-1.018ZM186.355 142.625v-1.448h-.431v-.543l.476-.023.091-.837h.59v.837h.772v.566h-.772v1.448c0 .362.137.543.432.543.113 0 .227-.046.318-.068l.113.52c-.159.045-.386.113-.635.113-.682 0-.954-.452-.954-1.108ZM188.421 142.127c0-.996.681-1.607 1.408-1.607.817 0 1.271.589 1.271 1.448 0 .136-.023.272-.023.34h-1.952c.068.543.408.859.908.859.272 0 .477-.09.704-.226l.249.453c-.295.203-.658.339-1.044.339-.863 0-1.521-.588-1.521-1.606Zm2.043-.294c0-.476-.204-.747-.635-.747-.364 0-.682.271-.727.747h1.362Zm-1.021-2.082.908-1.086.499.475-1.044.951-.363-.34ZM191.736 144.208c0-.249.159-.475.431-.656v-.023c-.159-.09-.272-.271-.272-.497 0-.227.159-.453.34-.566v-.023c-.204-.158-.408-.452-.408-.814 0-.701.567-1.086 1.203-1.086.159 0 .318.023.454.068h1.09v.52h-.568c.091.113.182.294.182.521 0 .678-.522 1.04-1.158 1.04-.136 0-.272-.022-.409-.09-.091.068-.159.158-.159.294 0 .181.114.271.5.271h.545c.726 0 1.112.227 1.112.747 0 .611-.635 1.086-1.634 1.086-.704 0-1.249-.249-1.249-.792Zm2.225-.158c0-.227-.182-.294-.545-.294h-.409c-.159 0-.295-.023-.408-.046-.159.113-.227.272-.227.408 0 .271.295.429.771.429.477 0 .818-.226.818-.497Zm-.386-2.421c0-.385-.227-.611-.522-.611-.295 0-.523.226-.523.611 0 .384.228.611.523.611.295 0 .522-.227.522-.611ZM195.073 142.127c0-.996.681-1.607 1.408-1.607.817 0 1.271.589 1.271 1.448 0 .136-.022.272-.022.34h-1.953c.068.543.409.859.908.859.273 0 .477-.09.704-.226l.25.453c-.295.203-.659.339-1.045.339-.862 0-1.521-.588-1.521-1.606Zm2.044-.294c0-.476-.205-.747-.636-.747-.363 0-.681.271-.727.747h1.363ZM198.638 140.611h.59l.045.543h.023c.227-.407.545-.611.863-.611.159 0 .25.023.34.068l-.113.611c-.114-.023-.182-.046-.318-.046-.25 0-.545.159-.726.634v1.855h-.727v-3.054h.023ZM202.429 142.127c0-1.018.727-1.607 1.544-1.607.386 0 .681.159.886.34l-.341.475c-.159-.136-.318-.226-.5-.226-.499 0-.84.407-.84 1.018s.341 1.018.818 1.018c.25 0 .454-.113.635-.272l.296.475c-.296.249-.659.385-.999.385-.863 0-1.499-.588-1.499-1.606ZM205.698 139.276h.727v1.131l-.023.589c.25-.249.568-.453.977-.453.658 0 .93.453.93 1.222v1.9h-.726v-1.81c0-.497-.136-.701-.477-.701-.272 0-.454.136-.704.385v2.126h-.726v-4.389h.022ZM209.172 142.828c0-.656.545-.995 1.794-1.131 0-.317-.137-.611-.545-.611-.295 0-.59.136-.863.294l-.272-.475c.34-.204.772-.407 1.248-.407.772 0 1.136.475 1.136 1.312v1.81h-.568l-.045-.339h-.023c-.273.226-.59.407-.954.407-.545.045-.908-.317-.908-.86Zm1.794.023v-.679c-.84.113-1.113.317-1.113.633 0 .272.182.385.432.385.272-.023.454-.136.681-.339ZM212.532 142.127c0-1.018.727-1.607 1.544-1.607.386 0 .681.159.886.34l-.341.475c-.159-.136-.318-.226-.499-.226-.5 0-.84.407-.84 1.018s.34 1.018.817 1.018c.25 0 .454-.113.636-.272l.295.475c-.295.249-.659.385-.999.385-.863 0-1.499-.588-1.499-1.606ZM215.756 142.511v-1.9h.727v1.81c0 .498.136.701.477.701.272 0 .454-.113.681-.43v-2.081h.726v3.054h-.59l-.045-.452h-.046c-.272.317-.567.52-.976.52-.658 0-.954-.452-.954-1.222ZM219.412 140.611h.59l.045.407h.023c.272-.271.59-.498.999-.498.658 0 .931.453.931 1.222v1.9h-.681v-1.809c0-.498-.136-.702-.477-.702-.272 0-.454.136-.704.385v2.126h-.726v-3.031ZM92.0659 125.158l-.2724-.248c.1135-.136.2043-.295.227-.453 0-.181-.0681-.271-.1589-.271-.1135 0-.1589.09-.227.271l-.1136.249c-.0908.181-.2497.362-.5222.362-.3178-.023-.5448-.294-.5221-.701 0-.227.1135-.43.2724-.589l.2497.227c-.0908.113-.1589.226-.1589.384 0 .136.0454.249.1589.249.1136 0 .159-.113.2271-.271l.1135-.227c.1135-.226.2725-.362.5222-.339.3178.023.5676.294.5449.747-.0454.158-.1589.429-.3406.61ZM90.3179 122.466 90 121.923l.2952-.181.2724.566-.2497.158Zm.227.43.1816-1.177.3633.046-.1135.746.3859.045.0908-.633.3633.045-.0908.634.4314.068.1135-.77.3632.046-.1816 1.199-1.9071-.249ZM91.7482 121.244c-.613-.158-.8627-.633-.7492-1.108.0681-.227.2271-.408.386-.498l.2043.294c-.1135.068-.2043.158-.227.294-.0681.249.1135.498.4768.588.3859.091.6357-.022.7038-.294.0454-.158 0-.294-.0908-.407l.3178-.158c.1362.203.1816.43.1135.656-.0908.498-.5222.792-1.1352.633ZM92.3386 119.276l-.9536-.362.1589-.407.999.384c.3406.136.4995.068.5903-.135.0681-.204 0-.362-.3406-.498l-.9989-.385.1362-.384.9536.362c.5903.226.7492.565.5903 1.018-.1817.475-.5449.611-1.1352.407ZM92.3157 116.606l.3178-.611c.1817-.362.4541-.588.8628-.384.3859.203.4086.565.2043.927l-.1135.227.613.316-.2043.385-1.6801-.86Zm1.0671-.181c.1135-.203.0681-.339-.0909-.43-.1589-.09-.2724 0-.3859.181l-.0908.204.454.249.1136-.204Zm.1816.159-.1135-.385 1.226-.045-.2271.43h-.8854ZM93.4055 114.57l.2271-.362 1.5892 1.018-.227.362-1.5893-1.018ZM94.6089 113.439l-.3179.407-.2952-.226.8855-1.154.2951.226-.3178.408 1.226.927-.2497.34-1.226-.928ZM95.3582 111.901l.8173-.86.2724.249-.5222.543.2725.249.4314-.476.2724.249-.4314.475.3179.295.5449-.566.2724.249-.8173.882-1.4303-1.289Zm.0454-.476.0454-.633.3632.023-.1135.61h-.2951ZM98.5367 111.063l.0227-.384c.1816 0 .3632-.023.4768-.136.1362-.113.1589-.226.0908-.317-.0681-.09-.1817-.068-.3633 0l-.2497.068c-.2044.068-.4541.045-.613-.181-.1817-.249-.1135-.611.1816-.86.1816-.135.4087-.203.6357-.181v.34c-.1589 0-.2724.022-.4087.113-.1135.09-.1589.203-.0908.271.0681.091.2044.046.3633 0l.2497-.068c.2498-.067.4541-.045.613.181.1817.249.159.611-.2043.905-.1816.181-.4541.272-.7038.249ZM99.6945 109.253c-.3179-.52-.2043-1.018.227-1.267.4315-.271.9085-.135 1.2265.385.317.52.204 1.018-.228 1.29-.408.248-.908.113-1.2255-.408Zm1.1125-.656c-.204-.317-.454-.43-.681-.294-.2272.136-.2499.407-.046.724.205.317.455.453.682.317.204-.136.227-.43.045-.747ZM101.715 108.077c-.272-.566-.045-1.064.386-1.267.227-.113.454-.091.613-.023l-.091.34a.4947.4947 0 0 0-.363 0c-.227.113-.318.407-.159.746.159.362.431.475.681.362.136-.068.227-.181.25-.317l.318.159c-.068.226-.205.407-.432.498-.431.203-.931.067-1.203-.498ZM103.395 106.312l.409-.136.658 1.765-.408.136-.659-1.765ZM105.098 105.747l.5-.136 1.067 1.674-.432.113-.476-.859c-.091-.159-.205-.362-.296-.543 0 .203.023.429.023.633v.996l-.431.113.045-1.991Zm.091 1.108.885-.226.091.317-.885.226-.091-.317ZM106.869 105.317l.431-.068.227 1.516.727-.114.045.362-1.158.181-.272-1.877ZM108.708 105.068l1.181-.068.022.362-.749.045.023.385.635-.045.023.362-.636.045.023.43.795-.046.023.362-1.204.068-.136-1.9ZM152.799 133.145v-9.05h2.384v9.14c0 .521.227.679.431.679.091 0 .159 0 .295-.022l.295 1.787c-.272.113-.658.203-1.203.203-1.635.023-2.202-1.085-2.202-2.737ZM137.497 130.249c.204-.656 2.338-5.339 2.338-5.339h2.52v10.791h-2.27v-6.674l-1.885 4.842h-1.453l-1.884-4.842v6.674h-2.27V124.91h2.52s2.111 4.683 2.338 5.339h.046ZM157.181 133.416c0-1.719 1.453-2.692 4.654-3.031-.045-.724-.5-1.154-1.385-1.154-.681 0-1.362.294-2.134.746l-.84-1.606c1.021-.633 2.179-1.086 3.451-1.086 2.066 0 3.201 1.199 3.201 3.711v4.683h-2.27v-.792s-.931.995-2.248.995c-1.498.023-2.429-1.085-2.429-2.466Zm4.654-.135v-1.426c-1.703.227-2.361.77-2.361 1.38 0 .521.363.792.931.792.522-.022.999-.316 1.43-.746ZM144.012 133.416c0-1.719 1.453-2.692 4.655-3.031-.046-.724-.5-1.154-1.385-1.154-.681 0-1.362.294-2.134.746l-.84-1.606c1.021-.633 2.179-1.086 3.451-1.086 2.066 0 3.201 1.199 3.201 3.711v4.683h-2.271v-.792s-.93.995-2.247.995c-1.499.023-2.43-1.085-2.43-2.466Zm4.655-.135v-1.426c-1.703.227-2.361.77-2.361 1.38 0 .521.363.792.93.792.523-.022.999-.316 1.431-.746ZM170.871 124.095v3.982c-.545-.52-1.09-.792-1.975-.792-1.703 0-3.338 1.629-3.338 4.299 0 2.692 1.294 4.298 3.292 4.298 1.09 0 1.953-.814 2.021-.882v.701h2.384v-11.606h-2.384Zm-1.408 9.819c-.93 0-1.475-.724-1.475-2.33 0-1.561.681-2.285 1.453-2.285.431 0 .908.136 1.43.52v3.371c-.477.521-.885.724-1.408.724ZM175.094 125.023c0-.747.59-1.267 1.385-1.267s1.385.52 1.385 1.267c0 .746-.59 1.267-1.385 1.267s-1.385-.543-1.385-1.267Zm.182 2.466h2.384v8.212h-2.384v-8.212ZM179.158 131.584c0-2.67 1.68-4.299 3.701-4.299 2.293 0 3.564 1.697 3.564 3.937 0 .43-.045.882-.09 1.086h-4.836c.204 1.199 1.021 1.742 2.088 1.742.613 0 1.136-.249 1.726-.588l.817 1.515c-.817.589-1.907.928-2.86.928-2.384 0-4.11-1.584-4.11-4.321Zm5.222-.883c0-.904-.522-1.561-1.476-1.561-.749 0-1.271.521-1.43 1.561h2.906ZM132.593 119.57v-9.05h2.383v9.141c0 .52.227.678.432.678.091 0 .159 0 .295-.022l.295 1.787c-.272.113-.658.204-1.203.204-1.658 0-2.202-1.086-2.202-2.738ZM145.261 119.548l.659 2.579h2.474l-3.337-10.792h-2.747l-3.338 10.792h2.475l.658-2.579h3.156Zm-2.656-1.901 1.044-4.095h.091l1.044 4.095h-2.179ZM148.871 121.176l1.067-1.515c.727.565 1.408.859 2.089.859.704 0 1.022-.271 1.022-.701 0-.543-.795-.792-1.635-1.109-.999-.384-2.134-1.063-2.134-2.42 0-1.539 1.226-2.58 3.088-2.58 1.226 0 2.157.498 2.838 1.041l-1.067 1.471c-.568-.43-1.136-.702-1.703-.702-.613 0-.931.249-.931.656 0 .521.749.724 1.589 1.041 1.022.385 2.18.973 2.18 2.466 0 1.493-1.158 2.647-3.315 2.647-1.044-.022-2.27-.475-3.088-1.154ZM156.023 121.176l1.067-1.515c.727.565 1.408.859 2.089.859.704 0 1.021-.271 1.021-.701 0-.543-.794-.792-1.634-1.109-.999-.384-2.134-1.063-2.134-2.42 0-1.539 1.226-2.58 3.087-2.58 1.226 0 2.157.498 2.838 1.041l-1.067 1.471c-.567-.43-1.135-.702-1.703-.702-.613 0-.93.249-.93.656 0 .521.749.724 1.589 1.041 1.022.385 2.179.973 2.179 2.466 0 1.493-1.157 2.647-3.314 2.647-1.045-.022-2.271-.475-3.088-1.154ZM172.937 113.914h2.384v1.176c.454-.905 1.567-1.221 2.134-1.221.454 0 .727.068.954.158l-.25 2.217c-.318-.09-.681-.249-1.022-.249-.93.023-1.748.815-1.816 1.856v4.276h-2.384v-8.213ZM187.649 113.914h2.384v1.041c.681-.656 1.362-1.245 2.475-1.245 1.748 0 2.497 1.267 2.497 3.303v5.091h-2.384v-4.796c0-1.177-.318-1.561-.999-1.561-.59 0-1.044.294-1.566.791v5.543h-2.384v-8.167h-.023ZM203.27 118.009c0-2.67 1.68-4.299 3.7-4.299 2.293 0 3.565 1.697 3.565 3.937 0 .43-.046.882-.091 1.086h-4.836c.204 1.199 1.022 1.742 2.089 1.742.613 0 1.135-.249 1.725-.588l.818 1.516c-.818.588-1.908.927-2.861.927-2.361-.022-4.109-1.606-4.109-4.321Zm5.244-.882c0-.905-.522-1.561-1.476-1.561-.749 0-1.271.52-1.43 1.561h2.906ZM178.931 119.842c0-1.72 1.453-2.693 4.654-3.032-.045-.724-.499-1.154-1.385-1.154-.681 0-1.362.294-2.134.747l-.84-1.607c1.022-.633 2.18-1.086 3.451-1.086 2.066 0 3.201 1.199 3.201 3.711v4.683h-2.27v-.792s-.931.996-2.248.996c-1.498 0-2.429-1.086-2.429-2.466Zm4.654-.136v-1.426c-1.703.227-2.361.77-2.361 1.381 0 .52.363.791.931.791.545-.022 1.022-.316 1.43-.746ZM138.11 110.475c-.5 0-1.181.385-1.181 1.064 0 .61.477.972.976.972h.068c-.022.724-.681 1.132-.999 1.313l.636.882c2.089-.656 2.52-4.208.5-4.231ZM168.578 113.914v5.43c-.477.656-.84.905-1.43.905-.681 0-.999-.362-.999-1.561v-4.774h-2.384v5.181c0 1.946.84 3.235 2.543 3.235 1.544 0 2.316-1.04 2.316-1.04v.837h2.361v-8.213h-2.407ZM200.545 120.362c-1.044 0-1.816-.927-1.816-2.33 0-1.425.749-2.353 1.884-2.353.364 0 .681.136 1.045.452l1.135-1.561c-.59-.497-1.34-.837-2.316-.837-2.225 0-4.177 1.584-4.177 4.299 0 2.715 1.702 4.298 3.95 4.298.885 0 1.884-.271 2.656-.972l-.862-1.652c-.454.385-.954.656-1.499.656ZM111.796 110.588c-.046-.09-.205-.158-.318-.181-.136-.022-.204-.022-.204-.022-.159-.046-3.315 0-4.064.497-.069-.497-.25-1.108-1.113-1.289-.613-.136-1.93.452-1.498 1.764.068.227.227.385.454.498.113.068.295.023.431.385.045.09.114.09.182.068.045-.023.068 0 .136.045s.113.023.113.023.023.022.069.022c.022 0 .113-.022.113 0 .25.204.545-.113.658-.317.114.34.409 1.222.409 1.222-.091-.09-1.09-.362-1.566.159-.409.452-.727 1.086-1.067 2.149-.091.294-.273.43-.613.565-.545.204-.228.453-.091.476.34.067 1.112.022 1.271-.046.204-.09.046-.565.273-.859.204-.249.363-.476.499-.634 0 .339 0 .52-.182.95-.159.408-.658.611-.817.792-.272.34.341.362.5.317.408-.136.681-.136.84-.226.227-.136.068-.498.136-.634.204-.407.908-1.289.999-1.425.022-.023.022-.045.022-.068.5.158 1.068.204 1.272.181 1.158-.136 1.408-.95 1.294-1.606-.113-.589-.477-.951-.59-1.132-.295-.475-.477-.724-.591-.859.341-.091 2.18-.589 2.18-.566.068.158.227.181.272.226.114.068.182-.045.137-.068-.091-.067-.114-.113-.114-.113.159 0 .295.023.409.023.181.023.25-.249.159-.317Z"/><path fill-rule="evenodd" d="M128.211 121.674c-.296-1.584-1.771-2.556-2.543-2.896-.523-.226-.75-.271-.84-.294-.114-.045-.205-.068-.25-.09.045-.34.454-.362.704-.86.681-1.403-.727-2.376-1.748-2.149-.5.113-.818.271-.909.656-.045.203-.204.203-.454.475-.091.09.091.226.137.294 0 .023-.046.09-.069.181-.022.09 0 .068 0 .09 0 0-.045.091-.045.204 0 0-.114.226 0 .475.023.068.159.204.204.52 0 .046 0 .068-.181 0-.046-.022-1.93-.565-2.134-.701-.227-.158-2.089-2.172-2.294-2.556-.113-.227-.227-.362-.295-.362-.431.022.318.814-.113.543-.114-.068-.432-.295-.454-.317-.091-.068-.068-.045-.114-.136-.045-.09-.091-.158-.136-.181-.045-.023-.068-.045-.114-.045-.068.022-.045.068-.068.068h-.068c-.113.022-.022.294 0 .43 0 .022.295.724.386.837.477.316.931.611.954.611.522.588 1.112 1.334 1.657 1.9.432.452 2.384 1.584 2.429 1.606.137.068.341.498.046 3.462-.114 1.108-.908 3.484-.522 4.706.249.792.522 1.335.817 3.507.068.475-.318.791-.863 1.176-.204.158-.817.52-.862.566-.091.09 0 .226.113.294.136.045.363.181.5.203.227.046.567.023.93-.181.386-.226.432-.249.659-.407.272-.158.59-.204.681-.475.113-.362-.204-.882-.159-1.109.227-1.696.522-2.534.091-3.574-.091-.204.613-2.466.681-2.172.113.588.159 2.375.182 3.688 0 .588.476 2.624.635 3.371.227 1.131-1.68 2.036-1.271 2.375.091.068.34.181.567.226.273.046.477 0 .704-.09.136-.045.341-.294.386-.339.409-.498.273-.362.613-.724.273-.317.068-.86.046-1.132-.069-.565 0-.724-.023-1.764 0-1.199.068-1.539.136-1.991.295-1.991.477-3.077.59-3.914v-.046s.137.046.205-.045c.113-.181.091-.339.113-.452.023-.113.068.022.068.022s.091.272.091.362c0 .136-.091.294-.159.498-.068.226.114.249.159.272.046.022.636-.408.727-.566.091-.181.068-.407.091-.52.022-.295-.159-1.132-.159-1.132.136-.565.635-1.991.545-2.398Zm-1.363 2.285c-.068.272-.091.023-.34 1.064l.022-.159v-.452c0-1.29-.999-4.05-.386-3.484 0 0 .727.497.863.882.114.339.091 1.154-.159 2.149Z" clip-rule="evenodd"/><path d="M102.578 127.059c-.227-.204-1.022-1.267-1.521-1.697-.341-.362-.432-.543-.704-.928-.9309-1.221-1.1352-1.312-1.771-1.402-.1362-.091-.0908-.181-.0681-.204.8401-.317.5676-1.041.5449-1.063-.0454-.159.0681-.227.0681-.385 0-.249-.0454-.43-.1135-.611.0227-.113.0454-.271-.0681-.43-.4541-.565-1.5893-.588-2.1796-.203-.4767.316-.2043.543-.3405 1.018-.0908.271 0 .52.1816.724.0227.158.4995.452.4087.769-.0908.339-.6357.407-.6357.407-.0681.023-.1135.046-.159.068-.8627.498-1.7027 1.222-1.8163 1.991.0454.634 1.0444 1.561 1.6801 2.059.0908 1.086.772 2.737.8174 2.805.0908.204-.2044-.158-.8855-.384-.3405-.113-.7719-.566-.8854-.023-.0454.226.0454.611-.159 1.109-.1589.362.0227.95.4314.95.2952 0 .4768-.905.4768-.905s1.4303.701 2.1114.475c.4087-.136.4995-1.719.0909-3.145-.1363-.497.2497.815 1.2033 1.946.2043.249.0227.452.1589 1.403.0454.362.0454.452.0454.611-.0227.452-.4541.995.5448 1.244 1.022.271.931.498 1.567.068.295-.181-.886-.317-1.113-.996 0-.022-.023-.113-.023-.158-.022-.543.228-1.787.137-2.24-.364-2.149-1.2717-3.145-1.3852-3.642 0-1.494-.1136-1.969.0227-1.629.0227.067.3405.588.6584.995.0227.045.0681.091.1131.136.091.113.182.203.273.249.636.543 1.635 1.199 1.771 1.335 0 0 .068.656.34.61.25-.045 1.453-.565 1.431-.701-.046-.181-1.226-.181-1.249-.226Zm-6.5388-.815c-.1816-.339-.6811-.995-.6357-1.108.2725-.453.5676-.589.6584-.566.0681.023-.0227 1.674-.0227 1.674Z"/><path d="M122.466 139.231c-.045-.023-.749-.294-1.385-1.29-.272-.452-2.383-4.321-2.656-5.068-.568-1.493-4.995-4.185-5.176-4.344-.137-.113-.114-.362-.068-.543.363-1.267.227-2.375.295-2.556.181-.43.454-1.041.249-1.448l-.454-.724s2.339.837 2.884.724c.476-.091 2.815-1.72 2.951-1.788.318-.158 1.113.068 1.907-.791.295-.317.091-.43.023-.385.023-.023-.136-.158-.272-.068-.182.113-.84.294-.727.204.477-.362.136-.453.136-.453-.204.181-1.135.407-1.339.566-.205.181-.364.317-.454.384-.568.317-1.544.792-2.52 1.019-.205.045-2.066-1.177-3.156-1.335-.591-.091-.795-.046-1.113.045-.386.113-.363-.453-.068-.588.159-.068.409-.113.5-.294.113-.227-.023-.43-.023-.475 0-.023.023-.046-.023-.136-.023-.068-.023-.023-.023-.091 0-.045-.022-.09-.045-.135 0-.023 0-.114.023-.136.227-.181.136-.272.091-.294-.069-.068-.409-.204-.432-.43-.045-.362-.181-.543-.227-.724-.023-.068-.068-.498-.25-.656-.227-.204-.703-.453-1.748-.181-.34.09-.272.249-1.09.407-.998.181-1.543 1.652-1.453 2.262.069.498.5.249.477.475-.022.34-.068.905.659 1.109.159.045 1.112-.113 1.475-.045 0 0 .296.022.137.317-.069.135-1.022.52-1.272.61-.613.249-2.225 2.874-2.702 3.123-.408.203-.658.362-.817.475-.658.407-1.294.927-1.657.905-.477-.023-.863.203-1.181.905-.091.203-.045.316.136.362.068.068.159.158.295.158.137.136.296.045.432-.023.363-.203.454-.362.59-.407.363-.113 2.498-.95 2.974-1.312.727-.385 2.18-1.878 2.498-1.9.295-.023 1.021.633.794 1.9-.068.43-.613 1.199-.908 1.652-.59.882-.136 1.674-.249 1.855-.613.995-1.363 2.33-2.634 3.461-.5.317-1.521.385-2.089.543-1.271.362-2.611 1.267-3.564 1.81-.3182.181-.6134-.203-1.0221-.249-.3859-.045-.4313.566-.6357 1.109-.0681.158-.0908.249-.3859.928-.1135.271-.4314 1.063-.1135 1.402.2951.408.9762-.859 1.5211-1.47.2725-.317.4541-.43 1.0671-.566.386-.09 3.496-.928 5.54-1.38.045 0 .113-.023.159-.045 2.656-.679 5.403-4.141 5.449-4.118l4.518 2.217c.454.249.454 1.109.999 2.127.317.611.794 1.131 2.724 3.009.25.249.045.634.159 1.018.114.407.318.407.681.385.341-.023.636-.091.976-.113.432-.023.318.022.818.09.249.045.794.113 1.203-.271.704-.747-.727-.385-1.408-.724Z"/><path d="M117.585 137.285c-.068-.136-.227-.181-.363-.113-1.93.973-4.087 1.493-6.266 1.493-2.43 0-4.814-.633-6.902-1.833-.137-.067-.295-.022-.386.091-.068.136-.023.294.091.385 2.179 1.244 4.654 1.9 7.174 1.9 2.27 0 4.518-.543 6.516-1.561.159-.068.204-.226.136-.362ZM98.0826 119.299c-.0454 0-.0681 0-.1135-.023-.1362-.068-.2043-.226-.1362-.362 1.2487-2.715 3.2691-4.955 5.8571-6.471.137-.067.296-.022.386.091.069.136.023.294-.09.385-2.498 1.448-4.4503 3.597-5.6309 6.221-.0682.113-.159.159-.2725.159ZM121.536 115.792c-.068 0-.159-.023-.205-.09-2.179-2.467-5.176-4.073-8.423-4.525-.159-.023-.25-.159-.227-.317.023-.158.159-.249.318-.226 3.383.475 6.493 2.149 8.764 4.706.091.113.091.294-.023.384-.068.045-.136.068-.204.068Z"/></g><rect width="162" height="20" x="190" y="225" fill="#CED9EB" opacity=".5" rx="10"/><rect width="115" height="20" x="90" y="186" fill="#CED9EB" opacity=".5" rx="10"/><rect width="116" height="20" x="213" y="186" fill="#CED9EB" opacity=".5" rx="10"/><rect width="115" height="20" x="337" y="186" fill="#CED9EB" opacity=".5" rx="10"/><path stroke="#E4E4E4" d="M90 165.5h362"/><defs><clipPath id="a"><path fill="#fff" d="M90 105h132v40H90z"/></clipPath></defs></svg>