<svg xmlns="http://www.w3.org/2000/svg" width="541" height="357" fill="none"><path fill="#E7ECF5" d="M0 0h541v357H0z"/><path fill="#fff" d="M63 88h415v181H63z"/><g clip-path="url(#a)"><path fill="#034EA2" d="M158.235 149c-1.407 0-2.235 1.25-2.235 2.667V206.5c0 1.417.828 2.5 2.235 2.5h225.448c1.407 0 2.317-1.083 2.317-2.5v-54.833c0-1.417-.91-2.667-2.317-2.667H158.235Z"/><path fill="#fff" d="M171 166.186v26.961l23.96 13.52 24.04-13.52v-26.961l-24.04-13.519L171 166.186Z"/><path fill="#034EA2" d="m207.722 179.625-6.857-11.849L195 157.667v44l19-11.021-6.278-11.021Z"/><path fill="#0069CC" d="m200.865 167.795 6.857 11.872L214 168.708l-7.683-4.483-5.452 3.57Z"/><path fill="#ED1C24" d="M206.317 164.225 195 157.667l5.865 10.128 5.452-3.57Z"/><path fill="#0069CC" d="M200.865 167.795 195 157.667l5.865 10.128Z"/><path fill="#ED1C24" d="M214 190.708v-22l-6.278 10.959L214 190.708Z"/><path fill="#0069CC" d="m182.361 179.625 6.856-11.849L195 157.667v44l-19-11.021 6.361-11.021Z"/><path fill="#ED1C24" d="m189.217 167.795-6.856 11.872L176 168.708l7.683-4.483 5.534 3.57Z"/><path fill="#034EA2" d="M183.683 164.225 195 157.667l-5.783 10.128-5.534-3.57ZM176 190.708v-22l6.361 10.959L176 190.708ZM200.246 181.877c.339 0 .677-.085 1.016 0 .253.085.592.085.592.17-.085.51-.846.595-1.185 1.105h-.169c-.169.085-.085.425-.254.425-.169-.085-.338 0-.592.085.254.255.592.425.931.34.084 0 .169.085.169.255 0 0 .085 0 .085-.085.084 0 .084 0 .084.085v.255c-.169.255-.508.17-.761.17.507.085 1.015.085 1.438 0 .339-.17 0-.765.254-1.02-.085 0 0-.17-.169-.17.084-.085.254-.34.338-.34.085 0 .339-.085.339-.17s-.254-.17-.17-.34c.339-.255.677-.595.508-1.02-.085-.17-.592-.17-.846-.255-.339-.085-.677 0-1.015.085-.339 0-.593.17-.931.255-.423.17-.762.425-1.185.68.592-.255 1.016-.34 1.523-.51Z"/><path fill="#fff" d="M206.232 185.436c-.17-.336-.426-.588-.682-.925-.256-.42-.597-.757-.682-1.261-.171-.505 0-.925 0-1.43 0-.925-.256-1.85-.512-2.691-.17-.42-.256-.925-.426-1.345-.085-.253-.171-.505-.341-.757-.085-.084-.085-.336 0-.421.256-.168.511-.42.682-.588.17-.337 0-.757-.256-.925-.426-.168-.341.42-.682.588h-.171c-.085-.168.086-.252.171-.336 0-.084 0-.168-.085-.168-.256 0-.512-.084-.597-.168-.682-.841-1.535-1.262-2.473-1.598.256.084.512.084.767.084.427.084.938 0 1.279-.168.342-.168.342-.589.427-.925.085-.084 0-.168 0-.337 0-.168-.171-.336-.256-.504 0 0-.085-.084-.171-.253-.682-.756-3.325-2.943-8.271-2.606-2.132.168-4.775.756-7.845 2.27-.085 0-.17.084-.341.084-.511.252-1.193.673-1.62 1.178-.511.588-.938 1.261-1.108 2.018-.768.504-1.279 1.261-1.706 2.018-.511 1.009-1.194 1.85-1.194 2.943v.169c.086.336.086.588.171.925.171.672.341 1.345.426 2.018.086.336.171.673.256 1.009.171.336 0 .757.256 1.093.085.168.085.421.341.505v.252c.085.084.085.084.171.084v.252c.511.589 1.108 1.094 1.449 1.766.171.337-.597.169-.938.085-.597-.253-1.023-.757-1.535-1.178l-.085.084c.256.421 1.194.925.682 1.262-.256.168-.597-.168-.767.084-.085.084 0 .252 0 .336-.341-.252-.768-.084-1.109-.252-.256-.084-.341-.505-.597-.505-.767-.168-1.534-.336-2.387-.336h-.171c-.767-.084-1.535-.168-2.217-.084v.841c.682-.168 1.365-.337 2.047-.337h.17c.171 0 .427-.084.597 0-.256 0-.597 0-.853.085-.682.084-1.364.336-2.046.588v.841c.341.084.767.084 1.109.168.426.084.852.169 1.279.337.596.168 1.023.42 1.534.672.256.169.342.337.597.505.341.168.768.168 1.024 0h.341c.938-.252 1.876-.505 2.472-1.261 0 .084.086.084.086.084-.171.504-.171 1.009-.512 1.513 0 .085-.085.169.085.253h.086c-.086 0-.086 0-.086.084s.171 0 .256.084c-.341.084-.597.168-.767.42 0 .084.085.084.17.084-.085.085-.341.085-.341.169l.086.084c-.086 0-.086 0-.086.084v.168c-.17 0-.256.168-.341.168.256.168.427 0 .682 0-.682.253-1.193.673-1.876.841-.085 0 0 .168-.085.168.171.084.341-.084.512-.084-.341.253-.682.421-1.024.589l2.047 1.177c.853-.504 1.62-1.093 2.302-1.85l.086.084c-.171.589-.512 1.009-1.024 1.43-.341.168-.597.504-.852.589l1.534.84c.342-.252.597-.42 1.024-.588.085 0 .17.084.341.084.511-.505 1.108-1.093 1.961-.925 0 .084 0 .084.085.084 0 0 .086 0 .086-.084 0 .084 0 .084-.086.084-.256.168-.426.336-.682.505-.085.084 0 .084.085.084.341-.169.512-.337.768-.505-.085.084-.085.168-.085.252-.768.589-1.365 1.178-1.962 1.85l8.101 4.626c.256-.337.597-.841.938-1.262 1.535-2.186 3.752-5.13 4.434-5.802.256-.169.512-.169.853-.253 1.023 0 2.131.253 3.155.337.085 0 .256.084.341.084.341.084.767 0 1.194-.084.426-.168.938-.421 1.108-.925.171-.421.256-.925 0-1.346-.426-.504.341-.757.597-1.093.171-.336-.171-.505-.171-.757-.085-.084-.341-.084-.426-.252.426-.168 1.109-.589.768-1.093-.171-.337-.512-.757-.171-1.094.426-.252 1.109-.252 1.279-.672.512-.841-.256-1.43-.597-2.019Zm-2.643-3.027c-.085.084.17.168.17.336-.085.084-.255.169-.341.169-.085.084-.256.252-.341.336.085 0 0 .168.171.168-.256.336.17.925-.256 1.009-.426.168-.938.168-1.45 0 .256-.084.597.084.768-.168v-.252c0-.084-.086-.084-.086-.084l-.085.084c0-.084-.17-.253-.17-.253-.341.085-.683-.084-.938-.336.17-.084.341-.168.597-.084.17 0 .085-.336.255-.42h.171c.341-.505 1.108-.673 1.194-1.094 0-.084-.341-.084-.597-.168-.341-.084-.682 0-1.023 0-.512.168-.938.168-1.365.421.341-.253.768-.505 1.194-.673.341-.084.597-.252.938-.252.341-.085.767-.169 1.023-.085.341.085.768.085.853.253-.085.504-.341.841-.682 1.093Z"/></g><rect width="145" height="19" x="230" y="157" fill="#CED9EB" opacity=".5" rx="9.5"/><rect width="145" height="19" x="230" y="182" fill="#CED9EB" opacity=".5" rx="9.5"/><defs><clipPath id="a"><path fill="#fff" d="M156 149h230v60H156z"/></clipPath></defs></svg>