<svg width="541" height="357" viewBox="0 0 541 357" fill="none" xmlns="http://www.w3.org/2000/svg">
<rect width="541" height="357" fill="#E7ECF5"/>
<rect x="63" y="88" width="415" height="181" fill="white"/>
<g clip-path="url(#clip0_178_105377)">
<path d="M158.235 149C156.828 149 156 150.25 156 151.667V206.5C156 207.917 156.828 209 158.235 209H383.683C385.09 209 386 207.917 386 206.5V151.667C386 150.25 385.09 149 383.683 149H194.32H158.235Z" fill="#034EA2"/>
<path d="M171 166.186V193.147L194.96 206.667L219 193.147V166.186L194.96 152.667L171 166.186Z" fill="white"/>
<path d="M207.722 179.625L200.865 167.776L195 157.667V171.505V201.667L214 190.646L207.722 179.625Z" fill="#034EA2"/>
<path d="M200.865 167.795L207.722 179.667L214 168.708L206.317 164.225L200.865 167.795Z" fill="#0069CC"/>
<path d="M206.317 164.225L195 157.667L200.865 167.795L206.317 164.225Z" fill="#ED1C24"/>
<path d="M200.865 167.795L195 157.667L200.865 167.795Z" fill="#0069CC"/>
<path d="M214 190.708V168.708L207.722 179.667L214 190.708Z" fill="#ED1C24"/>
<path d="M182.361 179.625L189.217 167.776L195 157.667V171.505V201.667L176 190.646L182.361 179.625Z" fill="#0069CC"/>
<path d="M189.217 167.795L182.361 179.667L176 168.708L183.683 164.225L189.217 167.795Z" fill="#ED1C24"/>
<path d="M183.683 164.225L195 157.667L189.217 167.795L183.683 164.225Z" fill="#034EA2"/>
<path d="M176 190.708V168.708L182.361 179.667L176 190.708Z" fill="#034EA2"/>
<path d="M200.246 181.877C200.585 181.877 200.923 181.792 201.262 181.877C201.515 181.962 201.854 181.962 201.854 182.047C201.769 182.557 201.008 182.642 200.669 183.152C200.585 183.152 200.585 183.152 200.5 183.152C200.331 183.237 200.415 183.577 200.246 183.577C200.077 183.492 199.908 183.577 199.654 183.662C199.908 183.917 200.246 184.087 200.585 184.002C200.669 184.002 200.754 184.087 200.754 184.257C200.754 184.257 200.839 184.257 200.839 184.172C200.923 184.172 200.923 184.172 200.923 184.257C200.923 184.342 200.923 184.427 200.923 184.512C200.754 184.767 200.415 184.682 200.162 184.682C200.669 184.767 201.177 184.767 201.6 184.682C201.939 184.512 201.6 183.917 201.854 183.662C201.769 183.662 201.854 183.492 201.685 183.492C201.769 183.407 201.939 183.152 202.023 183.152C202.108 183.152 202.362 183.067 202.362 182.982C202.362 182.897 202.108 182.812 202.192 182.642C202.531 182.387 202.869 182.047 202.7 181.622C202.615 181.452 202.108 181.452 201.854 181.367C201.515 181.282 201.177 181.367 200.839 181.452C200.5 181.452 200.246 181.622 199.908 181.707C199.485 181.877 199.146 182.132 198.723 182.387C199.315 182.132 199.739 182.047 200.246 181.877Z" fill="#034EA2"/>
<path d="M206.232 185.436C206.062 185.1 205.806 184.848 205.55 184.511C205.294 184.091 204.953 183.754 204.868 183.25C204.697 182.745 204.868 182.325 204.868 181.82C204.868 180.895 204.612 179.97 204.356 179.129C204.186 178.709 204.1 178.204 203.93 177.784C203.845 177.531 203.759 177.279 203.589 177.027C203.504 176.943 203.504 176.691 203.589 176.606C203.845 176.438 204.1 176.186 204.271 176.018C204.441 175.681 204.271 175.261 204.015 175.093C203.589 174.925 203.674 175.513 203.333 175.681C203.248 175.681 203.248 175.681 203.162 175.681C203.077 175.513 203.248 175.429 203.333 175.345C203.333 175.261 203.333 175.177 203.248 175.177C202.992 175.177 202.736 175.093 202.651 175.009C201.969 174.168 201.116 173.747 200.178 173.411C200.434 173.495 200.69 173.495 200.945 173.495C201.372 173.579 201.883 173.495 202.224 173.327C202.566 173.159 202.566 172.738 202.651 172.402C202.736 172.318 202.651 172.234 202.651 172.065C202.651 171.897 202.48 171.729 202.395 171.561C202.395 171.561 202.31 171.477 202.224 171.308C201.542 170.552 198.899 168.365 193.953 168.702C191.821 168.87 189.178 169.458 186.108 170.972C186.023 170.972 185.938 171.056 185.767 171.056C185.256 171.308 184.574 171.729 184.147 172.234C183.636 172.822 183.209 173.495 183.039 174.252C182.271 174.756 181.76 175.513 181.333 176.27C180.822 177.279 180.139 178.12 180.139 179.213C180.139 179.297 180.139 179.382 180.139 179.382C180.225 179.718 180.225 179.97 180.31 180.307C180.481 180.979 180.651 181.652 180.736 182.325C180.822 182.661 180.907 182.998 180.992 183.334C181.163 183.67 180.992 184.091 181.248 184.427C181.333 184.595 181.333 184.848 181.589 184.932C181.589 185.016 181.589 185.1 181.589 185.184C181.674 185.268 181.674 185.268 181.76 185.268C181.76 185.352 181.76 185.436 181.76 185.52C182.271 186.109 182.868 186.614 183.209 187.286C183.38 187.623 182.612 187.455 182.271 187.371C181.674 187.118 181.248 186.614 180.736 186.193L180.651 186.277C180.907 186.698 181.845 187.202 181.333 187.539C181.077 187.707 180.736 187.371 180.566 187.623C180.481 187.707 180.566 187.875 180.566 187.959C180.225 187.707 179.798 187.875 179.457 187.707C179.201 187.623 179.116 187.202 178.86 187.202C178.093 187.034 177.326 186.866 176.473 186.866C176.388 186.866 176.302 186.866 176.302 186.866C175.535 186.782 174.767 186.698 174.085 186.782V187.623C174.767 187.455 175.45 187.286 176.132 187.286C176.217 187.286 176.302 187.286 176.302 187.286C176.473 187.286 176.729 187.202 176.899 187.286C176.643 187.286 176.302 187.286 176.046 187.371C175.364 187.455 174.682 187.707 174 187.959V188.8C174.341 188.884 174.767 188.884 175.109 188.968C175.535 189.052 175.961 189.137 176.388 189.305C176.984 189.473 177.411 189.725 177.922 189.977C178.178 190.146 178.264 190.314 178.519 190.482C178.86 190.65 179.287 190.65 179.543 190.482C179.628 190.482 179.798 190.482 179.884 190.482C180.822 190.23 181.76 189.977 182.356 189.221C182.356 189.305 182.442 189.305 182.442 189.305C182.271 189.809 182.271 190.314 181.93 190.818C181.93 190.903 181.845 190.987 182.015 191.071C182.101 191.071 182.101 191.071 182.101 191.071C182.015 191.071 182.015 191.071 182.015 191.155C182.015 191.239 182.186 191.155 182.271 191.239C181.93 191.323 181.674 191.407 181.504 191.659C181.504 191.743 181.589 191.743 181.674 191.743C181.589 191.828 181.333 191.828 181.333 191.912L181.419 191.996C181.333 191.996 181.333 191.996 181.333 192.08C181.333 192.164 181.333 192.164 181.333 192.248C181.163 192.248 181.077 192.416 180.992 192.416C181.248 192.584 181.419 192.416 181.674 192.416C180.992 192.669 180.481 193.089 179.798 193.257C179.713 193.257 179.798 193.425 179.713 193.425C179.884 193.509 180.054 193.341 180.225 193.341C179.884 193.594 179.543 193.762 179.201 193.93L181.248 195.107C182.101 194.603 182.868 194.014 183.55 193.257L183.636 193.341C183.465 193.93 183.124 194.35 182.612 194.771C182.271 194.939 182.015 195.275 181.76 195.36L183.294 196.2C183.636 195.948 183.891 195.78 184.318 195.612C184.403 195.612 184.488 195.696 184.659 195.696C185.17 195.191 185.767 194.603 186.62 194.771C186.62 194.855 186.62 194.855 186.705 194.855C186.705 194.855 186.791 194.855 186.791 194.771C186.791 194.855 186.791 194.855 186.705 194.855C186.449 195.023 186.279 195.191 186.023 195.36C185.938 195.444 186.023 195.444 186.108 195.444C186.449 195.275 186.62 195.107 186.876 194.939C186.791 195.023 186.791 195.107 186.791 195.191C186.023 195.78 185.426 196.369 184.829 197.041L192.93 201.667C193.186 201.33 193.527 200.826 193.868 200.405C195.403 198.219 197.62 195.275 198.302 194.603C198.558 194.434 198.814 194.434 199.155 194.35C200.178 194.35 201.286 194.603 202.31 194.687C202.395 194.687 202.566 194.771 202.651 194.771C202.992 194.855 203.418 194.771 203.845 194.687C204.271 194.519 204.783 194.266 204.953 193.762C205.124 193.341 205.209 192.837 204.953 192.416C204.527 191.912 205.294 191.659 205.55 191.323C205.721 190.987 205.379 190.818 205.379 190.566C205.294 190.482 205.038 190.482 204.953 190.314C205.379 190.146 206.062 189.725 205.721 189.221C205.55 188.884 205.209 188.464 205.55 188.127C205.976 187.875 206.659 187.875 206.829 187.455C207.341 186.614 206.573 186.025 206.232 185.436ZM203.589 182.409C203.504 182.493 203.759 182.577 203.759 182.745C203.674 182.829 203.504 182.914 203.418 182.914C203.333 182.998 203.162 183.166 203.077 183.25C203.162 183.25 203.077 183.418 203.248 183.418C202.992 183.754 203.418 184.343 202.992 184.427C202.566 184.595 202.054 184.595 201.542 184.427C201.798 184.343 202.139 184.511 202.31 184.259C202.31 184.175 202.31 184.091 202.31 184.007C202.31 183.923 202.224 183.923 202.224 183.923C202.139 184.007 202.139 184.007 202.139 184.007C202.139 183.923 201.969 183.754 201.969 183.754C201.628 183.839 201.286 183.67 201.031 183.418C201.201 183.334 201.372 183.25 201.628 183.334C201.798 183.334 201.713 182.998 201.883 182.914C201.969 182.914 201.969 182.914 202.054 182.914C202.395 182.409 203.162 182.241 203.248 181.82C203.248 181.736 202.907 181.736 202.651 181.652C202.31 181.568 201.969 181.652 201.628 181.652C201.116 181.82 200.69 181.82 200.263 182.073C200.604 181.82 201.031 181.568 201.457 181.4C201.798 181.316 202.054 181.148 202.395 181.148C202.736 181.063 203.162 180.979 203.418 181.063C203.759 181.148 204.186 181.148 204.271 181.316C204.186 181.82 203.93 182.157 203.589 182.409Z" fill="white"/>
</g>
<rect opacity="0.5" x="230" y="157" width="145" height="19" rx="9.5" fill="#CED9EB"/>
<rect opacity="0.5" x="230" y="182" width="145" height="19" rx="9.5" fill="#CED9EB"/>
<defs>
<clipPath id="clip0_178_105377">
<rect width="230" height="60" fill="white" transform="translate(156 149)"/>
</clipPath>
</defs>
</svg>
