<svg xmlns="http://www.w3.org/2000/svg" width="541" height="357" fill="none" viewBox="0 0 541 357">
  <g clip-path="url(#a)">
    <path fill="#E7ECF5" d="M0 0h541v357H0z"/>
    <g filter="url(#b)">
      <g clip-path="url(#c)">
        <path fill="#E2E7EE" d="M62 60h780v56H62z"/>
        <path fill="#ED6A5E" fill-rule="evenodd" d="M92 94a6 6 0 1 0 0-12 6 6 0 0 0 0 12Z" clip-rule="evenodd"/>
        <path fill="#F4BF4F" fill-rule="evenodd" d="M112 94a6 6 0 1 0 0-12 6 6 0 0 0 0 12Z" clip-rule="evenodd"/>
        <path fill="#61C554" fill-rule="evenodd" d="M132 94a6 6 0 1 0 0-12 6 6 0 0 0 0 12Z" clip-rule="evenodd"/>
        <path fill="#F6F8FC" d="M62 116h780v344H62z"/>
      </g>
    </g>
    <g clip-path="url(#d)">
      <path fill="#fff" d="M62 117h1440v168H62z"/>
      <path fill="#fff" d="M62 117h1440v120H62z"/>
      <path fill="#0C419A" d="M187.176 200.349h1.34l2.099 6.479h-1.23l-.978-3.439a36.719 36.719 0 0 1-.579-2.135h-.036c-.181.724-.362 1.448-.579 2.135l-1.014 3.439h-1.158l2.135-6.479Zm-.868 3.837h3.04v.905h-3.04v-.905Zm4.995 3.547c0-.398.254-.76.688-1.05v-.036c-.253-.145-.434-.434-.434-.796 0-.362.253-.724.543-.905v-.037c-.326-.253-.652-.724-.652-1.303 0-1.122.905-1.737 1.919-1.737.253 0 .506.036.723.108h1.738v.833h-.905c.145.181.29.47.29.832 0 1.086-.833 1.666-1.846 1.666-.218 0-.435-.037-.652-.145-.145.108-.253.253-.253.47 0 .29.181.435.796.435h.869c1.158 0 1.773.362 1.773 1.194 0 .978-1.013 1.738-2.606 1.738-1.122 0-1.991-.398-1.991-1.267Zm3.548-.253c0-.362-.29-.471-.869-.471h-.652c-.253 0-.47-.036-.651-.072a.811.811 0 0 0-.362.651c0 .435.47.688 1.23.688.761 0 1.304-.362 1.304-.796Zm-.616-3.874c0-.615-.362-.977-.832-.977-.471 0-.833.362-.833.977 0 .616.362.978.833.978.47 0 .832-.362.832-.978Zm2.788-3.149c0-.398.289-.651.724-.651.398 0 .724.253.724.651 0 .362-.29.652-.724.652-.399 0-.724-.254-.724-.652Zm.144 1.521h1.159v4.886h-1.159v-4.886Zm2.932-.001h.942l.072.869h.036c.362-.652.869-.977 1.376-.977.253 0 .398.036.543.108l-.181.978c-.181-.037-.29-.073-.507-.073-.398 0-.869.254-1.158 1.014v2.968h-1.159v-4.887h.036Zm6.046 2.426c0-1.593 1.086-2.57 2.244-2.57 1.303 0 2.027.941 2.027 2.316 0 .218-.036.435-.036.543h-3.113c.108.869.651 1.376 1.448 1.376.434 0 .76-.145 1.122-.362l.398.724c-.47.326-1.05.543-1.665.543-1.376 0-2.425-.941-2.425-2.57Zm3.294-.471c0-.76-.326-1.194-1.014-1.194-.579 0-1.086.434-1.158 1.194h2.172Zm2.389-1.955h.941l.073.652h.036c.434-.434.941-.796 1.593-.796 1.049 0 1.484.724 1.484 1.954v3.041h-1.159v-2.896c0-.796-.217-1.122-.76-1.122-.434 0-.724.217-1.122.615v3.403h-1.158v-4.851h.072Zm5.43 4.308.543-.724c.434.326.869.543 1.339.543.543 0 .796-.253.796-.579 0-.398-.543-.579-1.049-.797-.652-.253-1.376-.615-1.376-1.411 0-.833.688-1.448 1.774-1.448.688 0 1.231.289 1.629.579l-.507.688c-.326-.254-.688-.435-1.086-.435-.507 0-.724.217-.724.543 0 .398.507.543 1.014.724.651.254 1.411.579 1.411 1.484 0 .833-.651 1.521-1.882 1.521-.688 0-1.412-.29-1.882-.688Zm4.778-1.882c0-1.593 1.086-2.57 2.244-2.57 1.304 0 2.028.941 2.028 2.316 0 .218-.037.435-.037.543h-3.113c.109.869.652 1.376 1.448 1.376.435 0 .76-.145 1.122-.362l.399.724a2.95 2.95 0 0 1-1.666.543c-1.375 0-2.425-.941-2.425-2.57Zm3.258-.471c0-.76-.326-1.194-1.014-1.194-.579 0-1.085.434-1.158 1.194h2.172Zm2.425-1.955h.942l.072.652h.036c.398-.434.869-.796 1.484-.796.724 0 1.122.325 1.34.868.47-.506.941-.868 1.556-.868 1.014 0 1.521.724 1.521 1.954v3.041h-1.159v-2.896c0-.796-.253-1.122-.76-1.122-.326 0-.652.181-1.014.615v3.403h-1.158v-2.896c0-.796-.253-1.122-.76-1.122-.29 0-.652.181-1.014.615v3.403h-1.158v-4.851h.072Zm9.738 4.381-.145.506h-.905v-7.022h1.159v1.81l-.037.796c.399-.362.905-.615 1.412-.615 1.231 0 1.919.977 1.919 2.461 0 1.665-1.014 2.643-2.1 2.643-.398.036-.869-.181-1.303-.579Zm2.244-1.991c0-.978-.326-1.557-1.049-1.557-.362 0-.688.181-1.05.543v2.281c.326.289.688.398.977.398.615 0 1.122-.579 1.122-1.665Zm2.607 1.23v-5.755h1.158v5.828c0 .289.145.398.253.398.037 0 .109 0 .181-.036l.145.869c-.145.072-.326.108-.615.108-.833-.036-1.122-.579-1.122-1.412Zm2.715-1.194c0-1.593 1.086-2.57 2.244-2.57 1.303 0 2.027.941 2.027 2.316 0 .217-.036.435-.036.543h-3.113c.108.869.651 1.376 1.448 1.376.434 0 .76-.145 1.122-.362l.398.724c-.47.326-1.05.543-1.665.543-1.376 0-2.425-.941-2.425-2.57Zm3.258-.471c0-.76-.326-1.195-1.014-1.195-.579 0-1.086.435-1.158 1.195h2.172Zm3.113 1.485c-.435 0-.761.289-.761.687 0 .471.362.688.724.688h.073c0 .507-.362.977-1.014 1.195l.254.615c.977-.326 1.556-1.086 1.556-2.063 0-.688-.289-1.122-.832-1.122Zm4.814-3.44h.941l.073.507h.036c.398-.362.941-.651 1.484-.651 1.231 0 1.919.977 1.919 2.497 0 1.665-1.014 2.643-2.1 2.643-.434 0-.869-.181-1.267-.543l.036.796v1.521h-1.158v-6.77h.036Zm3.258 2.39c0-.978-.326-1.557-1.05-1.557-.362 0-.688.181-1.05.543v2.28c.362.29.688.399.978.399.615 0 1.122-.58 1.122-1.665Zm2.643-2.39h.941l.072.869h.036c.362-.652.869-.977 1.376-.977.253 0 .398.036.543.108l-.181.978c-.181-.037-.29-.073-.507-.073-.398 0-.869.254-1.158 1.014v2.968h-1.158v-4.887h.036Zm3.438 2.426c0-1.629 1.123-2.57 2.317-2.57 1.195 0 2.317.941 2.317 2.57s-1.122 2.57-2.317 2.57c-1.194 0-2.317-.941-2.317-2.57Zm3.439 0c0-.978-.434-1.629-1.158-1.629s-1.158.651-1.158 1.629c0 .977.434 1.629 1.158 1.629s1.158-.652 1.158-1.629Zm2.643.796v-2.316h-.688v-.869l.76-.036.145-1.34h.941v1.34h1.231v.905h-1.231v2.316c0 .579.218.869.688.869.181 0 .362-.072.507-.109l.181.833c-.254.072-.616.181-1.014.181-1.086 0-1.52-.724-1.52-1.774Zm3.294-.796c0-1.593 1.086-2.57 2.244-2.57 1.303 0 2.027.941 2.027 2.316 0 .218-.036.435-.036.543h-3.113c.109.869.652 1.376 1.448 1.376.435 0 .76-.145 1.122-.362l.398.724a2.944 2.944 0 0 1-1.665.543c-1.375 0-2.425-.941-2.425-2.57Zm3.258-.471c0-.76-.326-1.194-1.014-1.194-.579 0-1.086.434-1.158 1.194h2.172Zm-1.629-3.33 1.448-1.738.796.76-1.665 1.521-.579-.543Zm3.656 7.131c0-.398.254-.76.688-1.05v-.036c-.253-.145-.434-.434-.434-.796 0-.362.253-.724.543-.905v-.037c-.326-.253-.652-.724-.652-1.303 0-1.122.905-1.737 1.919-1.737.253 0 .506.036.724.108h1.737v.833h-.905c.145.181.29.47.29.832 0 1.086-.833 1.666-1.846 1.666-.218 0-.435-.037-.652-.145-.145.108-.253.253-.253.47 0 .29.181.435.796.435h.869c1.158 0 1.774.362 1.774 1.194 0 .978-1.014 1.738-2.607 1.738-1.122 0-1.991-.398-1.991-1.267Zm3.548-.253c0-.362-.29-.471-.869-.471h-.652c-.253 0-.47-.036-.651-.072a.811.811 0 0 0-.362.651c0 .435.47.688 1.231.688.76 0 1.303-.362 1.303-.796Zm-.616-3.874c0-.615-.362-.977-.832-.977-.471 0-.833.362-.833.977 0 .616.362.978.833.978.47 0 .832-.362.832-.978Zm2.389.797c0-1.593 1.086-2.57 2.245-2.57 1.303 0 2.027.941 2.027 2.316 0 .218-.036.435-.036.543h-3.113c.108.869.651 1.376 1.448 1.376.434 0 .76-.145 1.122-.362l.398.724a2.95 2.95 0 0 1-1.665.543c-1.376 0-2.426-.941-2.426-2.57Zm3.258-.471c0-.76-.325-1.194-1.013-1.194-.579 0-1.086.434-1.159 1.194h2.172Zm2.426-1.955h.941l.072.869h.036c.362-.652.869-.977 1.376-.977.253 0 .398.036.543.108l-.181.978c-.181-.037-.29-.073-.507-.073-.398 0-.869.254-1.158 1.014v2.968h-1.158v-4.887h.036Zm6.045 2.426c0-1.629 1.158-2.57 2.461-2.57.616 0 1.086.253 1.412.543l-.543.76c-.253-.217-.507-.362-.796-.362-.797 0-1.34.651-1.34 1.629 0 .977.543 1.629 1.304 1.629.398 0 .724-.181 1.013-.435l.471.76c-.471.399-1.05.616-1.593.616-1.376 0-2.389-.941-2.389-2.57Zm5.213-4.561h1.158v1.81l-.036.941c.398-.398.905-.724 1.556-.724 1.05 0 1.484.724 1.484 1.955v3.04h-1.158v-2.896c0-.796-.217-1.122-.76-1.122-.435 0-.724.218-1.122.616v3.402h-1.159v-7.022h.037Zm5.538 5.683c0-1.05.869-1.593 2.86-1.81 0-.507-.218-.977-.869-.977-.471 0-.941.217-1.376.47l-.434-.76c.543-.326 1.231-.652 1.991-.652 1.231 0 1.81.761 1.81 2.1v2.896h-.905l-.073-.543h-.036c-.434.362-.941.651-1.52.651-.869.073-1.448-.506-1.448-1.375Zm2.86.036v-1.086c-1.34.181-1.774.507-1.774 1.014 0 .434.289.615.688.615.434-.036.724-.217 1.086-.543Zm2.497-1.158c0-1.629 1.159-2.57 2.462-2.57.615 0 1.086.253 1.412.543l-.543.76c-.254-.217-.507-.362-.797-.362-.796 0-1.339.651-1.339 1.629 0 .977.543 1.629 1.303 1.629.398 0 .724-.181 1.014-.435l.47.76c-.47.399-1.049.616-1.592.616-1.376 0-2.39-.941-2.39-2.57Zm5.141.615v-3.04h1.158v2.895c0 .797.217 1.123.76 1.123.435 0 .724-.181 1.086-.688v-3.33h1.159v4.886h-.941l-.073-.724h-.072c-.435.507-.905.833-1.557.833-1.05 0-1.52-.724-1.52-1.955Zm5.828-3.041h.941l.073.652h.036c.434-.434.941-.796 1.593-.796 1.049 0 1.484.723 1.484 1.954v3.041h-1.086v-2.896c0-.796-.217-1.122-.76-1.122-.435 0-.724.217-1.123.615v3.403h-1.158v-4.851Zm-203.041-24.723-.434-.399c.181-.217.325-.47.362-.724 0-.289-.109-.434-.254-.434-.181 0-.253.145-.362.434l-.181.399c-.145.289-.398.579-.832.579-.507-.036-.869-.471-.833-1.122 0-.362.181-.688.434-.942l.399.362c-.145.181-.254.362-.254.616 0 .217.073.398.254.398s.253-.181.362-.434l.181-.362c.181-.362.434-.58.832-.543.507.036.905.47.869 1.194-.072.254-.253.688-.543.978Zm-2.787-4.308-.507-.869.471-.29.434.905-.398.254Zm.362.687.289-1.882.58.072-.181 1.195.615.072.145-1.013.579.072-.145 1.014.688.108.181-1.23.579.072-.289 1.919-3.041-.399Zm1.918-2.642c-.977-.253-1.375-1.014-1.194-1.774.108-.362.362-.651.615-.796l.326.47c-.181.109-.326.254-.362.471-.109.398.181.796.76.941.615.145 1.014-.036 1.122-.47a.693.693 0 0 0-.145-.652l.507-.253c.217.325.29.687.181 1.049-.145.797-.832 1.267-1.81 1.014Zm.942-3.149-1.521-.58.254-.651 1.592.615c.543.217.797.109.942-.217.108-.326 0-.579-.543-.796l-1.593-.616.217-.615 1.52.579c.942.362 1.195.905.942 1.629-.29.76-.869.977-1.81.652Zm-.037-4.272.507-.977c.29-.579.724-.941 1.376-.616.615.326.651.905.325 1.485l-.181.361.978.507-.326.616-2.679-1.376Zm1.702-.289c.181-.326.108-.543-.145-.688-.254-.145-.435 0-.616.289l-.144.326.724.398.181-.325Zm.289.253-.181-.615 1.955-.073-.362.688h-1.412Zm-.253-3.222.362-.579 2.534 1.629-.362.579-2.534-1.629Zm1.918-1.81-.506.652-.471-.362 1.412-1.846.47.362-.506.651 1.954 1.484-.398.543-1.955-1.484Zm1.195-2.461 1.303-1.376.435.398-.833.869.434.398.688-.76.435.398-.688.761.507.47.868-.905.435.398-1.303 1.412-2.281-2.063Zm.072-.76.073-1.014.579.036-.181.978h-.471Zm4.996-.58.036-.615c.29 0 .579-.036.76-.217.217-.181.254-.362.145-.507-.109-.145-.29-.109-.579 0l-.398.108c-.326.109-.724.073-.978-.289-.289-.398-.181-.978.29-1.376a1.45 1.45 0 0 1 1.013-.289v.543c-.253 0-.434.036-.651.181-.181.144-.254.325-.145.434.109.145.326.072.579 0l.398-.109c.399-.108.724-.072.978.29.289.398.253.977-.326 1.448a1.44 1.44 0 0 1-1.122.398Zm1.846-2.896c-.507-.832-.326-1.629.362-2.027.688-.434 1.448-.217 1.955.615.507.833.326 1.629-.362 2.064-.652.398-1.448.181-1.955-.652Zm1.774-1.05c-.326-.506-.724-.687-1.086-.47-.362.217-.398.651-.073 1.158.326.507.724.724 1.086.507.326-.217.362-.688.073-1.195Zm1.448-.832c-.435-.905-.073-1.701.615-2.027a1.16 1.16 0 0 1 .977-.036l-.144.543a.795.795 0 0 0-.58 0c-.362.181-.506.651-.253 1.194.253.579.688.76 1.086.579a.697.697 0 0 0 .398-.507l.507.254c-.109.362-.326.651-.688.796-.688.326-1.484.109-1.918-.796Zm2.678-2.823.652-.218 1.05 2.824-.652.217-1.05-2.823Zm2.715-.905.797-.217 1.701 2.678-.688.181-.76-1.375a18.063 18.063 0 0 1-.47-.869c0 .326.036.688.036 1.013v1.593l-.688.181.072-3.185Zm.145 1.773 1.412-.362.145.507-1.412.362-.145-.507Zm2.679-2.461.688-.109.362 2.425 1.158-.181.073.579-1.847.29-.434-3.004Zm2.932-.398 1.882-.109.037.579-1.195.073.036.615 1.014-.072.036.579-1.013.072.036.688 1.267-.072.036.579-1.919.108-.217-3.04Zm70.299 44.923v-14.48h3.801v14.625c0 .832.362 1.086.687 1.086.145 0 .254 0 .471-.037l.471 2.86c-.435.181-1.05.326-1.919.326-2.606.036-3.511-1.738-3.511-4.38Zm-24.399-4.634c.326-1.049 3.729-8.543 3.729-8.543h4.018v17.267h-3.62v-10.678l-3.004 7.746h-2.317l-3.005-7.746v10.678h-3.62v-17.267h4.019s3.366 7.494 3.728 8.543h.072Zm31.385 5.068c0-2.751 2.317-4.307 7.421-4.85-.073-1.159-.797-1.847-2.208-1.847-1.086 0-2.172.471-3.403 1.195l-1.339-2.57c1.629-1.014 3.475-1.738 5.502-1.738 3.294 0 5.104 1.919 5.104 5.937v7.493h-3.62v-1.267s-1.484 1.593-3.584 1.593c-2.389.036-3.873-1.738-3.873-3.946Zm7.421-.217v-2.28c-2.715.362-3.765 1.23-3.765 2.208 0 .832.579 1.267 1.484 1.267.833-.037 1.593-.507 2.281-1.195Zm-28.416.217c0-2.751 2.316-4.307 7.42-4.85-.072-1.159-.796-1.847-2.208-1.847-1.086 0-2.172.471-3.402 1.195l-1.34-2.57c1.629-1.014 3.475-1.738 5.502-1.738 3.295 0 5.105 1.919 5.105 5.937v7.493h-3.62v-1.267s-1.485 1.593-3.584 1.593c-2.389.036-3.873-1.738-3.873-3.946Zm7.42-.217v-2.28c-2.715.362-3.764 1.23-3.764 2.208 0 .832.579 1.267 1.484 1.267.832-.037 1.593-.507 2.28-1.195Zm35.403-14.697v6.371c-.869-.832-1.737-1.267-3.149-1.267-2.715 0-5.321 2.607-5.321 6.878 0 4.308 2.063 6.878 5.248 6.878 1.738 0 3.114-1.303 3.222-1.412v1.122h3.801v-18.57h-3.801Zm-2.244 15.711c-1.484 0-2.353-1.159-2.353-3.729 0-2.498 1.086-3.656 2.317-3.656.687 0 1.448.217 2.28.833v5.393c-.76.833-1.412 1.159-2.244 1.159Zm8.977-14.227c0-1.194.941-2.027 2.208-2.027 1.267 0 2.208.833 2.208 2.027 0 1.195-.941 2.028-2.208 2.028-1.267 0-2.208-.869-2.208-2.028Zm.29 3.946h3.801v13.14h-3.801v-13.14Zm6.19 6.552c0-4.271 2.679-6.878 5.9-6.878 3.656 0 5.684 2.715 5.684 6.299 0 .688-.073 1.412-.145 1.738h-7.711c.326 1.918 1.629 2.787 3.331 2.787.977 0 1.81-.398 2.751-.941l1.303 2.425c-1.303.941-3.041 1.484-4.561 1.484-3.801 0-6.552-2.534-6.552-6.914Zm8.326-1.412c0-1.448-.833-2.497-2.353-2.497-1.195 0-2.027.832-2.281 2.497h4.634Zm-82.571-17.81v-14.479h3.801v14.624c0 .833.362 1.086.688 1.086.145 0 .253 0 .471-.036l.47 2.859c-.434.181-1.049.326-1.918.326-2.643 0-3.512-1.737-3.512-4.38Zm20.199-.036 1.05 4.127h3.946l-5.321-17.267h-4.38l-5.322 17.267h3.946l1.05-4.127h5.031Zm-4.235-3.041 1.665-6.552h.145l1.665 6.552h-3.475Zm9.991 5.647 1.702-2.425c1.158.905 2.244 1.375 3.33 1.375 1.122 0 1.629-.434 1.629-1.122 0-.869-1.267-1.267-2.606-1.773-1.593-.616-3.403-1.702-3.403-3.874 0-2.461 1.955-4.126 4.923-4.126 1.955 0 3.439.796 4.525 1.665l-1.702 2.353c-.905-.688-1.81-1.123-2.714-1.123-.978 0-1.485.399-1.485 1.05 0 .833 1.195 1.159 2.534 1.665 1.629.616 3.475 1.557 3.475 3.946 0 2.389-1.846 4.235-5.285 4.235-1.665-.036-3.62-.76-4.923-1.846Zm11.403 0 1.701-2.425c1.159.905 2.245 1.375 3.331 1.375 1.122 0 1.628-.434 1.628-1.122 0-.869-1.266-1.267-2.606-1.773-1.593-.616-3.403-1.702-3.403-3.874 0-2.461 1.955-4.126 4.924-4.126 1.954 0 3.438.796 4.524 1.665l-1.701 2.353c-.905-.688-1.81-1.123-2.715-1.123-.977 0-1.484.399-1.484 1.05 0 .833 1.195 1.159 2.534 1.665 1.629.616 3.475 1.557 3.475 3.946 0 2.389-1.846 4.235-5.285 4.235-1.665-.036-3.62-.76-4.923-1.846Zm26.968-11.62h3.801v1.883c.724-1.448 2.498-1.955 3.403-1.955.724 0 1.158.109 1.52.253l-.398 3.548c-.507-.145-1.086-.398-1.629-.398-1.484.036-2.787 1.303-2.896 2.968v6.842h-3.801v-13.141Zm23.457 0h3.801v1.665c1.086-1.049 2.172-1.99 3.946-1.99 2.787 0 3.982 2.027 3.982 5.285v8.144h-3.801v-7.674c0-1.882-.507-2.498-1.593-2.498-.941 0-1.665.471-2.498 1.267v8.869h-3.801v-13.068h-.036Zm24.905 6.552c0-4.271 2.679-6.877 5.901-6.877 3.656 0 5.683 2.714 5.683 6.298 0 .688-.073 1.412-.145 1.738h-7.71c.325 1.918 1.629 2.787 3.33 2.787.977 0 1.81-.398 2.751-.941l1.303 2.425c-1.303.941-3.04 1.484-4.561 1.484-3.765-.036-6.552-2.57-6.552-6.914Zm8.362-1.411c0-1.448-.832-2.498-2.353-2.498-1.194 0-2.027.832-2.28 2.498h4.633Zm-47.167 4.343c0-2.751 2.316-4.307 7.421-4.85-.073-1.159-.797-1.846-2.209-1.846-1.086 0-2.172.47-3.402 1.194l-1.34-2.57c1.629-1.014 3.475-1.737 5.503-1.737 3.294 0 5.104 1.918 5.104 5.936v7.493h-3.62v-1.267s-1.484 1.593-3.584 1.593c-2.389 0-3.873-1.737-3.873-3.946Zm7.421-.217v-2.28c-2.715.362-3.765 1.23-3.765 2.208 0 .832.579 1.267 1.484 1.267.869-.036 1.629-.507 2.281-1.195Zm-72.507-14.769c-.797 0-1.883.616-1.883 1.702 0 .977.761 1.556 1.557 1.556h.109c-.037 1.159-1.086 1.81-1.593 2.1l1.013 1.411c3.331-1.049 4.019-6.733.797-6.769Zm48.579 5.503v8.687c-.76 1.05-1.339 1.448-2.28 1.448-1.086 0-1.593-.579-1.593-2.497v-7.638h-3.801v8.289c0 3.113 1.339 5.177 4.054 5.177 2.462 0 3.692-1.665 3.692-1.665v1.339h3.765v-13.14h-3.837Zm50.968 10.316c-1.665 0-2.896-1.484-2.896-3.728 0-2.281 1.195-3.765 3.005-3.765.579 0 1.086.217 1.665.724l1.81-2.498c-.941-.796-2.136-1.339-3.692-1.339-3.548 0-6.661 2.534-6.661 6.878s2.715 6.878 6.299 6.878c1.412 0 3.004-.435 4.235-1.557l-1.376-2.642c-.723.615-1.52 1.049-2.389 1.049Zm-141.502-15.638c-.072-.145-.326-.253-.507-.289-.217-.037-.326-.037-.326-.037-.253-.072-5.285 0-6.479.797-.109-.797-.398-1.774-1.774-2.064-.977-.217-3.077.724-2.389 2.824.108.362.362.615.724.796.181.109.47.037.688.616.072.144.181.144.289.108.073-.036.109 0 .217.073.109.072.181.036.181.036s.037.036.109.036c.036 0 .181-.036.181 0 .398.326.869-.181 1.05-.507l.651 1.955c-.144-.145-1.737-.579-2.497.253-.652.724-1.159 1.738-1.702 3.439-.145.471-.434.688-.977.905-.869.326-.362.724-.145.761.543.108 1.774.036 2.027-.073.326-.145.073-.905.435-1.375.325-.399.579-.761.796-1.014 0 .543 0 .833-.29 1.52-.253.652-1.049.978-1.303 1.267-.434.543.543.579.797.507.651-.217 1.086-.217 1.339-.362.362-.217.109-.796.217-1.013.326-.652 1.448-2.064 1.593-2.281.036-.036.036-.072.036-.109.796.254 1.701.326 2.027.29 1.846-.217 2.245-1.52 2.064-2.57-.181-.941-.761-1.521-.942-1.81-.47-.76-.76-1.158-.941-1.376.543-.144 3.475-.941 3.475-.905.109.254.362.29.435.362.181.109.289-.072.217-.108-.145-.109-.181-.181-.181-.181.253 0 .471.036.652.036.289.036.398-.398.253-.507Z"/>
      <path fill="#0C419A" fill-rule="evenodd" d="M178.923 171.679c-.471-2.534-2.824-4.091-4.054-4.634-.833-.362-1.195-.434-1.34-.47-.181-.073-.326-.109-.398-.145.072-.543.724-.579 1.122-1.376 1.086-2.244-1.158-3.801-2.787-3.439-.797.181-1.303.435-1.448 1.05-.073.326-.326.326-.724.76-.145.145.145.362.217.471 0 .036-.072.145-.109.289-.036.145 0 .109 0 .145 0 0-.072.145-.072.326 0 0-.181.362 0 .76.036.109.253.326.326.833 0 .072 0 .108-.29 0-.072-.036-3.077-.905-3.402-1.122-.362-.254-3.331-3.476-3.657-4.091-.181-.362-.362-.579-.47-.579-.688.036.507 1.303-.181.869a10.937 10.937 0 0 1-.724-.507c-.145-.109-.109-.072-.181-.217-.073-.145-.145-.254-.217-.29-.073-.036-.109-.072-.181-.072-.109.036-.073.108-.109.108h-.109c-.181.037-.036.471 0 .688 0 .036.471 1.158.616 1.339.76.507 1.484.978 1.52.978.833.941 1.774 2.136 2.643 3.041.688.724 3.801 2.534 3.873 2.57.217.108.543.796.072 5.538-.181 1.774-1.447 5.575-.832 7.53.398 1.267.832 2.135 1.303 5.61.109.761-.507 1.267-1.375 1.883-.326.253-1.304.832-1.376.905-.145.145 0 .362.181.47.217.073.579.29.796.326.362.073.905.036 1.484-.289.616-.362.688-.399 1.05-.652.435-.253.941-.326 1.086-.76.181-.579-.326-1.412-.253-1.774.362-2.715.832-4.054.145-5.719-.145-.326.977-3.946 1.086-3.476.181.942.253 3.801.289 5.901 0 .941.76 4.199 1.014 5.394.362 1.81-2.679 3.258-2.027 3.801.144.108.543.289.905.361.434.073.76 0 1.122-.144.217-.073.543-.471.615-.543.652-.797.435-.579.978-1.159.434-.506.108-1.375.072-1.81-.109-.905 0-1.158-.036-2.823 0-1.919.108-2.462.217-3.186.471-3.185.76-4.923.941-6.262v-.073s.217.073.326-.072c.181-.289.145-.543.181-.724.036-.181.108.036.108.036s.145.435.145.579c0 .218-.145.471-.253.797-.109.362.181.398.253.434.073.036 1.014-.651 1.159-.905.144-.289.108-.651.144-.832.037-.471-.253-1.81-.253-1.81.217-.905 1.014-3.186.869-3.837Zm-2.172 3.656c-.109.434-.145.036-.543 1.701l.036-.253v-.724c0-2.064-1.593-6.48-.615-5.575 0 0 1.158.796 1.375 1.412.181.543.145 1.846-.253 3.439Z" clip-rule="evenodd"/>
      <path fill="#0C419A" d="M138.054 180.294c-.362-.326-1.629-2.027-2.425-2.715-.543-.579-.688-.869-1.122-1.484-1.485-1.955-1.81-2.1-2.824-2.244-.217-.145-.145-.29-.109-.326 1.34-.507.905-1.665.869-1.702-.072-.253.109-.362.109-.615 0-.398-.073-.688-.181-.977.036-.181.072-.435-.109-.688-.724-.905-2.534-.941-3.475-.326-.76.507-.326.869-.543 1.629-.145.435 0 .833.29 1.158.036.254.796.724.651 1.231-.144.543-1.013.652-1.013.652-.109.036-.181.072-.254.108-1.375.797-2.715 1.955-2.896 3.186.073 1.014 1.666 2.498 2.679 3.294.145 1.738 1.231 4.38 1.303 4.489.145.326-.325-.254-1.411-.616-.543-.181-1.231-.905-1.412-.036-.073.362.072.978-.254 1.774-.253.579.037 1.52.688 1.52.471 0 .76-1.448.76-1.448s2.281 1.123 3.367.761c.652-.218.796-2.752.145-5.032-.217-.797.398 1.303 1.918 3.113.326.398.036.724.254 2.244.072.579.072.724.072.978-.036.724-.724 1.592.869 1.991 1.629.434 1.484.796 2.498.108.47-.289-1.412-.507-1.774-1.593 0-.036-.036-.181-.036-.253-.037-.869.362-2.86.217-3.584-.579-3.439-2.027-5.031-2.208-5.828 0-2.389-.181-3.149.036-2.606.036.109.543.941 1.05 1.593a.938.938 0 0 0 .181.217c.144.181.289.326.434.398 1.014.869 2.606 1.919 2.824 2.136 0 0 .108 1.05.543.977.398-.072 2.316-.905 2.28-1.122-.072-.29-1.955-.29-1.991-.362Zm-10.425-1.303c-.29-.543-1.086-1.593-1.014-1.774.435-.724.905-.941 1.05-.905.109.036-.036 2.679-.036 2.679Z"/>
      <path fill="#0C419A" d="M169.764 199.769c-.072-.036-1.194-.471-2.208-2.063-.434-.724-3.801-6.914-4.235-8.109-.905-2.389-7.964-6.697-8.253-6.95-.218-.181-.181-.579-.109-.869.579-2.027.362-3.801.471-4.09.289-.688.724-1.666.398-2.317l-.724-1.159s3.728 1.34 4.597 1.159c.76-.145 4.489-2.751 4.706-2.86.507-.253 1.774.109 3.041-1.267.47-.507.144-.688.036-.615.036-.036-.217-.254-.434-.109-.29.181-1.34.471-1.159.326.76-.579.217-.724.217-.724-.325.29-1.81.652-2.135.905-.326.29-.58.507-.724.615-.905.507-2.462 1.267-4.018 1.629-.326.073-3.295-1.882-5.032-2.135-.941-.145-1.267-.073-1.774.072-.615.181-.579-.724-.109-.941.254-.109.652-.181.797-.471.181-.362-.036-.688-.036-.76 0-.036.036-.072-.037-.217-.036-.109-.036-.036-.036-.145a.516.516 0 0 0-.072-.217c0-.036 0-.181.036-.217.362-.29.217-.435.145-.471-.109-.109-.652-.326-.688-.688-.072-.579-.29-.869-.362-1.158-.036-.109-.109-.797-.398-1.05-.362-.326-1.122-.724-2.787-.289-.543.144-.435.398-1.738.651-1.593.29-2.462 2.643-2.317 3.62.109.796.797.398.76.76-.036.543-.108 1.448 1.05 1.774.254.072 1.774-.181 2.353-.072 0 0 .471.036.217.506-.108.218-1.629.833-2.027.978-.977.398-3.547 4.597-4.307 4.995a9.688 9.688 0 0 0-1.304.76c-1.049.652-2.063 1.485-2.642 1.448-.76-.036-1.376.326-1.883 1.448-.144.326-.072.507.218.579.108.109.253.254.47.254.217.217.471.072.688-.036.579-.326.724-.58.941-.652.579-.181 3.982-1.52 4.742-2.099 1.159-.616 3.475-3.005 3.982-3.041.471-.036 1.629 1.013 1.267 3.041-.108.687-.977 1.918-1.448 2.642-.941 1.412-.217 2.679-.398 2.968-.977 1.593-2.172 3.729-4.199 5.539-.796.507-2.425.615-3.33.869-2.028.579-4.163 2.027-5.684 2.896-.506.289-.977-.326-1.629-.399-.615-.072-.687.905-1.013 1.774-.109.254-.145.398-.616 1.484-.181.435-.687 1.702-.181 2.245.471.651 1.557-1.376 2.426-2.353.434-.507.724-.688 1.701-.905.615-.145 5.575-1.484 8.833-2.208a.674.674 0 0 0 .253-.073c4.235-1.086 8.615-6.624 8.688-6.588l7.203 3.547c.724.399.724 1.774 1.593 3.403.507.978 1.267 1.81 4.344 4.815.398.398.073 1.013.254 1.629.181.651.506.651 1.086.615.542-.036 1.013-.145 1.556-.181.688-.036.507.036 1.303.145.398.072 1.267.181 1.919-.435 1.122-1.194-1.159-.615-2.245-1.158Z"/>
      <path fill="#0C419A" d="M161.982 196.656a.422.422 0 0 0-.579-.181 22.205 22.205 0 0 1-9.991 2.389 22.063 22.063 0 0 1-11.005-2.932.501.501 0 0 0-.615.145.501.501 0 0 0 .145.615 23.012 23.012 0 0 0 11.438 3.041c3.62 0 7.204-.869 10.39-2.498a.41.41 0 0 0 .217-.579Zm-31.095-28.778c-.073 0-.109 0-.181-.036-.217-.109-.326-.362-.217-.58a23.116 23.116 0 0 1 9.339-10.353.502.502 0 0 1 .615.145.502.502 0 0 1-.144.616c-3.982 2.316-7.095 5.755-8.978 9.954a.472.472 0 0 1-.434.254Zm37.393-5.611c-.108 0-.253-.036-.325-.145a21.987 21.987 0 0 0-13.43-7.239c-.254-.037-.398-.254-.362-.507.036-.254.253-.398.507-.362a22.965 22.965 0 0 1 13.972 7.529c.145.181.145.471-.036.616a.584.584 0 0 1-.326.108ZM62 237h1440v48H62z"/>
    </g>
    <rect width="106" height="20" x="118" y="251" fill="#fff" opacity=".5" rx="10"/>
    <rect width="95" height="20" x="245" y="251" fill="#fff" opacity=".5" rx="10"/>
  </g>
  <defs>
    <clipPath id="a">
      <path fill="#fff" d="M0 0h541v357H0z"/>
    </clipPath>
    <clipPath id="c">
      <rect width="780" height="400" x="62" y="60" fill="#fff" rx="16"/>
    </clipPath>
    <clipPath id="d">
      <path fill="#fff" d="M0 0h1440v168H0z" transform="translate(62 117)"/>
    </clipPath>
    <filter id="b" width="940" height="580" x="-18" y="60" color-interpolation-filters="sRGB" filterUnits="userSpaceOnUse">
      <feFlood flood-opacity="0" result="BackgroundImageFix"/>
      <feColorMatrix in="SourceAlpha" result="hardAlpha" values="0 0 0 0 0 0 0 0 0 0 0 0 0 0 0 0 0 0 127 0"/>
      <feOffset dy="2.767"/>
      <feGaussianBlur stdDeviation="1.107"/>
      <feColorMatrix values="0 0 0 0 0 0 0 0 0 0 0 0 0 0 0 0 0 0 0.0196802 0"/>
      <feBlend in2="BackgroundImageFix" result="effect1_dropShadow_248_105939"/>
      <feColorMatrix in="SourceAlpha" result="hardAlpha" values="0 0 0 0 0 0 0 0 0 0 0 0 0 0 0 0 0 0 127 0"/>
      <feOffset dy="6.65"/>
      <feGaussianBlur stdDeviation="2.66"/>
      <feColorMatrix values="0 0 0 0 0 0 0 0 0 0 0 0 0 0 0 0 0 0 0.0282725 0"/>
      <feBlend in2="effect1_dropShadow_248_105939" result="effect2_dropShadow_248_105939"/>
      <feColorMatrix in="SourceAlpha" result="hardAlpha" values="0 0 0 0 0 0 0 0 0 0 0 0 0 0 0 0 0 0 127 0"/>
      <feOffset dy="12.522"/>
      <feGaussianBlur stdDeviation="5.009"/>
      <feColorMatrix values="0 0 0 0 0 0 0 0 0 0 0 0 0 0 0 0 0 0 0.035 0"/>
      <feBlend in2="effect2_dropShadow_248_105939" result="effect3_dropShadow_248_105939"/>
      <feColorMatrix in="SourceAlpha" result="hardAlpha" values="0 0 0 0 0 0 0 0 0 0 0 0 0 0 0 0 0 0 127 0"/>
      <feOffset dy="22.336"/>
      <feGaussianBlur stdDeviation="8.935"/>
      <feColorMatrix values="0 0 0 0 0 0 0 0 0 0 0 0 0 0 0 0 0 0 0.0417275 0"/>
      <feBlend in2="effect3_dropShadow_248_105939" result="effect4_dropShadow_248_105939"/>
      <feColorMatrix in="SourceAlpha" result="hardAlpha" values="0 0 0 0 0 0 0 0 0 0 0 0 0 0 0 0 0 0 127 0"/>
      <feOffset dy="41.778"/>
      <feGaussianBlur stdDeviation="16.711"/>
      <feColorMatrix values="0 0 0 0 0 0 0 0 0 0 0 0 0 0 0 0 0 0 0.0503198 0"/>
      <feBlend in2="effect4_dropShadow_248_105939" result="effect5_dropShadow_248_105939"/>
      <feColorMatrix in="SourceAlpha" result="hardAlpha" values="0 0 0 0 0 0 0 0 0 0 0 0 0 0 0 0 0 0 127 0"/>
      <feOffset dy="100"/>
      <feGaussianBlur stdDeviation="40"/>
      <feColorMatrix values="0 0 0 0 0 0 0 0 0 0 0 0 0 0 0 0 0 0 0.07 0"/>
      <feBlend in2="effect5_dropShadow_248_105939" result="effect6_dropShadow_248_105939"/>
      <feBlend in="SourceGraphic" in2="effect6_dropShadow_248_105939" result="shape"/>
    </filter>
  </defs>
</svg>
