<svg width="541" height="357" viewBox="0 0 541 357" fill="none" xmlns="http://www.w3.org/2000/svg">
<rect width="541" height="357" fill="#E7ECF5"/>
<rect x="63" y="88" width="415" height="181" fill="white"/>
<rect opacity="0.5" x="88" y="168" width="72" height="20" rx="10" fill="#CED9EB"/>
<rect opacity="0.5" x="172" y="168" width="73" height="20" rx="10" fill="#CED9EB"/>
<rect opacity="0.5" x="257" y="168" width="72" height="20" rx="10" fill="#CED9EB"/>
<g clip-path="url(#clip0_177_105571)">
<path d="M358.328 184V173.536H364.648V175.104H360.184V178.064H363.992V179.632H360.184V184H358.328ZM366.052 184V176.144H367.572L367.7 177.536H367.764C368.041 177.024 368.377 176.635 368.772 176.368C369.166 176.091 369.572 175.952 369.988 175.952C370.361 175.952 370.66 176.006 370.884 176.112L370.564 177.712C370.425 177.67 370.297 177.638 370.18 177.616C370.062 177.595 369.918 177.584 369.748 177.584C369.438 177.584 369.113 177.707 368.772 177.952C368.43 178.187 368.137 178.603 367.892 179.2V184H366.052ZM373.543 184.192C372.86 184.192 372.3 183.979 371.863 183.552C371.436 183.126 371.223 182.571 371.223 181.888C371.223 181.046 371.591 180.395 372.327 179.936C373.063 179.467 374.236 179.147 375.847 178.976C375.836 178.56 375.724 178.203 375.511 177.904C375.308 177.595 374.94 177.44 374.407 177.44C374.023 177.44 373.644 177.515 373.271 177.664C372.908 177.814 372.551 177.995 372.199 178.208L371.527 176.976C371.964 176.699 372.455 176.459 372.999 176.256C373.553 176.054 374.14 175.952 374.759 175.952C375.74 175.952 376.471 176.246 376.951 176.832C377.441 177.408 377.687 178.246 377.687 179.344V184H376.167L376.039 183.136H375.975C375.623 183.435 375.244 183.686 374.839 183.888C374.444 184.091 374.012 184.192 373.543 184.192ZM374.135 182.752C374.455 182.752 374.743 182.678 374.999 182.528C375.265 182.368 375.548 182.155 375.847 181.888V180.128C374.78 180.267 374.039 180.475 373.623 180.752C373.207 181.019 372.999 181.35 372.999 181.744C372.999 182.096 373.105 182.352 373.319 182.512C373.532 182.672 373.804 182.752 374.135 182.752ZM379.929 184V176.144H381.449L381.577 177.2H381.641C381.993 176.859 382.377 176.566 382.793 176.32C383.209 176.075 383.683 175.952 384.217 175.952C385.059 175.952 385.673 176.224 386.057 176.768C386.441 177.312 386.633 178.08 386.633 179.072V184H384.793V179.312C384.793 178.662 384.697 178.203 384.505 177.936C384.313 177.67 383.998 177.536 383.561 177.536C383.219 177.536 382.915 177.622 382.649 177.792C382.393 177.952 382.099 178.192 381.769 178.512V184H379.929ZM392.202 184.192C391.487 184.192 390.842 184.032 390.266 183.712C389.7 183.382 389.247 182.912 388.906 182.304C388.575 181.686 388.41 180.944 388.41 180.08C388.41 179.206 388.591 178.464 388.954 177.856C389.316 177.238 389.796 176.768 390.394 176.448C391.002 176.118 391.652 175.952 392.346 175.952C392.847 175.952 393.284 176.038 393.658 176.208C394.031 176.379 394.362 176.587 394.65 176.832L393.754 178.032C393.551 177.851 393.343 177.712 393.13 177.616C392.916 177.51 392.687 177.456 392.442 177.456C391.812 177.456 391.295 177.696 390.89 178.176C390.495 178.656 390.298 179.291 390.298 180.08C390.298 180.859 390.49 181.488 390.874 181.968C391.268 182.448 391.775 182.688 392.394 182.688C392.703 182.688 392.991 182.624 393.258 182.496C393.535 182.358 393.786 182.198 394.01 182.016L394.762 183.232C394.399 183.552 393.994 183.792 393.546 183.952C393.098 184.112 392.65 184.192 392.202 184.192ZM390.474 187.728L390.314 186.928C390.964 186.886 391.407 186.806 391.642 186.688C391.887 186.582 392.01 186.411 392.01 186.176C392.01 185.995 391.919 185.846 391.738 185.728C391.567 185.611 391.247 185.52 390.778 185.456L391.514 183.952H392.634L392.17 184.992C392.554 185.088 392.847 185.222 393.05 185.392C393.263 185.574 393.37 185.83 393.37 186.16C393.37 186.662 393.114 187.035 392.602 187.28C392.1 187.536 391.391 187.686 390.474 187.728ZM398.1 184.192C397.417 184.192 396.857 183.979 396.42 183.552C395.993 183.126 395.78 182.571 395.78 181.888C395.78 181.046 396.148 180.395 396.884 179.936C397.62 179.467 398.793 179.147 400.404 178.976C400.393 178.56 400.281 178.203 400.068 177.904C399.865 177.595 399.497 177.44 398.964 177.44C398.58 177.44 398.201 177.515 397.828 177.664C397.465 177.814 397.108 177.995 396.756 178.208L396.084 176.976C396.521 176.699 397.012 176.459 397.556 176.256C398.111 176.054 398.697 175.952 399.316 175.952C400.297 175.952 401.028 176.246 401.508 176.832C401.999 177.408 402.244 178.246 402.244 179.344V184H400.724L400.596 183.136H400.532C400.18 183.435 399.801 183.686 399.396 183.888C399.001 184.091 398.569 184.192 398.1 184.192ZM398.692 182.752C399.012 182.752 399.3 182.678 399.556 182.528C399.823 182.368 400.105 182.155 400.404 181.888V180.128C399.337 180.267 398.596 180.475 398.18 180.752C397.764 181.019 397.556 181.35 397.556 181.744C397.556 182.096 397.663 182.352 397.876 182.512C398.089 182.672 398.361 182.752 398.692 182.752ZM404.486 184V176.144H406.326V184H404.486ZM405.414 174.768C405.083 174.768 404.817 174.672 404.614 174.48C404.411 174.288 404.31 174.032 404.31 173.712C404.31 173.403 404.411 173.152 404.614 172.96C404.817 172.768 405.083 172.672 405.414 172.672C405.745 172.672 406.011 172.768 406.214 172.96C406.417 173.152 406.518 173.403 406.518 173.712C406.518 174.032 406.417 174.288 406.214 174.48C406.011 174.672 405.745 174.768 405.414 174.768ZM410.906 184.192C410.372 184.192 409.839 184.091 409.306 183.888C408.772 183.675 408.314 183.414 407.93 183.104L408.794 181.92C409.146 182.187 409.498 182.4 409.85 182.56C410.202 182.72 410.575 182.8 410.97 182.8C411.396 182.8 411.711 182.71 411.914 182.528C412.116 182.347 412.218 182.123 412.218 181.856C412.218 181.632 412.132 181.451 411.962 181.312C411.802 181.163 411.594 181.035 411.338 180.928C411.082 180.811 410.815 180.699 410.538 180.592C410.196 180.464 409.855 180.31 409.514 180.128C409.183 179.936 408.911 179.696 408.698 179.408C408.484 179.11 408.378 178.742 408.378 178.304C408.378 177.611 408.634 177.046 409.146 176.608C409.658 176.171 410.351 175.952 411.226 175.952C411.78 175.952 412.276 176.048 412.714 176.24C413.151 176.432 413.53 176.651 413.85 176.896L413.002 178.016C412.724 177.814 412.442 177.654 412.154 177.536C411.876 177.408 411.583 177.344 411.274 177.344C410.879 177.344 410.586 177.43 410.394 177.6C410.202 177.76 410.106 177.963 410.106 178.208C410.106 178.518 410.266 178.752 410.586 178.912C410.906 179.072 411.279 179.227 411.706 179.376C412.068 179.504 412.42 179.664 412.762 179.856C413.103 180.038 413.386 180.278 413.61 180.576C413.844 180.875 413.962 181.27 413.962 181.76C413.962 182.432 413.7 183.008 413.178 183.488C412.655 183.958 411.898 184.192 410.906 184.192Z" fill="#323535"/>
<g clip-path="url(#clip1_177_105571)">
<path d="M432.06 175.727L429 178.78L425.94 175.727L425 176.667L429 180.667L433 176.667L432.06 175.727Z" fill="#323535"/>
</g>
</g>
<rect x="341.5" y="160.5" width="111" height="35.0003" rx="3.5" stroke="#323535"/>
<defs>
<clipPath id="clip0_177_105571">
<rect x="341" y="160" width="112" height="36.0003" rx="4" fill="white"/>
</clipPath>
<clipPath id="clip1_177_105571">
<rect width="16" height="16" fill="white" transform="translate(421 170)"/>
</clipPath>
</defs>
</svg>
