<svg xmlns="http://www.w3.org/2000/svg" width="541" height="357" fill="none" viewBox="0 0 541 357">
  <path fill="#E7ECF5" d="M0 0h541v357H0z"/>
  <path fill="#fff" d="M63 88h415v181H63z"/>
  <rect width="200" height="56" x="171" y="149" fill="#fff" rx="4"/>
  <rect width="31" height="19" x="187" y="167.5" fill="#CED9EB" opacity=".5" rx="9.5"/>
  <path fill="#fff" d="M183 149h168v1H183z"/>
  <path fill="#000" fill-opacity=".6" d="M188.26 154.5v-9.184h1.204l3.318 5.768.994 1.904h.056a98.32 98.32 0 0 0-.098-1.442 26.765 26.765 0 0 1-.042-1.484v-4.746h1.106v9.184h-1.204l-3.332-5.782-.994-1.89h-.056c.037.457.07.929.098 1.414.037.485.056.971.056 1.456v4.802h-1.106Zm10.996.168c-.718 0-1.246-.224-1.582-.672-.336-.457-.504-1.12-.504-1.988v-4.312h1.162v4.158c0 .635.098 1.097.294 1.386.206.289.532.434.98.434.355 0 .668-.089.938-.266.28-.187.579-.481.896-.882v-4.83h1.148v6.804h-.952l-.098-1.064h-.042a4.457 4.457 0 0 1-1.008.896 2.255 2.255 0 0 1-1.232.336Zm5.684-.168v-6.804h.952l.098.98h.042c.298-.327.625-.597.98-.812a2.084 2.084 0 0 1 1.134-.336c.522 0 .928.117 1.218.35.298.224.518.541.658.952a6.077 6.077 0 0 1 1.078-.938 2.055 2.055 0 0 1 1.162-.364c.7 0 1.218.229 1.554.686.345.448.518 1.106.518 1.974v4.312h-1.148v-4.158c0-.635-.103-1.097-.308-1.386-.206-.289-.523-.434-.952-.434-.504 0-1.074.35-1.708 1.05v4.928h-1.148v-4.158c0-.635-.103-1.097-.308-1.386-.206-.289-.528-.434-.966-.434-.504 0-1.074.35-1.708 1.05v4.928h-1.148Zm14.421.168c-.607 0-1.157-.14-1.652-.42a3.111 3.111 0 0 1-1.176-1.232c-.289-.532-.434-1.167-.434-1.904 0-.747.145-1.386.434-1.918.299-.532.681-.943 1.148-1.232a2.752 2.752 0 0 1 1.47-.434c.868 0 1.535.289 2.002.868.476.579.714 1.353.714 2.324 0 .121-.005.243-.014.364 0 .112-.009.21-.028.294h-4.592c.047.719.271 1.293.672 1.722.411.429.943.644 1.596.644.327 0 .625-.047.896-.14a4.22 4.22 0 0 0 .798-.392l.406.756a5.17 5.17 0 0 1-.994.49c-.364.14-.779.21-1.246.21Zm-2.142-4.116h3.64c0-.691-.149-1.213-.448-1.568-.289-.364-.7-.546-1.232-.546-.476 0-.905.187-1.288.56-.373.364-.597.882-.672 1.554Zm1.736-4.074-.588-.574 1.974-2.338.812.77-2.198 2.142Zm4.649 8.022v-6.804h.952l.098 1.232h.042c.234-.429.518-.77.854-1.022a1.765 1.765 0 0 1 1.078-.378c.271 0 .514.047.728.14l-.224 1.008a1.799 1.799 0 0 0-.658-.112c-.289 0-.592.117-.91.35-.308.233-.578.639-.812 1.218v4.368h-1.148Zm7.419.168c-.55 0-1.068-.14-1.554-.42-.476-.28-.863-.686-1.162-1.218-.289-.532-.434-1.171-.434-1.918 0-.765.145-1.414.434-1.946.299-.532.686-.938 1.162-1.218a3.063 3.063 0 0 1 1.554-.42c.56 0 1.078.14 1.554.42.476.28.859.686 1.148 1.218.299.532.448 1.181.448 1.946 0 .747-.149 1.386-.448 1.918a3.079 3.079 0 0 1-1.148 1.218 3.01 3.01 0 0 1-1.554.42Zm0-.952c.588 0 1.06-.238 1.414-.714.364-.485.546-1.115.546-1.89 0-.784-.182-1.419-.546-1.904-.354-.485-.826-.728-1.414-.728-.578 0-1.05.243-1.414.728-.364.485-.546 1.12-.546 1.904 0 .775.182 1.405.546 1.89.364.476.836.714 1.414.714Zm10.181.952c-.849 0-1.531-.308-2.044-.924-.513-.625-.77-1.503-.77-2.632 0-.737.135-1.372.406-1.904.28-.541.644-.957 1.092-1.246a2.68 2.68 0 0 1 1.456-.434c.392 0 .733.07 1.022.21.289.14.583.331.882.574l-.056-1.162v-2.618h1.162v9.968h-.952l-.098-.798h-.042c-.261.261-.569.49-.924.686-.355.187-.733.28-1.134.28Zm.252-.966c.597 0 1.176-.313 1.736-.938v-3.556c-.289-.261-.569-.443-.84-.546a2.04 2.04 0 0 0-.812-.168c-.364 0-.695.112-.994.336-.289.215-.523.518-.7.91-.177.383-.266.835-.266 1.358 0 .812.163 1.451.49 1.918.327.457.789.686 1.386.686Zm8.003.966c-.606 0-1.157-.14-1.652-.42a3.125 3.125 0 0 1-1.176-1.232c-.289-.532-.434-1.167-.434-1.904 0-.747.145-1.386.434-1.918.299-.532.682-.943 1.148-1.232a2.752 2.752 0 0 1 1.47-.434c.868 0 1.536.289 2.002.868.476.579.714 1.353.714 2.324 0 .121-.004.243-.014.364 0 .112-.009.21-.028.294h-4.592c.047.719.271 1.293.672 1.722.411.429.943.644 1.596.644.327 0 .626-.047.896-.14a4.22 4.22 0 0 0 .798-.392l.406.756c-.289.187-.62.35-.994.49-.364.14-.779.21-1.246.21Zm-2.142-4.116h3.64c0-.691-.149-1.213-.448-1.568-.289-.364-.7-.546-1.232-.546-.476 0-.905.187-1.288.56-.373.364-.597.882-.672 1.554Zm11.023 4.116c-.486 0-.948-.089-1.386-.266a4.894 4.894 0 0 1-1.148-.672l.574-.77c.298.233.606.429.924.588.317.149.676.224 1.078.224.448 0 .784-.103 1.008-.308.224-.215.336-.467.336-.756a.802.802 0 0 0-.238-.588 1.72 1.72 0 0 0-.588-.392 8.501 8.501 0 0 0-.728-.308c-.318-.121-.63-.257-.938-.406a2.322 2.322 0 0 1-.756-.602c-.196-.252-.294-.569-.294-.952 0-.551.205-1.008.616-1.372.42-.373.998-.56 1.736-.56.42 0 .812.075 1.176.224.364.149.676.331.938.546l-.56.728a3.692 3.692 0 0 0-.728-.434 2.013 2.013 0 0 0-.826-.168c-.43 0-.747.098-.952.294a.94.94 0 0 0-.294.686c0 .215.07.392.21.532.14.131.322.247.546.35l.714.294c.326.121.648.261.966.42.317.149.578.355.784.616.214.252.322.593.322 1.022 0 .364-.098.7-.294 1.008-.187.308-.467.555-.84.742-.364.187-.817.28-1.358.28Zm6.901 0c-.607 0-1.158-.14-1.652-.42a3.111 3.111 0 0 1-1.176-1.232c-.29-.532-.434-1.167-.434-1.904 0-.747.144-1.386.434-1.918.298-.532.681-.943 1.148-1.232a2.747 2.747 0 0 1 1.47-.434c.868 0 1.535.289 2.002.868.476.579.714 1.353.714 2.324 0 .121-.005.243-.014.364 0 .112-.01.21-.028.294h-4.592c.046.719.27 1.293.672 1.722.41.429.942.644 1.596.644.326 0 .625-.047.896-.14a4.22 4.22 0 0 0 .798-.392l.406.756a5.2 5.2 0 0 1-.994.49c-.364.14-.78.21-1.246.21Zm-2.142-4.116h3.64c0-.691-.15-1.213-.448-1.568-.29-.364-.7-.546-1.232-.546-.476 0-.906.187-1.288.56-.374.364-.598.882-.672 1.554Zm1.736-4.074-.588-.574 1.974-2.338.812.77-2.198 2.142Zm7.337 8.19a3.19 3.19 0 0 1-1.624-.42 2.96 2.96 0 0 1-1.148-1.218c-.28-.532-.42-1.171-.42-1.918 0-.765.149-1.414.448-1.946a3.21 3.21 0 0 1 1.204-1.218 3.29 3.29 0 0 1 1.624-.42c.448 0 .831.079 1.148.238.327.159.607.345.84.56l-.588.756a2.823 2.823 0 0 0-.63-.434 1.55 1.55 0 0 0-.728-.168 1.91 1.91 0 0 0-1.106.336c-.317.215-.569.523-.756.924-.177.392-.266.849-.266 1.372 0 .775.191 1.405.574 1.89.392.476.901.714 1.526.714a2 2 0 0 0 .882-.196c.271-.14.509-.303.714-.49l.504.77a3.783 3.783 0 0 1-1.022.644 3.141 3.141 0 0 1-1.176.224Zm5.741 0c-.719 0-1.246-.224-1.582-.672-.336-.457-.504-1.12-.504-1.988v-4.312h1.162v4.158c0 .635.098 1.097.294 1.386.205.289.532.434.98.434.354 0 .667-.089.938-.266.28-.187.578-.481.896-.882v-4.83h1.148v6.804h-.952l-.098-1.064h-.042a4.5 4.5 0 0 1-1.008.896 2.26 2.26 0 0 1-1.232.336Zm5.683-.168v-6.804h.952l.098 1.232h.042c.233-.429.518-.77.854-1.022a1.763 1.763 0 0 1 1.078-.378c.271 0 .513.047.728.14l-.224 1.008a1.799 1.799 0 0 0-.658-.112c-.289 0-.593.117-.91.35-.308.233-.579.639-.812 1.218v4.368h-1.148Zm4.91 0v-6.804h1.148v6.804h-1.148Zm.588-8.204a.818.818 0 0 1-.56-.196c-.14-.14-.21-.327-.21-.56 0-.224.07-.406.21-.546a.786.786 0 0 1 .56-.21c.224 0 .406.07.546.21.149.14.224.322.224.546 0 .233-.075.42-.224.56a.767.767 0 0 1-.546.196Zm5.055 8.372c-.728 0-1.237-.21-1.526-.63-.28-.42-.42-.966-.42-1.638v-3.766h-1.008v-.868l1.064-.07.14-1.904h.966v1.904h1.834v.938h-1.834v3.78c0 .42.075.747.224.98.159.224.434.336.826.336.121 0 .252-.019.392-.056l.378-.126.224.868a5.013 5.013 0 0 1-.616.168 2.542 2.542 0 0 1-.644.084Zm5.211 0c-.607 0-1.157-.14-1.652-.42a3.111 3.111 0 0 1-1.176-1.232c-.289-.532-.434-1.167-.434-1.904 0-.747.145-1.386.434-1.918.299-.532.681-.943 1.148-1.232a2.752 2.752 0 0 1 1.47-.434c.868 0 1.535.289 2.002.868.476.579.714 1.353.714 2.324 0 .121-.005.243-.014.364 0 .112-.009.21-.028.294h-4.592c.047.719.271 1.293.672 1.722.411.429.943.644 1.596.644.327 0 .625-.047.896-.14a4.22 4.22 0 0 0 .798-.392l.406.756a5.17 5.17 0 0 1-.994.49c-.364.14-.779.21-1.246.21Zm-2.142-4.116h3.64c0-.691-.149-1.213-.448-1.568-.289-.364-.7-.546-1.232-.546-.476 0-.905.187-1.288.56-.373.364-.597.882-.672 1.554Zm1.736-4.074-.588-.574 1.974-2.338.812.77-2.198 2.142Zm9.286 8.19c-.485 0-.947-.089-1.386-.266a4.914 4.914 0 0 1-1.148-.672l.574-.77c.299.233.607.429.924.588.317.149.677.224 1.078.224.448 0 .784-.103 1.008-.308.224-.215.336-.467.336-.756a.799.799 0 0 0-.238-.588 1.7 1.7 0 0 0-.588-.392 8.368 8.368 0 0 0-.728-.308c-.317-.121-.63-.257-.938-.406a2.322 2.322 0 0 1-.756-.602c-.196-.252-.294-.569-.294-.952 0-.551.205-1.008.616-1.372.42-.373.999-.56 1.736-.56.42 0 .812.075 1.176.224.364.149.677.331.938.546l-.56.728a3.664 3.664 0 0 0-.728-.434 2.01 2.01 0 0 0-.826-.168c-.429 0-.747.098-.952.294a.94.94 0 0 0-.294.686c0 .215.07.392.21.532.14.131.322.247.546.35l.714.294c.327.121.649.261.966.42.317.149.579.355.784.616.215.252.322.593.322 1.022 0 .364-.098.7-.294 1.008-.187.308-.467.555-.84.742-.364.187-.817.28-1.358.28Zm6.789 0c-.55 0-1.068-.14-1.554-.42-.476-.28-.863-.686-1.162-1.218-.289-.532-.434-1.171-.434-1.918 0-.765.145-1.414.434-1.946.299-.532.686-.938 1.162-1.218a3.063 3.063 0 0 1 1.554-.42c.56 0 1.078.14 1.554.42.476.28.859.686 1.148 1.218.299.532.448 1.181.448 1.946 0 .747-.149 1.386-.448 1.918a3.079 3.079 0 0 1-1.148 1.218 3.01 3.01 0 0 1-1.554.42Zm0-.952c.588 0 1.06-.238 1.414-.714.364-.485.546-1.115.546-1.89 0-.784-.182-1.419-.546-1.904-.354-.485-.826-.728-1.414-.728-.578 0-1.05.243-1.414.728-.364.485-.546 1.12-.546 1.904 0 .775.182 1.405.546 1.89.364.476.836.714 1.414.714Zm7.686.952a3.19 3.19 0 0 1-1.624-.42 2.96 2.96 0 0 1-1.148-1.218c-.28-.532-.42-1.171-.42-1.918 0-.765.149-1.414.448-1.946a3.21 3.21 0 0 1 1.204-1.218 3.29 3.29 0 0 1 1.624-.42c.448 0 .831.079 1.148.238.327.159.607.345.84.56l-.588.756a2.823 2.823 0 0 0-.63-.434 1.55 1.55 0 0 0-.728-.168 1.91 1.91 0 0 0-1.106.336c-.317.215-.569.523-.756.924-.177.392-.266.849-.266 1.372 0 .775.191 1.405.574 1.89.392.476.901.714 1.526.714a2 2 0 0 0 .882-.196c.271-.14.509-.303.714-.49l.504.77a3.783 3.783 0 0 1-1.022.644 3.141 3.141 0 0 1-1.176.224Zm3.753-.168v-6.804h1.148v6.804h-1.148Zm.588-8.204a.818.818 0 0 1-.56-.196c-.14-.14-.21-.327-.21-.56 0-.224.07-.406.21-.546a.786.786 0 0 1 .56-.21c.224 0 .406.07.546.21.149.14.224.322.224.546 0 .233-.075.42-.224.56a.767.767 0 0 1-.546.196Zm4.481 8.372c-.569 0-1.045-.168-1.428-.504-.373-.345-.56-.821-.56-1.428 0-.747.332-1.316.994-1.708.672-.401 1.732-.681 3.178-.84 0-.289-.042-.565-.126-.826a1.18 1.18 0 0 0-.42-.63c-.196-.168-.48-.252-.854-.252-.392 0-.76.075-1.106.224a5.375 5.375 0 0 0-.924.504l-.448-.798a7.155 7.155 0 0 1 1.162-.588 3.867 3.867 0 0 1 1.512-.294c.831 0 1.433.257 1.806.77.374.504.56 1.181.56 2.03v4.172h-.952l-.098-.812h-.042a5.81 5.81 0 0 1-1.05.686 2.549 2.549 0 0 1-1.204.294Zm.336-.924c.327 0 .635-.079.924-.238.29-.159.598-.383.924-.672v-1.89c-1.129.14-1.922.35-2.38.63-.448.28-.672.639-.672 1.078 0 .383.117.663.35.84.234.168.518.252.854.252Zm6.425.924c-.429 0-.742-.131-.938-.392-.187-.271-.28-.653-.28-1.148v-8.596h1.148v8.68c0 .177.033.308.098.392a.29.29 0 0 0 .224.112h.098c.037-.009.089-.019.154-.028l.154.868a1.015 1.015 0 0 1-.266.084 2.224 2.224 0 0 1-.392.028Zm5.164 0c-.606 0-1.157-.14-1.652-.42a3.125 3.125 0 0 1-1.176-1.232c-.289-.532-.434-1.167-.434-1.904 0-.747.145-1.386.434-1.918.299-.532.682-.943 1.148-1.232a2.752 2.752 0 0 1 1.47-.434c.868 0 1.536.289 2.002.868.476.579.714 1.353.714 2.324 0 .121-.004.243-.014.364 0 .112-.009.21-.028.294h-4.592c.047.719.271 1.293.672 1.722.411.429.943.644 1.596.644.327 0 .626-.047.896-.14a4.22 4.22 0 0 0 .798-.392l.406.756c-.289.187-.62.35-.994.49-.364.14-.779.21-1.246.21Zm-2.142-4.116h3.64c0-.691-.149-1.213-.448-1.568-.289-.364-.7-.546-1.232-.546-.476 0-.905.187-1.288.56-.373.364-.597.882-.672 1.554Z"/>
  <rect width="199" height="55" x="171.5" y="149.5" stroke="#000" stroke-opacity=".38" rx="3.5"/>
  <path fill="#000" fill-opacity=".6" d="M187.79 217v-.68h1.46v-4.7h-1.16v-.53c.293-.053.547-.117.76-.19.22-.08.417-.173.59-.28h.63v5.7h1.32v.68h-3.6Zm6.561.12c-.507 0-.927-.09-1.26-.27-.334-.18-.61-.38-.83-.6l.4-.54c.193.187.416.357.67.51.253.147.566.22.94.22.393 0 .723-.13.99-.39.273-.267.41-.623.41-1.07 0-.44-.124-.783-.37-1.03-.247-.247-.577-.37-.99-.37-.22 0-.41.033-.57.1a3.521 3.521 0 0 0-.52.29l-.44-.28.21-3.07h3.19v.71h-2.47l-.17 1.89c.153-.08.306-.143.46-.19.153-.047.326-.07.52-.07.366 0 .696.073.99.22.3.14.54.357.72.65.18.293.27.67.27 1.13 0 .46-.104.853-.31 1.18-.2.32-.464.563-.79.73-.327.167-.677.25-1.05.25Zm7.452 0c-.426 0-.813-.1-1.16-.3-.346-.2-.62-.49-.82-.87-.2-.38-.3-.837-.3-1.37 0-.547.107-1.01.32-1.39.22-.38.507-.67.86-.87.36-.2.747-.3 1.16-.3.32 0 .594.057.82.17.234.113.434.247.6.4l-.42.54c-.14-.127-.29-.23-.45-.31a1.104 1.104 0 0 0-.52-.12c-.293 0-.556.08-.79.24a1.58 1.58 0 0 0-.54.66 2.37 2.37 0 0 0-.19.98c0 .553.137 1.003.41 1.35.28.34.644.51 1.09.51.227 0 .437-.047.63-.14.194-.1.364-.217.51-.35l.36.55c-.22.193-.463.347-.73.46a2.23 2.23 0 0 1-.84.16Zm3.703 0c-.406 0-.746-.12-1.02-.36-.266-.247-.4-.587-.4-1.02 0-.533.237-.94.71-1.22.48-.287 1.237-.487 2.27-.6 0-.207-.03-.403-.09-.59a.84.84 0 0 0-.3-.45c-.14-.12-.343-.18-.61-.18-.28 0-.543.053-.79.16a3.952 3.952 0 0 0-.66.36l-.32-.57c.227-.147.504-.287.83-.42.334-.14.694-.21 1.08-.21.594 0 1.024.183 1.29.55.267.36.4.843.4 1.45V217h-.68l-.07-.58h-.03a4.09 4.09 0 0 1-.75.49 1.82 1.82 0 0 1-.86.21Zm.24-.66c.234 0 .454-.057.66-.17a3.65 3.65 0 0 0 .66-.48v-1.35c-.806.1-1.373.25-1.7.45-.32.2-.48.457-.48.77 0 .273.084.473.25.6.167.12.37.18.61.18Zm3.719.54v-4.86h.68l.07.88h.03c.167-.307.37-.55.61-.73.24-.18.497-.27.77-.27.194 0 .367.033.52.1l-.16.72a1.328 1.328 0 0 0-.47-.08c-.206 0-.423.083-.65.25-.22.167-.413.457-.58.87V217h-.82Zm4.383.12c-.407 0-.747-.12-1.02-.36-.267-.247-.4-.587-.4-1.02 0-.533.237-.94.71-1.22.48-.287 1.237-.487 2.27-.6 0-.207-.03-.403-.09-.59a.84.84 0 0 0-.3-.45c-.14-.12-.343-.18-.61-.18-.28 0-.543.053-.79.16a3.874 3.874 0 0 0-.66.36l-.32-.57c.227-.147.503-.287.83-.42.333-.14.693-.21 1.08-.21.593 0 1.023.183 1.29.55.267.36.4.843.4 1.45V217h-.68l-.07-.58h-.03c-.227.187-.477.35-.75.49-.267.14-.553.21-.86.21Zm.24-.66c.233 0 .453-.057.66-.17a3.65 3.65 0 0 0 .66-.48v-1.35c-.807.1-1.373.25-1.7.45-.32.2-.48.457-.48.77 0 .273.083.473.25.6.167.12.37.18.61.18Zm5.639.66c-.427 0-.813-.1-1.16-.3a2.11 2.11 0 0 1-.82-.87c-.2-.38-.3-.837-.3-1.37 0-.547.107-1.01.32-1.39.22-.38.507-.67.86-.87.36-.2.747-.3 1.16-.3.32 0 .593.057.82.17.233.113.433.247.6.4l-.42.54c-.14-.127-.29-.23-.45-.31a1.107 1.107 0 0 0-.52-.12c-.293 0-.557.08-.79.24a1.565 1.565 0 0 0-.54.66c-.127.28-.19.607-.19.98 0 .553.137 1.003.41 1.35.28.34.643.51 1.09.51.227 0 .437-.047.63-.14.193-.1.363-.217.51-.35l.36.55c-.22.193-.463.347-.73.46-.267.107-.547.16-.84.16Zm4.113 0c-.52 0-.883-.15-1.09-.45-.2-.3-.3-.69-.3-1.17v-2.69h-.72v-.62l.76-.05.1-1.36h.69v1.36h1.31v.67h-1.31v2.7c0 .3.053.533.16.7.113.16.31.24.59.24.087 0 .18-.013.28-.04l.27-.09.16.62c-.133.047-.28.087-.44.12-.153.04-.307.06-.46.06Zm3.722 0c-.433 0-.827-.1-1.18-.3a2.234 2.234 0 0 1-.84-.88c-.207-.38-.31-.833-.31-1.36 0-.533.103-.99.31-1.37.213-.38.487-.673.82-.88.333-.207.683-.31 1.05-.31.62 0 1.097.207 1.43.62.34.413.51.967.51 1.66 0 .087-.003.173-.01.26 0 .08-.007.15-.02.21h-3.28c.033.513.193.923.48 1.23.293.307.673.46 1.14.46.233 0 .447-.033.64-.1.2-.073.39-.167.57-.28l.29.54c-.207.133-.443.25-.71.35-.26.1-.557.15-.89.15Zm-1.53-2.94h2.6c0-.493-.107-.867-.32-1.12-.207-.26-.5-.39-.88-.39-.34 0-.647.133-.92.4-.267.26-.427.63-.48 1.11Zm1.52-2.91-1.57-1.53.58-.55 1.41 1.67-.42.41Zm3.041 5.73v-4.86h.68l.07.88h.03c.167-.307.37-.55.61-.73.24-.18.497-.27.77-.27.193 0 .367.033.52.1l-.16.72a1.336 1.336 0 0 0-.47-.08c-.207 0-.423.083-.65.25-.22.167-.413.457-.58.87V217h-.82Zm5.379.12c-.433 0-.826-.1-1.18-.3a2.234 2.234 0 0 1-.84-.88c-.206-.38-.31-.833-.31-1.36 0-.533.104-.99.31-1.37a2.39 2.39 0 0 1 .82-.88c.334-.207.684-.31 1.05-.31.62 0 1.097.207 1.43.62.34.413.51.967.51 1.66 0 .087-.003.173-.01.26 0 .08-.006.15-.02.21h-3.28c.034.513.194.923.48 1.23.294.307.674.46 1.14.46.234 0 .447-.033.64-.1.2-.073.39-.167.57-.28l.29.54c-.206.133-.443.25-.71.35-.26.1-.556.15-.89.15Zm-1.53-2.94h2.6c0-.493-.106-.867-.32-1.12-.206-.26-.5-.39-.88-.39-.34 0-.646.133-.92.4-.266.26-.426.63-.48 1.11Zm5.831 2.94c-.347 0-.677-.063-.99-.19a3.47 3.47 0 0 1-.82-.48l.41-.55c.213.167.433.307.66.42.227.107.483.16.77.16.32 0 .56-.073.72-.22a.724.724 0 0 0 .24-.54.57.57 0 0 0-.17-.42 1.225 1.225 0 0 0-.42-.28 6.24 6.24 0 0 0-.52-.22 8.41 8.41 0 0 1-.67-.29c-.22-.113-.4-.257-.54-.43-.14-.18-.21-.407-.21-.68 0-.393.147-.72.44-.98.3-.267.713-.4 1.24-.4.3 0 .58.053.84.16.26.107.483.237.67.39l-.4.52a2.606 2.606 0 0 0-.52-.31c-.18-.08-.377-.12-.59-.12-.307 0-.533.07-.68.21a.671.671 0 0 0-.21.49c0 .153.05.28.15.38.1.093.23.177.39.25.16.067.33.137.51.21.233.087.463.187.69.3.227.107.413.253.56.44.153.18.23.423.23.73 0 .26-.07.5-.21.72-.133.22-.333.397-.6.53-.26.133-.583.2-.97.2Zm98.605 0c-.64 0-1.143-.287-1.51-.86-.36-.58-.54-1.403-.54-2.47 0-1.073.18-1.89.54-2.45.367-.56.87-.84 1.51-.84.633 0 1.13.28 1.49.84.367.56.55 1.377.55 2.45 0 1.067-.183 1.89-.55 2.47-.36.573-.857.86-1.49.86Zm0-.66c.373 0 .673-.21.9-.63.227-.427.34-1.107.34-2.04s-.113-1.603-.34-2.01c-.227-.413-.527-.62-.9-.62s-.677.207-.91.62c-.227.407-.34 1.077-.34 2.01 0 .933.113 1.613.34 2.04.233.42.537.63.91.63Zm4.663 2.14 2.67-8.7h.6l-2.67 8.7h-.6Zm6.268-1.6v-.68h1.46v-4.7h-1.16v-.53c.293-.053.546-.117.76-.19.22-.08.416-.173.59-.28h.63v5.7h1.32v.68h-3.6Zm6.56.12c-.506 0-.926-.09-1.26-.27-.333-.18-.61-.38-.83-.6l.4-.54c.194.187.417.357.67.51.254.147.567.22.94.22.394 0 .724-.13.99-.39.274-.267.41-.623.41-1.07 0-.44-.123-.783-.37-1.03-.246-.247-.576-.37-.99-.37-.22 0-.41.033-.57.1a3.625 3.625 0 0 0-.52.29l-.44-.28.21-3.07h3.19v.71h-2.47l-.17 1.89c.154-.08.307-.143.46-.19.154-.047.327-.07.52-.07.367 0 .697.073.99.22.3.14.54.357.72.65.18.293.27.67.27 1.13 0 .46-.103.853-.31 1.18-.2.32-.463.563-.79.73a2.27 2.27 0 0 1-1.05.25Z"/>
  <rect width="127" height="19" x="227" y="168" fill="#CED9EB" opacity=".5" rx="9.5"/>
</svg>
