<svg xmlns="http://www.w3.org/2000/svg" width="541" height="357" fill="none"><g clip-path="url(#a)"><path fill="#E7ECF5" d="M0 0h541v357H0z"/><g filter="url(#b)"><g clip-path="url(#c)"><path fill="#E2E7EE" d="M62 60h780v56H62z"/><path fill="#ED6A5E" fill-rule="evenodd" d="M92 94a6 6 0 1 0 0-12 6 6 0 0 0 0 12Z" clip-rule="evenodd"/><path fill="#F4BF4F" fill-rule="evenodd" d="M112 94a6 6 0 1 0 0-12 6 6 0 0 0 0 12Z" clip-rule="evenodd"/><path fill="#61C554" fill-rule="evenodd" d="M132 94a6 6 0 1 0 0-12 6 6 0 0 0 0 12Z" clip-rule="evenodd"/><path fill="#F6F8FC" d="M62 116h780v344H62z"/></g></g><g filter="url(#d)"><rect width="369" height="52" x="117" y="153" fill="#0C419A" rx="4"/><g clip-path="url(#e)"><path fill="#fff" d="M144 174h2v2h-2v-2Zm0 4h2v6h-2v-6Zm1-9c-5.52 0-10 4.48-10 10s4.48 10 10 10 10-4.48 10-10-4.48-10-10-10Zm0 18c-4.41 0-8-3.59-8-8s3.59-8 8-8 8 3.59 8 8-3.59 8-8 8Z"/></g><rect width="191" height="19" x="165" y="169.5" fill="#CED9EB" opacity=".5" rx="9.5"/><path fill="#fff" d="M405.328 185v-10.464h6.32v1.568h-4.464v2.96h3.808v1.568h-3.808V185h-1.856Zm11.146.192c-.725 0-1.381-.16-1.968-.48a3.61 3.61 0 0 1-1.392-1.408c-.341-.618-.512-1.36-.512-2.224 0-.853.171-1.589.512-2.208.352-.618.806-1.093 1.36-1.424a3.363 3.363 0 0 1 1.744-.496c.715 0 1.312.16 1.792.48.48.31.843.747 1.088 1.312.246.555.368 1.2.368 1.936 0 .384-.026.683-.08.896h-4.992c.086.694.336 1.232.752 1.616.416.384.939.576 1.568.576.342 0 .656-.048.944-.144.299-.106.592-.25.88-.432l.624 1.152a5.606 5.606 0 0 1-1.248.608c-.458.16-.938.24-1.44.24Zm-2.096-4.864h3.488c0-.608-.133-1.082-.4-1.424-.266-.352-.666-.528-1.2-.528-.458 0-.869.171-1.232.512-.352.331-.57.811-.656 1.44Zm6.886 4.672v-7.856h1.52l.128 1.392h.064c.277-.512.613-.901 1.008-1.168.394-.277.8-.416 1.216-.416.373 0 .672.054.896.16l-.32 1.6a3.706 3.706 0 0 0-.384-.096 2.51 2.51 0 0 0-.432-.032c-.31 0-.635.123-.976.368-.342.235-.635.651-.88 1.248v4.8h-1.84Zm6.008 0v-7.856h1.52l.128 1.072h.064c.331-.352.688-.65 1.072-.896a2.47 2.47 0 0 1 1.328-.368c.576 0 1.035.128 1.376.384.352.246.619.587.8 1.024a6.378 6.378 0 0 1 1.168-1.008c.416-.266.87-.4 1.36-.4.832 0 1.446.272 1.84.816.395.544.592 1.312.592 2.304V185h-1.856v-4.688c0-.65-.101-1.109-.304-1.376-.192-.266-.49-.4-.896-.4-.49 0-1.04.326-1.648.976V185h-1.84v-4.688c0-.65-.101-1.109-.304-1.376-.192-.266-.496-.4-.912-.4-.49 0-1.04.326-1.648.976V185h-1.84Zm16.885.192c-.726 0-1.382-.16-1.968-.48a3.597 3.597 0 0 1-1.392-1.408c-.342-.618-.512-1.36-.512-2.224 0-.853.17-1.589.512-2.208.352-.618.805-1.093 1.36-1.424a3.36 3.36 0 0 1 1.744-.496c.714 0 1.312.16 1.792.48.48.31.842.747 1.088 1.312.245.555.368 1.2.368 1.936 0 .384-.027.683-.08.896h-4.992c.085.694.336 1.232.752 1.616.416.384.938.576 1.568.576.341 0 .656-.048.944-.144.298-.106.592-.25.88-.432l.624 1.152c-.374.246-.79.448-1.248.608-.459.16-.939.24-1.44.24Zm-2.096-4.864h3.488c0-.608-.134-1.082-.4-1.424-.267-.352-.667-.528-1.2-.528-.459 0-.87.171-1.232.512-.352.331-.571.811-.656 1.44Zm6.885 4.672v-7.856h1.52l.128 1.392h.064c.277-.512.613-.901 1.008-1.168.395-.277.8-.416 1.216-.416.373 0 .672.054.896.16l-.32 1.6a3.706 3.706 0 0 0-.384-.096 2.493 2.493 0 0 0-.432-.032c-.309 0-.635.123-.976.368-.341.235-.635.651-.88 1.248v4.8h-1.84Z"/></g></g><defs><clipPath id="a"><path fill="#fff" d="M0 0h541v357H0z"/></clipPath><clipPath id="c"><rect width="780" height="400" x="62" y="60" fill="#fff" rx="16"/></clipPath><clipPath id="e"><path fill="#fff" d="M133 167h24v24h-24z"/></clipPath><filter id="b" width="940" height="580" x="-18" y="60" color-interpolation-filters="sRGB" filterUnits="userSpaceOnUse"><feFlood flood-opacity="0" result="BackgroundImageFix"/><feColorMatrix in="SourceAlpha" result="hardAlpha" values="0 0 0 0 0 0 0 0 0 0 0 0 0 0 0 0 0 0 127 0"/><feOffset dy="2.767"/><feGaussianBlur stdDeviation="1.107"/><feColorMatrix values="0 0 0 0 0 0 0 0 0 0 0 0 0 0 0 0 0 0 0.0196802 0"/><feBlend in2="BackgroundImageFix" result="effect1_dropShadow_266_106199"/><feColorMatrix in="SourceAlpha" result="hardAlpha" values="0 0 0 0 0 0 0 0 0 0 0 0 0 0 0 0 0 0 127 0"/><feOffset dy="6.65"/><feGaussianBlur stdDeviation="2.66"/><feColorMatrix values="0 0 0 0 0 0 0 0 0 0 0 0 0 0 0 0 0 0 0.0282725 0"/><feBlend in2="effect1_dropShadow_266_106199" result="effect2_dropShadow_266_106199"/><feColorMatrix in="SourceAlpha" result="hardAlpha" values="0 0 0 0 0 0 0 0 0 0 0 0 0 0 0 0 0 0 127 0"/><feOffset dy="12.522"/><feGaussianBlur stdDeviation="5.009"/><feColorMatrix values="0 0 0 0 0 0 0 0 0 0 0 0 0 0 0 0 0 0 0.035 0"/><feBlend in2="effect2_dropShadow_266_106199" result="effect3_dropShadow_266_106199"/><feColorMatrix in="SourceAlpha" result="hardAlpha" values="0 0 0 0 0 0 0 0 0 0 0 0 0 0 0 0 0 0 127 0"/><feOffset dy="22.336"/><feGaussianBlur stdDeviation="8.935"/><feColorMatrix values="0 0 0 0 0 0 0 0 0 0 0 0 0 0 0 0 0 0 0.0417275 0"/><feBlend in2="effect3_dropShadow_266_106199" result="effect4_dropShadow_266_106199"/><feColorMatrix in="SourceAlpha" result="hardAlpha" values="0 0 0 0 0 0 0 0 0 0 0 0 0 0 0 0 0 0 127 0"/><feOffset dy="41.778"/><feGaussianBlur stdDeviation="16.711"/><feColorMatrix values="0 0 0 0 0 0 0 0 0 0 0 0 0 0 0 0 0 0 0.0503198 0"/><feBlend in2="effect4_dropShadow_266_106199" result="effect5_dropShadow_266_106199"/><feColorMatrix in="SourceAlpha" result="hardAlpha" values="0 0 0 0 0 0 0 0 0 0 0 0 0 0 0 0 0 0 127 0"/><feOffset dy="100"/><feGaussianBlur stdDeviation="40"/><feColorMatrix values="0 0 0 0 0 0 0 0 0 0 0 0 0 0 0 0 0 0 0.07 0"/><feBlend in2="effect5_dropShadow_266_106199" result="effect6_dropShadow_266_106199"/><feBlend in="SourceGraphic" in2="effect6_dropShadow_266_106199" result="shape"/></filter><filter id="d" width="389" height="72.001" x="107" y="144" color-interpolation-filters="sRGB" filterUnits="userSpaceOnUse"><feFlood flood-opacity="0" result="BackgroundImageFix"/><feColorMatrix in="SourceAlpha" result="hardAlpha" values="0 0 0 0 0 0 0 0 0 0 0 0 0 0 0 0 0 0 127 0"/><feOffset dy="1"/><feGaussianBlur stdDeviation="5"/><feColorMatrix values="0 0 0 0 0 0 0 0 0 0 0 0 0 0 0 0 0 0 0.12 0"/><feBlend in2="BackgroundImageFix" result="effect1_dropShadow_266_106199"/><feColorMatrix in="SourceAlpha" result="hardAlpha" values="0 0 0 0 0 0 0 0 0 0 0 0 0 0 0 0 0 0 127 0"/><feOffset dy="4"/><feGaussianBlur stdDeviation="2.5"/><feColorMatrix values="0 0 0 0 0 0 0 0 0 0 0 0 0 0 0 0 0 0 0.14 0"/><feBlend in2="effect1_dropShadow_266_106199" result="effect2_dropShadow_266_106199"/><feColorMatrix in="SourceAlpha" result="hardAlpha" values="0 0 0 0 0 0 0 0 0 0 0 0 0 0 0 0 0 0 127 0"/><feMorphology in="SourceAlpha" radius="1" result="effect3_dropShadow_266_106199"/><feOffset dy="2"/><feGaussianBlur stdDeviation="2"/><feColorMatrix values="0 0 0 0 0 0 0 0 0 0 0 0 0 0 0 0 0 0 0.2 0"/><feBlend in2="effect2_dropShadow_266_106199" result="effect3_dropShadow_266_106199"/><feBlend in="SourceGraphic" in2="effect3_dropShadow_266_106199" result="shape"/></filter></defs></svg>