<svg xmlns="http://www.w3.org/2000/svg" width="541" height="357" fill="none"><path fill="#E7ECF5" d="M0 0h541v357H0z"/><path fill="#fff" d="M63 88h415v181H63z"/><path fill="#000" fill-opacity=".87" d="M269.484 242.426v-.607h1.304v-4.196h-1.036v-.473c.262-.047.488-.104.679-.169a2.95 2.95 0 0 0 .526-.25h.563v5.088h1.178v.607h-3.214Zm5.955.107c-.571 0-1.021-.256-1.348-.768-.321-.518-.482-1.252-.482-2.205 0-.958.161-1.687.482-2.187.327-.499.777-.749 1.348-.749.565 0 1.009.25 1.33.749.327.5.491 1.229.491 2.187 0 .953-.164 1.687-.491 2.205-.321.512-.765.768-1.33.768Zm0-.589c.333 0 .601-.188.803-.563.203-.38.304-.987.304-1.821 0-.833-.101-1.431-.304-1.794-.202-.369-.47-.553-.803-.553-.333 0-.604.184-.812.553-.203.363-.304.961-.304 1.794 0 .834.101 1.441.304 1.821.208.375.479.563.812.563Z"/><g clip-path="url(#a)"><path fill="#000" fill-opacity=".38" d="m287.562 237.145 1.859 1.86 1.86-1.86h-3.719Z"/></g><path stroke="#000" stroke-opacity=".38" stroke-width=".558" d="M268.779 246.536h25.106"/><g clip-path="url(#b)"><path fill="#000" fill-opacity=".38" d="m413.188 235.887-.787-.787-3.348 3.347 3.348 3.348.787-.787-2.556-2.561 2.556-2.56Z"/></g><g clip-path="url(#c)"><path fill="#000" fill-opacity=".87" d="m441.412 235.1-.787.787 2.555 2.56-2.555 2.561.787.787 3.347-3.348-3.347-3.347Z"/></g><rect width="75" height="20" x="312" y="229" fill="#CED9EB" opacity=".5" rx="10"/><rect width="353" height="20" x="91" y="107" fill="#CED9EB" opacity=".5" rx="10"/><path stroke="#EEE" d="M91 136.5h353"/><rect width="353" height="20" x="91" y="147" fill="#CED9EB" opacity=".5" rx="10"/><path stroke="#EEE" d="M91 176.5h353"/><rect width="353" height="20" x="91" y="187" fill="#CED9EB" opacity=".5" rx="10"/><path stroke="#EEE" d="M91 216.5h353"/><rect width="61" height="20" x="190" y="229" fill="#CED9EB" opacity=".5" rx="10"/><defs><clipPath id="a"><path fill="#fff" d="M284.958 233.426h8.926v8.926h-8.926z"/></clipPath><clipPath id="b"><path fill="#fff" d="M404.59 231.752h13.39v13.39h-13.39z"/></clipPath><clipPath id="c"><path fill="#fff" d="M435.833 231.752h13.39v13.39h-13.39z"/></clipPath></defs></svg>