<svg xmlns="http://www.w3.org/2000/svg" width="541" height="357" fill="none"><path fill="#E7ECF5" d="M0 0h541v357H0z"/><path fill="#fff" d="M63 88h415v181H63z"/><path fill="#0C419A" d="m161 197.617 10.3 6.216-2.733-11.716 9.1-7.884-11.984-1.016-4.683-11.05-4.683 11.05-11.984 1.016 9.1 7.884-2.733 11.716 10.3-6.216Zm56 0 10.3 6.216-2.733-11.716 9.1-7.884-11.984-1.016-4.683-11.05-4.683 11.05-11.984 1.016 9.1 7.884-2.733 11.716 10.3-6.216Zm56 0 10.3 6.216-2.733-11.716 9.1-7.884-11.984-1.016-4.683-11.05-4.683 11.05-11.984 1.016 9.1 7.884-2.733 11.716 10.3-6.216Z"/><path stroke="#0C419A" stroke-width="2" d="m329.517 196.76-.517-.312-.517.312-8.271 4.992 2.195-9.408.137-.588-.456-.395-7.308-6.332 9.621-.816.601-.051.235-.555 3.763-8.878 3.763 8.878.235.555.601.051 9.622.816-7.309 6.332-.456.395.137.588 2.195 9.408-8.271-4.992Zm56 0-.517-.312-.517.312-8.271 4.992 2.195-9.408.137-.588-.456-.395-7.308-6.332 9.621-.816.601-.051.235-.555 3.763-8.878 3.763 8.878.235.555.601.051 9.622.816-7.309 6.332-.456.395.137.588 2.195 9.408-8.271-4.992Z"/><path fill="#0C419A" d="M229.896 230v-9.156h2.884c.682 0 1.288.089 1.82.266.532.177.952.471 1.26.882.308.411.462.971.462 1.68 0 .672-.154 1.227-.462 1.666a2.768 2.768 0 0 1-1.246.98c-.522.215-1.115.322-1.778.322h-1.316V230h-1.624Zm1.624-4.662h1.19c1.344 0 2.016-.555 2.016-1.666 0-.579-.177-.975-.532-1.19-.345-.224-.858-.336-1.54-.336h-1.134v3.192Zm8.009 4.83c-.57 0-.976-.173-1.218-.518-.234-.345-.35-.817-.35-1.414v-8.12h1.61v8.204c0 .196.037.336.112.42a.332.332 0 0 0 .238.112h.098c.037-.009.088-.019.154-.028l.21 1.204a2.528 2.528 0 0 1-.854.14Zm4.333 0c-.738 0-1.274-.238-1.61-.714-.336-.476-.504-1.148-.504-2.016v-4.312h1.61v4.102c0 .569.084.971.252 1.204.168.233.438.35.812.35.298 0 .56-.075.784-.224.233-.149.48-.392.742-.728v-4.704h1.61V230h-1.316l-.126-1.008h-.042a3.999 3.999 0 0 1-.98.854 2.332 2.332 0 0 1-1.232.322Zm8.213 0c-.794 0-1.358-.229-1.694-.686-.327-.467-.49-1.069-.49-1.806V224.4h-.98v-1.204l1.064-.07.196-1.876h1.344v1.876h1.75v1.274h-1.75v3.276c0 .803.322 1.204.966 1.204.121 0 .247-.014.378-.042.13-.037.242-.075.336-.112l.28 1.19a4.709 4.709 0 0 1-.644.168 3.243 3.243 0 0 1-.756.084Zm5.288 0c-.57 0-1.102-.14-1.596-.42a3.314 3.314 0 0 1-1.204-1.232c-.308-.541-.462-1.19-.462-1.946 0-.765.154-1.414.462-1.946.308-.541.709-.952 1.204-1.232a3.108 3.108 0 0 1 1.596-.434 3.14 3.14 0 0 1 1.61.434c.494.28.896.691 1.204 1.232.308.532.462 1.181.462 1.946 0 .756-.154 1.405-.462 1.946-.308.532-.71.943-1.204 1.232-.495.28-1.032.42-1.61.42Zm0-1.316c.504 0 .9-.21 1.19-.63.289-.42.434-.971.434-1.652 0-.691-.145-1.246-.434-1.666-.29-.42-.686-.63-1.19-.63-.504 0-.901.21-1.19.63-.28.42-.42.975-.42 1.666 0 .681.14 1.232.42 1.652.289.42.686.63 1.19.63Zm-2.366-7.35 1.554-1.89h1.624l1.554 1.89-.63.602-1.708-1.442h-.056l-1.708 1.442-.63-.602Zm9.399 8.666c-.794 0-1.358-.229-1.694-.686-.327-.467-.49-1.069-.49-1.806V224.4h-.98v-1.204l1.064-.07.196-1.876h1.344v1.876h1.75v1.274h-1.75v3.276c0 .803.322 1.204.966 1.204.121 0 .247-.014.378-.042.13-.037.242-.075.336-.112l.28 1.19a4.709 4.709 0 0 1-.644.168 3.243 3.243 0 0 1-.756.084Zm7.469 0c-.467 0-.933-.089-1.4-.266a4.663 4.663 0 0 1-1.204-.686l.756-1.036c.308.233.616.42.924.56.308.14.635.21.98.21.373 0 .649-.079.826-.238a.76.76 0 0 0 .266-.588.584.584 0 0 0-.224-.476 1.801 1.801 0 0 0-.546-.336 11.592 11.592 0 0 0-.7-.294 7.54 7.54 0 0 1-.896-.406 2.34 2.34 0 0 1-.714-.63c-.187-.261-.28-.583-.28-.966 0-.607.224-1.101.672-1.484.448-.383 1.055-.574 1.82-.574.485 0 .919.084 1.302.252.383.168.714.359.994.574l-.742.98a3.531 3.531 0 0 0-.742-.42 1.816 1.816 0 0 0-.77-.168c-.345 0-.602.075-.77.224a.662.662 0 0 0-.252.532c0 .271.14.476.42.616.28.14.607.275.98.406.317.112.625.252.924.42.299.159.546.369.742.63.205.261.308.607.308 1.036 0 .588-.229 1.092-.686 1.512-.457.411-1.12.616-1.988.616Zm5.833 0c-.597 0-1.087-.187-1.47-.56-.373-.373-.56-.859-.56-1.456 0-.737.322-1.307.966-1.708.644-.411 1.671-.691 3.08-.84a1.641 1.641 0 0 0-.294-.938c-.177-.271-.499-.406-.966-.406a2.65 2.65 0 0 0-.994.196c-.317.131-.63.289-.938.476l-.588-1.078a6.856 6.856 0 0 1 1.288-.63 4.464 4.464 0 0 1 1.54-.266c.859 0 1.498.257 1.918.77.43.504.644 1.237.644 2.198V230h-1.33l-.112-.756h-.056a4.953 4.953 0 0 1-.994.658 2.448 2.448 0 0 1-1.134.266Zm.518-1.26c.28 0 .532-.065.756-.196a4.96 4.96 0 0 0 .742-.56v-1.54c-.933.121-1.582.303-1.946.546-.364.233-.546.523-.546.868 0 .308.094.532.28.672.187.14.425.21.714.21Zm7.294 1.26c-.793 0-1.358-.229-1.694-.686-.326-.467-.49-1.069-.49-1.806V224.4h-.98v-1.204l1.064-.07.196-1.876h1.344v1.876h1.75v1.274h-1.75v3.276c0 .803.322 1.204.966 1.204.122 0 .248-.014.378-.042.131-.037.243-.075.336-.112l.28 1.19a4.633 4.633 0 0 1-.644.168 3.23 3.23 0 0 1-.756.084Zm2.693-.168v-6.874h1.61V230h-1.61Zm.812-8.078c-.289 0-.523-.084-.7-.252-.177-.168-.266-.392-.266-.672 0-.271.089-.49.266-.658.177-.168.411-.252.7-.252s.523.084.7.252a.866.866 0 0 1 .266.658c0 .28-.089.504-.266.672-.177.168-.411.252-.7.252Zm4.826 8.246c-.467 0-.933-.089-1.4-.266a4.663 4.663 0 0 1-1.204-.686l.756-1.036c.308.233.616.42.924.56.308.14.635.21.98.21.373 0 .649-.079.826-.238a.76.76 0 0 0 .266-.588.584.584 0 0 0-.224-.476 1.801 1.801 0 0 0-.546-.336 11.592 11.592 0 0 0-.7-.294 7.54 7.54 0 0 1-.896-.406 2.34 2.34 0 0 1-.714-.63c-.187-.261-.28-.583-.28-.966 0-.607.224-1.101.672-1.484.448-.383 1.055-.574 1.82-.574.485 0 .919.084 1.302.252.383.168.714.359.994.574l-.742.98a3.531 3.531 0 0 0-.742-.42 1.816 1.816 0 0 0-.77-.168c-.345 0-.602.075-.77.224a.662.662 0 0 0-.252.532c0 .271.14.476.42.616.28.14.607.275.98.406.317.112.625.252.924.42.299.159.546.369.742.63.205.261.308.607.308 1.036 0 .588-.229 1.092-.686 1.512-.457.411-1.12.616-1.988.616Zm4.447-.168v-5.6h-.924v-1.204l.924-.07v-.714c0-.719.178-1.307.532-1.764.355-.467.938-.7 1.75-.7a3.399 3.399 0 0 1 1.26.238l-.308 1.204a1.848 1.848 0 0 0-.756-.168c-.578 0-.868.387-.868 1.162v.742h1.344v1.274h-1.344v5.6h-1.61Zm5.612.168c-.597 0-1.087-.187-1.47-.56-.373-.373-.56-.859-.56-1.456 0-.737.322-1.307.966-1.708.644-.411 1.671-.691 3.08-.84a1.641 1.641 0 0 0-.294-.938c-.177-.271-.499-.406-.966-.406a2.65 2.65 0 0 0-.994.196c-.317.131-.63.289-.938.476l-.588-1.078a6.856 6.856 0 0 1 1.288-.63 4.464 4.464 0 0 1 1.54-.266c.859 0 1.498.257 1.918.77.43.504.644 1.237.644 2.198V230h-1.33l-.112-.756h-.056a4.953 4.953 0 0 1-.994.658 2.448 2.448 0 0 1-1.134.266Zm.518-1.26c.28 0 .532-.065.756-.196a4.96 4.96 0 0 0 .742-.56v-1.54c-.933.121-1.582.303-1.946.546-.364.233-.546.523-.546.868 0 .308.094.532.28.672.187.14.425.21.714.21Zm5.091 1.092v-6.874h1.61V230h-1.61Zm.812-8.078c-.289 0-.523-.084-.7-.252-.177-.168-.266-.392-.266-.672 0-.271.089-.49.266-.658.177-.168.411-.252.7-.252s.523.084.7.252a.866.866 0 0 1 .266.658c0 .28-.089.504-.266.672-.177.168-.411.252-.7.252Zm5.33 8.246c-.793 0-1.358-.229-1.694-.686-.327-.467-.49-1.069-.49-1.806V224.4h-.98v-1.204l1.064-.07.196-1.876h1.344v1.876h1.75v1.274h-1.75v3.276c0 .803.322 1.204.966 1.204.121 0 .247-.014.378-.042.131-.037.243-.075.336-.112l.28 1.19a4.67 4.67 0 0 1-.644.168 3.23 3.23 0 0 1-.756.084Z"/><rect width="191" height="19" x="177" y="131" fill="#CED9EB" opacity=".5" rx="9.5"/></svg>