<svg xmlns="http://www.w3.org/2000/svg" width="541" height="357" fill="none"><path fill="#E7ECF5" d="M0 0h541v357H0z"/><path fill="#fff" d="M63 88h415v181H63z"/><circle cx="364" cy="179" r="20.8333" fill="#EDEDED"/><path fill="#0084B2" d="M364 179c2.302 0 4.167-1.865 4.167-4.167 0-2.302-1.865-4.166-4.167-4.166-2.302 0-4.167 1.864-4.167 4.166 0 2.302 1.865 4.167 4.167 4.167Zm0 2.083c-2.781 0-8.333 1.396-8.333 4.167v2.083h16.666v-2.083c0-2.771-5.552-4.167-8.333-4.167Z"/><rect width="170" height="19" x="158" y="181" fill="#CED9EB" opacity=".5" rx="9.5"/><rect width="85" height="19" x="243" y="158" fill="#CED9EB" opacity=".5" rx="9.5"/></svg>