<svg width="541" height="357" viewBox="0 0 541 357" fill="none" xmlns="http://www.w3.org/2000/svg">
<rect width="541" height="357" fill="#E7ECF5"/>
<rect x="63" y="88" width="415" height="181" fill="white"/>
<circle cx="364" cy="179" r="20.8333" fill="#EDEDED"/>
<path d="M364 179C366.302 179 368.167 177.135 368.167 174.833C368.167 172.531 366.302 170.667 364 170.667C361.698 170.667 359.833 172.531 359.833 174.833C359.833 177.135 361.698 179 364 179ZM364 181.083C361.219 181.083 355.667 182.479 355.667 185.25V187.333H372.333V185.25C372.333 182.479 366.781 181.083 364 181.083Z" fill="#0084B2"/>
<rect opacity="0.5" x="158" y="181" width="170" height="19" rx="9.5" fill="#CED9EB"/>
<rect opacity="0.5" x="243" y="158" width="85" height="19" rx="9.5" fill="#CED9EB"/>
</svg>
