<svg xmlns="http://www.w3.org/2000/svg" fill-rule="evenodd" clip-rule="evenodd" image-rendering="optimizeQuality" shape-rendering="geometricPrecision" text-rendering="geometricPrecision" viewBox="0 0 600 268.4"><path fill="#005da8" d="M321 252v-54.8h-10.7v18.6c-.6-.6-2.9-1.6-6-1.6-12 0-16.3 8-16.3 19.4V249c0 11.5 4.3 19.4 16.4 19.4 9 0 16.5-4.4 16.5-16.3zm-10.8-1.2c0 5.3-1.4 8-5.8 8-3.8 0-5.9-2.4-5.9-8.5V232c0-6 2.1-8.6 5.9-8.6 3.8 0 5.8 2.6 5.8 8.6zm-189.6-53.7h15.7l9.2 41h.2l9.2-41h15.7v70.2h-10.5v-54.9h-.2l-11.5 54.9h-5.6l-11.5-54.9h-.2v54.9h-10.5zM342 267.3h-10.5V215H342zm.8-64.7c0 3.5-2.7 6.3-6.1 6.3a6.3 6.3 0 01-6.2-6.3c0-3.5 2.8-6.4 6.2-6.4 3.4 0 6.1 2.9 6.1 6.4zm-64.8 59.2v-33.6c0-9.5-5.6-14.2-15.4-14.2-9.9 0-16.4 5.8-17 16.3h10.6c0-4.4 1.2-7.3 6-7.3 3.5 0 5.3 2.3 5.3 6.7v4c-15.7 2.3-23.1 10.5-23.1 20.7 0 7.1 4 13.9 12 13.9 5.6 0 7.3-1.4 11.6-5 0 1 .2 2.3.6 4h10c-.1-1.8-.5-4-.5-5.5zm-10.6-7.7c-2.2 2.3-4.1 5-7.5 5-3 0-5-2.3-5-6.3 0-7.3 5.4-9 12.5-10.7zm-55 7.7v-33.6c0-9.5-5.6-14.2-15.5-14.2s-16.4 5.8-17 16.3h10.6c0-4.4 1.2-7.3 6-7.3 3.6 0 5.3 2.3 5.3 6.7v4c-15.8 2.3-23 10.5-23 20.7 0 7.1 3.9 13.9 12 13.9 5.4 0 7.2-1.4 11.5-5 0 1 .2 2.3.6 4h10.1c-.2-1.8-.6-4-.6-5.5zm-10.7-7.7c-2.2 2.3-4.1 5-7.5 5-3 0-5-2.3-5-6.3 0-7.3 5.5-9 12.5-10.7zm36.4 5c-5.4 0-5.8-3.1-5.8-7v-55h-10.6v54.7c0 8.8 3.8 16.2 16.4 16.2h1v-9zm146.5-16v-9.6c0-11.5-4.4-19.5-16.5-19.5-12 0-16.4 8-16.4 19.5v15.3c0 11.5 4.3 19.5 16.4 19.5 11 0 15.6-6.5 16.3-16.3v-1.4h-10.4v1.4c-.2 5.1-2.3 7.3-5.9 7.3-3.8 0-5.8-2.5-5.8-8.5v-7.6zm-22.3-11.6c0-6 2-8.5 5.8-8.5s5.9 2.5 5.9 8.5v2.7h-11.7zm-97.3-45.3h-11.3l13-70.2h14.4l14 70.2H284l-2.1-16h-14.4zm3.7-25.3h11.5l-5.7-31h-.2zm148.5 25.3v-52.3h10v4.4c2.6-4.4 8.6-5.4 12-5.4h2.2v11.4c-2-.6-3.7-1-6.8-1-3.6 0-7 2.3-7 7v36zM407 133.9v33.8c0 11.5-4.4 19.5-16.5 19.5-12 0-16.4-8-16.4-19.5V134h10.6v35.8c0 6 2 8.5 5.8 8.5s5.9-2.5 5.9-8.5v-35.8zm79 52.3v-33.8c0-11.2 4.4-19.5 16.5-19.5 12 0 16.4 8.3 16.4 19.5v33.8h-10.6v-35.7c0-5.6-2.2-8.3-5.8-8.3-3.7 0-5.9 2.7-5.9 8.3v35.7zm-9.2-5.5V147c0-9.5-5.6-14.2-15.4-14.2-9.9 0-16.4 5.7-17 16.3h10.6c0-4.4 1.2-7.3 6-7.3 3.5 0 5.2 2.3 5.2 6.7v4c-15.7 2.2-23 10.5-23 20.7 0 7.1 4 13.9 12 13.9 5.5 0 7.3-1.4 11.5-5 0 1 .2 2.3.6 4h10.1c-.2-1.8-.6-4-.6-5.5zm-10.6-7.7c-2.2 2.2-4.2 4.9-7.5 4.9-3 0-5-2.2-5-6.2 0-7.4 5.4-9 12.5-10.7zm-228.2 5c-5.4 0-5.8-3.1-5.8-7v-55h-10.5v54.6c0 8.9 3.8 16.3 16.4 16.3h1v-9zm72-32c0-2.7 2-4.1 4.8-4.1 3.6 0 5 2 5.6 6.5l9.5-.8c-1-6.8-4.3-14.6-15.6-14.6-8.3 0-14.8 5.7-14.8 14 0 14.3 20.7 17.7 20.7 26.7 0 3-2 4.6-5 4.6-5 0-6.5-4-7.2-8.3l-9.8 1.6c1.2 10 7.3 15.6 17 15.6 9 0 15.5-4.8 15.5-14.1 0-15.6-20.8-18.9-20.8-27zm36.7 0c0-2.7 2-4.1 4.9-4.1 3.5 0 5 2 5.6 6.5l9.4-.8c-1-6.8-4.2-14.6-15.5-14.6-8.3 0-14.8 5.7-14.8 14 0 14.3 20.7 17.7 20.7 26.7 0 3-2 4.6-5 4.6-5 0-6.5-4-7.2-8.3l-9.8 1.6c1.2 10 7.3 15.6 17 15.6 9 0 15.5-4.8 15.5-14.1 0-15.6-20.8-18.9-20.8-27zM600 162v-9.6c0-11.5-4.3-19.5-16.4-19.5-12.1 0-16.4 8-16.4 19.5v15.3c0 11.5 4.3 19.5 16.4 19.5 11 0 15.5-6.5 16.3-16.4v-1.4h-10.5v1.4c-.2 5.2-2.3 7.4-5.8 7.4-3.8 0-5.9-2.5-5.9-8.5V162zm-22.3-11.6c0-6 2.1-8.5 5.9-8.5 3.7 0 5.8 2.5 5.8 8.5v2.7h-11.7zM243.1 116v10h3.1l-3 7.9h5.1l4.5-8v-10zm306.5 52.9v2c-.2 5.2-2.3 7.4-5.8 7.4-3.8 0-5.8-2.6-5.8-8.6v-19.3c0-6 2-8.5 5.8-8.5s5.9 2.5 5.9 8.5v2h10.5c0-11.4-4.3-19.4-16.4-19.4-12 0-16.4 8-16.4 19.4v15.4c0 11.5 4.3 19.4 16.4 19.4 13 0 16.4-9.3 16.4-18.2zM27.1 150.4c.6-1.2.8-3 .6-4.8-.6-2.6-2.4-3.8-4.6-3.3-2 .4-3 1.6-3.6 4.5-.6 3.5-2.1 5.8-5.1 6.4-3.4.6-6.5-1.4-7.2-5.1-.4-2 0-3.5.2-4.5l2.4.2c-.2.6-.6 2.1-.2 3.9.6 2.7 2.5 3.3 4 3 2-.4 2.8-1.8 3.4-4.7.8-3.6 2.3-5.6 5.5-6.2 3.3-.6 6.7 1 7.6 5.5.4 1.8 0 4-.4 5.2zM0 122.9l4 3.7v2.1l-4-2.6zm16.9-1v7.7l8-.2-.2-8.6h2.5l.2 11.2-22.3.6-.2-10.7h2.4l.2 8.2h7l-.2-7.7zM29 101.3c.4 1 .6 3 .2 5.4-.8 5.5-5.4 9-12.6 8-7-1-11-6-10-12 .4-2.4 1.2-4 1.6-4.6l2.2 1c-.6.8-1.2 2.2-1.6 3.8-.6 4.6 2.1 8.2 8 9 5.3.9 9.2-1.3 10-6.1.1-1.6 0-3.2-.3-4.3zM10 88.8l12.4 4.5c6.5 2.4 10 .4 11.4-3.5 1.4-4 0-8-6.5-10.3L15 75l-.8 2.5L26.7 82c4.6 1.6 6 4.2 5 7-.8 2.4-3.6 3.6-8.2 2L11 86.3zm10.5-24c.4-1.1 1.2-2.9 2.1-4.4 1.4-2.3 2.9-3.6 4.6-4 1.4-.3 3 0 4.4.9a6 6 0 012.9 6c1.4-1 3.1-1 5.4 0 3 1 5 1.9 6 1.9l-1.4 2.3c-.8 0-2.6-.6-5.3-1.6-2.9-1-4.4-.8-5.7 1.2l-1.2 2 8.2 5-1.4 2.3zm10 3.1l1.3-2.2c1.4-2.3.8-4.7-1.4-6C28 58 26 59 24.6 61.5l-1.2 2.3zM33 46l1.6-2 17.1 14.3-1.6 2zm18.8-15.8l-1.6-1.8-10.8 10 1.6 1.9 4.5-4.2 13.4 14.6 1.8-1.8-13.4-14.5zM71.4 28L65.1 32l4.4 6.7 7.2-4.8 1.4 2-9.4 6.2-12.3-18.5 9-6 1.4 2-6.8 4.6 3.9 5.8 6.4-4.2zM61.7 14l-1 5.4-1.8 1.2v-4.8zm29.4 12c1.4.3 3.1.3 4.8 0 2.5-.9 3.5-2.8 2.8-5-.6-2-2-2.8-5-3-3.5-.2-6-1.4-7-4.4-1-3.3.6-6.5 4.3-7.7 2-.6 3.5-.6 4.4-.4v2.4c-.8-.2-2.1-.4-3.8 0-2.6.8-3 3-2.5 4.4.6 2 2 2.5 5 2.8 3.7.4 5.9 1.6 6.9 4.6 1 3.3 0 6.9-4.6 8.3-1.8.6-4 .6-5.3.2zm23.3-2.1c-5.3.8-9.5-3.2-10.5-10-1-7 2.2-12 7.4-12.8 5.5-.8 9.6 3.3 10.5 9.9 1.2 7.5-2.4 12.2-7.4 12.9zm-.2-2.3c4-.6 5.7-5.1 5-10.1-.6-4.4-3.4-8.7-7.6-8-4.2.6-5.7 5.3-5 10 .6 4.7 3.6 8.7 7.6 8zm27.3.6c-1 .4-2.9 1-5.3.8-5.6-.2-9.6-4.5-9.3-11.8.4-7 4.8-11.5 11-11.2a9 9 0 014.6 1.2l-.8 2.3c-.8-.6-2.2-1-3.9-1.2-4.6-.2-7.9 3-8.2 8.8-.2 5.5 2.4 9 7.2 9.3 1.6 0 3.2-.2 4.3-.8zm12.1-19.6l-2.5-.4-4.2 21.8 2.5.4zm7.9 17.6l-4.2 6-2.5-.8 13.7-18.8 2.9 1-.8 23.2-2.6-1 .2-7.3zm6.9 0l.2-6.7c0-1.6.2-2.8.4-4.1a23 23 0 01-2.3 3.5l-4 5.4zm6.5 12.9l10.9-19.4 2.3 1.2-9.8 17.3 7.4 4.2-1.2 2zm29.5 4.5l-1.4 1.8-6-4.8-5 6.3 6.8 5.4-1.6 1.8-8.8-7 13.8-17.4 8.5 6.7-1.6 1.8-6.4-5.1-4.4 5.5zM65 89.3v2.6h16.4l1.8-2.6zm6.9 7.8c1.6 3.8.4 9.2-2 12 4.3 5.4 15 3.1 20.7 1.6 1.6-.4 2.8-3.2 4.3-2 .4.3 3-2.5 2.7 0 0 1.5-.6 3.2-2.3 3.8l-4.7 1.4c-6.2 2-9.5 2.8-15.7 5.7-2.8 1.6-2 7-1.6 9 .4 2 2.3 9 .6 12.6-1.4 3-6.1 5.6-6.2 9.2 0 1.6 2.6 3.4 1 4.7-1 .8-1.6 1-2.2.4 0 0-4.7-4.8-4.1-6.4 0-.6 5.2-8.1 3-11.5-1.2 1.2-1.4 4.3-4 5.5-1.1.6-2.8-.8-3.9-.2-.4.2-.4 1.8-.8 2.2-.4.4-2 .4-2.4-.4-1-2-.6-5.3-.2-7 .6-2.4 5.6.3 4-3.2-.6-1.2-1.4-3-1.4-5.6 0-2 1.8-4.4 0-5.4s-6.4-3-6.5-5.2c-.6-5.6 9.8-5.6 12.2-10.6 0-2.4-3-4.4-2.4-8.2A5 5 0 0164 95c3.1-.4 5 0 7.5 1.8z" class="fil2"/><path fill="#005da8" d="M182.4 183.4c-3.2-.8-6.9-3-8.7-6-1.2-2-2.1-4-3.2-6.3-3.4-7.7-5.4-16-7.7-18.8-4-5-11.8-11.9-17-15.3-1.6-1-3-1.8-4.3-2.3 1.2-6.1 1-12.7 1-12.7 0-1.2 0-1.4.4-1.8 1.4-1 2.2-2.4 1.8-4.4l-1.4-3.2c1.8.8 10.1 2.7 12.5 2.5 4.2-.2 14-7 15.5-8.1 1-.6 1.8-.8 2.2-1 .6 0 2-1 2.3-2 0-.4-.2-3.3-1.2-3.4-.4 0-1.6.6-2 .6l-.8-.4c-.6 0-1 .8-1.4 1.2-.4.6-.4 1.6-.8 2-.6.8-10.1 3.5-13.3 5-.6.2-1.2.4-1.6.2-2.5-.8-12.6-6.5-16.5-5.7-1.2.2-3.3 1-4.1 0-.4-.6-.8-1.4-.4-2 .4-.9 2.5-1 2.9-2.1.4-1.2-.2-3.4-.2-3.5 0-.4.4-.6.4-1s-.6-.8-1.2-1.6-.8-3-1.4-3.9c0-.2.4-2.2-1.8-3.5-2.3-1.4-6-1.6-8 .2-1.2 1-2.8.6-4 1.4-2.4 1.2-.8 3.7-4.8 7.3-1.6 1.6-.6 4.5-.2 5.1-1.6 3.1 1.2 6.8 4 6.1.7.8 1.3 1.2 2.3 1.2v.2l-2.4 1.2c-1.6.8-2.4 1.8-3.8 3.1-4.4 4.3-11 11-26.6 18.8-1.8 1.2-6.9.6-6.9 1.8.4.6 1.4 1 1.4 1 0 .6-1.8 1-3 1.2-.7.6.9 1.2 1.5 1.8 3.5.6 5.3 0 8.2-2.6 11.9-4.6 20.7-9.1 30.4-15.4 2-1.4 3.2 0 4.8 6.2.6 2.4-2.5 4.3-3.7 7.7-1.4 3.7-1.2 6.5-.2 8.7-1.2 2.5-4.5 5.7-4.5 5.7s-8 6.7-12.2 10.7c-3.5 3.6-7.8 2.7-11 4.3-3.5 1.6-6.5 4.2-9.4 6.5-2 1.8-4.1 3.3-6.9 4.4-1 .4-1.6.6-2.7.8-1.4 0-2.3 1.6-2.2 2.8 0 1.2 1.2 3.6 2.2 5.7.6 1.2 1.8 4 3.6 4.3 1.2.2 3.6.8 4.1-.4.8-1.4-2.3-1.8-2.5-3.6 0-1.2-.2-3 0-4.2.6-2 3.4-3.3 5-4.2 5.2-2.7 20.4-6.3 24.9-7.7 6.5-2.8 11.7-5.2 16-8 3.7-2.3 6.8-5.9 9.1-8.8a261 261 0 0019.3 8.3c3.3 1.2 1.4 3.3 3.3 8 1.2 3.3 3.6 5.7 11.2 14.7 1.2 1.6 0 2.6 0 4.2.2 1.8 1.2 1.8 2.8 1.8H182.6c.8 0 2.2-.2 2.2-1.2 0-1.2-2.1-1.2-3.1-1.4z" class="fil2"/><path fill="#005da8" d="M98.7 50a6.4 6.4 0 00-5.4 4.3c-.6 1.8-1 4.2.2 6.6.6 1.2 2 1.8 3.4 2.3l2 .6c1 .4 1 1.2 2.2 1 .8 0 1.4-.2 2.3 0 .8 0 2.7.4 3-.6 0 1.8-.2 7.3-1.2 7.8-1.4.2-2-.6-5.2-1.4-3.2-1-10.6-1.8-10.8 3.9-.2 9.2.8 12.2-5.5 20-1 1.4-3 1.4-1.8 2.8.8.8 2.3.2 3-.4 1.6 4 7-2 8.2-3 2.5-2-.2-3.6.8-5.5 2-3.8 5-5.5 5.8-8.4 3.2 2.5 7 4.5 11 4.2 1.6-.4 3.2-1 5-2.8 1.8-1.8 2.4-10.5 2.5-14.7.4-8.4 6-6.3 13.5-4.6 2.8.6 8.5 3.3 9.2 3.6.8.2 2.4 2.2 3 2.4l.7-.2c.4-.4 1.4.4 2.5.2.8 0 1.6-2 1.6-2.2-.6-1-4.2-2.4-6-2.7-2-1-6.5-3.8-10-5.1-8.3-3-17-7.2-24.9-2.5-3.3-1.4-3.3-5.6-9.1-5.2zM65 58.3v2.6h25.7v-2.6zm75.7 0l.8.4s2.5 1.4 1.6 1l2.2 1H184V58zm45.2 5.5H182c-1.8 0-3.2.8-4 2.4-.5 1.8 0 1.4-.3 3-.6 1.6-2.5 2.4-.6 3.6V76c0 1.2 1.4 1.2 2 1.4-7.5 5.4-21 4.5-27.5.2-1.2-.8-5.5-.6-5.6 0 0 1.2 2.8 1.4 3.8 2.5-.4 0-1.2 0-1 .6.4.6 5.4 1.6 5.4 1.6a42 42 0 0014.6 4.8c9.5 1.4 12.2 1.8 13.5 7.9 1.2 6.2-.2 11.9-1.6 20.3-1.2 7.6-.4 12.3.8 19.6.2 1.4 1 3.7.2 4.2-1.4 1.2-4.8 2.2-6.3 3.5-.6 2.2 5.4.8 9.4 1 2 0 2.4-2 2.4-3 .4-11.7 1.6-15.3 3.4-22.5 1 6.2 3 16.7 4.3 23-1.6 1.9-5.7 3.6-4.7 4.6 1.2 1.2 3.3 1 4.4.6 2.6-.6 4-1.4 6-3.1 0 0 2-25.4 1.3-38-.4-6.9 8.2-11.8 11.7-18 .8-1.6.8-3-1-4.3-6.2-4-13.4-11-20.4-10-3.7-.1-.6-4.1-1.6-5.7-1.2-2.2-1.8-3.4-4.6-3.6zm15.5 20.6l6.4 2.4c-1 1.6-4.7 6.1-6 9.7.5-2.6-1.1-9.6-.3-12.1zM71.4 152c.4 1 .8 1.8.8 2.5h31l3-2.5zm94.7 0l1.2 2.5H184v-2.5zM65 183.3v2.6h8.9l-1.6-2.6zm20.6 0c.6 1 .6 1.8.6 2.6h80.5c0-.4-.4-.6-.4-1.2v-1.4H85.5z"/><path fill="#005da8" d="M177 120.8h-30.5l-.8 1v1.6h31.5v-.6-1.8zM76.5 123v.4h19.2l4.2-2.6H82.3a94.8 94.8 0 01-5.7 2.2zm91.8-32.6l-3.1-.8h-27.3a38.4 38.4 0 001 2.6h38.1c-1.4-.6-3.9-1.2-8.7-1.8zM97 89.7c0 .6.4 1.4.2 2.5H114l1.6-2.6H97z" class="fil2"/></svg>
