<svg width="106" height="48" viewBox="0 0 106 48" fill="none" xmlns="http://www.w3.org/2000/svg">
<g clip-path="url(#clip0)">
<path d="M58.5206 7.75821C58.5296 8.33121 59.0201 8.56446 59.5548 8.56446C59.9433 8.56446 60.4383 8.41521 60.4383 7.95246C60.4383 7.55421 59.8758 7.41621 58.9091 7.21146C58.1298 7.04571 57.3506 6.77721 57.3506 5.93496C57.3506 4.71171 58.4343 4.39746 59.4896 4.39746C60.5606 4.39746 61.5476 4.74996 61.6548 5.92596H60.3716C60.3318 5.41671 59.9351 5.27646 59.4491 5.27646C59.1476 5.27646 58.7006 5.33346 58.7006 5.72196C58.7006 6.19296 59.4596 6.25821 60.2298 6.43521C61.0166 6.60996 61.7853 6.88896 61.7853 7.77696C61.7853 9.03621 60.6663 9.44346 59.5458 9.44346C58.4073 9.44346 57.2943 9.02796 57.2373 7.75971H58.5206" fill="#1D508E"/>
<path d="M66.1037 6.97048C65.8749 7.16398 65.4002 7.17373 64.9832 7.24798C64.5654 7.33123 64.1867 7.46923 64.1867 7.95148C64.1867 8.44198 64.5752 8.56348 65.0132 8.56348C66.0677 8.56348 66.1044 7.74898 66.1044 7.46023V6.97048H66.1037ZM62.9897 5.99923C63.0662 4.76773 64.1949 4.39648 65.2967 4.39648C66.2754 4.39648 67.4529 4.61023 67.4529 5.75848V8.24848C67.4529 8.68423 67.4994 9.11848 67.6247 9.31273H66.2552C66.2079 9.16498 66.1712 9.00748 66.1614 8.84998C65.7354 9.28573 65.1099 9.44248 64.5077 9.44248C63.5792 9.44248 62.8374 8.98948 62.8374 8.00773C62.8374 6.92323 63.6752 6.66448 64.5077 6.55348C65.3342 6.43423 66.1044 6.46048 66.1044 5.92498C66.1044 5.36023 65.7062 5.27548 65.2329 5.27548C64.7184 5.27548 64.3877 5.48098 64.3382 5.99923H62.9897Z" fill="#1D508E"/>
<path d="M68.9722 4.52725H70.2539V5.1925H70.2817C70.6229 4.65625 71.2147 4.396 71.7817 4.396C73.2157 4.396 73.5772 5.1835 73.5772 6.3685V9.31225H72.2287V6.60925C72.2287 5.82325 71.9917 5.43325 71.3647 5.43325C70.6334 5.43325 70.3214 5.83225 70.3214 6.8035V9.313H68.9722V4.52725Z" fill="#1D508E"/>
<path d="M76.7838 4.52707H77.7716V5.40607H76.7838V7.77532C76.7838 8.22082 76.8986 8.33107 77.3568 8.33107C77.5001 8.33107 77.6313 8.32282 77.7723 8.29507V9.32182C77.5451 9.35857 77.2511 9.36907 76.9856 9.36907C76.1576 9.36907 75.4368 9.18232 75.4368 8.22982V5.40607H74.6216V4.52707H75.4368V3.09082H76.7846V4.52707" fill="#1D508E"/>
<path d="M81.3318 3.93389H80.3928L81.304 2.61914H82.7943L81.3318 3.93389ZM82.1958 6.40664C82.072 5.74064 81.7788 5.38889 81.1255 5.38889C80.2683 5.38889 80.02 6.03539 80.0035 6.40664H82.1958ZM80.0043 7.23914C80.0403 8.07314 80.4588 8.45114 81.2095 8.45114C81.751 8.45114 82.1875 8.12789 82.273 7.83089H83.4603C83.08 8.96114 82.273 9.44189 81.163 9.44189C79.6165 9.44189 78.6543 8.40539 78.6543 6.92339C78.6543 5.48939 79.6698 4.39589 81.163 4.39589C82.834 4.39589 83.6403 5.76689 83.5458 7.23914H80.0043V7.23914Z" fill="#1D508E"/>
<path d="M57.7689 17.1703H56.9634V16.2928H57.7689V15.9208C57.7689 15.0785 58.3081 14.4673 59.4106 14.4673C59.6491 14.4673 59.8944 14.4965 60.1209 14.504V15.4858C59.9596 15.4685 59.7999 15.4588 59.6289 15.4588C59.2689 15.4588 59.1159 15.6065 59.1159 16.0048V16.2928H60.0459V17.1703H59.1159V21.077H57.7689V17.1703Z" fill="#1D508E"/>
<path d="M64.1674 18.7351C63.9401 18.9301 63.4654 18.9398 63.0454 19.0141C62.6291 19.0966 62.2489 19.2353 62.2489 19.7176C62.2489 20.2088 62.6389 20.3288 63.0769 20.3288C64.1299 20.3288 64.1681 19.5128 64.1681 19.2271V18.7351H64.1674ZM61.0519 17.7638C61.1299 16.5316 62.2601 16.1626 63.3589 16.1626C64.3376 16.1626 65.5166 16.3741 65.5166 17.5231V20.0138C65.5166 20.4488 65.5631 20.8853 65.6854 21.0773H64.3204C64.2724 20.9303 64.2356 20.7713 64.2251 20.6153C63.7976 21.0496 63.1736 21.2071 62.5729 21.2071C61.6444 21.2071 60.9004 20.7556 60.9004 19.7738C60.9004 18.6901 61.7366 18.4298 62.5729 18.3196C63.3979 18.1996 64.1681 18.2273 64.1681 17.6911C64.1681 17.1263 63.7699 17.0423 63.2951 17.0423C62.7821 17.0423 62.4499 17.2463 62.4041 17.7646H61.0519V17.7638Z" fill="#1D508E"/>
<path d="M67.0718 16.2931H68.3445V16.9396H68.3633C68.715 16.4506 69.2273 16.1626 69.8633 16.1626C70.4798 16.1626 71.031 16.3831 71.2958 16.9591C71.5815 16.5421 72.0923 16.1626 72.78 16.1626C73.8218 16.1626 74.5725 16.6336 74.5725 17.8748V21.0773H73.227V18.3646C73.227 17.7263 73.167 17.1983 72.3983 17.1983C71.6408 17.1983 71.4975 17.8096 71.4975 18.4111V21.0773H70.1468V18.3931C70.1468 17.8366 70.1865 17.1983 69.3338 17.1983C69.066 17.1983 68.421 17.3656 68.421 18.3016V21.0773H67.0718V16.2931Z" fill="#1D508E"/>
<path d="M76.1475 16.293H77.4997V21.0773H76.1475V16.293ZM77.4997 15.5513H76.1475V14.4683H77.4997V15.5513Z" fill="#1D508E"/>
<path d="M80.421 14.4673H79.0718V21.077H80.421V14.4673Z" fill="#1D508E"/>
<path d="M83.3446 14.4673H81.9961V21.077H83.3446V14.4673Z" fill="#1D508E"/>
<path d="M88.1868 18.1709C88.0645 17.5041 87.7698 17.1516 87.1165 17.1516C86.2593 17.1516 86.0125 17.8011 85.996 18.1709H88.1868ZM85.996 19.0041C86.0335 19.8359 86.449 20.2184 87.1998 20.2184C87.7413 20.2184 88.1778 19.8929 88.2648 19.5966H89.4505C89.0688 20.7261 88.2648 21.2061 87.154 21.2061C85.6045 21.2061 84.6445 20.1704 84.6445 18.6891C84.6445 17.2536 85.6608 16.1616 87.154 16.1616C88.8243 16.1616 89.632 17.5311 89.536 19.0041H85.996V19.0041Z" fill="#1D508E"/>
<path d="M57.4751 28.0562H58.7553V28.9465H58.7741C59.0201 28.3457 59.6868 27.9287 60.3446 27.9287C60.4383 27.9287 60.5478 27.9452 60.6363 27.9737V29.1962C60.5118 29.1677 60.3108 29.1505 60.1526 29.1505C59.1626 29.1505 58.8228 29.8427 58.8228 30.6872V32.845H57.4751V28.0562Z" fill="#1D508E"/>
<path d="M64.7771 29.937C64.6541 29.2695 64.3593 28.9177 63.7031 28.9177C62.8488 28.9177 62.6013 29.5642 62.5826 29.937H64.7771ZM62.5826 30.7687C62.6208 31.6035 63.0378 31.9807 63.7893 31.9807C64.3301 31.9807 64.7681 31.659 64.8513 31.3612H66.0393C65.6598 32.4922 64.8513 32.9707 63.7413 32.9707C62.1918 32.9707 61.2363 31.935 61.2363 30.4552C61.2363 29.0197 62.2518 27.9277 63.7413 27.9277C65.4138 27.9277 66.2201 29.2972 66.1248 30.7687H62.5826Z" fill="#1D508E"/>
<path d="M69.1049 28.0559H70.0934V28.9364H69.1049V31.3071C69.1049 31.7504 69.2189 31.8599 69.6764 31.8599C69.8197 31.8599 69.9502 31.8509 70.0942 31.8239V32.8521C69.8639 32.8889 69.5729 32.8986 69.3059 32.8986C68.4794 32.8986 67.7579 32.7111 67.7579 31.7586V28.9349H66.9404V28.0544H67.7579V26.6196H69.1057V28.0559" fill="#1D508E"/>
<path d="M71.2148 28.0562H72.4966V28.9465H72.5123C72.7628 28.3457 73.4266 27.9287 74.0806 27.9287C74.1751 27.9287 74.2898 27.9452 74.3761 27.9737V29.1962C74.2501 29.1677 74.0543 29.1505 73.8916 29.1505C72.9061 29.1505 72.5618 29.8427 72.5618 30.6872V32.845H71.2156V28.0562" fill="#1D508E"/>
<path d="M78.4389 30.5025C78.2109 30.696 77.7354 30.7057 77.3169 30.7785C76.8999 30.8625 76.5204 31.0012 76.5204 31.482C76.5204 31.9725 76.9111 32.0947 77.3476 32.0947C78.4006 32.0947 78.4396 31.2787 78.4396 30.9907V30.5025H78.4389ZM75.3234 29.5282C75.3984 28.2952 76.5301 27.9277 77.6319 27.9277C78.6091 27.9277 79.7866 28.14 79.7866 29.2882V31.7782C79.7866 32.2132 79.8331 32.6467 79.9584 32.8432H78.5889C78.5416 32.6947 78.5056 32.5372 78.4959 32.3812C78.0669 32.8147 77.4406 32.9707 76.8421 32.9707C75.9136 32.9707 75.1719 32.52 75.1719 31.5375C75.1719 30.4552 76.0074 30.1942 76.8421 30.084C77.6694 29.9632 78.4381 29.9902 78.4381 29.4555C78.4381 28.8915 78.0391 28.806 77.5659 28.806C77.0514 28.806 76.7184 29.0107 76.6741 29.5282H75.3234Z" fill="#1D508E"/>
<path d="M81.3442 28.0561H82.6927V32.8441H81.3442V28.0561ZM82.6927 27.3174H81.3442V26.2344H82.6927V27.3174Z" fill="#1D508E"/>
<path d="M85.9381 28.0559H86.9259V28.9364H85.9381V31.3071C85.9381 31.7504 86.0529 31.8599 86.5096 31.8599C86.6514 31.8599 86.7841 31.8509 86.9266 31.8239V32.8521C86.6979 32.8889 86.4054 32.8986 86.1384 32.8986C85.3126 32.8986 84.5911 32.7111 84.5911 31.7586V28.9349H83.7759V28.0544H84.5911V26.6196H85.9389V28.0559" fill="#1D508E"/>
<path d="M91.3503 29.937C91.2273 29.2695 90.9326 28.9177 90.2786 28.9177C89.4236 28.9177 89.1769 29.5642 89.1589 29.937H91.3503ZM89.1589 30.7687C89.1971 31.6035 89.6134 31.9807 90.3641 31.9807C90.9041 31.9807 91.3421 31.659 91.4276 31.3612H92.6118C92.2346 32.4922 91.4276 32.9707 90.3161 32.9707C88.7689 32.9707 87.8081 31.935 87.8081 30.4552C87.8081 29.0197 88.8244 27.9277 90.3161 27.9277C91.9863 27.9277 92.7926 29.2972 92.6996 30.7687H89.1589Z" fill="#1D508E"/>
<path d="M58.5206 43.0529C58.5296 43.6252 59.0201 43.8584 59.5548 43.8584C59.9433 43.8584 60.4383 43.7092 60.4383 43.2472C60.4383 42.8497 59.8758 42.7087 58.9091 42.5069C58.1298 42.3382 57.3506 42.0727 57.3506 41.2304C57.3506 40.0057 58.4343 39.6899 59.4896 39.6899C60.5606 39.6899 61.5476 40.0432 61.6548 41.2199H60.3716C60.3318 40.7107 59.9351 40.5719 59.4491 40.5719C59.1476 40.5719 58.7006 40.6274 58.7006 41.0167C58.7006 41.4907 59.4596 41.5514 60.2298 41.7299C61.0166 41.9047 61.7853 42.1837 61.7853 43.0724C61.7853 44.3324 60.6663 44.7374 59.5458 44.7374C58.4073 44.7374 57.2943 44.3212 57.2373 43.0537H58.5206" fill="#1D508E"/>
<path d="M66.3517 41.6999C66.2272 41.0354 65.934 40.6829 65.2777 40.6829C64.4235 40.6829 64.1775 41.3309 64.1573 41.6999H66.3517ZM64.1573 42.5347C64.1955 43.3664 64.614 43.7467 65.364 43.7467C65.9078 43.7467 66.3428 43.4242 66.426 43.1264H67.6155C67.236 44.2567 66.426 44.7367 65.316 44.7367C63.7695 44.7367 62.8125 43.7009 62.8125 42.2182C62.8125 40.7827 63.8265 39.6899 65.316 39.6899C66.9863 39.6899 67.7933 41.0632 67.6995 42.5347H64.1573Z" fill="#1D508E"/>
<path d="M68.9722 39.8214H70.2539V40.7117H70.2727C70.5172 40.1079 71.1839 39.6909 71.8387 39.6909C71.9339 39.6909 72.0479 39.7104 72.1334 39.7412V40.9614C72.0104 40.9337 71.8094 40.9149 71.6497 40.9149C70.6612 40.9149 70.3214 41.6079 70.3214 42.4524V44.6109H68.9722V39.8214Z" fill="#1D508E"/>
<path d="M75.8546 44.61H74.3546L72.6738 39.8213H74.0906L75.1248 43.0883H75.1428L76.1763 39.8213H77.5158L75.8546 44.61Z" fill="#1D508E"/>
<path d="M78.5884 39.8213H79.9391V44.6108H78.5884V39.8213ZM79.9391 39.0818H78.5884V37.9995H79.9391V39.0818Z" fill="#1D508E"/>
<path d="M84.8182 41.5082C84.7327 40.9697 84.381 40.6825 83.8192 40.6825C82.9575 40.6825 82.671 41.5352 82.671 42.238C82.671 42.9242 82.947 43.747 83.7907 43.747C84.4185 43.747 84.78 43.3592 84.8647 42.7735H86.1637C85.9957 44.0432 85.0927 44.737 83.8012 44.737C82.3207 44.737 81.3232 43.7215 81.3232 42.2845C81.3232 40.7942 82.236 39.6895 83.8297 39.6895C84.987 39.6895 86.052 40.2842 86.1367 41.5075H84.8182" fill="#1D508E"/>
<path d="M90.7051 41.6999C90.5791 41.0354 90.2859 40.6829 89.6311 40.6829C88.7754 40.6829 88.5271 41.3309 88.5091 41.6999H90.7051ZM88.5091 42.5347C88.5466 43.3664 88.9651 43.7467 89.7144 43.7467C90.2559 43.7467 90.6939 43.4242 90.7809 43.1264H91.9651C91.5849 44.2567 90.7809 44.7367 89.6686 44.7367C88.1214 44.7367 87.1621 43.7009 87.1621 42.2182C87.1621 40.7827 88.1776 39.6899 89.6686 39.6899C91.3389 39.6899 92.1451 41.0632 92.0506 42.5347H88.5091Z" fill="#1D508E"/>
<path d="M94.3689 43.0529C94.3779 43.6252 94.8729 43.8584 95.4031 43.8584C95.7924 43.8584 96.2874 43.7092 96.2874 43.2472C96.2874 42.8497 95.7249 42.7087 94.7596 42.5069C93.9789 42.3382 93.2011 42.0727 93.2011 41.2304C93.2011 40.0057 94.2834 39.6899 95.3371 39.6899C96.4111 39.6899 97.3959 40.0432 97.5024 41.2199H96.2191C96.1831 40.7107 95.7826 40.5719 95.2996 40.5719C94.9959 40.5719 94.5504 40.6274 94.5504 41.0167C94.5504 41.4907 95.3086 41.5514 96.0766 41.7299C96.8649 41.9047 97.6351 42.1837 97.6351 43.0724C97.6351 44.3324 96.5131 44.7374 95.3934 44.7374C94.2549 44.7374 93.1449 44.3212 93.0879 43.0537H94.3689" fill="#1D508E"/>
<path d="M104.946 0.156738H56.1138V0.716988H104.946V0.156738Z" fill="#FBBF27"/>
<path d="M104.946 11.9214H56.1138V12.4824H104.946V11.9214Z" fill="#FBBF27"/>
<path d="M104.946 23.6855H56.1138V24.245H104.946V23.6855Z" fill="#FBBF27"/>
<path d="M104.946 35.4502H56.1138V36.0112H104.946V35.4502Z" fill="#FBBF27"/>
<path d="M104.946 47.2139H56.1138V47.7719H104.946V47.2139Z" fill="#FBBF27"/>
<path d="M49.6029 0.156738H0.773438V47.7742H49.6029V0.156738Z" fill="#1D508E"/>
<path d="M41.4716 36.0906V39.8541L31.2978 39.8474C30.1788 39.8474 29.2653 38.9594 29.2653 37.8651C29.2653 36.7694 30.1788 35.9369 31.2978 35.9369L40.0316 35.9474C40.5498 35.9474 41.0051 35.8821 41.4746 35.7561L41.4716 36.0906ZM45.5336 39.8541V30.4941C45.5336 27.4889 43.1201 25.0431 40.0316 25.0431H27.2666L27.2793 15.0861C27.2793 11.2559 30.3618 8.14788 34.2926 8.14788C38.2248 8.14788 41.4731 11.3121 41.4731 15.0861V24.9869H45.5306L45.5418 15.1416C45.5418 9.11688 40.5356 4.19238 34.3593 4.19238C30.4053 4.19238 27.3978 5.79438 25.2078 8.82813C23.1851 6.02388 19.8386 4.19238 16.0578 4.19238C13.3571 4.19238 10.8078 5.14863 8.87582 6.70338L8.88482 4.20288L4.81982 4.19238L4.82657 24.9869H8.88557L8.87657 14.9534C8.96657 11.1231 12.0738 8.14788 16.0053 8.14788C19.9346 8.14788 23.1191 11.2559 23.1191 15.0861L23.1416 25.0431H10.4313C7.34357 25.0431 4.84307 27.4889 4.84307 30.4941C4.84307 33.5069 7.34357 35.9474 10.4313 35.9474L19.2168 35.9369C20.3411 35.9369 21.1848 36.8571 21.1848 37.9529C21.1848 39.0479 20.3186 39.8474 19.1951 39.8474H4.82657V43.8321H19.4178C22.8483 43.8321 25.2086 41.1036 25.2086 37.8179C25.2086 34.5539 22.5296 31.9559 19.1591 31.9559L10.4756 31.9604C9.63182 31.9604 8.88332 31.2936 8.88332 30.4716C8.88332 29.6534 9.63182 28.9859 10.4756 28.9859H39.9611C40.8033 28.9859 41.4866 29.6541 41.4866 30.4716C41.4866 31.2944 40.8033 31.9604 39.9611 31.9604L33.8103 31.9559H31.2626C27.8958 31.9559 25.2086 34.5546 25.2086 37.8179C25.2086 41.1036 27.9138 43.8321 31.2626 43.8336H49.4351C45.3978 43.8344 45.5336 39.8541 45.5336 39.8541Z" fill="white"/>
</g>
<defs>
<clipPath id="clip0">
<rect width="105" height="48" fill="white" transform="translate(0.461426)"/>
</clipPath>
</defs>
</svg>
