<svg width="211" height="64" viewBox="0 0 211 64" fill="none" xmlns="http://www.w3.org/2000/svg">
<path d="M69.1763 55.3484H70.5156L72.6152 61.828H71.3844L70.4071 58.3891C70.1899 57.7013 70.0089 56.9773 69.8279 56.2534H69.7917C69.6107 56.9773 69.4297 57.7013 69.2125 58.3891L68.1989 61.828H67.0405L69.1763 55.3484ZM68.3075 59.1855H71.3482V60.0905H68.3075V59.1855Z" fill="#0C419A"/>
<path d="M73.3027 62.7331C73.3027 62.335 73.5561 61.973 73.9905 61.6834V61.6472C73.7371 61.5024 73.5561 61.2128 73.5561 60.8508C73.5561 60.4888 73.8095 60.1268 74.0991 59.9458V59.9096C73.7733 59.6562 73.4475 59.1856 73.4475 58.6065C73.4475 57.4843 74.3525 56.8689 75.3661 56.8689C75.6195 56.8689 75.8729 56.9051 76.0901 56.9775H77.8276V57.8101H76.9226C77.0674 57.9911 77.2122 58.2807 77.2122 58.6427C77.2122 59.7286 76.3797 60.3078 75.3661 60.3078C75.1489 60.3078 74.9317 60.2716 74.7145 60.163C74.5697 60.2716 74.4611 60.4164 74.4611 60.6336C74.4611 60.9232 74.6421 61.068 75.2575 61.068H76.1263C77.2846 61.068 77.9 61.43 77.9 62.2626C77.9 63.2399 76.8864 64.0001 75.2937 64.0001C74.1715 64.0001 73.3027 63.6019 73.3027 62.7331ZM76.8502 62.4798C76.8502 62.1178 76.5607 62.0092 75.9815 62.0092H75.3299C75.0765 62.0092 74.8593 61.973 74.6783 61.9368C74.4249 62.1178 74.3163 62.3712 74.3163 62.5884C74.3163 63.0227 74.7869 63.2761 75.5471 63.2761C76.3073 63.2761 76.8502 62.9141 76.8502 62.4798ZM76.2349 58.6065C76.2349 57.9911 75.8729 57.6291 75.4023 57.6291C74.9317 57.6291 74.5697 57.9911 74.5697 58.6065C74.5697 59.2218 74.9317 59.5838 75.4023 59.5838C75.8729 59.5838 76.2349 59.2218 76.2349 58.6065Z" fill="#0C419A"/>
<path d="M79.0225 55.457C79.0225 55.0588 79.3121 54.8054 79.7464 54.8054C80.1446 54.8054 80.4704 55.0588 80.4704 55.457C80.4704 55.819 80.1808 56.1086 79.7464 56.1086C79.3483 56.1086 79.0225 55.8552 79.0225 55.457ZM79.1673 56.9774H80.3256V61.8642H79.1673V56.9774Z" fill="#0C419A"/>
<path d="M82.0992 56.9775H83.0404L83.1128 57.8463H83.149C83.511 57.1947 84.0177 56.8689 84.5245 56.8689C84.7779 56.8689 84.9227 56.9051 85.0675 56.9775L84.8865 57.9549C84.7055 57.9187 84.5969 57.8825 84.3797 57.8825C83.9815 57.8825 83.511 58.1359 83.2214 58.896V61.8644H82.063V56.9775H82.0992Z" fill="#0C419A"/>
<path d="M88.1445 59.4027C88.1445 57.8099 89.2305 56.8325 90.3889 56.8325C91.692 56.8325 92.416 57.7737 92.416 59.1493C92.416 59.3665 92.3798 59.5836 92.3798 59.6922H89.2667C89.3753 60.561 89.9183 61.0678 90.7147 61.0678C91.1491 61.0678 91.4748 60.923 91.8368 60.7058L92.235 61.4298C91.7644 61.7556 91.1852 61.9728 90.5699 61.9728C89.1943 61.9728 88.1445 61.0316 88.1445 59.4027ZM91.4387 58.9321C91.4387 58.1719 91.1129 57.7375 90.4251 57.7375C89.8459 57.7375 89.3391 58.1719 89.2667 58.9321H91.4387Z" fill="#0C419A"/>
<path d="M93.8278 56.9773H94.7689L94.8413 57.6289H94.8775C95.3119 57.1945 95.8187 56.8325 96.4703 56.8325C97.5201 56.8325 97.9545 57.5565 97.9545 58.7873V61.828H96.7961V58.9321C96.7961 58.1357 96.5789 57.8099 96.0359 57.8099C95.6015 57.8099 95.3119 58.0271 94.9137 58.4253V61.828H93.7554V56.9773H93.8278Z" fill="#0C419A"/>
<path d="M99.2578 61.2852L99.8008 60.5612C100.235 60.887 100.67 61.1042 101.14 61.1042C101.683 61.1042 101.937 60.8508 101.937 60.525C101.937 60.1268 101.394 59.9458 100.887 59.7286C100.235 59.4752 99.5112 59.1132 99.5112 58.3169C99.5112 57.4843 100.199 56.8689 101.285 56.8689C101.973 56.8689 102.516 57.1585 102.914 57.4481L102.407 58.1359C102.081 57.8825 101.719 57.7015 101.321 57.7015C100.814 57.7015 100.597 57.9187 100.597 58.2445C100.597 58.6427 101.104 58.7874 101.611 58.9684C102.262 59.2218 103.023 59.5476 103.023 60.4526C103.023 61.2852 102.371 61.973 101.14 61.973C100.452 61.973 99.7284 61.6834 99.2578 61.2852Z" fill="#0C419A"/>
<path d="M104.036 59.4027C104.036 57.8099 105.122 56.8325 106.28 56.8325C107.584 56.8325 108.308 57.7737 108.308 59.1493C108.308 59.3665 108.271 59.5836 108.271 59.6922H105.158C105.267 60.561 105.81 61.0678 106.606 61.0678C107.041 61.0678 107.366 60.923 107.728 60.7058L108.127 61.4298C107.656 61.7556 107.077 61.9728 106.461 61.9728C105.086 61.9728 104.036 61.0316 104.036 59.4027ZM107.294 58.9321C107.294 58.1719 106.968 57.7375 106.28 57.7375C105.701 57.7375 105.195 58.1719 105.122 58.9321H107.294Z" fill="#0C419A"/>
<path d="M109.719 56.9773H110.661L110.733 57.6289H110.769C111.167 57.1945 111.638 56.8325 112.253 56.8325C112.977 56.8325 113.375 57.1583 113.593 57.7013C114.063 57.1945 114.534 56.8325 115.149 56.8325C116.163 56.8325 116.67 57.5565 116.67 58.7873V61.828H115.511V58.9321C115.511 58.1357 115.258 57.8099 114.751 57.8099C114.425 57.8099 114.099 57.9909 113.737 58.4253V61.828H112.579V58.9321C112.579 58.1357 112.326 57.8099 111.819 57.8099C111.529 57.8099 111.167 57.9909 110.805 58.4253V61.828H109.647V56.9773H109.719Z" fill="#0C419A"/>
<path d="M119.457 61.3574L119.312 61.8642H118.407V54.8416H119.566V56.6515L119.529 57.4479C119.928 57.0859 120.434 56.8325 120.941 56.8325C122.172 56.8325 122.86 57.8099 122.86 59.294C122.86 60.9592 121.846 61.9366 120.76 61.9366C120.362 61.9728 119.891 61.7556 119.457 61.3574ZM121.701 59.3664C121.701 58.3891 121.376 57.8099 120.652 57.8099C120.29 57.8099 119.964 57.9909 119.602 58.3529V60.6334C119.928 60.923 120.29 61.0316 120.579 61.0316C121.195 61.0316 121.701 60.4524 121.701 59.3664Z" fill="#0C419A"/>
<path d="M124.308 60.5972V54.8416H125.466V60.6696C125.466 60.9592 125.611 61.0678 125.719 61.0678C125.756 61.0678 125.828 61.0678 125.9 61.0316L126.045 61.9004C125.9 61.9728 125.719 62.009 125.43 62.009C124.597 61.9728 124.308 61.4298 124.308 60.5972Z" fill="#0C419A"/>
<path d="M127.022 59.4027C127.022 57.8099 128.108 56.8325 129.267 56.8325C130.57 56.8325 131.294 57.7737 131.294 59.1493C131.294 59.3665 131.258 59.5836 131.258 59.6922H128.145C128.253 60.561 128.796 61.0678 129.593 61.0678C130.027 61.0678 130.353 60.923 130.715 60.7058L131.113 61.4298C130.642 61.7556 130.063 61.9728 129.448 61.9728C128.072 61.9728 127.022 61.0316 127.022 59.4027ZM130.28 58.9321C130.28 58.1719 129.955 57.7375 129.267 57.7375C128.688 57.7375 128.181 58.1719 128.108 58.9321H130.28Z" fill="#0C419A"/>
<path d="M133.393 60.4163C132.959 60.4163 132.633 60.7059 132.633 61.104C132.633 61.5746 132.995 61.7918 133.357 61.7918C133.393 61.7918 133.43 61.7918 133.43 61.7918C133.43 62.2986 133.068 62.7692 132.416 62.9864L132.669 63.6018C133.647 63.276 134.226 62.5158 134.226 61.5384C134.226 60.8507 133.936 60.4163 133.393 60.4163Z" fill="#0C419A"/>
<path d="M138.208 56.9773H139.149L139.222 57.4841H139.258C139.656 57.1221 140.199 56.8325 140.742 56.8325C141.973 56.8325 142.661 57.8099 142.661 59.3303C142.661 60.9954 141.647 61.9728 140.561 61.9728C140.127 61.9728 139.692 61.7918 139.294 61.4298L139.33 62.2262V63.7465H138.172V56.9773H138.208ZM141.466 59.3665C141.466 58.3891 141.14 57.8099 140.416 57.8099C140.054 57.8099 139.728 57.9909 139.366 58.3529V60.6334C139.728 60.923 140.054 61.0316 140.344 61.0316C140.959 61.0316 141.466 60.4524 141.466 59.3665Z" fill="#0C419A"/>
<path d="M144.108 56.9775H145.05L145.122 57.8463H145.158C145.52 57.1947 146.027 56.8689 146.534 56.8689C146.787 56.8689 146.932 56.9051 147.077 56.9775L146.896 57.9549C146.715 57.9187 146.606 57.8825 146.389 57.8825C145.991 57.8825 145.52 58.1359 145.231 58.896V61.8644H144.072V56.9775H144.108Z" fill="#0C419A"/>
<path d="M147.547 59.4027C147.547 57.7737 148.67 56.8325 149.864 56.8325C151.059 56.8325 152.181 57.7737 152.181 59.4027C152.181 61.0316 151.059 61.9728 149.864 61.9728C148.67 61.9728 147.547 61.0316 147.547 59.4027ZM150.986 59.4027C150.986 58.4253 150.552 57.7737 149.828 57.7737C149.104 57.7737 148.67 58.4253 148.67 59.4027C148.67 60.38 149.104 61.0316 149.828 61.0316C150.552 61.0316 150.986 60.38 150.986 59.4027Z" fill="#0C419A"/>
<path d="M153.629 60.199V57.8823H152.941V57.0135L153.701 56.9773L153.846 55.6379H154.787V56.9773H156.018V57.8823H154.787V60.199C154.787 60.7782 155.004 61.0678 155.475 61.0678C155.656 61.0678 155.837 60.9954 155.982 60.9592L156.163 61.7918C155.909 61.8642 155.547 61.9728 155.149 61.9728C154.063 61.9728 153.629 61.2488 153.629 60.199Z" fill="#0C419A"/>
<path d="M156.923 59.4027C156.923 57.81 158.009 56.8326 159.167 56.8326C160.47 56.8326 161.194 57.7738 161.194 59.1493C161.194 59.3665 161.158 59.5837 161.158 59.6923H158.045C158.154 60.5611 158.697 61.0679 159.493 61.0679C159.927 61.0679 160.253 60.9231 160.615 60.7059L161.013 61.4299C160.543 61.7557 159.964 61.9729 159.348 61.9729C157.973 61.9729 156.923 61.0317 156.923 59.4027ZM160.181 58.9321C160.181 58.172 159.855 57.7376 159.167 57.7376C158.588 57.7376 158.081 58.172 158.009 58.9321H160.181ZM158.552 55.6018L160 53.8643L160.796 54.6244L159.131 56.1448L158.552 55.6018Z" fill="#0C419A"/>
<path d="M162.208 62.7331C162.208 62.335 162.461 61.973 162.896 61.6834V61.6472C162.642 61.5024 162.461 61.2128 162.461 60.8508C162.461 60.4888 162.715 60.1268 163.004 59.9458V59.9096C162.679 59.6562 162.353 59.1856 162.353 58.6065C162.353 57.4843 163.258 56.8689 164.271 56.8689C164.525 56.8689 164.778 56.9051 164.995 56.9775H166.733V57.8101H165.828C165.973 57.9911 166.118 58.2807 166.118 58.6427C166.118 59.7286 165.285 60.3078 164.271 60.3078C164.054 60.3078 163.837 60.2716 163.62 60.163C163.475 60.2716 163.366 60.4164 163.366 60.6336C163.366 60.9232 163.547 61.068 164.163 61.068H165.032C166.19 61.068 166.805 61.43 166.805 62.2626C166.805 63.2399 165.792 64.0001 164.199 64.0001C163.077 64.0001 162.208 63.6019 162.208 62.7331ZM165.756 62.4798C165.756 62.1178 165.466 62.0092 164.887 62.0092H164.235C163.982 62.0092 163.765 61.973 163.584 61.9368C163.33 62.1178 163.222 62.3712 163.222 62.5884C163.222 63.0227 163.692 63.2761 164.452 63.2761C165.213 63.2761 165.756 62.9141 165.756 62.4798ZM165.14 58.6065C165.14 57.9911 164.778 57.6291 164.308 57.6291C163.837 57.6291 163.475 57.9911 163.475 58.6065C163.475 59.2218 163.837 59.5838 164.308 59.5838C164.778 59.5838 165.14 59.2218 165.14 58.6065Z" fill="#0C419A"/>
<path d="M167.529 59.4027C167.529 57.8099 168.615 56.8325 169.774 56.8325C171.077 56.8325 171.801 57.7737 171.801 59.1493C171.801 59.3665 171.765 59.5836 171.765 59.6922H168.651C168.76 60.561 169.303 61.0678 170.099 61.0678C170.534 61.0678 170.86 60.923 171.222 60.7058L171.62 61.4298C171.149 61.7556 170.57 61.9728 169.955 61.9728C168.579 61.9728 167.529 61.0316 167.529 59.4027ZM170.787 58.9321C170.787 58.1719 170.461 57.7375 169.774 57.7375C169.194 57.7375 168.688 58.1719 168.615 58.9321H170.787Z" fill="#0C419A"/>
<path d="M173.212 56.9775H174.154L174.226 57.8463H174.262C174.624 57.1947 175.131 56.8689 175.638 56.8689C175.891 56.8689 176.036 56.9051 176.181 56.9775L176 57.9549C175.819 57.9187 175.71 57.8825 175.493 57.8825C175.095 57.8825 174.624 58.1359 174.335 58.896V61.8644H173.176V56.9775H173.212Z" fill="#0C419A"/>
<path d="M179.258 59.4027C179.258 57.7737 180.416 56.8325 181.719 56.8325C182.335 56.8325 182.805 57.0859 183.131 57.3755L182.588 58.1357C182.335 57.9185 182.081 57.7737 181.792 57.7737C180.995 57.7737 180.452 58.4253 180.452 59.4027C180.452 60.38 180.995 61.0316 181.756 61.0316C182.154 61.0316 182.48 60.8506 182.769 60.5972L183.24 61.3574C182.769 61.7556 182.19 61.9728 181.647 61.9728C180.271 61.9728 179.258 61.0316 179.258 59.4027Z" fill="#0C419A"/>
<path d="M184.47 54.8416H185.629V56.6515L185.592 57.5927C185.991 57.1945 186.497 56.8687 187.149 56.8687C188.199 56.8687 188.633 57.5927 188.633 58.8235V61.8642H187.475V58.9682C187.475 58.1719 187.258 57.8461 186.715 57.8461C186.28 57.8461 185.991 58.0633 185.592 58.4615V61.8642H184.434V54.8416H184.47Z" fill="#0C419A"/>
<path d="M190.009 60.5249C190.009 59.4751 190.878 58.9321 192.869 58.7149C192.869 58.2082 192.651 57.7376 192 57.7376C191.529 57.7376 191.059 57.9548 190.624 58.2081L190.19 57.448C190.733 57.1222 191.421 56.7964 192.181 56.7964C193.412 56.7964 193.991 57.5566 193.991 58.8959V61.7919H193.086L193.013 61.2489H192.977C192.543 61.6109 192.036 61.9005 191.457 61.9005C190.588 61.9729 190.009 61.3937 190.009 60.5249ZM192.869 60.5611V59.4751C191.529 59.6561 191.095 59.9819 191.095 60.4887C191.095 60.9231 191.384 61.1041 191.783 61.1041C192.217 61.0679 192.507 60.8869 192.869 60.5611Z" fill="#0C419A"/>
<path d="M195.366 59.4027C195.366 57.7737 196.525 56.8325 197.828 56.8325C198.443 56.8325 198.914 57.0859 199.24 57.3755L198.697 58.1357C198.443 57.9185 198.19 57.7737 197.9 57.7737C197.104 57.7737 196.561 58.4253 196.561 59.4027C196.561 60.38 197.104 61.0316 197.864 61.0316C198.262 61.0316 198.588 60.8506 198.878 60.5972L199.348 61.3574C198.878 61.7556 198.298 61.9728 197.755 61.9728C196.38 61.9728 195.366 61.0316 195.366 59.4027Z" fill="#0C419A"/>
<path d="M200.506 60.018V56.9773H201.665V59.8732C201.665 60.6696 201.882 60.9954 202.425 60.9954C202.859 60.9954 203.149 60.8144 203.511 60.3076V56.9773H204.669V61.8642H203.728L203.656 61.1402H203.583C203.149 61.647 202.678 61.9728 202.027 61.9728C200.977 61.9728 200.506 61.2488 200.506 60.018Z" fill="#0C419A"/>
<path d="M206.334 56.9773H207.276L207.348 57.6289H207.384C207.819 57.1945 208.325 56.8325 208.977 56.8325C210.027 56.8325 210.461 57.5565 210.461 58.7873V61.828H209.375V58.9321C209.375 58.1357 209.158 57.8099 208.615 57.8099C208.181 57.8099 207.891 58.0271 207.493 58.4253V61.828H206.334V56.9773Z" fill="#0C419A"/>
<path d="M3.29424 32.2533L2.85985 31.8551C3.04085 31.6379 3.18565 31.3845 3.22184 31.1311C3.22184 30.8415 3.11325 30.6967 2.96845 30.6967C2.78746 30.6967 2.71506 30.8415 2.60646 31.1311L2.42547 31.5293C2.28067 31.8189 2.02727 32.1085 1.59289 32.1085C1.0861 32.0723 0.724106 31.6379 0.760305 30.9863C0.760305 30.6243 0.941302 30.2986 1.1947 30.0452L1.59289 30.4072C1.44809 30.5882 1.33949 30.7691 1.33949 31.0225C1.33949 31.2397 1.41189 31.4207 1.59289 31.4207C1.77388 31.4207 1.84628 31.2397 1.95488 30.9863L2.13587 30.6243C2.31687 30.2624 2.57026 30.0452 2.96845 30.0814C3.47524 30.1176 3.87343 30.552 3.83723 31.2759C3.76483 31.5293 3.58383 31.9637 3.29424 32.2533Z" fill="#0C419A"/>
<path d="M0.506788 27.9458L0 27.077L0.470589 26.7874L0.904977 27.6924L0.506788 27.9458ZM0.868779 28.6336L1.15837 26.7512L1.73756 26.8236L1.55656 28.0182L2.17195 28.0906L2.31674 27.077L2.89593 27.1494L2.75113 28.163L3.43891 28.2716L3.61991 27.0408L4.19909 27.1132L3.9095 29.0318L0.868779 28.6336Z" fill="#0C419A"/>
<path d="M2.78729 25.991C1.80991 25.7376 1.41172 24.9775 1.59271 24.2173C1.70131 23.8553 1.9547 23.5657 2.2081 23.4209L2.53389 23.8915C2.35289 24.0001 2.2081 24.1449 2.1719 24.3621C2.0633 24.7603 2.35289 25.1585 2.93208 25.3033C3.54746 25.448 3.94566 25.2671 4.05425 24.8327C4.12665 24.5793 4.05425 24.3621 3.90946 24.1811L4.41624 23.9277C4.63344 24.2535 4.70584 24.6155 4.59724 24.9775C4.45244 25.7738 3.76466 26.2444 2.78729 25.991Z" fill="#0C419A"/>
<path d="M3.72837 22.8417L2.20801 22.2625L2.4614 21.6109L4.05416 22.2263C4.59715 22.4435 4.85054 22.3349 4.99534 22.0091C5.10394 21.6833 4.99534 21.4299 4.45235 21.2127L2.85959 20.5973L3.07679 19.9819L4.59715 20.5611C5.53833 20.9231 5.79172 21.4661 5.53833 22.1901C5.24873 22.9503 4.66955 23.1675 3.72837 22.8417Z" fill="#0C419A"/>
<path d="M3.69238 18.5702L4.19917 17.5928C4.48876 17.0136 4.92315 16.6516 5.57473 16.9774C6.19012 17.3032 6.22632 17.8824 5.90053 18.4616L5.71953 18.8236L6.69691 19.3303L6.37111 19.9457L3.69238 18.5702ZM5.39374 18.2806C5.57473 17.9548 5.50234 17.7376 5.24894 17.5928C4.99555 17.448 4.81455 17.5928 4.63356 17.8824L4.48876 18.2082L5.21274 18.6064L5.39374 18.2806ZM5.68333 18.534L5.50234 17.9186L7.45709 17.8462L7.0951 18.534H5.68333Z" fill="#0C419A"/>
<path d="M5.42969 15.3121L5.79168 14.7329L8.32562 16.3619L7.96362 16.9411L5.42969 15.3121Z" fill="#0C419A"/>
<path d="M7.34847 13.5024L6.84168 14.1539L6.37109 13.792L7.78286 11.9458L8.25345 12.3078L7.74666 12.9594L9.70141 14.4435L9.30322 14.9865L7.34847 13.5024Z" fill="#0C419A"/>
<path d="M8.54297 11.0406L9.84614 9.66504L10.2805 10.0632L9.44795 10.932L9.88234 11.3302L10.5701 10.57L11.0045 10.9682L10.3167 11.7284L10.8235 12.199L11.6923 11.294L12.1267 11.6922L10.8235 13.104L8.54297 11.0406ZM8.61537 10.2804L8.68777 9.26685L9.26695 9.30305L9.08596 10.2804H8.61537Z" fill="#0C419A"/>
<path d="M13.6108 9.70141L13.647 9.08603C13.9366 9.08603 14.2262 9.04983 14.4072 8.86883C14.6244 8.68784 14.6606 8.50684 14.552 8.36205C14.4434 8.21725 14.2624 8.25345 13.9728 8.36205L13.5746 8.47064C13.2488 8.57924 12.8506 8.54304 12.5972 8.18105C12.3077 7.78286 12.4162 7.20368 12.8868 6.80549C13.1764 6.58829 13.5384 6.47969 13.9004 6.51589V7.05888C13.647 7.05888 13.466 7.09508 13.2488 7.23987C13.0678 7.38467 12.9954 7.56567 13.104 7.67427C13.2126 7.81906 13.4298 7.74666 13.6832 7.67427L14.0814 7.56567C14.4796 7.45707 14.8054 7.49327 15.0588 7.85526C15.3484 8.25345 15.3122 8.83264 14.733 9.30323C14.4434 9.59282 14.009 9.73761 13.6108 9.70141Z" fill="#0C419A"/>
<path d="M15.4568 6.80552C14.9501 5.97294 15.131 5.17656 15.8188 4.77837C16.5066 4.34398 17.2668 4.56117 17.7736 5.39375C18.2804 6.22633 18.0994 7.02271 17.4116 7.4571C16.76 7.85529 15.9636 7.6381 15.4568 6.80552ZM17.2306 5.75574C16.9048 5.24896 16.5066 5.06796 16.1446 5.28515C15.7826 5.50235 15.7464 5.93674 16.0722 6.44353C16.398 6.95031 16.7962 7.16751 17.1582 6.95031C17.484 6.73312 17.5202 6.26253 17.2306 5.75574Z" fill="#0C419A"/>
<path d="M18.6789 4.92313C18.2445 4.01816 18.6065 3.22178 19.2943 2.89598C19.6562 2.71499 20.0182 2.75119 20.2716 2.85979L20.1268 3.40277C19.9458 3.33037 19.7286 3.33037 19.5476 3.40277C19.1857 3.58377 19.0409 4.05436 19.2943 4.59734C19.5476 5.17653 19.982 5.35752 20.3802 5.17653C20.5974 5.06793 20.7422 4.88693 20.7784 4.66974L21.2852 4.92313C21.1766 5.28512 20.9594 5.57472 20.5974 5.71951C19.9096 6.04531 19.1133 5.82811 18.6789 4.92313Z" fill="#0C419A"/>
<path d="M21.3574 2.09952L22.009 1.88232L23.0588 4.70585L22.4072 4.92305L21.3574 2.09952Z" fill="#0C419A"/>
<path d="M24.0724 1.19449L24.8688 0.977295L26.5701 3.65603L25.8824 3.83702L25.1222 2.46146C24.9774 2.20806 24.7964 1.88227 24.6516 1.59268C24.6516 1.91847 24.6878 2.28046 24.6878 2.60625V4.19901L24 4.38001L24.0724 1.19449ZM24.2172 2.96825L25.629 2.60625L25.7738 3.11304L24.362 3.47503L24.2172 2.96825Z" fill="#0C419A"/>
<path d="M26.896 0.506792L27.5838 0.398193L27.9458 2.82353L29.1041 2.64254L29.1765 3.22172L27.3304 3.51132L26.896 0.506792Z" fill="#0C419A"/>
<path d="M29.8281 0.108598L31.7105 0L31.7467 0.579185L30.5521 0.651585L30.5883 1.26697L31.6019 1.19457L31.6381 1.77376L30.6245 1.84615L30.6607 2.53394L31.9277 2.46154L31.9639 3.04072L30.0453 3.14932L29.8281 0.108598Z" fill="#0C419A"/>
<path d="M100.126 45.0316V30.552H103.927V45.1764C103.927 46.009 104.289 46.2624 104.615 46.2624C104.76 46.2624 104.869 46.2624 105.086 46.2262L105.556 49.0859C105.122 49.2669 104.507 49.4117 103.638 49.4117C101.031 49.4479 100.126 47.6742 100.126 45.0316Z" fill="#0C419A"/>
<path d="M75.7282 40.3982C76.054 39.3484 79.4567 31.8552 79.4567 31.8552H83.4748V49.1222H79.8549V38.4435L76.8503 46.1901H74.5336L71.5291 38.4435V49.1222H67.9092V31.8552H71.9273C71.9273 31.8552 75.2938 39.3484 75.6558 40.3982H75.7282Z" fill="#0C419A"/>
<path d="M107.113 45.466C107.113 42.7148 109.43 41.1583 114.534 40.6153C114.461 39.4569 113.737 38.7691 112.325 38.7691C111.239 38.7691 110.154 39.2397 108.923 39.9637L107.583 37.3936C109.212 36.38 111.058 35.656 113.086 35.656C116.38 35.656 118.19 37.5746 118.19 41.5927V49.0859H114.57V47.8189C114.57 47.8189 113.086 49.4117 110.986 49.4117C108.597 49.4479 107.113 47.6741 107.113 45.466ZM114.534 45.2488V42.9682C111.819 43.3302 110.769 44.199 110.769 45.1764C110.769 46.0089 111.348 46.4433 112.253 46.4433C113.086 46.4071 113.846 45.9365 114.534 45.2488Z" fill="#0C419A"/>
<path d="M86.1172 45.466C86.1172 42.7148 88.4339 41.1583 93.538 40.6153C93.4656 39.4569 92.7416 38.7691 91.3299 38.7691C90.2439 38.7691 89.1579 39.2397 87.9271 39.9637L86.5878 37.3936C88.2167 36.38 90.0629 35.656 92.09 35.656C95.3842 35.656 97.1941 37.5746 97.1941 41.5927V49.0859H93.5742V47.8189C93.5742 47.8189 92.09 49.4117 89.9905 49.4117C87.6014 49.4479 86.1172 47.6741 86.1172 45.466ZM93.538 45.2488V42.9682C90.8231 43.3302 89.7733 44.199 89.7733 45.1764C89.7733 46.0089 90.3525 46.4433 91.2575 46.4433C92.09 46.4071 92.8502 45.9365 93.538 45.2488Z" fill="#0C419A"/>
<path d="M128.941 30.552V36.923C128.072 36.0905 127.203 35.6561 125.791 35.6561C123.077 35.6561 120.47 38.2624 120.47 42.5339C120.47 46.8416 122.534 49.4117 125.719 49.4117C127.457 49.4117 128.832 48.1086 128.941 48V49.1221H132.742V30.552H128.941ZM126.696 46.2624C125.212 46.2624 124.344 45.104 124.344 42.5339C124.344 40.0362 125.429 38.8778 126.66 38.8778C127.348 38.8778 128.108 39.095 128.941 39.7104V45.104C128.181 45.9366 127.529 46.2624 126.696 46.2624Z" fill="#0C419A"/>
<path d="M135.674 32.0362C135.674 30.8416 136.615 30.009 137.882 30.009C139.149 30.009 140.09 30.8416 140.09 32.0362C140.09 33.2308 139.149 34.0633 137.882 34.0633C136.615 34.0633 135.674 33.1946 135.674 32.0362ZM135.963 35.9819H139.764V49.1222H135.963V35.9819Z" fill="#0C419A"/>
<path d="M142.153 42.5338C142.153 38.2623 144.832 35.656 148.054 35.656C151.71 35.656 153.737 38.3709 153.737 41.9546C153.737 42.6424 153.665 43.3664 153.592 43.6922H145.882C146.208 45.6108 147.511 46.4795 149.212 46.4795C150.19 46.4795 151.022 46.0813 151.963 45.5384L153.266 47.9637C151.963 48.9049 150.226 49.4479 148.705 49.4479C144.904 49.4479 142.153 46.9139 142.153 42.5338ZM150.479 41.1221C150.479 39.6741 149.647 38.6243 148.126 38.6243C146.932 38.6243 146.099 39.4569 145.846 41.1221H150.479Z" fill="#0C419A"/>
<path d="M67.9092 23.3122V8.83252H71.7101V23.457C71.7101 24.2895 72.0721 24.5429 72.3979 24.5429C72.5427 24.5429 72.6513 24.5429 72.8684 24.5067L73.339 27.3665C72.9047 27.5475 72.2893 27.6923 71.4205 27.6923C68.778 27.6923 67.9092 25.9547 67.9092 23.3122Z" fill="#0C419A"/>
<path d="M88.1082 23.276L89.158 27.4027H93.1037L87.7824 10.1357H83.4023L78.0811 27.4027H82.0268L83.0765 23.276H88.1082ZM83.8729 20.2353L85.5381 13.6833H85.6829L87.348 20.2353H83.8729Z" fill="#0C419A"/>
<path d="M93.8638 25.8825L95.5651 23.4571C96.7235 24.3621 97.8095 24.8327 98.8954 24.8327C100.018 24.8327 100.524 24.3983 100.524 23.7105C100.524 22.8417 99.2574 22.4436 97.9181 21.9368C96.3253 21.3214 94.5154 20.2354 94.5154 18.0635C94.5154 15.6019 96.4701 13.9368 99.4384 13.9368C101.393 13.9368 102.877 14.7331 103.963 15.6019L102.262 17.9549C101.357 17.2671 100.452 16.8327 99.547 16.8327C98.5697 16.8327 98.0629 17.2309 98.0629 17.8825C98.0629 18.715 99.2574 19.0408 100.597 19.5476C102.226 20.163 104.072 21.1042 104.072 23.4933C104.072 25.8825 102.226 27.7286 98.7868 27.7286C97.1217 27.6924 95.1669 26.9684 93.8638 25.8825Z" fill="#0C419A"/>
<path d="M105.267 25.8825L106.968 23.4571C108.126 24.3621 109.212 24.8327 110.298 24.8327C111.42 24.8327 111.927 24.3983 111.927 23.7105C111.927 22.8417 110.66 22.4436 109.321 21.9368C107.728 21.3214 105.918 20.2354 105.918 18.0635C105.918 15.6019 107.873 13.9368 110.841 13.9368C112.796 13.9368 114.28 14.7331 115.366 15.6019L113.665 17.9549C112.76 17.2671 111.855 16.8327 110.95 16.8327C109.972 16.8327 109.466 17.2309 109.466 17.8825C109.466 18.715 110.66 19.0408 112 19.5476C113.629 20.163 115.475 21.1042 115.475 23.4933C115.475 25.8825 113.629 27.7286 110.19 27.7286C108.525 27.6924 106.57 26.9684 105.267 25.8825Z" fill="#0C419A"/>
<path d="M132.235 14.2626H136.036V16.1449C136.76 14.697 138.534 14.1902 139.438 14.1902C140.162 14.1902 140.597 14.2988 140.959 14.4436L140.561 17.9911C140.054 17.8463 139.475 17.5929 138.932 17.5929C137.448 17.6291 136.144 18.8961 136.036 20.5612V27.4029H132.235V14.2626Z" fill="#0C419A"/>
<path d="M155.692 14.2626H159.493V15.9277C160.579 14.8779 161.665 13.9368 163.438 13.9368C166.226 13.9368 167.42 15.9639 167.42 19.2218V27.3666H163.619V19.6924C163.619 17.8101 163.113 17.1947 162.027 17.1947C161.086 17.1947 160.362 17.6653 159.529 18.4617V27.3304H155.728V14.2626H155.692Z" fill="#0C419A"/>
<path d="M180.597 20.8146C180.597 16.5431 183.276 13.9368 186.498 13.9368C190.154 13.9368 192.181 16.6517 192.181 20.2354C192.181 20.9232 192.108 21.6472 192.036 21.973H184.326C184.651 23.8915 185.955 24.7603 187.656 24.7603C188.633 24.7603 189.466 24.3621 190.407 23.8191L191.71 26.2445C190.407 27.1856 188.67 27.7286 187.149 27.7286C183.384 27.6924 180.597 25.1585 180.597 20.8146ZM188.959 19.4028C188.959 17.9549 188.127 16.9051 186.606 16.9051C185.412 16.9051 184.579 17.7377 184.326 19.4028H188.959Z" fill="#0C419A"/>
<path d="M141.792 23.7467C141.792 20.9956 144.108 19.439 149.212 18.896C149.14 17.7377 148.416 17.0499 147.004 17.0499C145.918 17.0499 144.832 17.5205 143.601 18.2445L142.262 15.6743C143.891 14.6608 145.737 13.9368 147.764 13.9368C151.058 13.9368 152.868 15.8553 152.868 19.8734V27.3666H149.249V26.0997C149.249 26.0997 147.764 27.6924 145.665 27.6924C143.276 27.6924 141.792 25.9549 141.792 23.7467ZM149.212 23.5295V21.249C146.497 21.611 145.448 22.4798 145.448 23.4571C145.448 24.2897 146.027 24.7241 146.932 24.7241C147.801 24.6879 148.561 24.2173 149.212 23.5295Z" fill="#0C419A"/>
<path d="M76.7056 8.76025C75.9092 8.76025 74.8232 9.37564 74.8232 10.4616C74.8232 11.439 75.5834 12.0182 76.3798 12.0182C76.416 12.0182 76.4522 12.0182 76.4884 12.0182C76.4522 13.1765 75.4024 13.8281 74.8956 14.1177L75.9092 15.5295C79.2395 14.4797 79.9273 8.79645 76.7056 8.76025Z" fill="#0C419A"/>
<path d="M125.285 14.2625V22.9502C124.524 24 123.945 24.3982 123.004 24.3982C121.918 24.3982 121.411 23.819 121.411 21.9005V14.2625H117.61V22.552C117.61 25.6652 118.95 27.7285 121.665 27.7285C124.126 27.7285 125.357 26.0634 125.357 26.0634V27.4027H129.122V14.2625H125.285Z" fill="#0C419A"/>
<path d="M176.253 24.5792C174.588 24.5792 173.357 23.0951 173.357 20.8507C173.357 18.5702 174.552 17.086 176.362 17.086C176.941 17.086 177.448 17.3032 178.027 17.81L179.837 15.3123C178.896 14.5159 177.701 13.9729 176.145 13.9729C172.597 13.9729 169.484 16.5068 169.484 20.8507C169.484 25.1946 172.199 27.7286 175.783 27.7286C177.194 27.7286 178.787 27.2942 180.018 26.172L178.642 23.5295C177.918 24.1449 177.122 24.5792 176.253 24.5792Z" fill="#0C419A"/>
<path d="M34.7509 8.94117C34.6785 8.79638 34.4251 8.68778 34.2441 8.65158C34.0269 8.61538 33.9184 8.61538 33.9184 8.61538C33.665 8.54298 28.6333 8.61538 27.4387 9.41176C27.3301 8.61538 27.0405 7.63801 25.665 7.34841C24.6876 7.13122 22.588 8.07239 23.2758 10.1719C23.3844 10.5339 23.6378 10.7873 23.9998 10.9683C24.1808 11.0769 24.4704 11.0045 24.6876 11.5837C24.76 11.7285 24.8686 11.7285 24.9772 11.6923C25.0496 11.6561 25.0858 11.6923 25.1944 11.7647C25.303 11.8371 25.3754 11.8009 25.3754 11.8009C25.3754 11.8009 25.4116 11.8371 25.484 11.8371C25.5202 11.8371 25.665 11.8009 25.665 11.8371C26.0631 12.1629 26.5337 11.6561 26.7147 11.3303C26.8957 11.8733 27.3663 13.2851 27.3663 13.2851C27.2215 13.1403 25.6288 12.7059 24.8686 13.5385C24.217 14.2624 23.7102 15.276 23.1672 16.9774C23.0224 17.448 22.7328 17.6652 22.1898 17.8824C21.3211 18.2081 21.8279 18.6063 22.045 18.6425C22.588 18.7511 23.8188 18.6787 24.0722 18.5701C24.398 18.4253 24.1446 17.6652 24.5066 17.1946C24.8324 16.7964 25.0858 16.4344 25.303 16.181C25.303 16.724 25.303 17.0136 25.0134 17.7014C24.76 18.3529 23.9636 18.6787 23.7102 18.9683C23.2758 19.5113 24.2532 19.5475 24.5066 19.4751C25.1582 19.2579 25.5926 19.2579 25.846 19.1131C26.2079 18.8959 25.9546 18.3167 26.0631 18.0995C26.3889 17.448 27.5111 16.0362 27.6559 15.819C27.6921 15.7828 27.6921 15.7466 27.6921 15.7104C28.4885 15.9638 29.3935 16.0362 29.7193 16C31.5654 15.7828 31.9636 14.4796 31.7826 13.4299C31.6016 12.4887 31.0224 11.9095 30.8414 11.6199C30.3708 10.8597 30.0812 10.4615 29.9002 10.2443C30.4432 10.0995 33.3754 9.30317 33.3754 9.33936C33.484 9.59276 33.7374 9.62896 33.8098 9.70136C33.9908 9.80995 34.0993 9.62896 34.027 9.59276C33.8822 9.48416 33.846 9.41176 33.846 9.41176C34.0993 9.41176 34.3165 9.44796 34.4975 9.44796C34.7871 9.48416 34.8957 9.04977 34.7509 8.94117Z" fill="#0C419A"/>
<path fill-rule="evenodd" clip-rule="evenodd" d="M60.9228 26.6787C60.4522 24.1447 58.0993 22.5882 56.8685 22.0452C56.0359 21.6832 55.674 21.6108 55.5292 21.5746C55.3482 21.5022 55.2034 21.466 55.131 21.4298C55.2034 20.8868 55.855 20.8506 56.2531 20.0542C57.3391 17.8099 55.0948 16.2533 53.4658 16.6153C52.6694 16.7963 52.1626 17.0497 52.0178 17.6651C51.9454 17.9909 51.6921 17.9909 51.2939 18.4253C51.1491 18.5701 51.4387 18.7873 51.5111 18.8959C51.5111 18.9321 51.4387 19.0407 51.4025 19.1854C51.3663 19.3302 51.4025 19.294 51.4025 19.3302C51.4025 19.3302 51.3301 19.475 51.3301 19.656C51.3301 19.656 51.1491 20.018 51.3301 20.4162C51.3663 20.5248 51.5835 20.742 51.6559 21.2488C51.6559 21.3212 51.6559 21.3574 51.3663 21.2488C51.2939 21.2126 48.2893 20.3438 47.9636 20.1266C47.6016 19.8732 44.6332 16.6515 44.3074 16.0361C44.1264 15.6741 43.9454 15.4569 43.8369 15.4569C43.1491 15.4931 44.3436 16.7601 43.6559 16.3257C43.4749 16.2171 42.9681 15.8551 42.9319 15.8189C42.7871 15.7103 42.8233 15.7465 42.7509 15.6017C42.6785 15.4569 42.6061 15.3483 42.5337 15.3121C42.4613 15.2759 42.4251 15.2397 42.3527 15.2397C42.2441 15.2759 42.2803 15.3483 42.2441 15.3483C42.2441 15.3483 42.1717 15.3483 42.1355 15.3483C41.9545 15.3845 42.0993 15.8189 42.1355 16.0361C42.1355 16.0723 42.6061 17.1945 42.7509 17.3755C43.5111 17.8823 44.235 18.3529 44.2712 18.3529C45.1038 19.294 46.045 20.4886 46.9138 21.3936C47.6016 22.1176 50.7147 23.9275 50.7871 23.9637C51.0043 24.0723 51.3301 24.7601 50.8595 29.5022C50.6785 31.2759 49.4115 35.0769 50.0269 37.0316C50.4251 38.2986 50.8595 39.1673 51.3301 42.6425C51.4387 43.4026 50.8233 43.9094 49.9545 44.5248C49.6287 44.7782 48.6513 45.3574 48.5789 45.4298C48.4341 45.5746 48.5789 45.7918 48.7599 45.9004C48.9771 45.9728 49.3391 46.19 49.5563 46.2262C49.9183 46.2986 50.4613 46.2624 51.0405 45.9366C51.6559 45.5746 51.7283 45.5384 52.0902 45.285C52.5246 45.0316 53.0314 44.9592 53.1762 44.5248C53.3572 43.9456 52.8504 43.1131 52.9228 42.7511C53.2848 40.0361 53.7554 38.6968 53.0676 37.0316C52.9228 36.7058 54.045 33.0859 54.1536 33.5565C54.3346 34.4977 54.407 37.3574 54.4432 39.4569C54.4432 40.3981 55.2034 43.656 55.4568 44.8506C55.8188 46.6606 52.778 48.1085 53.4296 48.6515C53.5744 48.7601 53.9726 48.9411 54.3346 49.0135C54.769 49.0859 55.0948 49.0135 55.4568 48.8687C55.674 48.7963 55.9997 48.3981 56.0721 48.3257C56.7237 47.5293 56.5065 47.7465 57.0495 47.1674C57.4839 46.6606 57.1581 45.7918 57.1219 45.3574C57.0133 44.4524 57.1219 44.199 57.0857 42.5339C57.0857 40.6153 57.1943 40.0723 57.3029 39.3483C57.7735 36.1628 58.0631 34.4253 58.2441 33.0859V33.0135C58.2441 33.0135 58.4613 33.0859 58.5699 32.9411C58.7509 32.6515 58.7147 32.3981 58.7509 32.2171C58.7871 32.0361 58.8595 32.2533 58.8595 32.2533C58.8595 32.2533 59.0043 32.6877 59.0043 32.8325C59.0043 33.0497 58.8595 33.3031 58.7509 33.6289C58.6423 33.9909 58.9319 34.0271 59.0043 34.0633C59.0767 34.0995 60.0178 33.4117 60.1626 33.1583C60.3074 32.8687 60.2712 32.5067 60.3074 32.3257C60.3436 31.8551 60.054 30.5158 60.054 30.5158C60.2712 29.6108 61.0676 27.3302 60.9228 26.6787ZM58.7509 30.3348C58.6423 30.7692 58.6061 30.371 58.2079 32.0361L58.2441 31.7827C58.2441 31.5655 58.2441 31.3121 58.2441 31.0588C58.2441 28.9954 56.6513 24.5791 57.6287 25.4841C57.6287 25.4841 58.7871 26.2805 59.0043 26.8959C59.1853 27.4388 59.1491 28.742 58.7509 30.3348Z" fill="#0C419A"/>
<path d="M20.0541 35.2941C19.6921 34.9683 18.4252 33.2669 17.6288 32.5791C17.0858 31.9999 16.941 31.7103 16.5066 31.095C15.0225 29.1402 14.6967 28.9954 13.6831 28.8506C13.4659 28.7058 13.5383 28.561 13.5745 28.5248C14.9139 28.018 14.4795 26.8597 14.4433 26.8235C14.3709 26.5701 14.5519 26.4615 14.5519 26.2081C14.5519 25.8099 14.4795 25.5203 14.3709 25.2307C14.4071 25.0497 14.4433 24.7963 14.2623 24.5429C13.5383 23.6379 11.7283 23.6017 10.7872 24.2171C10.027 24.7239 10.4614 25.0859 10.2442 25.8461C10.0994 26.2805 10.2442 26.6787 10.5338 27.0045C10.57 27.2578 11.3302 27.7284 11.1854 28.2352C11.0406 28.7782 10.1718 28.8868 10.1718 28.8868C10.0632 28.923 9.99079 28.9592 9.91839 28.9954C8.54282 29.7918 7.20346 30.9502 7.02246 32.1809C7.09486 33.1945 8.68762 34.6787 9.70119 35.475C9.84599 37.2126 10.932 39.8551 11.0044 39.9637C11.1492 40.2895 10.6786 39.7103 9.5926 39.3483C9.04961 39.1674 8.36183 38.4434 8.18083 39.3121C8.10843 39.6741 8.25323 40.2895 7.92744 41.0859C7.67404 41.6651 7.96364 42.6063 8.61522 42.6063C9.08581 42.6063 9.3754 41.1583 9.3754 41.1583C9.3754 41.1583 11.6559 42.2805 12.7419 41.9185C13.3935 41.7013 13.5383 39.1674 12.8867 36.8868C12.6695 36.0904 13.2849 38.19 14.8053 39.9999C15.1311 40.3981 14.8415 40.7239 15.0587 42.2443C15.1311 42.8235 15.1311 42.9683 15.1311 43.2217C15.0949 43.9456 14.4071 44.8144 15.9998 45.2126C17.6288 45.647 17.484 46.009 18.4976 45.3212C18.9682 45.0316 17.0858 44.8144 16.7238 43.7284C16.7238 43.6922 16.6876 43.5474 16.6876 43.475C16.6514 42.6063 17.0496 40.6153 16.9048 39.8913C16.3256 36.4524 14.8777 34.8597 14.6967 34.0633C14.6967 31.6741 14.5157 30.914 14.7329 31.4569C14.7691 31.5655 15.2759 32.3981 15.7826 33.0497C15.8188 33.1221 15.8912 33.1945 15.9636 33.2669C16.1084 33.4479 16.2532 33.5927 16.398 33.6651C17.4116 34.5339 19.0044 35.5836 19.2216 35.8008C19.2216 35.8008 19.3302 36.8506 19.7645 36.7782C20.1627 36.7058 22.0813 35.8732 22.0451 35.656C21.9727 35.3665 20.0903 35.3664 20.0541 35.2941ZM9.62879 33.9909C9.3392 33.4479 8.54282 32.3981 8.61522 32.2171C9.04961 31.4931 9.5202 31.276 9.665 31.3122C9.77359 31.3483 9.62879 33.9909 9.62879 33.9909Z" fill="#0C419A"/>
<path d="M51.7644 54.7693C51.692 54.7331 50.5699 54.2987 49.5563 52.7059C49.1219 51.982 45.7554 45.7919 45.321 44.5973C44.416 42.2082 37.3572 37.9005 37.0676 37.6471C36.8504 37.4661 36.8866 37.0679 36.959 36.7783C37.5382 34.7512 37.321 32.9774 37.4296 32.6878C37.7192 32.0001 38.1536 31.0227 37.8278 30.3711L37.1038 29.2127C37.1038 29.2127 40.8323 30.5521 41.7011 30.3711C42.4613 30.2263 46.1898 27.62 46.407 27.5114C46.9138 27.258 48.1807 27.62 49.4477 26.2444C49.9183 25.7376 49.5925 25.5566 49.4839 25.629C49.5201 25.5928 49.2667 25.3756 49.0495 25.5204C48.7599 25.7014 47.7101 25.991 47.8911 25.8462C48.6513 25.267 48.1083 25.1222 48.1083 25.1222C47.7825 25.4118 46.2984 25.7738 45.9726 26.0272C45.6468 26.3168 45.3934 26.534 45.2486 26.6426C44.3436 27.1494 42.7871 27.9096 41.2305 28.2716C40.9047 28.3439 37.9364 26.3892 36.1988 26.1358C35.2577 25.991 34.9319 26.0634 34.4251 26.2082C33.8097 26.3892 33.8459 25.4842 34.3165 25.267C34.5699 25.1584 34.9681 25.086 35.1129 24.7964C35.2939 24.4345 35.0767 24.1087 35.0767 24.0363C35.0767 24.0001 35.1129 23.9639 35.0405 23.8191C35.0043 23.7105 35.0043 23.7829 35.0043 23.6743C35.0043 23.6019 34.9681 23.5295 34.9319 23.4571C34.9319 23.4209 34.9319 23.2761 34.9681 23.2399C35.33 22.9503 35.1853 22.8055 35.1129 22.7693C35.0043 22.6607 34.4613 22.4435 34.4251 22.0815C34.3527 21.5023 34.1355 21.2127 34.0631 20.9231C34.0269 20.8145 33.9545 20.1268 33.6649 19.8734C33.3029 19.5476 32.5427 19.1494 30.8776 19.5838C30.3346 19.7286 30.4432 19.982 29.14 20.2354C27.5472 20.5249 26.6785 22.8779 26.8233 23.8553C26.9319 24.6516 27.6196 24.2535 27.5834 24.6154C27.5472 25.1584 27.4748 26.0634 28.6332 26.3892C28.8866 26.4616 30.407 26.2082 30.9862 26.3168C30.9862 26.3168 31.4567 26.353 31.2034 26.8236C31.0948 27.0408 29.5744 27.6562 29.1762 27.801C28.1988 28.1992 25.6287 32.3982 24.8685 32.7964C24.2169 33.1222 23.8187 33.3756 23.5653 33.5566C22.5156 34.2082 21.502 35.0408 20.9228 35.0046C20.1626 34.9684 19.5472 35.3304 19.0405 36.4526C18.8957 36.7783 18.9681 36.9593 19.2577 37.0317C19.3663 37.1403 19.511 37.2851 19.7282 37.2851C19.9454 37.5023 20.1988 37.3575 20.416 37.2489C20.9952 36.9231 21.14 36.6697 21.3572 36.5973C21.9364 36.4163 25.3391 35.077 26.0993 34.4978C27.2577 33.8824 29.5744 31.4933 30.0812 31.4571C30.5518 31.4209 31.7101 32.4706 31.3481 34.4978C31.2396 35.1856 30.3708 36.4163 29.9002 37.1403C28.959 38.5521 29.683 39.8191 29.502 40.1087C28.5246 41.7014 27.3301 43.8372 25.3029 45.6471C24.5065 46.1539 22.8776 46.2625 21.9726 46.5159C19.9454 47.0951 17.8097 48.5431 16.2893 49.4118C15.7825 49.7014 15.3119 49.086 14.6604 49.0136C14.045 48.9412 13.9726 49.9186 13.6468 50.7874C13.5382 51.0408 13.502 51.1856 13.0314 52.2716C12.8504 52.7059 12.3436 53.9729 12.8504 54.5159C13.321 55.1675 14.407 53.1403 15.2758 52.163C15.7101 51.6562 15.9997 51.4752 16.9771 51.258C17.5925 51.1132 22.5518 49.7738 25.8097 49.0498C25.8821 49.0498 25.9907 49.0136 26.0631 48.9774C30.2984 47.8915 34.6785 42.353 34.7509 42.3892L41.9545 45.9367C42.6785 46.3349 42.6785 47.7105 43.5472 49.3394C44.054 50.3168 44.8142 51.1494 47.8911 54.1539C48.2893 54.5521 47.9635 55.1675 48.1445 55.7829C48.3255 56.4345 48.6513 56.4344 49.2305 56.3983C49.7735 56.3621 50.2441 56.2535 50.7871 56.2173C51.4748 56.1811 51.2939 56.2535 52.0902 56.3621C52.4884 56.4345 53.3572 56.5431 54.0088 55.9277C55.131 54.7331 52.8504 55.3123 51.7644 54.7693Z" fill="#0C419A"/>
<path d="M43.9818 51.6561C43.8732 51.4389 43.6198 51.3665 43.4026 51.4751C40.3257 53.0317 36.8868 53.8643 33.4117 53.8643C29.5384 53.8643 25.7374 52.8507 22.4071 50.9321C22.1899 50.8235 21.9365 50.8959 21.7917 51.0769C21.6831 51.2941 21.7555 51.5475 21.9365 51.6923C25.4117 53.6833 29.3574 54.733 33.3755 54.733C36.9954 54.733 40.5791 53.8643 43.7646 52.2353C44.018 52.1267 44.0904 51.8733 43.9818 51.6561Z" fill="#0C419A"/>
<path d="M12.8866 22.8777C12.8142 22.8777 12.778 22.8777 12.7056 22.8415C12.4884 22.733 12.3798 22.4796 12.4884 22.2624C14.4794 17.9185 17.7011 14.3348 21.8278 11.9094C22.045 11.8008 22.2984 11.8732 22.4432 12.0542C22.5518 12.2714 22.4794 12.5248 22.2984 12.6696C18.3165 14.9863 15.2033 18.4253 13.321 22.6244C13.2124 22.8054 13.0676 22.8777 12.8866 22.8777Z" fill="#0C419A"/>
<path d="M50.2804 17.267C50.1718 17.267 50.027 17.2308 49.9546 17.1222C46.4795 13.1765 41.7012 10.6063 36.5247 9.88234C36.2713 9.84614 36.1265 9.62895 36.1627 9.37555C36.1989 9.12216 36.4161 8.97736 36.6695 9.01356C42.0632 9.77374 47.0225 12.4525 50.6424 16.543C50.7872 16.724 50.7872 17.0136 50.6062 17.1584C50.4976 17.2308 50.389 17.267 50.2804 17.267Z" fill="#0C419A"/>
</svg>
