<svg xmlns="http://www.w3.org/2000/svg" width="219" height="65" viewBox="0 0 219 65" fill="none"><path fill="#0C419A" d="m3.3 32.25-.44-.4c.18-.21.33-.47.36-.72 0-.29-.1-.43-.25-.43-.18 0-.25.14-.36.43l-.18.4c-.15.29-.4.58-.84.58-.5-.04-.87-.47-.83-1.12 0-.37.18-.7.43-.94l.4.36a.94.94 0 0 0-.25.61c0 .22.07.4.25.4s.26-.18.36-.43l.19-.37c.18-.36.43-.57.83-.54.5.04.9.47.87 1.2-.08.25-.26.68-.55.97ZM.5 27.95l-.5-.87.47-.3.43.91-.4.26Zm.37.68.29-1.88.58.07-.18 1.2.61.07.15-1.01.58.07-.15 1.01.69.11.18-1.23.58.07-.3 1.92-3.03-.4ZM2.79 26c-.98-.26-1.38-1.02-1.2-1.78.11-.36.36-.65.62-.8l.32.47c-.18.11-.32.25-.36.47-.1.4.18.8.76.94.62.15 1.02-.03 1.12-.47a.7.7 0 0 0-.14-.65l.5-.25c.22.32.3.69.19 1.05-.15.8-.84 1.26-1.81 1.01ZM3.73 22.84l-1.52-.58.25-.65 1.6.62c.54.21.8.1.94-.22.1-.33 0-.58-.55-.8l-1.59-.61.22-.62 1.52.58c.94.36 1.2.9.94 1.63-.3.76-.87.98-1.81.65ZM3.7 18.57l.5-.98c.29-.58.72-.94 1.37-.61.62.32.66.9.33 1.48l-.18.36.98.51-.33.62-2.68-1.38Zm1.7-.29c.17-.33.1-.54-.15-.69-.25-.14-.44 0-.62.3l-.14.32.72.4.18-.33Zm.28.25-.18-.61 1.96-.07-.36.68H5.68ZM5.43 15.31l.36-.58 2.54 1.63-.37.58-2.53-1.63ZM7.35 13.5l-.5.65-.48-.36 1.41-1.84.47.36-.5.65 1.95 1.48-.4.55-1.95-1.49ZM8.54 11.04l1.3-1.37.44.4-.83.86.43.4.69-.76.43.4-.68.76.5.47.87-.9.44.4-1.3 1.4-2.29-2.06Zm.08-.76.07-1.01.58.03-.18.98h-.47ZM13.61 9.7l.04-.61c.29 0 .58-.04.76-.22.21-.18.25-.36.14-.5-.1-.15-.29-.12-.58 0l-.4.1c-.32.1-.72.07-.97-.29-.3-.4-.18-.98.29-1.37.29-.22.65-.33 1.01-.3v.55c-.25 0-.43.03-.65.18-.18.14-.25.33-.15.43.11.15.33.08.58 0l.4-.1c.4-.11.73-.08.98.29.29.4.25.97-.33 1.44-.29.3-.72.44-1.12.4ZM15.46 6.8c-.51-.83-.33-1.62.36-2.02.69-.44 1.45-.22 1.95.61.51.84.33 1.63-.36 2.07-.65.4-1.45.18-1.95-.65Zm1.77-1.04c-.33-.51-.72-.7-1.09-.48-.36.22-.4.66-.07 1.16.33.51.73.73 1.09.51.32-.22.36-.69.07-1.2ZM18.68 4.92c-.44-.9-.07-1.7.61-2.02.37-.19.73-.15.98-.04l-.14.54a.8.8 0 0 0-.58 0c-.36.18-.5.65-.26 1.2.26.58.7.76 1.09.58a.7.7 0 0 0 .4-.51l.5.25c-.1.36-.32.65-.68.8-.69.33-1.49.1-1.92-.8ZM21.36 2.1l.65-.22 1.05 2.83-.65.21-1.05-2.82ZM24.07 1.2l.8-.22 1.7 2.68-.69.18-.76-1.38-.47-.87c0 .33.04.7.04 1.02V4.2l-.69.18.07-3.19Zm.15 1.77 1.4-.36.15.5-1.4.37-.15-.51ZM26.9.5l.68-.1.37 2.42 1.15-.18.08.58-1.85.3L26.9.5ZM29.83.1 31.7 0l.04.58-1.2.07.04.62 1.01-.08.04.58-1.02.08.04.68 1.27-.07.03.58-1.91.1-.22-3.03ZM100.13 45.03V30.55h3.8v14.63c0 .83.36 1.08.68 1.08.15 0 .26 0 .48-.03l.47 2.86c-.44.18-1.05.32-1.92.32-2.6.04-3.51-1.74-3.51-4.38ZM75.73 40.4c.32-1.05 3.73-8.54 3.73-8.54h4.01v17.26h-3.62V38.44l-3 7.75h-2.32l-3-7.75v10.68H67.9V31.86h4.02s3.36 7.49 3.73 8.54h.07ZM107.11 45.47c0-2.75 2.32-4.31 7.42-4.85-.07-1.16-.8-1.85-2.2-1.85-1.1 0-2.18.47-3.4 1.2l-1.35-2.58a10.42 10.42 0 0 1 5.5-1.73c3.3 0 5.11 1.91 5.11 5.93v7.5h-3.62v-1.27s-1.48 1.6-3.58 1.6c-2.4.03-3.88-1.75-3.88-3.95Zm7.42-.22v-2.28c-2.71.36-3.76 1.23-3.76 2.2 0 .84.58 1.27 1.48 1.27.84-.03 1.6-.5 2.28-1.2ZM86.12 45.47c0-2.75 2.31-4.31 7.42-4.85-.07-1.16-.8-1.85-2.21-1.85-1.09 0-2.17.47-3.4 1.2l-1.34-2.58a10.42 10.42 0 0 1 5.5-1.73c3.3 0 5.1 1.91 5.1 5.93v7.5h-3.62v-1.27s-1.48 1.6-3.58 1.6c-2.39.03-3.87-1.75-3.87-3.95Zm7.42-.22v-2.28c-2.72.36-3.77 1.23-3.77 2.2 0 .84.58 1.27 1.49 1.27.83-.03 1.59-.5 2.28-1.2ZM128.94 30.55v6.37a4.12 4.12 0 0 0-3.15-1.26c-2.71 0-5.32 2.6-5.32 6.87 0 4.31 2.06 6.88 5.25 6.88 1.74 0 3.11-1.3 3.22-1.41v1.12h3.8V30.55h-3.8Zm-2.24 15.71c-1.49 0-2.36-1.16-2.36-3.73 0-2.5 1.09-3.65 2.32-3.65.69 0 1.45.22 2.28.83v5.4c-.76.83-1.41 1.15-2.24 1.15ZM135.67 32.04c0-1.2.95-2.03 2.21-2.03 1.27 0 2.21.83 2.21 2.03 0 1.2-.94 2.02-2.2 2.02-1.27 0-2.22-.87-2.22-2.02Zm.3 3.94h3.8v13.14h-3.8V35.98ZM142.15 42.53c0-4.27 2.68-6.87 5.9-6.87 3.66 0 5.69 2.71 5.69 6.3 0 .68-.08 1.4-.15 1.73h-7.7c.32 1.92 1.62 2.79 3.32 2.79.98 0 1.81-.4 2.75-.94l1.3 2.42a8.15 8.15 0 0 1-4.55 1.49c-3.8 0-6.56-2.54-6.56-6.92Zm8.33-1.4c0-1.46-.83-2.5-2.35-2.5-1.2 0-2.03.83-2.28 2.5h4.63ZM67.9 23.31V8.83h3.81v14.63c0 .83.36 1.08.69 1.08.14 0 .25 0 .47-.03l.47 2.86c-.44.18-1.05.32-1.92.32-2.64 0-3.51-1.74-3.51-4.38ZM88.1 23.28l1.06 4.12h3.94l-5.32-17.26H83.4L78.08 27.4h3.95l1.05-4.12h5.03Zm-4.23-3.04 1.67-6.56h.14l1.67 6.56h-3.48ZM93.86 25.88l1.7-2.42a5.47 5.47 0 0 0 3.34 1.37c1.12 0 1.62-.43 1.62-1.12 0-.87-1.26-1.27-2.6-1.77-1.6-.62-3.4-1.7-3.4-3.88 0-2.46 1.95-4.12 4.92-4.12 1.95 0 3.44.8 4.52 1.66l-1.7 2.35a4.63 4.63 0 0 0-2.71-1.12c-.98 0-1.49.4-1.49 1.05 0 .83 1.2 1.16 2.54 1.67 1.63.61 3.47 1.55 3.47 3.94 0 2.4-1.84 4.24-5.28 4.24a8.5 8.5 0 0 1-4.93-1.85ZM105.27 25.88l1.7-2.42a5.46 5.46 0 0 0 3.33 1.37c1.12 0 1.63-.43 1.63-1.12 0-.87-1.27-1.27-2.6-1.77-1.6-.62-3.41-1.7-3.41-3.88 0-2.46 1.95-4.12 4.92-4.12 1.96 0 3.44.8 4.53 1.66l-1.7 2.35a4.63 4.63 0 0 0-2.72-1.12c-.98 0-1.48.4-1.48 1.05 0 .83 1.19 1.16 2.53 1.67 1.63.61 3.47 1.55 3.47 3.94 0 2.4-1.84 4.24-5.28 4.24a8.5 8.5 0 0 1-4.92-1.85ZM132.24 14.26h3.8v1.88c.72-1.44 2.5-1.95 3.4-1.95.72 0 1.16.1 1.52.25l-.4 3.55c-.5-.14-1.09-.4-1.63-.4-1.48.04-2.79 1.3-2.9 2.97v6.84h-3.8V14.26ZM155.7 14.26h3.8v1.67c1.08-1.05 2.16-2 3.94-2 2.79 0 3.98 2.03 3.98 5.3v8.14h-3.8v-7.68c0-1.88-.5-2.5-1.6-2.5-.93 0-1.66.47-2.5 1.27v8.87h-3.8V14.26h-.03ZM180.6 20.81c0-4.27 2.68-6.87 5.9-6.87 3.65 0 5.68 2.71 5.68 6.3 0 .68-.07 1.4-.14 1.73h-7.71c.32 1.92 1.63 2.79 3.33 2.79.97 0 1.8-.4 2.75-.94l1.3 2.42a8.15 8.15 0 0 1-4.56 1.49c-3.77-.04-6.55-2.57-6.55-6.92Zm8.36-1.4c0-1.46-.83-2.5-2.35-2.5-1.2 0-2.03.83-2.28 2.5h4.63ZM141.8 23.75c0-2.75 2.3-4.31 7.41-4.85-.07-1.16-.8-1.85-2.2-1.85-1.1 0-2.18.47-3.4 1.2l-1.35-2.58a10.42 10.42 0 0 1 5.5-1.73c3.3 0 5.1 1.92 5.1 5.93v7.5h-3.61V26.1s-1.49 1.6-3.59 1.6c-2.38 0-3.87-1.75-3.87-3.95Zm7.41-.22v-2.28c-2.71.36-3.76 1.23-3.76 2.2 0 .84.58 1.27 1.48 1.27.87-.03 1.63-.5 2.28-1.2ZM76.7 8.76c-.8 0-1.88.62-1.88 1.7 0 .98.76 1.56 1.56 1.56h.1c-.03 1.16-1.08 1.8-1.58 2.1l1 1.41c3.34-1.05 4.03-6.73.8-6.77ZM125.28 14.26v8.7c-.76 1.04-1.34 1.44-2.28 1.44-1.08 0-1.59-.58-1.59-2.5v-7.64h-3.8v8.3c0 3.1 1.34 5.17 4.06 5.17 2.46 0 3.69-1.67 3.69-1.67v1.34h3.76V14.26h-3.84ZM176.25 24.58c-1.66 0-2.9-1.48-2.9-3.73 0-2.28 1.2-3.76 3.01-3.76.58 0 1.09.21 1.67.72l1.8-2.5a5.53 5.53 0 0 0-3.69-1.34c-3.54 0-6.66 2.54-6.66 6.88s2.72 6.88 6.3 6.88c1.41 0 3-.44 4.24-1.56l-1.38-2.64a3.76 3.76 0 0 1-2.39 1.05ZM34.75 8.94c-.07-.14-.32-.25-.5-.29l-.33-.03c-.26-.08-5.29 0-6.48.8-.11-.8-.4-1.78-1.78-2.07-.97-.22-3.07.72-2.38 2.82.1.36.36.62.72.8.18.1.47.03.69.61.07.15.18.15.29.11.07-.03.1 0 .21.07.11.08.19.04.19.04s.03.04.1.04c.04 0 .18-.04.18 0 .4.32.87-.18 1.05-.51l.66 1.96c-.15-.15-1.74-.58-2.5.25-.65.72-1.16 1.74-1.7 3.44-.15.47-.44.69-.98.9-.87.33-.36.73-.14.76.54.11 1.77.04 2.02-.07.33-.14.07-.9.44-1.38.32-.4.58-.76.8-1 0 .53 0 .82-.3 1.51-.25.65-1.05.98-1.3 1.27-.43.54.54.58.8.5.65-.21 1.08-.21 1.34-.36.36-.21.1-.8.21-1.01.33-.65 1.45-2.06 1.6-2.28.03-.04.03-.07.03-.11.8.25 1.7.33 2.03.29 1.85-.22 2.24-1.52 2.06-2.57-.18-.94-.76-1.52-.94-1.81-.47-.76-.76-1.16-.94-1.38.54-.14 3.48-.94 3.48-.9.1.25.36.29.43.36.18.11.29-.07.22-.1a.63.63 0 0 1-.18-.19c.25 0 .47.04.65.04.29.03.4-.4.25-.5Z"/><path fill="#0C419A" fill-rule="evenodd" d="M60.92 26.68c-.47-2.54-2.82-4.1-4.05-4.63-.83-.37-1.2-.44-1.34-.48-.18-.07-.33-.1-.4-.14.07-.54.72-.58 1.12-1.38 1.09-2.24-1.16-3.8-2.78-3.43-.8.18-1.3.43-1.45 1.05-.07.32-.33.32-.73.76-.14.14.15.36.22.47 0 .03-.07.14-.1.29-.04.14 0 .1 0 .14 0 0-.08.15-.08.33 0 0-.18.36 0 .76.04.1.25.32.33.83 0 .07 0 .1-.3 0-.07-.04-3.07-.9-3.4-1.12a37.41 37.41 0 0 1-3.65-4.1c-.18-.36-.36-.57-.47-.57-.7.03.5 1.3-.18.87-.19-.11-.7-.47-.73-.51-.14-.11-.1-.07-.18-.22-.07-.14-.14-.25-.22-.29-.07-.03-.1-.07-.18-.07-.1.04-.07.1-.1.1h-.11c-.19.04-.04.48 0 .7 0 .03.47 1.15.61 1.34.76.5 1.48.97 1.52.97.83.94 1.77 2.14 2.64 3.04.7.73 3.8 2.54 3.88 2.57.21.11.54.8.07 5.54-.18 1.78-1.45 5.58-.83 7.53.4 1.27.83 2.14 1.3 5.61.1.76-.5 1.27-1.38 1.88-.32.26-1.3.84-1.37.91-.15.14 0 .36.18.47.22.07.58.29.8.33.36.07.9.03 1.48-.3.62-.36.69-.4 1.05-.65.43-.25.94-.32 1.09-.76.18-.57-.33-1.4-.26-1.77.36-2.71.84-4.05.15-5.72-.15-.32.98-3.94 1.08-3.47.18.94.26 3.8.3 5.9 0 .94.75 4.2 1 5.4.37 1.8-2.67 3.25-2.02 3.8.14.1.54.28.9.35.44.08.76 0 1.13-.14.21-.07.54-.47.61-.54.65-.8.44-.58.98-1.16.43-.5.1-1.38.07-1.81-.1-.9 0-1.16-.03-2.83 0-1.91.1-2.46.21-3.18.47-3.19.76-4.92.94-6.26V33s.22.08.33-.07c.18-.29.14-.54.18-.72.04-.18.1.03.1.03s.15.44.15.58c0 .22-.14.47-.25.8-.1.36.18.4.25.43a3.9 3.9 0 0 0 1.16-.9c.15-.3.11-.65.15-.83.03-.47-.26-1.81-.26-1.81.22-.9 1.02-3.19.87-3.84Zm-2.17 3.65c-.1.44-.14.04-.54 1.7l.03-.25v-.72c0-2.06-1.59-6.48-.61-5.58 0 0 1.16.8 1.37 1.42.19.54.15 1.84-.25 3.43Z" clip-rule="evenodd"/><path fill="#0C419A" d="M20.05 35.3c-.36-.33-1.62-2.03-2.42-2.72-.54-.58-.69-.87-1.12-1.48-1.49-1.96-1.81-2.1-2.83-2.25-.21-.14-.14-.29-.1-.33 1.33-.5.9-1.66.86-1.7-.07-.25.11-.36.11-.61 0-.4-.07-.69-.18-.98.04-.18.07-.43-.1-.69-.73-.9-2.54-.94-3.48-.32-.76.5-.33.87-.55 1.63-.14.43 0 .83.3 1.15.03.26.79.73.65 1.24-.15.54-1.02.65-1.02.65l-.25.1c-1.38.8-2.72 1.96-2.9 3.2.07 1 1.67 2.49 2.68 3.29a17.79 17.79 0 0 0 1.3 4.48c.15.33-.32-.25-1.4-.61-.55-.18-1.24-.9-1.42-.04-.07.36.07.98-.25 1.78-.26.58.03 1.52.69 1.52.47 0 .76-1.45.76-1.45s2.28 1.12 3.36.76c.65-.22.8-2.75.15-5.03-.22-.8.4 1.3 1.92 3.11.32.4.03.72.25 2.24.07.58.07.73.07.98-.04.73-.72 1.6.87 2 1.63.43 1.48.79 2.5.1.47-.29-1.41-.5-1.78-1.6l-.03-.24c-.04-.87.36-2.86.21-3.59-.57-3.44-2.02-5.03-2.2-5.83 0-2.39-.18-3.15.03-2.6.04.1.55.94 1.05 1.59.04.07.11.14.18.22.15.18.3.32.44.4 1.01.86 2.6 1.91 2.82 2.13 0 0 .11 1.05.54.98.4-.07 2.32-.9 2.29-1.12-.08-.3-1.96-.3-2-.37ZM9.63 34c-.3-.55-1.09-1.6-1.01-1.78.43-.73.9-.94 1.04-.9.11.03-.03 2.67-.03 2.67Z"/><path fill="#0C419A" d="M51.76 54.77c-.07-.04-1.19-.47-2.2-2.06-.44-.73-3.8-6.92-4.24-8.11-.9-2.4-7.96-6.7-8.25-6.95-.22-.18-.18-.58-.11-.87.58-2.03.36-3.8.47-4.1.29-.68.72-1.66.4-2.3l-.73-1.17s3.73 1.34 4.6 1.16c.76-.14 4.49-2.75 4.7-2.86.51-.25 1.78.11 3.05-1.27.47-.5.14-.68.03-.61.04-.04-.21-.25-.43-.11-.29.18-1.34.47-1.16.33.76-.58.22-.73.22-.73-.33.3-1.81.65-2.14.9-.32.3-.58.51-.72.62-.9.5-2.46 1.27-4.02 1.63-.33.07-3.3-1.88-5.03-2.13a3.37 3.37 0 0 0-1.77.07c-.62.18-.58-.73-.11-.94.25-.11.65-.18.8-.47.17-.37-.04-.7-.04-.76 0-.04.03-.08-.04-.22-.04-.11-.04-.04-.04-.15a.51.51 0 0 0-.07-.21c0-.04 0-.18.04-.22.36-.29.22-.43.14-.47-.1-.11-.65-.33-.68-.69-.08-.58-.3-.87-.37-1.16-.03-.1-.1-.8-.4-1.05-.36-.32-1.12-.72-2.78-.29-.55.15-.44.4-1.74.66-1.6.28-2.46 2.64-2.32 3.62.11.8.8.4.76.76-.03.54-.1 1.44 1.05 1.77.26.07 1.78-.18 2.36-.07 0 0 .47.03.21.5-.1.22-1.63.84-2.02.98-.98.4-3.55 4.6-4.31 5-.65.32-1.05.58-1.3.76-1.05.65-2.07 1.48-2.65 1.44-.76-.03-1.37.33-1.88 1.45-.14.33-.07.5.22.58.1.11.25.25.47.25.22.22.47.08.69-.03.58-.33.72-.58.94-.65.58-.18 3.98-1.52 4.74-2.1 1.16-.62 3.47-3 3.98-3.04.47-.04 1.63 1.01 1.27 3.04-.11.69-.98 1.92-1.45 2.64-.94 1.41-.22 2.68-.4 2.97-.98 1.6-2.17 3.73-4.2 5.54-.8.5-2.42.61-3.33.87-2.02.57-4.16 2.02-5.68 2.9-.5.28-.98-.33-1.63-.4-.62-.08-.69.9-1.01 1.77-.11.25-.15.4-.62 1.48-.18.44-.69 1.7-.18 2.25.47.65 1.56-1.38 2.43-2.36.43-.5.72-.69 1.7-.9.61-.15 5.57-1.49 8.83-2.21.07 0 .18-.04.25-.07 4.24-1.09 8.62-6.63 8.7-6.6l7.2 3.56c.72.4.72 1.77 1.59 3.4.5.98 1.26 1.8 4.34 4.81.4.4.07 1.02.25 1.63.19.65.51.65 1.09.62.54-.04 1.01-.15 1.56-.18.68-.04.5.03 1.3.14.4.07 1.27.18 1.92-.43 1.12-1.2-1.16-.62-2.25-1.16Z"/><path fill="#0C419A" d="M43.98 51.66a.42.42 0 0 0-.58-.19 22.2 22.2 0 0 1-21-.54.5.5 0 0 0-.6.15.5.5 0 0 0 .14.61 23.02 23.02 0 0 0 21.82.55.4.4 0 0 0 .22-.58ZM12.89 22.88c-.08 0-.11 0-.18-.04-.22-.1-.33-.36-.22-.58 1.99-4.34 5.21-7.93 9.34-10.35a.5.5 0 0 1 .61.14.5.5 0 0 1-.14.62 21.77 21.77 0 0 0-8.98 9.95.47.47 0 0 1-.43.26ZM50.28 17.27c-.1 0-.25-.04-.33-.15a21.98 21.98 0 0 0-13.43-7.24c-.25-.03-.4-.25-.36-.5.04-.26.26-.4.51-.37 5.4.76 10.35 3.44 13.97 7.53.15.18.15.47-.03.62-.11.07-.22.1-.33.1Z"/><path fill="#CD545B" d="M67.94 55.6h2.95c.9 0 1.61.21 2.12.64.51.42.77 1.06.77 1.9 0 .59-.12 1.07-.37 1.44-.25.38-.6.68-1.07.9L74.22 64h-1.6l-1.64-3.18H69.35V64h-1.41v-8.4Zm2.68 4.03c.59 0 1.02-.12 1.29-.37.28-.26.42-.6.42-1.06 0-.94-.56-1.41-1.67-1.41h-1.3v2.84h1.26Zm4.73-4.03h1.4V64h-1.4v-8.4Zm5.7 8.57a6.83 6.83 0 0 1-2.77-.59l.16-1.48c1.04.5 1.98.75 2.82.75.48 0 .84-.09 1.1-.27.27-.17.4-.44.4-.79 0-.27-.07-.49-.21-.66a1.6 1.6 0 0 0-.61-.43c-.28-.13-.68-.28-1.22-.46a7.28 7.28 0 0 1-1.3-.54c-.34-.2-.61-.45-.82-.75-.2-.31-.3-.7-.3-1.17 0-.7.26-1.27.78-1.7a3.48 3.48 0 0 1 2.26-.65 6.45 6.45 0 0 1 2.65.55l-.15 1.44c-.48-.23-.92-.4-1.34-.51a4.7 4.7 0 0 0-1.25-.17c-.48 0-.85.08-1.11.25a.8.8 0 0 0-.4.75c0 .24.06.44.2.6.13.15.31.28.54.38.24.1.59.23 1.04.37.96.3 1.66.65 2.1 1.05.46.39.7.93.7 1.62 0 .68-.26 1.25-.75 1.71-.5.47-1.34.7-2.52.7Zm12.33-4.37a4.5 4.5 0 0 1-.84 2.78l.77.74-.84.88-.79-.76c-.7.48-1.52.73-2.44.73a4.2 4.2 0 0 1-2.13-.54 3.87 3.87 0 0 1-1.48-1.53 4.85 4.85 0 0 1-.53-2.3c0-.87.18-1.64.53-2.3.36-.66.85-1.17 1.48-1.53a4.2 4.2 0 0 1 2.13-.54c.8 0 1.52.18 2.14.54.62.36 1.11.87 1.46 1.54.36.65.54 1.42.54 2.29Zm-4.14 3.02c.54 0 1.01-.12 1.42-.36l-1-.97.82-.89 1.02.98c.27-.5.4-1.08.4-1.78 0-.9-.22-1.62-.69-2.18a2.4 2.4 0 0 0-1.97-.84c-.85 0-1.51.28-1.98.84-.46.56-.7 1.28-.7 2.18 0 .9.24 1.62.7 2.18.47.56 1.13.84 1.98.84Zm8.9 1.35c-1.15 0-2.02-.33-2.6-1a4.04 4.04 0 0 1-.88-2.76V55.6h1.4v4.45c0 .9.14 1.59.43 2.08.3.48.85.72 1.65.72.81 0 1.36-.24 1.65-.72.3-.49.44-1.18.44-2.08V55.6h1.4v4.81c0 1.18-.3 2.1-.88 2.76-.59.67-1.45 1-2.6 1Zm5.26-8.57h5.28v1.32h-3.87v2.04h3.04v1.32h-3.04v2.4h3.99V64h-5.4v-8.4Zm9.18 8.57a6.83 6.83 0 0 1-2.77-.59l.17-1.48c1.04.5 1.98.75 2.82.75.47 0 .84-.09 1.1-.27.27-.17.4-.44.4-.79 0-.27-.07-.49-.22-.66a1.6 1.6 0 0 0-.6-.43c-.28-.13-.69-.28-1.22-.46a7.28 7.28 0 0 1-1.3-.54c-.34-.2-.62-.45-.82-.75-.2-.31-.3-.7-.3-1.17 0-.7.25-1.27.77-1.7a3.48 3.48 0 0 1 2.26-.65 6.45 6.45 0 0 1 2.65.55l-.14 1.44c-.48-.23-.93-.4-1.34-.51a4.7 4.7 0 0 0-1.25-.17c-.48 0-.86.08-1.12.25a.8.8 0 0 0-.4.75c0 .24.07.44.2.6.13.15.32.28.55.38.24.1.58.23 1.03.37.96.3 1.67.65 2.11 1.05.46.39.69.93.69 1.62 0 .68-.25 1.25-.75 1.71-.5.47-1.33.7-2.52.7Zm7.25-8.57h2.91c1.95 0 2.93.9 2.93 2.71 0 .93-.25 1.62-.75 2.08-.5.45-1.23.68-2.17.68h-1.5V64h-1.42v-8.4Zm2.76 4.28c.56 0 .97-.12 1.24-.37.28-.25.42-.65.42-1.17 0-.54-.14-.93-.42-1.18-.27-.25-.7-.37-1.27-.37h-1.32v3.1h1.35Zm4.28-4.28h2.95c.9 0 1.61.21 2.13.64.5.42.76 1.06.76 1.9 0 .59-.12 1.07-.37 1.44-.25.38-.6.68-1.07.9l1.89 3.52h-1.6l-1.64-3.18H128.29V64h-1.42v-8.4Zm2.69 4.03c.58 0 1.01-.12 1.28-.37.28-.26.42-.6.42-1.06 0-.94-.55-1.41-1.67-1.41h-1.3v2.84h1.27Zm8.38 4.54a4.2 4.2 0 0 1-2.14-.54 3.87 3.87 0 0 1-1.48-1.53 4.85 4.85 0 0 1-.52-2.3c0-.87.17-1.64.52-2.3.36-.66.86-1.17 1.48-1.53a4.2 4.2 0 0 1 2.14-.54c.8 0 1.5.18 2.13.54.63.36 1.11.87 1.47 1.54.36.65.54 1.42.54 2.29 0 .87-.18 1.64-.54 2.3a3.79 3.79 0 0 1-1.47 1.53 4.2 4.2 0 0 1-2.13.54Zm0-1.35a2.4 2.4 0 0 0 1.96-.84c.47-.56.7-1.28.7-2.18 0-.9-.23-1.62-.7-2.18a2.4 2.4 0 0 0-1.96-.84c-.86 0-1.52.28-1.98.84-.47.56-.7 1.28-.7 2.18 0 .9.23 1.62.7 2.18.46.56 1.12.84 1.98.84Zm5.51-7.22h5.16v1.32h-3.77v2.04h2.9v1.32h-2.9V64h-1.39v-8.4Zm6.3 0h5.28v1.32h-3.87v2.04h3.04v1.32h-3.04v2.4h3.99V64h-5.4v-8.4Zm9.18 8.57a6.83 6.83 0 0 1-2.77-.59l.17-1.48c1.04.5 1.98.75 2.82.75.47 0 .84-.09 1.1-.27.26-.17.4-.44.4-.79 0-.27-.08-.49-.22-.66a1.6 1.6 0 0 0-.61-.43c-.27-.13-.68-.28-1.21-.46a7.28 7.28 0 0 1-1.3-.54c-.34-.2-.62-.45-.83-.75-.2-.31-.3-.7-.3-1.17 0-.7.26-1.27.78-1.7a3.48 3.48 0 0 1 2.26-.65 6.45 6.45 0 0 1 2.65.55l-.14 1.44c-.48-.23-.93-.4-1.35-.51a4.7 4.7 0 0 0-1.25-.17c-.48 0-.85.08-1.11.25a.8.8 0 0 0-.4.75c0 .24.07.44.2.6.13.15.31.28.55.38.24.1.58.23 1.03.37.96.3 1.66.65 2.11 1.05.46.39.68.93.68 1.62 0 .68-.24 1.25-.74 1.71-.5.47-1.34.7-2.52.7Zm6.97 0a6.83 6.83 0 0 1-2.77-.59l.17-1.48c1.04.5 1.98.75 2.82.75.47 0 .84-.09 1.1-.27.27-.17.4-.44.4-.79 0-.27-.07-.49-.22-.66a1.6 1.6 0 0 0-.6-.43c-.28-.13-.69-.28-1.22-.46a7.28 7.28 0 0 1-1.3-.54c-.34-.2-.62-.45-.82-.75-.2-.31-.3-.7-.3-1.17 0-.7.25-1.27.78-1.7a3.48 3.48 0 0 1 2.25-.65 6.45 6.45 0 0 1 2.65.55l-.14 1.44c-.48-.23-.93-.4-1.34-.51a4.7 4.7 0 0 0-1.25-.17c-.48 0-.86.08-1.12.25a.8.8 0 0 0-.4.75c0 .24.07.44.2.6.13.15.32.28.55.38.24.1.58.23 1.03.37.96.3 1.66.65 2.11 1.05.46.39.69.93.69 1.62 0 .68-.25 1.25-.75 1.71-.5.47-1.33.7-2.52.7Zm4.55-8.57h1.4V64h-1.4v-8.4Zm6.92 8.57a4.2 4.2 0 0 1-2.14-.54 3.87 3.87 0 0 1-1.47-1.53 4.85 4.85 0 0 1-.53-2.3c0-.87.18-1.64.53-2.3.36-.66.85-1.17 1.47-1.53a4.2 4.2 0 0 1 2.14-.54c.8 0 1.51.18 2.13.54.63.36 1.12.87 1.47 1.54.36.65.54 1.42.54 2.29 0 .87-.18 1.64-.54 2.3a3.79 3.79 0 0 1-1.47 1.53 4.2 4.2 0 0 1-2.13.54Zm0-1.35a2.4 2.4 0 0 0 1.97-.84c.46-.56.7-1.28.7-2.18 0-.9-.24-1.62-.7-2.18a2.4 2.4 0 0 0-1.97-.84c-.86 0-1.52.28-1.98.84-.46.56-.7 1.28-.7 2.18 0 .9.24 1.62.7 2.18.46.56 1.12.84 1.98.84Zm5.51-7.22h1.42l3.78 5.74V55.6h1.4V64h-1.15l-4.05-6.08V64h-1.4v-8.4Zm8.48 0h1.41l3.78 5.74V55.6h1.4V64h-1.14l-4.06-6.08V64h-1.4v-8.4Zm8.47 0h5.28v1.32h-3.86v2.04h3.03v1.32h-3.03v2.4h3.98V64h-5.4v-8.4Zm6.76 0h1.4v7.15h3.6V64h-5v-8.4Zm8.43 8.57a6.83 6.83 0 0 1-2.78-.59l.17-1.48c1.04.5 1.98.75 2.82.75.47 0 .84-.09 1.1-.27.27-.17.4-.44.4-.79 0-.27-.07-.49-.21-.66a1.6 1.6 0 0 0-.62-.43c-.27-.13-.67-.28-1.2-.46a7.28 7.28 0 0 1-1.3-.54c-.35-.2-.62-.45-.83-.75-.2-.31-.3-.7-.3-1.17 0-.7.26-1.27.78-1.7a3.48 3.48 0 0 1 2.25-.65 6.45 6.45 0 0 1 2.66.55l-.15 1.44c-.48-.23-.93-.4-1.34-.51a4.7 4.7 0 0 0-1.25-.17c-.48 0-.85.08-1.12.25a.8.8 0 0 0-.4.75c0 .24.07.44.2.6.14.15.32.28.55.38.24.1.59.23 1.03.37.96.3 1.67.65 2.12 1.05.45.39.68.93.68 1.62 0 .68-.25 1.25-.74 1.71-.5.47-1.34.7-2.52.7Z"/></svg>
