<svg width="106" height="33" viewBox="0 0 106 33" fill="none" xmlns="http://www.w3.org/2000/svg">
<path d="M50.063 23.2408V16.001H51.9634V23.3132C51.9634 23.7295 52.1444 23.8562 52.3073 23.8562C52.3797 23.8562 52.434 23.8562 52.5426 23.8381L52.7779 25.2679C52.5607 25.3584 52.253 25.4308 51.8186 25.4308C50.5155 25.4489 50.063 24.5621 50.063 23.2408Z" fill="#0C419A"/>
<path d="M37.8641 20.9238C38.027 20.3989 39.7283 16.6523 39.7283 16.6523H41.7374V25.2858H39.9274V19.9465L38.4252 23.8198H37.2668L35.7645 19.9465V25.2858H33.9546V16.6523H35.9636C35.9636 16.6523 37.6469 20.3989 37.8279 20.9238H37.8641Z" fill="#0C419A"/>
<path d="M53.5566 23.4582C53.5566 22.0826 54.715 21.3044 57.267 21.0329C57.2308 20.4537 56.8689 20.1098 56.163 20.1098C55.62 20.1098 55.077 20.3451 54.4616 20.7071L53.7919 19.422C54.6064 18.9152 55.5295 18.5532 56.5431 18.5532C58.1901 18.5532 59.0951 19.5125 59.0951 21.5215V25.2681H57.2851V24.6347C57.2851 24.6347 56.5431 25.431 55.4933 25.431C54.2987 25.4491 53.5566 24.5623 53.5566 23.4582ZM57.267 23.3496V22.2093C55.9096 22.3903 55.3847 22.8247 55.3847 23.3134C55.3847 23.7297 55.6743 23.9469 56.1268 23.9469C56.5431 23.9288 56.9232 23.6935 57.267 23.3496Z" fill="#0C419A"/>
<path d="M43.0586 23.4582C43.0586 22.0826 44.217 21.3044 46.769 21.0329C46.7328 20.4537 46.3708 20.1098 45.6649 20.1098C45.1219 20.1098 44.579 20.3451 43.9636 20.7071L43.2939 19.422C44.1084 18.9152 45.0314 18.5532 46.045 18.5532C47.6921 18.5532 48.5971 19.5125 48.5971 21.5215V25.2681H46.7871V24.6347C46.7871 24.6347 46.045 25.431 44.9952 25.431C43.8007 25.4491 43.0586 24.5623 43.0586 23.4582ZM46.769 23.3496V22.2093C45.4115 22.3903 44.8866 22.8247 44.8866 23.3134C44.8866 23.7297 45.1762 23.9469 45.6287 23.9469C46.045 23.9288 46.4251 23.6935 46.769 23.3496Z" fill="#0C419A"/>
<path d="M64.4706 16.001V19.1865C64.0363 18.7702 63.6019 18.553 62.896 18.553C61.5385 18.553 60.2354 19.8562 60.2354 21.9919C60.2354 24.1458 61.267 25.4308 62.8598 25.4308C63.7286 25.4308 64.4163 24.7793 64.4706 24.725V25.286H66.3711V16.001H64.4706ZM63.3485 23.8562C62.6064 23.8562 62.172 23.277 62.172 21.9919C62.172 20.7431 62.715 20.1639 63.3304 20.1639C63.6743 20.1639 64.0544 20.2725 64.4706 20.5802V23.277C64.0906 23.6933 63.7648 23.8562 63.3485 23.8562Z" fill="#0C419A"/>
<path d="M67.8369 16.7431C67.8369 16.1458 68.3075 15.7295 68.941 15.7295C69.5745 15.7295 70.0451 16.1458 70.0451 16.7431C70.0451 17.3404 69.5745 17.7566 68.941 17.7566C68.3075 17.7566 67.8369 17.3223 67.8369 16.7431ZM67.9817 18.7159H69.8822V25.2861H67.9817V18.7159Z" fill="#0C419A"/>
<path d="M71.0767 21.9921C71.0767 19.8564 72.416 18.5532 74.0269 18.5532C75.8549 18.5532 76.8685 19.9107 76.8685 21.7025C76.8685 22.0464 76.8323 22.4084 76.7961 22.5713H72.9409C73.1038 23.5306 73.7554 23.965 74.6061 23.965C75.0948 23.965 75.5111 23.7659 75.9816 23.4944L76.6332 24.7071C75.9816 25.1777 75.1129 25.4491 74.3527 25.4491C72.4522 25.4491 71.0767 24.1822 71.0767 21.9921ZM75.2396 21.2863C75.2396 20.5623 74.8233 20.0374 74.0631 20.0374C73.4658 20.0374 73.0495 20.4537 72.9228 21.2863H75.2396Z" fill="#0C419A"/>
<path d="M33.9546 12.3809V5.14111H35.855V12.4533C35.855 12.8696 36.036 12.9963 36.1989 12.9963C36.2713 12.9963 36.3256 12.9963 36.4342 12.9782L36.6695 14.4081C36.4523 14.4986 36.1446 14.571 35.7102 14.571C34.389 14.571 33.9546 13.7022 33.9546 12.3809Z" fill="#0C419A"/>
<path d="M44.0541 12.3631L44.579 14.4265H46.5518L43.8912 5.79297H41.7012L39.0405 14.4265H41.0134L41.5383 12.3631H44.0541ZM41.9365 10.8427L42.769 7.56672H42.8414L43.674 10.8427H41.9365Z" fill="#0C419A"/>
<path d="M46.9321 13.6662L47.7828 12.4535C48.362 12.906 48.905 13.1413 49.448 13.1413C50.009 13.1413 50.2624 12.9241 50.2624 12.5802C50.2624 12.1458 49.629 11.9468 48.9593 11.6934C48.1629 11.3857 47.2579 10.8427 47.2579 9.75671C47.2579 8.52594 48.2353 7.69336 49.7195 7.69336C50.6968 7.69336 51.4389 8.09155 51.9819 8.52594L51.1312 9.70241C50.6787 9.35852 50.2262 9.14132 49.7738 9.14132C49.2851 9.14132 49.0317 9.34042 49.0317 9.66621C49.0317 10.0825 49.629 10.2454 50.2986 10.4988C51.1131 10.8065 52.0362 11.2771 52.0362 12.4716C52.0362 13.6662 51.1131 14.5893 49.3937 14.5893C48.5611 14.5712 47.5837 14.2092 46.9321 13.6662Z" fill="#0C419A"/>
<path d="M52.6333 13.6662L53.484 12.4535C54.0632 12.906 54.6061 13.1413 55.1491 13.1413C55.7102 13.1413 55.9636 12.9241 55.9636 12.5802C55.9636 12.1458 55.3301 11.9468 54.6604 11.6934C53.8641 11.3857 52.9591 10.8427 52.9591 9.75671C52.9591 8.52594 53.9365 7.69336 55.4206 7.69336C56.398 7.69336 57.1401 8.09155 57.6831 8.52594L56.8324 9.70241C56.3799 9.35852 55.9274 9.14132 55.4749 9.14132C54.9862 9.14132 54.7328 9.34042 54.7328 9.66621C54.7328 10.0825 55.3301 10.2454 55.9998 10.4988C56.8143 10.8065 57.7374 11.2771 57.7374 12.4716C57.7374 13.6662 56.8143 14.5893 55.0948 14.5893C54.2623 14.5712 53.2849 14.2092 52.6333 13.6662Z" fill="#0C419A"/>
<path d="M66.1177 7.85602H68.0181V8.7972C68.3801 8.07322 69.267 7.81982 69.7195 7.81982C70.0815 7.81982 70.2987 7.87412 70.4797 7.94652L70.2806 9.72028C70.0272 9.64788 69.7376 9.52118 69.4661 9.52118C68.724 9.53928 68.0724 10.1728 68.0181 11.0053V14.4262H66.1177V7.85602Z" fill="#0C419A"/>
<path d="M77.8457 7.85626H79.7462V8.68883C80.2891 8.16395 80.8321 7.69336 81.719 7.69336C83.1127 7.69336 83.7099 8.70693 83.7099 10.3359V14.4083H81.8095V10.5712C81.8095 9.63001 81.5561 9.32232 81.0131 9.32232C80.5425 9.32232 80.1805 9.55761 79.7642 9.9558V14.3902H77.8638V7.85626H77.8457Z" fill="#0C419A"/>
<path d="M90.2983 11.1323C90.2983 8.99653 91.6377 7.69336 93.2486 7.69336C95.0766 7.69336 96.0902 9.05083 96.0902 10.8427C96.0902 11.1866 96.054 11.5486 96.0178 11.7115H92.1626C92.3255 12.6707 92.9771 13.1051 93.8278 13.1051C94.3164 13.1051 94.7327 12.906 95.2033 12.6345L95.8549 13.8472C95.2033 14.3178 94.3345 14.5893 93.5744 14.5893C91.692 14.5712 90.2983 13.3042 90.2983 11.1323ZM94.4793 10.4264C94.4793 9.70241 94.063 9.17752 93.3029 9.17752C92.7056 9.17752 92.2893 9.59381 92.1626 10.4264H94.4793Z" fill="#0C419A"/>
<path d="M70.896 12.5983C70.896 11.2228 72.0544 10.4445 74.6064 10.173C74.5702 9.59381 74.2082 9.24992 73.5023 9.24992C72.9594 9.24992 72.4164 9.48521 71.801 9.8472L71.1313 8.56214C71.9458 8.05535 72.8688 7.69336 73.8824 7.69336C75.5295 7.69336 76.4345 8.65264 76.4345 10.6617V14.4083H74.6245V13.7748C74.6245 13.7748 73.8824 14.5712 72.8327 14.5712C71.6381 14.5712 70.896 13.7024 70.896 12.5983ZM74.6064 12.4897V11.3495C73.2489 11.5305 72.7241 11.9648 72.7241 12.4535C72.7241 12.8698 73.0136 13.087 73.4661 13.087C73.9005 13.0689 74.2806 12.8336 74.6064 12.4897Z" fill="#0C419A"/>
<path d="M38.3528 5.10498C37.9546 5.10498 37.4116 5.41267 37.4116 5.95566C37.4116 6.44435 37.7917 6.73394 38.1899 6.73394C38.208 6.73394 38.2261 6.73394 38.2442 6.73394C38.2261 7.31313 37.7012 7.63892 37.4478 7.78371L37.9546 8.4896C39.6198 7.96471 39.9637 5.12308 38.3528 5.10498Z" fill="#0C419A"/>
<path d="M62.6423 7.85596V12.1998C62.2622 12.7247 61.9726 12.9238 61.502 12.9238C60.959 12.9238 60.7056 12.6342 60.7056 11.675V7.85596H58.8052V12.0008C58.8052 13.5573 59.4749 14.589 60.8323 14.589C62.0631 14.589 62.6785 13.7564 62.6785 13.7564V14.4261H64.5608V7.85596H62.6423Z" fill="#0C419A"/>
<path d="M88.1263 13.0146C87.2937 13.0146 86.6784 12.2725 86.6784 11.1503C86.6784 10.0101 87.2756 9.26799 88.1806 9.26799C88.4702 9.26799 88.7236 9.37658 89.0132 9.62998L89.9182 8.38111C89.4476 7.98292 88.8503 7.71143 88.072 7.71143C86.2983 7.71143 84.7417 8.97839 84.7417 11.1503C84.7417 13.3223 86.0992 14.5893 87.891 14.5893C88.5969 14.5893 89.3933 14.3721 90.0087 13.811L89.3209 12.4897C88.9589 12.7974 88.5607 13.0146 88.1263 13.0146Z" fill="#0C419A"/>
<path d="M17.3752 5.19544C17.339 5.12304 17.2123 5.06874 17.1218 5.05064C17.0132 5.03254 16.9589 5.03254 16.9589 5.03254C16.8322 4.99635 14.3164 5.03254 13.7191 5.43073C13.6648 5.03254 13.52 4.54386 12.8322 4.39906C12.3435 4.29046 11.2938 4.76105 11.6377 5.81082C11.692 5.99182 11.8187 6.11852 11.9997 6.20901C12.0902 6.26331 12.2349 6.22711 12.3435 6.51671C12.3797 6.5891 12.434 6.58911 12.4883 6.57101C12.5245 6.55291 12.5426 6.57101 12.5969 6.6072C12.6512 6.6434 12.6874 6.6253 12.6874 6.6253C12.6874 6.6253 12.7055 6.6434 12.7417 6.6434C12.7598 6.6434 12.8322 6.6253 12.8322 6.6434C13.0313 6.8063 13.2666 6.55291 13.3571 6.39001C13.4476 6.6615 13.6829 7.36739 13.6829 7.36739C13.6105 7.29499 12.8141 7.07779 12.434 7.49408C12.1083 7.85607 11.8549 8.36286 11.5834 9.21354C11.511 9.44883 11.3662 9.55743 11.0947 9.66603C10.6603 9.82892 10.9137 10.028 11.0223 10.0461C11.2938 10.1004 11.9092 10.0642 12.0359 10.0099C12.1988 9.93752 12.0721 9.55743 12.253 9.32214C12.4159 9.12304 12.5426 8.94205 12.6512 8.81535C12.6512 9.08684 12.6512 9.23164 12.5064 9.57553C12.3797 9.90132 11.9816 10.0642 11.8549 10.209C11.6377 10.4805 12.1264 10.4986 12.253 10.4624C12.5788 10.3538 12.796 10.3538 12.9227 10.2814C13.1037 10.1728 12.977 9.88322 13.0313 9.77462C13.1942 9.44883 13.7553 8.74295 13.8277 8.63435C13.8458 8.61625 13.8458 8.59815 13.8458 8.58005C14.244 8.70675 14.6965 8.74295 14.8594 8.72485C15.7825 8.61625 15.9816 7.96467 15.8911 7.43978C15.8006 6.96919 15.511 6.6796 15.4205 6.53481C15.1852 6.15472 15.0404 5.95562 14.9499 5.84702C15.2214 5.77463 16.6874 5.37644 16.6874 5.39454C16.7417 5.52123 16.8684 5.53933 16.9046 5.57553C16.9951 5.62983 17.0494 5.53933 17.0132 5.52123C16.9408 5.46693 16.9227 5.43073 16.9227 5.43073C17.0494 5.43073 17.158 5.44883 17.2485 5.44883C17.3933 5.46693 17.4476 5.24974 17.3752 5.19544Z" fill="#0C419A"/>
<path fill-rule="evenodd" clip-rule="evenodd" d="M30.4617 14.0642C30.2264 12.7972 29.0499 12.0189 28.4345 11.7474C28.0182 11.5664 27.8372 11.5302 27.7648 11.5121C27.6743 11.4759 27.6019 11.4578 27.5657 11.4397C27.6019 11.1683 27.9277 11.1502 28.1268 10.752C28.6698 9.62979 27.5476 8.85151 26.7331 9.03251C26.335 9.12301 26.0816 9.2497 26.0092 9.5574C25.973 9.72029 25.8463 9.72029 25.6472 9.93749C25.5748 10.0099 25.7196 10.1185 25.7558 10.1728C25.7558 10.1909 25.7196 10.2452 25.7015 10.3176C25.6834 10.39 25.7015 10.3719 25.7015 10.39C25.7015 10.39 25.6653 10.4624 25.6653 10.5529C25.6653 10.5529 25.5748 10.7339 25.6653 10.933C25.6834 10.9873 25.792 11.0959 25.8282 11.3493C25.8282 11.3855 25.8282 11.4036 25.6834 11.3493C25.6472 11.3312 24.1449 10.8968 23.982 10.7882C23.801 10.6615 22.3169 9.05061 22.154 8.74292C22.0635 8.56192 21.973 8.45332 21.9187 8.45332C21.5748 8.47142 22.1721 9.10491 21.8282 8.88771C21.7377 8.83341 21.4843 8.65242 21.4662 8.63432C21.3938 8.58002 21.4119 8.59812 21.3757 8.52572C21.3395 8.45332 21.3033 8.39903 21.2671 8.38093C21.2309 8.36283 21.2128 8.34473 21.1766 8.34473C21.1223 8.36283 21.1404 8.39903 21.1223 8.39903C21.1223 8.39903 21.0861 8.39903 21.068 8.39903C20.9775 8.41713 21.0499 8.63432 21.068 8.74292C21.068 8.76102 21.3033 9.3221 21.3757 9.4126C21.7558 9.66599 22.1178 9.90129 22.1359 9.90129C22.5522 10.3719 23.0227 10.9692 23.4571 11.4216C23.801 11.7836 25.3576 12.6886 25.3938 12.7067C25.5024 12.761 25.6653 13.1049 25.43 15.4759C25.3395 16.3628 24.706 18.2633 25.0137 19.2407C25.2128 19.8741 25.43 20.3085 25.6653 22.0461C25.7196 22.4262 25.4119 22.6796 24.9775 22.9873C24.8146 23.114 24.3259 23.4035 24.2897 23.4397C24.2173 23.5121 24.2897 23.6207 24.3802 23.675C24.4888 23.7112 24.6698 23.8198 24.7784 23.8379C24.9594 23.8741 25.2309 23.856 25.5205 23.6931C25.8282 23.5121 25.8644 23.494 26.0454 23.3673C26.2626 23.2407 26.516 23.2045 26.5884 22.9873C26.6788 22.6977 26.4255 22.2814 26.4617 22.1004C26.6427 20.7429 26.8779 20.0732 26.5341 19.2407C26.4617 19.0778 27.0227 17.2678 27.077 17.5031C27.1675 17.9737 27.2037 19.4035 27.2218 20.4533C27.2218 20.9239 27.6019 22.5529 27.7286 23.1502C27.9096 24.0551 26.3893 24.7791 26.715 25.0506C26.7874 25.1049 26.9865 25.1954 27.1675 25.2316C27.3847 25.2678 27.5476 25.2316 27.7286 25.1592C27.8372 25.123 28.0001 24.9239 28.0363 24.8877C28.3621 24.4895 28.2535 24.5981 28.525 24.3085C28.7422 24.0551 28.5793 23.6207 28.5612 23.4035C28.5069 22.9511 28.5612 22.8244 28.5431 21.9918C28.5431 21.0325 28.5974 20.761 28.6517 20.399C28.887 18.8063 29.0318 17.9375 29.1223 17.2678V17.2316C29.1223 17.2316 29.2309 17.2678 29.2852 17.1954C29.3757 17.0506 29.3576 16.9239 29.3757 16.8334C29.3938 16.7429 29.43 16.8515 29.43 16.8515C29.43 16.8515 29.5024 17.0687 29.5024 17.1411C29.5024 17.2497 29.43 17.3764 29.3757 17.5393C29.3214 17.7203 29.4662 17.7384 29.5024 17.7565C29.5386 17.7746 30.0092 17.4307 30.0816 17.304C30.154 17.1592 30.1359 16.9782 30.154 16.8877C30.1721 16.6524 30.0273 15.9827 30.0273 15.9827C30.1359 15.5302 30.534 14.39 30.4617 14.0642ZM29.3757 15.8922C29.3214 16.1094 29.3033 15.9103 29.1042 16.7429L29.1223 16.6162C29.1223 16.5076 29.1223 16.3809 29.1223 16.2542C29.1223 15.2226 28.3259 13.0144 28.8146 13.4669C28.8146 13.4669 29.3938 13.8651 29.5024 14.1728C29.5929 14.4443 29.5748 15.0959 29.3757 15.8922Z" fill="#0C419A"/>
<path d="M10.0271 18.3721C9.84607 18.2092 9.21259 17.3585 8.8144 17.0147C8.5429 16.7251 8.4705 16.5803 8.25331 16.2726C7.51123 15.2952 7.34833 15.2228 6.84155 15.1504C6.73295 15.078 6.76915 15.0056 6.78725 14.9875C7.45693 14.7341 7.23974 14.1549 7.22164 14.1368C7.18544 14.0101 7.27594 13.9558 7.27594 13.8291C7.27594 13.63 7.23974 13.4852 7.18544 13.3404C7.20354 13.25 7.22164 13.1233 7.13114 12.9966C6.76915 12.5441 5.86417 12.526 5.39358 12.8337C5.01349 13.0871 5.23069 13.268 5.12209 13.6481C5.04969 13.8653 5.12209 14.0644 5.26689 14.2273C5.28499 14.354 5.66508 14.5893 5.59268 14.8427C5.52028 15.1142 5.08589 15.1685 5.08589 15.1685C5.03159 15.1866 4.99539 15.2047 4.95919 15.2228C4.27141 15.621 3.60173 16.2002 3.51123 16.8156C3.54743 17.3223 4.34381 18.0644 4.8506 18.4626C4.923 19.3314 5.46598 20.6527 5.50218 20.707C5.57458 20.8699 5.33928 20.5803 4.7963 20.3993C4.5248 20.3088 4.18091 19.9468 4.09042 20.3812C4.05422 20.5622 4.12661 20.8699 3.96372 21.268C3.83702 21.5576 3.98182 22.0282 4.30761 22.0282C4.5429 22.0282 4.6877 21.3042 4.6877 21.3042C4.6877 21.3042 5.82797 21.8653 6.37096 21.6843C6.69675 21.5757 6.76915 20.3088 6.44336 19.1685C6.33476 18.7703 6.64245 19.8201 7.40263 20.7251C7.56553 20.9242 7.42073 21.0871 7.52933 21.8472C7.56553 22.1368 7.56553 22.2092 7.56553 22.3359C7.54743 22.6979 7.20354 23.1323 7.99992 23.3314C8.8144 23.5486 8.742 23.7296 9.24879 23.3857C9.48408 23.2409 8.5429 23.1323 8.36191 22.5893C8.36191 22.5712 8.34381 22.4988 8.34381 22.4626C8.32571 22.0282 8.5248 21.0328 8.45241 20.6708C8.16281 18.9513 7.43883 18.1549 7.34833 17.7567C7.34833 16.5622 7.25784 16.1821 7.36643 16.4536C7.38453 16.5079 7.63793 16.9242 7.89132 17.2499C7.90942 17.2861 7.94562 17.3223 7.98182 17.3585C8.05422 17.449 8.12661 17.5214 8.19901 17.5576C8.7058 17.992 9.50218 18.5169 9.61078 18.6255C9.61078 18.6255 9.66507 19.1504 9.88227 19.1142C10.0814 19.078 11.0406 18.6617 11.0225 18.5531C10.9863 18.4083 10.0452 18.4083 10.0271 18.3721ZM4.8144 17.7205C4.6696 17.449 4.27141 16.9242 4.30761 16.8337C4.52481 16.4717 4.7601 16.3631 4.8325 16.3812C4.8868 16.3993 4.8144 17.7205 4.8144 17.7205Z" fill="#0C419A"/>
<path d="M25.8825 28.1096C25.8463 28.0915 25.2852 27.8743 24.7784 27.0779C24.5612 26.716 22.8779 23.6209 22.6607 23.0236C22.2083 21.8291 18.6788 19.6752 18.534 19.5485C18.4254 19.458 18.4435 19.2589 18.4797 19.1141C18.7693 18.1006 18.6607 17.2137 18.715 17.0689C18.8598 16.725 19.077 16.2363 18.9141 15.9105L18.5521 15.3313C18.5521 15.3313 20.4164 16.001 20.8508 15.9105C21.2309 15.8381 23.0951 14.535 23.2037 14.4807C23.4571 14.354 24.0906 14.535 24.7241 13.8472C24.9594 13.5938 24.7965 13.5033 24.7422 13.5395C24.7603 13.5214 24.6336 13.4128 24.525 13.4852C24.3802 13.5757 23.8553 13.7205 23.9458 13.6481C24.3259 13.3585 24.0544 13.2861 24.0544 13.2861C23.8915 13.4309 23.1494 13.6119 22.9865 13.7386C22.8236 13.8834 22.6969 13.992 22.6245 14.0463C22.1721 14.2997 21.3938 14.6798 20.6155 14.8607C20.4526 14.8969 18.9684 13.9196 18.0997 13.7929C17.6291 13.7205 17.4662 13.7567 17.2128 13.8291C16.9051 13.9196 16.9232 13.4671 17.1585 13.3585C17.2852 13.3042 17.4843 13.268 17.5567 13.1232C17.6472 12.9422 17.5386 12.7793 17.5386 12.7431C17.5386 12.725 17.5567 12.7069 17.5205 12.6345C17.5024 12.5802 17.5024 12.6164 17.5024 12.5621C17.5024 12.5259 17.4843 12.4897 17.4662 12.4535C17.4662 12.4354 17.4662 12.363 17.4843 12.3449C17.6653 12.2001 17.5929 12.1277 17.5567 12.1096C17.5024 12.0553 17.2309 11.9467 17.2128 11.7657C17.1766 11.4761 17.068 11.3313 17.0318 11.1865C17.0137 11.1322 16.9775 10.7884 16.8327 10.6617C16.6517 10.4988 16.2716 10.2997 15.439 10.5169C15.1675 10.5893 15.2218 10.716 14.5702 10.8427C13.7739 10.9874 13.3395 12.1639 13.4119 12.6526C13.4662 13.0508 13.8101 12.8517 13.792 13.0327C13.7739 13.3042 13.7377 13.7567 14.3168 13.9196C14.4435 13.9558 15.2037 13.8291 15.4933 13.8834C15.4933 13.8834 15.7286 13.9015 15.6019 14.1368C15.5476 14.2454 14.7874 14.5531 14.5883 14.6255C14.0997 14.8246 12.8146 16.9241 12.4345 17.1232C12.1087 17.2861 11.9096 17.4128 11.7829 17.5033C11.258 17.8291 10.7512 18.2454 10.4616 18.2273C10.0816 18.2092 9.77386 18.3902 9.52047 18.9512C9.44807 19.1141 9.48427 19.2046 9.62907 19.2408C9.68337 19.2951 9.75577 19.3675 9.86436 19.3675C9.97296 19.4761 10.0997 19.4037 10.2083 19.3494C10.4978 19.1865 10.5702 19.0598 10.6788 19.0236C10.9684 18.9331 12.6698 18.2635 13.0499 17.9739C13.6291 17.6662 14.7874 16.4716 15.0408 16.4535C15.2761 16.4354 15.8553 16.9603 15.6743 17.9739C15.62 18.3178 15.1856 18.9331 14.9503 19.2951C14.4797 20.001 14.8417 20.6345 14.7512 20.7793C14.2626 21.5757 13.6653 22.6436 12.6517 23.5485C12.2535 23.8019 11.439 23.8562 10.9865 23.9829C9.97296 24.2725 8.90509 24.9965 8.14491 25.4309C7.89151 25.5757 7.65622 25.268 7.33043 25.2318C7.02273 25.1956 6.98654 25.6843 6.82364 26.1187C6.76934 26.2454 6.75124 26.3178 6.51595 26.8607C6.42545 27.0779 6.17206 27.7114 6.42545 27.9829C6.66074 28.3087 7.20373 27.2951 7.63812 26.8064C7.85531 26.5531 8.00011 26.4626 8.4888 26.354C8.79649 26.2816 11.2761 25.6119 12.9051 25.2499C12.9413 25.2499 12.9956 25.2318 13.0318 25.2137C15.1494 24.6707 17.3395 21.9015 17.3757 21.9196L20.9775 23.6933C21.3395 23.8924 21.3395 24.5802 21.7739 25.3947C22.0273 25.8834 22.4073 26.2997 23.9458 27.8019C24.1449 28.001 23.982 28.3087 24.0725 28.6164C24.163 28.9422 24.3259 28.9422 24.6155 28.9241C24.887 28.906 25.1223 28.8517 25.3938 28.8336C25.7377 28.8155 25.6472 28.8517 26.0454 28.906C26.2444 28.9422 26.6788 28.9965 27.0046 28.6888C27.5657 28.0915 26.4254 28.3811 25.8825 28.1096Z" fill="#0C419A"/>
<path d="M21.9906 26.553C21.9363 26.4444 21.8097 26.4082 21.7011 26.4625C20.1626 27.2408 18.4431 27.6571 16.7056 27.6571C14.7689 27.6571 12.8685 27.1503 11.2033 26.191C11.0947 26.1367 10.968 26.1729 10.8956 26.2634C10.8413 26.372 10.8775 26.4987 10.968 26.5711C12.7056 27.5666 14.6784 28.0915 16.6875 28.0915C18.4974 28.0915 20.2893 27.6571 21.882 26.8426C22.0087 26.7883 22.0449 26.6616 21.9906 26.553Z" fill="#0C419A"/>
<path d="M6.44354 12.164C6.40734 12.164 6.38924 12.164 6.35304 12.1459C6.24445 12.0916 6.19015 11.9649 6.24445 11.8563C7.23992 9.68433 8.85078 7.89248 10.9141 6.67981C11.0227 6.62551 11.1494 6.66171 11.2218 6.75221C11.2761 6.8608 11.2399 6.9875 11.1494 7.0599C9.15847 8.21827 7.60191 9.93773 6.66074 12.0373C6.60644 12.1278 6.53404 12.164 6.44354 12.164Z" fill="#0C419A"/>
<path d="M25.1402 9.35845C25.0859 9.35845 25.0135 9.34035 24.9773 9.28605C23.2397 7.3132 20.8506 6.02814 18.2624 5.66615C18.1357 5.64805 18.0633 5.53945 18.0814 5.41275C18.0995 5.28605 18.2081 5.21366 18.3348 5.23176C21.0316 5.61185 23.5112 6.95121 25.3212 8.99646C25.3936 9.08696 25.3936 9.23176 25.3031 9.30415C25.2488 9.34035 25.1945 9.35845 25.1402 9.35845Z" fill="#0C419A"/>
</svg>
