<svg width="106" height="33" viewBox="0 0 219 65" fill="none" xmlns="http://www.w3.org/2000/svg">
<path d="M3.29424 32.2536L2.85985 31.8554C3.04085 31.6382 3.18565 31.3848 3.22184 31.1314C3.22184 30.8418 3.11325 30.697 2.96845 30.697C2.78746 30.697 2.71506 30.8418 2.60646 31.1314L2.42547 31.5296C2.28067 31.8192 2.02727 32.1088 1.59289 32.1088C1.0861 32.0726 0.724106 31.6382 0.760305 30.9866C0.760305 30.6246 0.941302 30.2988 1.1947 30.0454L1.59289 30.4074C1.44809 30.5884 1.33949 30.7694 1.33949 31.0228C1.33949 31.24 1.41189 31.421 1.59289 31.421C1.77388 31.421 1.84628 31.24 1.95488 30.9866L2.13587 30.6246C2.31687 30.2626 2.57026 30.0454 2.96845 30.0816C3.47524 30.1178 3.87343 30.5522 3.83723 31.2762C3.76483 31.5296 3.58383 31.964 3.29424 32.2536Z" fill="#0C419A"/>
<path d="M0.506788 27.9455L0 27.0768L0.470589 26.7872L0.904977 27.6922L0.506788 27.9455ZM0.868779 28.6333L1.15837 26.751L1.73756 26.8234L1.55656 28.0179L2.17195 28.0903L2.31674 27.0768L2.89593 27.1492L2.75113 28.1627L3.43891 28.2713L3.61991 27.0406L4.19909 27.113L3.9095 29.0315L0.868779 28.6333Z" fill="#0C419A"/>
<path d="M2.78729 25.991C1.80991 25.7376 1.41172 24.9775 1.59271 24.2173C1.70131 23.8553 1.9547 23.5657 2.2081 23.4209L2.53389 23.8915C2.35289 24.0001 2.2081 24.1449 2.1719 24.3621C2.0633 24.7603 2.35289 25.1585 2.93208 25.3033C3.54746 25.448 3.94566 25.2671 4.05425 24.8327C4.12665 24.5793 4.05425 24.3621 3.90946 24.1811L4.41624 23.9277C4.63344 24.2535 4.70584 24.6155 4.59724 24.9775C4.45244 25.7738 3.76466 26.2444 2.78729 25.991Z" fill="#0C419A"/>
<path d="M3.72837 22.8417L2.20801 22.2625L2.4614 21.6109L4.05416 22.2263C4.59715 22.4435 4.85054 22.3349 4.99534 22.0091C5.10394 21.6833 4.99534 21.4299 4.45235 21.2127L2.85959 20.5973L3.07679 19.9819L4.59715 20.5611C5.53833 20.9231 5.79172 21.4661 5.53833 22.1901C5.24873 22.9503 4.66955 23.1675 3.72837 22.8417Z" fill="#0C419A"/>
<path d="M3.69238 18.5702L4.19917 17.5928C4.48876 17.0136 4.92315 16.6516 5.57473 16.9774C6.19012 17.3032 6.22632 17.8824 5.90053 18.4616L5.71953 18.8236L6.69691 19.3303L6.37111 19.9457L3.69238 18.5702ZM5.39374 18.2806C5.57473 17.9548 5.50234 17.7376 5.24894 17.5928C4.99555 17.448 4.81455 17.5928 4.63356 17.8824L4.48876 18.2082L5.21274 18.6064L5.39374 18.2806ZM5.68333 18.534L5.50234 17.9186L7.45709 17.8462L7.0951 18.534H5.68333Z" fill="#0C419A"/>
<path d="M5.42969 15.3121L5.79168 14.7329L8.32562 16.3619L7.96362 16.9411L5.42969 15.3121Z" fill="#0C419A"/>
<path d="M7.34847 13.5024L6.84168 14.1539L6.37109 13.792L7.78286 11.9458L8.25345 12.3078L7.74666 12.9594L9.70141 14.4435L9.30322 14.9865L7.34847 13.5024Z" fill="#0C419A"/>
<path d="M8.54297 11.0408L9.84614 9.66528L10.2805 10.0635L9.44795 10.9323L9.88234 11.3304L10.5701 10.5703L11.0045 10.9684L10.3167 11.7286L10.8235 12.1992L11.6923 11.2942L12.1267 11.6924L10.8235 13.1042L8.54297 11.0408ZM8.61537 10.2807L8.68777 9.26709L9.26695 9.30329L9.08596 10.2807H8.61537Z" fill="#0C419A"/>
<path d="M13.6108 9.70117L13.647 9.08578C13.9366 9.08578 14.2262 9.04959 14.4072 8.86859C14.6244 8.68759 14.6606 8.5066 14.552 8.3618C14.4434 8.21701 14.2624 8.2532 13.9728 8.3618L13.5746 8.4704C13.2488 8.579 12.8506 8.5428 12.5972 8.18081C12.3077 7.78262 12.4162 7.20343 12.8868 6.80524C13.1764 6.58805 13.5384 6.47945 13.9004 6.51565V7.05864C13.647 7.05864 13.466 7.09483 13.2488 7.23963C13.0678 7.38443 12.9954 7.56542 13.104 7.67402C13.2126 7.81882 13.4298 7.74642 13.6832 7.67402L14.0814 7.56542C14.4796 7.45683 14.8054 7.49303 15.0588 7.85502C15.3484 8.25321 15.3122 8.83239 14.733 9.30298C14.4434 9.59257 14.009 9.73737 13.6108 9.70117Z" fill="#0C419A"/>
<path d="M15.4568 6.80527C14.9501 5.97269 15.131 5.17631 15.8188 4.77812C16.5066 4.34374 17.2668 4.56093 17.7736 5.39351C18.2804 6.22609 18.0994 7.02247 17.4116 7.45686C16.76 7.85505 15.9636 7.63785 15.4568 6.80527ZM17.2306 5.7555C16.9048 5.24871 16.5066 5.06772 16.1446 5.28491C15.7826 5.5021 15.7464 5.9365 16.0722 6.44328C16.398 6.95007 16.7962 7.16727 17.1582 6.95007C17.484 6.73288 17.5202 6.26229 17.2306 5.7555Z" fill="#0C419A"/>
<path d="M18.6789 4.92289C18.2445 4.01791 18.6065 3.22153 19.2943 2.89574C19.6562 2.71474 20.0182 2.75094 20.2716 2.85954L20.1268 3.40253C19.9458 3.33013 19.7286 3.33013 19.5476 3.40253C19.1857 3.58352 19.0409 4.05411 19.2943 4.5971C19.5476 5.17628 19.982 5.35728 20.3802 5.17628C20.5974 5.06769 20.7422 4.88669 20.7784 4.6695L21.2852 4.92289C21.1766 5.28488 20.9594 5.57447 20.5974 5.71927C19.9096 6.04506 19.1133 5.82787 18.6789 4.92289Z" fill="#0C419A"/>
<path d="M21.3574 2.09952L22.009 1.88232L23.0588 4.70585L22.4072 4.92305L21.3574 2.09952Z" fill="#0C419A"/>
<path d="M24.0724 1.19473L24.8688 0.977539L26.5701 3.65627L25.8824 3.83727L25.1222 2.4617C24.9774 2.20831 24.7964 1.88252 24.6516 1.59292C24.6516 1.91871 24.6878 2.28071 24.6878 2.6065V4.19926L24 4.38025L24.0724 1.19473ZM24.2172 2.96849L25.629 2.6065L25.7738 3.11328L24.362 3.47527L24.2172 2.96849Z" fill="#0C419A"/>
<path d="M26.896 0.506548L27.5838 0.397949L27.9458 2.82329L29.1041 2.6423L29.1765 3.22148L27.3304 3.51107L26.896 0.506548Z" fill="#0C419A"/>
<path d="M29.8281 0.108598L31.7105 0L31.7467 0.579185L30.5521 0.651585L30.5883 1.26697L31.6019 1.19457L31.6381 1.77376L30.6245 1.84615L30.6607 2.53394L31.9277 2.46154L31.9639 3.04072L30.0453 3.14932L29.8281 0.108598Z" fill="#0C419A"/>
<path d="M100.126 45.0319V30.5522H103.927V45.1767C103.927 46.0093 104.289 46.2627 104.615 46.2627C104.76 46.2627 104.869 46.2627 105.086 46.2265L105.556 49.0862C105.122 49.2672 104.507 49.412 103.638 49.412C101.031 49.4482 100.126 47.6744 100.126 45.0319Z" fill="#0C419A"/>
<path d="M75.7282 40.3985C76.054 39.3487 79.4567 31.8555 79.4567 31.8555H83.4748V49.1224H79.8549V38.4437L76.8503 46.1903H74.5336L71.5291 38.4437V49.1224H67.9092V31.8555H71.9273C71.9273 31.8555 75.2938 39.3487 75.6558 40.3985H75.7282V40.3985Z" fill="#0C419A"/>
<path d="M107.113 45.4662C107.113 42.7151 109.43 41.1585 114.534 40.6155C114.461 39.4572 113.737 38.7694 112.325 38.7694C111.239 38.7694 110.154 39.24 108.923 39.9639L107.583 37.3938C109.212 36.3802 111.058 35.6562 113.086 35.6562C116.38 35.6562 118.19 37.5748 118.19 41.5929V49.0861H114.57V47.8191C114.57 47.8191 113.086 49.4119 110.986 49.4119C108.597 49.4481 107.113 47.6743 107.113 45.4662ZM114.534 45.249V42.9685C111.819 43.3305 110.769 44.1992 110.769 45.1766C110.769 46.0092 111.348 46.4436 112.253 46.4436C113.086 46.4074 113.846 45.9368 114.534 45.249Z" fill="#0C419A"/>
<path d="M86.1172 45.4662C86.1172 42.7151 88.4339 41.1585 93.538 40.6155C93.4656 39.4572 92.7416 38.7694 91.3299 38.7694C90.2439 38.7694 89.1579 39.24 87.9271 39.9639L86.5878 37.3938C88.2167 36.3802 90.0629 35.6562 92.09 35.6562C95.3842 35.6562 97.1941 37.5748 97.1941 41.5929V49.0861H93.5742V47.8191C93.5742 47.8191 92.09 49.4119 89.9905 49.4119C87.6014 49.4481 86.1172 47.6743 86.1172 45.4662ZM93.538 45.249V42.9685C90.8231 43.3305 89.7733 44.1992 89.7733 45.1766C89.7733 46.0092 90.3525 46.4436 91.2575 46.4436C92.09 46.4074 92.8502 45.9368 93.538 45.249Z" fill="#0C419A"/>
<path d="M128.941 30.5522V36.9233C128.072 36.0907 127.203 35.6563 125.791 35.6563C123.077 35.6563 120.47 38.2627 120.47 42.5341C120.47 46.8418 122.534 49.412 125.719 49.412C127.457 49.412 128.832 48.1088 128.941 48.0002V49.1224H132.742V30.5522H128.941ZM126.696 46.2627C125.212 46.2627 124.344 45.1043 124.344 42.5341C124.344 40.0364 125.429 38.878 126.66 38.878C127.348 38.878 128.108 39.0952 128.941 39.7106V45.1043C128.181 45.9369 127.529 46.2627 126.696 46.2627Z" fill="#0C419A"/>
<path d="M135.674 32.0364C135.674 30.8419 136.615 30.0093 137.882 30.0093C139.149 30.0093 140.09 30.8419 140.09 32.0364C140.09 33.231 139.149 34.0636 137.882 34.0636C136.615 34.0636 135.674 33.1948 135.674 32.0364ZM135.963 35.9821H139.764V49.1224H135.963V35.9821Z" fill="#0C419A"/>
<path d="M142.153 42.5341C142.153 38.2626 144.832 35.6562 148.054 35.6562C151.71 35.6562 153.737 38.3712 153.737 41.9549C153.737 42.6427 153.665 43.3667 153.592 43.6924H145.882C146.208 45.611 147.511 46.4798 149.212 46.4798C150.19 46.4798 151.022 46.0816 151.963 45.5386L153.266 47.9639C151.963 48.9051 150.226 49.4481 148.705 49.4481C144.904 49.4481 142.153 46.9142 142.153 42.5341ZM150.479 41.1223C150.479 39.6743 149.647 38.6246 148.126 38.6246C146.932 38.6246 146.099 39.4572 145.846 41.1223H150.479Z" fill="#0C419A"/>
<path d="M67.9092 23.3122V8.83252H71.7101V23.457C71.7101 24.2895 72.0721 24.5429 72.3979 24.5429C72.5427 24.5429 72.6513 24.5429 72.8684 24.5067L73.339 27.3665C72.9047 27.5475 72.2893 27.6923 71.4205 27.6923C68.778 27.6923 67.9092 25.9547 67.9092 23.3122Z" fill="#0C419A"/>
<path d="M88.1082 23.276L89.158 27.4027H93.1037L87.7824 10.1357H83.4023L78.0811 27.4027H82.0268L83.0765 23.276H88.1082ZM83.8729 20.2353L85.5381 13.6833H85.6829L87.348 20.2353H83.8729Z" fill="#0C419A"/>
<path d="M93.8638 25.8822L95.5651 23.4569C96.7235 24.3619 97.8095 24.8325 98.8954 24.8325C100.018 24.8325 100.524 24.3981 100.524 23.7103C100.524 22.8415 99.2574 22.4433 97.9181 21.9365C96.3253 21.3211 94.5154 20.2352 94.5154 18.0632C94.5154 15.6017 96.4701 13.9365 99.4384 13.9365C101.393 13.9365 102.877 14.7329 103.963 15.6017L102.262 17.9546C101.357 17.2668 100.452 16.8325 99.547 16.8325C98.5697 16.8325 98.0629 17.2306 98.0629 17.8822C98.0629 18.7148 99.2574 19.0406 100.597 19.5474C102.226 20.1628 104.072 21.1039 104.072 23.4931C104.072 25.8822 102.226 27.7284 98.7868 27.7284C97.1217 27.6922 95.1669 26.9682 93.8638 25.8822Z" fill="#0C419A"/>
<path d="M105.267 25.8822L106.968 23.4569C108.126 24.3619 109.212 24.8325 110.298 24.8325C111.42 24.8325 111.927 24.3981 111.927 23.7103C111.927 22.8415 110.66 22.4433 109.321 21.9365C107.728 21.3211 105.918 20.2352 105.918 18.0632C105.918 15.6017 107.873 13.9365 110.841 13.9365C112.796 13.9365 114.28 14.7329 115.366 15.6017L113.665 17.9546C112.76 17.2668 111.855 16.8325 110.95 16.8325C109.972 16.8325 109.466 17.2306 109.466 17.8822C109.466 18.7148 110.66 19.0406 112 19.5474C113.629 20.1628 115.475 21.1039 115.475 23.4931C115.475 25.8822 113.629 27.7284 110.19 27.7284C108.525 27.6922 106.57 26.9682 105.267 25.8822Z" fill="#0C419A"/>
<path d="M132.235 14.2623H136.036V16.1447C136.76 14.6967 138.534 14.1899 139.438 14.1899C140.162 14.1899 140.597 14.2985 140.959 14.4433L140.561 17.9908C140.054 17.8461 139.475 17.5927 138.932 17.5927C137.448 17.6289 136.144 18.8958 136.036 20.561V27.4026H132.235V14.2623V14.2623Z" fill="#0C419A"/>
<path d="M155.692 14.2623H159.493V15.9275C160.579 14.8777 161.665 13.9365 163.438 13.9365C166.226 13.9365 167.42 15.9637 167.42 19.2216V27.3664H163.619V19.6922C163.619 17.8098 163.113 17.1944 162.027 17.1944C161.086 17.1944 160.362 17.665 159.529 18.4614V27.3302H155.728V14.2623H155.692Z" fill="#0C419A"/>
<path d="M180.597 20.8144C180.597 16.5429 183.276 13.9365 186.498 13.9365C190.154 13.9365 192.181 16.6515 192.181 20.2352C192.181 20.923 192.108 21.6469 192.036 21.9727H184.326C184.651 23.8913 185.955 24.7601 187.656 24.7601C188.633 24.7601 189.466 24.3619 190.407 23.8189L191.71 26.2442C190.407 27.1854 188.67 27.7284 187.149 27.7284C183.384 27.6922 180.597 25.1582 180.597 20.8144ZM188.959 19.4026C188.959 17.9546 188.127 16.9049 186.606 16.9049C185.412 16.9049 184.579 17.7374 184.326 19.4026H188.959Z" fill="#0C419A"/>
<path d="M141.792 23.7465C141.792 20.9953 144.108 19.4388 149.212 18.8958C149.14 17.7374 148.416 17.0496 147.004 17.0496C145.918 17.0496 144.832 17.5202 143.601 18.2442L142.262 15.6741C143.891 14.6605 145.737 13.9365 147.764 13.9365C151.058 13.9365 152.868 15.8551 152.868 19.8732V27.3664H149.249V26.0994C149.249 26.0994 147.764 27.6922 145.665 27.6922C143.276 27.6922 141.792 25.9546 141.792 23.7465ZM149.212 23.5293V21.2487C146.497 21.6107 145.448 22.4795 145.448 23.4569C145.448 24.2895 146.027 24.7239 146.932 24.7239C147.801 24.6877 148.561 24.2171 149.212 23.5293Z" fill="#0C419A"/>
<path d="M76.7056 8.76025C75.9092 8.76025 74.8232 9.37564 74.8232 10.4616C74.8232 11.439 75.5834 12.0182 76.3798 12.0182C76.416 12.0182 76.4522 12.0182 76.4884 12.0182C76.4522 13.1765 75.4024 13.8281 74.8956 14.1177L75.9092 15.5295C79.2395 14.4797 79.9273 8.79645 76.7056 8.76025Z" fill="#0C419A"/>
<path d="M125.285 14.2627V22.9505C124.524 24.0003 123.945 24.3984 123.004 24.3984C121.918 24.3984 121.411 23.8193 121.411 21.9007V14.2627H117.61V22.5523C117.61 25.6654 118.95 27.7288 121.665 27.7288C124.126 27.7288 125.357 26.0636 125.357 26.0636V27.403H129.122V14.2627H125.285Z" fill="#0C419A"/>
<path d="M176.253 24.5795C174.588 24.5795 173.357 23.0953 173.357 20.851C173.357 18.5704 174.552 17.0863 176.362 17.0863C176.941 17.0863 177.448 17.3035 178.027 17.8103L179.837 15.3125C178.896 14.5161 177.701 13.9731 176.145 13.9731C172.597 13.9731 169.484 16.5071 169.484 20.851C169.484 25.1949 172.199 27.7288 175.783 27.7288C177.194 27.7288 178.787 27.2944 180.018 26.1722L178.642 23.5297C177.918 24.1451 177.122 24.5795 176.253 24.5795Z" fill="#0C419A"/>
<path d="M34.7509 8.94117C34.6785 8.79638 34.4251 8.68778 34.2441 8.65158C34.0269 8.61538 33.9184 8.61538 33.9184 8.61538C33.665 8.54298 28.6333 8.61538 27.4387 9.41176C27.3301 8.61538 27.0405 7.63801 25.665 7.34841C24.6876 7.13122 22.588 8.07239 23.2758 10.1719C23.3844 10.5339 23.6378 10.7873 23.9998 10.9683C24.1808 11.0769 24.4704 11.0045 24.6876 11.5837C24.76 11.7285 24.8686 11.7285 24.9772 11.6923C25.0496 11.6561 25.0858 11.6923 25.1944 11.7647C25.303 11.8371 25.3754 11.8009 25.3754 11.8009C25.3754 11.8009 25.4116 11.8371 25.484 11.8371C25.5202 11.8371 25.665 11.8009 25.665 11.8371C26.0631 12.1629 26.5337 11.6561 26.7147 11.3303C26.8957 11.8733 27.3663 13.2851 27.3663 13.2851C27.2215 13.1403 25.6288 12.7059 24.8686 13.5385C24.217 14.2624 23.7102 15.276 23.1672 16.9774C23.0224 17.448 22.7328 17.6652 22.1898 17.8824C21.3211 18.2081 21.8279 18.6063 22.045 18.6425C22.588 18.7511 23.8188 18.6787 24.0722 18.5701C24.398 18.4253 24.1446 17.6652 24.5066 17.1946C24.8324 16.7964 25.0858 16.4344 25.303 16.181C25.303 16.724 25.303 17.0136 25.0134 17.7014C24.76 18.3529 23.9636 18.6787 23.7102 18.9683C23.2758 19.5113 24.2532 19.5475 24.5066 19.4751C25.1582 19.2579 25.5926 19.2579 25.846 19.1131C26.2079 18.8959 25.9546 18.3167 26.0631 18.0995C26.3889 17.448 27.5111 16.0362 27.6559 15.819C27.6921 15.7828 27.6921 15.7466 27.6921 15.7104C28.4885 15.9638 29.3935 16.0362 29.7193 16C31.5654 15.7828 31.9636 14.4796 31.7826 13.4299C31.6016 12.4887 31.0224 11.9095 30.8414 11.6199C30.3708 10.8597 30.0812 10.4615 29.9002 10.2443C30.4432 10.0995 33.3754 9.30317 33.3754 9.33936C33.484 9.59276 33.7374 9.62896 33.8098 9.70136C33.9907 9.80995 34.0993 9.62896 34.027 9.59276C33.8822 9.48416 33.846 9.41176 33.846 9.41176C34.0993 9.41176 34.3165 9.44796 34.4975 9.44796C34.7871 9.48416 34.8957 9.04977 34.7509 8.94117Z" fill="#0C419A"/>
<path fill-rule="evenodd" clip-rule="evenodd" d="M60.9228 26.6787C60.4522 24.1447 58.0993 22.5882 56.8685 22.0452C56.0359 21.6832 55.674 21.6108 55.5292 21.5746C55.3482 21.5022 55.2034 21.466 55.131 21.4298C55.2034 20.8868 55.855 20.8506 56.2531 20.0542C57.3391 17.8099 55.0948 16.2533 53.4658 16.6153C52.6694 16.7963 52.1626 17.0497 52.0178 17.6651C51.9454 17.9909 51.6921 17.9909 51.2939 18.4253C51.1491 18.5701 51.4387 18.7873 51.5111 18.8959C51.5111 18.9321 51.4387 19.0407 51.4025 19.1854C51.3663 19.3302 51.4025 19.294 51.4025 19.3302C51.4025 19.3302 51.3301 19.475 51.3301 19.656C51.3301 19.656 51.1491 20.018 51.3301 20.4162C51.3663 20.5248 51.5835 20.742 51.6559 21.2488C51.6559 21.3212 51.6559 21.3574 51.3663 21.2488C51.2939 21.2126 48.2893 20.3438 47.9636 20.1266C47.6016 19.8732 44.6332 16.6515 44.3074 16.0361C44.1264 15.6741 43.9454 15.4569 43.8369 15.4569C43.1491 15.4931 44.3436 16.7601 43.6559 16.3257C43.4749 16.2171 42.9681 15.8551 42.9319 15.8189C42.7871 15.7103 42.8233 15.7465 42.7509 15.6017C42.6785 15.4569 42.6061 15.3483 42.5337 15.3121C42.4613 15.2759 42.4251 15.2397 42.3527 15.2397C42.2441 15.2759 42.2803 15.3483 42.2441 15.3483C42.2441 15.3483 42.1717 15.3483 42.1355 15.3483C41.9545 15.3845 42.0993 15.8189 42.1355 16.0361C42.1355 16.0723 42.6061 17.1945 42.7509 17.3755C43.5111 17.8823 44.235 18.3529 44.2712 18.3529C45.1038 19.294 46.045 20.4886 46.9138 21.3936C47.6016 22.1176 50.7147 23.9275 50.7871 23.9637C51.0043 24.0723 51.3301 24.7601 50.8595 29.5022C50.6785 31.276 49.4115 35.0769 50.0269 37.0316C50.4251 38.2986 50.8595 39.1673 51.3301 42.6425C51.4387 43.4026 50.8233 43.9094 49.9545 44.5248C49.6287 44.7782 48.6513 45.3574 48.5789 45.4298C48.4341 45.5746 48.5789 45.7918 48.7599 45.9004C48.9771 45.9728 49.3391 46.19 49.5563 46.2262C49.9183 46.2986 50.4613 46.2624 51.0405 45.9366C51.6559 45.5746 51.7283 45.5384 52.0902 45.285C52.5246 45.0316 53.0314 44.9592 53.1762 44.5248C53.3572 43.9456 52.8504 43.1131 52.9228 42.7511C53.2848 40.0361 53.7554 38.6968 53.0676 37.0316C52.9228 36.7058 54.045 33.0859 54.1536 33.5565C54.3346 34.4977 54.407 37.3574 54.4432 39.4569C54.4432 40.3981 55.2034 43.656 55.4568 44.8506C55.8188 46.6606 52.778 48.1085 53.4296 48.6515C53.5744 48.7601 53.9726 48.9411 54.3346 49.0135C54.769 49.0859 55.0948 49.0135 55.4568 48.8687C55.674 48.7963 55.9997 48.3981 56.0721 48.3257C56.7237 47.5293 56.5065 47.7465 57.0495 47.1674C57.4839 46.6606 57.1581 45.7918 57.1219 45.3574C57.0133 44.4524 57.1219 44.199 57.0857 42.5339C57.0857 40.6153 57.1943 40.0723 57.3029 39.3483C57.7735 36.1628 58.0631 34.4253 58.2441 33.0859V33.0135C58.2441 33.0135 58.4613 33.0859 58.5699 32.9411C58.7509 32.6515 58.7147 32.3981 58.7509 32.2171C58.7871 32.0361 58.8595 32.2533 58.8595 32.2533C58.8595 32.2533 59.0043 32.6877 59.0043 32.8325C59.0043 33.0497 58.8595 33.3031 58.7509 33.6289C58.6423 33.9909 58.9319 34.0271 59.0043 34.0633C59.0767 34.0995 60.0178 33.4117 60.1626 33.1583C60.3074 32.8687 60.2712 32.5067 60.3074 32.3257C60.3436 31.8551 60.054 30.5158 60.054 30.5158C60.2712 29.6108 61.0676 27.3302 60.9228 26.6787ZM58.7509 30.3348C58.6423 30.7692 58.6061 30.371 58.2079 32.0361L58.2441 31.7827C58.2441 31.5655 58.2441 31.3121 58.2441 31.0588C58.2441 28.9954 56.6513 24.5791 57.6287 25.4841C57.6287 25.4841 58.7871 26.2805 59.0043 26.8959C59.1853 27.4388 59.1491 28.742 58.7509 30.3348Z" fill="#0C419A"/>
<path d="M20.0541 35.2941C19.6921 34.9683 18.4252 33.2669 17.6288 32.5791C17.0858 31.9999 16.941 31.7103 16.5066 31.095C15.0225 29.1402 14.6967 28.9954 13.6831 28.8506C13.4659 28.7058 13.5383 28.561 13.5745 28.5248C14.9139 28.018 14.4795 26.8597 14.4433 26.8235C14.3709 26.5701 14.5519 26.4615 14.5519 26.2081C14.5519 25.8099 14.4795 25.5203 14.3709 25.2307C14.4071 25.0497 14.4433 24.7963 14.2623 24.5429C13.5383 23.6379 11.7283 23.6017 10.7872 24.2171C10.027 24.7239 10.4614 25.0859 10.2442 25.8461C10.0994 26.2805 10.2442 26.6787 10.5338 27.0045C10.57 27.2578 11.3302 27.7284 11.1854 28.2352C11.0406 28.7782 10.1718 28.8868 10.1718 28.8868C10.0632 28.923 9.99079 28.9592 9.91839 28.9954C8.54282 29.7918 7.20346 30.9502 7.02246 32.1809C7.09486 33.1945 8.68762 34.6787 9.70119 35.475C9.84599 37.2126 10.932 39.8551 11.0044 39.9637C11.1492 40.2895 10.6786 39.7103 9.5926 39.3483C9.04961 39.1674 8.36183 38.4434 8.18083 39.3121C8.10843 39.6741 8.25323 40.2895 7.92744 41.0859C7.67404 41.6651 7.96364 42.6063 8.61522 42.6063C9.08581 42.6063 9.3754 41.1583 9.3754 41.1583C9.3754 41.1583 11.6559 42.2805 12.7419 41.9185C13.3935 41.7013 13.5383 39.1674 12.8867 36.8868C12.6695 36.0904 13.2849 38.19 14.8053 39.9999C15.1311 40.3981 14.8415 40.7239 15.0587 42.2443C15.1311 42.8235 15.1311 42.9683 15.1311 43.2217C15.0949 43.9456 14.4071 44.8144 15.9998 45.2126C17.6288 45.647 17.484 46.009 18.4976 45.3212C18.9682 45.0316 17.0858 44.8144 16.7238 43.7284C16.7238 43.6922 16.6876 43.5474 16.6876 43.475C16.6514 42.6063 17.0496 40.6153 16.9048 39.8913C16.3256 36.4524 14.8777 34.8597 14.6967 34.0633C14.6967 31.6741 14.5157 30.914 14.7329 31.4569C14.7691 31.5655 15.2759 32.3981 15.7826 33.0497C15.8188 33.1221 15.8912 33.1945 15.9636 33.2669C16.1084 33.4479 16.2532 33.5927 16.398 33.6651C17.4116 34.5339 19.0044 35.5836 19.2216 35.8008C19.2216 35.8008 19.3302 36.8506 19.7645 36.7782C20.1627 36.7058 22.0813 35.8732 22.0451 35.656C21.9727 35.3665 20.0903 35.3664 20.0541 35.2941ZM9.62879 33.9909C9.3392 33.4479 8.54282 32.3981 8.61522 32.2171C9.04961 31.4931 9.5202 31.276 9.665 31.3122C9.77359 31.3483 9.62879 33.9909 9.62879 33.9909Z" fill="#0C419A"/>
<path d="M51.7644 54.769C51.692 54.7328 50.5699 54.2985 49.5563 52.7057C49.1219 51.9817 45.7554 45.7917 45.321 44.5971C44.416 42.208 37.3572 37.9003 37.0676 37.6469C36.8504 37.4659 36.8866 37.0677 36.959 36.7781C37.5382 34.7509 37.321 32.9772 37.4296 32.6876C37.7192 31.9998 38.1536 31.0224 37.8278 30.3709L37.1038 29.2125C37.1038 29.2125 40.8323 30.5519 41.7011 30.3709C42.4613 30.2261 46.1898 27.6197 46.407 27.5111C46.9138 27.2577 48.1807 27.6197 49.4477 26.2442C49.9183 25.7374 49.5925 25.5564 49.4839 25.6288C49.5201 25.5926 49.2667 25.3754 49.0495 25.5202C48.7599 25.7012 47.7101 25.9908 47.8911 25.846C48.6513 25.2668 48.1083 25.122 48.1083 25.122C47.7825 25.4116 46.2984 25.7736 45.9726 26.027C45.6468 26.3166 45.3934 26.5338 45.2486 26.6423C44.3436 27.1491 42.7871 27.9093 41.2305 28.2713C40.9047 28.3437 37.9364 26.389 36.1988 26.1356C35.2577 25.9908 34.9319 26.0632 34.4251 26.208C33.8097 26.389 33.8459 25.484 34.3165 25.2668C34.5699 25.1582 34.9681 25.0858 35.1129 24.7962C35.2939 24.4342 35.0767 24.1084 35.0767 24.036C35.0767 23.9998 35.1129 23.9636 35.0405 23.8188C35.0043 23.7102 35.0043 23.7826 35.0043 23.674C35.0043 23.6016 34.9681 23.5292 34.9319 23.4568C34.9319 23.4206 34.9319 23.2758 34.9681 23.2396C35.33 22.95 35.1853 22.8052 35.1129 22.769C35.0043 22.6604 34.4613 22.4433 34.4251 22.0813C34.3527 21.5021 34.1355 21.2125 34.0631 20.9229C34.0269 20.8143 33.9545 20.1265 33.6649 19.8731C33.3029 19.5473 32.5427 19.1491 30.8776 19.5835C30.3346 19.7283 30.4432 19.9817 29.14 20.2351C27.5472 20.5247 26.6785 22.8776 26.8233 23.855C26.9319 24.6514 27.6196 24.2532 27.5834 24.6152C27.5472 25.1582 27.4748 26.0632 28.6332 26.389C28.8866 26.4614 30.407 26.208 30.9862 26.3166C30.9862 26.3166 31.4567 26.3528 31.2034 26.8233C31.0948 27.0405 29.5744 27.6559 29.1762 27.8007C28.1988 28.1989 25.6287 32.398 24.8685 32.7962C24.2169 33.122 23.8187 33.3754 23.5653 33.5564C22.5156 34.208 21.502 35.0405 20.9228 35.0043C20.1626 34.9681 19.5472 35.3301 19.0405 36.4523C18.8957 36.7781 18.9681 36.9591 19.2577 37.0315C19.3663 37.1401 19.511 37.2849 19.7282 37.2849C19.9454 37.5021 20.1988 37.3573 20.416 37.2487C20.9952 36.9229 21.14 36.6695 21.3572 36.5971C21.9364 36.4161 25.3391 35.0767 26.0993 34.4976C27.2577 33.8822 29.5744 31.493 30.0812 31.4568C30.5518 31.4206 31.7101 32.4704 31.3481 34.4976C31.2396 35.1853 30.3708 36.4161 29.9002 37.1401C28.959 38.5519 29.683 39.8188 29.502 40.1084C28.5246 41.7012 27.3301 43.8369 25.3029 45.6469C24.5065 46.1537 22.8776 46.2623 21.9726 46.5157C19.9454 47.0948 17.8097 48.5428 16.2893 49.4116C15.7825 49.7012 15.3119 49.0858 14.6604 49.0134C14.045 48.941 13.9726 49.9184 13.6468 50.7871C13.5382 51.0405 13.502 51.1853 13.0314 52.2713C12.8504 52.7057 12.3436 53.9727 12.8504 54.5157C13.321 55.1672 14.407 53.1401 15.2758 52.1627C15.7101 51.6559 15.9997 51.4749 16.9771 51.2577C17.5925 51.1129 22.5518 49.7736 25.8097 49.0496C25.8821 49.0496 25.9907 49.0134 26.0631 48.9772C30.2984 47.8912 34.6785 42.3528 34.7509 42.389L41.9545 45.9365C42.6785 46.3347 42.6785 47.7102 43.5472 49.3392C44.054 50.3166 44.8142 51.1491 47.8911 54.1537C48.2893 54.5519 47.9635 55.1672 48.1445 55.7826C48.3255 56.4342 48.6513 56.4342 49.2305 56.398C49.7735 56.3618 50.2441 56.2532 50.7871 56.217C51.4748 56.1808 51.2939 56.2532 52.0902 56.3618C52.4884 56.4342 53.3572 56.5428 54.0088 55.9274C55.131 54.7329 52.8504 55.312 51.7644 54.769Z" fill="#0C419A"/>
<path d="M43.9818 51.6559C43.8732 51.4387 43.6198 51.3663 43.4026 51.4749C40.3257 53.0314 36.8868 53.864 33.4117 53.864C29.5384 53.864 25.7374 52.8504 22.4071 50.9319C22.1899 50.8233 21.9365 50.8957 21.7917 51.0767C21.6831 51.2939 21.7555 51.5473 21.9365 51.6921C25.4117 53.683 29.3574 54.7328 33.3755 54.7328C36.9954 54.7328 40.5791 53.864 43.7646 52.235C44.018 52.1265 44.0904 51.8731 43.9818 51.6559Z" fill="#0C419A"/>
<path d="M12.8866 22.8777C12.8142 22.8777 12.778 22.8777 12.7056 22.8415C12.4884 22.733 12.3798 22.4796 12.4884 22.2624C14.4794 17.9185 17.7011 14.3348 21.8278 11.9094C22.045 11.8008 22.2984 11.8732 22.4432 12.0542C22.5518 12.2714 22.4794 12.5248 22.2984 12.6696C18.3165 14.9863 15.2033 18.4253 13.321 22.6244C13.2124 22.8054 13.0676 22.8777 12.8866 22.8777Z" fill="#0C419A"/>
<path d="M50.2804 17.2672C50.1718 17.2672 50.027 17.231 49.9546 17.1224C46.4795 13.1767 41.7012 10.6066 36.5247 9.88258C36.2713 9.84639 36.1265 9.62919 36.1627 9.3758C36.1989 9.1224 36.4161 8.97761 36.6695 9.01381C42.0632 9.77399 47.0225 12.4527 50.6424 16.5432C50.7872 16.7242 50.7872 17.0138 50.6062 17.1586C50.4976 17.231 50.389 17.2672 50.2804 17.2672Z" fill="#0C419A"/>
<path d="M67.936 55.6H70.888C71.792 55.6 72.5 55.812 73.012 56.236C73.524 56.66 73.78 57.296 73.78 58.144C73.78 58.728 73.656 59.208 73.408 59.584C73.16 59.96 72.804 60.26 72.34 60.484L74.224 64H72.628L70.984 60.82H70.924H69.352V64H67.936V55.6ZM70.624 59.632C71.208 59.632 71.636 59.508 71.908 59.26C72.188 59.004 72.328 58.652 72.328 58.204C72.328 57.26 71.772 56.788 70.66 56.788H69.352V59.632H70.624ZM75.354 55.6H76.746V64H75.354V55.6ZM81.0475 64.168C80.5675 64.168 80.0635 64.108 79.5355 63.988C79.0075 63.868 78.5875 63.732 78.2755 63.58L78.4435 62.104C79.4835 62.6 80.4235 62.848 81.2635 62.848C81.7355 62.848 82.1035 62.76 82.3675 62.584C82.6315 62.408 82.7635 62.144 82.7635 61.792C82.7635 61.52 82.6915 61.3 82.5475 61.132C82.4115 60.964 82.2075 60.82 81.9355 60.7C81.6635 60.572 81.2595 60.42 80.7235 60.244C80.2035 60.076 79.7715 59.896 79.4275 59.704C79.0835 59.504 78.8075 59.252 78.5995 58.948C78.3995 58.636 78.2995 58.248 78.2995 57.784C78.2995 57.08 78.5595 56.512 79.0795 56.08C79.6075 55.648 80.3595 55.432 81.3355 55.432C81.8155 55.432 82.2875 55.484 82.7515 55.588C83.2155 55.692 83.6275 55.824 83.9875 55.984L83.8435 57.424C83.3635 57.192 82.9155 57.02 82.4995 56.908C82.0915 56.796 81.6755 56.74 81.2515 56.74C80.7715 56.74 80.3995 56.824 80.1355 56.992C79.8715 57.152 79.7395 57.4 79.7395 57.736C79.7395 57.976 79.8035 58.176 79.9315 58.336C80.0675 58.488 80.2515 58.616 80.4835 58.72C80.7235 58.824 81.0675 58.948 81.5155 59.092C82.4755 59.388 83.1795 59.736 83.6275 60.136C84.0835 60.528 84.3115 61.068 84.3115 61.756C84.3115 62.436 84.0635 63.008 83.5675 63.472C83.0715 63.936 82.2315 64.168 81.0475 64.168ZM93.3842 59.8C93.3842 60.912 93.1042 61.84 92.5442 62.584L93.3122 63.316L92.4722 64.204L91.6802 63.436C90.9762 63.924 90.1642 64.168 89.2442 64.168C88.4442 64.168 87.7322 63.988 87.1082 63.628C86.4842 63.268 85.9922 62.76 85.6322 62.104C85.2802 61.44 85.1042 60.672 85.1042 59.8C85.1042 58.928 85.2802 58.164 85.6322 57.508C85.9922 56.844 86.4842 56.332 87.1082 55.972C87.7322 55.612 88.4442 55.432 89.2442 55.432C90.0442 55.432 90.7562 55.612 91.3802 55.972C92.0042 56.332 92.4922 56.844 92.8442 57.508C93.2042 58.164 93.3842 58.928 93.3842 59.8ZM89.2442 62.824C89.7802 62.824 90.2522 62.704 90.6602 62.464L89.6522 61.492L90.4802 60.604L91.5002 61.576C91.7722 61.088 91.9082 60.496 91.9082 59.8C91.9082 58.904 91.6762 58.176 91.2122 57.616C90.7562 57.056 90.1002 56.776 89.2442 56.776C88.3882 56.776 87.7282 57.056 87.2642 57.616C86.8002 58.176 86.5682 58.904 86.5682 59.8C86.5682 60.696 86.8002 61.424 87.2642 61.984C87.7282 62.544 88.3882 62.824 89.2442 62.824ZM98.1442 64.168C96.9922 64.168 96.1242 63.836 95.5402 63.172C94.9562 62.508 94.6642 61.588 94.6642 60.412V55.6H96.0562V60.052C96.0562 60.948 96.2002 61.64 96.4882 62.128C96.7842 62.608 97.3362 62.848 98.1442 62.848C98.9522 62.848 99.5002 62.608 99.7882 62.128C100.084 61.64 100.232 60.948 100.232 60.052V55.6H101.624V60.412C101.624 61.588 101.332 62.508 100.748 63.172C100.164 63.836 99.2962 64.168 98.1442 64.168ZM103.397 55.6H108.677V56.92H104.813V58.96H107.849V60.28H104.813V62.68H108.797V64H103.397V55.6ZM112.583 64.168C112.103 64.168 111.599 64.108 111.071 63.988C110.543 63.868 110.123 63.732 109.811 63.58L109.979 62.104C111.019 62.6 111.959 62.848 112.799 62.848C113.271 62.848 113.639 62.76 113.903 62.584C114.167 62.408 114.299 62.144 114.299 61.792C114.299 61.52 114.227 61.3 114.083 61.132C113.947 60.964 113.743 60.82 113.471 60.7C113.199 60.572 112.795 60.42 112.259 60.244C111.739 60.076 111.307 59.896 110.963 59.704C110.619 59.504 110.343 59.252 110.135 58.948C109.935 58.636 109.835 58.248 109.835 57.784C109.835 57.08 110.095 56.512 110.615 56.08C111.143 55.648 111.895 55.432 112.871 55.432C113.351 55.432 113.823 55.484 114.287 55.588C114.751 55.692 115.163 55.824 115.523 55.984L115.379 57.424C114.899 57.192 114.451 57.02 114.035 56.908C113.627 56.796 113.211 56.74 112.787 56.74C112.307 56.74 111.935 56.824 111.671 56.992C111.407 57.152 111.275 57.4 111.275 57.736C111.275 57.976 111.339 58.176 111.467 58.336C111.603 58.488 111.787 58.616 112.019 58.72C112.259 58.824 112.603 58.948 113.051 59.092C114.011 59.388 114.715 59.736 115.163 60.136C115.619 60.528 115.847 61.068 115.847 61.756C115.847 62.436 115.599 63.008 115.103 63.472C114.607 63.936 113.767 64.168 112.583 64.168ZM119.827 55.6H122.743C124.695 55.6 125.671 56.504 125.671 58.312C125.671 59.24 125.419 59.932 124.915 60.388C124.411 60.844 123.691 61.072 122.755 61.072H121.243V64H119.827V55.6ZM122.587 59.884C123.147 59.884 123.563 59.76 123.835 59.512C124.115 59.256 124.255 58.864 124.255 58.336C124.255 57.8 124.115 57.408 123.835 57.16C123.563 56.912 123.139 56.788 122.563 56.788H121.243V59.884H122.587ZM126.87 55.6H129.822C130.726 55.6 131.434 55.812 131.946 56.236C132.458 56.66 132.714 57.296 132.714 58.144C132.714 58.728 132.59 59.208 132.342 59.584C132.094 59.96 131.738 60.26 131.274 60.484L133.158 64H131.562L129.918 60.82H129.858H128.286V64H126.87V55.6ZM129.558 59.632C130.142 59.632 130.57 59.508 130.842 59.26C131.122 59.004 131.262 58.652 131.262 58.204C131.262 57.26 130.706 56.788 129.594 56.788H128.286V59.632H129.558ZM137.936 64.168C137.136 64.168 136.424 63.988 135.8 63.628C135.176 63.268 134.684 62.76 134.324 62.104C133.972 61.44 133.796 60.672 133.796 59.8C133.796 58.928 133.972 58.164 134.324 57.508C134.684 56.844 135.176 56.332 135.8 55.972C136.424 55.612 137.136 55.432 137.936 55.432C138.736 55.432 139.448 55.612 140.072 55.972C140.696 56.332 141.184 56.844 141.536 57.508C141.896 58.164 142.076 58.928 142.076 59.8C142.076 60.672 141.896 61.44 141.536 62.104C141.184 62.76 140.696 63.268 140.072 63.628C139.448 63.988 138.736 64.168 137.936 64.168ZM137.936 62.824C138.792 62.824 139.448 62.544 139.904 61.984C140.368 61.424 140.6 60.696 140.6 59.8C140.6 58.904 140.368 58.176 139.904 57.616C139.448 57.056 138.792 56.776 137.936 56.776C137.08 56.776 136.42 57.056 135.956 57.616C135.492 58.176 135.26 58.904 135.26 59.8C135.26 60.696 135.492 61.424 135.956 61.984C136.42 62.544 137.08 62.824 137.936 62.824ZM143.452 55.6H148.612V56.92H144.844V58.96H147.748V60.28H144.844V64H143.452V55.6ZM149.745 55.6H155.025V56.92H151.161V58.96H154.197V60.28H151.161V62.68H155.145V64H149.745V55.6ZM158.93 64.168C158.45 64.168 157.946 64.108 157.418 63.988C156.89 63.868 156.47 63.732 156.158 63.58L156.326 62.104C157.366 62.6 158.306 62.848 159.146 62.848C159.618 62.848 159.986 62.76 160.25 62.584C160.514 62.408 160.646 62.144 160.646 61.792C160.646 61.52 160.574 61.3 160.43 61.132C160.294 60.964 160.09 60.82 159.818 60.7C159.546 60.572 159.142 60.42 158.606 60.244C158.086 60.076 157.654 59.896 157.31 59.704C156.966 59.504 156.69 59.252 156.482 58.948C156.282 58.636 156.182 58.248 156.182 57.784C156.182 57.08 156.442 56.512 156.962 56.08C157.49 55.648 158.242 55.432 159.218 55.432C159.698 55.432 160.17 55.484 160.634 55.588C161.098 55.692 161.51 55.824 161.87 55.984L161.726 57.424C161.246 57.192 160.798 57.02 160.382 56.908C159.974 56.796 159.558 56.74 159.134 56.74C158.654 56.74 158.282 56.824 158.018 56.992C157.754 57.152 157.622 57.4 157.622 57.736C157.622 57.976 157.686 58.176 157.814 58.336C157.95 58.488 158.134 58.616 158.366 58.72C158.606 58.824 158.95 58.948 159.398 59.092C160.358 59.388 161.062 59.736 161.51 60.136C161.966 60.528 162.194 61.068 162.194 61.756C162.194 62.436 161.946 63.008 161.45 63.472C160.954 63.936 160.114 64.168 158.93 64.168ZM165.903 64.168C165.423 64.168 164.919 64.108 164.391 63.988C163.863 63.868 163.443 63.732 163.131 63.58L163.299 62.104C164.339 62.6 165.279 62.848 166.119 62.848C166.591 62.848 166.959 62.76 167.223 62.584C167.487 62.408 167.619 62.144 167.619 61.792C167.619 61.52 167.547 61.3 167.403 61.132C167.267 60.964 167.063 60.82 166.791 60.7C166.519 60.572 166.115 60.42 165.579 60.244C165.059 60.076 164.627 59.896 164.283 59.704C163.939 59.504 163.663 59.252 163.455 58.948C163.255 58.636 163.155 58.248 163.155 57.784C163.155 57.08 163.415 56.512 163.935 56.08C164.463 55.648 165.215 55.432 166.191 55.432C166.671 55.432 167.143 55.484 167.607 55.588C168.071 55.692 168.483 55.824 168.843 55.984L168.699 57.424C168.219 57.192 167.771 57.02 167.355 56.908C166.947 56.796 166.531 56.74 166.107 56.74C165.627 56.74 165.255 56.824 164.991 56.992C164.727 57.152 164.595 57.4 164.595 57.736C164.595 57.976 164.659 58.176 164.787 58.336C164.923 58.488 165.107 58.616 165.339 58.72C165.579 58.824 165.923 58.948 166.371 59.092C167.331 59.388 168.035 59.736 168.483 60.136C168.939 60.528 169.167 61.068 169.167 61.756C169.167 62.436 168.919 63.008 168.423 63.472C167.927 63.936 167.087 64.168 165.903 64.168ZM170.452 55.6H171.844V64H170.452V55.6ZM177.369 64.168C176.569 64.168 175.857 63.988 175.233 63.628C174.609 63.268 174.117 62.76 173.757 62.104C173.405 61.44 173.229 60.672 173.229 59.8C173.229 58.928 173.405 58.164 173.757 57.508C174.117 56.844 174.609 56.332 175.233 55.972C175.857 55.612 176.569 55.432 177.369 55.432C178.169 55.432 178.881 55.612 179.505 55.972C180.129 56.332 180.617 56.844 180.969 57.508C181.329 58.164 181.509 58.928 181.509 59.8C181.509 60.672 181.329 61.44 180.969 62.104C180.617 62.76 180.129 63.268 179.505 63.628C178.881 63.988 178.169 64.168 177.369 64.168ZM177.369 62.824C178.225 62.824 178.881 62.544 179.337 61.984C179.801 61.424 180.033 60.696 180.033 59.8C180.033 58.904 179.801 58.176 179.337 57.616C178.881 57.056 178.225 56.776 177.369 56.776C176.513 56.776 175.853 57.056 175.389 57.616C174.925 58.176 174.693 58.904 174.693 59.8C174.693 60.696 174.925 61.424 175.389 61.984C175.853 62.544 176.513 62.824 177.369 62.824ZM182.885 55.6H184.301L188.081 61.336V55.6H189.485V64H188.333L184.277 57.916V64H182.885V55.6ZM191.358 55.6H192.774L196.554 61.336V55.6H197.958V64H196.806L192.75 57.916V64H191.358V55.6ZM199.831 55.6H205.111V56.92H201.247V58.96H204.283V60.28H201.247V62.68H205.231V64H199.831V55.6ZM206.592 55.6H207.984V62.752H211.584V64H206.592V55.6ZM215.016 64.168C214.536 64.168 214.032 64.108 213.504 63.988C212.976 63.868 212.556 63.732 212.244 63.58L212.412 62.104C213.452 62.6 214.392 62.848 215.232 62.848C215.704 62.848 216.072 62.76 216.336 62.584C216.6 62.408 216.732 62.144 216.732 61.792C216.732 61.52 216.66 61.3 216.516 61.132C216.38 60.964 216.176 60.82 215.904 60.7C215.632 60.572 215.228 60.42 214.692 60.244C214.172 60.076 213.74 59.896 213.396 59.704C213.052 59.504 212.776 59.252 212.568 58.948C212.368 58.636 212.268 58.248 212.268 57.784C212.268 57.08 212.528 56.512 213.048 56.08C213.576 55.648 214.328 55.432 215.304 55.432C215.784 55.432 216.256 55.484 216.72 55.588C217.184 55.692 217.596 55.824 217.956 55.984L217.812 57.424C217.332 57.192 216.884 57.02 216.468 56.908C216.06 56.796 215.644 56.74 215.22 56.74C214.74 56.74 214.368 56.824 214.104 56.992C213.84 57.152 213.708 57.4 213.708 57.736C213.708 57.976 213.772 58.176 213.9 58.336C214.036 58.488 214.22 58.616 214.452 58.72C214.692 58.824 215.036 58.948 215.484 59.092C216.444 59.388 217.148 59.736 217.596 60.136C218.052 60.528 218.28 61.068 218.28 61.756C218.28 62.436 218.032 63.008 217.536 63.472C217.04 63.936 216.2 64.168 215.016 64.168Z" fill="#CD545B"/>
</svg>
