<svg width="99" height="64" viewBox="0 0 99 64" fill="none" xmlns="http://www.w3.org/2000/svg">
<path d="M68.3767 38.7843C68.9227 39.0963 69.8327 39.4083 70.6907 39.4083C73.4467 39.4083 76.0727 37.5363 76.0727 33.6883V30.8283C76.0727 27.2403 73.4467 25.1343 70.3787 25.1343C67.2847 25.1343 64.6587 27.2403 64.6587 30.8283V44.5563H68.3767V38.7843ZM68.3767 35.7943V30.9583C68.3767 29.1643 69.2347 28.2803 70.3787 28.2803C71.4967 28.2803 72.3547 29.1643 72.3547 30.9583V33.5583C72.3547 35.5343 71.4707 36.2623 70.3527 36.2623C69.6767 36.2623 69.0267 36.0543 68.3767 35.7943Z" fill="#00A5DF"/>
<path d="M77.9748 39.0703H81.6668V30.3863C81.6668 29.1643 82.3428 28.2803 83.5128 28.2803C84.1368 28.2803 84.7868 28.4103 85.3588 28.5663L86.0608 25.5503C85.2808 25.2903 84.3448 25.1343 83.4868 25.1343C80.3928 25.1343 77.9748 27.2403 77.9748 30.3863V39.0703Z" fill="#00A5DF"/>
<path d="M86.4266 33.4543C86.4266 37.1723 88.8706 39.4083 92.2246 39.4083C95.5786 39.4083 98.0226 37.1723 98.0226 33.4543V31.0883C98.0226 27.3703 95.5786 25.1343 92.2246 25.1343C88.8706 25.1343 86.4266 27.3703 86.4266 31.0883V33.4543ZM90.1186 33.3243V31.2183C90.1186 29.4243 90.6386 28.2803 92.2246 28.2803C93.7846 28.2803 94.3306 29.4243 94.3306 31.2183V33.3243C94.3306 35.1183 93.7846 36.2623 92.2246 36.2623C90.6646 36.2623 90.1186 35.1183 90.1186 33.3243Z" fill="#00A5DF"/>
<path d="M0.469238 35.6422C0.469238 32.8195 2.85424 31.2225 8.10871 30.6654C8.03418 29.4769 7.28887 28.7712 5.83551 28.7712C4.71754 28.7712 3.59956 29.254 2.33252 29.9969L0.953688 27.3599C2.63064 26.32 4.5312 25.5771 6.61808 25.5771C10.0093 25.5771 11.8725 27.5456 11.8725 31.6682V39.3934H8.14597V38.0935C8.14597 38.0935 6.61808 39.7276 4.45667 39.7276C1.99714 39.6905 0.469238 37.9078 0.469238 35.6422ZM8.10871 35.4194V33.0795C5.31378 33.4509 4.23307 34.3423 4.23307 35.3451C4.23307 36.1993 4.82933 36.645 5.76097 36.645C6.61808 36.6079 7.40066 36.125 8.10871 35.4194Z" fill="#0C419A"/>
<path d="M57.8428 21.7517C57.8428 20.5261 58.8117 19.6719 60.116 19.6719C61.4203 19.6719 62.3892 20.5261 62.3892 21.7517C62.3892 22.9774 61.4203 23.8316 60.116 23.8316C58.7744 23.8316 57.8428 22.9402 57.8428 21.7517ZM58.1409 25.8H62.0538V39.282H58.1409V25.8Z" fill="#0C419A"/>
<path d="M36.2393 32.708C36.2393 28.3255 38.9969 25.6514 42.3136 25.6514C46.0774 25.6514 48.1643 28.4369 48.1643 32.1138C48.1643 32.8195 48.0898 33.5623 48.0152 33.8965H40.0776C40.413 35.865 41.7546 36.7564 43.5061 36.7564C44.5122 36.7564 45.3694 36.3478 46.3383 35.7907L47.6798 38.2791C46.3383 39.2448 44.5495 39.8019 42.9844 39.8019C39.1087 39.7647 36.2393 37.1649 36.2393 32.708ZM44.8476 31.2224C44.8476 29.7368 43.9905 28.6597 42.4254 28.6597C41.1956 28.6597 40.3385 29.514 40.0776 31.2224H44.8476Z" fill="#0C419A"/>
<path d="M18.182 27.6569C19.2627 26.5799 20.4552 25.6514 22.2067 25.6514C24.07 25.6514 25.2252 26.4313 25.896 27.8426C27.0512 26.6542 28.281 25.6514 30.0698 25.6514C32.9765 25.6514 34.2808 27.7312 34.2808 31.0367V39.319H30.1443V31.5938C30.1443 29.7368 29.6226 29.1797 28.5791 29.1797C27.9456 29.1797 27.2376 29.5883 26.4177 30.4053V39.3562H22.244V31.5938C22.244 29.7368 21.7595 29.1797 20.6788 29.1797C20.0453 29.1797 19.3372 29.5883 18.5174 30.4053V39.3562H14.3809V26.0228H18.182V27.6569Z" fill="#0C419A"/>
<path d="M50.5225 35.1965V20.3403H54.4354V35.3451C54.4354 36.1993 54.808 36.4593 55.1434 36.4593C55.2925 36.4593 55.4043 36.4593 55.6279 36.4221L56.1123 39.3562C55.6651 39.5419 55.0316 39.6905 54.1372 39.6905C51.4168 39.7276 50.5225 37.9449 50.5225 35.1965Z" fill="#0C419A"/>
</svg>
