<svg width="80" height="64" viewBox="0 0 80 64" fill="none" xmlns="http://www.w3.org/2000/svg">
<path d="M0.469238 37.7491C0.469238 35.001 2.78336 33.4462 7.88167 32.9039C7.80935 31.7468 7.0862 31.0598 5.67603 31.0598C4.59128 31.0598 3.50653 31.5299 2.27715 32.253L0.93929 29.6858C2.56641 28.6734 4.41048 27.9502 6.43534 27.9502C9.72573 27.9502 11.5336 29.8666 11.5336 33.8801V41.401H7.91782V40.1355C7.91782 40.1355 6.43534 41.7265 4.33817 41.7265C1.95173 41.6903 0.469238 39.9547 0.469238 37.7491ZM7.88167 37.5321V35.2541C5.1698 35.6157 4.12121 36.4835 4.12121 37.4598C4.12121 38.2914 4.69975 38.7253 5.60371 38.7253C6.43534 38.6892 7.19466 38.2191 7.88167 37.5321Z" fill="#0C419A"/>
<path d="M56.9844 24.226C56.9844 23.0328 57.9245 22.2012 59.19 22.2012C60.4556 22.2012 61.3957 23.0328 61.3957 24.226C61.3957 25.4193 60.4556 26.2509 59.19 26.2509C57.8883 26.2509 56.9844 25.3831 56.9844 24.226ZM57.2736 28.1673H61.0702V41.2927H57.2736V28.1673Z" fill="#0C419A"/>
<path d="M35.7598 34.8928C35.7598 30.6261 38.4355 28.0227 41.6536 28.0227C45.3055 28.0227 47.3304 30.7346 47.3304 34.3142C47.3304 35.0012 47.2581 35.7244 47.1858 36.0498H39.4841C39.8095 37.9662 41.1112 38.834 42.8106 38.834C43.7869 38.834 44.6185 38.4363 45.5586 37.8939L46.8603 40.3165C45.5586 41.2566 43.8231 41.799 42.3044 41.799C38.544 41.7628 35.7598 39.2317 35.7598 34.8928ZM44.1123 33.4464C44.1123 32.0001 43.2807 30.9515 41.762 30.9515C40.5688 30.9515 39.7372 31.7832 39.4841 33.4464H44.1123Z" fill="#0C419A"/>
<path d="M17.9337 29.9752C18.9823 28.9267 20.1394 28.0227 21.8388 28.0227C23.6467 28.0227 24.7676 28.782 25.4185 30.156C26.5394 28.999 27.7326 28.0227 29.4682 28.0227C32.2886 28.0227 33.5541 30.0476 33.5541 33.2656V41.3289H29.5405V33.808C29.5405 32.0001 29.0343 31.4577 28.0219 31.4577C27.4072 31.4577 26.7202 31.8555 25.9247 32.651V41.3651H21.875V33.808C21.875 32.0001 21.4049 31.4577 20.3563 31.4577C19.7417 31.4577 19.0547 31.8555 18.2592 32.651V41.3651H14.2456V28.3843H17.9337V29.9752Z" fill="#0C419A"/>
<path d="M64.9756 40.4249C64.9756 39.7379 65.4818 39.1956 66.1688 39.1956C66.8558 39.1956 67.362 39.7379 67.362 40.4249C67.362 41.1119 66.8558 41.6543 66.1688 41.6543C65.4818 41.6543 64.9756 41.1119 64.9756 40.4249Z" fill="#0C419A"/>
<path d="M72.894 27.9866C71.4477 27.9866 70.6522 28.9628 70.6522 30.6984V32.6148L69.459 32.6871V33.4826H70.6522V41.5821H71.5923V33.4465H73.6533V32.5787H71.5923V30.7346C71.5923 29.4691 72.0262 28.8182 72.894 28.8182C73.2194 28.8182 73.5449 28.8905 73.9064 29.0352L73.9788 29.0713L74.268 28.312L74.1957 28.2758C73.8341 28.1312 73.3279 27.9866 72.894 27.9866Z" fill="#0C419A"/>
<path d="M79.5469 32.5787C79.2215 32.3979 78.8961 32.3979 78.643 32.3979C77.7029 32.3979 76.8712 33.0126 76.1842 34.0974L76.1119 32.6149H75.2803V41.546H76.2204V35.4714C76.7989 34.0974 77.6306 33.2657 78.5345 33.2657C78.8599 33.2657 79.0407 33.3019 79.2577 33.3742L79.33 33.4104L79.5831 32.5787H79.5469Z" fill="#0C419A"/>
<path d="M49.7529 37.3153V22.8521H53.5495V37.46C53.5495 38.2916 53.9111 38.5447 54.2366 38.5447C54.3812 38.5447 54.4897 38.5447 54.7066 38.5086L55.1767 41.365C54.7428 41.5458 54.1281 41.6905 53.2603 41.6905C50.6207 41.7266 49.7529 39.991 49.7529 37.3153Z" fill="#0C419A"/>
</svg>
