<svg xmlns="http://www.w3.org/2000/svg" fill-rule="evenodd" clip-rule="evenodd" image-rendering="optimizeQuality" shape-rendering="geometricPrecision" text-rendering="geometricPrecision" viewBox="0 0 456539.9 190488"><path fill="#005da8" d="M238910.3 160301v-31838h-6182v10799c-372-329-1644-978-3410-978-7004 0-9522 4629-9522 11288v8921c0 6663 2518 11284 9522 11284 5274 0 9592-2579 9592-9476zm-6200-657c0 3050-852 4677-3392 4677-2197 0-3405-1467-3405-4971v-10635c0-3500 1208-4971 3405-4971 2194 0 3392 1471 3392 4971v10929zm-110062-31181h9120l5352 23795h113l5347-23795h9125v40742h-6109v-31843h-117l-6654 31843h-3297l-6659-31843h-112v31843h-6109zm128576 40742h-6127v-30363h6127zm514-37549c0 2029-1592 3677-3573 3677-1977 0-3574-1648-3574-3677 0-2047 1597-3687 3574-3687 1981 0 3573 1640 3573 3687zm-37614 34335v-19470c0-5533-3237-8242-8930-8242-5755 0-9532 3336-9860 9480h6139c104-2592 709-4275 3504-4275 2017 0 3012 1350 3012 3885l8 2380c-9111 1276-13382 6040-13382 11950 0 4166 2324 8086 6962 8086 3227 0 4244-835 6719-2842 43 592 173 1272 342 2262h5871c-165-1012-385-2267-385-3214zm-6153-4431c-1289 1294-2414 2834-4344 2834-1734 0-2968-1289-2968-3578 0-4283 3206-5269 7312-6221v6965zm-31942 4431v-19470c0-5533-3241-8242-8965-8242-5746 0-9523 3336-9851 9480h6143c104-2592 705-4275 3500-4275 2034 0 3025 1350 3025 3885v2380c-9134 1276-13387 6040-13387 11950 0 4166 2319 8086 6966 8086 3206 0 4240-835 6723-2842 44 584 174 1272 364 2262h5867c-169-1012-385-2267-385-3214zm-6179-4431c-1280 1294-2418 2834-4348 2834-1730 0-2959-1289-2959-3578 0-4283 3201-5269 7307-6221v6965zm21083 2873c-3136-8-3353-1804-3353-4028v-31942h-6143v31717c0 5132 2219 9449 9544 9449h606v-5196h-654zm85012-9220v-5641c0-6659-2522-11293-9535-11293-7009 0-9506 4634-9506 11293v8921c0 6663 2497 11284 9506 11284 6360 0 9021-3786 9466-9476 0 0 43-540 9-791h-6083l-9 791c-143 2994-1333 4284-3383 4284-2194 0-3384-1467-3384-4976v-4396h12919zm-12919-6775c0-3496 1190-4954 3384-4954 2198 0 3392 1458 3392 4954v1584h-6776v-1584zm-56456-26305h-6572l7593-40739h8328l8130 40739h-6559l-1251-9320h-8363l-1306 9320zm2128-14667h6706l-3314-17942h-117l-3275 17942zm86163 14667V91787h5854v2574h104c1479-2583 4971-3150 6961-3150h1263v6602c-1103-285-2137-614-3954-614-2064 0-4097 1350-4097 4067v20867h-6131zm-5910-30346v19629c0 6667-2518 11284-9531 11284-7014 0-9527-4617-9527-11284V91787h6143v20758c0 3500 1190 4971 3384 4971 2189 0 3392-1471 3392-4971V91787h6139zm45883 30342v-19626c0-6455 2522-11292 9535-11292 7009 0 9523 4837 9523 11292v19626h-6135v-20716c0-3253-1285-4776-3388-4776-2137 0-3409 1523-3409 4776v20716h-6126zm-5361-3202V99449c0-5534-3227-8238-8921-8238-5754 0-9532 3323-9856 9475h6135c108-2587 714-4279 3522-4279 2003 0 2994 1359 2994 3894v2362c-9116 1285-13374 6053-13374 11968 0 4166 2328 8086 6966 8086 3206 0 4240-839 6693-2838 48 575 178 1267 368 2254h5863c-169-1008-390-2254-390-3206zm-6144-4435c-1280 1285-2427 2838-4343 2838-1735 0-2955-1298-2955-3578 0-4292 3197-5278 7298-6221v6961zm-132413 2869c-3145-9-3375-1804-3375-4020V81394h-6126v31718c0 5131 2215 9445 9549 9445h584v-5196h-632zm41725-18527c0-1579 1138-2427 2808-2427 2081 0 2933 1168 3284 3782l5486-494c-563-3906-2479-8484-9060-8484-4811 0-8588 3323-8588 8125 0 8294 12041 10272 12041 15520 0 1700-1199 2660-2877 2660-2921 0-3829-2254-4245-4811l-5676 956c666 5759 4249 9039 9860 9039 5227 0 9004-2765 9004-8182 0-9034-12037-10950-12037-15684zm21356 0c0-1579 1146-2427 2799-2427 2064 0 2925 1168 3280 3782l5468-494c-549-3906-2461-8484-9020-8484-4816 0-8584 3323-8584 8125 0 8294 12006 10272 12006 15520 0 1700-1194 2660-2860 2660-2920 0-3820-2254-4231-4811l-5672 956c662 5759 4248 9039 9847 9039 5205 0 8995-2765 8995-8182 0-9034-12028-10950-12028-15684zm146907 9307v-5638c0-6658-2509-11292-9531-11292-7005 0-9527 4634-9527 11292v8913c0 6667 2522 11284 9527 11284 6351 0 9025-3773 9475-9467 0 0 30-545 0-792h-6083l-13 784c-156 3011-1350 4291-3379 4291-2194 0-3397-1471-3397-4971v-4404h12928zm-12928-6775c0-3501 1203-4959 3397-4959 2189 0 3396 1458 3396 4959v1587h-6793v-1587zm-194152-19972v5776h1769c-567 1467-1756 4617-1756 4617h2994l2582-4617v-5776h-5589zm177850 30697l-9 1134c-160 3011-1328 4291-3370 4291-2198 0-3401-1471-3401-4971v-11179c0-3501 1203-4959 3401-4959 2176 0 3388 1458 3388 4959v1137h6143c0-6658-2535-11292-9531-11292-7022 0-9536 4634-9536 11292v8913c0 6667 2514 11284 9536 11284 7485 0 9488-5435 9488-10609h-6109zm-303242-10738c346-758 511-1761 312-2774-312-1492-1350-2185-2639-1929-1173 238-1740 982-2073 2639-376 1994-1242 3357-3007 3708-1973 398-3734-762-4175-2968-229-1130-99-2047 121-2601l1415 130c-177 407-376 1229-177 2259 311 1536 1471 1916 2336 1739 1172-229 1622-1038 1982-2734 462-2090 1284-3250 3145-3617 1960-399 3920 527 4456 3197 225 1090 82 2353-242 3050l-1454-99zm-15701-15922l2319 2150 31 1203-2306-1540-44-1813zm9808-541l109 4461 4664-117-134-4997 1397-43 173 6507-12915 337-168-6239 1397-39 130 4742 4075-108-112-4461 1384-43zm7022-11958c225 562 364 1713 152 3102-476 3219-3115 5274-7325 4642-4019-614-6343-3435-5815-6970 212-1406 692-2267 978-2626l1294 584c-390 493-736 1246-883 2202-402 2674 1250 4738 4595 5235 3154 480 5382-826 5806-3582 138-922 61-1865-169-2501l1367-86zm-10998-7265l7156 2596c3778 1372 5798 208 6603-2007 848-2350-31-4660-3756-6010l-7099-2578-520 1427 7208 2609c2670 969 3488 2445 2899 4037-523 1449-2068 2107-4772 1125l-7199-2613-520 1414zm6049-13883c238-736 714-1731 1233-2601 831-1354 1666-2068 2661-2297 770-199 1700-30 2574 493 1436 883 1895 2298 1674 3561l39 30c749-567 1809-536 3111-86 1739 610 2942 1021 3483 1086l-805 1323c-402-25-1488-389-3028-960-1701-636-2601-450-3353 684l-727 1194 4785 2911-779 1277-10868-6615zm5784 1769l788-1298c826-1358 519-2734-749-3491-1419-874-2604-334-3418 1016-376 610-566 1073-636 1333l4015 2440zm1476-12785l965-1159 9925 8268-956 1159zm10920-9150l-969-1039-6252 5815 960 1038 2579-2392 7822 8432 1104-1025-7823-8420zm11400-1324l-3712 2466 2579 3881 4158-2769 778 1168-5416 3600-7157-10756 5201-3457 770 1164-3946 2622 2259 3400 3725-2470 761 1151zm-5659-8026l-592 3111-1009 666 87-2773 1514-1004zm17060 6896c787 238 1813 286 2782-34 1449-476 2020-1588 1609-2851-381-1121-1185-1605-2864-1735-2025-139-3479-831-4050-2536-631-1921 312-3807 2441-4508 1111-363 2037-346 2608-190l39 1428c-424-130-1267-234-2258 95-1497 489-1731 1678-1454 2518 377 1146 1225 1484 2960 1644 2115 212 3370 882 3967 2687 623 1899-69 3963-2657 4811-1051 354-2331 363-3054 117l-69-1446zm13511-1168c-3041 442-5516-1877-6078-5741-580-4063 1272-7044 4318-7485 3141-450 5538 1934 6083 5724 631 4387-1419 7078-4314 7502h-9zm-134-1354c2341-329 3314-2938 2895-5841-368-2544-1934-5031-4392-4672-2453 350-3305 3089-2903 5862 385 2687 2060 4989 4387 4651h13zm15848 389c-545 286-1670 541-3071 476-3250-155-5573-2565-5378-6810 190-4058 2764-6671 6338-6502 1415 60 2319 454 2713 705l-450 1337c-528-333-1324-597-2280-636-2704-134-4586 1722-4746 5114-143 3171 1388 5261 4170 5386 922 44 1865-125 2471-419l233 1349zm7018-11378l-1475-290-2402 12707 1472 268zm4590 10262l-2461 3444-1450-506 7944-10916 1691 597-523 13486-1501-524 168-4244-3868-1337zm4007 13l138-3894c52-869 139-1657 225-2410l-47-21c-394 662-831 1358-1303 2029l-2297 3150 3284 1146zm3760 7459l6334-11257 1315 731-5651 10046 4292 2410-688 1220zm17146 2613l-857 1086-3505-2773-2890 3647 3916 3107-874 1094-5092-4041 8021-10124 4902 3886-870 1098-3716-2955-2540 3198zm-80963 30000v1493h9493l26-21c458-559 744-1013 1064-1472h-10583zm3994 4517c995 2211 220 5378-1168 6962 2483 3149 8705 1843 12045 943 913-190 1626-1822 2487-1190 230 186 1727-1397 1532 100 0 900-389 1877-1337 2223-692 260-2717 861-2717 861-3574 1130-5503 1627-9077 3341-1644 869-1220 4036-986 5187 216 1164 1315 5287 346 7351-783 1687-3565 3240-3604 5317 0 904 1492 1990 627 2739-554 476-978 549-1311 229 0 0-2691-2760-2358-3708-22-363 3024-4720 1718-6684-727 683-796 2514-2263 3184-701 333-1687-480-2289-134-229 134-199 1064-432 1281-217 233-1177 203-1398-217-549-1138-333-3067-130-4023 307-1415 3254 129 2298-1878-346-731-801-1700-770-3241 30-1189 1016-2557 43-3171-1090-536-3678-1683-3721-3033-303-3232 5668-3232 7035-6113 0-1402-1744-2579-1398-4785 174-1121 1035-2397 2475-2592 1804-247 2908-39 4353 1051z" class="fil2"/><path fill="#005da8" d="M158523.3 120454c-1860-441-3971-1765-5014-3392-740-1129-1263-2418-1860-3734-2025-4430-3180-9284-4504-10907-2315-2873-6819-6866-9869-8843-896-584-1731-1008-2488-1333 740-3586 571-7390 571-7390 0-739 13-757 273-1064 783-619 1298-1371 1064-2548-17-169-670-1575-861-1874 1095 433 5902 1575 7299 1467 2393-160 8078-4114 8947-4711 628-373 991-459 1311-554 320-91 1147-610 1337-1121 74-229-160-1878-740-1981-246-18-904 380-1120 311-147-43-290-294-407-294-320-9-640 493-783 740-203 320-277 895-498 1164-389 497-5910 2063-7740 2924-324 147-657 269-982 165-1449-446-7290-3795-9600-3314-727 155-1865 562-2371 30-264-294-407-757-186-1207 246-519 1466-584 1696-1181 276-662-156-1969-143-2038 0-255 290-381 259-597-30-229-333-489-666-969-350-481-454-1705-770-2241 69-161 290-1281-999-2034-1316-757-3453-926-4660 134-675 602-1592 381-2306 749-1376 722-493 2163-2761 4209-986 896-406 2605-177 2994-960 1796 744 3907 2272 3552 488 481 822 688 1362 662 18 57 31 117 61 169-350 126-1077 502-1410 666-874 450-1368 1008-2164 1779-2574 2492-6381 6360-15450 10907-1029 631-3997 359-3997 1004 203 302 843 631 843 631 13 364-1103 519-1700 645-524 294 493 718 869 1069 2025 367 3068-87 4786-1523 6883-2674 12019-5292 17609-8926 1181-774 1860 61 2803 3608 381 1376-1449 2497-2146 4444-787 2180-696 3816-117 5079-640 1410-2613 3288-2613 3288s-4707 3885-7082 6239c-2047 2038-4548 1562-6447 2475-1951 939-3725 2427-5382 3794-1203 995-2410 1891-4024 2553-623 255-917 333-1583 419-831 109-1324 879-1251 1584 57 645 641 2094 1264 3349 337 688 1094 2275 2081 2487 683 139 2090 420 2405-194 429-809-1375-1043-1492-2107-87-671-160-1787 56-2436 389-1121 2007-1895 2968-2419 2977-1609 11768-3686 14403-4473 3786-1662 6801-3025 9254-4638 2181-1329 3955-3418 5322-5153 3241 1609 8034 3625 11219 4846 1873 713 856 1920 1903 4612 740 1925 2077 3335 6512 8583 636 866-48 1467 99 2428 160 1051 671 1081 1623 1060 904-22 1808 0 2708 0 1151 0 2587 8 3721-9 424-4 1250-134 1250-749 0-683-1224-731-1787-865z" class="fil2"/><path fill="#005da8" d="M109957.1 43102.93c-1588 125-2732 1357.47-3113 2447.47-394 1103-545.4 2467.8 164.6 3835.8 389 739 1155.05 1101.54 1925.05 1352.55 376 143 798.95 229.65 1187.96 350.66 532 203 621.35 639.88 1252.35 543.88 463-56 846.08-137.35 1331.08-107.35 445 26 1573.15 208.4 1746.15-393.6 26 0 33.09-5.84 50.1 7.16 43 1090-171.96 4233.8-729.96 4522.8-783 165-1112.03-317.76-2977.03-858.75-1847-523-6188.8-1065.6-6261.8 2261.4-143 5339 492.12 7057.95-3198.88 11578.95-636 792-1714.76 823.96-1087.76 1645.96 493 511 1317.36 124.09 1710.36-178.91 935 2375 4107.6-1167.52 4787.6-1717.52 1436-1116-173.06-2109.73 500.94-3191.73 1160-2254 2957.32-3191.78 3356.32-4887.78 1847 1450 4101.08 2594.53 6412.08 2404.53 960-182 1834.31-532.64 2898.31-1631.64 1091-1099 1380.05-6083.26 1467.05-8480.26 203-4880 3430.88-3670.94 7821.88-2697.94 1597 351 4888.15 1945.8 5317.16 2096.8 432 134 1381.36 1277.65 1710.36 1402.65 186 52 246.9 84.24 407.91-171.75 203-264 767.42 253.44 1438.42 157.44 441-91 975.7-1170.62 901.7-1309.61-363-532-2423.82-1372.3-3470.82-1524.3-1147-553-3763.88-2238.35-5853.88-2991.35-4772-1683-9787.4-4171.11-14391.4-1424.11-1921-809-1962.84-3292.45-5302.84-3041.45zm-19579.73 4737.5v1502.83h14942.43c-22-424-50.56-948.83-71.56-1502.83H90377.37zm43975.69 0l529.57 271.94s1421.54 765.13 894.54 601.13l1266.67 629.76h22463.74v-1502.83h-25154.52zm26199.34 3163.1c-561.43-37.48-1281.02-4.87-2232.77 85.88-1064 108-1906.34 489.64-2304.34 1402.64-346 1021-25.94 777.14-271.94 1746.14-303 956-1440.66 1389.97-350.66 2103.96 91 316 74 829.87 0 1824.87-56 688 803.48 635.6 1166.48 851.6-4344 3180-12149.79 2618.98-15965.79 135.98-718-481-3173.72-384.35-3191.72-107.35 18 640 1600 799.2 2197 1474.2-277 86-740.73-40.7-536.73 379.3 203 398 3123.63 930.31 3141.63 930.31 2237 1518 5721.63 2247.82 8451.63 2783.82 5525 813 7090.88 1005.74 7821.88 4565.74 740 3587-130.33 6894.8-930.33 11800.8-667 4378-274.77 7104.89 422.23 11392.89 129 800 557.6 2107.3 164.6 2440.3-770 688.01-2795.05 1266.4-3664.05 2032.41-381 1255 3134.9 440.35 5488.91 565.35 1116 91 1388.33-1101.55 1388.33-1810.55 199-6720 891-8814.22 1968-13010.22 622.99 3617 1704.7 9717.35 2504.7 13382.35-917 1077-3347.18 2050.84-2755.18 2647.84 701 680 1938.97 555.76 2561.97 400.76 1514-351 2359.35-833.87 3449.35-1824.87 0 0 1220.98-14707.26 822.98-21984.27-216-4045 4757.05-6890.65 6777.05-10512.65 493-921 476.4-1751.78-622.6-2461.78-3621-2327-7764.74-6447.01-11843.74-5768-2155-164.01-396.41-2458.18-980.42-3349.18-743.25-1311-992.15-2005.82-2676.47-2118.27zm9024.15 11972.55l3721.3 1402.64c-593 931-2737.99 3553.26-3477.99 5596.26 203-1510-719.31-5544.9-243.31-6998.9zm-75463.57 39316.91c247 520 478.94 1045.68 500.94 1495.68h18012.5c295-264 922.05-802.68 1696.05-1495.68H94112.98zm54946.35 0l672.7 1495.68h9696.83v-1495.68h-10369.53zM90377.37 120434.3v1502.83h5181.19c-381-537-681.23-1082.83-880.23-1502.83h-4300.96zm11972.55 0c320 549 385.72 1078.83 307.72 1502.83H149410c-74-221-207.47-368.38-250.47-658.38 0 0 32.03-442.45 93.03-844.45h-46902.63z"/><path fill="#005da8" d="M155443.3 84163h-17717c-156 204-294 463-511 610 0 0-26 346-69 870h18236c-13-130-30-260-30-407 0-333 74-740 91-1073zm-58408 1220c-43 48-74 173-104 260h11154c869-511 1666-1017 2405-1497h-10154c-1679 645-3288 1237-3301 1237zm53259-18950c-610-117-1220-303-1825-433h-15831c99 303 203 585 203 585s191 631 394 895l13 13h22134c-813-376-2280-640-5088-1060zm-41301-411v9c91 303 221 830 169 1462h9644l943-1493h-10743l-13 22z" class="fil2"/></svg>