<?xml version="1.0" standalone="no"?>
<!DOCTYPE svg PUBLIC "-//W3C//DTD SVG 20010904//EN"
 "http://www.w3.org/TR/2001/REC-SVG-20010904/DTD/svg10.dtd">
<svg version="1.0" xmlns="http://www.w3.org/2000/svg"
 width="935.000000pt" height="935.000000pt" viewBox="0 0 935.000000 935.000000"
 preserveAspectRatio="xMidYMid meet">
<metadata>
Created by potrace 1.11, written by Peter Selinger 2001-2013
</metadata>
<g transform="translate(0.000000,935.000000) scale(0.100000,-0.100000)"
fill="#000000" stroke="none">
<path d="M2821 8494 c-48 -15 -114 -62 -155 -111 -102 -121 -114 -350 -25
-472 32 -44 116 -89 213 -115 33 -8 74 -25 90 -38 29 -21 39 -22 171 -19 106
2 146 6 164 18 l24 16 -6 -129 c-11 -214 -41 -293 -106 -277 -14 3 -71 23
-127 44 -241 91 -479 92 -584 2 -72 -62 -73 -64 -86 -393 -8 -216 -16 -314
-29 -365 -46 -186 -198 -421 -348 -542 -33 -26 -34 -46 -5 -73 26 -24 65 -26
113 -6 34 14 35 14 70 -21 32 -32 39 -35 76 -29 23 4 58 15 79 26 53 27 173
126 244 199 l58 62 -6 57 c-3 31 -9 75 -12 98 -9 65 32 136 186 315 44 52 92
118 106 146 15 29 29 51 33 49 3 -2 37 -25 74 -50 164 -110 320 -161 471 -154
69 3 102 10 136 27 75 39 148 99 175 144 52 90 86 284 110 637 14 219 19 250
50 311 24 48 44 68 88 91 81 41 195 34 467 -29 181 -41 239 -61 454 -155 136
-59 170 -78 228 -130 65 -57 70 -60 93 -48 20 11 34 11 79 0 68 -16 90 -5 127
64 l24 47 -25 19 c-44 34 -143 78 -235 105 -61 17 -132 50 -220 99 -229 130
-318 170 -625 280 -336 120 -486 151 -683 143 -138 -5 -211 -22 -311 -72 l-69
-35 -34 21 c-18 11 -64 56 -103 99 -39 43 -89 90 -110 105 -73 50 -207 68
-299 39z"/>
<path d="M1110 8010 l0 -70 680 0 680 0 0 24 c0 13 -3 44 -6 70 l-7 46 -673 0
-674 0 0 -70z"/>
<path d="M5130 8069 c70 -45 134 -82 179 -104 l54 -25 1016 2 1016 3 0 65 0
65 -1140 2 c-742 1 -1135 -2 -1125 -8z"/>
<path d="M7262 7779 c-92 -15 -157 -60 -182 -124 -7 -16 -16 -62 -20 -101 -6
-57 -14 -80 -43 -125 -21 -29 -37 -60 -37 -67 0 -8 12 -28 26 -45 25 -30 26
-35 20 -109 -8 -94 0 -113 55 -130 l41 -12 -23 -19 c-36 -29 -155 -87 -233
-113 -219 -75 -531 -88 -796 -33 -132 27 -218 58 -345 123 l-100 51 -112 0
c-61 0 -115 -4 -119 -8 -16 -16 15 -43 94 -83 45 -22 84 -43 88 -47 4 -3 -5
-11 -19 -16 -61 -23 -5 -55 163 -92 59 -13 125 -35 152 -51 176 -102 463 -182
908 -254 366 -58 455 -120 513 -354 52 -205 45 -384 -33 -845 -61 -366 -70
-446 -70 -647 0 -178 17 -354 57 -578 14 -80 28 -175 30 -211 5 -64 4 -67 -23
-86 -16 -12 -85 -49 -154 -83 -136 -67 -160 -84 -160 -111 0 -42 53 -47 340
-35 151 6 210 12 227 23 36 24 51 87 58 233 9 206 24 371 46 519 20 132 113
529 127 543 4 4 34 -140 66 -320 61 -343 152 -821 162 -846 7 -19 -26 -51
-126 -121 -92 -65 -130 -100 -130 -119 0 -24 64 -56 126 -62 109 -11 287 51
383 134 l44 38 13 159 c15 189 39 573 55 875 6 118 12 411 14 650 2 479 -1
454 70 589 43 81 110 165 286 355 133 146 239 283 265 345 8 18 14 53 14 76 0
56 -28 89 -129 158 -42 28 -119 82 -171 121 -155 114 -340 236 -422 277 -138
70 -218 91 -356 96 -173 5 -196 25 -173 149 19 103 15 139 -25 202 -53 84 -82
111 -138 127 -55 17 -216 18 -304 4z m1205 -1134 c82 -31 155 -60 163 -65 12
-7 7 -20 -30 -72 -138 -198 -179 -261 -217 -333 -48 -93 -45 -98 -63 105 -23
268 -25 420 -5 420 2 0 71 -25 152 -55z"/>
<path d="M4363 6660 c-18 -4 -61 -26 -95 -48 -42 -27 -80 -43 -113 -48 -118
-16 -156 -49 -199 -169 -34 -95 -63 -143 -132 -215 -29 -31 -58 -68 -63 -83
-16 -40 -13 -105 5 -167 12 -40 13 -59 5 -77 -27 -59 -1 -175 52 -231 32 -35
91 -62 133 -62 24 0 46 -8 66 -26 17 -14 44 -28 59 -31 16 -3 29 -8 29 -12 0
-3 -42 -27 -93 -53 -80 -42 -111 -66 -237 -188 -257 -249 -456 -414 -690 -570
-181 -122 -433 -270 -605 -356 l-150 -75 -141 -18 c-78 -10 -147 -21 -153 -25
-20 -13 -11 -36 24 -58 54 -35 47 -43 -55 -68 -82 -21 -87 -37 -23 -81 41 -29
58 -34 119 -37 112 -6 193 23 310 110 28 21 107 60 175 87 453 179 951 432
1359 688 158 100 191 109 234 67 39 -40 58 -80 101 -217 46 -146 45 -181 -12
-264 -22 -32 -61 -88 -86 -126 -103 -150 -141 -379 -91 -535 l17 -52 -47 -69
c-71 -105 -154 -189 -325 -334 -184 -155 -407 -353 -506 -447 -66 -64 -147
-113 -225 -139 -20 -6 -98 -24 -174 -41 -77 -16 -168 -43 -203 -59 -81 -38
-239 -146 -377 -258 -244 -198 -306 -240 -442 -300 -39 -17 -98 -37 -131 -43
-34 -7 -75 -20 -91 -30 -41 -25 -66 -82 -58 -132 15 -94 140 -368 203 -446 44
-53 73 -69 162 -83 90 -15 147 -2 157 37 7 29 -4 45 -63 85 -65 45 -77 76 -77
199 -1 124 7 143 89 218 72 66 292 175 475 236 153 51 477 145 715 207 271 70
315 85 475 157 602 271 834 425 1078 717 41 49 78 91 82 93 3 1 67 -27 141
-62 161 -77 488 -218 734 -316 233 -92 241 -100 261 -236 41 -273 89 -361 409
-740 83 -98 172 -203 199 -233 65 -75 70 -91 56 -181 -14 -90 -1 -146 40 -167
39 -20 736 -14 768 7 40 27 39 70 -1 92 -12 6 -58 19 -104 29 -196 43 -377
158 -475 302 -83 123 -235 467 -364 826 -100 278 -159 418 -198 477 -48 71
-216 253 -342 370 -295 273 -512 439 -697 534 l-108 55 6 33 c24 132 37 278
42 476 l6 229 43 48 c24 27 51 64 61 82 24 46 21 122 -6 182 -53 115 -54 118
-36 111 38 -14 248 -66 345 -85 171 -33 260 -43 309 -36 124 18 371 144 684
347 81 53 178 108 216 122 87 34 141 82 141 125 0 47 -19 113 -40 141 l-18 24
-53 -17 c-50 -15 -54 -15 -72 0 -16 16 -21 16 -45 3 -23 -13 -36 -34 -85 -140
-17 -36 -69 -58 -365 -160 -145 -49 -295 -104 -334 -121 -49 -21 -78 -29 -96
-24 -15 4 -85 34 -157 67 -480 222 -612 260 -778 223 -92 -20 -138 -14 -167
22 -42 53 -18 112 59 145 73 31 91 53 91 112 0 28 -5 69 -10 91 -6 27 -6 50 2
71 10 29 8 36 -25 81 -37 50 -87 202 -87 263 0 117 -140 211 -309 209 -42 -1
-91 -5 -108 -9z"/>
<path d="M1112 6363 l3 -68 427 -3 426 -2 35 42 c19 24 42 55 52 71 l17 27
-481 0 -482 0 3 -67z"/>
<path d="M2814 6384 c3 -26 6 -57 6 -71 l0 -23 437 2 438 3 33 50 c18 28 38
58 43 68 9 16 -16 17 -477 17 l-487 0 7 -46z"/>
<path d="M4963 6401 c4 -17 14 -47 24 -68 l18 -38 993 -3 c638 -1 991 1 987 8
-9 15 -65 28 -280 65 -110 19 -225 42 -255 50 -46 12 -168 15 -774 15 l-718 0
5 -29z"/>
<path d="M1049 6106 c-125 -34 -207 -161 -197 -307 4 -57 14 -86 61 -181 68
-137 73 -157 53 -196 -33 -63 -113 -119 -309 -216 -215 -105 -282 -157 -305
-232 -36 -124 18 -197 228 -308 148 -79 151 -84 120 -216 -33 -139 -26 -243
23 -366 56 -139 53 -146 -68 -159 -86 -9 -100 -16 -115 -57 -18 -50 -25 -256
-11 -316 15 -59 32 -78 83 -87 46 -9 73 15 83 73 10 62 22 68 113 50 48 -9 88
-12 106 -6 49 13 99 72 151 178 27 55 55 100 62 100 20 0 36 -78 28 -138 -11
-89 -33 -150 -111 -309 -41 -83 -74 -161 -74 -171 0 -70 202 -332 256 -332 31
0 87 41 98 73 8 23 3 39 -32 107 -28 53 -42 93 -42 118 0 67 50 147 175 282
148 160 176 212 183 344 5 110 -8 236 -47 435 -51 258 -49 374 8 476 24 44 38
55 112 93 123 62 354 149 599 226 457 144 443 139 482 174 56 51 89 182 54
211 -11 10 -25 7 -63 -13 -37 -18 -59 -23 -89 -19 -36 5 -45 1 -94 -42 -70
-60 -89 -69 -186 -94 -218 -55 -301 -65 -514 -66 -200 0 -207 1 -285 28 -80
29 -197 103 -209 132 -3 10 4 30 18 48 74 99 116 241 116 391 -1 176 -40 237
-181 285 -72 24 -204 28 -280 7z"/>
<path d="M1867 4726 c-75 -29 -143 -58 -149 -64 -9 -9 103 -12 496 -12 l509 0
56 32 c31 17 78 47 106 65 l50 33 -465 -1 -465 0 -138 -53z"/>
<path d="M5393 4753 c-11 -16 -23 -45 -27 -65 l-7 -38 831 0 830 0 0 65 0 65
-803 0 -803 0 -21 -27z"/>
<path d="M1465 3108 c4 -13 12 -42 18 -65 l12 -43 820 0 820 0 65 56 c36 31
69 60 74 65 6 5 -369 9 -903 9 l-913 0 7 -22z"/>
<path d="M6452 3122 c2 -4 14 -33 27 -65 l25 -57 443 0 443 0 0 65 0 65 -471
0 c-259 0 -469 -4 -467 -8z"/>
<path d="M1110 1420 l0 -70 236 0 236 0 -18 28 c-10 15 -29 46 -42 70 l-24 42
-194 0 -194 0 0 -70z"/>
<path d="M2216 1453 c7 -21 13 -53 14 -70 l0 -33 2121 0 2121 0 -7 28 c-4 15
-7 46 -6 70 l2 42 -2129 0 -2130 0 14 -37z"/>
</g>
</svg>
