<svg width="41" height="33" viewBox="0 0 41 33" fill="none" xmlns="http://www.w3.org/2000/svg">
<path d="M0.729492 19.6002C0.729492 18.226 1.88669 17.4485 4.43613 17.1773C4.39997 16.5987 4.03835 16.2552 3.33319 16.2552C2.79075 16.2552 2.24831 16.4902 1.63355 16.8519L0.964545 15.5681C1.7782 15.0618 2.70034 14.7002 3.71289 14.7002C5.35827 14.7002 6.26233 15.6585 6.26233 17.6655V21.4264H4.45421V20.7936C4.45421 20.7936 3.71289 21.5891 2.66418 21.5891C1.47082 21.571 0.729492 20.7031 0.729492 19.6002ZM4.43613 19.4917V18.3526C3.08005 18.5334 2.55569 18.9674 2.55569 19.4555C2.55569 19.8714 2.84499 20.0884 3.29702 20.0884C3.71289 20.0703 4.09259 19.8353 4.43613 19.4917Z" fill="#0C419A"/>
<path d="M28.9902 12.8377C28.9902 12.2411 29.4604 11.8252 30.0932 11.8252C30.726 11.8252 31.1961 12.2411 31.1961 12.8377C31.1961 13.4344 30.726 13.8503 30.0932 13.8503C29.4423 13.8503 28.9902 13.4163 28.9902 12.8377ZM29.1349 14.8086H31.0334V21.3721H29.1349V14.8086Z" fill="#0C419A"/>
<path d="M18.3765 18.1718C18.3765 16.0382 19.7145 14.7363 21.3237 14.7363C23.1499 14.7363 24.1624 16.0924 24.1624 17.8825C24.1624 18.226 24.1263 18.5876 24.0901 18.7503H20.2388C20.4016 19.7087 21.0525 20.1426 21.9023 20.1426C22.3905 20.1426 22.8064 19.9437 23.2765 19.6725L23.9274 20.8839C23.2765 21.354 22.4086 21.6253 21.6492 21.6253C19.7687 21.6072 18.3765 20.3415 18.3765 18.1718ZM22.5532 17.4485C22.5532 16.7253 22.1374 16.2009 21.3779 16.2009C20.7813 16.2009 20.3654 16.6168 20.2388 17.4485H22.5532Z" fill="#0C419A"/>
<path d="M9.46245 15.7127C9.9868 15.1884 10.5654 14.7363 11.4152 14.7363C12.3193 14.7363 12.8798 15.116 13.2053 15.8031C13.7658 15.2245 14.3624 14.7363 15.2303 14.7363C16.6407 14.7363 17.2735 15.7489 17.2735 17.3581V21.3902H15.2665V17.6293C15.2665 16.7253 15.0134 16.454 14.5071 16.454C14.1997 16.454 13.8562 16.6529 13.4584 17.0507V21.4083H11.4333V17.6293C11.4333 16.7253 11.1982 16.454 10.6739 16.454C10.3665 16.454 10.023 16.6529 9.62518 17.0507V21.4083H7.61816V14.9171H9.46245V15.7127Z" fill="#0C419A"/>
<path d="M32.9863 20.938C32.9863 20.5945 33.2395 20.3232 33.583 20.3232C33.9265 20.3232 34.1797 20.5945 34.1797 20.938C34.1797 21.2815 33.9265 21.5528 33.583 21.5528C33.2395 21.5528 32.9863 21.2815 32.9863 20.938Z" fill="#0C419A"/>
<path d="M36.9462 14.7183C36.223 14.7183 35.8252 15.2065 35.8252 16.0744V17.0327L35.2285 17.0688V17.4666H35.8252V21.5168H36.2953V17.4485H37.3259V17.0146H36.2953V16.0924C36.2953 15.4596 36.5123 15.1341 36.9462 15.1341C37.109 15.1341 37.2717 15.1703 37.4525 15.2426L37.4887 15.2607L37.6333 14.881L37.5972 14.8629C37.4163 14.7906 37.1632 14.7183 36.9462 14.7183Z" fill="#0C419A"/>
<path d="M40.2732 17.0147C40.1105 16.9243 39.9478 16.9243 39.8212 16.9243C39.3511 16.9243 38.9352 17.2317 38.5917 17.7741L38.5555 17.0328H38.1396V21.4989H38.6098V18.4612C38.8991 17.7741 39.3149 17.3583 39.767 17.3583C39.9297 17.3583 40.0201 17.3763 40.1286 17.4125L40.1647 17.4306L40.2913 17.0147H40.2732Z" fill="#0C419A"/>
<path d="M25.374 19.3829V12.1504H27.2725V19.4552C27.2725 19.8711 27.4534 19.9976 27.6161 19.9976C27.6884 19.9976 27.7427 19.9976 27.8511 19.9795L28.0862 21.408C27.8692 21.4984 27.5618 21.5707 27.1279 21.5707C25.808 21.5888 25.374 20.7209 25.374 19.3829Z" fill="#0C419A"/>
</svg>
