<svg width="50" height="33" viewBox="0 0 50 33" fill="none" xmlns="http://www.w3.org/2000/svg">
<path d="M34.6832 20.1175C34.9562 20.2735 35.4112 20.4295 35.8402 20.4295C37.2182 20.4295 38.5312 19.4935 38.5312 17.5695V16.1395C38.5312 14.3455 37.2182 13.2925 35.6842 13.2925C34.1372 13.2925 32.8242 14.3455 32.8242 16.1395V23.0035H34.6832V20.1175ZM34.6832 18.6225V16.2045C34.6832 15.3075 35.1122 14.8655 35.6842 14.8655C36.2432 14.8655 36.6722 15.3075 36.6722 16.2045V17.5045C36.6722 18.4925 36.2302 18.8565 35.6712 18.8565C35.3332 18.8565 35.0082 18.7525 34.6832 18.6225Z" fill="#00A5DF"/>
<path d="M39.4823 20.2605H41.3283V15.9185C41.3283 15.3075 41.6663 14.8655 42.2513 14.8655C42.5633 14.8655 42.8883 14.9305 43.1743 15.0085L43.5253 13.5005C43.1353 13.3705 42.6673 13.2925 42.2383 13.2925C40.6913 13.2925 39.4823 14.3455 39.4823 15.9185V20.2605Z" fill="#00A5DF"/>
<path d="M43.7082 17.4525C43.7082 19.3115 44.9302 20.4295 46.6072 20.4295C48.2842 20.4295 49.5062 19.3115 49.5062 17.4525V16.2695C49.5062 14.4105 48.2842 13.2925 46.6072 13.2925C44.9302 13.2925 43.7082 14.4105 43.7082 16.2695V17.4525ZM45.5542 17.3875V16.3345C45.5542 15.4375 45.8142 14.8655 46.6072 14.8655C47.3872 14.8655 47.6602 15.4375 47.6602 16.3345V17.3875C47.6602 18.2845 47.3872 18.8565 46.6072 18.8565C45.8272 18.8565 45.5542 18.2845 45.5542 17.3875Z" fill="#00A5DF"/>
<path d="M0.729492 18.5462C0.729492 17.1349 1.92199 16.3363 4.54923 16.0578C4.51196 15.4635 4.13931 15.1107 3.41263 15.1107C2.85364 15.1107 2.29465 15.3521 1.66113 15.7235L0.971717 14.405C1.8102 13.8851 2.76047 13.5137 3.80391 13.5137C5.4995 13.5137 6.43114 14.4979 6.43114 16.5592V20.4218H4.56786V19.7718C4.56786 19.7718 3.80392 20.5889 2.72321 20.5889C1.49344 20.5704 0.729492 19.679 0.729492 18.5462ZM4.54923 18.4348V17.2649C3.15176 17.4506 2.61141 17.8962 2.61141 18.3976C2.61141 18.8248 2.90954 19.0476 3.37536 19.0476C3.80392 19.029 4.1952 18.7876 4.54923 18.4348Z" fill="#0C419A"/>
<path d="M29.4165 11.601C29.4165 10.9882 29.901 10.561 30.5531 10.561C31.2053 10.561 31.6897 10.9882 31.6897 11.601C31.6897 12.2138 31.2053 12.6409 30.5531 12.6409C29.8823 12.6409 29.4165 12.1952 29.4165 11.601ZM29.5656 13.6251H31.522V20.3661H29.5656V13.6251Z" fill="#0C419A"/>
<path d="M18.6147 17.0791C18.6147 14.8878 19.9936 13.5508 21.6519 13.5508C23.5338 13.5508 24.5773 14.9435 24.5773 16.782C24.5773 17.1348 24.54 17.5062 24.5027 17.6734H20.5339C20.7016 18.6576 21.3724 19.1033 22.2482 19.1033C22.7512 19.1033 23.1798 18.899 23.6643 18.6204L24.335 19.8647C23.6643 20.3475 22.7699 20.626 21.9873 20.626C20.0495 20.6075 18.6147 19.3075 18.6147 17.0791ZM22.9189 16.3363C22.9189 15.5935 22.4904 15.055 21.7078 15.055C21.0929 15.055 20.6644 15.4821 20.5339 16.3363H22.9189Z" fill="#0C419A"/>
<path d="M9.5861 14.5536C10.1265 14.015 10.7227 13.5508 11.5985 13.5508C12.5301 13.5508 13.1077 13.9408 13.4431 14.6464C14.0207 14.0522 14.6356 13.5508 15.53 13.5508C16.9834 13.5508 17.6355 14.5907 17.6355 16.2435V20.3846H15.5673V16.522C15.5673 15.5935 15.3064 15.315 14.7847 15.315C14.4679 15.315 14.1139 15.5192 13.704 15.9278V20.4032H11.6171V16.522C11.6171 15.5935 11.3749 15.315 10.8345 15.315C10.5177 15.315 10.1637 15.5192 9.7538 15.9278V20.4032H7.68555V13.7365H9.5861V14.5536Z" fill="#0C419A"/>
<path d="M25.7563 18.3236V10.8955H27.7128V18.3979C27.7128 18.825 27.8991 18.955 28.0668 18.955C28.1414 18.955 28.1972 18.955 28.309 18.9364L28.5513 20.4035C28.3277 20.4963 28.0109 20.5706 27.5637 20.5706C26.2035 20.5892 25.7563 19.6978 25.7563 18.3236Z" fill="#0C419A"/>
</svg>
