<svg xmlns="http://www.w3.org/2000/svg" width="541" height="357" fill="none"><g clip-path="url(#a)"><path fill="#E7ECF5" d="M0 0h541v357H0z"/><g filter="url(#b)"><g clip-path="url(#c)"><path fill="#E2E7EE" d="M62 60h780v56H62z"/><path fill="#ED6A5E" fill-rule="evenodd" d="M92 94c3.3137 0 6-2.6863 6-6s-2.6863-6-6-6-6 2.6863-6 6 2.6863 6 6 6Z" clip-rule="evenodd"/><path fill="#F4BF4F" fill-rule="evenodd" d="M112 94c3.314 0 6-2.6863 6-6s-2.686-6-6-6-6 2.6863-6 6 2.686 6 6 6Z" clip-rule="evenodd"/><path fill="#61C554" fill-rule="evenodd" d="M132 94c3.314 0 6-2.6863 6-6s-2.686-6-6-6-6 2.6863-6 6 2.686 6 6 6Z" clip-rule="evenodd"/><path fill="#F6F8FC" d="M62 116h780v344H62z"/></g></g><path fill="#000" fill-opacity=".87" d="M94.16 227h8.688v-1.512h-7.056v-5.928h5.712l.144-1.464h-5.856v-5.808h6.84v-1.512H94.16V227Zm12.539 0h1.584v-8.088c0-1.824 1.224-3.024 2.952-3.024.36 0 .96.096 1.104.12l.288-1.44c-.288-.048-.96-.144-1.416-.144-2.52 0-4.512 1.752-4.512 4.488V227Zm8.56 0h1.584v-8.088c0-1.824 1.224-3.024 2.952-3.024.36 0 .96.096 1.104.12l.288-1.44c-.288-.048-.96-.144-1.416-.144-2.52 0-4.512 1.752-4.512 4.488V227Zm8.201-4.68c0 3.288 2.016 4.992 4.8 4.992 1.224 0 2.4-.192 3.6-.576l-.312-1.44c-1.104.312-2.16.552-3.288.552-1.944 0-3.216-1.08-3.216-3.528v-1.008h7.56v-2.448c0-2.64-2.04-4.44-4.584-4.44-2.496 0-4.56 1.704-4.56 4.896v3Zm1.584-2.4v-.6c0-2.352 1.248-3.432 2.976-3.432 1.752 0 3 1.2 3 2.976v1.056h-5.976Zm11.156 2.52c0 3.168 2.016 4.872 4.56 4.872 2.496 0 4.56-1.704 4.56-4.872v-7.704h-1.584v7.584c0 2.352-1.272 3.528-2.976 3.528-1.728 0-2.976-1.176-2.976-3.528v-7.584H136.2v7.704Zm13.201 4.56h1.584v-8.088c0-1.824 1.224-3.024 2.952-3.024.36 0 .96.096 1.104.12l.288-1.44c-.288-.048-.96-.144-1.416-.144-2.52 0-4.512 1.752-4.512 4.488V227Zm14.057-.264c1.152.408 2.256.576 3.432.576 2.904 0 4.2-1.8 4.2-3.504 0-4.392-5.76-3.192-5.76-6.072 0-1.08.744-1.848 2.256-1.848.936 0 1.776.192 2.688.48l.408-1.416c-1.032-.336-2.04-.528-3.096-.528-2.448 0-3.888 1.416-3.888 3.312 0 4.224 5.76 2.952 5.76 6.12 0 1.152-1.008 1.992-2.568 1.992-1.056 0-2.088-.264-3.144-.552l-.288 1.44Zm10.608-4.416c0 3.288 2.016 4.992 4.8 4.992 1.224 0 2.4-.192 3.6-.576l-.312-1.44c-1.104.312-2.16.552-3.288.552-1.944 0-3.216-1.08-3.216-3.528v-1.008h7.56v-2.448c0-2.64-2.04-4.44-4.584-4.44-2.496 0-4.56 1.704-4.56 4.896v3Zm1.584-2.4v-.6c0-2.352 1.248-3.432 2.976-3.432 1.752 0 3 1.2 3 2.976v1.056h-5.976Zm11.157 7.08h1.584v-8.088c0-1.824 1.224-3.024 2.952-3.024.36 0 .96.096 1.104.12l.288-1.44c-.288-.048-.96-.144-1.416-.144-2.52 0-4.512 1.752-4.512 4.488V227Zm11.677 0h1.848l4.2-12.264H202.9l-2.904 8.616c-.192.552-.408 1.344-.6 2.088-.192-.72-.384-1.536-.576-2.088l-2.904-8.616h-1.632l4.2 12.264Zm8.224-4.68c0 3.288 2.016 4.992 4.8 4.992 1.224 0 2.4-.192 3.6-.576l-.312-1.44c-1.104.312-2.16.552-3.288.552-1.944 0-3.216-1.08-3.216-3.528v-1.008h7.56v-2.448c0-2.64-2.04-4.44-4.584-4.44-2.496 0-4.56 1.704-4.56 4.896v3Zm1.584-2.4v-.6c0-2.352 1.248-3.432 2.976-3.432 1.752 0 3 1.2 3 2.976v1.056h-5.976Zm11.156 2.52c0 3.168 2.016 4.872 4.56 4.872 2.496 0 4.56-1.704 4.56-4.872v-7.704h-1.584v7.584c0 2.352-1.272 3.528-2.976 3.528-1.728 0-2.976-1.176-2.976-3.528v-7.584h-1.584v7.704Zm13.201 4.56h1.584v-8.088c0-1.824 1.224-3.024 2.952-3.024.36 0 .96.096 1.104.12l.288-1.44c-.288-.048-.96-.144-1.416-.144-2.52 0-4.512 1.752-4.512 4.488V227Z"/><path fill="#0C419A" d="M93.56 188.012c3.328 1.04 6.656 1.664 10.036 1.664 6.084 0 12.896-3.9 12.896-12.116 0-7.332-5.148-10.816-12.948-10.816h-2.236l.312-7.8h12.74l1.04-5.096H96.16l-.624 17.888h7.384c5.044 0 7.332 2.08 7.332 5.876 0 4.732-3.536 6.812-6.864 6.812-2.912 0-5.72-.624-8.632-1.508l-1.196 5.096Zm53.747-20.592c0-9.88-5.668-14.248-12.532-14.248-6.916 0-12.532 4.368-12.532 14.248v7.956c0 9.88 5.668 14.3 12.532 14.3 6.812 0 12.532-4.42 12.532-14.3v-7.956Zm-6.084 7.956c0 6.604-2.704 9.048-6.448 9.048s-6.448-2.444-6.448-9.048v-7.956c0-6.604 2.756-8.996 6.448-8.996 3.692 0 6.448 2.392 6.448 8.996v7.956Zm37.378-7.956c0-9.88-5.668-14.248-12.532-14.248-6.916 0-12.532 4.368-12.532 14.248v7.956c0 9.88 5.668 14.3 12.532 14.3 6.812 0 12.532-4.42 12.532-14.3v-7.956Zm-6.084 7.956c0 6.604-2.704 9.048-6.448 9.048s-6.448-2.444-6.448-9.048v-7.956c0-6.604 2.756-8.996 6.448-8.996 3.692 0 6.448 2.392 6.448 8.996v7.956Z"/><path fill="#000" fill-opacity=".6" d="M93.62 263v-11.808h1.494v10.53h5.166V263h-6.66Zm10.716.216c-.732 0-1.344-.216-1.836-.648-.48-.444-.72-1.056-.72-1.836 0-.96.426-1.692 1.278-2.196.864-.516 2.226-.876 4.086-1.08 0-.372-.054-.726-.162-1.062-.096-.336-.276-.606-.54-.81-.252-.216-.618-.324-1.098-.324-.504 0-.978.096-1.422.288-.444.192-.84.408-1.188.648l-.576-1.026c.408-.264.906-.516 1.494-.756.6-.252 1.248-.378 1.944-.378 1.068 0 1.842.33 2.322.99.48.648.72 1.518.72 2.61V263h-1.224l-.126-1.044h-.054c-.408.336-.858.63-1.35.882-.48.252-.996.378-1.548.378Zm.432-1.188c.42 0 .816-.102 1.188-.306.372-.204.768-.492 1.188-.864v-2.43c-1.452.18-2.472.45-3.06.81-.576.36-.864.822-.864 1.386 0 .492.15.852.45 1.08.3.216.666.324 1.098.324Zm10.406 4.662v-12.438h1.224l.126 1.008h.054a6.772 6.772 0 0 1 1.296-.864c.48-.24.978-.36 1.494-.36 1.128 0 1.986.408 2.574 1.224.588.804.882 1.884.882 3.24 0 .984-.18 1.83-.54 2.538-.348.708-.81 1.248-1.386 1.62-.564.372-1.182.558-1.854.558-.408 0-.816-.09-1.224-.27-.396-.18-.798-.426-1.206-.738l.036 1.53v2.952h-1.476Zm3.618-4.716c.72 0 1.314-.306 1.782-.918.48-.624.72-1.476.72-2.556 0-.96-.18-1.734-.54-2.322-.348-.6-.936-.9-1.764-.9-.372 0-.75.102-1.134.306-.372.204-.774.498-1.206.882v4.59c.396.336.78.576 1.152.72.372.132.702.198.99.198Zm8.226 1.242c-.732 0-1.344-.216-1.836-.648-.48-.444-.72-1.056-.72-1.836 0-.96.426-1.692 1.278-2.196.864-.516 2.226-.876 4.086-1.08 0-.372-.054-.726-.162-1.062-.096-.336-.276-.606-.54-.81-.252-.216-.618-.324-1.098-.324-.504 0-.978.096-1.422.288-.444.192-.84.408-1.188.648l-.576-1.026c.408-.264.906-.516 1.494-.756.6-.252 1.248-.378 1.944-.378 1.068 0 1.842.33 2.322.99.48.648.72 1.518.72 2.61V263h-1.224l-.126-1.044h-.054c-.408.336-.858.63-1.35.882-.48.252-.996.378-1.548.378Zm.432-1.188c.42 0 .816-.102 1.188-.306.372-.204.768-.492 1.188-.864v-2.43c-1.452.18-2.472.45-3.06.81-.576.36-.864.822-.864 1.386 0 .492.15.852.45 1.08.3.216.666.324 1.098.324Zm9.664 5.004c-1.068 0-1.938-.204-2.61-.612-.672-.408-1.008-.99-1.008-1.746 0-.372.114-.732.342-1.08.228-.336.54-.636.936-.9v-.072c-.216-.132-.402-.318-.558-.558-.144-.24-.216-.528-.216-.864 0-.372.102-.696.306-.972.204-.276.42-.492.648-.648v-.072c-.288-.24-.552-.564-.792-.972-.228-.408-.342-.87-.342-1.386 0-.636.15-1.188.45-1.656.3-.468.702-.828 1.206-1.08.504-.252 1.05-.378 1.638-.378.24 0 .468.024.684.072.216.036.402.084.558.144h3.042v1.134h-1.8c.204.192.372.45.504.774.144.312.216.654.216 1.026 0 .624-.144 1.164-.432 1.62-.288.456-.672.81-1.152 1.062-.48.24-1.02.36-1.62.36-.468 0-.906-.102-1.314-.306-.156.132-.288.282-.396.45-.108.156-.162.354-.162.594 0 .276.108.504.324.684.228.18.636.27 1.224.27h1.692c1.02 0 1.782.168 2.286.504.516.324.774.852.774 1.584 0 .54-.18 1.038-.54 1.494-.36.456-.87.822-1.53 1.098-.66.288-1.446.432-2.358.432Zm0-7.794c.504 0 .936-.186 1.296-.558.372-.384.558-.894.558-1.53s-.18-1.134-.54-1.494c-.36-.36-.798-.54-1.314-.54s-.954.18-1.314.54c-.36.36-.54.858-.54 1.494s.18 1.146.54 1.53c.372.372.81.558 1.314.558Zm.216 6.768c.84 0 1.512-.186 2.016-.558.504-.36.756-.768.756-1.224 0-.408-.156-.69-.468-.846-.3-.156-.732-.234-1.296-.234h-1.512c-.168 0-.354-.012-.558-.036-.192-.024-.384-.06-.576-.108-.312.228-.54.468-.684.72-.144.252-.216.504-.216.756 0 .468.222.84.666 1.116.456.276 1.08.414 1.872.414Zm9.293-2.79c-.78 0-1.488-.18-2.124-.54-.636-.372-1.14-.9-1.512-1.584-.372-.684-.558-1.5-.558-2.448 0-.96.186-1.782.558-2.466.384-.684.876-1.212 1.476-1.584.6-.372 1.23-.558 1.89-.558 1.116 0 1.974.372 2.574 1.116.612.744.918 1.74.918 2.988 0 .156-.006.312-.018.468 0 .144-.012.27-.036.378h-5.904c.06.924.348 1.662.864 2.214.528.552 1.212.828 2.052.828.42 0 .804-.06 1.152-.18.36-.132.702-.3 1.026-.504l.522.972c-.372.24-.798.45-1.278.63-.468.18-1.002.27-1.602.27Zm-2.754-5.292h4.68c0-.888-.192-1.56-.576-2.016-.372-.468-.9-.702-1.584-.702-.612 0-1.164.24-1.656.72-.48.468-.768 1.134-.864 1.998ZM155.79 263v-8.748h1.224l.126 1.26h.054c.42-.42.864-.768 1.332-1.044.468-.288 1.002-.432 1.602-.432.924 0 1.596.294 2.016.882.432.576.648 1.422.648 2.538V263h-1.476v-5.346c0-.816-.132-1.41-.396-1.782-.264-.372-.684-.558-1.26-.558-.444 0-.846.114-1.206.342-.348.228-.744.564-1.188 1.008V263h-1.476Zm13.479.216c-.78 0-1.488-.18-2.124-.54-.636-.372-1.14-.9-1.512-1.584-.372-.684-.558-1.5-.558-2.448 0-.96.186-1.782.558-2.466.384-.684.876-1.212 1.476-1.584.6-.372 1.23-.558 1.89-.558 1.116 0 1.974.372 2.574 1.116.612.744.918 1.74.918 2.988 0 .156-.006.312-.018.468 0 .144-.012.27-.036.378h-5.904c.06.924.348 1.662.864 2.214.528.552 1.212.828 2.052.828.42 0 .804-.06 1.152-.18.36-.132.702-.3 1.026-.504l.522.972c-.372.24-.798.45-1.278.63-.468.18-1.002.27-1.602.27Zm-2.754-5.292h4.68c0-.888-.192-1.56-.576-2.016-.372-.468-.9-.702-1.584-.702-.612 0-1.164.24-1.656.72-.48.468-.768 1.134-.864 1.998ZM178.689 263v-7.542h-1.188v-1.116l1.188-.09v-1.386c0-.888.204-1.59.612-2.106.42-.528 1.068-.792 1.944-.792.276 0 .54.03.792.09.252.048.474.114.666.198l-.324 1.134c-.324-.144-.654-.216-.99-.216-.816 0-1.224.564-1.224 1.692v1.386h1.854v1.206h-1.854V263h-1.476Zm8.32.216c-.708 0-1.374-.18-1.998-.54-.612-.36-1.11-.882-1.494-1.566-.372-.684-.558-1.506-.558-2.466 0-.984.186-1.818.558-2.502.384-.684.882-1.206 1.494-1.566.624-.36 1.29-.54 1.998-.54.72 0 1.386.18 1.998.54.612.36 1.104.882 1.476 1.566.384.684.576 1.518.576 2.502 0 .96-.192 1.782-.576 2.466-.372.684-.864 1.206-1.476 1.566-.612.36-1.278.54-1.998.54Zm0-1.224c.756 0 1.362-.306 1.818-.918.468-.624.702-1.434.702-2.43 0-1.008-.234-1.824-.702-2.448-.456-.624-1.062-.936-1.818-.936-.744 0-1.35.312-1.818.936-.468.624-.702 1.44-.702 2.448 0 .996.234 1.806.702 2.43.468.612 1.074.918 1.818.918Zm6.444 1.008v-8.748h1.224l.126 1.26h.054c.42-.42.864-.768 1.332-1.044.468-.288 1.002-.432 1.602-.432.924 0 1.596.294 2.016.882.432.576.648 1.422.648 2.538V263h-1.476v-5.346c0-.816-.132-1.41-.396-1.782-.264-.372-.684-.558-1.26-.558-.444 0-.846.114-1.206.342-.348.228-.744.564-1.188 1.008V263h-1.476Zm13.389.216c-.768 0-1.464-.18-2.088-.54-.624-.36-1.116-.882-1.476-1.566-.36-.684-.54-1.506-.54-2.466 0-.984.192-1.818.576-2.502.396-.684.912-1.206 1.548-1.566.648-.36 1.344-.54 2.088-.54.576 0 1.068.102 1.476.306.42.204.78.444 1.08.72l-.756.972c-.252-.228-.522-.414-.81-.558-.276-.144-.588-.216-.936-.216-.528 0-1.002.144-1.422.432-.408.276-.732.672-.972 1.188-.228.504-.342 1.092-.342 1.764 0 .996.246 1.806.738 2.43.504.612 1.158.918 1.962.918.408 0 .786-.084 1.134-.252.348-.18.654-.39.918-.63l.648.99c-.396.348-.834.624-1.314.828-.48.192-.984.288-1.512.288Zm7.422 0c-.936 0-1.59-.27-1.962-.81-.36-.54-.54-1.242-.54-2.106v-4.842h-1.296v-1.116l1.368-.09.18-2.448h1.242v2.448h2.358v1.206h-2.358v4.86c0 .54.096.96.288 1.26.204.288.558.432 1.062.432.156 0 .324-.024.504-.072l.486-.162.288 1.116c-.24.084-.504.156-.792.216-.276.072-.552.108-.828.108Zm3.418-.216v-8.748h1.476V263h-1.476Zm.756-10.548c-.288 0-.528-.084-.72-.252-.18-.18-.27-.42-.27-.72 0-.288.09-.522.27-.702.192-.18.432-.27.72-.27s.522.09.702.27c.192.18.288.414.288.702 0 .3-.096.54-.288.72-.18.168-.414.252-.702.252Zm7.165 10.764c-.708 0-1.374-.18-1.998-.54-.612-.36-1.11-.882-1.494-1.566-.372-.684-.558-1.506-.558-2.466 0-.984.186-1.818.558-2.502.384-.684.882-1.206 1.494-1.566.624-.36 1.29-.54 1.998-.54.72 0 1.386.18 1.998.54.612.36 1.104.882 1.476 1.566.384.684.576 1.518.576 2.502 0 .96-.192 1.782-.576 2.466-.372.684-.864 1.206-1.476 1.566-.612.36-1.278.54-1.998.54Zm0-1.224c.756 0 1.362-.306 1.818-.918.468-.624.702-1.434.702-2.43 0-1.008-.234-1.824-.702-2.448-.456-.624-1.062-.936-1.818-.936-.744 0-1.35.312-1.818.936-.468.624-.702 1.44-.702 2.448 0 .996.234 1.806.702 2.43.468.612 1.074.918 1.818.918Zm6.444 1.008v-8.748h1.224l.126 1.26h.054c.42-.42.864-.768 1.332-1.044.468-.288 1.002-.432 1.602-.432.924 0 1.596.294 2.016.882.432.576.648 1.422.648 2.538V263h-1.476v-5.346c0-.816-.132-1.41-.396-1.782-.264-.372-.684-.558-1.26-.558-.444 0-.846.114-1.206.342-.348.228-.744.564-1.188 1.008V263h-1.476Zm9.934 0v-8.748h1.224l.126 1.26h.054c.42-.42.864-.768 1.332-1.044.468-.288 1.002-.432 1.602-.432.924 0 1.596.294 2.016.882.432.576.648 1.422.648 2.538V263h-1.476v-5.346c0-.816-.132-1.41-.396-1.782-.264-.372-.684-.558-1.26-.558-.444 0-.846.114-1.206.342-.348.228-.744.564-1.188 1.008V263h-1.476Zm13.48.216c-.78 0-1.488-.18-2.124-.54-.636-.372-1.14-.9-1.512-1.584-.372-.684-.558-1.5-.558-2.448 0-.96.186-1.782.558-2.466.384-.684.876-1.212 1.476-1.584.6-.372 1.23-.558 1.89-.558 1.116 0 1.974.372 2.574 1.116.612.744.918 1.74.918 2.988 0 .156-.006.312-.018.468 0 .144-.012.27-.036.378h-5.904c.06.924.348 1.662.864 2.214.528.552 1.212.828 2.052.828.42 0 .804-.06 1.152-.18.36-.132.702-.3 1.026-.504l.522.972c-.372.24-.798.45-1.278.63-.468.18-1.002.27-1.602.27Zm-2.754-5.292h4.68c0-.888-.192-1.56-.576-2.016-.372-.468-.9-.702-1.584-.702-.612 0-1.164.24-1.656.72-.48.468-.768 1.134-.864 1.998Zm11.921 8.766v-12.438h1.224l.126 1.008h.054a6.772 6.772 0 0 1 1.296-.864c.48-.24.978-.36 1.494-.36 1.128 0 1.986.408 2.574 1.224.588.804.882 1.884.882 3.24 0 .984-.18 1.83-.54 2.538-.348.708-.81 1.248-1.386 1.62-.564.372-1.182.558-1.854.558-.408 0-.816-.09-1.224-.27-.396-.18-.798-.426-1.206-.738l.036 1.53v2.952h-1.476Zm3.618-4.716c.72 0 1.314-.306 1.782-.918.48-.624.72-1.476.72-2.556 0-.96-.18-1.734-.54-2.322-.348-.6-.936-.9-1.764-.9-.372 0-.75.102-1.134.306-.372.204-.774.498-1.206.882v4.59c.396.336.78.576 1.152.72.372.132.702.198.99.198Zm8.226 1.242c-.732 0-1.344-.216-1.836-.648-.48-.444-.72-1.056-.72-1.836 0-.96.426-1.692 1.278-2.196.864-.516 2.226-.876 4.086-1.08 0-.372-.054-.726-.162-1.062-.096-.336-.276-.606-.54-.81-.252-.216-.618-.324-1.098-.324-.504 0-.978.096-1.422.288-.444.192-.84.408-1.188.648l-.576-1.026c.408-.264.906-.516 1.494-.756.6-.252 1.248-.378 1.944-.378 1.068 0 1.842.33 2.322.99.48.648.72 1.518.72 2.61V263h-1.224l-.126-1.044h-.054c-.408.336-.858.63-1.35.882-.48.252-.996.378-1.548.378Zm.432-1.188c.42 0 .816-.102 1.188-.306.372-.204.768-.492 1.188-.864v-2.43c-1.452.18-2.472.45-3.06.81-.576.36-.864.822-.864 1.386 0 .492.15.852.45 1.08.3.216.666.324 1.098.324Zm8.998 1.188c-.624 0-1.218-.114-1.782-.342-.564-.24-1.056-.528-1.476-.864l.738-.99c.384.3.78.552 1.188.756.408.192.87.288 1.386.288.576 0 1.008-.132 1.296-.396.288-.276.432-.6.432-.972 0-.3-.102-.552-.306-.756-.192-.204-.444-.372-.756-.504-.3-.144-.612-.276-.936-.396-.408-.156-.81-.33-1.206-.522-.396-.204-.72-.462-.972-.774-.252-.324-.378-.732-.378-1.224 0-.708.264-1.296.792-1.764.54-.48 1.284-.72 2.232-.72.54 0 1.044.096 1.512.288.468.192.87.426 1.206.702l-.72.936c-.3-.228-.612-.414-.936-.558-.324-.144-.678-.216-1.062-.216-.552 0-.96.126-1.224.378-.252.252-.378.546-.378.882 0 .276.09.504.27.684.18.168.414.318.702.45.288.12.594.246.918.378.42.156.834.336 1.242.54.408.192.744.456 1.008.792.276.324.414.762.414 1.314 0 .468-.126.9-.378 1.296-.24.396-.6.714-1.08.954-.468.24-1.05.36-1.746.36Zm12.495 0c-.768 0-1.464-.18-2.088-.54-.624-.36-1.116-.882-1.476-1.566-.36-.684-.54-1.506-.54-2.466 0-.984.192-1.818.576-2.502.396-.684.912-1.206 1.548-1.566.648-.36 1.344-.54 2.088-.54.576 0 1.068.102 1.476.306.42.204.78.444 1.08.72l-.756.972c-.252-.228-.522-.414-.81-.558-.276-.144-.588-.216-.936-.216-.528 0-1.002.144-1.422.432-.408.276-.732.672-.972 1.188-.228.504-.342 1.092-.342 1.764 0 .996.246 1.806.738 2.43.504.612 1.158.918 1.962.918.408 0 .786-.084 1.134-.252.348-.18.654-.39.918-.63l.648.99c-.396.348-.834.624-1.314.828-.48.192-.984.288-1.512.288Zm7.858 0c-.708 0-1.374-.18-1.998-.54-.612-.36-1.11-.882-1.494-1.566-.372-.684-.558-1.506-.558-2.466 0-.984.186-1.818.558-2.502.384-.684.882-1.206 1.494-1.566.624-.36 1.29-.54 1.998-.54.72 0 1.386.18 1.998.54.612.36 1.104.882 1.476 1.566.384.684.576 1.518.576 2.502 0 .96-.192 1.782-.576 2.466-.372.684-.864 1.206-1.476 1.566-.612.36-1.278.54-1.998.54Zm0-1.224c.756 0 1.362-.306 1.818-.918.468-.624.702-1.434.702-2.43 0-1.008-.234-1.824-.702-2.448-.456-.624-1.062-.936-1.818-.936-.744 0-1.35.312-1.818.936-.468.624-.702 1.44-.702 2.448 0 .996.234 1.806.702 2.43.468.612 1.074.918 1.818.918Zm6.444 1.008v-8.748h1.224l.126 1.584h.054c.3-.552.666-.99 1.098-1.314.432-.324.894-.486 1.386-.486.348 0 .66.06.936.18l-.288 1.296c-.144-.048-.276-.084-.396-.108-.12-.024-.27-.036-.45-.036-.372 0-.762.15-1.17.45-.396.3-.744.822-1.044 1.566V263h-1.476Zm6.33 0v-8.748h1.224l.126 1.584h.054c.3-.552.666-.99 1.098-1.314.432-.324.894-.486 1.386-.486.348 0 .66.06.936.18l-.288 1.296c-.144-.048-.276-.084-.396-.108-.12-.024-.27-.036-.45-.036-.372 0-.762.15-1.17.45-.396.3-.744.822-1.044 1.566V263h-1.476Zm9.701.216c-.78 0-1.488-.18-2.124-.54-.636-.372-1.14-.9-1.512-1.584-.372-.684-.558-1.5-.558-2.448 0-.96.186-1.782.558-2.466.384-.684.876-1.212 1.476-1.584.6-.372 1.23-.558 1.89-.558 1.116 0 1.974.372 2.574 1.116.612.744.918 1.74.918 2.988 0 .156-.006.312-.018.468 0 .144-.012.27-.036.378h-5.904c.06.924.348 1.662.864 2.214.528.552 1.212.828 2.052.828.42 0 .804-.06 1.152-.18.36-.132.702-.3 1.026-.504l.522.972c-.372.24-.798.45-1.278.63-.468.18-1.002.27-1.602.27Zm-2.754-5.292h4.68c0-.888-.192-1.56-.576-2.016-.372-.468-.9-.702-1.584-.702-.612 0-1.164.24-1.656.72-.48.468-.768 1.134-.864 1.998Zm11.683 5.292c-.768 0-1.464-.18-2.088-.54-.624-.36-1.116-.882-1.476-1.566-.36-.684-.54-1.506-.54-2.466 0-.984.192-1.818.576-2.502.396-.684.912-1.206 1.548-1.566.648-.36 1.344-.54 2.088-.54.576 0 1.068.102 1.476.306.42.204.78.444 1.08.72l-.756.972c-.252-.228-.522-.414-.81-.558-.276-.144-.588-.216-.936-.216-.528 0-1.002.144-1.422.432-.408.276-.732.672-.972 1.188-.228.504-.342 1.092-.342 1.764 0 .996.246 1.806.738 2.43.504.612 1.158.918 1.962.918.408 0 .786-.084 1.134-.252.348-.18.654-.39.918-.63l.648.99c-.396.348-.834.624-1.314.828-.48.192-.984.288-1.512.288Zm7.422 0c-.936 0-1.59-.27-1.962-.81-.36-.54-.54-1.242-.54-2.106v-4.842h-1.296v-1.116l1.368-.09.18-2.448h1.242v2.448h2.358v1.206h-2.358v4.86c0 .54.096.96.288 1.26.204.288.558.432 1.062.432.156 0 .324-.024.504-.072l.486-.162.288 1.116c-.24.084-.504.156-.792.216-.276.072-.552.108-.828.108Zm6.718 0c-.78 0-1.488-.18-2.124-.54-.636-.372-1.14-.9-1.512-1.584-.372-.684-.558-1.5-.558-2.448 0-.96.186-1.782.558-2.466.384-.684.876-1.212 1.476-1.584.6-.372 1.23-.558 1.89-.558 1.116 0 1.974.372 2.574 1.116.612.744.918 1.74.918 2.988 0 .156-.006.312-.018.468 0 .144-.012.27-.036.378h-5.904c.06.924.348 1.662.864 2.214.528.552 1.212.828 2.052.828.42 0 .804-.06 1.152-.18.36-.132.702-.3 1.026-.504l.522.972c-.372.24-.798.45-1.278.63-.468.18-1.002.27-1.602.27Zm-2.754-5.292h4.68c0-.888-.192-1.56-.576-2.016-.372-.468-.9-.702-1.584-.702-.612 0-1.164.24-1.656.72-.48.468-.768 1.134-.864 1.998Zm8.227 5.076v-8.748h1.224l.126 1.26h.054c.384-.42.804-.768 1.26-1.044.456-.288.942-.432 1.458-.432.672 0 1.194.15 1.566.45.384.288.666.696.846 1.224.456-.492.918-.894 1.386-1.206.468-.312.966-.468 1.494-.468.9 0 1.566.294 1.998.882.444.576.666 1.422.666 2.538V263h-1.476v-5.346c0-.816-.132-1.41-.396-1.782-.264-.372-.672-.558-1.224-.558-.648 0-1.38.45-2.196 1.35V263h-1.476v-5.346c0-.816-.132-1.41-.396-1.782-.264-.372-.678-.558-1.242-.558-.648 0-1.38.45-2.196 1.35V263h-1.476Zm18.56.216c-.78 0-1.488-.18-2.124-.54-.636-.372-1.14-.9-1.512-1.584-.372-.684-.558-1.5-.558-2.448 0-.96.186-1.782.558-2.466.384-.684.876-1.212 1.476-1.584.6-.372 1.23-.558 1.89-.558 1.116 0 1.974.372 2.574 1.116.612.744.918 1.74.918 2.988 0 .156-.006.312-.018.468 0 .144-.012.27-.036.378h-5.904c.06.924.348 1.662.864 2.214.528.552 1.212.828 2.052.828.42 0 .804-.06 1.152-.18.36-.132.702-.3 1.026-.504l.522.972c-.372.24-.798.45-1.278.63-.468.18-1.002.27-1.602.27Zm-2.754-5.292h4.68c0-.888-.192-1.56-.576-2.016-.372-.468-.9-.702-1.584-.702-.612 0-1.164.24-1.656.72-.48.468-.768 1.134-.864 1.998Zm8.228 5.076v-8.748h1.224l.126 1.26h.054c.42-.42.864-.768 1.332-1.044.468-.288 1.002-.432 1.602-.432.924 0 1.596.294 2.016.882.432.576.648 1.422.648 2.538V263h-1.476v-5.346c0-.816-.132-1.41-.396-1.782-.264-.372-.684-.558-1.26-.558-.444 0-.846.114-1.206.342-.348.228-.744.564-1.188 1.008V263h-1.476Zm12.688.216c-.936 0-1.59-.27-1.962-.81-.36-.54-.54-1.242-.54-2.106v-4.842h-1.296v-1.116l1.368-.09.18-2.448h1.242v2.448h2.358v1.206h-2.358v4.86c0 .54.096.96.288 1.26.204.288.558.432 1.062.432.156 0 .324-.024.504-.072l.486-.162.288 1.116c-.24.084-.504.156-.792.216-.276.072-.552.108-.828.108Zm4.315 0c-.3 0-.558-.102-.774-.306-.204-.216-.306-.486-.306-.81 0-.348.102-.624.306-.828.216-.216.474-.324.774-.324.288 0 .534.108.738.324.216.204.324.48.324.828 0 .324-.108.594-.324.81-.204.204-.45.306-.738.306Z"/><path fill="#0C419A" d="M408 290h101v31H408z"/><rect width="77" height="17" x="419" y="297" fill="#CED9EB" opacity=".5" rx="8.5"/></g><defs><clipPath id="a"><path fill="#fff" d="M0 0h541v357H0z"/></clipPath><clipPath id="c"><rect width="780" height="400" x="62" y="60" fill="#fff" rx="16"/></clipPath><filter id="b" width="940" height="580" x="-18" y="60" color-interpolation-filters="sRGB" filterUnits="userSpaceOnUse"><feFlood flood-opacity="0" result="BackgroundImageFix"/><feColorMatrix in="SourceAlpha" result="hardAlpha" values="0 0 0 0 0 0 0 0 0 0 0 0 0 0 0 0 0 0 127 0"/><feOffset dy="2.7673"/><feGaussianBlur stdDeviation="1.1069"/><feColorMatrix values="0 0 0 0 0 0 0 0 0 0 0 0 0 0 0 0 0 0 0.0196802 0"/><feBlend in2="BackgroundImageFix" result="effect1_dropShadow_335_106205"/><feColorMatrix in="SourceAlpha" result="hardAlpha" values="0 0 0 0 0 0 0 0 0 0 0 0 0 0 0 0 0 0 127 0"/><feOffset dy="6.6501"/><feGaussianBlur stdDeviation="2.66"/><feColorMatrix values="0 0 0 0 0 0 0 0 0 0 0 0 0 0 0 0 0 0 0.0282725 0"/><feBlend in2="effect1_dropShadow_335_106205" result="effect2_dropShadow_335_106205"/><feColorMatrix in="SourceAlpha" result="hardAlpha" values="0 0 0 0 0 0 0 0 0 0 0 0 0 0 0 0 0 0 127 0"/><feOffset dy="12.5216"/><feGaussianBlur stdDeviation="5.0086"/><feColorMatrix values="0 0 0 0 0 0 0 0 0 0 0 0 0 0 0 0 0 0 0.035 0"/><feBlend in2="effect2_dropShadow_335_106205" result="effect3_dropShadow_335_106205"/><feColorMatrix in="SourceAlpha" result="hardAlpha" values="0 0 0 0 0 0 0 0 0 0 0 0 0 0 0 0 0 0 127 0"/><feOffset dy="22.3363"/><feGaussianBlur stdDeviation="8.9345"/><feColorMatrix values="0 0 0 0 0 0 0 0 0 0 0 0 0 0 0 0 0 0 0.0417275 0"/><feBlend in2="effect3_dropShadow_335_106205" result="effect4_dropShadow_335_106205"/><feColorMatrix in="SourceAlpha" result="hardAlpha" values="0 0 0 0 0 0 0 0 0 0 0 0 0 0 0 0 0 0 127 0"/><feOffset dy="41.7776"/><feGaussianBlur stdDeviation="16.711"/><feColorMatrix values="0 0 0 0 0 0 0 0 0 0 0 0 0 0 0 0 0 0 0.0503198 0"/><feBlend in2="effect4_dropShadow_335_106205" result="effect5_dropShadow_335_106205"/><feColorMatrix in="SourceAlpha" result="hardAlpha" values="0 0 0 0 0 0 0 0 0 0 0 0 0 0 0 0 0 0 127 0"/><feOffset dy="100"/><feGaussianBlur stdDeviation="40"/><feColorMatrix values="0 0 0 0 0 0 0 0 0 0 0 0 0 0 0 0 0 0 0.07 0"/><feBlend in2="effect5_dropShadow_335_106205" result="effect6_dropShadow_335_106205"/><feBlend in="SourceGraphic" in2="effect6_dropShadow_335_106205" result="shape"/></filter></defs></svg>
