<svg xmlns="http://www.w3.org/2000/svg" width="541" height="357" fill="none"><g clip-path="url(#a)"><path fill="#E7ECF5" d="M0 0h541v357H0z"/><g filter="url(#b)"><g clip-path="url(#c)"><path fill="#E2E7EE" d="M62 60h780v56H62z"/><path fill="#ED6A5E" fill-rule="evenodd" d="M92 94a6 6 0 1 0 0-12 6 6 0 0 0 0 12Z" clip-rule="evenodd"/><path fill="#F4BF4F" fill-rule="evenodd" d="M112 94a6 6 0 1 0 0-12 6 6 0 0 0 0 12Z" clip-rule="evenodd"/><path fill="#61C554" fill-rule="evenodd" d="M132 94a6 6 0 1 0 0-12 6 6 0 0 0 0 12Z" clip-rule="evenodd"/><path fill="#F6F8FC" d="M62 116h780v344H62z"/></g></g><path fill="#000" fill-opacity=".87" d="M93.32 177h1.608l1.536-12.264c.072-.528.096-1.248.144-1.944.24.696.504 1.416.72 1.944l3.432 9.024h1.896l3.432-9.024c.216-.552.456-1.296.696-2.016.024.72.096 1.488.168 2.016L108.488 177h1.608l-2.016-16.224h-1.992l-3.696 9.48c-.24.576-.48 1.368-.696 2.088a21.536 21.536 0 0 0-.672-2.088l-3.696-9.48h-1.992L93.32 177Zm19.526-3.528c0 2.112 1.896 3.84 4.392 3.84 2.4 0 4.32-1.704 4.32-3.84v-4.536c0-2.88-1.704-4.512-4.368-4.512-1.2 0-2.4.24-3.48.6l.336 1.392c.984-.288 2.136-.528 3.144-.528 1.848 0 2.784 1.104 2.784 3.048v.84h-2.832c-2.568 0-4.296 1.368-4.296 3.696Zm1.632-.048c0-1.296.84-2.256 2.664-2.256h2.832v2.304c0 1.32-1.128 2.376-2.736 2.376-1.656 0-2.76-1.104-2.76-2.424Zm11.701-11.016c.6 0 1.128-.504 1.128-1.104 0-.6-.528-1.08-1.128-1.08-.624 0-1.128.48-1.128 1.08 0 .6.504 1.104 1.128 1.104ZM125.387 177h1.584v-12.264h-1.584V177Zm5.792 0h1.584v-7.584c0-2.352 1.272-3.528 3-3.528 1.704 0 2.952 1.176 2.952 3.528V177h1.584v-7.704c0-3.168-1.992-4.872-4.536-4.872-2.496 0-4.584 1.704-4.584 4.872V177Zm13.681 0h1.584v-11.016h2.616v-1.248h-2.616v-4.056l-1.584.456v3.6h-2.112l.528 1.248h1.584V177Zm6.431-4.68c0 3.288 2.016 4.992 4.8 4.992 1.224 0 2.4-.192 3.6-.576l-.312-1.44c-1.104.312-2.16.552-3.288.552-1.944 0-3.216-1.08-3.216-3.528v-1.008h7.56v-2.448c0-2.64-2.04-4.44-4.584-4.44-2.496 0-4.56 1.704-4.56 4.896v3Zm1.584-2.4v-.6c0-2.352 1.248-3.432 2.976-3.432 1.752 0 3 1.2 3 2.976v1.056h-5.976Zm11.157 7.08h1.584v-7.584c0-2.352 1.272-3.528 3-3.528 1.704 0 2.952 1.176 2.952 3.528V177h1.584v-7.704c0-3.168-1.992-4.872-4.536-4.872-2.496 0-4.584 1.704-4.584 4.872V177Zm12.481-3.528c0 2.112 1.896 3.84 4.392 3.84 2.4 0 4.32-1.704 4.32-3.84v-4.536c0-2.88-1.704-4.512-4.368-4.512-1.2 0-2.4.24-3.48.6l.336 1.392c.984-.288 2.136-.528 3.144-.528 1.848 0 2.784 1.104 2.784 3.048v.84h-2.832c-2.568 0-4.296 1.368-4.296 3.696Zm1.632-.048c0-1.296.84-2.256 2.664-2.256h2.832v2.304c0 1.32-1.128 2.376-2.736 2.376-1.656 0-2.76-1.104-2.76-2.424ZM188.934 177h1.584v-7.584c0-2.352 1.272-3.528 3-3.528 1.704 0 2.952 1.176 2.952 3.528V177h1.584v-7.704c0-3.168-1.992-4.872-4.536-4.872-2.496 0-4.584 1.704-4.584 4.872V177Zm12.841-5.064c0 3.672 2.016 5.376 4.968 5.376 1.152 0 2.28-.216 3.408-.552l-.264-1.392c-1.056.288-2.088.48-3.12.48-2.28 0-3.408-1.296-3.408-4.08v-1.824c0-2.784 1.128-4.056 3.408-4.056 1.056 0 2.088.24 3.12.504l.264-1.416c-1.128-.336-2.256-.552-3.408-.552-2.952 0-4.968 1.68-4.968 5.352v2.16Zm11.49.384c0 3.288 2.016 4.992 4.8 4.992 1.224 0 2.4-.192 3.6-.576l-.312-1.44c-1.104.312-2.16.552-3.288.552-1.944 0-3.216-1.08-3.216-3.528v-1.008h7.56v-2.448c0-2.64-2.04-4.44-4.584-4.44-2.496 0-4.56 1.704-4.56 4.896v3Zm1.584-2.4v-.6c0-2.352 1.248-3.432 2.976-3.432 1.752 0 3 1.2 3 2.976v1.056h-5.976Zm17.036 2.4c0 3.288 2.016 4.992 4.8 4.992 1.224 0 2.4-.192 3.6-.576l-.312-1.44c-1.104.312-2.16.552-3.288.552-1.944 0-3.216-1.08-3.216-3.528v-1.008h7.56v-2.448c0-2.64-2.04-4.44-4.584-4.44-2.496 0-4.56 1.704-4.56 4.896v3Zm1.584-2.4v-.6c0-2.352 1.248-3.432 2.976-3.432 1.752 0 3 1.2 3 2.976v1.056h-5.976Zm11.157 7.08h1.584v-7.584c0-2.352 1.272-3.528 3-3.528 1.704 0 2.952 1.176 2.952 3.528V177h1.584v-7.704c0-3.168-1.992-4.872-4.536-4.872-2.496 0-4.584 1.704-4.584 4.872V177Zm19.081-5.064c0 3.672 2.016 5.376 4.968 5.376 1.152 0 2.28-.216 3.408-.552l-.264-1.392c-1.056.288-2.088.48-3.12.48-2.28 0-3.408-1.296-3.408-4.08v-1.824c0-2.784 1.128-4.056 3.408-4.056 1.056 0 2.088.24 3.12.504l.264-1.416c-1.128-.336-2.256-.552-3.408-.552-2.952 0-4.968 1.68-4.968 5.352v2.16Zm11.49-.024c0 3.72 2.064 5.4 4.824 5.4 2.784 0 4.848-1.68 4.848-5.4v-2.088c0-3.744-2.064-5.4-4.848-5.4-2.76 0-4.824 1.632-4.824 5.376v2.112Zm1.584-.12v-1.848c0-3.096 1.44-4.056 3.24-4.056 1.872 0 3.264.96 3.264 4.056v1.848c0 3.072-1.44 4.056-3.264 4.056-1.848 0-3.24-.984-3.24-4.056Zm11.813.648c0 3.168 2.016 4.872 4.56 4.872 2.496 0 4.56-1.704 4.56-4.872v-7.704h-1.584v7.584c0 2.352-1.272 3.528-2.976 3.528-1.728 0-2.976-1.176-2.976-3.528v-7.584h-1.584v7.704Zm13.201 4.56h1.584v-8.088c0-1.824 1.224-3.024 2.952-3.024.36 0 .96.096 1.104.12l.288-1.44c-.288-.048-.96-.144-1.416-.144-2.52 0-4.512 1.752-4.512 4.488V177Zm7.816-.264a10.01 10.01 0 0 0 3.432.576c2.904 0 4.2-1.8 4.2-3.504 0-4.392-5.76-3.192-5.76-6.072 0-1.08.744-1.848 2.256-1.848.936 0 1.776.192 2.688.48l.408-1.416c-1.032-.336-2.04-.528-3.096-.528-2.448 0-3.888 1.416-3.888 3.312 0 4.224 5.76 2.952 5.76 6.12 0 1.152-1.008 1.992-2.568 1.992-1.056 0-2.088-.264-3.144-.552l-.288 1.44Z"/><rect width="238" height="17" x="92" y="208" fill="#CED9EB" opacity=".5" rx="8.5"/><rect width="238" height="17" x="92" y="236" fill="#CED9EB" opacity=".5" rx="8.5"/><rect width="238" height="17" x="92" y="264" fill="#CED9EB" opacity=".5" rx="8.5"/><rect width="238" height="17" x="92" y="292" fill="#CED9EB" opacity=".5" rx="8.5"/><path fill="#E7ECF5" fill-rule="evenodd" d="M505.796 235.733c-.581 19.889-18.827 33.469-34.16 46.14-13.45 11.115-28.761 18.44-46.116 20.199-19.774 2.005-42.834 4.631-56.515-9.794-13.567-14.304-10.79-37.32-6.405-56.545 3.458-15.164 16.779-24.183 27.404-35.535 11.272-12.041 19.23-29.104 35.516-31.686 17.866-2.833 35.02 6.686 48.892 18.302 15.439 12.928 31.972 28.784 31.384 48.919Z" clip-rule="evenodd"/><circle cx="465.346" cy="271.641" r="15.311" fill="#fff" stroke="#0C419A" stroke-width="2"/><circle cx="467.712" cy="270.388" r="12.945" fill="#fff" stroke="#0C419A" stroke-width="2"/><circle cx="467.99" cy="270.11" r="9.326" fill="#fff" stroke="#0C419A" stroke-width="2"/><path fill="#0C419A" d="M434.446 220.14c0-16.424 11.19-24.202 21.017-26.168 18.095-3.619 46.472 10.999 46.908 48.995.357 31.141-13.526 65.656-44.263 65.699-28.116.038-35.215-23.802-39.391-29.37-1.419-1.891-4.303-7.516-7.516-10.022-2.127-1.658-6.96-1.627-10.718-3.201-4.117-1.723-10.282-6.887-11.553-11.97l-4.454-19.348c2.055-1.658 3.341-1.773 5.707-1.531.835 2.181 2.895 8.769 5.568 17.677 3.215 10.718 11.692 10.161 19.208 8.073 7.516-2.088 9.187-11.553 8.351-16.703-.668-4.12-4.918-13.037-6.959-16.981 1.737-1.975 2.97-2.411 5.428-2.505 1.021 2.088 3.619 7.432 5.846 12.109 2.784 5.846 3.202 10.996 2.784 14.476-.417 3.48-3.758 10.579-5.428 11.692-2.088 1.531-1.656 3.206-1.81 5.846-.307 5.275 7.617 35.498 34.937 35.355 29.851-.157 39.232-40.83 38.974-59.296-.505-36.046-26.586-47.324-39.948-43.845-7.274 1.895-16.948 5.992-17.399 21.018-.39 12.978 11.079 27.452 18.234 35.648 1.219 1.396 2.313 2.611 3.201 3.604-.556 2.088-2.366 3.48-4.036 4.176a193.365 193.365 0 0 1-3.48-3.728c-10.974-12.097-19.208-24.812-19.208-39.7Z"/><path stroke="#0C419A" stroke-width="2" d="M395.751 250.901c3.215 10.718 11.692 10.161 19.208 8.073 7.516-2.088 9.187-11.553 8.351-16.703-.668-4.12-4.918-13.037-6.959-16.981 1.737-1.975 2.97-2.411 5.428-2.505 1.021 2.088 3.619 7.432 5.846 12.109 2.784 5.846 3.202 10.996 2.784 14.476-.417 3.48-3.758 10.579-5.428 11.692-2.088 1.531-1.656 3.206-1.81 5.846-.307 5.275 7.617 35.498 34.937 35.355 29.851-.157 39.232-40.83 38.974-59.296-.505-36.046-26.586-47.324-39.948-43.845-7.274 1.895-16.948 5.992-17.399 21.018-.39 12.978 11.079 27.452 18.234 35.648m-62.218-4.887c-2.673-8.908-4.733-15.496-5.568-17.677m5.568 17.677-5.568-17.677m0 0c-2.366-.242-3.652-.127-5.707 1.531l4.454 19.348c1.271 5.083 7.436 10.247 11.553 11.97 3.758 1.574 8.591 1.543 10.718 3.201 3.213 2.506 6.097 8.131 7.516 10.022 4.176 5.568 11.275 29.408 39.391 29.37 30.737-.043 44.62-34.558 44.263-65.699-.436-37.996-28.813-52.614-46.908-48.995-9.827 1.966-21.017 9.744-21.017 26.168 0 14.888 8.234 27.603 19.208 39.7m0 0a193.365 193.365 0 0 0 3.48 3.728c1.67-.696 3.48-2.088 4.036-4.176-.888-.993-1.982-2.208-3.201-3.604m-4.315 4.052c1.787-1.268 2.747-2.109 4.315-4.052"/><path fill="#fff" stroke="#0C419A" stroke-width="2" d="m388.571 232.858.081.305c-1.257.021-2.192.268-3.201.894-4.037-16.701-12.806-49.828-2.088-61.242 3.897-3.897 8.769-5.242 10.717-5.428l.696 3.062c-1.995.325-6.848 1.949-10.3 5.846-8.555 9.107.946 44.75 4.095 56.563Z"/><path fill="#fff" stroke="#0C419A" stroke-width="2" d="M391.574 177.687c15.451 9.465 24.776 36.19 28.674 45.235-1.075.189-1.922.594-2.87 1.394-5.482-14.198-16.478-37.794-25.804-43.567-7.46-4.618-13.78-2.784-17.12-.974-.047-1.454-.305-2.091-1.114-2.923 5.707-2.088 12.11-3.202 18.234.835Z"/><path fill="#0C419A" stroke="#0C419A" stroke-width="2" d="M399.23 170.589c-2.12 0-4.036 1.113-5.011-1.392-.556-1.531.14-2.923 1.253-3.341 1.114-.417 2.088-.557 2.506-.974.334-.335 1.531-1.532 3.201-1.81 1.927-.321 3.897.418 4.732 2.506.836 2.088-.121 4.262-2.366 5.011-1.253.417-3.201 0-4.315 0Z"/><ellipse cx="404.082" cy="166.588" fill="#fff" stroke="#fff" stroke-width="2" rx=".964" ry="1.96" transform="rotate(-12.73 404.082 166.588)"/><path fill="#0C419A" stroke="#0C419A" stroke-width="2" d="M368.19 176.852c2.12 0 4.922-1.67 5.985 1.253.557 1.531.1 3.169-1.013 3.587-1.114.417-2.088.556-2.506.974-.335.335-1.532 1.532-3.201 1.81-1.927.321-4.004-.379-4.733-2.506-.656-1.917-.218-3.758 1.571-4.701 1.531-.806 2.366-.417 3.897-.417Z"/><ellipse cx="364.552" cy="181.342" fill="#fff" stroke="#fff" stroke-width="2" rx=".964" ry="1.96" transform="rotate(157.552 364.552 181.342)"/></g><defs><clipPath id="a"><path fill="#fff" d="M0 0h541v357H0z"/></clipPath><clipPath id="c"><rect width="780" height="400" x="62" y="60" fill="#fff" rx="16"/></clipPath><filter id="b" width="940" height="580" x="-18" y="60" color-interpolation-filters="sRGB" filterUnits="userSpaceOnUse"><feFlood flood-opacity="0" result="BackgroundImageFix"/><feColorMatrix in="SourceAlpha" result="hardAlpha" values="0 0 0 0 0 0 0 0 0 0 0 0 0 0 0 0 0 0 127 0"/><feOffset dy="2.767"/><feGaussianBlur stdDeviation="1.107"/><feColorMatrix values="0 0 0 0 0 0 0 0 0 0 0 0 0 0 0 0 0 0 0.0196802 0"/><feBlend in2="BackgroundImageFix" result="effect1_dropShadow_333_106259"/><feColorMatrix in="SourceAlpha" result="hardAlpha" values="0 0 0 0 0 0 0 0 0 0 0 0 0 0 0 0 0 0 127 0"/><feOffset dy="6.65"/><feGaussianBlur stdDeviation="2.66"/><feColorMatrix values="0 0 0 0 0 0 0 0 0 0 0 0 0 0 0 0 0 0 0.0282725 0"/><feBlend in2="effect1_dropShadow_333_106259" result="effect2_dropShadow_333_106259"/><feColorMatrix in="SourceAlpha" result="hardAlpha" values="0 0 0 0 0 0 0 0 0 0 0 0 0 0 0 0 0 0 127 0"/><feOffset dy="12.522"/><feGaussianBlur stdDeviation="5.009"/><feColorMatrix values="0 0 0 0 0 0 0 0 0 0 0 0 0 0 0 0 0 0 0.035 0"/><feBlend in2="effect2_dropShadow_333_106259" result="effect3_dropShadow_333_106259"/><feColorMatrix in="SourceAlpha" result="hardAlpha" values="0 0 0 0 0 0 0 0 0 0 0 0 0 0 0 0 0 0 127 0"/><feOffset dy="22.336"/><feGaussianBlur stdDeviation="8.935"/><feColorMatrix values="0 0 0 0 0 0 0 0 0 0 0 0 0 0 0 0 0 0 0.0417275 0"/><feBlend in2="effect3_dropShadow_333_106259" result="effect4_dropShadow_333_106259"/><feColorMatrix in="SourceAlpha" result="hardAlpha" values="0 0 0 0 0 0 0 0 0 0 0 0 0 0 0 0 0 0 127 0"/><feOffset dy="41.778"/><feGaussianBlur stdDeviation="16.711"/><feColorMatrix values="0 0 0 0 0 0 0 0 0 0 0 0 0 0 0 0 0 0 0.0503198 0"/><feBlend in2="effect4_dropShadow_333_106259" result="effect5_dropShadow_333_106259"/><feColorMatrix in="SourceAlpha" result="hardAlpha" values="0 0 0 0 0 0 0 0 0 0 0 0 0 0 0 0 0 0 127 0"/><feOffset dy="100"/><feGaussianBlur stdDeviation="40"/><feColorMatrix values="0 0 0 0 0 0 0 0 0 0 0 0 0 0 0 0 0 0 0.07 0"/><feBlend in2="effect5_dropShadow_333_106259" result="effect6_dropShadow_333_106259"/><feBlend in="SourceGraphic" in2="effect6_dropShadow_333_106259" result="shape"/></filter></defs></svg>
