<svg xmlns="http://www.w3.org/2000/svg" width="110" height="64" viewBox="0 0 110 64" fill="#007Fad"><path d="m7.3 36.1-1.4.2a4 4 0 0 1-2-.5 3 3 0 0 1-1.3-1.4c-.3-.7-.4-1.4-.4-2.2 0-.8.1-1.5.4-2.1a3 3 0 0 1 1.3-1.4c.6-.4 1.2-.5 2-.5a6 6 0 0 1 2.8.7l.2-1.8-1.4-.5-1.6-.2a5.4 5.4 0 0 0-5 2.8 6 6 0 0 0-.7 3c0 1.2.2 2.2.7 3.1.5.9 1.2 1.6 2 2a6 6 0 0 0 3 .7 6 6 0 0 0 3-.7l-.2-1.7a4 4 0 0 1-1.4.5zm9.6.4-.5-.1-.2-.4v-2.9c0-1.2-.2-2.1-.7-2.6-.5-.5-1.2-.8-2.1-.8-1 0-1.9.2-2.8.7l.2 1.5c.2-.2.6-.3.9-.4l1-.2c.5 0 .9.1 1.2.3.2.2.4.6.4 1.1l-2.1.3a7 7 0 0 0-1.7 1 2 2 0 0 0-.8 1.6c0 .7.2 1.3.7 1.7.4.4 1 .6 1.7.6.5 0 .9-.1 1.4-.3l1.1-.7.7.8c.3.2.7.2 1.2.2h.5l.2-1.5h-.3zm-2.6-.7-.8.6-.8.2c-.8 0-1.1-.3-1.1-1 0-.5.2-.9.7-1.1a4 4 0 0 1 2-.4zm3.9-9.2H20v1.8h-1.8zm0 3.3H20v7.9h-1.8zm8.5 4.3c-.4-.3-.9-.7-1.6-.9l-1-.4-.5-.3a.8.8 0 0 1-.2-.5c0-.3.1-.5.3-.7.2-.2.5-.2.9-.2l1.1.2c.3.1.7.3 1 .6l.2-1.5c-.7-.4-1.5-.6-2.3-.6-.9 0-1.7.2-2.2.7-.5.4-.8 1-.8 1.7 0 .6.2 1.1.6 1.5l1.8.9 1.2.5c.2.2.3.4.3.7 0 .3-.1.5-.3.7l-1 .2c-.8 0-1.6-.3-2.5-.8l-.2 1.6a6 6 0 0 0 2.7.6c1 0 1.8-.2 2.3-.6.5-.4.8-1 .8-1.7-.1-.9-.3-1.4-.6-1.7zm6.7 0c-.4-.3-.9-.7-1.6-.9l-1-.4-.5-.3-.3-.6c0-.3.1-.5.3-.7.2-.2.5-.2.9-.2l1.1.2c.3.1.7.3 1 .6l.2-1.5c-.7-.4-1.5-.6-2.4-.6-.9 0-1.7.2-2.2.7-.5.4-.8 1-.8 1.7 0 .6.2 1.1.6 1.5l1.8.9 1.2.5c.2.2.3.4.3.7 0 .3-.1.5-.3.7l-1 .2c-.8 0-1.6-.3-2.5-.8l-.2 1.6a6 6 0 0 0 2.7.6c1 0 1.8-.2 2.3-.6.5-.4.8-1 .8-1.7.1-.8 0-1.3-.4-1.6zm8.8-1c0-.7-.1-1.2-.4-1.8a3.4 3.4 0 0 0-3-1.7c-.8 0-1.5.2-2.1.5-.6.4-1 .8-1.3 1.5-.3.6-.4 1.3-.4 2 0 .8.2 1.5.5 2.1.3.6.8 1.1 1.5 1.5.7.4 1.4.6 2.4.6s1.8-.2 2.7-.6l-.1-1.5c-.7.4-1.5.6-2.3.6-.7 0-1.3-.2-1.8-.6-.5-.4-.8-1-.8-1.8H42Zm-5.4-.3c.3-1.1.9-1.7 2-1.7.5 0 .9.2 1.2.5.3.3.4.7.4 1.2zm16.6-2.2a3 3 0 0 0-2.3-1c-.9 0-1.6.3-2.3.8l-.1-.7h-1.6v7.9h1.8V32c.4-.5 1-.8 1.7-.8.6 0 1.1.2 1.3.5.3.4.4.9.4 1.7v4.3h1.8v-4.3a4 4 0 0 0-.7-2.7zm9.1 5.8-.5-.1-.2-.4v-2.9c0-1.2-.2-2.1-.7-2.6a3 3 0 0 0-2.2-.8c-1 0-1.9.2-2.8.7l.2 1.5 1.1-.5 1-.2c.5 0 .9.1 1.2.3.2.3.4.7.4 1.3l-2.1.3a5 5 0 0 0-1.8.9c-.5.4-.7 1-.7 1.7s.2 1.3.7 1.7c.5.4 1 .6 1.7.6.5 0 1-.1 1.4-.3l1.1-.7.7.8c.3.2.7.2 1.2.2h.5l.2-1.5zm-2.5-.7-.8.6-.8.2c-.8 0-1.1-.3-1.1-1 0-.5.2-.9.7-1.1a4 4 0 0 1 2-.4zm7.9-4.5v-1.4H66v-2l-1.8.2v1.8h-1l-.2 1.4h1.2v4.6c0 .5.2 1 .5 1.4.4.4.9.6 1.6.6h1.4l.2-1.5h-.5l-1-.1-.3-.3-.1-1v-3.7zm1.3-4.7H71v1.8h-1.8zm0 3.3H71v7.9h-1.8zM80 31.8a4 4 0 0 0-3.6-2.1c-.8 0-1.5.2-2.1.6-.6.4-1.1.8-1.4 1.5a4.6 4.6 0 0 0 0 4.2 3.6 3.6 0 0 0 3.5 2 5 5 0 0 0 2.2-.5A4 4 0 0 0 80 36a4.6 4.6 0 0 0 0-4.2zm-2 4c-.4.5-.9.7-1.6.7-.7 0-1.2-.2-1.6-.7-.4-.5-.6-1.1-.6-1.9 0-.8.2-1.4.6-1.9.4-.5.9-.7 1.6-.7.7 0 1.2.2 1.6.7.4.5.6 1.1.6 1.9 0 .8-.2 1.4-.6 1.9zm10.2-5.1a3 3 0 0 0-2.3-1c-.9 0-1.6.3-2.3.8l-.1-.7h-1.6v7.9h1.8V32c.4-.5 1-.8 1.7-.8.6 0 1.1.2 1.3.5.3.4.4.9.4 1.7v4.3h1.8v-4.3c0-1.1-.2-2-.7-2.7zm9.1 5.8-.5-.1-.2-.4v-2.9c0-1.2-.2-2.1-.7-2.6a3 3 0 0 0-2.2-.8c-1 0-1.9.2-2.8.7l.1 1.5 1.1-.5 1-.2c.5 0 .9.1 1.2.3.2.2.4.6.4 1.1l-2.1.3-1.7 1.1c-.5.4-.7 1-.7 1.7s.2 1.3.7 1.7c.5.4 1 .6 1.7.6.5 0 1-.1 1.4-.3l1.1-.7.7.8c.3.2.7.2 1.2.2h.5l.2-1.5zm-2.6-.7-.8.6a3 3 0 0 1-.8.2c-.8 0-1.1-.3-1.1-1 0-.5.2-.9.7-1.1a4 4 0 0 1 2-.4zm6.1.7-.3-.4-.1-1v-9.3h-1.8v10.1c0 .6.2 1.1.5 1.5.3.4.9.6 1.5.6h.6l.2-1.5zm8.6-3.3c0-.7-.1-1.2-.4-1.8a3.4 3.4 0 0 0-3-1.7c-.8 0-1.5.2-2.1.5-.6.4-1 .8-1.3 1.5-.3.6-.5 1.3-.5 2 0 .8.2 1.5.5 2.1.3.6.8 1.1 1.5 1.5.7.4 1.4.6 2.4.6s1.8-.2 2.7-.6l-.1-1.5c-.7.4-1.5.6-2.3.6-.7 0-1.3-.2-1.8-.6-.5-.4-.8-1-.8-1.8h5.3zm-5.4-.3c.3-1.1.9-1.7 1.9-1.7.6 0 1 .2 1.2.5.2.3.4.7.4 1.2z"/></svg>
