<svg xmlns="http://www.w3.org/2000/svg" xml:space="preserve" x="0" y="0" style="enable-background:new 0 0 146 64" version="1.1"  width="146" height="64"  viewBox="0 0 146 64"><path d="M10.5 37.1c-1.3.4-2.7.6-4 .6-1.9 0-3.1-1-3.1-4v-2.8c0-2.9 1.2-3.8 3.1-3.8 1.3 0 2.7.1 4 .6l.6-2.8c-1.5-.4-3.1-.7-4.6-.7-3.7 0-6.5 2.2-6.5 6.5V34c0 4.4 2.8 6.5 6.5 6.5 1.6 0 3.1-.3 4.6-.7l-.6-2.7zM13.4 35.3c0 3.4 2.2 5.5 5.3 5.5s5.3-2.1 5.3-5.5v-2.2c0-3.4-2.2-5.5-5.3-5.5s-5.3 2.1-5.3 5.5v2.2zm3.3-.1v-1.9c0-1.6.4-2.7 1.9-2.7s1.9 1 1.9 2.7v1.9c0 1.6-.4 2.7-1.9 2.7-1.5-.1-1.9-1.1-1.9-2.7zM26.4 40.3h3.4V33c0-1.6.4-2.5 1.5-2.5 1 0 1.5 1 1.5 2.8v6.9h3.4v-6.9c0-1.9.4-2.8 1.5-2.8 1 0 1.5.9 1.5 2.5v7.4h3.4v-7.5c0-3.4-2.2-5-4.9-5-1.3 0-2.4.6-3.1 1.6-.7-1-1.8-1.6-3.1-1.6-2.7 0-4.9 1.6-4.9 5l-.2 7.4zM48.2 40c.4.3 1.3.6 2.1.6 2.5 0 4.9-1.8 4.9-5.2v-2.7c0-3.2-2.4-5.2-5.2-5.2s-5.2 1.9-5.2 5.2v12.4h3.4V40zm0-2.6V33c0-1.6.7-2.4 1.8-2.4s1.8.7 1.8 2.4v2.4c0 1.8-.7 2.5-1.8 2.5-.6-.1-1.2-.2-1.8-.5zM58.7 40.3h3.4v-10H64v-2.2h-1.9v-3.8l-3.4.4v3.4h-2.1l.4 2.2h1.5v10h.2zM65.6 35.3c0 3.5 2.2 5.3 5.5 5.3 1.6 0 2.7-.3 4-.7l-.6-2.7c-1 .3-2.2.6-3.4.6-1.5 0-2.2-.7-2.2-2.5v-.1h6.8v-2.7c0-2.8-2.2-4.7-5-4.7s-5 1.8-5 5.2c-.1 0-.1 2.3-.1 2.3zm3.4-2.5v-.3c0-1 .7-1.9 1.6-1.9 1 0 1.6.9 1.6 1.9v.3H69z" fill="#0084b2"/><path d="M85.1 36.9c0-2.7 2.1-4 7.1-4.4 0-1-.6-1.5-1.9-1.5s-2.1.3-3.4 1l-1.5-2.5c1.6-.9 3.5-1.5 5.5-1.5 3.2 0 5.2 1.6 5.2 5.5v6.9h-3.2l-.3-1.2c-.9.9-2.2 1.5-3.7 1.5-2.5.1-3.8-1.7-3.8-3.8zm7.1-.1v-1.9c-2.5.3-3.4.9-3.4 1.8s.4 1 1.3 1c.7 0 1.5-.3 2.1-.9zM99.3 28.2h3.2l.3 1.5c1-.9 2.1-1.8 3.8-1.8s2.8.7 3.5 1.9c1.2-1 2.2-1.9 4-1.9 2.7 0 4 1.8 4 4.9v7.5h-3.8v-7.1c0-1.6-.4-2.1-1.5-2.1s-1.3.3-2.1 1v8.1h-4v-7.1c0-1.6-.4-2.1-1.5-2.1s-1.3.3-2.1 1v8.1h-3.8V28.2c.1 0 0 0 0 0zM120.5 34.3c0-4 2.8-6.2 5.9-6.2 3.1 0 5.5 2.7 5.5 5.8v1.6h-7.5c.3 1.6 1.6 2.4 3.2 2.4s1.8-.3 2.7-.7l1.3 2.4c-1.3.9-3.1 1.3-4.6 1.3-3.9-.3-6.5-2.5-6.5-6.6zm8-1.5c0-1.2-.4-2.1-1.9-2.1s-2.1.7-2.4 2.1h4.3zM134.5 36.4V23.2h3.8v13.3c0 .7.4 1 .7 1h.4l.4 2.8c-.4.1-1.2.3-1.9.3-2.5 0-3.4-1.6-3.4-4.2zM141.6 24.6c0-1.2 1-1.9 2.2-1.9 1.3 0 2.2.7 2.2 1.9s-1 1.9-2.2 1.9c-1.3.1-2.2-.6-2.2-1.9zm.3 3.6h3.8v12.1h-3.8V28.2z" fill="#0c419a"/></svg>
