<svg xmlns="http://www.w3.org/2000/svg" width="105" height="64" viewBox="0 0 126.8 78.1"><path fill="#1d508e" d="M70.4 19.5c0 .7.6 1 1.2 1 .5 0 1.1-.2 1.1-.8 0-.5-.7-.6-1.9-.9-.9-.2-1.9-.5-1.9-1.6 0-1.5 1.4-1.9 2.7-1.9 1.3 0 2.5.5 2.6 2h-1.6c0-.7-.5-.9-1-.9s-1 .1-1 .6c0 .6 1 .6 1.9.9 1 .2 1.9.5 1.9 1.6 0 1.6-1.4 2-2.8 2s-2.7-.5-2.8-2h1.6m9.3-1c-.3.2-.9.3-1.4.4-.5 0-1 .2-1 .8 0 .6.5.8 1 .8 1.4 0 1.4-1 1.4-1.4v-.6M76 17.3c0-1.5 1.5-2 2.8-2 1.2 0 2.7.3 2.7 1.7v3c0 .6 0 1.2.2 1.4h-1.7l-.1-.6c-.5.6-1.3.8-2 .8-1.2 0-2.1-.6-2.1-1.8 0-1.3 1-1.7 2-1.8 1-.1 2-.1 2-.8 0-.7-.5-.8-1-.8-.7 0-1.1.3-1.2 1zm7.3-1.8h1.6v.8a2.2 2.2 0 0 1 1.9-1c1.8 0 2.2 1 2.2 2.5v3.6h-1.7v-3.3c0-1-.2-1.5-1-1.5-1 0-1.3.5-1.3 1.7v3h-1.7v-5.8m9.6 0h1.3v1h-1.3v3c0 .6.2.7.8.7h.5v1.2h-1c-1 0-2-.2-2-1.3v-3.5h-1v-1h1.1v-1.9h1.6v1.8m5.6-.7h-1.1l1.1-1.6h1.9l-1.9 1.6m1.1 3c-.1-.8-.5-1.2-1.3-1.2a1.3 1.3 0 0 0-1.4 1.2zm-2.7 1c0 1 .6 1.5 1.5 1.5.7 0 1.2-.4 1.3-.7h1.5c-.5 1.4-1.5 2-2.9 2-1.9 0-3-1.3-3-3.1a3 3 0 0 1 3-3.2c2 0 3 1.7 3 3.5zM69.5 31.1h-1V30h1v-.5c0-1 .6-1.8 2-1.8h.8V29a5.6 5.6 0 0 0-.6 0c-.4 0-.6.1-.6.6v.4h1.1v1h-1V36h-1.8V31m8 1.9c-.4.2-1 .2-1.5.3-.5.1-1 .3-1 .9 0 .6.5.8 1 .8 1.4 0 1.4-1 1.4-1.4V33m-3.8-1.2c0-1.5 1.5-2 2.8-2 1.2 0 2.7.3 2.7 1.7v3c0 .6 0 1.1.2 1.4h-1.7l-.1-.6c-.5.5-1.3.7-2 .7-1.2 0-2.1-.5-2.1-1.7 0-1.4 1-1.7 2-1.8 1-.2 2-.1 2-.8 0-.7-.5-.8-1-.8-.7 0-1.1.3-1.2.9h-1.6zm7.4-1.8h1.6v.8a2.2 2.2 0 0 1 1.8-1c.8 0 1.5.3 1.8 1a2.2 2.2 0 0 1 1.8-1c1.3 0 2.2.6 2.2 2.1v4h-1.6v-3.4c0-.7-.1-1.4-1-1.4-1 0-1.2.8-1.2 1.5v3.3h-1.6v-3.3c0-.7 0-1.5-1-1.5-.3 0-1.1.2-1.1 1.4v3.4h-1.7v-6m11.2 0h1.6v6h-1.6v-6m1.6-.8h-1.6v-1.4h1.6zm2-1.4h1.6V36h-1.6zm3.6 0h1.6V36h-1.6zm7.6 4.6c-.2-.8-.5-1.3-1.3-1.3a1.3 1.3 0 0 0-1.4 1.3h2.7m-2.7 1c0 1 .5 1.5 1.5 1.5.6 0 1.2-.4 1.3-.8h1.4c-.4 1.4-1.4 2-2.8 2-1.9 0-3-1.2-3-3a3 3 0 0 1 3-3.2c2 0 3 1.7 3 3.5zM69 44.5h1.6v1a2.1 2.1 0 0 1 2-1.2h.3V46a3 3 0 0 0-.6 0c-1.2 0-1.7.8-1.7 1.8v2.6h-1.6v-5.8m9 2.3c-.2-.8-.5-1.3-1.3-1.3a1.3 1.3 0 0 0-1.4 1.3H78m-2.7 1c0 1 .5 1.5 1.5 1.5.6 0 1.2-.4 1.3-.8h1.4c-.4 1.4-1.4 2-2.8 2-2 0-3-1.3-3-3a3 3 0 0 1 3-3.2c2 0 3 1.7 3 3.5zm8-3.3h1.2v1h-1.2v3c0 .5.1.6.7.6h.5v1.3h-1c-1 0-1.9-.2-1.9-1.4v-3.5h-1v-1h1v-1.8h1.7v1.8m2.6 0h1.6v1a2.2 2.2 0 0 1 2-1.2h.3V46a3 3 0 0 0-.6 0c-1.2 0-1.6.8-1.6 1.8v2.6H86v-5.8m8.9 3c-.3.2-.9.2-1.4.3-.5.1-1 .3-1 .9 0 .6.5.7 1 .7 1.3 0 1.4-1 1.4-1.3v-.6M91 46.3c.1-1.5 1.5-2 2.9-2 1.2 0 2.6.3 2.6 1.7v3c0 .6.1 1.1.3 1.3H95a2.4 2.4 0 0 1-.1-.5c-.6.5-1.3.7-2 .7-1.2 0-2.1-.5-2.1-1.7 0-1.4 1-1.7 2-1.8 1-.2 2-.2 2-.8 0-.7-.5-.8-1-.8-.7 0-1.1.2-1.2.9zm7.5-1.8h1.6v5.8h-1.6v-5.8m1.6-1h-1.6v-1.3h1.6zm4 1h1.2v1h-1.2v3c0 .5.2.6.7.6h.5v1.3h-1c-1 0-1.8-.2-1.8-1.4v-3.5h-1v-1h1v-1.8h1.6v1.8m6.7 2.3c-.2-.8-.5-1.3-1.3-1.3a1.3 1.3 0 0 0-1.4 1.3h2.7m-2.7 1c0 1 .5 1.5 1.5 1.5.6 0 1.2-.4 1.3-.8h1.4c-.4 1.4-1.4 2-2.8 2-1.9 0-3-1.3-3-3a3 3 0 0 1 3-3.2c2 0 3 1.7 3 3.5zM70.4 62.9c0 .7.6 1 1.2 1 .5 0 1.1-.2 1.1-.7 0-.5-.7-.7-1.9-1-.9-.2-1.9-.5-1.9-1.5 0-1.5 1.4-2 2.7-2 1.3 0 2.5.5 2.6 2h-1.6c0-.7-.5-.8-1-.8s-1 0-1 .5c0 .6 1 .7 1.9.9 1 .2 1.9.5 1.9 1.6 0 1.6-1.4 2-2.8 2s-2.7-.4-2.8-2h1.6m9.6-1.6c-.1-.9-.5-1.3-1.3-1.3a1.3 1.3 0 0 0-1.4 1.2H80m-2.7 1c0 1.1.6 1.6 1.5 1.6.7 0 1.2-.4 1.3-.8h1.5c-.5 1.4-1.5 2-2.9 2-1.9 0-3-1.3-3-3.1a3 3 0 0 1 3-3.1c2 0 3 1.7 3 3.5zm6-3.3h1.5V60a2.1 2.1 0 0 1 2-1.2h.3v1.5a3.1 3.1 0 0 0-.6 0c-1.2 0-1.6.8-1.6 1.9v2.6h-1.7V59m8.5 5.8h-1.8L87.8 59h1.7l1.3 4 1.3-4h1.7l-2.1 6m3.4-6h1.6v6h-1.6v-6m1.6-.9h-1.6v-1.3h1.6zm6 3c0-.6-.5-1-1.2-1-1 0-1.4 1-1.4 2 0 .8.3 1.8 1.4 1.8.7 0 1.2-.5 1.3-1.2h1.6c-.2 1.5-1.3 2.4-3 2.4s-3-1.3-3-3c0-1.9 1.2-3.2 3.1-3.2 1.4 0 2.7.7 2.9 2.2h-1.7m7.3.3c-.2-.9-.5-1.3-1.3-1.3a1.3 1.3 0 0 0-1.4 1.2h2.7m-2.7 1c0 1.1.5 1.6 1.5 1.6.6 0 1.2-.4 1.3-.8h1.4c-.4 1.4-1.4 2-2.8 2-1.9 0-3-1.3-3-3.1a3 3 0 0 1 3-3.1c2 0 3 1.7 3 3.5zm7.2.7c0 .7.6 1 1.3 1 .4 0 1-.2 1-.7 0-.5-.6-.7-1.8-1-1-.2-2-.5-2-1.5 0-1.5 1.4-2 2.7-2 1.3 0 2.5.5 2.7 2h-1.6c0-.7-.6-.8-1.2-.8-.3 0-.9 0-.9.5 0 .6 1 .7 1.9.9 1 .2 2 .5 2 1.6 0 1.6-1.5 2-2.9 2s-2.7-.4-2.8-2h1.6"/><path fill="#fbbf27" d="M67.4 9.8h60.1v.7h-60Zm0 14.4h60.1v.7h-60Zm0 14.5h60.1v.7h-60Zm0 14.5h60.1v.7h-60Zm0 14.5h60.1v.7h-60Z"/><path fill="#1d508e" d="M-.7 9.8h60.1v58.6h-60Z"/><path fill="#fff" d="M49.4 54v4.6H36.9a2.5 2.5 0 0 1-2.5-2.5c0-1.3 1.1-2.3 2.5-2.3h10.7a7 7 0 0 0 1.8-.3v.4m5 4.7V47c0-3.6-3-6.7-6.8-6.7H32V28.1c0-4.7 3.8-8.6 8.7-8.6 4.8 0 8.8 4 8.8 8.6v12.2h5V28.2c0-7.5-6.2-13.5-13.8-13.5-4.8 0-8.5 2-11.2 5.7A13.8 13.8 0 0 0 18 14.7c-3.3 0-6.4 1.2-8.8 3v-3h-5v25.6h5V27.9a8.6 8.6 0 0 1 8.7-8.4 8.6 8.6 0 0 1 8.8 8.6v12.2H11.2A6.8 6.8 0 0 0 4.3 47a6.8 6.8 0 0 0 6.9 6.8H22c1.4 0 2.4 1 2.4 2.4s-1 2.3-2.4 2.3H4.3v5h18c4.2 0 7-3.4 7-7.5a7.3 7.3 0 0 0-7.4-7.2H11.3c-1 0-2-.8-2-1.8s1-1.8 2-1.8h36.2c1 0 2 .8 2 1.8s-1 1.8-2 1.8H36.8a7.3 7.3 0 0 0-7.4 7.2c0 4.1 3.3 7.5 7.4 7.5h22.4c-5 0-4.8-5-4.8-5z"/></svg>
