<svg xmlns="http://www.w3.org/2000/svg" fill="none" viewBox="0 0 175 185"><path fill="#e7ecf5" fill-rule="evenodd" d="M82.05 1.03c25.02 4.23 35.74 31.89 52.64 50.76 15.22 17 38.8 29.7 39.77 52.46.99 23.2-15.89 44.01-35.1 57.13-16.47 11.25-37.51 3.39-57.3 5.99-25.97 3.41-55.68 29.28-74.73 11.37-18.93-17.8 7.49-48.54 7.6-74.49.11-25.7-20.98-52.27-6.95-73.83C23 7.3 54.8-3.56 82.05 1.03Z" clip-rule="evenodd"/><path fill="#fff" d="M101.76 132.91 80.07 96.9l-6.74-11.21 3.21-4.8s32.94-.8 35.35 0l35.34 56.04-4.01 4.8h-36.15l-5.31-8.82Z"/><path fill="#0c419a" d="m101.76 132.91 5.3 8.83h-.4l-52.48-8.01 47.58-.82Z"/><path fill="#fff" d="M54.18 133.73h-.13V96.9h26.03l21.68 36.01-47.58.82ZM54.05 96.9v36.83l-19.28-9.6V88.9l19.28 8Z"/><path fill="#0c419a" d="m63.87 64.26 17.25-5.12 20.51-6.1s2.54 4.43 9.87 2.6c-5.53 1.83-20.28 6.68-26.74 8.62-8.04 2.4-20.89 0-20.89 0Z"/><path fill="#fff" d="M111.5 55.64c-7.34 1.83-9.87-2.6-9.87-2.6l-20.51 6.1c1.6-1.37 7.76-7.03 8.46-13.3.8-7.2 3.21-15.21 9.64-18.41 5.82-2.9 27.96-15.14 32.1-17.43-1.19.84-2.39 2.33-3.42 4.89a28.8 28.8 0 0 0-1.37 4.53c-3.21 14.41-2.4 31.23-12.05 35.23-1.07.44-2.06.77-2.97 1Z"/><path fill="#0c419a" d="M131.32 10c2.88-2.03 5.66-.19 5.66-.19L128 14.93l-.1-.04c1.03-2.56 2.23-4.06 3.42-4.9Z"/><path stroke="#0c419a" stroke-linecap="round" stroke-linejoin="round" stroke-miterlimit="10" stroke-width="2" d="m111.5 55.64 2.14-.7M111.5 55.65c-7.33 1.82-9.87-2.6-9.87-2.6l-20.51 6.09-17.25 5.12s12.85 2.4 20.89 0c6.46-1.94 21.2-6.79 26.74-8.61ZM111.5 55.65h.01M128 14.93l8.98-5.12s-2.78-1.84-5.66.19c-1.19.84-2.39 2.33-3.42 4.89a28.8 28.8 0 0 0-1.37 4.53c-3.21 14.41-2.4 31.23-12.05 35.23-1.07.45-2.06.77-2.97 1"/><path stroke="#0c419a" stroke-linecap="round" stroke-linejoin="round" stroke-miterlimit="10" stroke-width="2" d="M80.74 59.45s.14-.1.38-.31c1.6-1.37 7.76-7.03 8.46-13.3.8-7.2 3.21-15.21 9.64-18.41 5.82-2.9 27.96-15.14 32.1-17.43l.67-.37M97.61 33.03l20.08-10.4M96 40.24l20.9-10.41M62.08 88.9H34.77l19.28 8h26.1M101.79 132.91h-.03l-47.58.82h-.13V96.9M54.05 133.73l-19.28-9.6V88.9M76.54 80.89l34.54 56.04h26.52"/><g stroke="#0c419a" stroke-linecap="round" stroke-linejoin="round" stroke-width="2"><path stroke="#0c419a" stroke-miterlimit="10" d="m54.06 133.7.12.03 52.49 8h36.55l4.01-4.8L111.9 80.9c-2.41-.8-35.35 0-35.35 0l-3.22 4.8 6.75 11.21 21.69 36.02 5.3 8.82"/><path  d="M1-1h6.27" transform="rotate(81.49 -7.48 56.18) skewX(.05)"/><path d="M1-1h7.26" transform="rotate(48.66 -44.44 74.2) skewX(.16)"/><path d="M1-1h4.39" transform="matrix(.9 .45 -.45 .9 38.17 66.32)"/></g></svg>
