<svg xmlns="http://www.w3.org/2000/svg" viewBox="0 0 691 316" fill="#0c419a"><path d="M328.7 200.9v-47.6h12.5v48c0 2.8 1.2 3.6 2.3 3.6.5 0 1 0 1.5-.2l1.5 9.5c-2 .7-4.1 1.1-6.3 1-8.6.1-11.5-5.6-11.5-14.3zM248.6 185.7a815 815 0 0112.2-28h13.1v56.6H262v-35l-9.9 25.4h-7.5l-9.9-25.5v35h-11.9v-56.6h13s11.2 24.6 12.3 28zM351.6 202.3c0-9 7.6-14.1 24.3-16-.2-3.7-2.6-6-7.2-6-3.5 0-7.1 1.5-11.2 3.9l-4.4-8.4a34 34 0 0118-5.7c10.8 0 16.8 6.3 16.8 19.5v24.7H376V210s-5 5.2-11.8 5.2c-7.7 0-12.6-5.7-12.6-13zm24.4-.7V194c-8.9 1.2-12.4 4-12.4 7.3 0 2.8 1.9 4.1 4.8 4.1 3 0 5.4-1.6 7.6-3.8zM282.7 202.3c0-9 7.6-14.1 24.3-16-.3-3.7-2.6-6-7.2-6-3.6 0-7.1 1.5-11.2 3.9l-4.4-8.4a34 34 0 0118-5.7c10.8 0 16.8 6.3 16.8 19.5v24.7h-12V210s-4.8 5.2-11.7 5.2c-7.7 0-12.6-5.7-12.6-13zm24.3-.7V194c-8.9 1.2-12.4 4-12.4 7.3 0 2.8 2 4.1 4.9 4.1 3 0 5.3-1.6 7.6-3.8zM423.3 153.3v20.9a13.4 13.4 0 00-10.4-4.1c-8.9 0-17.5 8.5-17.5 22.5 0 14.1 6.8 22.6 17.3 22.6 5.8 0 10.2-4.3 10.6-4.7v3.7h12.5v-60.9zm-7.4 51.5c-4.8 0-7.7-3.8-7.7-12.3 0-8.2 3.6-12 7.7-12 2.7 0 5.3 1 7.4 2.7V201c-2.5 2.8-4.7 3.9-7.4 3.9zM445.4 158.2c0-4 3-6.7 7.2-6.7s7.3 2.7 7.3 6.7c0 3.9-3 6.6-7.3 6.6-4.2 0-7.2-2.7-7.2-6.6zm1 13h12.5v43h-12.5zM466.6 192.7c0-14 8.9-22.5 19.5-22.5 12 0 18.6 8.9 18.6 20.7 0 1.8-.2 3.7-.5 5.6h-25.3c1.1 6.2 5.3 9.1 11 9.1 3.2 0 6-1.2 9-3l4.2 8c-4.4 3-9.6 4.7-15 4.8-12.4 0-21.5-8.4-21.5-22.7zM494 188c0-4.8-2.7-8.2-7.7-8.2-4 0-6.7 2.7-7.6 8.2zM223 129.6V82h12.4v48c0 2.7 1.2 3.5 2.3 3.5l1.5-.1 1.5 9.4c-2 .8-4.1 1.1-6.3 1-8.6.1-11.5-5.6-11.5-14.3zM289.3 129.5l3.4 13.5h13l-17.5-56.7H274L256.5 143h13l3.3-13.5zm-14-10l5.5-21.5h.5l5.4 21.5zM308.2 138l5.6-8a18 18 0 0010.9 4.5c3.5 0 5.3-1.4 5.3-3.7 0-2.8-4.2-4-8.5-5.8-5.2-2-11.2-5.6-11.2-12.7 0-8 6.4-13.5 16.1-13.5 5.5 0 10.7 2 15 5.5l-5.7 7.6c-3-2.2-6-3.7-8.9-3.7-3.2 0-4.8 1.3-4.8 3.5 0 2.7 4 3.8 8.3 5.4 5.4 2 11.4 5.1 11.4 13s-6 13.9-17.3 13.9a27 27 0 01-16.2-6zM345.6 138l5.6-8a18 18 0 0011 4.5c3.5 0 5.3-1.4 5.3-3.7 0-2.8-4.2-4-8.6-5.8-5.2-2-11.1-5.6-11.1-12.7 0-8 6.3-13.5 16-13.5 5.5 0 10.8 2 15 5.5l-5.6 7.6c-3-2.2-6-3.7-9-3.7-3.2 0-4.8 1.3-4.8 3.5 0 2.7 4 3.8 8.4 5.4 5.3 2 11.3 5.1 11.3 13s-6 13.9-17.3 13.9a27 27 0 01-16.2-6zM434.1 99.9h12.5v6.1c2.4-4.7 8.2-6.4 11.2-6.4 1.7 0 3.4.3 5 .9l-1.3 11.6c-1.7-.7-3.5-1.1-5.3-1.3-5.2.3-9.3 4.5-9.5 9.7V143h-12.6zM511 99.9h12.6v5.4c3.5-3.5 7.1-6.5 12.9-6.5 9.2 0 13 6.6 13 17.4V143h-12.4v-25.2c0-6.2-1.6-8.1-5.3-8.1-3.1 0-5.5 1.5-8.2 4.2v29H511zM592.9 121.4c0-14 8.8-22.6 19.4-22.6 12 0 18.7 9 18.7 20.7 0 2-.2 3.8-.6 5.7h-25.2c1.1 6.2 5.3 9.1 11 9.1 3.1 0 5.9-1.3 9-3l4.2 7.9c-4.4 3-9.6 4.7-15 4.9-12.5-.1-21.5-8.4-21.5-22.7zm27.3-4.7c0-4.8-2.7-8.2-7.7-8.2-4 0-6.6 2.7-7.5 8.2zM465.5 131c0-9 7.6-14.1 24.3-16-.2-3.7-2.6-6-7.2-6-3.6 0-7 1.5-11.2 3.9l-4.4-8.4a34 34 0 0118-5.7c10.8 0 16.8 6.3 16.8 19.5V143h-11.9v-4.2s-4.9 5.2-11.8 5.2c-7.7 0-12.6-5.7-12.6-13zm24.4-.8v-7.5c-9 1.2-12.4 4-12.4 7.3 0 2.8 1.8 4.1 4.8 4.1s5.4-1.6 7.6-3.9zM251.9 81.8c-2.6 0-6.1 2-6.1 5.6a5 5 0 005.1 5.2h.4c-.2 3.7-3.6 6-5.3 6.8l3.3 4.6c10.9-3.5 13.2-22.1 2.6-22.2zM411.3 99.9v28.5c-2.4 3.4-4.3 4.7-7.5 4.7-3.5 0-5.2-2-5.2-8.1V99.9H386V127c0 10.2 4.3 17 13.2 17 4.7.1 9.1-2 12.1-5.5v4.5h12.4V99.9zM578.6 133.7c-5.5 0-9.5-4.8-9.5-12.3 0-7.4 3.8-12.3 9.9-12.3 2 0 4 1 5.4 2.4l6-8.2a18.1 18.1 0 00-12.1-4.5c-11.7 0-21.8 8.4-21.8 22.6 0 14.3 8.9 22.6 20.6 22.6 5.2 0 10.1-1.8 14-5.1l-4.6-8.7c-2.5 2-5 3.5-8 3.5zM227 234.8h4.5l7 21.3h-4l-3.3-11.4-2-7c-.6 2.4-1.2 4.8-2 7l-3.2 11.4H220zm-2.8 12.5h10v3h-10zM240.7 259a4 4 0 012.3-3.4v-.2a3 3 0 01-1.4-2.6c0-1.2.7-2.4 1.7-3v-.1a5.3 5.3 0 01-2-4.3c0-3.6 2.9-5.7 6.2-5.7.9 0 1.7.1 2.4.4h5.7v2.8h-2.9c.6.7 1 1.7 1 2.6 0 3.6-2.8 5.5-6.2 5.5a6 6 0 01-2.1-.4c-.5.3-.8 1-.8 1.5 0 1 .7 1.5 2.6 1.5h2.9c3.8 0 5.8 1.2 5.8 4 0 3-3.3 5.6-8.5 5.6-3.9 0-6.7-1.4-6.7-4.2zm11.6-.9c0-1.2-1-1.6-2.8-1.6h-2.2c-.8 0-1.5 0-2.2-.2-.7.5-1.2 1.3-1.2 2.1 0 1.5 1.6 2.3 4 2.3 2.6 0 4.4-1.2 4.4-2.6zm-2-12.7a2.8 2.8 0 10-5.5 0 2.8 2.8 0 105.5 0zM259.5 235.1a2.4 2.4 0 112.4 2.2 2.2 2.2 0 01-2.4-2.2zm.4 5h3.8v16h-3.8zM269.6 240h3l.3 3h.1c.8-1.9 2.6-3.1 4.6-3.3a4 4 0 011.8.3l-.7 3.3c-.5-.2-1-.3-1.6-.3-1.3 0-2.8.9-3.8 3.3v9.8h-3.7zM289.4 248c0-5.1 3.6-8.3 7.4-8.3 4.3 0 6.6 3.1 6.6 7.6a9 9 0 01-.2 1.8h-10.1a4.6 4.6 0 004.7 4.5c1.3 0 2.6-.5 3.7-1.2l1.3 2.4a10 10 0 01-5.5 1.7c-4.5 0-7.9-3.1-7.9-8.4zm10.7-1.4c0-2.5-1-4-3.3-4-1.8 0-3.5 1.4-3.8 4zM308.1 240h3l.4 2.2a7.5 7.5 0 015.3-2.5c3.4 0 5 2.4 5 6.4v10H318v-9.6c0-2.6-.8-3.5-2.5-3.5-1.4 0-2.4.7-3.6 2v11.2H308zM325.9 254.2l1.7-2.3c1.2 1 2.8 1.7 4.4 1.7 1.8 0 2.6-.8 2.6-1.9 0-1.3-1.7-1.9-3.4-2.6-2.1-.8-4.5-2-4.5-4.6 0-2.7 2.2-4.8 5.8-4.8 2 0 3.8.7 5.3 2l-1.7 2.3a6 6 0 00-3.5-1.4c-1.6 0-2.4.7-2.4 1.7 0 1.3 1.6 1.8 3.3 2.4 2.2.8 4.6 1.9 4.6 4.9 0 2.7-2.1 5-6.2 5a10 10 0 01-6-2.4zM341.5 248c0-5.1 3.6-8.3 7.4-8.3 4.3 0 6.6 3.1 6.6 7.6l-.1 1.8h-10.2a4.6 4.6 0 004.8 4.5c1.3 0 2.6-.5 3.7-1.2l1.2 2.4a10 10 0 01-5.4 1.7c-4.5 0-8-3.1-8-8.4zm10.7-1.4c0-2.5-1-4-3.3-4-1.8 0-3.5 1.4-3.8 4zM360.2 240h3.1l.3 2.3h.1c1.2-1.5 3-2.5 5-2.6 1.9-.2 3.7 1 4.3 2.9 1.6-1.7 3.2-3 5.2-3 3.4 0 5 2.5 5 6.5v10h-3.8v-9.6c0-2.6-.8-3.5-2.5-3.5a5 5 0 00-3.3 2v11.2h-3.8v-9.6c0-2.6-.8-3.6-2.5-3.6a5 5 0 00-3.3 2v11.2h-3.8zM392.2 254.4l-.4 1.7h-3v-23h3.8V241.7a7.3 7.3 0 014.6-2c4 0 6.3 3.2 6.3 8 0 5.6-3.3 8.8-6.9 8.8-1.7-.1-3.2-.9-4.4-2.1zm7.4-6.5c0-3.2-1.1-5.1-3.5-5.1a5 5 0 00-3.5 1.8v7.4c.8.9 2 1.3 3.2 1.4 2.1 0 3.8-2 3.8-5.5zM408 252v-19h3.8v19.2c0 .9.5 1.2.8 1.2h.6l.5 2.7c-.6.3-1.3.4-2 .4-2.6 0-3.6-1.7-3.6-4.5zM417 248c0-5.1 3.5-8.3 7.3-8.3 4.4 0 6.7 3.1 6.7 7.6a9 9 0 01-.2 1.8h-10.2a4.6 4.6 0 004.8 4.5c1.3 0 2.6-.5 3.7-1.2l1.3 2.4a10 10 0 01-5.5 1.7c-4.5 0-8-3.1-8-8.4zm10.7-1.4c0-2.5-1.1-4-3.3-4-1.9 0-3.5 1.4-3.9 4zM437.9 251.4a2.4 2.4 0 00-2.5 2.3 2.3 2.3 0 002.4 2.3h.2c0 1.7-1.1 3.2-3.3 4l.9 2a7 7 0 005-6.7c0-2.5-1-4-2.7-4zM453.7 240h3.1l.3 1.8c1.4-1.3 3.1-2 5-2.1 4 0 6.2 3.2 6.2 8.1 0 5.5-3.3 8.7-6.8 8.7-1.6 0-3-.7-4.1-1.8v7.7h-3.7zm10.7 7.9c0-3.2-1-5.1-3.5-5.1-1.4.1-2.6.8-3.5 1.8v7.4a5 5 0 003.2 1.4c2.1 0 3.8-2 3.8-5.5zM473 240h3.1l.3 3h.1c.8-1.9 2.6-3.1 4.6-3.3a4 4 0 011.8.3l-.7 3.3c-.5-.2-1-.3-1.6-.3-1.3 0-2.8.9-3.8 3.3v9.8H473zM484.3 248c0-5.2 3.7-8.3 7.6-8.3 4 0 7.6 3 7.6 8.4 0 5.3-3.6 8.4-7.6 8.4-4 0-7.6-3.1-7.6-8.4zm11.4 0c0-3.1-1.4-5.3-3.8-5.3-2.3 0-3.7 2.2-3.7 5.4s1.4 5.3 3.7 5.3c2.4 0 3.8-2.1 3.8-5.3zM504.3 250.7V243H502v-2.8l2.5-.1.5-4.4h3v4.4h4.2v3H508v7.6c0 1.9.7 2.8 2.2 2.8a5 5 0 001.7-.4l.7 2.8c-1.1.4-2.2.6-3.3.6-3.7 0-5-2.4-5-5.8zM515 248c0-5.1 3.7-8.3 7.5-8.3 4.3 0 6.6 3.1 6.6 7.6 0 .6 0 1.2-.2 1.8h-10.1a4.6 4.6 0 004.7 4.5c1.3 0 2.6-.5 3.7-1.2l1.3 2.4a10 10 0 01-5.5 1.7c-4.4 0-8-3.1-8-8.4zm10.8-1.4c0-2.5-1.1-4-3.3-4-1.9 0-3.6 1.4-3.8 4zm-5.3-11l4.8-5.7 2.6 2.5-5.5 5zM532.5 259a4 4 0 012.3-3.4v-.2a3 3 0 01-1.4-2.6c0-1.2.7-2.4 1.7-3v-.1a5.3 5.3 0 01-2-4.3c0-3.6 2.9-5.7 6.2-5.7.8 0 1.7.1 2.4.4h5.7v2.8h-2.9c.6.7 1 1.7 1 2.6 0 3.6-2.8 5.5-6.2 5.5a6 6 0 01-2.1-.4c-.5.3-.8 1-.8 1.5 0 1 .6 1.5 2.6 1.5h2.8c3.9 0 5.9 1.2 5.9 4 0 3-3.3 5.6-8.5 5.6-3.9 0-6.7-1.4-6.7-4.2zm11.6-.9c0-1.2-1-1.6-2.8-1.6H539c-.8 0-1.5 0-2.2-.2-.7.5-1.2 1.3-1.2 2.1 0 1.5 1.6 2.3 4 2.3 2.6 0 4.4-1.2 4.4-2.6zm-2-12.7a2.8 2.8 0 10-5.5 0 2.8 2.8 0 105.5 0zM550 248c0-5.1 3.5-8.3 7.3-8.3 4.3 0 6.6 3.1 6.6 7.6l-.1 1.8h-10.2a4.6 4.6 0 004.8 4.5c1.3 0 2.6-.5 3.7-1.2l1.2 2.4a10 10 0 01-5.5 1.7c-4.4 0-7.9-3.1-7.9-8.4zm10.6-1.4c0-2.5-1-4-3.3-4-1.8 0-3.5 1.4-3.8 4zM568.6 240h3l.4 3c.9-1.9 2.6-3.1 4.6-3.3a4 4 0 011.8.3l-.6 3.3c-.6-.2-1.1-.3-1.7-.3-1.3 0-2.8.9-3.8 3.3v9.8h-3.7zM588.5 248a8 8 0 018-8.3c1.7 0 3.4.6 4.7 1.8l-1.9 2.4a3.9 3.9 0 00-2.6-1.2c-2.6 0-4.4 2.1-4.4 5.3 0 3.2 1.8 5.3 4.3 5.3 1.2 0 2.4-.5 3.3-1.4l1.5 2.5a7.9 7.9 0 01-5.2 2c-4.4 0-7.7-3-7.7-8.3zM605.5 233h3.8v6l-.2 3a7.4 7.4 0 015.2-2.3c3.4 0 4.9 2.4 4.9 6.4v10h-3.8v-9.5c0-2.7-.7-3.6-2.5-3.6-1.4 0-2.3.7-3.6 2v11.2h-3.8zM623.7 251.8c0-3.5 2.9-5.2 9.4-6 0-1.7-.7-3.1-2.9-3.1-1.6 0-3.2.6-4.5 1.6l-1.4-2.5c2-1.3 4.3-2 6.6-2.1 4 0 6 2.4 6 6.9v9.5h-3l-.3-1.8h-.2a7.7 7.7 0 01-5 2.2 4.5 4.5 0 01-4.7-4.7zm9.4 0v-3.6c-4.3.6-5.8 1.7-5.8 3.3 0 1.4 1 2 2.3 2a5 5 0 003.5-1.7zM641.3 248a8 8 0 018-8.3c1.8 0 3.4.6 4.7 1.8l-1.8 2.4a4 4 0 00-2.7-1.2c-2.5 0-4.3 2.1-4.3 5.3 0 3.2 1.7 5.3 4.2 5.3 1.2 0 2.4-.5 3.3-1.4l1.5 2.5a7.9 7.9 0 01-5.2 2c-4.4 0-7.7-3-7.7-8.3zM658.2 250.1v-10h3.8v9.5c0 2.6.7 3.6 2.5 3.6 1.4 0 2.3-.6 3.5-2.2v-11h3.8v16.1h-3.1l-.3-2.4h-.1a6.5 6.5 0 01-5.2 2.8c-3.4 0-4.9-2.4-4.9-6.4zM677.3 240h3.1l.3 2.2h.1a7.5 7.5 0 015.3-2.5c3.4 0 4.9 2.4 4.9 6.4v10h-3.7v-9.6c0-2.6-.8-3.5-2.5-3.5-1.4 0-2.4.7-3.6 2v11.2h-3.8zM10.8 158.9l-1.4-1.4a4 4 0 001.2-2.4c0-.9-.3-1.4-1-1.4-.5 0-.8.5-1.1 1.4l-.6 1.2a3 3 0 01-2.8 2 3.2 3.2 0 01-2.9-3.8c0-1.2.6-2.3 1.5-3l1.3 1.1c-.5.6-.8 1.3-.9 2 0 .8.3 1.3.9 1.3.5 0 .8-.6 1.2-1.4l.5-1.2c.4-1.2 1.6-2 2.8-1.8 1.6 0 3 1.5 2.9 3.8 0 1.4-.6 2.6-1.6 3.6zM1.7 144.8L0 141.9l1.6-1 1.3 3zM3 147l1-6.2 1.8.3-.6 4 2 .2.5-3.3 1.8.3-.5 3.3 2.3.3.6-4 1.8.2-1 6.3zM9.2 138.4c-3.2-.8-4.5-3.4-3.9-5.8.3-1 1-2 2-2.5l1.1 1.5c-.6.3-1 .8-1.2 1.4-.3 1.4.6 2.7 2.5 3.2 2 .5 3.4-.1 3.7-1.5.2-.8 0-1.5-.4-2.1l1.7-.8c.7 1 .9 2.2.6 3.4-.7 2.4-2.9 4-6 3.2zM12.3 128l-5-1.9.9-2 5.1 2c1.9.6 2.7.3 3-.8.5-1 0-1.8-1.7-2.5l-5.2-2 .8-2 5 1.9c3 1.2 4 3 3 5.3-1 2.4-2.8 3.2-5.9 2zM12.1 114l1.7-3.2c1-1.8 2.3-3 4.5-2 2 1.2 2 3.1 1 5l-.5 1.2 3.1 1.6-1 2zm5.6-.9c.6-1 .4-1.8-.4-2.3-.9-.4-1.5 0-2 1l-.6 1 2.5 1.3zm1 .7l-.6-2 6.4-.2-1.2 2.2zM17.9 103.3l1.2-1.9 8.3 5.4-1.2 1.9zM27.1 93.5l-1.6 2.1 6.4 4.9-1.3 1.8-6.4-5-1.7 2.2-1.4-1.2 4.6-6zM28 89.4l4.3-4.6 1.4 1.3L31 89l1.4 1.4 2.3-2.5 1.4 1.3-2.3 2.4 1.7 1.6 2.8-3 1.3 1.3-4.3 4.6zm.4-2.6l.2-3.3h1.8l-.5 3.3zM44.7 84.9v-2a4 4 0 002.6-.7c.8-.6.9-1.2.5-1.6-.3-.4-1-.3-1.8 0l-1.4.3c-1.1.4-2.4 0-3.2-.9a3.2 3.2 0 011-4.5c1-.7 2.1-1 3.3-1v1.9c-.8 0-1.5.2-2.1.6-.6.5-.8 1-.5 1.5.4.4 1 .3 2 0l1.3-.4c1.1-.4 2.4 0 3.1 1 1 1.3.8 3.2-1 4.7-1.1.8-2.5 1.2-3.8 1zM50.8 75.4c-1.6-2.8-1-5.3 1.2-6.7 2.3-1.4 4.8-.7 6.5 2 1.7 2.8 1 5.4-1.2 6.8-2.3 1.4-4.8.7-6.5-2.1zm5.8-3.5c-1-1.7-2.4-2.2-3.6-1.5-1.2.7-1.2 2.1-.2 3.8 1 1.7 2.4 2.4 3.6 1.6 1.2-.7 1.2-2.2.2-3.9zM61.4 69.2c-1.4-3-.2-5.6 2-6.6 1-.5 2.2-.5 3.3-.1l-.5 1.7c-.6-.2-1.3-.2-1.9 0-1.2.6-1.7 2.1-.9 4 .9 1.7 2.3 2.4 3.6 1.8.7-.3 1.2-.9 1.4-1.6l1.6.8a4 4 0 01-2.2 2.6c-2.4 1.1-5 .4-6.4-2.6zM70.2 60l2-.9 3.4 9.3-2 .8zM79 57l2.6-.7 5.6 8.7-2.3.6-2.6-4.5c-.5-.8-1-2-1.6-2.8l.1 3.2v5.2l-2.2.6zm.5 5.8l4.6-1.2.5 1.7-4.6 1.2zM88.3 54.7l2.3-.3 1.2 8 3.8-.7.3 2-6 .8zM98 53.4l6.1-.5.2 2-4 .2.2 2 3.3-.2.1 1.9-3.3.2.1 2.3 4.2-.3v1.8l-6.2.5zM114.2 82.4c-.4-.6-1-1-1.7-1l-1.1-.1c-.8-.2-17.4 0-21.3 2.6-.4-2.7-1.3-5.8-5.9-6.8-3.2-.7-10 2.4-7.8 9.3.4 1.1 1.3 2 2.4 2.6.6.3 1.5.1 2.2 2 .2.5.6.4 1 .3.3-.1.3 0 .7.3.2.1.4.2.6.1l.4.1h.6c1.4 1.1 2.9-.6 3.5-1.6l2.1 6.5c-.5-.5-5.8-2-8.3.8a30 30 0 00-5.6 11.3 4.6 4.6 0 01-3.2 3c-2.9 1-1.2 2.3-.5 2.5 2.2.3 4.5.2 6.7-.3 1-.5.3-3 1.4-4.5l2.6-3.3c.1 1.7-.2 3.4-.9 5-.8 2.1-3.4 3.2-4.2 4.2-1.4 1.8 1.8 1.9 2.6 1.6 2-.7 3.6-.7 4.4-1.2 1.2-.7.4-2.5.8-3.3 1-2.1 4.7-6.7 5.1-7.5l.2-.3c2.2.7 4.4 1 6.7 1 6-.8 7.4-5 6.8-8.4a14 14 0 00-3-5.9 93.2 93.2 0 00-3.1-4.5l11.4-3c.4.7 1.2 1 1.5 1.1.6.4 1-.1.7-.3-.3-.1-.5-.4-.6-.7.7 0 1.4 0 2.1.2.7 0 1.1-1.5.7-1.8z"/><path fill-rule="evenodd" d="M200 140.6c-1.5-8.3-9.2-13.4-13.3-15.1-1.4-.7-2.8-1.2-4.3-1.6l-1.4-.4c.3-1.8 2.4-2 3.7-4.5 3.5-7.3-3.8-12.5-9.2-11.3-2.6.6-4.3 1.5-4.7 3.4-.3 1-1 1.1-2.4 2.5-.5.5.5 1.2.6 1.5l-.3 1v.4c-.2.3-.3.6-.3 1-.3.8-.3 1.7 0 2.5.6.9 1 1.8 1.1 2.8 0 .2 0 .4-1 0-.2 0-10-3-11-3.7a120.6 120.6 0 01-13.6-15.3c-2.3.2 1.7 4.3-.6 2.9L141 105c-.5-.3-.4-.2-.7-.6a3 3 0 00-.7-1c-.3-.2-.4-.3-.6-.2-.2 0-.3.3-.4.4h-.4c-.6.1-.1 1.6 0 2.3a27 27 0 002 4.4l5 3.2 8.7 10a95.3 95.3 0 0012.8 8.4c.6.4 1.7 2.6.2 18.2-.6 5.8-4.8 18.3-2.8 24.7 2.2 6 3.6 12.1 4.3 18.4.3 2.6-1.7 4.1-4.5 6.2l-4.6 3c-.5.4 0 1.2.7 1.5l2.6 1.1c1.7.2 3.4 0 4.8-1l3.5-2c1.2-.8 3-1.1 3.6-2.6.5-1.9-1-4.6-1-5.8 1.3-9 2.8-13.4.5-18.8-.4-1.1 3.3-13 3.6-11.4.6 3.1.8 12.5 1 19.4 0 3 2.4 13.8 3.2 17.7 1.2 5.9-8.9 10.6-6.7 12.4 1 .6 2 1 3 1.2 1.3.2 2.5 0 3.7-.4.8-.5 1.5-1.1 2-1.8 2.2-2.7 1.5-2 3.2-3.9 1.5-1.6.4-4.4.2-5.9-.3-3 0-3.8 0-9.3-.2-3.5 0-7 .7-10.4 1.5-10.4 2.5-16 3-20.5v-.3s.8.3 1.1-.2c.4-.8.6-1.6.6-2.4.1-.6.4.1.4.1l.5 2-.8 2.5c-.5 1.2.6 1.4.8 1.4 1.5-.7 2.8-1.7 3.8-3 .3-.8.5-1.8.5-2.7-.2-2-.4-4-.9-6 1-3 3.6-10.6 3.2-12.7zm-7 12c-.4 1.6-.5.1-1.9 5.6l.2-.7V155c0-6.8-5.3-21.3-2-18.3 0 0 3.7 2.7 4.4 4.7.7 1.6.5 5.9-.7 11.2z"/><path d="M65.9 169c-1.2-1-5.3-6.7-8-8.9a36.4 36.4 0 01-3.7-4.8c-4.8-6.5-6-6.9-9.3-7.4-.7-.5-.5-1-.4-1a4.2 4.2 0 003-5.7c-.3-.8.3-1.2.3-2a9 9 0 00-.7-3.2c.3-.7.2-1.6-.3-2.2-2.4-3-8.4-3.2-11.4-1-2.5 1.7-1 2.9-1.8 5.3-.4 1.4 0 2.8 1 3.8.1.8 2.6 2.4 2 4.1-.4 1.7-3.3 2.1-3.2 2.1l-.9.4c-4.5 2.6-9 6.3-9.5 10.5.2 3.3 5.4 8.1 8.7 10.7.5 5.7 4.1 14.4 4.3 14.8.5 1-1-.8-4.7-2-1.7-.6-4-3-4.6-.2-.2 1.2.3 3.2-.8 5.8-.8 1.9.2 5 2.3 5 1.6 0 2.5-4.8 2.5-4.8s7.4 3.7 11 2.5c2-.8 2.5-9.1.5-16.5-.7-2.6 1.3 4.2 6.3 10.2 1.1 1.4.2 2.4.9 7.4.2 1 .3 2.1.2 3.2-.1 2.3-2.3 5.2 2.8 6.6 5.2 1.3 5 2.6 8.4.3 1.4-1-4.6-1.6-5.8-5.2l-.2-.8c-.1-2.8 1.2-9.4.8-11.7-2-11.3-6.7-16.5-7.3-19.2 0-7.8-.5-10.3.2-8.5 1 1.8 2.2 3.5 3.4 5.2a15 15 0 002 2c3.4 3 8.6 6.3 9.3 7 0 0 .4 3.6 1.8 3.3 1.5-.3 7.6-3 7.5-3.7-.4-1.3-6.4-1.3-6.6-1.4zm-34.2-4.4c-1-1.8-3.6-5.2-3.4-5.8 1.5-2.4 3-3 3.5-3 .5.2-.2 8.8-.2 8.8z"/><path d="M170 232.8c-.3-.1-4-1.5-7.2-6.7a420.2 420.2 0 01-14-26.7c-3-7.8-26.1-22-27-22.8-.8-.5-.7-2-.4-2.8 2-6.6 1.2-12.5 1.5-13.4 1-2.3 2.4-5.5 1.3-7.7L122 149s12.2 4.4 15 3.8c2.5-.5 14.9-9 15.5-9.4 1.7-.9 5.8.4 10-4 1.5-1.8.4-2.4.1-2 .1-.2-.7-.9-1.4-.5-1 .6-4.4 1.6-3.8 1.1 2.5-1.8.8-2.3.8-2.3-1 .8-6 2-7 2.9l-2.3 2a52.8 52.8 0 01-13.2 5.3c-1 .2-10.9-6.2-16.5-7-2-.5-4-.4-5.8.2-2 .6-1.9-2.4-.4-3 .8-.4 2.1-.7 2.6-1.7a3 3 0 000-2.4c0-.3 0-.5-.2-.7v-.5c0-.4-.2-.5-.3-.8v-.6c1.3-1 .8-1.5.6-1.6-.2-.2-2.1-1.1-2.3-2.3-.2-1.3-.6-2.6-1.2-3.8 0-.4-.3-2.6-1.3-3.5-1.2-1-3.7-2.3-9-1-1.8.6-1.5 1.4-5.8 2.2-5.2 1-8 8.7-7.6 11.9.4 2.6 2.6 1.3 2.5 2.5-.2 1.7-.3 4.7 3.5 5.8.8.3 5.8-.5 7.7-.2 0 0 1.5.1.7 1.7-.4.7-5.3 2.7-6.6 3.2-3.2 1.4-11.6 15.1-14.2 16.4-1.4.7-2.8 1.6-4.2 2.5-3.4 2.2-6.8 4.8-8.6 4.7-2.5-.1-4.5 1-6.2 4.8-.5 1-.2 1.6.7 1.9.4.4 1 .7 1.5.8.8.6 1.6.2 2.2-.1 2-1 2.4-2 3.2-2.2 1.9-.6 13-5 15.5-6.9 3.8-2 11.4-9.9 13.1-10 1.5 0 5.4 3.4 4.2 10-.4 2.2-3.3 6.3-4.8 8.6-3 4.7-.7 8.8-1.3 9.8-3.2 5.2-7.1 12.2-13.7 18.1-2.6 1.7-8 2.1-11 3-6.5 1.9-13.6 6.6-18.6 9.5-1.7.9-3.3-1.1-5.3-1.3-2.1-.3-2.3 2.9-3.4 5.7-.3 1-.5 1.3-2 4.9-.7 1.3-2.3 5.6-.7 7.4 1.5 2 5.2-4.6 8-7.8 1.4-1.7 2.3-2.3 5.5-3 2.1-.5 18.3-4.9 29-7.2l.8-.2c14-3.6 28.3-21.7 28.5-21.7l23.6 11.7c2.4 1.3 2.4 5.9 5.2 11.1 1.7 3.2 4.2 6 14.3 15.9 1.3 1.2.2 3.3.8 5.3.6 2 1.6 2.1 3.5 2l5.1-.6c2.3-.1 1.7.1 4.3.5 1.3.2 4.2.6 6.2-1.4 3.7-3.8-4-1.9-7.4-3.7z"/><path d="M144.4 222.6c-.4-.7-1.2-1-2-.7a72.5 72.5 0 01-68.8-1.7 1.4 1.4 0 00-1.5 2.4c22 12.7 49 13.4 71.6 1.9a1.4 1.4 0 00.7-2zM42.4 128.2l-.6-.1c-.7-.4-1-1.2-.7-2a75 75 0 0130.7-33.9 1.4 1.4 0 011.5 2.5c-13 7.5-23.3 19-29.5 32.7-.3.5-.8.8-1.4.8zM165.1 109.8c-.4 0-.8-.2-1-.5a72.5 72.5 0 00-44.2-23.8 1.4 1.4 0 01.4-2.8 75.3 75.3 0 0145.9 24.7 1.4 1.4 0 01-1.1 2.4z"/></svg>
