<svg xmlns="http://www.w3.org/2000/svg" viewBox="0 0 691 316" fill="#0C419a"><path d="M346.7 210.6V163h12.5v48c0 2.8 1.3 3.6 2.3 3.6.5 0 1 0 1.5-.2l1.5 9.5c-2 .7-4.1 1.1-6.3 1-8.6.1-11.5-5.6-11.5-14.3zM266.6 195.4a815 815 0 0112.2-28h13.1V224H280v-35l-9.9 25.4h-7.5l-9.9-25.5v35h-11.9v-56.6H254s11 24.6 12.2 28zM369.6 212c0-9 7.7-14.1 24.3-16-.2-3.7-2.6-6-7.2-6-3.5 0-7 1.5-11.1 3.9l-4.5-8.4a34 34 0 0118-5.7c10.8 0 16.8 6.3 16.8 19.5V224H394v-4.2s-4.9 5.2-11.8 5.2c-7.7 0-12.6-5.7-12.6-13zm24.4-.7v-7.6c-8.9 1.2-12.4 4-12.4 7.3 0 2.8 1.9 4.1 4.9 4.1 3 0 5.3-1.6 7.5-3.8zM300.7 212c0-9 7.6-14.1 24.3-16-.2-3.7-2.6-6-7.2-6-3.6 0-7 1.5-11.2 3.9l-4.4-8.4a34 34 0 0118-5.7c10.8 0 16.8 6.3 16.8 19.5V224h-12v-4.2s-4.8 5.2-11.7 5.2c-7.7 0-12.6-5.7-12.6-13zm24.3-.7v-7.6c-8.9 1.2-12.3 4-12.3 7.3 0 2.8 1.8 4.1 4.8 4.1s5.3-1.6 7.6-3.8zM441.3 163V184a13.4 13.4 0 00-10.4-4.1c-8.8 0-17.5 8.5-17.5 22.5 0 14.1 6.8 22.6 17.3 22.6 5.8 0 10.2-4.3 10.6-4.7v3.7h12.5V163zm-7.3 51.5c-4.9 0-7.7-3.8-7.7-12.3 0-8.2 3.5-12 7.6-12 2.7 0 5.3 1 7.4 2.7v17.8c-2.5 2.8-4.7 3.9-7.3 3.9zM463.4 167.9c0-4 3-6.7 7.2-6.7s7.3 2.7 7.3 6.7c0 3.9-3 6.6-7.3 6.6-4.2 0-7.2-2.8-7.2-6.6zm1 13h12.5v43h-12.5zM484.7 202.4c0-14 8.8-22.5 19.4-22.5 12 0 18.6 8.9 18.6 20.7 0 1.8-.1 3.7-.5 5.6h-25.3c1.2 6.2 5.4 9.1 11 9.1 3.2 0 6-1.3 9-3l4.3 7.9c-4.4 3-9.7 4.8-15 4.9-12.5 0-21.5-8.4-21.5-22.7zm27.3-4.7c0-4.8-2.7-8.2-7.7-8.2-4 0-6.7 2.7-7.5 8.2zM241 139.3V91.7h12.4v48c0 2.8 1.2 3.6 2.3 3.6l1.5-.1 1.5 9.4c-2 .8-4.1 1.1-6.3 1-8.5.1-11.5-5.6-11.5-14.3zM307.3 139.2l3.4 13.5h13L306.1 96H292l-17.4 56.7h13l3.4-13.5zm-14-10l5.5-21.5h.5l5.5 21.5zM326.2 147.7l5.6-8a18 18 0 0010.9 4.5c3.5 0 5.3-1.4 5.3-3.7 0-2.8-4.2-4-8.5-5.8-5.2-2-11.2-5.6-11.2-12.7 0-8 6.4-13.5 16.2-13.5 5.4 0 10.6 2 14.8 5.5l-5.6 7.6c-3-2.2-6-3.7-8.9-3.7-3.2 0-4.8 1.3-4.8 3.5 0 2.7 4 3.8 8.3 5.4 5.4 2 11.4 5.1 11.4 13s-6 13.9-17.3 13.9a27 27 0 01-16.2-6zM363.6 147.7l5.6-8a18 18 0 0011 4.5c3.5 0 5.3-1.4 5.3-3.7 0-2.8-4.2-4-8.6-5.8-5.1-2-11.1-5.6-11.1-12.7 0-8 6.3-13.5 16-13.5 5.5 0 10.8 2 15 5.5l-5.6 7.6c-3-2.2-6-3.7-9-3.7-3.1 0-4.7 1.3-4.7 3.5 0 2.7 4 3.8 8.3 5.4 5.3 2 11.3 5.1 11.3 13s-6 13.9-17.3 13.9a27 27 0 01-16.2-6zM452.1 109.6h12.5v6.1c2.4-4.7 8.2-6.4 11.2-6.4 1.7 0 3.4.3 5 .9l-1.2 11.6c-1.7-.7-3.5-1.1-5.4-1.3-5.2.3-9.3 4.5-9.5 9.7v22.5h-12.6zM529 109.6h12.6v5.4c3.6-3.5 7.1-6.5 13-6.5 9 0 13 6.6 13 17.4v26.8H555v-25.2c0-6.2-1.6-8.1-5.2-8.1-3.2 0-5.5 1.5-8.3 4.2v29H529zM611 131.1c0-14 8.7-22.6 19.3-22.6 12 0 18.7 9 18.7 20.7 0 2-.2 3.8-.6 5.7h-25.2c1.1 6.2 5.3 9.1 11 9.1 3.1 0 5.9-1.3 9-3.1l4.2 8c-4.4 3-9.6 4.7-15 4.8-12.4 0-21.5-8.3-21.5-22.6zm27.2-4.7c0-4.8-2.7-8.2-7.6-8.2-4 0-6.7 2.7-7.6 8.2zM483.5 140.7c0-9 7.6-14.1 24.3-16-.2-3.7-2.6-6-7.2-6-3.6 0-7 1.5-11.2 3.9l-4.4-8.4a34 34 0 0118-5.7c10.8 0 16.8 6.3 16.8 19.5v24.7h-11.9v-4.2s-4.9 5.2-11.8 5.2c-7.7 0-12.6-5.7-12.6-13zm24.4-.8v-7.5c-9 1.2-12.4 4-12.4 7.3 0 2.8 1.9 4.1 4.8 4.1 3 0 5.4-1.6 7.6-3.9zM269.9 91.5c-2.6 0-6.1 2-6.1 5.6a5 5 0 005.1 5.2h.4c-.1 3.7-3.6 6-5.3 6.8l3.3 4.6c11-3.5 13.2-22.1 2.6-22.2zM429.3 109.6V138c-2.4 3.4-4.3 4.7-7.5 4.7-3.5 0-5.2-2-5.2-8.1v-25.1H404v27.1c0 10.2 4.3 17 13.2 17 4.7.1 9.1-2 12.1-5.5v4.5h12.4v-43.1zM596.6 143.4c-5.4 0-9.5-4.8-9.5-12.3 0-7.4 3.9-12.3 9.9-12.3 2 0 4 1 5.4 2.4l6-8.2a18.1 18.1 0 00-12.1-4.5c-11.7 0-21.8 8.4-21.8 22.6 0 14.3 8.9 22.6 20.7 22.6 5 0 10-1.8 13.9-5.1l-4.6-8.7c-2.5 2-5 3.5-8 3.5zM132.2 82.9c-.4-.6-1-.9-1.7-1h-1.1c-.8-.3-17.4 0-21.3 2.5-.4-2.6-1.3-5.8-5.9-6.8-3.2-.7-10 2.4-7.8 9.3.5 1.1 1.3 2 2.4 2.6.6.3 1.6.1 2.3 2 .2.5.5.4.9.3.3-.1.3 0 .7.3.2.1.4.2.6.1.1.1.3.2.4.1h.6c1.4 1.1 2.9-.5 3.5-1.6l2.1 6.5c-.5-.5-5.7-2-8.3.8a30 30 0 00-5.6 11.3 4.6 4.6 0 01-3.2 3c-2.9 1-1.2 2.3-.5 2.5 2.2.3 4.5.2 6.7-.3 1-.5.3-3 1.4-4.5l2.6-3.3c.1 1.7-.2 3.4-.9 5-.8 2.1-3.4 3.2-4.2 4.2-1.4 1.8 1.8 2 2.6 1.6 2-.7 3.6-.7 4.5-1.2 1.1-.7.3-2.5.7-3.3 1-2 4.7-6.7 5.2-7.4l.1-.3c2.2.6 4.4 1 6.7.9 6-.8 7.4-5 6.8-8.3a14 14 0 00-3-6 93.2 93.2 0 00-3.1-4.5l11.4-3c.4.7 1.2 1 1.5 1.2.6.3 1-.2.7-.4l-.6-.6 2.1.1c.7 0 1.1-1.5.7-1.8z"/><path fill-rule="evenodd" d="M218 141.1c-1.5-8.3-9.2-13.4-13.2-15.1-1.5-.7-3-1.2-4.4-1.5l-1.3-.5c.2-1.8 2.3-2 3.6-4.5 3.6-7.3-3.8-12.5-9.2-11.3-2.6.6-4.3 1.5-4.7 3.4-.3 1-1 1.1-2.4 2.5-.5.5.5 1.2.7 1.5l-.4 1v.4c-.2.3-.2.6-.2 1-.4.8-.4 1.7 0 2.5.5 1 .9 1.8 1 2.8 0 .3 0 .4-1 0-.2 0-10-3-11-3.7a120.7 120.7 0 01-13.6-15.3c-2.3.2 1.7 4.3-.6 2.9l-2.3-1.7c-.5-.3-.4-.2-.7-.6a3 3 0 00-.7-1c-.3-.2-.4-.3-.6-.2-.2 0-.3.4-.4.4h-.4c-.6.1-.1 1.6 0 2.3a27 27 0 002.1 4.4l5 3.2c2.7 3.1 5.8 7 8.6 10a95.3 95.3 0 0012.8 8.5c.7.4 1.7 2.5.2 18-.6 6-4.8 18.4-2.8 24.8 2.2 6 3.6 12.1 4.3 18.4.3 2.6-1.7 4.1-4.5 6.2l-4.6 3c-.5.4 0 1.2.7 1.5l2.6 1.1c1.7.3 3.4 0 4.8-1l3.5-2c1.2-.8 3-1.1 3.6-2.6.5-1.9-1-4.6-.9-5.8 1.2-9 2.7-13.3.5-18.8-.5-1.1 3.2-13 3.5-11.4.6 3.1.8 12.5 1 19.4 0 3 2.4 13.8 3.2 17.7 1.2 5.9-8.9 10.7-6.7 12.4 1 .6 2 1 3 1.2 1.3.2 2.5 0 3.7-.4.8-.5 1.5-1.1 2-1.8 2.2-2.7 1.5-2 3.2-3.8 1.5-1.7.4-4.5.2-6-.3-3 0-3.8 0-9.3-.2-3.4 0-7 .7-10.4 1.6-10.4 2.5-16 3-20.5v-.3s.8.3 1.1-.2c.4-.8.6-1.6.6-2.4.1-.6.4.1.4.1l.5 2-.8 2.5c-.4 1.2.6 1.4.9 1.5 1.4-.8 2.7-1.8 3.7-3 .4-1 .5-1.9.5-2.8-.2-2-.4-4-.9-6 1-3 3.6-10.6 3.2-12.7zm-7 12c-.4 1.6-.5.2-1.9 5.7l.2-.8v-2.4c0-6.8-5.2-21.3-2-18.3 0 0 3.7 2.7 4.5 4.7.6 1.6.4 6-.8 11.2z"/><path d="M83.9 169.5c-1.2-1-5.3-6.7-8-8.9a36.4 36.4 0 01-3.7-4.8c-4.8-6.5-5.9-6.8-9.3-7.4-.7-.5-.4-1-.4-1a4.2 4.2 0 003-5.7c-.3-.8.3-1.2.3-2a9 9 0 00-.6-3.2c.2-.7 0-1.6-.4-2.2-2.4-3-8.4-3.1-11.4-1-2.5 1.7-1 2.9-1.8 5.3-.4 1.4 0 2.8 1 3.8.1.8 2.6 2.4 2 4.1-.4 1.7-3.3 2.2-3.2 2.2l-.9.3c-4.5 2.6-9 6.3-9.5 10.5.2 3.3 5.4 8.1 8.7 10.7.5 5.7 4.1 14.4 4.3 14.8.5 1-1-.8-4.7-2-1.7-.6-4-3-4.6-.2-.2 1.2.3 3.2-.8 5.8-.8 2 .2 5 2.3 5 1.6 0 2.5-4.8 2.5-4.8s7.4 3.7 11 2.5c2-.8 2.6-9 .5-16.5-.7-2.6 1.3 4.2 6.3 10.3 1.1 1.3.2 2.3.9 7.3.2 1 .3 2.1.2 3.2 0 2.4-2.3 5.2 2.8 6.6 5.2 1.3 5 2.6 8.4.3 1.5-1-4.6-1.6-5.8-5.2l-.2-.8c-.1-2.8 1.2-9.4.8-11.7-2-11.3-6.7-16.5-7.3-19.2 0-7.8-.5-10.3.2-8.5 1 1.8 2.2 3.5 3.4 5.2a15 15 0 002 2c3.4 3 8.6 6.4 9.3 7.1 0 0 .4 3.5 1.8 3.2 1.5-.3 7.6-3 7.5-3.7-.4-1.3-6.4-1.2-6.6-1.4zM49.7 165c-1-1.8-3.6-5.2-3.4-5.8 1.5-2.4 3-3 3.5-3 .5.2-.2 8.8-.2 8.8z"/><path d="M188 233.3c-.2-.1-4-1.5-7.2-6.7a420.2 420.2 0 01-14-26.7c-3-7.8-26-22-27-22.8-.8-.5-.7-1.9-.4-2.8 2-6.6 1.2-12.5 1.5-13.4 1-2.3 2.4-5.5 1.4-7.6l-2.4-3.8s12.2 4.4 15 3.8c2.5-.5 14.9-9 15.5-9.4 1.8-.9 5.9.4 10-4 1.6-1.8.4-2.4.1-2 .1-.2-.6-.9-1.4-.4-1 .5-4.4 1.5-3.8 1 2.5-1.8.8-2.3.8-2.3-1 .8-6 2-7 2.9l-2.3 2a52.8 52.8 0 01-13.2 5.3c-1 .2-10.9-6.2-16.5-7-2-.5-4-.4-5.8.2-2 .6-1.9-2.4-.4-3 .8-.4 2.1-.7 2.6-1.7a3 3 0 000-2.4c0-.2 0-.5-.2-.7v-.5c0-.4-.2-.5-.3-.8l.1-.6c1.2-1 .7-1.5.5-1.6-.1-.2-2.1-1-2.3-2.3-.2-1.3-.6-2.6-1.2-3.8 0-.4-.3-2.6-1.3-3.5-1.1-1-3.7-2.3-9-1-1.8.6-1.5 1.4-5.8 2.2-5.2 1-8 8.7-7.6 11.9.4 2.6 2.6 1.3 2.5 2.5-.1 1.8-.3 4.7 3.5 5.8.8.3 5.8-.5 7.7-.2 0 0 1.5.1.7 1.7-.4.7-5.3 2.7-6.6 3.2-3.2 1.4-11.6 15.1-14.1 16.4-1.5.7-3 1.6-4.3 2.5-3.4 2.2-6.8 4.8-8.6 4.8-2.5-.2-4.5 1-6.2 4.7-.5 1-.2 1.7.7 1.9.4.4 1 .7 1.5.8.8.7 1.6.2 2.2-.1 2-1 2.4-2 3.2-2.2 1.9-.6 13-5 15.5-6.9 3.8-2 11.4-9.8 13.1-10 1.5 0 5.4 3.4 4.2 10-.4 2.2-3.3 6.3-4.8 8.7-3 4.6-.7 8.7-1.3 9.7-3.2 5.2-7.1 12.2-13.7 18.2-2.6 1.6-8 2-11 2.9-6.5 1.9-13.6 6.6-18.6 9.5-1.7.9-3.3-1.1-5.3-1.3-2.1-.3-2.3 2.9-3.4 5.8l-2 4.8c-.7 1.4-2.3 5.6-.7 7.4 1.5 2 5.2-4.6 8-7.8 1.4-1.7 2.3-2.3 5.6-3 2-.5 18.2-4.9 28.9-7.2l.8-.2c14-3.6 28.3-21.7 28.6-21.7l23.5 11.7c2.4 1.3 2.4 6 5.3 11.2 1.7 3.1 4.1 5.9 14.2 15.8 1.3 1.2.3 3.3.8 5.3.6 2 1.6 2.1 3.5 2l5.1-.6c2.3 0 1.7.1 4.3.5 1.3.2 4.2.6 6.2-1.4 3.7-3.7-3.9-1.9-7.4-3.7z"/><path d="M162.4 223c-.3-.6-1.2-1-2-.6a72.5 72.5 0 01-68.8-1.7 1.4 1.4 0 00-1.5 2.5c22 12.6 49 13.3 71.7 1.8a1.4 1.4 0 00.6-2zM60.4 128.7l-.6-.1c-.7-.4-1-1.2-.7-2a75 75 0 0130.7-33.9 1.4 1.4 0 011.5 2.5c-13 7.5-23.3 19-29.5 32.7-.3.5-.8.8-1.4.8zM183.1 110.3c-.4 0-.8-.2-1-.5a72.5 72.5 0 00-44.2-23.7 1.4 1.4 0 11.4-2.9 75.3 75.3 0 0145.9 24.7 1.4 1.4 0 01-1 2.4z"/></svg>
