<svg version="1.0" xmlns="http://www.w3.org/2000/svg" viewBox="0 0 700 700"><path d="M254.5 85.8a28.1 28.1 0 00-17.4 13 26.5 26.5 0 00-.4 16.8c1.5 4.4 4.5 7.4 10.4 10.3a9 9 0 013.7 3.5c.7 1.5 2.8 2.6 7.5 3.9 8.6 2.3 9.2 2.2 12.4-1.3l2.7-3.1 2.7 7.8c4.1 11.6 4.3 12.7 2.3 11.9a35.6 35.6 0 00-16.9-.6c-2.4.7-5.7 2.6-7.4 4.2-5.9 5.7-12.8 19.1-17.6 33.8-1.6 5.1-6.7 12-8.8 12-2.5 0-7.7 3.4-7.7 5.1 0 3.4 3.4 4.6 12.8 4.4 13.4-.4 13.2-.2 14.7-9.6a30 30 0 015.6-10.5l5.1-6.9-.5 6c-1 10.1-2.3 12.3-14 22.6-3.4 3.1-3.7 3.6-2.4 5.3.7 1 2.6 1.8 4.3 1.9 4.4.1 18.2-3.3 19.4-4.8.6-.7 1.2-3.3 1.4-5.8.4-5.3-.1-4.3 9.8-18.3l7.8-11.1 5.7 1.3c3.2.7 9.4 1.2 13.8 1.1 6.6-.2 8.9-.7 13.1-3a20.7 20.7 0 0011.2-22.5c-1.1-6.7-3.2-11-11.9-23.9a92.5 92.5 0 01-6.9-11.1c0-.5 3.7-1.9 8.3-3.1l17.6-4.6 9.3-2.5 2.8 2c3.5 2.5 5.3 2.6 4.5.1-.5-1.6-.1-1.8 2.8-1.5 4.4.5 6.1-1.3 4.8-5-1.4-3.4-4.3-4.1-18.1-4a346 346 0 00-34 1.9c-.3.1-3.2.6-6.5 1-3.3.3-9 1.7-12.7 2.9-5.8 1.9-7.3 2-6.7.3.3-.7-3.8-9.6-5.5-12a24 24 0 00-21.1-7.9zM375.8 105.1c-2.2 1.2-2.4 5.2-.4 6.8.8.7 2.7 1.4 4.3 1.7a240.8 240.8 0 0195.1 37 195.2 195.2 0 0135.2 29.1 354 354 0 0012.9 12.3c2.8 1.6 6.1-.8 6.1-4.6 0-2.6-18.4-21.3-31.1-31.5A244.9 244.9 0 00381 104.5c-1.9-.2-4.3 0-5.2.6zM219.8 136.4a180.7 180.7 0 00-24.2 16.5c-9 6.7-28.4 25-36.6 34.6a260.4 260.4 0 00-31.8 47.9c-5.5 10.4-6.4 14.9-3.4 16.5 3.8 2 5.7.2 11-10.5a236.4 236.4 0 0181.7-92 77.3 77.3 0 0012.1-8.9c.8-1.9-1.2-5.2-3.4-5.7-1-.3-3.4.4-5.4 1.6z"/><path d="M437.6 172.6c-1.8 1.8-1.5 4.2 1.7 11.9a26.7 26.7 0 0012.8 15.1A56.7 56.7 0 01469 215c19.3 23.7 19.8 24.1 56 47.3 6 3.9 6.5 4.6 7.3 8.7a302.6 302.6 0 01-5.7 74 694 694 0 00-5.1 26c-.7 1.1-1.7 14-1.7 21 .1 5.9.9 10.2 4.1 20.3a261 261 0 0110.8 47c.3.5.5 3.1.5 5.8a17.3 17.3 0 01-7.3 14 137.6 137.6 0 01-14.2 10.3 65.1 65.1 0 00-8.7 6.4c.1 3.3 9 7.5 15.6 7.4 5.6 0 8.1-1 22.9-9.6 11.9-6.9 10.4-5.7 11.4-9.2.6-2 .3-5.2-1-9.9a36 36 0 01-.3-18.5l.8-4.5c.2-1.1.7-4.5 1-7.6a81.4 81.4 0 00-.2-34.8c-1.8-6.2-1.8-6.7-.1-13.8 3.1-12.8 9.6-31.2 10-27.8l.4 2.8c.8 4.1 1.6 18.6 2 37.2.5 20.1 1.1 31.2 2.1 35.6l1.4 7.4 4.4 22c2 9.3 3.6 18.4 3.6 20.1 0 5-4.9 13.2-13 21.9-9.3 9.8-10.7 12-8.9 14.2 2.7 3.2 10.4 4.9 17.5 3.8 4.7-.7 8.5-3.8 15.1-12l5.2-6.4c2.9-3.4 3.5-6.3 2.6-12.9-1.2-8.3-1.5-51.8-.4-60.4a180 180 0 012.4-16.8l1-6.5c.3-2.8 1.7-11.8 3-20 3.2-20.3 4.6-30.5 4.8-34.3 0-.6.6-1.2 1.3-1.2 1.6 0 4.4-5.1 4.5-8.2 0-1.7.4-1.3 1.5 1.7 1.3 3.5 1.3 4.5-.1 8.7-1.9 5.8-1.9 7.4 0 8.1 1.8.7 10.1-4.8 12.8-8.5 2.5-3.4 2.8-10.2 1.1-21.2-1.3-8.1-1.3-8.1 2.1-19.1 7.2-23.4 7.8-28.4 4.5-37.9-5.9-17.3-22.9-34.2-42.7-42.5a76.8 76.8 0 00-10.3-3.6 17 17 0 01-5.4-2.1c-1.7-1.2-1.5-1.6 3.2-6.1 6.4-6.1 9.2-11.3 9.9-18a24 24 0 00-14.1-24.8 28.1 28.1 0 00-21.2-2c-6 1.7-12.4 6.8-12.4 9.9 0 .8-1.9 3.3-4.2 5.5-3.9 3.6-4.1 4.1-3 6.3.7 1.2 1 3.2.8 4.3l-1.4 6.1c-.8 3.5-.5 5 1.5 9.9 1.3 3.1 2.3 6.1 2.1 6.5-.3.9-29.1-7.7-36-10.8-6.3-2.8-35.3-34.2-43-46.5-4.4-6.9-8.6-5.6-5 1.6.7 1.6 1.1 3.1.8 3.4-.7.7-8.7-5-11.9-8.6-3.1-3.5-3.9-3.7-6.1-1.5zm171.2 112.9c8.5 7.6 9.4 9.5 9.7 18.9.2 7.2-.3 12.7-2 22.5-.5 2.9-5.6 17.3-6.4 18.3-.4.4-.6-1.8-.7-5-.1-9-.5-11.3-7.8-45.7a50.5 50.5 0 01-1.7-13.8c.1-2.3 2.2-1.3 8.9 4.8z"/><path d="M320.7 216.6c-2.6.7-5.8 1.9-7.2 2.8a51 51 0 01-10.2 3.7c-8.7 2.3-11.1 3.6-16 8.5-8 8-14 25.7-11.2 33a7.7 7.7 0 004.1 3.8c2.9 1.3 3.2 1.8 3.4 6.5.2 6.2 2.8 10.8 7.4 13.2 3.1 1.7 5 1.9 16.5 1.3 11.1-.5 13.3-.4 14.4.9 2.5 3.1.3 5.3-9.9 10.1-5.5 2.5-10.4 4.6-10.9 4.6-2.5 0-11.4 10.2-26.7 30.6-11 14.7-18.4 23.4-19.9 23.4-.6 0-7.8 4.3-16 9.6-18.7 12-20.7 13-27.3 13.8a28 28 0 00-7.5 1.7c-1.7.9-2.3.8-3.4-.7l-3.6-4.4-7.2-8.5c-2.7-3.3-7.3-8.3-10.2-11.2-2.8-2.8-9-10.4-13.7-16.7-14.1-19-18.1-22.6-27.4-25-5.6-1.5-6.4-3.5-2-5.7 4.4-2.1 7-6.7 6.8-12.1V293c.6-9.7-1-20.3-3.6-23.1-4.2-4.6-9.3-6.4-18.9-6.4-7.5 0-9.8.4-13.8 2.4-5.4 2.6-8.1 6-8.3 10.5 0 1.7-.4 5.6-.9 8.7-.8 6.4-.3 7.7 5.5 15.4 5.4 7 5.9 9.8 2.5 12.9a24.7 24.7 0 01-7.4 4.1 73 73 0 00-30.3 24c-4.1 6.5-5.2 10.9-3.8 15.2 2.1 6.4 12.4 18.8 22.8 27.4 2.5 2.1 4.7 4.4 4.8 5.1a169.5 169.5 0 006.9 28.7c.2.9 1.8 5.2 3.4 9.6 1.7 4.4 3.1 8.3 3.1 8.6 0 .3-5.4-2-12-5.3a81.4 81.4 0 00-14-5.8c-2.6 0-4 3.6-4 10.5 0 2.9-.8 8-1.8 11.2-1.5 4.8-1.7 6.6-.8 9.6 2.4 8.2 7.9 10.3 11.5 4.2 1.1-1.9 2.5-5.3 3.1-7.5 1.2-4.5 1.1-4.5 4.8-2.6a108 108 0 0018.7 6.2c11.4 2 14.7 1 17.2-5.4 2.7-7.2 2.3-31.7-.7-42.2-1.7-5.9-1.1-5.6 2.6 1.6 4.2 8.2 8.3 14.8 14 22.5l4.1 5.7.8 12.8c.9 15.8.9 20.2 0 28-.7 5.9-.7 6.1 2.3 8.6a83.7 83.7 0 0026.3 9c3.2-.1 8.9-3.1 8.9-4.7 0-.6-3-2.6-6.6-4.5-12.1-6.3-13.8-9.9-12-25.5 1.5-14.2 1.8-26.4.7-32a163.2 163.2 0 00-17.7-46.5l-4.7-8.5-.4-16-.4-16 5.2 8.4c6.8 11.1 12.5 16.7 29.7 29.6 15.5 11.5 14.7 10.4 12.9 18.2-.6 2.5 2.4 5.2 8.1 7.1 3.8 1.3 4.9.9 12.2-4.3 2.5-1.8 11-5.8 19-9a240 240 0 0036.9-17.2c4.2-2.7 20.1-15.3 23.1-18.3 1.5-1.5 12-9.9 14.8-11.9 3.2-2.2 3.3-2.2 6.9-.4 4.1 1.9 8.7 8 9.9 12.8.4 1.6.8 6.1.9 9.9.3 8.9-1.8 14.3-11.4 29.5-9.2 14.8-10.6 20-8.8 33.2.6 4.3.3 5.3-4.4 13a226.3 226.3 0 01-33.5 45.1c-8.5 8.7-11.4 10-30.9 13.9-6 1.1-13.5 3-16.5 4.1-7 2.6-22.6 10-29.3 14l-8.2 4.8-10.8 6.4a38.7 38.7 0 01-10 4.6c-1.2 0-4.2-1-6.7-2.1-10-4.6-12.2-3.5-15.9 8.3-1.3 4-4.5 12.5-7.2 18.9-6.4 15.2-7.6 22.3-4.8 27.5 2.7 5.1 6.5 2.6 16.6-11 13.1-17.6 14.2-18.6 25.6-22 6.5-2 27.5-7.5 38.5-10.1 20.5-5 56.5-14 62.2-15.5 14-3.9 30.8-13.4 47.5-26.9 7-5.7 31.6-29.6 39.4-38.4l4.2-4.8 39.3 19.6c44.7 22.3 40.8 19.1 47.2 37.6 7.5 21.5 9.9 25 40.5 56.1l14.7 14.9.4 8.2c.2 4.6 1.1 9.2 1.9 10.4 1.8 3 6.5 3.8 15.2 2.6 7.5-1.1 14.7-1 28.3.2 7 .6 8.5.5 12-1.3 6.6-3.3 9.8-8.4 6.5-10.2a31 31 0 00-7.3-1.5c-14.4-1.6-17.3-2.4-24.5-7.2a64.6 64.6 0 01-20.5-24.3l-20.3-37.5c-5.4-10.1-18.6-36.4-21.5-42.9-3.2-7.2-5.4-10.1-15.5-20.1-9-9.1-18.2-16.8-30.5-25.7l-7.5-5.5c-.5-.5-5.3-3.8-10.5-7.3a86.6 86.6 0 01-9.8-7.3 63.6 63.6 0 01-15.9-11.4c-.5-1.2.3-6.1 2.3-14.8 1.2-5.4 2.2-14.9 2.3-23.7.2-7.9.8-11.3 3.1-18 4.2-11.8 4-16-1.1-23.8a27.8 27.8 0 01-3.6-6.6c.3-.4 4.8.8 8.7 2.4 9 3.4 32 9 36.7 8.8 5.6-.1 9.7-2.4 36.4-19.6 16.1-10.5 18-11.4 26.4-12.5a35.2 35.2 0 0019-8.8c9.4-8.4 6.7-12.8-5.5-8.8a89.4 89.4 0 01-6.7 2.1c-.3 0 .5-1.2 1.6-2.6 2.2-2.9 1.8-5.9-.8-4.8l-11.3 4.4a56.1 56.1 0 00-14.5 7.8c-7.8 6.6-39.1 20.2-46.4 20.2-1.2 0-9.6-3.8-18.7-8.4-27.7-13.9-36.4-16.2-51.8-14.1-4.3.6-5.4.4-6.1-1-1.9-3.3-.3-6.2 4.5-8.7 6.5-3.2 7.3-4.4 6.8-10.3-.2-2.8-.5-5-.6-5-.1 0-.4-1.5-.6-3.3-.3-1.7-.1-3.2.5-3.2 2.6 0 1.5-3.8-2.1-7-2.1-1.9-4.1-4.6-4.3-5.9-.2-1.3-1.4-5-2.5-8.3a47.1 47.1 0 01-2.9-11c-.2-1.9-5.3-6-9.2-7.3a41 41 0 00-21.2.1zM92.1 345.2c.1 1.3 0 5.7-.2 9.8l-.3 11.2c0 2.1-.3 3.8-.6 3.7-1.1-.1-10-15.1-10-16.9 0-2.3 7.3-10 9.5-10 .9 0 1.5 1 1.6 2.2z"/><path d="M222.3 553.2c-2.1 2.7-2.2 4.9-.4 6.7 2.6 2.6 26.6 14.1 37.6 18.1l11 4a316.3 316.3 0 0043.5 9.6c17.9 3 52.8 2 74-2.2l9.8-1.9c1.3-.2 3.2-.7 4.2-1l3.7-1c10.9-2.4 27.9-8.4 41.9-15 9.2-4.3 11.2-6.3 9.8-9.9-1.2-3.2-4.7-2.8-14.5 1.8-13.4 6.3-36 14-46.5 16l-23.1 4.1c-6.3 1-44.4 1.4-51.3.5l-12.5-1.5c-3.3-.4-6.3-.9-6.6-1.1a238.5 238.5 0 01-62.6-21 211 211 0 00-16.1-7.4c-.5 0-1.4.6-1.9 1.2z"/></svg>
