<svg xmlns="http://www.w3.org/2000/svg" width="541" height="357" fill="none" viewBox="0 0 541 357">
  <g clip-path="url(#a)">
    <path fill="#E7ECF5" d="M0 0h541v357H0z"/>
    <g filter="url(#b)">
      <g clip-path="url(#c)">
        <path fill="#E2E7EE" d="M62 60h780v56H62z"/>
        <path fill="#ED6A5E" fill-rule="evenodd" d="M92 94a6 6 0 1 0 0-12 6 6 0 0 0 0 12Z" clip-rule="evenodd"/>
        <path fill="#F4BF4F" fill-rule="evenodd" d="M112 94a6 6 0 1 0 0-12 6 6 0 0 0 0 12Z" clip-rule="evenodd"/>
        <path fill="#61C554" fill-rule="evenodd" d="M132 94a6 6 0 1 0 0-12 6 6 0 0 0 0 12Z" clip-rule="evenodd"/>
        <path fill="#F6F8FC" d="M62 116h780v344H62z"/>
      </g>
    </g>
    <path fill="#000" fill-opacity=".87" d="m480.157 149.544-1.219-1.219-4.835 4.835-4.835-4.835-1.22 1.219 4.835 4.835-4.835 4.835 1.22 1.22 4.835-4.835 4.835 4.835 1.219-1.22-4.835-4.835 4.835-4.835Z"/>
    <rect width="371" height="17" x="113.241" y="197.241" fill="#CED9EB" opacity=".5" rx="8.5"/>
    <rect width="371" height="17" x="113.241" y="237" fill="#CED9EB" opacity=".5" rx="8.5"/>
    <rect width="371" height="17" x="113.241" y="263" fill="#CED9EB" opacity=".5" rx="8.5"/>
    <rect width="116" height="20" x="368" y="300" fill="#CED9EB" opacity=".5" rx="10"/>
    <rect width="116" height="20" x="197" y="300" fill="#CED9EB" opacity=".5" rx="10"/>
    <path fill="#000" d="M114.68 157.88c0 4.344 2.592 6.432 6.096 6.432 1.776 0 3.456-.384 4.872-.864v-7.992h-3.408v1.416h1.824v5.448c-.984.24-1.944.48-3.264.48-2.64 0-4.488-1.584-4.488-4.968v-3.888c0-3.384 1.848-4.968 4.488-4.968 1.656 0 3 .336 4.128.696l.36-1.464c-1.584-.456-2.784-.744-4.512-.744-3.504 0-6.096 2.088-6.096 6.432v3.984Zm14.557 1.44c0 3.288 2.016 4.992 4.801 4.992 1.224 0 2.4-.192 3.6-.576l-.312-1.44c-1.105.312-2.161.552-3.288.552-1.944 0-3.216-1.08-3.216-3.528v-1.008h7.56v-2.448c0-2.64-2.04-4.44-4.584-4.44-2.497 0-4.561 1.704-4.561 4.896v3Zm1.585-2.4v-.6c0-2.352 1.248-3.432 2.976-3.432 1.751 0 3 1.2 3 2.976v1.056h-5.976Zm10.412 6.816a10.01 10.01 0 0 0 3.432.576c2.904 0 4.2-1.8 4.2-3.504 0-4.392-5.76-3.192-5.76-6.072 0-1.08.744-1.848 2.256-1.848.936 0 1.776.192 2.688.48l.408-1.416c-1.032-.336-2.04-.528-3.096-.528-2.448 0-3.888 1.416-3.888 3.312 0 4.224 5.76 2.952 5.76 6.12 0 1.152-1.008 1.992-2.568 1.992-1.056 0-2.088-.264-3.144-.552l-.288 1.44Zm11.449.264h1.584v-11.016h2.616v-1.248h-2.616v-4.056l-1.584.456v3.6h-2.112l.528 1.248h1.584V164Zm7.703-14.592c.6 0 1.128-.504 1.128-1.104 0-.6-.528-1.08-1.128-1.08-.624 0-1.128.48-1.128 1.08 0 .6.504 1.104 1.128 1.104ZM159.594 164h1.584v-12.264h-1.584V164Zm5.432-5.088c0 3.72 2.064 5.4 4.824 5.4 2.784 0 4.848-1.68 4.848-5.4v-2.088c0-3.744-2.064-5.4-4.848-5.4-2.76 0-4.824 1.632-4.824 5.376v2.112Zm1.584-.12v-1.848c0-3.096 1.44-4.056 3.24-4.056 1.872 0 3.264.96 3.264 4.056v1.848c0 3.072-1.44 4.056-3.264 4.056-1.848 0-3.24-.984-3.24-4.056ZM178.422 164h1.584v-7.584c0-2.352 1.272-3.528 3-3.528 1.704 0 2.952 1.176 2.952 3.528V164h1.584v-7.704c0-3.168-1.992-4.872-4.536-4.872-2.496 0-4.584 1.704-4.584 4.872V164Zm19.081-4.8c0 3.336 2.184 5.112 4.704 5.112 2.496 0 4.656-1.776 4.656-5.112v-12.768h-1.584v6c-.72-.48-1.896-1.008-3.168-1.008-2.472 0-4.608 1.584-4.608 5.136v2.64Zm1.584-.12v-2.4c0-2.832 1.44-3.792 3.144-3.792 1.056 0 2.04.408 3.048 1.056v5.136c0 2.592-1.344 3.768-3.072 3.768s-3.12-1.176-3.12-3.768Zm11.125.24c0 3.288 2.016 4.992 4.8 4.992 1.224 0 2.4-.192 3.6-.576l-.312-1.44c-1.104.312-2.16.552-3.288.552-1.944 0-3.216-1.08-3.216-3.528v-1.008h7.56v-2.448c0-2.64-2.04-4.44-4.584-4.44-2.496 0-4.56 1.704-4.56 4.896v3Zm1.584-2.4v-.6c0-2.352 1.248-3.432 2.976-3.432 1.752 0 3 1.2 3 2.976v1.056h-5.976Zm10.413 6.816a10.01 10.01 0 0 0 3.432.576c2.904 0 4.2-1.8 4.2-3.504 0-4.392-5.76-3.192-5.76-6.072 0-1.08.744-1.848 2.256-1.848.936 0 1.776.192 2.688.48l.408-1.416c-1.032-.336-2.04-.528-3.096-.528-2.448 0-3.888 1.416-3.888 3.312 0 4.224 5.76 2.952 5.76 6.12 0 1.152-1.008 1.992-2.568 1.992-1.056 0-2.088-.264-3.144-.552l-.288 1.44Zm16.848-4.8c0 3.672 2.016 5.376 4.968 5.376 1.152 0 2.28-.216 3.408-.552l-.264-1.392c-1.056.288-2.088.48-3.12.48-2.28 0-3.408-1.296-3.408-4.08v-1.824c0-2.784 1.128-4.056 3.408-4.056 1.056 0 2.088.24 3.12.504l.264-1.416c-1.128-.336-2.256-.552-3.408-.552-2.952 0-4.968 1.68-4.968 5.352v2.16Zm11.49-.024c0 3.72 2.064 5.4 4.824 5.4 2.784 0 4.848-1.68 4.848-5.4v-2.088c0-3.744-2.064-5.4-4.848-5.4-2.76 0-4.824 1.632-4.824 5.376v2.112Zm1.584-.12v-1.848c0-3.096 1.44-4.056 3.24-4.056 1.872 0 3.264.96 3.264 4.056v1.848c0 3.072-1.44 4.056-3.264 4.056-1.848 0-3.24-.984-3.24-4.056Zm11.453.12c0 3.72 2.064 5.4 4.824 5.4 2.784 0 4.848-1.68 4.848-5.4v-2.088c0-3.744-2.064-5.4-4.848-5.4-2.76 0-4.824 1.632-4.824 5.376v2.112Zm1.584-.12v-1.848c0-3.096 1.44-4.056 3.24-4.056 1.872 0 3.264.96 3.264 4.056v1.848c0 3.072-1.44 4.056-3.264 4.056-1.848 0-3.24-.984-3.24-4.056ZM277.101 164h1.584v-5.064l2.232-.84 3.048 5.904h1.68l-3.336-6.408c1.248-.456 1.632-1.416 1.968-2.64l.888-3.216h-1.584l-.816 3.024c-.24.888-.576 1.32-1.368 1.608l-2.712.984v-10.92h-1.584V164Zm12.329-14.592c.6 0 1.128-.504 1.128-1.104 0-.6-.528-1.08-1.128-1.08-.624 0-1.128.48-1.128 1.08 0 .6.504 1.104 1.128 1.104ZM288.638 164h1.584v-12.264h-1.584V164Zm5.432-4.68c0 3.288 2.016 4.992 4.8 4.992 1.224 0 2.4-.192 3.6-.576l-.312-1.44c-1.104.312-2.16.552-3.288.552-1.944 0-3.216-1.08-3.216-3.528v-1.008h7.56v-2.448c0-2.64-2.04-4.44-4.584-4.44-2.496 0-4.56 1.704-4.56 4.896v3Zm1.584-2.4v-.6c0-2.352 1.248-3.432 2.976-3.432 1.752 0 3 1.2 3 2.976v1.056h-5.976Zm10.412 6.816a10.01 10.01 0 0 0 3.432.576c2.904 0 4.2-1.8 4.2-3.504 0-4.392-5.76-3.192-5.76-6.072 0-1.08.744-1.848 2.256-1.848.936 0 1.776.192 2.688.48l.408-1.416c-1.032-.336-2.04-.528-3.096-.528-2.448 0-3.888 1.416-3.888 3.312 0 4.224 5.76 2.952 5.76 6.12 0 1.152-1.008 1.992-2.568 1.992-1.056 0-2.088-.264-3.144-.552l-.288 1.44Z"/>
    <path fill="#000" fill-opacity=".38" d="M349 300c-5.52 0-10 4.48-10 10s4.48 10 10 10 10-4.48 10-10-4.48-10-10-10Zm0 18c-4.42 0-8-3.58-8-8s3.58-8 8-8 8 3.58 8 8-3.58 8-8 8Zm-171-18c-5.52 0-10 4.48-10 10s4.48 10 10 10 10-4.48 10-10-4.48-10-10-10Zm0 18c-4.42 0-8-3.58-8-8s3.58-8 8-8 8 3.58 8 8-3.58 8-8 8Z"/>
  </g>
  <defs>
    <clipPath id="a">
      <path fill="#fff" d="M0 0h541v357H0z"/>
    </clipPath>
    <clipPath id="c">
      <rect width="780" height="400" x="62" y="60" fill="#fff" rx="16"/>
    </clipPath>
    <filter id="b" width="940" height="580" x="-18" y="60" color-interpolation-filters="sRGB" filterUnits="userSpaceOnUse">
      <feFlood flood-opacity="0" result="BackgroundImageFix"/>
      <feColorMatrix in="SourceAlpha" result="hardAlpha" values="0 0 0 0 0 0 0 0 0 0 0 0 0 0 0 0 0 0 127 0"/>
      <feOffset dy="2.767"/>
      <feGaussianBlur stdDeviation="1.107"/>
      <feColorMatrix values="0 0 0 0 0 0 0 0 0 0 0 0 0 0 0 0 0 0 0.0196802 0"/>
      <feBlend in2="BackgroundImageFix" result="effect1_dropShadow_329_106112"/>
      <feColorMatrix in="SourceAlpha" result="hardAlpha" values="0 0 0 0 0 0 0 0 0 0 0 0 0 0 0 0 0 0 127 0"/>
      <feOffset dy="6.65"/>
      <feGaussianBlur stdDeviation="2.66"/>
      <feColorMatrix values="0 0 0 0 0 0 0 0 0 0 0 0 0 0 0 0 0 0 0.0282725 0"/>
      <feBlend in2="effect1_dropShadow_329_106112" result="effect2_dropShadow_329_106112"/>
      <feColorMatrix in="SourceAlpha" result="hardAlpha" values="0 0 0 0 0 0 0 0 0 0 0 0 0 0 0 0 0 0 127 0"/>
      <feOffset dy="12.522"/>
      <feGaussianBlur stdDeviation="5.009"/>
      <feColorMatrix values="0 0 0 0 0 0 0 0 0 0 0 0 0 0 0 0 0 0 0.035 0"/>
      <feBlend in2="effect2_dropShadow_329_106112" result="effect3_dropShadow_329_106112"/>
      <feColorMatrix in="SourceAlpha" result="hardAlpha" values="0 0 0 0 0 0 0 0 0 0 0 0 0 0 0 0 0 0 127 0"/>
      <feOffset dy="22.336"/>
      <feGaussianBlur stdDeviation="8.935"/>
      <feColorMatrix values="0 0 0 0 0 0 0 0 0 0 0 0 0 0 0 0 0 0 0.0417275 0"/>
      <feBlend in2="effect3_dropShadow_329_106112" result="effect4_dropShadow_329_106112"/>
      <feColorMatrix in="SourceAlpha" result="hardAlpha" values="0 0 0 0 0 0 0 0 0 0 0 0 0 0 0 0 0 0 127 0"/>
      <feOffset dy="41.778"/>
      <feGaussianBlur stdDeviation="16.711"/>
      <feColorMatrix values="0 0 0 0 0 0 0 0 0 0 0 0 0 0 0 0 0 0 0.0503198 0"/>
      <feBlend in2="effect4_dropShadow_329_106112" result="effect5_dropShadow_329_106112"/>
      <feColorMatrix in="SourceAlpha" result="hardAlpha" values="0 0 0 0 0 0 0 0 0 0 0 0 0 0 0 0 0 0 127 0"/>
      <feOffset dy="100"/>
      <feGaussianBlur stdDeviation="40"/>
      <feColorMatrix values="0 0 0 0 0 0 0 0 0 0 0 0 0 0 0 0 0 0 0.07 0"/>
      <feBlend in2="effect5_dropShadow_329_106112" result="effect6_dropShadow_329_106112"/>
      <feBlend in="SourceGraphic" in2="effect6_dropShadow_329_106112" result="shape"/>
    </filter>
  </defs>
</svg>
