<svg xmlns="http://www.w3.org/2000/svg" width="541" height="357" fill="none"><g clip-path="url(#a)"><path fill="#E7ECF5" d="M0 0h541v357H0z"/><g filter="url(#b)"><g clip-path="url(#c)"><path fill="#E2E7EE" d="M62 60h780v56H62z"/><path fill="#ED6A5E" fill-rule="evenodd" d="M92 94a6 6 0 1 0 0-12 6 6 0 0 0 0 12Z" clip-rule="evenodd"/><path fill="#F4BF4F" fill-rule="evenodd" d="M112 94a6 6 0 1 0 0-12 6 6 0 0 0 0 12Z" clip-rule="evenodd"/><path fill="#61C554" fill-rule="evenodd" d="M132 94a6 6 0 1 0 0-12 6 6 0 0 0 0 12Z" clip-rule="evenodd"/><path fill="#F6F8FC" d="M62 116h780v344H62z"/></g></g><path fill="#000" fill-opacity=".87" d="M94.16 177h1.632v-6.624h3.576c2.808 0 4.68-2.208 4.68-4.8 0-2.64-1.872-4.8-4.68-4.8H94.16V177Zm1.632-8.136v-6.576h3.576c1.944 0 3 1.368 3 3.288 0 1.896-1.056 3.288-3 3.288h-3.576Zm10.773 4.608c0 2.112 1.896 3.84 4.392 3.84 2.4 0 4.32-1.704 4.32-3.84v-4.536c0-2.88-1.704-4.512-4.368-4.512-1.2 0-2.4.24-3.48.6l.336 1.392c.984-.288 2.136-.528 3.144-.528 1.848 0 2.784 1.104 2.784 3.048v.84h-2.832c-2.568 0-4.296 1.368-4.296 3.696Zm1.632-.048c0-1.296.84-2.256 2.664-2.256h2.832v2.304c0 1.32-1.128 2.376-2.736 2.376-1.656 0-2.76-1.104-2.76-2.424Zm10.237 6.48-.528 1.392c1.104.504 2.904 1.08 4.68 1.08 3.312 0 4.872-1.704 4.872-3.504 0-3.576-6.312-2.736-6.312-4.104 0-.24.168-.456.432-.672.312.048.624.072.96.072 2.448 0 4.176-1.632 4.176-4.104v-1.512c0-1.056-.336-1.968-.912-2.664l1.824-.12.096-1.272-3.48.24a4.786 4.786 0 0 0-1.704-.312c-2.448 0-4.224 1.656-4.224 4.128v1.512c0 1.632.768 2.88 1.992 3.552-.432.336-.744.816-.744 1.32 0 2.952 6.264 1.536 6.264 4.032 0 1.008-.96 1.944-3.24 1.944-1.44 0-2.76-.432-4.152-1.008Zm4.104-7.2c-1.848 0-2.664-1.104-2.664-2.64v-1.512c0-1.512.816-2.664 2.664-2.664 1.824 0 2.616 1.104 2.616 2.664v1.512c0 1.536-.792 2.64-2.616 2.64Zm7.578-.384c0 3.288 2.016 4.992 4.8 4.992 1.224 0 2.4-.192 3.6-.576l-.312-1.44c-1.104.312-2.16.552-3.288.552-1.944 0-3.216-1.08-3.216-3.528v-1.008h7.56v-2.448c0-2.64-2.04-4.44-4.584-4.44-2.496 0-4.56 1.704-4.56 4.896v3Zm1.584-2.4v-.6c0-2.352 1.248-3.432 2.976-3.432 1.752 0 3 1.2 3 2.976v1.056H131.7Zm17.397 7.08h1.584v-7.584c0-2.352 1.272-3.528 3-3.528 1.704 0 2.952 1.176 2.952 3.528V177h1.584v-7.704c0-3.168-1.992-4.872-4.536-4.872-2.496 0-4.584 1.704-4.584 4.872V177Zm12.841-5.088c0 3.72 2.064 5.4 4.824 5.4 2.784 0 4.848-1.68 4.848-5.4v-2.088c0-3.744-2.064-5.4-4.848-5.4-2.76 0-4.824 1.632-4.824 5.376v2.112Zm1.584-.12v-1.848c0-3.096 1.44-4.056 3.24-4.056 1.872 0 3.264.96 3.264 4.056v1.848c0 3.072-1.44 4.056-3.264 4.056-1.848 0-3.24-.984-3.24-4.056ZM175.334 177h1.584v-7.584c0-2.352 1.272-3.528 3-3.528 1.704 0 2.952 1.176 2.952 3.528V177h1.584v-7.704c0-3.168-1.992-4.872-4.536-4.872-2.496 0-4.584 1.704-4.584 4.872V177Zm19.921 0h1.584v-11.016h2.616v-1.248h-2.616v-4.056l-1.584.456v3.6h-2.112l.528 1.248h1.584V177Zm6.792 0h1.584v-8.088c0-1.824 1.224-3.024 2.952-3.024.36 0 .96.096 1.104.12l.288-1.44c-.288-.048-.96-.144-1.416-.144-2.52 0-4.512 1.752-4.512 4.488V177Zm8.2-5.088c0 3.72 2.064 5.4 4.824 5.4 2.784 0 4.848-1.68 4.848-5.4v-2.088c0-3.744-2.064-5.4-4.848-5.4-2.76 0-4.824 1.632-4.824 5.376v2.112Zm1.584-.12v-1.848c0-3.096 1.44-4.056 3.24-4.056 1.872 0 3.264.96 3.264 4.056v1.848c0 3.072-1.44 4.056-3.264 4.056-1.848 0-3.24-.984-3.24-4.056Zm11.813.648c0 3.168 2.016 4.872 4.56 4.872 2.496 0 4.56-1.704 4.56-4.872v-7.704h-1.584v7.584c0 2.352-1.272 3.528-2.976 3.528-1.728 0-2.976-1.176-2.976-3.528v-7.584h-1.584v7.704Zm16.201 4.56h1.848l4.2-12.264h-1.632l-2.904 8.616c-.192.552-.408 1.344-.6 2.088-.192-.72-.384-1.536-.576-2.088l-2.904-8.616h-1.632l4.2 12.264Zm15.279-15.792-.624-1.488-4.464 1.944.456 1.2 4.632-1.656Zm-7.056 11.112c0 3.288 2.016 4.992 4.8 4.992 1.224 0 2.4-.192 3.6-.576l-.312-1.44c-1.104.312-2.16.552-3.288.552-1.944 0-3.216-1.08-3.216-3.528v-1.008h7.56v-2.448c0-2.64-2.04-4.44-4.584-4.44-2.496 0-4.56 1.704-4.56 4.896v3Zm1.584-2.4v-.6c0-2.352 1.248-3.432 2.976-3.432 1.752 0 3 1.2 3 2.976v1.056h-5.976Zm10.797 2.4c0 3.288 2.016 4.992 4.8 4.992 1.224 0 2.4-.192 3.6-.576l-.312-1.44c-1.104.312-2.16.552-3.288.552-1.944 0-3.216-1.08-3.216-3.528v-1.008h7.56v-2.448c0-2.64-2.04-4.44-4.584-4.44-2.496 0-4.56 1.704-4.56 4.896v3Zm1.584-2.4v-.6c0-2.352 1.248-3.432 2.976-3.432 1.752 0 3 1.2 3 2.976v1.056h-5.976Z"/><path fill="#000" fill-opacity=".6" d="M98.084 217.216c-.984 0-1.866-.24-2.646-.72-.768-.492-1.38-1.194-1.836-2.106-.444-.912-.666-2.01-.666-3.294 0-1.272.228-2.364.684-3.276.456-.912 1.08-1.614 1.872-2.106.792-.492 1.686-.738 2.682-.738.72 0 1.356.15 1.908.45.552.288.996.624 1.332 1.008l-.81.972a3.843 3.843 0 0 0-1.062-.81 2.905 2.905 0 0 0-1.35-.306c-.744 0-1.398.198-1.962.594-.552.384-.984.93-1.296 1.638-.3.708-.45 1.554-.45 2.538 0 .984.15 1.842.45 2.574.3.72.72 1.278 1.26 1.674.552.396 1.2.594 1.944.594.564 0 1.068-.12 1.512-.36.444-.24.852-.564 1.224-.972l.828.936c-.468.54-.996.96-1.584 1.26-.588.3-1.266.45-2.034.45Zm9.311 0c-.78 0-1.488-.18-2.124-.54a4.008 4.008 0 0 1-1.512-1.584c-.372-.684-.558-1.5-.558-2.448 0-.96.186-1.782.558-2.466.384-.684.876-1.212 1.476-1.584.6-.372 1.23-.558 1.89-.558 1.116 0 1.974.372 2.574 1.116.612.744.918 1.74.918 2.988a6.1 6.1 0 0 1-.018.468c0 .144-.012.27-.036.378h-5.904c.06.924.348 1.662.864 2.214.528.552 1.212.828 2.052.828.42 0 .804-.06 1.152-.18.36-.132.702-.3 1.026-.504l.522.972c-.372.24-.798.45-1.278.63-.468.18-1.002.27-1.602.27Zm-2.754-5.292h4.68c0-.888-.192-1.56-.576-2.016-.372-.468-.9-.702-1.584-.702-.612 0-1.164.24-1.656.72-.48.468-.768 1.134-.864 1.998Zm10.806 5.292c-.936 0-1.59-.27-1.962-.81-.36-.54-.54-1.242-.54-2.106v-4.842h-1.296v-1.116l1.368-.09.18-2.448h1.242v2.448h2.358v1.206h-2.358v4.86c0 .54.096.96.288 1.26.204.288.558.432 1.062.432.156 0 .324-.024.504-.072l.486-.162.288 1.116c-.24.084-.504.156-.792.216a3.269 3.269 0 0 1-.828.108Zm5.821 0c-.936 0-1.59-.27-1.962-.81-.36-.54-.54-1.242-.54-2.106v-4.842h-1.296v-1.116l1.368-.09.18-2.448h1.242v2.448h2.358v1.206h-2.358v4.86c0 .54.096.96.288 1.26.204.288.558.432 1.062.432.156 0 .324-.024.504-.072l.486-.162.288 1.116c-.24.084-.504.156-.792.216a3.269 3.269 0 0 1-.828.108Zm6.718 0c-.78 0-1.488-.18-2.124-.54a4.008 4.008 0 0 1-1.512-1.584c-.372-.684-.558-1.5-.558-2.448 0-.96.186-1.782.558-2.466.384-.684.876-1.212 1.476-1.584.6-.372 1.23-.558 1.89-.558 1.116 0 1.974.372 2.574 1.116.612.744.918 1.74.918 2.988a6.1 6.1 0 0 1-.018.468c0 .144-.012.27-.036.378h-5.904c.06.924.348 1.662.864 2.214.528.552 1.212.828 2.052.828.42 0 .804-.06 1.152-.18.36-.132.702-.3 1.026-.504l.522.972c-.372.24-.798.45-1.278.63-.468.18-1.002.27-1.602.27Zm-2.754-5.292h4.68c0-.888-.192-1.56-.576-2.016-.372-.468-.9-.702-1.584-.702-.612 0-1.164.24-1.656.72-.48.468-.768 1.134-.864 1.998Zm11.921 8.766v-12.438h1.224l.126 1.008h.054a6.772 6.772 0 0 1 1.296-.864c.48-.24.978-.36 1.494-.36 1.128 0 1.986.408 2.574 1.224.588.804.882 1.884.882 3.24 0 .984-.18 1.83-.54 2.538-.348.708-.81 1.248-1.386 1.62a3.299 3.299 0 0 1-1.854.558 3.01 3.01 0 0 1-1.224-.27 6.276 6.276 0 0 1-1.206-.738l.036 1.53v2.952h-1.476Zm3.618-4.716c.72 0 1.314-.306 1.782-.918.48-.624.72-1.476.72-2.556 0-.96-.18-1.734-.54-2.322-.348-.6-.936-.9-1.764-.9-.372 0-.75.102-1.134.306a6.753 6.753 0 0 0-1.206.882v4.59c.396.336.78.576 1.152.72.372.132.702.198.99.198Zm8.226 1.242c-.732 0-1.344-.216-1.836-.648-.48-.444-.72-1.056-.72-1.836 0-.96.426-1.692 1.278-2.196.864-.516 2.226-.876 4.086-1.08a3.45 3.45 0 0 0-.162-1.062 1.523 1.523 0 0 0-.54-.81c-.252-.216-.618-.324-1.098-.324-.504 0-.978.096-1.422.288-.444.192-.84.408-1.188.648l-.576-1.026a9.08 9.08 0 0 1 1.494-.756 4.969 4.969 0 0 1 1.944-.378c1.068 0 1.842.33 2.322.99.48.648.72 1.518.72 2.61V217h-1.224l-.126-1.044h-.054c-.408.336-.858.63-1.35.882a3.28 3.28 0 0 1-1.548.378Zm.432-1.188c.42 0 .816-.102 1.188-.306a6.67 6.67 0 0 0 1.188-.864v-2.43c-1.452.18-2.472.45-3.06.81-.576.36-.864.822-.864 1.386 0 .492.15.852.45 1.08.3.216.666.324 1.098.324Zm9.664 5.004c-1.068 0-1.938-.204-2.61-.612-.672-.408-1.008-.99-1.008-1.746 0-.372.114-.732.342-1.08.228-.336.54-.636.936-.9v-.072a1.768 1.768 0 0 1-.558-.558 1.649 1.649 0 0 1-.216-.864c0-.372.102-.696.306-.972a2.76 2.76 0 0 1 .648-.648v-.072c-.288-.24-.552-.564-.792-.972a2.792 2.792 0 0 1-.342-1.386c0-.636.15-1.188.45-1.656.3-.468.702-.828 1.206-1.08a3.611 3.611 0 0 1 2.322-.306c.216.036.402.084.558.144h3.042v1.134h-1.8c.204.192.372.45.504.774.144.312.216.654.216 1.026 0 .624-.144 1.164-.432 1.62-.288.456-.672.81-1.152 1.062-.48.24-1.02.36-1.62.36-.468 0-.906-.102-1.314-.306a2.013 2.013 0 0 0-.396.45 1.02 1.02 0 0 0-.162.594c0 .276.108.504.324.684.228.18.636.27 1.224.27h1.692c1.02 0 1.782.168 2.286.504.516.324.774.852.774 1.584 0 .54-.18 1.038-.54 1.494-.36.456-.87.822-1.53 1.098-.66.288-1.446.432-2.358.432Zm0-7.794a1.74 1.74 0 0 0 1.296-.558c.372-.384.558-.894.558-1.53s-.18-1.134-.54-1.494c-.36-.36-.798-.54-1.314-.54s-.954.18-1.314.54c-.36.36-.54.858-.54 1.494s.18 1.146.54 1.53c.372.372.81.558 1.314.558Zm.216 6.768c.84 0 1.512-.186 2.016-.558.504-.36.756-.768.756-1.224 0-.408-.156-.69-.468-.846-.3-.156-.732-.234-1.296-.234h-1.512a4.81 4.81 0 0 1-1.134-.144c-.312.228-.54.468-.684.72a1.512 1.512 0 0 0-.216.756c0 .468.222.84.666 1.116.456.276 1.08.414 1.872.414Zm9.293-2.79c-.78 0-1.488-.18-2.124-.54a4.008 4.008 0 0 1-1.512-1.584c-.372-.684-.558-1.5-.558-2.448 0-.96.186-1.782.558-2.466.384-.684.876-1.212 1.476-1.584.6-.372 1.23-.558 1.89-.558 1.116 0 1.974.372 2.574 1.116.612.744.918 1.74.918 2.988a6.1 6.1 0 0 1-.018.468c0 .144-.012.27-.036.378h-5.904c.06.924.348 1.662.864 2.214.528.552 1.212.828 2.052.828.42 0 .804-.06 1.152-.18.36-.132.702-.3 1.026-.504l.522.972c-.372.24-.798.45-1.278.63-.468.18-1.002.27-1.602.27Zm-2.754-5.292h4.68c0-.888-.192-1.56-.576-2.016-.372-.468-.9-.702-1.584-.702-.612 0-1.164.24-1.656.72-.48.468-.768 1.134-.864 1.998ZM177.769 217v-8.748h1.224l.126 1.26h.054c.42-.42.864-.768 1.332-1.044a2.994 2.994 0 0 1 1.602-.432c.924 0 1.596.294 2.016.882.432.576.648 1.422.648 2.538V217h-1.476v-5.346c0-.816-.132-1.41-.396-1.782-.264-.372-.684-.558-1.26-.558-.444 0-.846.114-1.206.342-.348.228-.744.564-1.188 1.008V217h-1.476Zm9.654-7.758-.414-.684c.456-.3.792-.618 1.008-.954.228-.348.342-.78.342-1.296a.468.468 0 0 1-.144.018c-.252 0-.474-.078-.666-.234-.192-.156-.288-.378-.288-.666 0-.312.09-.558.27-.738.18-.18.408-.27.684-.27.348 0 .624.144.828.432.204.276.306.678.306 1.206 0 .72-.168 1.344-.504 1.872-.324.516-.798.954-1.422 1.314Zm7.009 7.974c-.78 0-1.488-.18-2.124-.54a4.008 4.008 0 0 1-1.512-1.584c-.372-.684-.558-1.5-.558-2.448 0-.96.186-1.782.558-2.466.384-.684.876-1.212 1.476-1.584.6-.372 1.23-.558 1.89-.558 1.116 0 1.974.372 2.574 1.116.612.744.918 1.74.918 2.988a6.1 6.1 0 0 1-.018.468c0 .144-.012.27-.036.378h-5.904c.06.924.348 1.662.864 2.214.528.552 1.212.828 2.052.828.42 0 .804-.06 1.152-.18.36-.132.702-.3 1.026-.504l.522.972c-.372.24-.798.45-1.278.63-.468.18-1.002.27-1.602.27Zm-2.754-5.292h4.68c0-.888-.192-1.56-.576-2.016-.372-.468-.9-.702-1.584-.702-.612 0-1.164.24-1.656.72-.48.468-.768 1.134-.864 1.998Zm6.881 5.076 2.862-4.572-2.646-4.176h1.602l1.17 1.926.414.72c.144.252.294.498.45.738h.072c.132-.24.264-.486.396-.738s.264-.492.396-.72l1.062-1.926h1.548l-2.646 4.338 2.844 4.41h-1.602l-1.278-2.034-.468-.792a16.832 16.832 0 0 0-.486-.774h-.072c-.156.252-.306.51-.45.774-.144.252-.288.516-.432.792L200.107 217h-1.548Zm9.347 0v-8.748h1.476V217h-1.476Zm.756-10.548c-.288 0-.528-.084-.72-.252-.18-.18-.27-.42-.27-.72 0-.288.09-.522.27-.702.192-.18.432-.27.72-.27s.522.09.702.27c.192.18.288.414.288.702 0 .3-.096.54-.288.72-.18.168-.414.252-.702.252Zm6.05 10.764a4.71 4.71 0 0 1-1.782-.342 6.289 6.289 0 0 1-1.476-.864l.738-.99c.384.3.78.552 1.188.756.408.192.87.288 1.386.288.576 0 1.008-.132 1.296-.396.288-.276.432-.6.432-.972 0-.3-.102-.552-.306-.756a2.194 2.194 0 0 0-.756-.504c-.3-.144-.612-.276-.936-.396-.408-.156-.81-.33-1.206-.522a2.985 2.985 0 0 1-.972-.774c-.252-.324-.378-.732-.378-1.224 0-.708.264-1.296.792-1.764.54-.48 1.284-.72 2.232-.72.54 0 1.044.096 1.512.288.468.192.87.426 1.206.702l-.72.936a4.702 4.702 0 0 0-.936-.558 2.585 2.585 0 0 0-1.062-.216c-.552 0-.96.126-1.224.378a1.209 1.209 0 0 0-.378.882c0 .276.09.504.27.684.18.168.414.318.702.45.288.12.594.246.918.378.42.156.834.336 1.242.54.408.192.744.456 1.008.792.276.324.414.762.414 1.314 0 .468-.126.9-.378 1.296-.24.396-.6.714-1.08.954-.468.24-1.05.36-1.746.36Zm7.747 0c-.936 0-1.59-.27-1.962-.81-.36-.54-.54-1.242-.54-2.106v-4.842h-1.296v-1.116l1.368-.09.18-2.448h1.242v2.448h2.358v1.206h-2.358v4.86c0 .54.096.96.288 1.26.204.288.558.432 1.062.432.156 0 .324-.024.504-.072l.486-.162.288 1.116c-.24.084-.504.156-.792.216a3.269 3.269 0 0 1-.828.108Zm6.718 0c-.78 0-1.488-.18-2.124-.54a4.008 4.008 0 0 1-1.512-1.584c-.372-.684-.558-1.5-.558-2.448 0-.96.186-1.782.558-2.466.384-.684.876-1.212 1.476-1.584.6-.372 1.23-.558 1.89-.558 1.116 0 1.974.372 2.574 1.116.612.744.918 1.74.918 2.988a6.1 6.1 0 0 1-.018.468c0 .144-.012.27-.036.378h-5.904c.06.924.348 1.662.864 2.214.528.552 1.212.828 2.052.828.42 0 .804-.06 1.152-.18.36-.132.702-.3 1.026-.504l.522.972c-.372.24-.798.45-1.278.63-.468.18-1.002.27-1.602.27Zm-2.754-5.292h4.68c0-.888-.192-1.56-.576-2.016-.372-.468-.9-.702-1.584-.702-.612 0-1.164.24-1.656.72-.48.468-.768 1.134-.864 1.998Zm11.921 8.766v-12.438h1.224l.126 1.008h.054a6.772 6.772 0 0 1 1.296-.864c.48-.24.978-.36 1.494-.36 1.128 0 1.986.408 2.574 1.224.588.804.882 1.884.882 3.24 0 .984-.18 1.83-.54 2.538-.348.708-.81 1.248-1.386 1.62a3.299 3.299 0 0 1-1.854.558 3.01 3.01 0 0 1-1.224-.27 6.276 6.276 0 0 1-1.206-.738l.036 1.53v2.952h-1.476Zm3.618-4.716c.72 0 1.314-.306 1.782-.918.48-.624.72-1.476.72-2.556 0-.96-.18-1.734-.54-2.322-.348-.6-.936-.9-1.764-.9-.372 0-.75.102-1.134.306a6.753 6.753 0 0 0-1.206.882v4.59c.396.336.78.576 1.152.72.372.132.702.198.99.198Zm8.227 1.242c-.732 0-1.344-.216-1.836-.648-.48-.444-.72-1.056-.72-1.836 0-.96.426-1.692 1.278-2.196.864-.516 2.226-.876 4.086-1.08a3.45 3.45 0 0 0-.162-1.062 1.523 1.523 0 0 0-.54-.81c-.252-.216-.618-.324-1.098-.324-.504 0-.978.096-1.422.288-.444.192-.84.408-1.188.648l-.576-1.026a9.08 9.08 0 0 1 1.494-.756 4.969 4.969 0 0 1 1.944-.378c1.068 0 1.842.33 2.322.99.48.648.72 1.518.72 2.61V217h-1.224l-.126-1.044h-.054c-.408.336-.858.63-1.35.882a3.28 3.28 0 0 1-1.548.378Zm.432-1.188c.42 0 .816-.102 1.188-.306a6.67 6.67 0 0 0 1.188-.864v-2.43c-1.452.18-2.472.45-3.06.81-.576.36-.864.822-.864 1.386 0 .492.15.852.45 1.08.3.216.666.324 1.098.324Zm8.998 1.188a4.71 4.71 0 0 1-1.782-.342 6.289 6.289 0 0 1-1.476-.864l.738-.99c.384.3.78.552 1.188.756.408.192.87.288 1.386.288.576 0 1.008-.132 1.296-.396.288-.276.432-.6.432-.972 0-.3-.102-.552-.306-.756a2.194 2.194 0 0 0-.756-.504c-.3-.144-.612-.276-.936-.396-.408-.156-.81-.33-1.206-.522a2.985 2.985 0 0 1-.972-.774c-.252-.324-.378-.732-.378-1.224 0-.708.264-1.296.792-1.764.54-.48 1.284-.72 2.232-.72.54 0 1.044.096 1.512.288.468.192.87.426 1.206.702l-.72.936a4.702 4.702 0 0 0-.936-.558 2.585 2.585 0 0 0-1.062-.216c-.552 0-.96.126-1.224.378a1.209 1.209 0 0 0-.378.882c0 .276.09.504.27.684.18.168.414.318.702.45.288.12.594.246.918.378.42.156.834.336 1.242.54.408.192.744.456 1.008.792.276.324.414.762.414 1.314 0 .468-.126.9-.378 1.296-.24.396-.6.714-1.08.954-.468.24-1.05.36-1.746.36Zm12.44 0c-.708 0-1.374-.18-1.998-.54-.612-.36-1.11-.882-1.494-1.566-.372-.684-.558-1.506-.558-2.466 0-.984.186-1.818.558-2.502.384-.684.882-1.206 1.494-1.566.624-.36 1.29-.54 1.998-.54.72 0 1.386.18 1.998.54.612.36 1.104.882 1.476 1.566.384.684.576 1.518.576 2.502 0 .96-.192 1.782-.576 2.466-.372.684-.864 1.206-1.476 1.566a3.87 3.87 0 0 1-1.998.54Zm0-1.224c.756 0 1.362-.306 1.818-.918.468-.624.702-1.434.702-2.43 0-1.008-.234-1.824-.702-2.448-.456-.624-1.062-.936-1.818-.936-.744 0-1.35.312-1.818.936-.468.624-.702 1.44-.702 2.448 0 .996.234 1.806.702 2.43.468.612 1.074.918 1.818.918Zm9 1.224c-.924 0-1.602-.288-2.034-.864-.432-.588-.648-1.44-.648-2.556v-5.544h1.494v5.346c0 .816.126 1.41.378 1.782.264.372.684.558 1.26.558a2.15 2.15 0 0 0 1.206-.342c.36-.24.744-.618 1.152-1.134v-6.21h1.476V217h-1.224l-.126-1.368h-.054c-.408.48-.84.864-1.296 1.152-.456.288-.984.432-1.584.432Zm13.035 0c-.732 0-1.344-.216-1.836-.648-.48-.444-.72-1.056-.72-1.836 0-.96.426-1.692 1.278-2.196.864-.516 2.226-.876 4.086-1.08a3.45 3.45 0 0 0-.162-1.062 1.523 1.523 0 0 0-.54-.81c-.252-.216-.618-.324-1.098-.324-.504 0-.978.096-1.422.288-.444.192-.84.408-1.188.648l-.576-1.026a9.08 9.08 0 0 1 1.494-.756 4.969 4.969 0 0 1 1.944-.378c1.068 0 1.842.33 2.322.99.48.648.72 1.518.72 2.61V217h-1.224l-.126-1.044h-.054c-.408.336-.858.63-1.35.882a3.28 3.28 0 0 1-1.548.378Zm.432-1.188c.42 0 .816-.102 1.188-.306a6.67 6.67 0 0 0 1.188-.864v-2.43c-1.452.18-2.472.45-3.06.81-.576.36-.864.822-.864 1.386 0 .492.15.852.45 1.08.3.216.666.324 1.098.324ZM97.022 240.216c-.78 0-1.488-.18-2.124-.54a4.008 4.008 0 0 1-1.512-1.584c-.372-.684-.558-1.5-.558-2.448 0-.96.186-1.782.558-2.466.384-.684.876-1.212 1.476-1.584.6-.372 1.23-.558 1.89-.558 1.116 0 1.974.372 2.574 1.116.612.744.918 1.74.918 2.988a6.1 6.1 0 0 1-.018.468c0 .144-.012.27-.036.378h-5.904c.06.924.348 1.662.864 2.214.528.552 1.212.828 2.052.828.42 0 .804-.06 1.152-.18.36-.132.702-.3 1.026-.504l.522.972c-.372.24-.798.45-1.278.63-.468.18-1.002.27-1.602.27Zm-2.754-5.292h4.68c0-.888-.192-1.56-.576-2.016-.372-.468-.9-.702-1.584-.702-.612 0-1.164.24-1.656.72-.48.468-.768 1.134-.864 1.998Zm2.232-5.238-.756-.738 2.538-3.006 1.044.99-2.826 2.754Zm8.574 10.53c-.936 0-1.59-.27-1.962-.81-.36-.54-.54-1.242-.54-2.106v-4.842h-1.296v-1.116l1.368-.09.18-2.448h1.242v2.448h2.358v1.206h-2.358v4.86c0 .54.096.96.288 1.26.204.288.558.432 1.062.432.156 0 .324-.024.504-.072l.486-.162.288 1.116c-.24.084-.504.156-.792.216a3.269 3.269 0 0 1-.828.108Zm6.718 0c-.78 0-1.488-.18-2.124-.54a4.008 4.008 0 0 1-1.512-1.584c-.372-.684-.558-1.5-.558-2.448 0-.96.186-1.782.558-2.466.384-.684.876-1.212 1.476-1.584.6-.372 1.23-.558 1.89-.558 1.116 0 1.974.372 2.574 1.116.612.744.918 1.74.918 2.988a6.1 6.1 0 0 1-.018.468c0 .144-.012.27-.036.378h-5.904c.06.924.348 1.662.864 2.214.528.552 1.212.828 2.052.828.42 0 .804-.06 1.152-.18.36-.132.702-.3 1.026-.504l.522.972c-.372.24-.798.45-1.278.63-.468.18-1.002.27-1.602.27Zm-2.754-5.292h4.68c0-.888-.192-1.56-.576-2.016-.372-.468-.9-.702-1.584-.702-.612 0-1.164.24-1.656.72-.48.468-.768 1.134-.864 1.998Zm2.232-5.238-.756-.738 2.538-3.006 1.044.99-2.826 2.754Zm12.677 10.53c-1.092 0-1.968-.396-2.628-1.188-.66-.804-.99-1.932-.99-3.384 0-.948.174-1.764.522-2.448.36-.696.828-1.23 1.404-1.602a3.443 3.443 0 0 1 1.872-.558c.504 0 .942.09 1.314.27.372.18.75.426 1.134.738l-.072-1.494v-3.366h1.494V240h-1.224l-.126-1.026h-.054c-.336.336-.732.63-1.188.882-.456.24-.942.36-1.458.36Zm.324-1.242c.768 0 1.512-.402 2.232-1.206v-4.572c-.372-.336-.732-.57-1.08-.702a2.624 2.624 0 0 0-1.044-.216 2.08 2.08 0 0 0-1.278.432c-.372.276-.672.666-.9 1.17-.228.492-.342 1.074-.342 1.746 0 1.044.21 1.866.63 2.466.42.588 1.014.882 1.782.882Zm10.308 1.242c-.78 0-1.488-.18-2.124-.54a4.008 4.008 0 0 1-1.512-1.584c-.372-.684-.558-1.5-.558-2.448 0-.96.186-1.782.558-2.466.384-.684.876-1.212 1.476-1.584.6-.372 1.23-.558 1.89-.558 1.116 0 1.974.372 2.574 1.116.612.744.918 1.74.918 2.988a6.1 6.1 0 0 1-.018.468c0 .144-.012.27-.036.378h-5.904c.06.924.348 1.662.864 2.214.528.552 1.212.828 2.052.828.42 0 .804-.06 1.152-.18.36-.132.702-.3 1.026-.504l.522.972c-.372.24-.798.45-1.278.63-.468.18-1.002.27-1.602.27Zm-2.754-5.292h4.68c0-.888-.192-1.56-.576-2.016-.372-.468-.9-.702-1.584-.702-.612 0-1.164.24-1.656.72-.48.468-.768 1.134-.864 1.998Zm2.232-5.238-.756-.738 2.538-3.006 1.044.99-2.826 2.754Zm5.996 14.004v-12.438h1.224l.126 1.008h.054a6.772 6.772 0 0 1 1.296-.864c.48-.24.978-.36 1.494-.36 1.128 0 1.986.408 2.574 1.224.588.804.882 1.884.882 3.24 0 .984-.18 1.83-.54 2.538-.348.708-.81 1.248-1.386 1.62a3.299 3.299 0 0 1-1.854.558 3.01 3.01 0 0 1-1.224-.27 6.276 6.276 0 0 1-1.206-.738l.036 1.53v2.952h-1.476Zm3.618-4.716c.72 0 1.314-.306 1.782-.918.48-.624.72-1.476.72-2.556 0-.96-.18-1.734-.54-2.322-.348-.6-.936-.9-1.764-.9-.372 0-.75.102-1.134.306a6.753 6.753 0 0 0-1.206.882v4.59c.396.336.78.576 1.152.72.372.132.702.198.99.198Zm8.022 1.242c-.552 0-.954-.168-1.206-.504-.24-.348-.36-.84-.36-1.476v-11.052h1.476v11.16c0 .228.042.396.126.504.084.096.18.144.288.144h.126c.048-.012.114-.024.198-.036l.198 1.116c-.096.048-.21.084-.342.108-.132.024-.3.036-.504.036Zm5.128 0c-.732 0-1.344-.216-1.836-.648-.48-.444-.72-1.056-.72-1.836 0-.96.426-1.692 1.278-2.196.864-.516 2.226-.876 4.086-1.08a3.45 3.45 0 0 0-.162-1.062 1.523 1.523 0 0 0-.54-.81c-.252-.216-.618-.324-1.098-.324-.504 0-.978.096-1.422.288-.444.192-.84.408-1.188.648l-.576-1.026a9.08 9.08 0 0 1 1.494-.756 4.969 4.969 0 0 1 1.944-.378c1.068 0 1.842.33 2.322.99.48.648.72 1.518.72 2.61V240h-1.224l-.126-1.044h-.054c-.408.336-.858.63-1.35.882a3.28 3.28 0 0 1-1.548.378Zm.432-1.188c.42 0 .816-.102 1.188-.306a6.67 6.67 0 0 0 1.188-.864v-2.43c-1.452.18-2.472.45-3.06.81-.576.36-.864.822-.864 1.386 0 .492.15.852.45 1.08.3.216.666.324 1.098.324Zm10.169 1.188c-.768 0-1.464-.18-2.088-.54-.624-.36-1.116-.882-1.476-1.566-.36-.684-.54-1.506-.54-2.466 0-.984.192-1.818.576-2.502.396-.684.912-1.206 1.548-1.566a4.231 4.231 0 0 1 2.088-.54c.576 0 1.068.102 1.476.306.42.204.78.444 1.08.72l-.756.972a3.615 3.615 0 0 0-.81-.558 1.993 1.993 0 0 0-.936-.216c-.528 0-1.002.144-1.422.432-.408.276-.732.672-.972 1.188-.228.504-.342 1.092-.342 1.764 0 .996.246 1.806.738 2.43.504.612 1.158.918 1.962.918.408 0 .786-.084 1.134-.252.348-.18.654-.39.918-.63l.648.99a4.857 4.857 0 0 1-1.314.828c-.48.192-.984.288-1.512.288Zm8.002 0c-.78 0-1.488-.18-2.124-.54a4.008 4.008 0 0 1-1.512-1.584c-.372-.684-.558-1.5-.558-2.448 0-.96.186-1.782.558-2.466.384-.684.876-1.212 1.476-1.584.6-.372 1.23-.558 1.89-.558 1.116 0 1.974.372 2.574 1.116.612.744.918 1.74.918 2.988a6.1 6.1 0 0 1-.018.468c0 .144-.012.27-.036.378h-5.904c.06.924.348 1.662.864 2.214.528.552 1.212.828 2.052.828.42 0 .804-.06 1.152-.18.36-.132.702-.3 1.026-.504l.522.972c-.372.24-.798.45-1.278.63-.468.18-1.002.27-1.602.27Zm-2.754-5.292h4.68c0-.888-.192-1.56-.576-2.016-.372-.468-.9-.702-1.584-.702-.612 0-1.164.24-1.656.72-.48.468-.768 1.134-.864 1.998Zm2.232-5.238-.756-.738 2.538-3.006 1.044.99-2.826 2.754Zm9.542 10.53c-.78 0-1.488-.18-2.124-.54a4.008 4.008 0 0 1-1.512-1.584c-.372-.684-.558-1.5-.558-2.448 0-.96.186-1.782.558-2.466.384-.684.876-1.212 1.476-1.584.6-.372 1.23-.558 1.89-.558 1.116 0 1.974.372 2.574 1.116.612.744.918 1.74.918 2.988a6.1 6.1 0 0 1-.018.468c0 .144-.012.27-.036.378h-5.904c.06.924.348 1.662.864 2.214.528.552 1.212.828 2.052.828.42 0 .804-.06 1.152-.18.36-.132.702-.3 1.026-.504l.522.972c-.372.24-.798.45-1.278.63-.468.18-1.002.27-1.602.27Zm-2.754-5.292h4.68c0-.888-.192-1.56-.576-2.016-.372-.468-.9-.702-1.584-.702-.612 0-1.164.24-1.656.72-.48.468-.768 1.134-.864 1.998Zm9.001 5.292c-.3 0-.558-.102-.774-.306a1.134 1.134 0 0 1-.306-.81c0-.348.102-.624.306-.828.216-.216.474-.324.774-.324.288 0 .534.108.738.324.216.204.324.48.324.828 0 .324-.108.594-.324.81-.204.204-.45.306-.738.306Z"/><path fill="#0C419A" d="M92 273h101v31H92z"/><rect width="77" height="17" x="103" y="280" fill="#CED9EB" opacity=".5" rx="8.5"/><path fill="#E7ECF5" fill-rule="evenodd" d="M411.367 155.88c21.282 3.59 30.396 27.119 44.768 43.173 12.946 14.461 33.003 25.259 33.83 44.623.842 19.726-13.512 37.43-29.851 48.59-14.011 9.57-31.908 2.88-48.747 5.094-22.088 2.903-47.351 24.908-63.557 9.67-16.104-15.142 6.368-41.287 6.464-63.354.096-21.858-17.841-44.461-5.913-62.804 12.781-19.655 39.837-28.9 63.006-24.992Z" clip-rule="evenodd"/><path fill="#fff" d="m428.127 268.053-18.443-30.634-5.74-9.533 2.735-4.087s28.015-.678 30.064 0l30.065 47.671-3.417 4.086h-30.748l-4.516-7.503Z"/><path fill="#0C419A" d="m428.127 268.053 4.516 7.503h-.342l-44.64-6.811 40.466-.692Z"/><path fill="#fff" d="m387.662 268.745-.116.002v-31.326h22.138l18.443 30.632-40.465.692Zm-.116-31.323v31.325l-16.4-8.172v-29.962l16.4 6.809Z"/><path fill="#0C419A" d="m395.902 209.654 14.671-4.354 17.445-5.179s2.158 3.764 8.395 2.211c-4.702 1.553-17.249 5.677-22.744 7.322-6.834 2.042-17.767 0-17.767 0Z"/><path fill="#fff" d="M436.42 202.33c-.002.002-.007.002-.009.002-6.237 1.553-8.395-2.211-8.395-2.211l-17.445 5.179c1.357-1.163 6.601-5.977 7.196-11.307.683-6.128 2.734-12.94 8.2-15.664 4.949-2.466 23.783-12.874 27.306-14.824-1.011.712-2.033 1.984-2.911 4.156-.427 1.06-.823 2.331-1.162 3.859-2.734 12.258-2.051 26.559-10.252 29.964-.906.377-1.75.654-2.528.846Z"/><path fill="#0C419A" d="M453.273 163.505c2.447-1.728 4.81-.157 4.81-.157l-7.632 4.349-.089-.036c.878-2.175 1.9-3.446 2.911-4.156Z"/><path stroke="#0C419A" stroke-linecap="round" stroke-linejoin="round" stroke-miterlimit="10" stroke-width="2" d="m436.42 202.33 1.816-.6m-1.823.602c-6.237 1.553-8.395-2.211-8.395-2.211l-17.445 5.179-14.671 4.354s10.933 2.045 17.767 0c5.493-1.643 18.04-5.769 22.744-7.322Zm.001 0 .01-.002m14.026-34.633 7.633-4.349s-2.363-1.571-4.81.157c-1.011.712-2.033 1.984-2.911 4.156-.427 1.06-.823 2.331-1.162 3.859-2.734 12.258-2.051 26.559-10.252 29.964-.909.379-1.75.654-2.528.846"/><path stroke="#0C419A" stroke-linecap="round" stroke-linejoin="round" stroke-miterlimit="10" stroke-width="2" d="M410.252 205.568s.118-.092.319-.268c1.357-1.163 6.601-5.977 7.196-11.307.683-6.128 2.734-12.94 8.2-15.664 4.949-2.466 23.783-12.874 27.306-14.824l.57-.315m-29.242 19.905 17.081-8.853m-18.447 14.984L441 180.371m-46.622 50.242h-23.232l16.4 6.809h22.206m18.4 30.631h-.025l-40.465.692-.116.002v-31.325"/><path stroke="#0C419A" stroke-linecap="round" stroke-linejoin="round" stroke-miterlimit="10" stroke-width="2" d="m387.546 268.747-16.4-8.172v-29.962m35.53-6.811 29.382 47.668h22.552"/><path stroke="#0C419A" stroke-linecap="round" stroke-linejoin="round" stroke-miterlimit="10" stroke-width="2" d="m387.553 268.729.108.016 44.641 6.811h31.089l3.417-4.086-30.067-47.668c-2.049-.679-30.065 0-30.065 0l-2.734 4.086 5.74 9.534 18.443 30.634 4.516 7.502"/><path stroke="#0C419A" stroke-linecap="round" stroke-linejoin="round" stroke-width="2" d="M1-1h5.037" transform="rotate(81.493 74.466 323.52) skewX(.047)"/><path stroke="#0C419A" stroke-linecap="round" stroke-linejoin="round" stroke-width="2" d="M1-1h5.879" transform="rotate(48.656 -38.429 518.365) skewX(.16)"/><path stroke="#0C419A" stroke-linecap="round" stroke-linejoin="round" stroke-width="2" d="M1-1h3.434" transform="rotate(26.63 -259.626 895.95) skewX(.129)"/></g><defs><clipPath id="a"><path fill="#fff" d="M0 0h541v357H0z"/></clipPath><clipPath id="c"><rect width="780" height="400" x="62" y="60" fill="#fff" rx="16"/></clipPath><filter id="b" width="940" height="580" x="-18" y="60" color-interpolation-filters="sRGB" filterUnits="userSpaceOnUse"><feFlood flood-opacity="0" result="BackgroundImageFix"/><feColorMatrix in="SourceAlpha" result="hardAlpha" values="0 0 0 0 0 0 0 0 0 0 0 0 0 0 0 0 0 0 127 0"/><feOffset dy="2.767"/><feGaussianBlur stdDeviation="1.107"/><feColorMatrix values="0 0 0 0 0 0 0 0 0 0 0 0 0 0 0 0 0 0 0.0196802 0"/><feBlend in2="BackgroundImageFix" result="effect1_dropShadow_332_106191"/><feColorMatrix in="SourceAlpha" result="hardAlpha" values="0 0 0 0 0 0 0 0 0 0 0 0 0 0 0 0 0 0 127 0"/><feOffset dy="6.65"/><feGaussianBlur stdDeviation="2.66"/><feColorMatrix values="0 0 0 0 0 0 0 0 0 0 0 0 0 0 0 0 0 0 0.0282725 0"/><feBlend in2="effect1_dropShadow_332_106191" result="effect2_dropShadow_332_106191"/><feColorMatrix in="SourceAlpha" result="hardAlpha" values="0 0 0 0 0 0 0 0 0 0 0 0 0 0 0 0 0 0 127 0"/><feOffset dy="12.522"/><feGaussianBlur stdDeviation="5.009"/><feColorMatrix values="0 0 0 0 0 0 0 0 0 0 0 0 0 0 0 0 0 0 0.035 0"/><feBlend in2="effect2_dropShadow_332_106191" result="effect3_dropShadow_332_106191"/><feColorMatrix in="SourceAlpha" result="hardAlpha" values="0 0 0 0 0 0 0 0 0 0 0 0 0 0 0 0 0 0 127 0"/><feOffset dy="22.336"/><feGaussianBlur stdDeviation="8.935"/><feColorMatrix values="0 0 0 0 0 0 0 0 0 0 0 0 0 0 0 0 0 0 0.0417275 0"/><feBlend in2="effect3_dropShadow_332_106191" result="effect4_dropShadow_332_106191"/><feColorMatrix in="SourceAlpha" result="hardAlpha" values="0 0 0 0 0 0 0 0 0 0 0 0 0 0 0 0 0 0 127 0"/><feOffset dy="41.778"/><feGaussianBlur stdDeviation="16.711"/><feColorMatrix values="0 0 0 0 0 0 0 0 0 0 0 0 0 0 0 0 0 0 0.0503198 0"/><feBlend in2="effect4_dropShadow_332_106191" result="effect5_dropShadow_332_106191"/><feColorMatrix in="SourceAlpha" result="hardAlpha" values="0 0 0 0 0 0 0 0 0 0 0 0 0 0 0 0 0 0 127 0"/><feOffset dy="100"/><feGaussianBlur stdDeviation="40"/><feColorMatrix values="0 0 0 0 0 0 0 0 0 0 0 0 0 0 0 0 0 0 0.07 0"/><feBlend in2="effect5_dropShadow_332_106191" result="effect6_dropShadow_332_106191"/><feBlend in="SourceGraphic" in2="effect6_dropShadow_332_106191" result="shape"/></filter></defs></svg>