<svg xmlns="http://www.w3.org/2000/svg" width="115" height="52" viewBox="0 0 138.9 63.49"><path fill="#1d508e" d="M77 10.13c0 .77.66 1.08 1.38 1.08.51 0 1.17-.2 1.17-.82 0-.53-.75-.71-2.04-.98-1.03-.23-2.07-.58-2.07-1.7 0-1.64 1.44-2.06 2.85-2.06 1.43 0 2.74.47 2.89 2.04h-1.72c-.05-.68-.58-.86-1.23-.86-.4 0-1 .07-1 .59 0 .63 1.02.72 2.05.95 1.04.23 2.07.6 2.07 1.79 0 1.68-1.5 2.22-2.99 2.22-1.51 0-3-.55-3.07-2.24h1.7M87.1 9.09c-.3.25-.93.27-1.49.37-.55.1-1.06.29-1.06.93 0 .66.52.82 1.1.82 1.4 0 1.46-1.09 1.46-1.47v-.65m-4.16-1.3c.1-1.64 1.61-2.14 3.08-2.14 1.3 0 2.88.29 2.88 1.82v3.32c0 .58.06 1.16.22 1.42h-1.82c-.06-.2-.11-.4-.13-.62-.56.58-1.4.8-2.2.8-1.24 0-2.23-.61-2.23-1.92 0-1.45 1.12-1.8 2.23-1.94 1.1-.16 2.13-.12 2.13-.84 0-.75-.53-.87-1.16-.87-.69 0-1.13.28-1.2.97zM90.93 5.83h1.71v.88h.04a2.36 2.36 0 012-1.06c1.91 0 2.4 1.05 2.4 2.63v3.93h-1.8V8.6c0-1.05-.32-1.57-1.16-1.57-.97 0-1.39.53-1.39 1.82v3.35h-1.8V5.83M101.35 5.83h1.31V7h-1.31v3.16c0 .6.15.74.76.74.2 0 .37-.01.56-.05v1.37c-.3.05-.7.06-1.05.06-1.1 0-2.07-.25-2.07-1.52V7h-1.09V5.83h1.1V3.9h1.79v1.92M107.41 5.04h-1.25l1.21-1.76h2l-1.96 1.76m1.15 3.3c-.16-.9-.55-1.36-1.42-1.36a1.4 1.4 0 00-1.5 1.35zm-2.92 1.1c.05 1.12.6 1.62 1.6 1.62.73 0 1.31-.43 1.43-.83h1.58c-.5 1.5-1.58 2.15-3.06 2.15-2.07 0-3.35-1.38-3.35-3.36a3.24 3.24 0 013.35-3.37c2.22 0 3.3 1.83 3.17 3.8zM76 22.68h-1.08v-1.17h1.07v-.5c0-1.11.72-1.93 2.2-1.93.31 0 .64.04.94.05v1.3a6.08 6.08 0 00-.66-.03c-.48 0-.68.2-.68.73v.39h1.24v1.17h-1.24v5.2h-1.8v-5.2M84.53 24.77c-.3.26-.94.27-1.5.37-.56.11-1.06.3-1.06.94 0 .66.52.82 1.1.82 1.4 0 1.46-1.1 1.46-1.47v-.66m-4.16-1.3c.1-1.64 1.61-2.13 3.08-2.13 1.3 0 2.87.28 2.87 1.82v3.32c0 .58.07 1.16.23 1.41h-1.82c-.07-.2-.11-.4-.13-.61-.57.58-1.4.79-2.2.79-1.24 0-2.23-.6-2.23-1.91 0-1.45 1.11-1.8 2.23-1.94 1.1-.16 2.13-.13 2.13-.84 0-.75-.54-.87-1.17-.87-.68 0-1.13.28-1.19.97h-1.8zM88.4 21.52h1.7v.86h.02a2.39 2.39 0 012-1.04c.82 0 1.56.3 1.91 1.06a2.4 2.4 0 011.98-1.06c1.39 0 2.39.63 2.39 2.28v4.27h-1.8v-3.61c0-.85-.07-1.56-1.1-1.56-1.01 0-1.2.82-1.2 1.62v3.55h-1.8v-3.58c0-.74.05-1.59-1.09-1.59-.35 0-1.21.22-1.21 1.47v3.7h-1.8v-6.38M100.5 21.52h1.8v6.37h-1.8v-6.38m1.8-.98h-1.8v-1.45h1.8zM104.4 19.08h1.8v8.81h-1.8zM108.3 19.08h1.8v8.81h-1.8zM116.55 24.02c-.16-.89-.55-1.36-1.43-1.36a1.4 1.4 0 00-1.49 1.36h2.92m-2.92 1.11c.05 1.1.6 1.62 1.6 1.62.73 0 1.3-.43 1.42-.83h1.59c-.51 1.5-1.58 2.15-3.07 2.15-2.06 0-3.34-1.38-3.34-3.36a3.24 3.24 0 013.34-3.37c2.23 0 3.3 1.83 3.18 3.79zM75.6 37.2h1.7v1.19h.03a2.32 2.32 0 012.1-1.36c.12 0 .27.02.39.06v1.63a3.33 3.33 0 00-.65-.06c-1.32 0-1.77.92-1.77 2.05v2.87h-1.8V37.2M85.34 39.7c-.17-.88-.56-1.35-1.43-1.35a1.4 1.4 0 00-1.5 1.36h2.93m-2.93 1.1c.05 1.12.6 1.62 1.61 1.62.72 0 1.3-.43 1.42-.82h1.58c-.5 1.5-1.58 2.14-3.06 2.14-2.07 0-3.34-1.38-3.34-3.35a3.24 3.24 0 013.34-3.37c2.23 0 3.3 1.82 3.17 3.79zM91.1 37.2h1.33v1.17H91.1v3.16c0 .6.15.74.76.74.2 0 .37-.01.56-.05v1.37c-.3.05-.7.07-1.05.07-1.1 0-2.07-.25-2.07-1.52v-3.77h-1.09V37.2h1.1v-1.92h1.79v1.92M93.92 37.2h1.71v1.19h.02a2.33 2.33 0 012.1-1.36c.12 0 .27.02.39.06v1.63a3.3 3.3 0 00-.65-.06c-1.31 0-1.77.92-1.77 2.05v2.87h-1.8V37.2M103.55 40.46c-.3.26-.93.27-1.5.37-.55.11-1.05.3-1.05.94 0 .65.52.81 1.1.81 1.4 0 1.46-1.08 1.46-1.47v-.65m-4.16-1.3c.1-1.64 1.6-2.13 3.08-2.13 1.3 0 2.87.28 2.87 1.81v3.32c0 .58.06 1.16.23 1.42h-1.83a2.6 2.6 0 01-.12-.61c-.57.57-1.4.78-2.2.78-1.24 0-2.23-.6-2.23-1.9 0-1.45 1.11-1.8 2.23-1.95 1.1-.16 2.12-.12 2.12-.83 0-.76-.53-.87-1.16-.87-.69 0-1.13.27-1.19.96zM107.43 37.2h1.8v6.38h-1.8V37.2m1.8-.99h-1.8v-1.44h1.8zM113.55 37.2h1.32v1.17h-1.32v3.16c0 .6.16.74.77.74.18 0 .36-.01.55-.05v1.37c-.3.05-.7.07-1.05.07-1.1 0-2.06-.25-2.06-1.52v-3.77h-1.09V37.2h1.09v-1.92h1.8v1.92M120.77 39.7c-.16-.88-.56-1.35-1.43-1.35a1.4 1.4 0 00-1.5 1.36h2.93m-2.92 1.1c.05 1.12.6 1.62 1.6 1.62.72 0 1.3-.43 1.42-.82h1.58c-.5 1.5-1.58 2.14-3.06 2.14-2.06 0-3.34-1.38-3.34-3.35a3.24 3.24 0 013.34-3.37c2.23 0 3.3 1.82 3.18 3.79zM77 57.2c0 .76.66 1.07 1.38 1.07.51 0 1.17-.2 1.17-.82 0-.53-.75-.71-2.04-.98-1.03-.23-2.07-.58-2.07-1.7 0-1.64 1.44-2.06 2.85-2.06 1.43 0 2.74.47 2.89 2.04h-1.72c-.05-.68-.58-.86-1.23-.86-.4 0-1 .07-1 .59 0 .63 1.02.71 2.04.95 1.05.23 2.08.6 2.08 1.8 0 1.67-1.5 2.21-2.99 2.21-1.52 0-3-.55-3.08-2.24H77M87.44 55.4c-.17-.9-.56-1.37-1.43-1.37a1.4 1.4 0 00-1.5 1.36h2.93M84.5 56.5c.05 1.11.61 1.62 1.61 1.62.73 0 1.3-.43 1.42-.83h1.58c-.5 1.51-1.58 2.15-3.06 2.15-2.07 0-3.34-1.38-3.34-3.36a3.24 3.24 0 013.34-3.37c2.22 0 3.3 1.83 3.17 3.8zM90.93 52.89h1.71v1.18h.03a2.31 2.31 0 012.08-1.36c.13 0 .28.03.4.07v1.63a3.37 3.37 0 00-.65-.07c-1.32 0-1.77.93-1.77 2.05v2.88h-1.8V52.9M100.1 59.27h-2l-2.24-6.39h1.9l1.37 4.36h.03l1.37-4.36h1.8l-2.23 6.4M103.75 52.89h1.8v6.38h-1.8V52.9m1.8-.99h-1.8v-1.44h1.8zM112.06 55.13c-.11-.71-.58-1.1-1.33-1.1-1.15 0-1.53 1.14-1.53 2.08 0 .91.36 2.01 1.49 2.01.84 0 1.32-.52 1.43-1.3h1.73c-.22 1.7-1.42 2.62-3.15 2.62-1.97 0-3.3-1.35-3.3-3.27 0-1.99 1.22-3.46 3.34-3.46 1.54 0 2.96.8 3.08 2.42h-1.76M119.9 55.4c-.16-.9-.55-1.37-1.42-1.37a1.4 1.4 0 00-1.5 1.36h2.93m-2.93 1.11c.05 1.11.6 1.62 1.6 1.62.73 0 1.31-.43 1.43-.83h1.58c-.5 1.51-1.58 2.15-3.06 2.15-2.07 0-3.35-1.38-3.35-3.36a3.24 3.24 0 013.35-3.37c2.22 0 3.3 1.83 3.17 3.8zM124.8 57.2c0 .76.67 1.07 1.37 1.07.52 0 1.18-.2 1.18-.82 0-.53-.75-.71-2.03-.98-1.05-.23-2.08-.58-2.08-1.7 0-1.64 1.44-2.06 2.84-2.06 1.44 0 2.75.47 2.9 2.04h-1.72c-.05-.68-.58-.86-1.23-.86-.4 0-1 .07-1 .59 0 .63 1.02.71 2.04.95 1.05.23 2.08.6 2.08 1.8 0 1.67-1.5 2.21-2.99 2.21-1.52 0-3-.55-3.07-2.24h1.7"/><path fill="#fbbf27" d="M73.78 0h65.11v.75H73.8zM73.78 15.68h65.11v.75H73.8zM73.78 31.37h65.11v.75H73.8zM73.78 47.06h65.11v.75H73.8zM73.78 62.74h65.11v.74H73.8z"/><path fill="#1d508e" d="M0 0h65.11v63.5H.01z"/><path fill="#fff" d="M54.26 47.91v5.02H40.7a2.68 2.68 0 01-2.71-2.65c0-1.46 1.22-2.57 2.7-2.57l11.65.01c.7 0 1.3-.09 1.93-.25v.44m5.41 5.02V40.45c0-4-3.22-7.27-7.34-7.27H35.32l.02-13.27c0-5.11 4.11-9.26 9.35-9.26 5.25 0 9.58 4.22 9.58 9.26v13.2h5.4l.02-13.13c0-8.03-6.67-14.6-14.9-14.6-5.28 0-9.3 2.14-12.21 6.18a15 15 0 00-12.2-6.18c-3.6 0-7 1.28-9.58 3.35l.02-3.34H5.4V33.1h5.42l-.02-13.38a9.32 9.32 0 019.5-9.08 9.37 9.37 0 019.5 9.26l.02 13.27H12.88a7.36 7.36 0 00-7.45 7.27 7.36 7.36 0 007.45 7.27l11.71-.01c1.5 0 2.63 1.22 2.63 2.68 0 1.46-1.16 2.53-2.66 2.53H5.4v5.31h19.46c4.57 0 7.72-3.63 7.72-8.02a7.9 7.9 0 00-8.07-7.81H12.94c-1.13 0-2.13-.88-2.13-1.98s1-1.98 2.13-1.98h39.31c1.12 0 2.03.89 2.03 1.98 0 1.1-.9 1.98-2.03 1.98h-11.6a7.9 7.9 0 00-8.07 7.81c0 4.39 3.6 8.02 8.07 8.03h24.23c-5.38 0-5.2-5.31-5.2-5.31z"/></svg>
