<svg xmlns="http://www.w3.org/2000/svg" version="1.0" viewBox="0 0 935 935"><path d="M282.1 85.6a38.7 38.7 0 00-15.5 11.1c-10.2 12.1-11.4 35-2.5 47.2 3.2 4.4 11.6 8.9 21.3 11.5 3.3.8 7.4 2.5 9 3.8 2.9 2.1 3.9 2.2 17.1 1.9 10.6-.2 14.6-.6 16.4-1.8l2.4-1.6-.6 12.9c-1.1 21.4-4.1 29.3-10.6 27.7-1.4-.3-7.1-2.3-12.7-4.4-24.1-9.1-47.9-9.2-58.4-.2-7.2 6.2-7.3 6.4-8.6 39.3a220 220 0 01-2.9 36.5 115 115 0 01-34.8 54.2c-3.3 2.6-3.4 4.6-.5 7.3 2.6 2.4 6.5 2.6 11.3.6 3.4-1.4 3.5-1.4 7 2.1 3.2 3.2 3.9 3.5 7.6 2.9 2.3-.4 5.8-1.5 7.9-2.6 5.3-2.7 17.3-12.6 24.4-19.9l5.8-6.2-.6-5.7-1.2-9.8c-.9-6.5 3.2-13.6 18.6-31.5 4.4-5.2 9.2-11.8 10.6-14.6 1.5-2.9 2.9-5.1 3.3-4.9l7.4 5a78 78 0 0047.1 15.4c6.9-.3 10.2-1 13.6-2.7a48.8 48.8 0 0017.5-14.4c5.2-9 8.6-28.4 11-63.7 1.4-21.9 1.9-25 5-31.1 2.4-4.8 4.4-6.8 8.8-9.1 8.1-4.1 19.5-3.4 46.7 2.9 18.1 4.1 23.9 6.1 45.4 15.5 13.6 5.9 17 7.8 22.8 13 6.5 5.7 7 6 9.3 4.8 2-1.1 3.4-1.1 7.9 0 6.8 1.6 9 .5 12.7-6.4l2.4-4.7-2.5-1.9a84.3 84.3 0 00-23.5-10.5 106 106 0 01-22-9.9c-22.9-13-31.8-17-62.5-28-33.6-12-48.6-15.1-68.3-14.3a65.5 65.5 0 00-31.1 7.2l-6.9 3.5-3.4-2.1A77 77 0 01323 100c-3.9-4.3-8.9-9-11-10.5a39 39 0 00-29.9-3.9zM111 134v7h136v-2.4c0-1.3-.3-4.4-.6-7l-.7-4.6H111v7zM513 128.1c7 4.5 13.4 8.2 17.9 10.4l5.4 2.5 101.6-.2 101.6-.3v-13l-114-.2c-74.2-.1-113.5.2-112.5.8zM726.2 157.1c-9.2 1.5-15.7 6-18.2 12.4-.7 1.6-1.6 6.2-2 10.1-.6 5.7-1.4 8-4.3 12.5-2.1 2.9-3.7 6-3.7 6.7 0 .8 1.2 2.8 2.6 4.5 2.5 3 2.6 3.5 2 10.9-.8 9.4 0 11.3 5.5 13l4.1 1.2-2.3 1.9c-3.6 2.9-15.5 8.7-23.3 11.3a162.8 162.8 0 01-79.6 3.3 120 120 0 01-34.5-12.3l-10-5.1h-11.2c-6.1 0-11.5.4-11.9.8-1.6 1.6 1.5 4.3 9.4 8.3 4.5 2.2 8.4 4.3 8.8 4.7.4.3-.5 1.1-1.9 1.6-6.1 2.3-.5 5.5 16.3 9.2a64.8 64.8 0 0115.2 5.1c17.6 10.2 46.3 18.2 90.8 25.4 36.6 5.8 45.5 12 51.3 35.4 5.2 20.5 4.5 38.4-3.3 84.5-6.1 36.6-7 44.6-7 64.7a318 318 0 005.7 57.8c1.4 8 2.8 17.5 3 21.1.5 6.4.4 6.7-2.3 8.6A166 166 0 01710 563c-13.6 6.7-16 8.4-16 11.1 0 4.2 5.3 4.7 34 3.5 15.1-.6 21-1.2 22.7-2.3 3.6-2.4 5.1-8.7 5.8-23.3.9-20.6 2.4-37.1 4.6-51.9 2-13.2 11.3-52.9 12.7-54.3.4-.4 3.4 14 6.6 32 6.1 34.3 15.2 82.1 16.2 84.6.7 1.9-2.6 5.1-12.6 12.1-9.2 6.5-13 10-13 11.9 0 2.4 6.4 5.6 12.6 6.2a60.7 60.7 0 0038.3-13.4l4.4-3.8 1.3-15.9c1.5-18.9 3.9-57.3 5.5-87.5a2092 2092 0 001.4-65c.2-47.9-.1-45.4 7-58.9 4.3-8.1 11-16.5 28.6-35.5 13.3-14.6 23.9-28.3 26.5-34.5.8-1.8 1.4-5.3 1.4-7.6 0-5.6-2.8-8.9-12.9-15.8-4.2-2.8-11.9-8.2-17.1-12.1a396.3 396.3 0 00-42.2-27.7 73.3 73.3 0 00-35.6-9.6c-17.3-.5-19.6-2.5-17.3-14.9 1.9-10.3 1.5-13.9-2.5-20.2-5.3-8.4-8.2-11.1-13.8-12.7a98 98 0 00-30.4-.4zm120.5 113.4c8.2 3.1 15.5 6 16.3 6.5 1.2.7.7 2-3 7.2a319.5 319.5 0 00-21.7 33.3c-4.8 9.3-4.5 9.8-6.3-10.5-2.3-26.8-2.5-42-.5-42l15.2 5.5z"/><path d="M436.3 269c-1.8.4-6.1 2.6-9.5 4.8a30 30 0 01-11.3 4.8c-11.8 1.6-15.6 4.9-19.9 16.9a51.5 51.5 0 01-13.2 21.5 37 37 0 00-6.3 8.3c-1.6 4-1.3 10.5.5 16.7 1.2 4 1.3 5.9.5 7.7-2.7 5.9-.1 17.5 5.2 23.1 3.2 3.5 9.1 6.2 13.3 6.2 2.4 0 4.6.8 6.6 2.6 1.7 1.4 4.4 2.8 5.9 3.1 1.6.3 2.9.8 2.9 1.2 0 .3-4.2 2.7-9.3 5.3-8 4.2-11.1 6.6-23.7 18.8a467.1 467.1 0 01-69 57 620.7 620.7 0 01-60.5 35.6l-15 7.5-14.1 1.8c-7.8 1-14.7 2.1-15.3 2.5-2 1.3-1.1 3.6 2.4 5.8 5.4 3.5 4.7 4.3-5.5 6.8-8.2 2.1-8.7 3.7-2.3 8.1 4.1 2.9 5.8 3.4 11.9 3.7 11.2.6 19.3-2.3 31-11 2.8-2.1 10.7-6 17.5-8.7A870.4 870.4 0 00395 450.3c15.8-10 19.1-10.9 23.4-6.7 3.9 4 5.8 8 10.1 21.7 4.6 14.6 4.5 18.1-1.2 26.4l-8.6 12.6a67.5 67.5 0 00-9.1 53.5l1.7 5.2-4.7 6.9a162 162 0 01-32.5 33.4 1420 1420 0 00-50.6 44.7 61 61 0 01-22.5 13.9c-2 .6-9.8 2.4-17.4 4.1-7.7 1.6-16.8 4.3-20.3 5.9a236.3 236.3 0 00-37.7 25.8c-24.4 19.8-30.6 24-44.2 30a73.8 73.8 0 01-13.1 4.3c-3.4.7-7.5 2-9.1 3a13.6 13.6 0 00-5.8 13.2 160 160 0 0020.3 44.6c4.4 5.3 7.3 6.9 16.2 8.3 9 1.5 14.7.2 15.7-3.7.7-2.9-.4-4.5-6.3-8.5-6.5-4.5-7.7-7.6-7.7-19.9-.1-12.4.7-14.3 8.9-21.8 7.2-6.6 29.2-17.5 47.5-23.6 15.3-5.1 47.7-14.5 71.5-20.7 27.1-7 31.5-8.5 47.5-15.7 60.2-27.1 83.4-42.5 107.8-71.7 4.1-4.9 7.8-9.1 8.2-9.3.3-.1 6.7 2.7 14.1 6.2 16.1 7.7 48.8 21.8 73.4 31.6 23.3 9.2 24.1 10 26.1 23.6 4.1 27.3 8.9 36.1 40.9 74 8.3 9.8 17.2 20.3 19.9 23.3 6.5 7.5 7 9.1 5.6 18.1-1.4 9-.1 14.6 4 16.7 3.9 2 73.6 1.4 76.8-.7 4-2.7 3.9-7-.1-9.2-1.2-.6-5.8-1.9-10.4-2.9a79.1 79.1 0 01-47.5-30.2c-8.3-12.3-23.5-46.7-36.4-82.6-10-27.8-15.9-41.8-19.8-47.7a319.9 319.9 0 00-34.2-37c-29.5-27.3-51.2-43.9-69.7-53.4l-10.8-5.5.6-3.3c2.4-13.2 3.7-27.8 4.2-47.6l.6-22.9 4.3-4.8c2.4-2.7 5.1-6.4 6.1-8.2 2.4-4.6 2.1-12.2-.6-18.2-5.3-11.5-5.4-11.8-3.6-11.1 3.8 1.4 24.8 6.6 34.5 8.5 17.1 3.3 26 4.3 30.9 3.6 12.4-1.8 37.1-14.4 68.4-34.7 8.1-5.3 17.8-10.8 21.6-12.2 8.7-3.4 14.1-8.2 14.1-12.5 0-4.7-1.9-11.3-4-14.1l-1.8-2.4-5.3 1.7c-5 1.5-5.4 1.5-7.2 0-1.6-1.6-2.1-1.6-4.5-.3-2.3 1.3-3.6 3.4-8.5 14-1.7 3.6-6.9 5.8-36.5 16a661 661 0 00-33.4 12.1c-4.9 2.1-7.8 2.9-9.6 2.4-1.5-.4-8.5-3.4-15.7-6.7-48-22.2-61.2-26-77.8-22.3-9.2 2-13.8 1.4-16.7-2.2-4.2-5.3-1.8-11.2 5.9-14.5 7.3-3.1 9.1-5.3 9.1-11.2 0-2.8-.5-6.9-1-9.1-.6-2.7-.6-5 .2-7.1 1-2.9.8-3.6-2.5-8.1A67 67 0 01478 289c0-11.7-14-21.1-30.9-20.9-4.2.1-9.1.5-10.8.9zM111.2 298.7l.3 6.8 42.7.3 42.6.2 3.5-4.2a101 101 0 005.2-7.1l1.7-2.7H110.9l.3 6.7zM281.4 296.6c.3 2.6.6 5.7.6 7.1v2.3l43.7-.2 43.8-.3 3.3-5c1.8-2.8 3.8-5.8 4.3-6.8.9-1.6-1.6-1.7-47.7-1.7h-48.7l.7 4.6z"/><path d="M496.3 294.9a40 40 0 002.4 6.8l1.8 3.8 99.3.3c63.8.1 99.1-.1 98.7-.8-.9-1.5-6.5-2.8-28-6.5a463 463 0 01-25.5-5c-4.6-1.2-16.8-1.5-77.4-1.5h-71.8l.5 2.9zM104.9 324.4c-12.5 3.4-20.7 16.1-19.7 30.7.4 5.7 1.4 8.6 6.1 18.1 6.8 13.7 7.3 15.7 5.3 19.6-3.3 6.3-11.3 11.9-30.9 21.6-21.5 10.5-28.2 15.7-30.5 23.2C31.6 450 37 457.3 58 468.4c14.8 7.9 15.1 8.4 12 21.6a55.6 55.6 0 002.3 36.6c5.6 13.9 5.3 14.6-6.8 15.9-8.6.9-10 1.6-11.5 5.7-1.8 5-2.5 25.6-1.1 31.6 1.5 5.9 3.2 7.8 8.3 8.7 4.6.9 7.3-1.5 8.3-7.3 1-6.2 2.2-6.8 11.3-5 4.8.9 8.8 1.2 10.6.6 4.9-1.3 9.9-7.2 15.1-17.8 2.7-5.5 5.5-10 6.2-10 2 0 3.6 7.8 2.8 13.8-1.1 8.9-3.3 15-11.1 30.9-4.1 8.3-7.4 16.1-7.4 17.1 0 7 20.2 33.2 25.6 33.2 3.1 0 8.7-4.1 9.8-7.3.8-2.3.3-3.9-3.2-10.7a29.7 29.7 0 01-4.2-11.8c0-6.7 5-14.7 17.5-28.2 14.8-16 17.6-21.2 18.3-34.4.5-11-.8-23.6-4.7-43.5-5.1-25.8-4.9-37.4.8-47.6 2.4-4.4 3.8-5.5 11.2-9.3a462 462 0 0159.9-22.6c45.7-14.4 44.3-13.9 48.2-17.4 5.6-5.1 8.9-18.2 5.4-21.1-1.1-1-2.5-.7-6.3 1.3-3.7 1.8-5.9 2.3-8.9 1.9-3.6-.5-4.5-.1-9.4 4.2-7 6-8.9 6.9-18.6 9.4a170 170 0 01-51.4 6.6c-20 0-20.7-.1-28.5-2.8-8-2.9-19.7-10.3-20.9-13.2-.3-1 .4-3 1.8-4.8a66.3 66.3 0 0011.6-39.1c-.1-17.6-4-23.7-18.1-28.5a58.8 58.8 0 00-28-.7z"/><path d="M186.7 462.4c-7.5 2.9-14.3 5.8-14.9 6.4-.9.9 10.3 1.2 49.6 1.2h50.9l5.6-3.2a213 213 0 0010.6-6.5l5-3.3-46.5.1h-46.5l-13.8 5.3zM539.3 459.7a20.8 20.8 0 00-2.7 6.5l-.7 3.8H702v-13H541.4l-2.1 2.7zM146.5 624.2a202 202 0 011.8 6.5l1.2 4.3h164l6.5-5.6 7.4-6.5c.6-.5-36.9-.9-90.3-.9h-91.3l.7 2.2zM645.2 622.8l2.7 6.5 2.5 5.7H739v-13h-47.1c-25.9 0-46.9.4-46.7.8zM111 793v7h47.2l-1.8-2.8c-1-1.5-2.9-4.6-4.2-7l-2.4-4.2H111v7zM221.6 789.7c.7 2.1 1.3 5.3 1.4 7v3.3h424.2l-.7-2.8c-.4-1.5-.7-4.6-.6-7l.2-4.2H220.2l1.4 3.7z"/></svg>
