<svg xmlns="http://www.w3.org/2000/svg" viewBox="0 0 691 316" fill="#0C419A" fill-rule="nonzero"><path d="M349.19 197v-40h10.52v40.41c0 2.31 1.05 3 1.91 3 .44.01.87-.04 1.29-.15l1.25 7.93c-1.68.66-3.48.96-5.28.9-7.22.07-9.69-4.75-9.69-12.09zM281.76 184.2c.93-2.94 10.26-23.6 10.26-23.6h11.05v47.68h-10V178.8l-8.32 21.45h-6.35l-8.32-21.45v29.48h-10V160.6h11s9.33 20.66 10.26 23.6h.42zM368.49 198.21c0-7.64 6.41-11.89 20.46-13.41-.21-3.17-2.22-5.13-6.07-5.13-3 0-6 1.28-9.41 3.27l-3.74-7.06c4.5-3 9.77-4.65 15.18-4.77 9.08 0 14.11 5.3 14.11 16.42v20.75H389v-3.51s-4.13 4.39-9.91 4.39c-6.49 0-10.6-4.83-10.6-10.95zm20.5-.63v-6.34c-7.48 1-10.42 3.37-10.42 6.12 0 2.34 1.57 3.48 4.07 3.48s4.48-1.36 6.36-3.26h-.01zM310.45 198.21c0-7.64 6.42-11.89 20.47-13.41-.21-3.17-2.22-5.13-6.08-5.13-3 0-5.95 1.28-9.4 3.27l-3.74-7.06c4.5-3 9.77-4.65 15.18-4.77 9.08 0 14.11 5.3 14.11 16.42v20.75H331v-3.51s-4.12 4.39-9.91 4.39c-6.53 0-10.64-4.83-10.64-10.95zm20.51-.63v-6.34c-7.49 1-10.43 3.37-10.43 6.12 0 2.34 1.58 3.48 4.08 3.48s4.48-1.36 6.39-3.26h-.04zM428.79 157v17.55a11.28 11.28 0 00-8.71-3.47c-7.48 0-14.73 7.17-14.73 19s5.7 19 14.53 19c4.85 0 8.57-3.61 8.91-3.95v3.07h10.53V157h-10.53zm-6.17 43.33c-4.07 0-6.48-3.21-6.48-10.34 0-6.9 3-10.11 6.4-10.11 2.28.03 4.49.84 6.25 2.29v14.91c-2.12 2.41-3.93 3.28-6.17 3.28v-.03zM447.4 161.06c0-3.3 2.56-5.63 6.09-5.63s6.09 2.33 6.09 5.63-2.56 5.62-6.09 5.62-6.09-2.35-6.09-5.62zm.83 10.93h10.52v36.29h-10.52v-36.29zM465.29 190.15c0-11.78 7.42-19 16.33-19 10.12 0 15.7 7.51 15.7 17.42.01 1.6-.14 3.19-.44 4.75h-21.25c.94 5.26 4.47 7.68 9.21 7.68 2.69 0 5-1.07 7.61-2.61l3.56 6.72c-3.7 2.58-8.1 4-12.61 4.09-10.5-.04-18.11-7.04-18.11-19.05zm23-4c0-4-2.27-6.87-6.47-6.87-3.33 0-5.63 2.28-6.35 6.87h12.82zM260.16 137V97h10.53v40.41c0 2.31 1 3 1.9 3 .44.01.87-.04 1.29-.15l1.25 7.93c-1.68.66-3.48.96-5.28.9-7.22.05-9.69-4.76-9.69-12.09zM316 136.9l2.89 11.36h10.89l-14.66-47.68h-12.05l-14.66 47.68h10.88l2.89-11.36H316zm-11.7-8.37l4.59-18.09h.39l4.6 18.09h-9.58zM331.9 144.07l4.74-6.7c3.22 2.49 6.19 3.81 9.17 3.81 2.98 0 4.48-1.22 4.48-3.12 0-2.39-3.52-3.47-7.17-4.94-4.36-1.72-9.41-4.67-9.41-10.67 0-6.76 5.38-11.36 13.58-11.36a20 20 0 0112.52 4.6l-4.71 6.45c-2.53-1.87-5-3.1-7.48-3.1-2.72 0-4.06 1.09-4.06 2.9 0 2.32 3.33 3.2 7 4.57 4.5 1.7 9.57 4.29 9.57 10.92s-5.07 11.71-14.6 11.71a22.74 22.74 0 01-13.63-5.07zM363.41 144.07l4.74-6.7c3.22 2.49 6.19 3.81 9.17 3.81 2.98 0 4.49-1.22 4.49-3.12 0-2.39-3.53-3.47-7.18-4.94-4.36-1.72-9.4-4.67-9.4-10.67 0-6.76 5.37-11.36 13.57-11.36 4.58.05 9 1.67 12.52 4.6l-4.71 6.45c-2.53-1.87-5-3.1-7.48-3.1-2.72 0-4.06 1.09-4.06 2.9 0 2.32 3.33 3.2 7 4.57 4.5 1.7 9.57 4.29 9.57 10.92s-5.07 11.71-14.59 11.71a22.74 22.74 0 01-13.64-5.07zM437.93 112h10.52v5.17c2-4 6.88-5.43 9.36-5.38 1.45-.05 2.9.2 4.24.74L461 122.3a15.54 15.54 0 00-4.49-1.09 8.54 8.54 0 00-8 8.17v18.88h-10.58V112zM502.68 112h10.53v4.57c3-2.93 6-5.47 10.87-5.47 7.72 0 11 5.57 11 14.64v22.53h-10.51v-21.16c0-5.23-1.37-6.86-4.41-6.86-2.65 0-4.63 1.26-6.95 3.53v24.48h-10.53V112zM571.55 130.13c0-11.78 7.42-19 16.33-19 10.12 0 15.7 7.51 15.7 17.42.01 1.6-.14 3.19-.44 4.75h-21.25c.94 5.27 4.47 7.68 9.21 7.68 2.69 0 5-1.07 7.61-2.61l3.56 6.72c-3.7 2.58-8.1 4-12.61 4.09-10.5-.04-18.11-7.04-18.11-19.05zm23-4c0-4-2.27-6.86-6.47-6.86-3.33 0-5.63 2.27-6.35 6.86h12.82zM464.32 138.2c0-7.65 6.42-11.9 20.47-13.41-.21-3.18-2.22-5.14-6.08-5.14-3 0-5.95 1.28-9.4 3.28l-3.74-7.06c4.5-3 9.77-4.66 15.18-4.78 9.08 0 14.11 5.3 14.11 16.42v20.75h-10v-3.51s-4.12 4.39-9.91 4.39c-6.52 0-10.63-4.83-10.63-10.94zm20.51-.64v-6.34c-7.49 1-10.43 3.37-10.43 6.12 0 2.34 1.58 3.48 4.08 3.48s4.52-1.36 6.35-3.26zM284.55 96.79c-2.19 0-5.16 1.66-5.16 4.75a4.28 4.28 0 004.33 4.33h.31c-.11 3.15-3 5-4.45 5.75l2.77 3.88c9.19-2.94 11.09-18.65 2.2-18.71zM418.73 112v24c-2.05 2.86-3.67 4-6.32 4-3 0-4.41-1.64-4.41-6.86V112h-10.53v22.86c0 8.59 3.68 14.33 11.16 14.32 3.92.05 7.65-1.65 10.18-4.65v3.74h10.45V112h-10.53zM559.5 140.46c-4.58 0-8-4.05-8-10.33s3.25-10.36 8.31-10.36c1.73.07 3.36.78 4.59 2l5-6.92a15.26 15.26 0 00-10.16-3.72c-9.82 0-18.37 7-18.37 19s7.51 19 17.42 19c4.3.05 8.47-1.49 11.71-4.31l-3.85-7.26c-2.08 1.71-4.21 2.9-6.65 2.9zM263.66 225.53h3.73l5.85 17.94h-3.37l-2.74-9.55c-.57-1.9-1.09-3.94-1.62-5.91h-.11c-.49 2-1 4-1.59 5.91l-2.75 9.55h-3.25l5.85-17.94zm-2.4 10.58h8.45v2.5h-8.45v-2.5zM275.13 245.91a3.43 3.43 0 011.94-2.87v-.11a2.56 2.56 0 01-1.22-2.25 3.27 3.27 0 011.5-2.51v-.11a4.5 4.5 0 01-1.78-3.56c0-3.09 2.5-4.84 5.32-4.84a6 6 0 012 .33h4.82v2.35h-2.46c.51.64.78 1.44.77 2.26 0 3-2.28 4.6-5.13 4.6a5 5 0 01-1.82-.36c-.42.3-.67.78-.66 1.29 0 .76.55 1.22 2.18 1.22H283c3.22 0 4.93 1 4.93 3.32 0 2.66-2.78 4.75-7.18 4.75-3.23 0-5.62-1.15-5.62-3.51zm9.74-.72c0-1-.83-1.35-2.37-1.35h-1.85a7.37 7.37 0 01-1.82-.19c-.6.4-.97 1.06-1 1.78 0 1.23 1.31 1.94 3.43 1.94s3.61-1.02 3.61-2.18zm-1.64-10.69a2.36 2.36 0 10-4.68 0 2.37 2.37 0 104.68 0zM290.94 225.84a2 2 0 112 1.79 1.81 1.81 0 01-2-1.79zm.37 4.15h3.16v13.48h-3.16v-13.48zM299.42 230H302l.25 2.4h.08a4.61 4.61 0 013.83-2.73 3.4 3.4 0 011.53.28l-.55 2.74a4.59 4.59 0 00-1.38-.22c-1.08 0-2.37.74-3.19 2.79v8.22h-3.16l.01-13.48zM316.12 236.74c0-4.38 3-7.08 6.21-7.08 3.64 0 5.56 2.64 5.56 6.4 0 .52-.04 1.03-.14 1.54h-8.55a3.83 3.83 0 004 3.75 5.7 5.7 0 003.13-1l1.08 2a8.44 8.44 0 01-4.62 1.46c-3.79-.01-6.67-2.63-6.67-7.07zm9-1.29c0-2.08-.92-3.34-2.77-3.34-1.56 0-2.95 1.17-3.22 3.34h5.99zM331.85 230h2.59l.24 1.82h.09a6.28 6.28 0 014.42-2.15c2.88 0 4.14 2 4.14 5.36v8.45h-3.16v-8.05c0-2.21-.63-3-2.09-3-1.19 0-2 .58-3.07 1.68v9.42h-3.16V230zM346.8 241.92l1.47-2a6 6 0 003.72 1.5c1.47 0 2.16-.69 2.16-1.61 0-1.13-1.46-1.63-2.89-2.18-1.77-.67-3.79-1.68-3.79-3.93s1.89-4 4.9-4c1.63.02 3.21.6 4.48 1.62l-1.45 1.94a5 5 0 00-2.95-1.18c-1.35 0-2 .65-2 1.5 0 1.06 1.37 1.47 2.82 2 1.83.68 3.87 1.56 3.87 4.08 0 2.31-1.84 4.18-5.24 4.18a8.41 8.41 0 01-5.1-1.92zM360 236.74c0-4.38 3-7.08 6.21-7.08 3.64 0 5.56 2.64 5.56 6.4 0 .52-.05 1.03-.14 1.54h-8.55a3.83 3.83 0 004 3.75 5.73 5.73 0 003.13-1l1.07 2a8.39 8.39 0 01-4.62 1.46c-3.74-.01-6.66-2.63-6.66-7.07zm9-1.29c0-2.08-.92-3.34-2.77-3.34-1.57 0-2.95 1.17-3.22 3.34H369zM375.73 230h2.59l.24 1.84h.09a5.81 5.81 0 014.14-2.17 3.64 3.64 0 013.72 2.42c1.29-1.37 2.62-2.42 4.33-2.42 2.84 0 4.16 2 4.16 5.36v8.45h-3.16v-8.05c0-2.21-.66-3-2.07-3a4.15 4.15 0 00-2.82 1.68v9.42h-3.16v-8.05c0-2.21-.66-3-2.08-3a4.23 4.23 0 00-2.82 1.68v9.42h-3.16V230zM402.64 242.05h-.08l-.28 1.42h-2.49v-19.38H403v5l-.09 2.24c1.06-1 2.43-1.6 3.89-1.68 3.37 0 5.32 2.7 5.32 6.84 0 4.63-2.76 7.3-5.75 7.3a5.42 5.42 0 01-3.73-1.74zm6.18-5.5c0-2.68-.88-4.28-2.93-4.28-1.15.09-2.2.64-2.94 1.52v6.27c.73.7 1.7 1.09 2.7 1.12 1.8 0 3.17-1.58 3.17-4.63zM416 240v-15.91h3.16v16.07c0 .78.35 1.06.68 1.06.17 0 .34-.02.5-.06l.39 2.36c-.53.2-1.1.3-1.67.28-2.24 0-3.06-1.45-3.06-3.8zM423.48 236.74c0-4.38 3-7.08 6.21-7.08 3.64 0 5.56 2.64 5.56 6.4 0 .52-.04 1.03-.14 1.54h-8.55a3.84 3.84 0 004 3.75 5.7 5.7 0 003.13-1l1.08 2a8.44 8.44 0 01-4.62 1.46c-3.75-.01-6.67-2.63-6.67-7.07zm9-1.29c0-2.08-.92-3.34-2.77-3.34-1.56 0-2.95 1.17-3.22 3.34h5.99zM441.08 239.52a2 2 0 00-2.1 1.94 1.91 1.91 0 002 1.94h.24c0 1.44-1 2.66-2.78 3.35l.69 1.74a5.87 5.87 0 004.27-5.71c.04-2.05-.81-3.26-2.32-3.26zM454.38 230H457l.24 1.44h.09a6.52 6.52 0 014.06-1.77c3.37 0 5.3 2.7 5.3 6.86 0 4.61-2.75 7.28-5.75 7.28a5.34 5.34 0 01-3.46-1.49l.09 2.24v4.25h-3.16l-.03-18.81zm9 6.56c0-2.68-.87-4.28-2.93-4.28-1.14.1-2.2.64-2.94 1.52v6.27c.74.69 1.7 1.08 2.7 1.12 1.79-.01 3.2-1.59 3.2-4.64l-.03.01zM470.67 230h2.59l.25 2.4h.08a4.61 4.61 0 013.83-2.73 3.4 3.4 0 011.53.28l-.55 2.74a4.59 4.59 0 00-1.38-.22c-1.08 0-2.37.74-3.19 2.79v8.22h-3.16V230zM480.17 236.74c0-4.49 3.05-7.08 6.4-7.08 3.35 0 6.41 2.59 6.41 7.08s-3.05 7.06-6.41 7.06c-3.36 0-6.4-2.59-6.4-7.06zm9.56 0c0-2.7-1.18-4.5-3.16-4.5-1.98 0-3.16 1.8-3.16 4.5s1.19 4.48 3.16 4.48c1.97 0 3.16-1.78 3.16-4.48zM497 238.92v-6.42h-1.92v-2.37l2.08-.14.38-3.67h2.62V230h3.43v2.51h-3.43v6.42c0 1.58.61 2.36 1.91 2.36.48-.02.95-.12 1.4-.3l.54 2.32c-.89.31-1.82.48-2.76.5-3.07-.01-4.25-1.98-4.25-4.89zM506.06 236.74c0-4.38 3-7.08 6.21-7.08 3.65 0 5.57 2.64 5.57 6.4 0 .52-.05 1.03-.14 1.54h-8.55a3.83 3.83 0 004 3.75 5.73 5.73 0 003.13-1l1.07 2a8.41 8.41 0 01-4.62 1.46c-3.73-.01-6.67-2.63-6.67-7.07zm9-1.29c0-2.08-.92-3.34-2.76-3.34-1.57 0-3 1.17-3.23 3.34h5.99zm-4.45-9.25l4.05-4.79 2.17 2.1-4.64 4.24-1.58-1.55zM520.71 245.91a3.43 3.43 0 011.94-2.87v-.11a2.56 2.56 0 01-1.22-2.25 3.28 3.28 0 011.49-2.51v-.11a4.5 4.5 0 01-1.77-3.56c0-3.09 2.5-4.84 5.32-4.84a6 6 0 012 .33h4.81v2.35h-2.46c.51.64.78 1.44.77 2.26 0 3-2.27 4.6-5.12 4.6a5 5 0 01-1.82-.36c-.42.3-.67.78-.66 1.29 0 .76.55 1.22 2.18 1.22h2.4c3.22 0 4.93 1 4.93 3.32 0 2.66-2.78 4.75-7.18 4.75-3.22 0-5.61-1.15-5.61-3.51zm9.74-.72c0-1-.83-1.35-2.37-1.35h-1.85a7.31 7.31 0 01-1.82-.19c-.6.4-.97 1.06-1 1.78 0 1.23 1.32 1.94 3.44 1.94s3.6-1.02 3.6-2.18zm-1.64-10.69a2.36 2.36 0 10-4.68 0 2.37 2.37 0 104.68 0zM535.39 236.74c0-4.38 3-7.08 6.21-7.08 3.64 0 5.56 2.64 5.56 6.4 0 .52-.05 1.03-.14 1.54h-8.55a3.83 3.83 0 004 3.75 5.73 5.73 0 003.13-1l1.07 2c-1.38.94-3 1.44-4.67 1.45-3.7 0-6.61-2.62-6.61-7.06zm9-1.29c0-2.08-.92-3.34-2.77-3.34-1.57 0-2.95 1.17-3.22 3.34h5.99zM551.11 230h2.59l.25 2.4h.05a4.61 4.61 0 013.83-2.73 3.4 3.4 0 011.53.28l-.55 2.74a4.59 4.59 0 00-1.38-.22c-1.08 0-2.37.74-3.19 2.79v8.22h-3.16l.03-13.48zM567.81 236.74a6.66 6.66 0 016.76-7.08 5.76 5.76 0 013.94 1.52l-1.54 2a3.27 3.27 0 00-2.24-1c-2.17 0-3.67 1.8-3.67 4.5s1.48 4.48 3.57 4.48a4.42 4.42 0 002.79-1.17l1.28 2.09a6.64 6.64 0 01-4.4 1.66c-3.67.06-6.49-2.53-6.49-7zM582.19 224.09h3.16v5l-.13 2.6a6.24 6.24 0 014.31-2c2.88 0 4.15 2 4.15 5.36v8.45h-3.16v-8.05c0-2.21-.64-3-2.1-3-1.18 0-2 .58-3.07 1.68v9.42h-3.16v-19.46zM597.48 239.85c0-2.89 2.39-4.39 7.92-5 0-1.44-.63-2.65-2.45-2.65a7.35 7.35 0 00-3.78 1.33l-1.17-2.1a10.52 10.52 0 015.53-1.77c3.37 0 5 2.08 5 5.83v8H606l-.24-1.5h-.09a6.49 6.49 0 01-4.18 1.83 3.78 3.78 0 01-4.01-3.97zm7.92 0v-3c-3.66.46-4.87 1.41-4.87 2.77 0 1.19.81 1.72 1.94 1.72a4.26 4.26 0 002.93-1.48v-.01zM612.28 236.74a6.66 6.66 0 016.76-7.08 5.74 5.74 0 013.94 1.52l-1.53 2c-.6-.6-1.4-.97-2.24-1-2.17 0-3.68 1.8-3.68 4.5s1.48 4.48 3.58 4.48a4.44 4.44 0 002.79-1.17l1.28 2.09a6.64 6.64 0 01-4.4 1.66c-3.68.06-6.5-2.53-6.5-7zM626.51 238.44V230h3.16v8c0 2.21.64 3.05 2.1 3.05 1.18 0 2-.55 3-1.87V230h3.16v13.48h-2.59l-.24-2h-.1a5.47 5.47 0 01-4.33 2.32c-2.9 0-4.16-1.96-4.16-5.36zM642.62 230h2.59l.24 1.82h.09a6.31 6.31 0 014.42-2.15c2.89 0 4.15 2 4.15 5.36v8.45H651v-8.05c0-2.21-.64-3-2.1-3-1.18 0-2 .58-3.07 1.68v9.42h-3.16l-.05-13.53zM81.68 161.66l-1.24-1.14c.55-.53.9-1.24 1-2 0-.78-.25-1.18-.74-1.21-.49-.03-.72.45-1 1.16l-.51 1.06a2.45 2.45 0 01-2.35 1.57 2.7 2.7 0 01-2.42-3.1c.05-1 .48-1.94 1.21-2.62l1.14 1c-.44.46-.7 1.06-.73 1.7 0 .64.22 1.07.69 1.09.47.02.72-.51 1-1.22l.48-1a2.27 2.27 0 012.33-1.54c1.38.06 2.53 1.27 2.43 3.25a4.58 4.58 0 01-1.29 3zM74 149.8l-1.45-2.42 1.35-.8 1.1 2.54-1 .68zm1 1.91l.77-5.16 1.56.24-.49 3.29 1.65.25.42-2.81 1.56.23-.42 2.81 1.9.28.51-3.42 1.56.23-.79 5.28-8.23-1.22zM80.3 144.44c-2.67-.68-3.77-2.85-3.25-4.88.24-.91.84-1.7 1.66-2.16l.93 1.26c-.49.27-.85.72-1 1.26-.28 1.1.47 2.22 2.09 2.64 1.62.42 2.82-.1 3.12-1.28.14-.61.01-1.26-.35-1.77l1.39-.67c.6.84.78 1.9.51 2.9-.53 2.05-2.4 3.39-5.1 2.7zM82.94 135.65l-4.18-1.58.67-1.76 4.35 1.69c1.53.58 2.23.3 2.56-.57.33-.87 0-1.58-1.52-2.16l-4.36-1.65.65-1.7 4.17 1.59c2.61 1 3.35 2.48 2.58 4.49-.77 2.01-2.31 2.64-4.92 1.65zM82.75 123.89l1.39-2.66c.81-1.57 2-2.57 3.78-1.65 1.78.92 1.76 2.54.94 4.11l-.51 1 2.65 1.37-.86 1.67-7.39-3.84zm4.72-.76c.45-.87.32-1.54-.4-1.92-.72-.38-1.22 0-1.68.85l-.44.85L87 124l.47-.87zm.79.63l-.46-1.71 5.39-.19-1 1.87-3.93.03zM87.64 114.87l1-1.58 7 4.51-1 1.58zM92.89 109.88l-1.38 1.82-1.26-1 3.92-5.14 1.25 1-1.42 1.82 5.36 4.09-1.11 1.53zM96.19 103.15l3.56-3.82 1.15 1.08-2.27 2.44 1.22 1.15 1.94-2.08 1.15 1.08-1.94 2.06 1.4 1.31 2.36-2.53 1.15 1.08-3.64 3.9-6.08-5.67zm.23-2.16l.18-2.81 1.57.09-.49 2.73-1.26-.01zM110.16 99.39l.06-1.68c.76.06 1.52-.14 2.15-.57.62-.48.74-1 .43-1.35-.31-.35-.79-.26-1.55-.05l-1.14.3c-.98.35-2.07.05-2.72-.76a2.7 2.7 0 01.83-3.78 3.85 3.85 0 012.78-.78v1.52a2.78 2.78 0 00-1.77.54c-.51.4-.67.87-.38 1.24.29.37.86.22 1.61 0l1.1-.31a2.31 2.31 0 012.69.78c.85 1.1.67 2.75-.9 4-.91.69-2.05 1-3.19.9zM115.33 91.4c-1.4-2.33-.89-4.46 1-5.62 1.89-1.16 4-.61 5.44 1.71 1.44 2.32.93 4.52-1 5.68-1.93 1.16-4.04.55-5.44-1.77zm4.82-2.91c-.86-1.43-2-1.9-3-1.32-1 .58-1.03 1.83-.15 3.23s2 2 3 1.38c1-.62 1-1.86.15-3.29zM124.23 86.2c-1.16-2.5-.18-4.72 1.72-5.61a3.56 3.56 0 012.73-.08l-.39 1.49a2.09 2.09 0 00-1.61 0c-1 .48-1.43 1.78-.73 3.29s1.86 2.11 3 1.6c.56-.28.98-.78 1.14-1.39l1.4.65c-.27 1-.97 1.82-1.92 2.24-1.94.93-4.16.35-5.34-2.19zM131.59 78.37l1.76-.65 2.87 7.81-1.76.65zM139.08 75.89l2.17-.58 4.66 7.37-1.93.51-2.13-3.79c-.43-.74-.9-1.64-1.34-2.42 0 .9.07 1.9.06 2.76v4.36l-1.86.49.37-8.7zm.38 4.94l3.87-1 .38 1.42-3.87 1-.38-1.42zM146.92 74l1.86-.28 1 6.67 3.25-.49.24 1.56-5.11.77zM155 72.88l5.2-.33.1 1.57-3.33.21.13 1.67 2.83-.18.1 1.58-2.83.18.12 1.91 3.46-.22.1 1.57-5.33.34zM168.64 97.27a2 2 0 00-1.41-.8l-.93-.1c-.66-.17-14.64 0-17.92 2.17-.34-2.22-1.1-4.9-4.94-5.72-2.7-.57-8.51 2-6.56 7.81a3.81 3.81 0 002 2.19c.49.26 1.29.14 1.88 1.66.17.45.49.4.78.3.29-.1.28 0 .63.24.13.13.32.17.49.1.09.08.2.13.33.12.14 0 .45-.1.54 0 1.11.9 2.39-.5 2.88-1.38l1.8 5.43c-.43-.37-4.84-1.64-6.95.72-1.83 2-3.17 4.79-4.72 9.52a3.83 3.83 0 01-2.74 2.47c-2.39.88-1 2-.39 2.11 1.87.27 3.78.2 5.62-.22.88-.44.23-2.49 1.21-3.76l2.19-2.83a9.13 9.13 0 01-.76 4.23c-.72 1.77-2.9 2.7-3.55 3.54-1.16 1.48 1.48 1.6 2.18 1.36 1.75-.6 3-.57 3.74-1 1-.58.29-2.15.61-2.79.91-1.78 4-5.67 4.36-6.29.05-.08.09-.16.12-.25 1.82.57 3.73.83 5.64.77 5.1-.61 6.25-4.22 5.72-7a11.76 11.76 0 00-2.58-5 78.44 78.44 0 00-2.58-3.83c1.47-.36 9.59-2.59 9.62-2.52.31.66 1 .81 1.25 1 .52.29.83-.16.62-.29-.22-.13-.4-.32-.51-.55.6 0 1.18.04 1.77.13.58.01.92-1.23.56-1.54z"/><path d="M240.94 146.31c-1.31-7-7.84-11.34-11.22-12.77a22.93 22.93 0 00-3.68-1.28l-1.12-.37c.23-1.52 2-1.64 3.06-3.81 3-6.16-3.16-10.5-7.72-9.5-2.16.47-3.65 1.24-4 2.89-.18.89-.86.92-2 2.09-.37.39.43 1 .56 1.27 0 .07-.2.4-.28.77-.08.37 0 .31 0 .36-.15.27-.22.57-.22.87a2.36 2.36 0 000 2.11v.05c.45.7.77 1.5.92 2.32 0 .19 0 .29-.84 0-.2-.06-8.46-2.49-9.37-3.11-.91-.62-9.2-9.56-10.1-11.3-.5-1-1-1.59-1.28-1.57-1.92.12 1.41 3.6-.47 2.41a47.54 47.54 0 01-2-1.4c-.36-.3-.28-.16-.54-.57a2.5 2.5 0 00-.63-.82c-.21-.15-.33-.2-.48-.16-.15.04-.25.3-.33.32h-.32c-.49.12-.13 1.35 0 1.92.47 1.3 1.05 2.55 1.74 3.74 2.08 1.44 4.15 2.65 4.21 2.73 2.26 2.61 4.9 5.88 7.25 8.36 1.88 2 10.46 7 10.75 7.13.56.34 1.46 2.17.17 15.27-.48 4.93-4 15.41-2.33 20.83a64.56 64.56 0 013.58 15.46c.28 2.15-1.39 3.45-3.78 5.18-.93.68-3.56 2.29-3.82 2.53-.44.4 0 1.05.54 1.28.7.37 1.44.69 2.2.94 1.4.2 2.84-.08 4.07-.8 1.74-1 1.89-1.13 2.92-1.75 1.03-.62 2.6-.94 3-2.14.48-1.6-.86-3.89-.73-4.93 1-7.5 2.28-11.22.38-15.81-.38-.92 2.74-10.94 3-9.6.48 2.65.68 10.5.76 16.34 0 2.55 2.1 11.61 2.75 14.86 1 5-7.45 9-5.59 10.5.76.51 1.62.85 2.52 1a6.1 6.1 0 003.07-.37c.66-.4 1.25-.91 1.72-1.52 1.8-2.24 1.25-1.62 2.68-3.22 1.23-1.38.34-3.76.19-5-.32-2.54-.05-3.22-.08-7.8-.1-2.94.1-5.88.62-8.77 1.32-8.78 2.15-13.55 2.56-17.28v-.21s.63.23.91-.24c.3-.63.48-1.3.52-2 .1-.49.3.14.3.14.2.51.35 1.05.44 1.59a9 9 0 01-.71 2.16c-.34 1 .52 1.14.75 1.22a9.66 9.66 0 003.18-2.53c.27-.74.4-1.53.38-2.32a34.67 34.67 0 00-.71-5c.84-2.56 2.98-8.93 2.65-10.69zm-6 10.13c-.28 1.25-.36.06-1.54 4.69l.13-.66v-2c0-5.75-4.4-17.95-1.74-15.39 0 0 3.2 2.23 3.82 3.93.54 1.35.39 4.99-.61 9.43h-.06z"/><path d="M128 170.14c-1-.86-4.45-5.59-6.7-7.45a30.64 30.64 0 01-3.11-4.06c-4.09-5.44-5-5.75-7.84-6.24-.59-.39-.39-.83-.33-.85a3.56 3.56 0 002.44-4.75c-.17-.71.32-1 .3-1.68a7.52 7.52 0 00-.53-2.69 2 2 0 00-.33-1.88c-2-2.52-7-2.64-9.57-.85-2.09 1.44-.86 2.44-1.51 4.48a3.12 3.12 0 00.84 3.21c.11.67 2.16 2 1.75 3.44-.41 1.44-2.8 1.81-2.78 1.81-.26.06-.5.15-.73.28-3.82 2.18-7.53 5.35-8 8.84.2 2.8 4.56 6.86 7.36 9.05.4 4.79 3.44 12.12 3.58 12.41.42.87-.86-.66-3.92-1.7-1.48-.5-3.44-2.53-3.87-.15-.17 1 .25 2.72-.68 4.86-.72 1.63.11 4.24 1.91 4.18 1.31 0 2.08-4 2.08-4s6.28 3.13 9.28 2.09c1.76-.61 2.15-7.62.42-13.87-.6-2.19 1.13 3.56 5.33 8.64.93 1.11.12 2 .73 6.17.18.89.24 1.79.2 2.69-.11 2-2 4.4 2.36 5.54 4.36 1.14 4.14 2.2 7 .32 1.26-.85-3.87-1.37-4.88-4.41-.05-.22-.1-.44-.11-.66-.13-2.4 1-7.95.64-9.88-1.6-9.5-5.6-13.89-6.11-16.11 0-6.63-.47-8.71.15-7.22.85 1.53 1.82 3 2.89 4.39.52.63 1.1 1.22 1.72 1.74 2.77 2.42 7.17 5.31 7.76 5.94 0 0 .33 2.92 1.54 2.7 1.21-.22 6.37-2.5 6.26-3.09-.28-1.11-5.39-1.08-5.54-1.24zm-28.78-3.68c-.8-1.54-3-4.4-2.83-4.87 1.22-2 2.52-2.58 2.92-2.45.4.13-.13 7.32-.13 7.32h.04z"/><path d="M215.64 223.88c-.23-.12-3.35-1.27-6.09-5.67-1.24-2-10.47-19.09-11.73-22.43-2.5-6.61-22-18.5-22.83-19.19-.58-.47-.51-1.62-.29-2.37 1.65-5.56 1-10.54 1.31-11.29.8-1.89 2-4.64 1.11-6.43l-2-3.18s10.32 3.73 12.72 3.21c2-.44 12.44-7.57 13-7.88 1.44-.74 4.89.34 8.38-3.45 1.31-1.43.36-1.93.12-1.67.06-.11-.58-.68-1.19-.33-.83.48-3.7 1.31-3.18.91 2.09-1.55.64-2 .64-2-.91.75-5 1.79-5.85 2.45-.63.6-1.3 1.18-2 1.71a44.43 44.43 0 01-11.12 4.46c-.87.19-9.11-5.18-13.87-5.91a9.41 9.41 0 00-4.88.19c-1.7.48-1.56-2-.3-2.57.66-.31 1.76-.51 2.16-1.35.27-.67.24-1.42-.07-2.07a.78.78 0 00-.07-.59c-.12-.29-.1-.13-.07-.42s-.12-.38-.2-.62a1 1 0 01.07-.55c1-.84.58-1.23.44-1.35-.14-.12-1.79-.91-1.92-1.94-.18-1.1-.52-2.18-1-3.19-.11-.3-.28-2.16-1.1-2.91-1-.91-3.11-2-7.66-.8-1.45.4-1.19 1.1-4.84 1.78-4.38.81-6.79 7.31-6.4 10 .32 2.18 2.2 1.12 2.12 2.09-.13 1.5-.28 4 2.92 4.93.68.2 4.87-.47 6.47-.19 0 0 1.29.11.64 1.4-.32.65-4.51 2.31-5.55 2.74-2.73 1.14-9.79 12.72-11.93 13.81a25 25 0 00-3.56 2.08c-2.91 1.82-5.74 4.06-7.29 4-2.08-.14-3.77.87-5.17 4-.41.91-.17 1.39.59 1.58.31.4.78.63 1.28.66.63.58 1.32.21 1.85-.08 1.64-.88 2-1.58 2.64-1.84 1.6-.52 11-4.15 13.1-5.77 3.17-1.74 9.57-8.31 11-8.39 1.28-.06 4.53 2.82 3.51 8.36-.35 1.89-2.72 5.3-4 7.29-2.6 3.94-.59 7.37-1.1 8.21-2.69 4.39-6 10.26-11.58 15.27-2.16 1.41-6.74 1.74-9.16 2.45-5.57 1.63-11.49 5.62-15.71 8-1.41.78-2.75-.9-4.5-1.1-1.75-.2-1.91 2.46-2.82 4.87-.27.74-.4 1.09-1.74 4.06-.53 1.16-1.92 4.73-.52 6.22 1.28 1.78 4.33-3.8 6.67-6.52 1.25-1.44 2-1.91 4.71-2.53 1.73-.4 15.36-4.1 24.36-6.07.22 0 .45-.09.71-.16 11.7-3 23.81-18.3 24-18.23l19.85 9.84c2 1.08 2 4.94 4.39 9.35 1.43 2.66 3.51 5 12 13.31 1.09 1.06.2 2.84.69 4.49.49 1.65 1.36 1.8 2.95 1.67 1.59-.13 2.81-.37 4.3-.46 1.89-.11 1.38.09 3.58.42 1.08.16 3.52.51 5.25-1.21 3.06-3.15-3.32-1.58-6.24-3.1z"/><path d="M194.09 215.26c-.3-.6-1.03-.83-1.63-.53a61 61 0 01-58-1.5 1.21 1.21 0 00-1.2 2.1 63.43 63.43 0 0060.27 1.56 1.2 1.2 0 00.56-1.63zM108.24 135.84a1.21 1.21 0 01-1.1-1.71A63.19 63.19 0 01133 105.54a1.21 1.21 0 111.22 2.09 60.78 60.78 0 00-24.83 27.5c-.2.45-.66.73-1.15.71zM211.5 120.35c-.35 0-.68-.15-.91-.41a61 61 0 00-37.13-20 1.21 1.21 0 11.33-2.4 63.37 63.37 0 0138.61 20.8 1.21 1.21 0 01-.9 2v.01z"/></svg>
