<svg xmlns="http://www.w3.org/2000/svg" fill="none" viewBox="0 0 541 357"><g clip-path="url(#a)"><path fill="#E7ECF5" d="M0 0h541v357H0z"/><g filter="url(#b)"><g clip-path="url(#c)"><path fill="#E2E7EE" d="M62 60h780v56H62z"/><path fill="#ED6A5E" fill-rule="evenodd" d="M92 94a6 6 0 1 0 0-12 6 6 0 0 0 0 12Z" clip-rule="evenodd"/><path fill="#F4BF4F" fill-rule="evenodd" d="M112 94a6 6 0 1 0 0-12 6 6 0 0 0 0 12Z" clip-rule="evenodd"/><path fill="#61C554" fill-rule="evenodd" d="M132 94a6 6 0 1 0 0-12 6 6 0 0 0 0 12Z" clip-rule="evenodd"/><path fill="#F6F8FC" d="M62 116h780v344H62z"/></g></g><g filter="url(#d)"><path fill="#fff" d="M63 116h478v55H63z"/></g><path fill="#0C419A" d="m94.47 143.43-.37 1.28h2.68l-.37-1.28a54.41 54.41 0 0 1-.5-1.71 434.37 434.37 0 0 0-.45-1.74h-.06l-.45 1.76a38.96 38.96 0 0 1-.48 1.7Zm-3.5 5.57 3.4-10.46h2.18L99.96 149h-1.95l-.82-2.83h-3.52l-.81 2.83h-1.9Zm11.95.2c-.65 0-1.11-.2-1.39-.6-.27-.4-.4-.93-.4-1.62v-9.28h1.84v9.38c0 .22.04.38.13.48.08.09.17.13.27.13h.11l.18-.03.24 1.37a2.89 2.89 0 0 1-.98.16Zm4.39 0c-.66 0-1.12-.2-1.4-.6-.26-.4-.4-.93-.4-1.62v-9.28h1.84v9.38c0 .22.05.38.13.48.09.09.18.13.27.13h.12l.17-.03.24 1.37a2.89 2.89 0 0 1-.98.16Zm5.95 0c-.73 0-1.38-.17-1.97-.49a3.61 3.61 0 0 1-1.4-1.4 4.54 4.54 0 0 1-.5-2.23c0-.85.17-1.59.5-2.2.36-.63.81-1.1 1.37-1.43.55-.33 1.13-.5 1.74-.5.72 0 1.31.16 1.8.48.47.31.84.75 1.08 1.31.25.56.37 1.2.37 1.94 0 .38-.03.68-.08.9h-5c.1.69.34 1.23.76 1.61.41.39.94.58 1.57.58.34 0 .65-.05.94-.15.3-.1.6-.25.88-.43l.62 1.15a5.6 5.6 0 0 1-1.24.61c-.46.16-.94.24-1.44.24Zm-2.1-4.87h3.49c0-.61-.13-1.08-.4-1.43-.27-.35-.67-.52-1.2-.52-.46 0-.87.17-1.23.5-.36.34-.57.82-.66 1.45Zm6.89 4.67v-7.86h1.52l.12 1.4h.07c.28-.52.61-.9 1-1.17.4-.28.8-.42 1.22-.42.38 0 .67.06.9.16l-.32 1.6a3.7 3.7 0 0 0-.39-.1 1.7 1.7 0 0 0-1.4.34c-.35.24-.64.65-.88 1.25v4.8h-1.84Zm12 .2c-.98 0-1.77-.37-2.35-1.1a4.68 4.68 0 0 1-.88-3.02c0-.85.15-1.59.46-2.2.32-.63.74-1.1 1.25-1.43.51-.33 1.05-.5 1.62-.5.44 0 .82.08 1.13.24.32.15.63.36.93.63l-.06-1.27v-2.85h1.84V149h-1.52l-.13-.85h-.07c-.28.29-.62.54-1 .74-.39.2-.8.3-1.22.3Zm.45-1.53c.58 0 1.13-.3 1.65-.88v-3.66a2.42 2.42 0 0 0-.8-.51c-.27-.1-.54-.15-.8-.15-.5 0-.94.23-1.3.69a3.02 3.02 0 0 0-.53 1.9c0 .85.16 1.5.47 1.94.3.45.74.67 1.3.67Zm5.87 1.33v-7.86h1.84V149h-1.84Zm.93-9.23c-.33 0-.6-.1-.8-.29a1 1 0 0 1-.3-.77c0-.3.1-.56.3-.75.2-.2.47-.29.8-.29.33 0 .6.1.8.29.2.2.3.44.3.75a1 1 0 0 1-.3.77c-.2.2-.47.29-.8.29Zm3.3 9.23v-7.86h1.52l.13 1.4h.06c.28-.52.61-.9 1-1.17.4-.28.8-.42 1.22-.42.38 0 .68.06.9.16l-.32 1.6a3.58 3.58 0 0 0-.39-.1 1.7 1.7 0 0 0-1.4.34c-.34.24-.64.65-.88 1.25v4.8h-1.84Zm9.21.2c-.72 0-1.38-.17-1.97-.49a3.6 3.6 0 0 1-1.39-1.4 4.54 4.54 0 0 1-.51-2.23c0-.85.17-1.59.51-2.2.35-.63.8-1.1 1.36-1.43.56-.33 1.14-.5 1.74-.5.72 0 1.32.16 1.8.48.48.31.84.75 1.08 1.31.25.56.37 1.2.37 1.94 0 .38-.02.68-.08.9h-4.99c.09.69.34 1.23.75 1.61.42.39.94.58 1.57.58.34 0 .66-.05.94-.15.3-.1.6-.25.88-.43l.63 1.15a5.6 5.6 0 0 1-1.25.61c-.46.16-.94.24-1.44.24Zm-2.1-4.87h3.5c0-.61-.14-1.08-.4-1.43-.28-.35-.68-.52-1.2-.52-.47 0-.88.17-1.24.5-.35.34-.57.82-.66 1.45Zm10.17 4.86c-.72 0-1.36-.16-1.94-.48a3.68 3.68 0 0 1-1.36-1.4 4.66 4.66 0 0 1-.5-2.23c0-.87.19-1.62.55-2.22.36-.62.84-1.1 1.44-1.41.6-.33 1.26-.5 1.95-.5.5 0 .94.09 1.31.26.38.17.7.38 1 .62l-.9 1.2c-.2-.18-.4-.32-.62-.41-.22-.11-.45-.16-.7-.16-.62 0-1.14.24-1.54.72a2.9 2.9 0 0 0-.6 1.9c0 .78.2 1.4.58 1.89.4.48.9.72 1.52.72.31 0 .6-.07.87-.2s.52-.3.75-.47l.75 1.21a3.97 3.97 0 0 1-2.56.96Zm6.76 0c-.9 0-1.55-.26-1.93-.78a3.51 3.51 0 0 1-.56-2.07v-3.74h-1.12v-1.38l1.21-.08.23-2.14H164v2.14h2v1.46h-2v3.74c0 .92.37 1.38 1.1 1.38a2.07 2.07 0 0 0 .82-.18l.32 1.36a5.18 5.18 0 0 1-1.6.3Zm6.17 0c-.73 0-1.39-.16-1.97-.48a3.6 3.6 0 0 1-1.4-1.4 4.54 4.54 0 0 1-.5-2.23c0-.85.16-1.59.5-2.2.36-.63.81-1.1 1.37-1.43.55-.33 1.13-.5 1.74-.5.71 0 1.31.16 1.8.48.47.31.83.75 1.08 1.31.24.56.37 1.2.37 1.94 0 .38-.03.68-.08.9h-5c.09.69.34 1.23.76 1.61.41.39.94.58 1.57.58.34 0 .65-.05.94-.15.3-.1.6-.25.88-.43l.62 1.15a5.6 5.6 0 0 1-1.24.61c-.46.16-.94.24-1.44.24Zm-2.1-4.86h3.49c0-.61-.14-1.08-.4-1.43-.27-.35-.67-.52-1.2-.52-.46 0-.87.17-1.23.5-.36.34-.58.82-.66 1.45Zm6.88 4.67v-7.86h1.52l.13 1.08h.07c.33-.36.68-.65 1.07-.9.4-.24.84-.37 1.33-.37.57 0 1.03.13 1.37.39.35.24.62.58.8 1.02.38-.4.77-.74 1.17-1 .42-.27.87-.4 1.36-.4.83 0 1.45.26 1.84.8.4.55.6 1.32.6 2.31V149h-1.86v-4.69c0-.65-.1-1.1-.3-1.37-.2-.27-.5-.4-.9-.4-.5 0-1.04.32-1.65.97V149h-1.84v-4.69c0-.65-.1-1.1-.3-1.37-.2-.27-.5-.4-.92-.4-.49 0-1.04.32-1.65.97V149h-1.84Zm16.89.2c-.73 0-1.38-.17-1.97-.49a3.6 3.6 0 0 1-1.4-1.4 4.53 4.53 0 0 1-.5-2.23c0-.85.17-1.59.5-2.2.36-.63.81-1.1 1.37-1.43.55-.33 1.14-.5 1.74-.5.72 0 1.32.16 1.8.48.48.31.84.75 1.08 1.31.25.56.37 1.2.37 1.94 0 .38-.03.68-.08.9h-5c.1.69.35 1.23.76 1.61.42.39.94.58 1.57.58.34 0 .66-.05.94-.15.3-.1.6-.25.88-.43l.63 1.15c-.38.25-.8.45-1.25.61-.46.16-.94.24-1.44.24Zm-2.1-4.87h3.5c0-.61-.14-1.08-.4-1.43-.28-.35-.68-.52-1.2-.52-.47 0-.88.17-1.24.5-.35.34-.57.82-.66 1.45Zm6.89 4.67v-7.86h1.52l.13 1.06h.06c.35-.34.74-.63 1.15-.88.42-.24.9-.37 1.43-.37.84 0 1.45.27 1.84.82.38.54.57 1.31.57 2.3V149h-1.84v-4.69c0-.65-.1-1.1-.29-1.37-.19-.27-.5-.4-.94-.4-.34 0-.65.08-.91.25-.26.16-.55.4-.88.72V149h-1.84Zm11.76.2c-.9 0-1.55-.27-1.94-.8a3.52 3.52 0 0 1-.56-2.06v-3.74h-1.12v-1.38l1.22-.08.22-2.14h1.54v2.14h2v1.46h-2v3.74c0 .92.37 1.38 1.1 1.38a2.06 2.06 0 0 0 .82-.18l.32 1.36a5.14 5.14 0 0 1-1.6.3Zm8.2 0a2.3 2.3 0 0 1-1.68-.65 2.25 2.25 0 0 1-.64-1.66c0-.84.37-1.5 1.1-1.95.74-.47 1.91-.8 3.52-.96a1.89 1.89 0 0 0-.33-1.08c-.2-.3-.57-.46-1.1-.46-.39 0-.77.08-1.14.22-.37.15-.72.34-1.07.55l-.68-1.23a7.9 7.9 0 0 1 1.48-.72 5.1 5.1 0 0 1 1.76-.3c.98 0 1.7.29 2.19.87.49.58.73 1.42.73 2.51V149h-1.52l-.12-.86h-.07c-.35.3-.73.55-1.13.75-.4.2-.83.3-1.3.3Zm.6-1.45c.31 0 .6-.07.86-.22.26-.16.54-.37.84-.64v-1.76c-1.06.14-1.8.35-2.22.62-.42.27-.62.6-.62 1 0 .35.1.6.32.76.2.16.48.24.81.24Zm8.12 1.44c-.84 0-1.46-.27-1.84-.81a3.95 3.95 0 0 1-.58-2.3v-4.94h1.84v4.7c0 .64.1 1.1.3 1.37.18.26.5.4.92.4.34 0 .64-.09.9-.26s.55-.45.84-.83v-5.38h1.84V149h-1.5l-.14-1.15h-.05c-.34.4-.72.73-1.12.97-.4.25-.88.37-1.4.37Zm13.12 0c-.72 0-1.36-.16-1.94-.48a3.68 3.68 0 0 1-1.36-1.4 4.66 4.66 0 0 1-.5-2.23c0-.87.19-1.62.55-2.22.36-.62.84-1.1 1.44-1.41.6-.33 1.26-.5 1.95-.5.5 0 .94.09 1.31.26.38.17.7.38 1 .62l-.9 1.2c-.2-.18-.4-.32-.62-.41-.22-.11-.45-.16-.7-.16-.62 0-1.14.24-1.54.72a2.9 2.9 0 0 0-.6 1.9c0 .78.2 1.4.58 1.89.4.48.9.72 1.52.72.31 0 .6-.07.86-.2.28-.13.53-.3.76-.47l.75 1.21a3.97 3.97 0 0 1-2.56.96Zm6.97 0a3.65 3.65 0 0 1-3.2-1.89 4.43 4.43 0 0 1-.52-2.22c0-.87.17-1.62.52-2.22a3.65 3.65 0 0 1 6.42 0c.35.6.53 1.35.53 2.22 0 .86-.18 1.6-.53 2.22a3.67 3.67 0 0 1-3.22 1.89Zm0-1.5c.58 0 1.03-.24 1.36-.72.34-.48.5-1.11.5-1.89a3.3 3.3 0 0 0-.5-1.9 1.56 1.56 0 0 0-1.36-.72c-.57 0-1.02.24-1.36.72a3.38 3.38 0 0 0-.48 1.9c0 .78.16 1.4.48 1.89.34.48.79.72 1.36.72Zm5.61 1.31v-7.86h1.52l.13 1.06h.06c.35-.34.74-.63 1.15-.88.42-.24.9-.37 1.43-.37.84 0 1.45.27 1.84.82.38.54.57 1.31.57 2.3V149h-1.84v-4.69c0-.65-.1-1.1-.28-1.37-.2-.27-.51-.4-.95-.4-.34 0-.64.08-.91.25-.26.16-.55.4-.88.72V149h-1.84Zm11.76.2c-.9 0-1.55-.27-1.93-.8a3.51 3.51 0 0 1-.56-2.06v-3.74h-1.12v-1.38l1.21-.08.23-2.14h1.53v2.14h2v1.46h-2v3.74c0 .92.37 1.38 1.1 1.38a2.07 2.07 0 0 0 .82-.18l.32 1.36a5.18 5.18 0 0 1-1.6.3Zm6.17 0c-.73 0-1.39-.17-1.97-.49a3.6 3.6 0 0 1-1.4-1.4 4.54 4.54 0 0 1-.5-2.23c0-.85.16-1.59.5-2.2.36-.63.81-1.1 1.37-1.43.55-.33 1.13-.5 1.74-.5.71 0 1.31.16 1.8.48.47.31.83.75 1.08 1.31.24.56.37 1.2.37 1.94 0 .38-.03.68-.08.9h-5c.09.69.34 1.23.76 1.61.41.39.94.58 1.57.58.34 0 .65-.05.94-.15.3-.1.6-.25.88-.43l.62 1.15a5.6 5.6 0 0 1-1.24.61c-.46.16-.94.24-1.44.24Zm-2.1-4.87h3.49c0-.61-.14-1.08-.4-1.43-.27-.35-.67-.52-1.2-.52-.46 0-.87.17-1.23.5-.36.34-.58.82-.66 1.45Zm6.88 4.67v-7.86h1.52l.13 1.06h.07c.35-.34.73-.63 1.15-.88.41-.24.89-.37 1.42-.37.85 0 1.46.27 1.84.82.39.54.58 1.31.58 2.3V149h-1.84v-4.69c0-.65-.1-1.1-.29-1.37-.2-.27-.5-.4-.94-.4-.35 0-.65.08-.92.25-.25.16-.54.4-.88.72V149h-1.84Zm11.33.2c-.84 0-1.45-.28-1.84-.82a3.95 3.95 0 0 1-.57-2.3v-4.94h1.84v4.7c0 .64.1 1.1.29 1.37.19.26.5.4.92.4.35 0 .64-.09.9-.26.27-.17.55-.45.85-.83v-5.38h1.84V149h-1.5l-.15-1.15h-.05c-.34.4-.71.73-1.12.97-.4.25-.87.37-1.4.37Z"/><rect width="232" height="35" x="75.5" y="125.5" stroke="#0C419A" rx="3.5"/></g><defs><clipPath id="a"><path fill="#fff" d="M0 0h541v357H0z"/></clipPath><clipPath id="c"><rect width="780" height="400" x="62" y="60" fill="#fff" rx="16"/></clipPath><filter id="b" width="940" height="580" x="-18" y="60" color-interpolation-filters="sRGB" filterUnits="userSpaceOnUse"><feFlood flood-opacity="0" result="BackgroundImageFix"/><feColorMatrix in="SourceAlpha" result="hardAlpha" values="0 0 0 0 0 0 0 0 0 0 0 0 0 0 0 0 0 0 127 0"/><feOffset dy="2.77"/><feGaussianBlur stdDeviation="1.11"/><feColorMatrix values="0 0 0 0 0 0 0 0 0 0 0 0 0 0 0 0 0 0 0.0196802 0"/><feBlend in2="BackgroundImageFix" result="effect1_dropShadow_506_106173"/><feColorMatrix in="SourceAlpha" result="hardAlpha" values="0 0 0 0 0 0 0 0 0 0 0 0 0 0 0 0 0 0 127 0"/><feOffset dy="6.65"/><feGaussianBlur stdDeviation="2.66"/><feColorMatrix values="0 0 0 0 0 0 0 0 0 0 0 0 0 0 0 0 0 0 0.0282725 0"/><feBlend in2="effect1_dropShadow_506_106173" result="effect2_dropShadow_506_106173"/><feColorMatrix in="SourceAlpha" result="hardAlpha" values="0 0 0 0 0 0 0 0 0 0 0 0 0 0 0 0 0 0 127 0"/><feOffset dy="12.52"/><feGaussianBlur stdDeviation="5.01"/><feColorMatrix values="0 0 0 0 0 0 0 0 0 0 0 0 0 0 0 0 0 0 0.035 0"/><feBlend in2="effect2_dropShadow_506_106173" result="effect3_dropShadow_506_106173"/><feColorMatrix in="SourceAlpha" result="hardAlpha" values="0 0 0 0 0 0 0 0 0 0 0 0 0 0 0 0 0 0 127 0"/><feOffset dy="22.34"/><feGaussianBlur stdDeviation="8.93"/><feColorMatrix values="0 0 0 0 0 0 0 0 0 0 0 0 0 0 0 0 0 0 0.0417275 0"/><feBlend in2="effect3_dropShadow_506_106173" result="effect4_dropShadow_506_106173"/><feColorMatrix in="SourceAlpha" result="hardAlpha" values="0 0 0 0 0 0 0 0 0 0 0 0 0 0 0 0 0 0 127 0"/><feOffset dy="41.78"/><feGaussianBlur stdDeviation="16.71"/><feColorMatrix values="0 0 0 0 0 0 0 0 0 0 0 0 0 0 0 0 0 0 0.0503198 0"/><feBlend in2="effect4_dropShadow_506_106173" result="effect5_dropShadow_506_106173"/><feColorMatrix in="SourceAlpha" result="hardAlpha" values="0 0 0 0 0 0 0 0 0 0 0 0 0 0 0 0 0 0 127 0"/><feOffset dy="100"/><feGaussianBlur stdDeviation="40"/><feColorMatrix values="0 0 0 0 0 0 0 0 0 0 0 0 0 0 0 0 0 0 0.07 0"/><feBlend in2="effect5_dropShadow_506_106173" result="effect6_dropShadow_506_106173"/><feBlend in="SourceGraphic" in2="effect6_dropShadow_506_106173" result="shape"/></filter><filter id="d" width="486" height="63" x="60" y="116" color-interpolation-filters="sRGB" filterUnits="userSpaceOnUse"><feFlood flood-opacity="0" result="BackgroundImageFix"/><feColorMatrix in="SourceAlpha" result="hardAlpha" values="0 0 0 0 0 0 0 0 0 0 0 0 0 0 0 0 0 0 127 0"/><feOffset dx="1" dy="4"/><feGaussianBlur stdDeviation="2"/><feComposite in2="hardAlpha" operator="out"/><feColorMatrix values="0 0 0 0 0 0 0 0 0 0 0 0 0 0 0 0 0 0 0.05 0"/><feBlend in2="BackgroundImageFix" result="effect1_dropShadow_506_106173"/><feBlend in="SourceGraphic" in2="effect1_dropShadow_506_106173" result="shape"/></filter></defs></svg>
