<svg xmlns="http://www.w3.org/2000/svg" fill="none" viewBox="0 0 541 357"><path fill="#E7ECF5" d="M0 0h541v357H0z"/><path fill="#fff" d="M63 88h415v181H63z"/><rect width="247" height="102" x="147.5" y="127.5" fill="#fff" stroke="#0C419A" rx="3.5"/><rect width="97" height="19" x="191" y="139" fill="#CEDCF5" opacity=".5" rx="9.5"/><rect width="222" height="19" x="160" y="170" fill="#CEDCF5" opacity=".5" rx="9.5"/><rect width="222" height="19" x="159" y="198" fill="#CEDCF5" opacity=".5" rx="9.5"/><path fill="#0C419A" d="M169 143h2v2h-2v-2Zm0 4h2v6h-2v-6Zm1-9a10 10 0 1 0 0 20 10 10 0 0 0 0-20Zm0 18a8.01 8.01 0 0 1 0-16 8.01 8.01 0 0 1 0 16Z"/></svg>
