<svg xmlns="http://www.w3.org/2000/svg" width="541" height="357" fill="none"><g clip-path="url(#a)"><path fill="#E7ECF5" d="M0 0h541v357H0z"/><g filter="url(#b)"><g clip-path="url(#c)"><path fill="#E2E7EE" d="M62 60h780v56H62z"/><path fill="#ED6A5E" fill-rule="evenodd" d="M92 94c3.3137 0 6-2.6863 6-6s-2.6863-6-6-6-6 2.6863-6 6 2.6863 6 6 6Z" clip-rule="evenodd"/><path fill="#F4BF4F" fill-rule="evenodd" d="M112 94c3.314 0 6-2.6863 6-6s-2.686-6-6-6-6 2.6863-6 6 2.686 6 6 6Z" clip-rule="evenodd"/><path fill="#61C554" fill-rule="evenodd" d="M132 94c3.314 0 6-2.6863 6-6s-2.686-6-6-6-6 2.6863-6 6 2.686 6 6 6Z" clip-rule="evenodd"/><path fill="#F6F8FC" d="M62 116h780v344H62z"/></g></g><g fill="#0C419A" clip-path="url(#d)"><path d="M376.328 317v-10.464h3.536c.725 0 1.376.096 1.952.288.587.192 1.045.517 1.376.976.341.448.512 1.061.512 1.84 0 .8-.192 1.445-.576 1.936-.373.491-.875.843-1.504 1.056L384.12 317h-2.08l-2.256-4.096h-1.6V317h-1.856Zm1.856-5.568h1.488c.715 0 1.259-.149 1.632-.448.384-.309.576-.757.576-1.344 0-.597-.192-1.013-.576-1.248-.373-.245-.917-.368-1.632-.368h-1.488v3.408Zm10.697 5.76c-.726 0-1.382-.16-1.968-.48-.587-.331-1.051-.8-1.392-1.408-.342-.619-.513-1.36-.513-2.224 0-.853.171-1.589.513-2.208.352-.619.805-1.093 1.36-1.424.554-.331 1.136-.496 1.744-.496.714 0 1.312.16 1.792.48.48.309.842.747 1.088 1.312.245.555.368 1.2.368 1.936 0 .384-.027.683-.08.896h-4.992c.085.693.336 1.232.752 1.616.416.384.938.576 1.568.576.341 0 .656-.048.944-.144.298-.107.592-.251.88-.432l.624 1.152c-.374.245-.79.448-1.248.608-.459.16-.939.24-1.44.24Zm-2.096-4.864h3.488c0-.608-.134-1.083-.4-1.424-.267-.352-.667-.528-1.2-.528-.459 0-.87.171-1.232.512-.352.331-.571.811-.656 1.44Zm9.497 4.864c-.907 0-1.552-.261-1.936-.784-.374-.533-.56-1.221-.56-2.064V310.6h-1.12v-1.376l1.216-.08.224-2.144h1.536v2.144h2v1.456h-2v3.744c0 .917.368 1.376 1.104 1.376.138 0 .282-.016.432-.048.149-.043.277-.085.384-.128l.32 1.36c-.214.075-.459.139-.736.192-.267.064-.555.096-.864.096Zm6.019 0c-.651 0-1.259-.16-1.824-.48-.565-.331-1.024-.8-1.376-1.408-.352-.619-.528-1.36-.528-2.224 0-.875.176-1.616.528-2.224.352-.619.811-1.088 1.376-1.408.565-.331 1.173-.496 1.824-.496.661 0 1.275.165 1.84.496.565.32 1.024.789 1.376 1.408.352.608.528 1.349.528 2.224 0 .864-.176 1.605-.528 2.224-.352.608-.811 1.077-1.376 1.408-.565.32-1.179.48-1.84.48Zm0-1.504c.576 0 1.029-.24 1.36-.72.331-.48.496-1.109.496-1.888 0-.789-.165-1.424-.496-1.904-.331-.48-.784-.72-1.36-.72-.576 0-1.029.24-1.36.72-.32.48-.48 1.115-.48 1.904 0 .779.16 1.408.48 1.888.331.48.784.72 1.36.72Zm7.941 1.504c-.843 0-1.456-.272-1.84-.816-.384-.544-.576-1.312-.576-2.304v-4.928h1.84v4.688c0 .651.096 1.109.288 1.376.192.267.501.4.928.4.341 0 .64-.085.896-.256.267-.171.549-.448.848-.832v-5.376h1.84V317h-1.504l-.144-1.152h-.048c-.341.405-.715.731-1.12.976-.405.245-.875.368-1.408.368Zm6.595-.192v-7.856h1.52l.128 1.392h.064c.277-.512.613-.901 1.008-1.168.394-.277.8-.416 1.216-.416.373 0 .672.053.896.16l-.32 1.6a3.2572 3.2572 0 0 0-.384-.096c-.118-.021-.262-.032-.432-.032-.31 0-.635.123-.976.368-.342.235-.635.651-.88 1.248v4.8h-1.84Zm12.612.192c-.726 0-1.382-.16-1.968-.48-.587-.331-1.051-.8-1.392-1.408-.342-.619-.512-1.36-.512-2.224 0-.853.17-1.589.512-2.208.352-.619.805-1.093 1.36-1.424.554-.331 1.136-.496 1.744-.496.714 0 1.312.16 1.792.48.48.309.842.747 1.088 1.312.245.555.368 1.2.368 1.936 0 .384-.027.683-.08.896h-4.992c.085.693.336 1.232.752 1.616.416.384.938.576 1.568.576.341 0 .656-.048.944-.144.298-.107.592-.251.88-.432l.624 1.152c-.374.245-.79.448-1.248.608-.459.16-.939.24-1.44.24Zm-2.096-4.864h3.488c0-.608-.134-1.083-.4-1.424-.267-.352-.667-.528-1.2-.528-.459 0-.87.171-1.232.512-.352.331-.571.811-.656 1.44Zm6.885 4.672v-7.856h1.52l.128 1.056h.064c.352-.341.736-.635 1.152-.88.416-.245.891-.368 1.424-.368.843 0 1.456.272 1.84.816.384.544.576 1.312.576 2.304V317h-1.84v-4.688c0-.651-.096-1.109-.288-1.376-.192-.267-.507-.4-.944-.4-.341 0-.645.085-.912.256-.256.16-.549.4-.88.72V317h-1.84Zm12.236 0v-11.296h1.84v2.912l-.064 1.52c.331-.309.699-.581 1.104-.816.406-.245.875-.368 1.408-.368.843 0 1.456.272 1.84.816.384.544.576 1.312.576 2.304V317h-1.84v-4.688c0-.651-.096-1.109-.288-1.376-.192-.267-.506-.4-.944-.4-.341 0-.645.085-.912.256-.256.16-.549.4-.88.72V317h-1.84Zm10.866.192c-.683 0-1.243-.213-1.68-.64-.427-.427-.64-.981-.64-1.664 0-.843.368-1.493 1.104-1.952.736-.469 1.909-.789 3.52-.96-.011-.416-.123-.773-.336-1.072-.203-.309-.571-.464-1.104-.464-.384 0-.763.075-1.136.224-.363.149-.72.331-1.072.544l-.672-1.232c.437-.277.928-.517 1.472-.72.555-.203 1.141-.304 1.76-.304.981 0 1.712.293 2.192.88.491.576.736 1.413.736 2.512V317h-1.52l-.128-.864h-.064c-.352.299-.731.549-1.136.752-.395.203-.827.304-1.296.304Zm.592-1.44c.32 0 .608-.075.864-.224.267-.16.549-.373.848-.64v-1.76c-1.067.139-1.808.347-2.224.624-.416.267-.624.597-.624.992 0 .352.107.608.32.768.213.16.485.24.816.24Zm8.13 1.44c-.843 0-1.456-.272-1.84-.816-.384-.544-.576-1.312-.576-2.304v-4.928h1.84v4.688c0 .651.096 1.109.288 1.376.192.267.501.4.928.4.341 0 .64-.085.896-.256.267-.171.549-.448.848-.832v-5.376h1.84V317h-1.504l-.144-1.152h-.048c-.341.405-.715.731-1.12.976-.405.245-.875.368-1.408.368Zm9.363 0c-.907 0-1.552-.261-1.936-.784-.374-.533-.56-1.221-.56-2.064V310.6h-1.12v-1.376l1.216-.08.224-2.144h1.536v2.144h2v1.456h-2v3.744c0 .917.368 1.376 1.104 1.376.138 0 .282-.016.432-.048.149-.043.277-.085.384-.128l.32 1.36c-.214.075-.459.139-.736.192-.267.064-.555.096-.864.096ZM486.667 311l.94.94 3.726-3.72v8.113h1.334v-8.113l3.72 3.727.946-.947-5.333-5.333-5.333 5.333Z"/></g><rect width="156" height="35" x="359.5" y="293.5" stroke="#0C419A" rx="3.5"/><rect width="409" height="20" x="95" y="155" fill="#CED9EB" opacity=".5" rx="10"/><rect width="409" height="20" x="95" y="196" fill="#CED9EB" opacity=".5" rx="10"/><rect width="409" height="20" x="95" y="237" fill="#CED9EB" opacity=".5" rx="10"/></g><defs><clipPath id="a"><path fill="#fff" d="M0 0h541v357H0z"/></clipPath><clipPath id="c"><rect width="780" height="400" x="62" y="60" fill="#fff" rx="16"/></clipPath><clipPath id="d"><rect width="157" height="36" x="359" y="293" fill="#fff" rx="4"/></clipPath><filter id="b" width="940" height="580" x="-18" y="60" color-interpolation-filters="sRGB" filterUnits="userSpaceOnUse"><feFlood flood-opacity="0" result="BackgroundImageFix"/><feColorMatrix in="SourceAlpha" result="hardAlpha" values="0 0 0 0 0 0 0 0 0 0 0 0 0 0 0 0 0 0 127 0"/><feOffset dy="2.7673"/><feGaussianBlur stdDeviation="1.1069"/><feColorMatrix values="0 0 0 0 0 0 0 0 0 0 0 0 0 0 0 0 0 0 0.0196802 0"/><feBlend in2="BackgroundImageFix" result="effect1_dropShadow_147_105475"/><feColorMatrix in="SourceAlpha" result="hardAlpha" values="0 0 0 0 0 0 0 0 0 0 0 0 0 0 0 0 0 0 127 0"/><feOffset dy="6.6501"/><feGaussianBlur stdDeviation="2.66"/><feColorMatrix values="0 0 0 0 0 0 0 0 0 0 0 0 0 0 0 0 0 0 0.0282725 0"/><feBlend in2="effect1_dropShadow_147_105475" result="effect2_dropShadow_147_105475"/><feColorMatrix in="SourceAlpha" result="hardAlpha" values="0 0 0 0 0 0 0 0 0 0 0 0 0 0 0 0 0 0 127 0"/><feOffset dy="12.5216"/><feGaussianBlur stdDeviation="5.0086"/><feColorMatrix values="0 0 0 0 0 0 0 0 0 0 0 0 0 0 0 0 0 0 0.035 0"/><feBlend in2="effect2_dropShadow_147_105475" result="effect3_dropShadow_147_105475"/><feColorMatrix in="SourceAlpha" result="hardAlpha" values="0 0 0 0 0 0 0 0 0 0 0 0 0 0 0 0 0 0 127 0"/><feOffset dy="22.3363"/><feGaussianBlur stdDeviation="8.9345"/><feColorMatrix values="0 0 0 0 0 0 0 0 0 0 0 0 0 0 0 0 0 0 0.0417275 0"/><feBlend in2="effect3_dropShadow_147_105475" result="effect4_dropShadow_147_105475"/><feColorMatrix in="SourceAlpha" result="hardAlpha" values="0 0 0 0 0 0 0 0 0 0 0 0 0 0 0 0 0 0 127 0"/><feOffset dy="41.7776"/><feGaussianBlur stdDeviation="16.711"/><feColorMatrix values="0 0 0 0 0 0 0 0 0 0 0 0 0 0 0 0 0 0 0.0503198 0"/><feBlend in2="effect4_dropShadow_147_105475" result="effect5_dropShadow_147_105475"/><feColorMatrix in="SourceAlpha" result="hardAlpha" values="0 0 0 0 0 0 0 0 0 0 0 0 0 0 0 0 0 0 127 0"/><feOffset dy="100"/><feGaussianBlur stdDeviation="40"/><feColorMatrix values="0 0 0 0 0 0 0 0 0 0 0 0 0 0 0 0 0 0 0.07 0"/><feBlend in2="effect5_dropShadow_147_105475" result="effect6_dropShadow_147_105475"/><feBlend in="SourceGraphic" in2="effect6_dropShadow_147_105475" result="shape"/></filter></defs></svg>
