<svg xmlns="http://www.w3.org/2000/svg" width="541" height="357" fill="none"><path fill="#E7ECF5" d="M0 0h541v357H0z"/><path fill="#fff" d="M63 88h415v181H63z"/><path fill="#0C419A" d="M344.95 183v-7.51h2.54c.52 0 1 .06 1.4.2.43.14.75.37 1 .7.24.32.36.76.36 1.32 0 .58-.14 1.04-.41 1.4-.27.35-.63.6-1.08.75l1.79 3.14h-1.5l-1.61-2.94h-1.15V183h-1.34Zm1.34-4h1.07c.5 0 .9-.1 1.17-.32.27-.22.41-.54.41-.96 0-.43-.14-.73-.41-.9a2.14 2.14 0 0 0-1.17-.27h-1.07V179Zm7.68 4.14c-.52 0-1-.12-1.42-.35a2.58 2.58 0 0 1-1-1 3.26 3.26 0 0 1-.36-1.6c0-.62.12-1.15.37-1.6.25-.44.57-.78.97-1.01.4-.24.82-.36 1.25-.36.52 0 .95.12 1.3.35.34.22.6.53.77.94a3.42 3.42 0 0 1 .2 2.03h-3.58c.07.5.25.89.54 1.16.3.28.68.42 1.13.42.24 0 .47-.04.68-.1.21-.09.42-.19.63-.32l.45.83c-.27.17-.57.32-.9.44-.33.11-.67.17-1.03.17Zm-1.5-3.5h2.5c0-.43-.1-.77-.29-1.02-.2-.25-.48-.38-.86-.38-.33 0-.63.13-.89.37-.25.24-.4.58-.47 1.04Zm1.28-3.22-.66-.66 1.7-2 .91.88-1.95 1.78Zm3.66 6.58v-5.64h1.32V183h-1.32Zm.66-6.63a.8.8 0 0 1-.57-.2.72.72 0 0 1-.22-.56c0-.22.07-.4.22-.54a.8.8 0 0 1 .57-.2.8.8 0 0 1 .58.2.7.7 0 0 1 .22.54c0 .23-.08.42-.22.55a.8.8 0 0 1-.58.21Zm2.37 6.63v-5.64h1.1l.09.76h.04c.25-.25.53-.46.83-.64.3-.17.64-.26 1.02-.26.6 0 1.05.2 1.32.59.28.39.42.94.42 1.65V183h-1.32v-3.37c0-.46-.07-.8-.21-.98-.14-.2-.37-.3-.68-.3-.24 0-.46.07-.65.2-.19.1-.4.28-.64.5V183h-1.32Zm6.46 0v-5.64h1.32V183h-1.32Zm.67-6.63a.8.8 0 0 1-.58-.2.72.72 0 0 1-.22-.56c0-.22.08-.4.22-.54a.8.8 0 0 1 .58-.2.8.8 0 0 1 .57.2.7.7 0 0 1 .22.54c0 .23-.07.42-.22.55a.8.8 0 0 1-.57.21Zm4.35 6.77c-.65 0-1.11-.19-1.39-.56-.26-.39-.4-.88-.4-1.49v-2.69h-.8v-.98l.87-.06.16-1.54h1.1v1.54h1.44v1.04h-1.43v2.7c0 .65.26.98.79.98a1.47 1.47 0 0 0 .58-.13l.23.98a3.64 3.64 0 0 1-1.14.2Zm2.2-.14v-5.64h1.32V183h-1.32Zm.66-6.63a.8.8 0 0 1-.57-.2.72.72 0 0 1-.22-.56c0-.22.07-.4.22-.54a.8.8 0 0 1 .57-.2.8.8 0 0 1 .58.2c.14.14.22.32.22.54 0 .23-.08.42-.22.55a.8.8 0 0 1-.58.21Zm3.74 6.77c-.49 0-.9-.15-1.2-.46-.31-.3-.46-.7-.46-1.2 0-.6.26-1.07.79-1.4a6.06 6.06 0 0 1 2.53-.69c-.01-.3-.1-.55-.25-.77-.14-.22-.4-.33-.79-.33-.27 0-.55.05-.81.16-.26.1-.52.24-.77.4l-.49-.9c.32-.2.67-.37 1.06-.51.4-.15.82-.22 1.26-.22.7 0 1.23.21 1.58.63.35.42.53 1.02.53 1.8V183h-1.1l-.09-.62h-.04c-.25.21-.53.4-.82.54-.28.14-.6.22-.93.22Zm.43-1.04c.23 0 .43-.05.62-.16s.4-.26.6-.46v-1.26c-.76.1-1.3.25-1.6.45-.29.19-.44.43-.44.71 0 .25.08.44.23.55.15.12.35.17.59.17Zm5.44 1.04c-.46 0-.8-.14-1-.43-.19-.28-.28-.67-.28-1.16v-6.66h1.32v6.73c0 .16.03.28.09.35.06.06.13.09.2.09h.08l.12-.02.18.98a2.07 2.07 0 0 1-.7.12Zm1.87-.14v-5.64h1.32V183h-1.32Zm.66-6.63a.8.8 0 0 1-.57-.2.72.72 0 0 1-.22-.56c0-.22.07-.4.22-.54a.8.8 0 0 1 .57-.2.8.8 0 0 1 .58.2c.14.14.21.32.21.54 0 .23-.07.42-.21.55a.8.8 0 0 1-.58.21Zm3.94 6.77c-.38 0-.76-.07-1.14-.22a3.84 3.84 0 0 1-1-.56l.63-.85c.25.19.5.34.76.46.25.11.52.17.8.17.3 0 .53-.07.68-.2.14-.13.22-.29.22-.48 0-.16-.06-.3-.19-.39-.11-.1-.26-.2-.45-.28a9.8 9.8 0 0 0-.57-.24 6.07 6.07 0 0 1-.74-.33 1.9 1.9 0 0 1-.58-.52 1.33 1.33 0 0 1-.23-.79c0-.5.18-.9.55-1.22.37-.31.87-.47 1.5-.47.4 0 .75.07 1.06.2.32.15.59.3.82.48l-.61.8c-.2-.14-.4-.26-.6-.34-.2-.1-.42-.14-.64-.14-.28 0-.5.06-.63.18a.54.54 0 0 0-.21.44c0 .22.12.4.34.5.24.12.5.23.8.34.27.1.52.2.77.34.24.13.45.3.6.52.18.22.26.5.26.85 0 .48-.19.9-.56 1.24-.38.34-.92.5-1.63.5Zm5.82 0c-.52 0-1-.12-1.41-.35a2.58 2.58 0 0 1-1-1 3.26 3.26 0 0 1-.37-1.6c0-.62.12-1.15.37-1.6.25-.44.58-.78.97-1.01.4-.24.82-.36 1.26-.36.51 0 .94.12 1.28.35.35.22.6.53.78.94.18.4.27.86.27 1.39 0 .27-.02.49-.06.64h-3.58c.06.5.24.89.54 1.16.3.28.67.42 1.12.42.25 0 .47-.04.68-.1.21-.09.43-.19.63-.32l.45.83c-.27.17-.57.32-.9.44-.33.11-.67.17-1.03.17Zm-1.5-3.5h2.5c0-.43-.1-.77-.29-1.02-.19-.25-.48-.38-.86-.38-.33 0-.62.13-.88.37s-.41.58-.47 1.04Zm4.94 3.36v-5.64h1.1l.08 1h.05c.2-.37.44-.65.72-.84.29-.2.58-.3.88-.3.27 0 .48.04.64.12l-.23 1.14-.28-.06a1.22 1.22 0 0 0-1.01.24c-.24.17-.45.46-.63.9V183h-1.32Z"/><rect width="57" height="20" x="136" y="169" fill="#E7ECF5" opacity=".5" rx="10"/><path fill="#0C419A" d="m186.3 175.76-.77-.76-3.03 3.03-3.03-3.03-.76.76 3.03 3.03-3.03 3.03.76.76 3.03-3.03 3.03 3.03.76-.76-3.03-3.03 3.03-3.03Z"/><rect width="57" height="20" x="203" y="169" fill="#E7ECF5" opacity=".5" rx="10"/><path fill="#0C419A" d="m253.3 175.76-.77-.76-3.03 3.03-3.03-3.03-.76.76 3.03 3.03-3.03 3.03.76.76 3.03-3.03 3.03 3.03.76-.76-3.03-3.03 3.03-3.03Z"/><rect width="57" height="20" x="270" y="169" fill="#E7ECF5" opacity=".5" rx="10"/><path fill="#0C419A" d="m320.3 175.76-.77-.76-3.03 3.03-3.03-3.03-.76.76 3.03 3.03-3.03 3.03.76.76 3.03-3.03 3.03 3.03.76-.76-3.03-3.03 3.03-3.03Z"/></svg>
