<svg xmlns="http://www.w3.org/2000/svg" width="541" height="357" fill="none"><path fill="#E7ECF5" d="M0 0h541v357H0z"/><path fill="#fff" d="M63 88h415v181H63z"/><rect width="97" height="19" x="150" y="132" fill="#CED9EB" opacity=".5" rx="9.5"/><rect width="97" height="19" x="150" y="202" fill="#CED9EB" opacity=".5" rx="9.5"/><rect width="116" height="19" x="150" y="167" fill="#CED9EB" opacity=".5" rx="9.5"/><path fill="#000" fill-opacity=".38" d="M130.125 136c-.619 0-1.119.54-1.119 1.2l-.006 9.6c0 .66.501 1.2 1.119 1.2h6.756c.619 0 1.125-.54 1.125-1.2v-7.2l-3.375-3.6h-4.5Zm3.937 4.2v-3.3l3.094 3.3h-3.094ZM130.125 171c-.619 0-1.119.54-1.119 1.2l-.006 9.6c0 .66.501 1.2 1.119 1.2h6.756c.619 0 1.125-.54 1.125-1.2v-7.2l-3.375-3.6h-4.5Zm3.937 4.2v-3.3l3.094 3.3h-3.094ZM130.125 206c-.619 0-1.119.54-1.119 1.2l-.006 9.6c0 .66.501 1.2 1.119 1.2h6.756c.619 0 1.125-.54 1.125-1.2v-7.2l-3.375-3.6h-4.5Zm3.937 4.2v-3.3l3.094 3.3h-3.094Z"/><path stroke="#000" stroke-opacity=".12" d="M129 158.5h285M129 193.5h285"/></svg>