<svg xmlns="http://www.w3.org/2000/svg" width="541" height="357" fill="none"><path fill="#E7ECF5" d="M0 0h541v357H0z"/><path fill="#fff" d="M63 88h415v181H63z"/><path fill="#000" fill-opacity=".45" d="M266.794 193.168c-.551 0-1.069-.14-1.554-.42-.476-.28-.863-.686-1.162-1.218-.289-.532-.434-1.171-.434-1.918 0-.765.145-1.414.434-1.946.299-.532.686-.938 1.162-1.218.485-.28 1.003-.42 1.554-.42.56 0 1.078.14 1.554.42.476.28.859.686 1.148 1.218.299.532.448 1.181.448 1.946 0 .747-.149 1.386-.448 1.918-.289.532-.672.938-1.148 1.218-.476.28-.994.42-1.554.42Zm0-.952c.588 0 1.059-.238 1.414-.714.364-.485.546-1.115.546-1.89 0-.784-.182-1.419-.546-1.904-.355-.485-.826-.728-1.414-.728-.579 0-1.05.243-1.414.728-.364.485-.546 1.12-.546 1.904 0 .775.182 1.405.546 1.89.364.476.835.714 1.414.714Zm6.93.952c-.719 0-1.246-.224-1.582-.672-.336-.457-.504-1.12-.504-1.988v-4.312h1.162v4.158c0 .635.098 1.097.294 1.386.205.289.532.434.98.434.355 0 .667-.089.938-.266.28-.187.579-.481.896-.882v-4.83h1.148V193h-.952l-.098-1.064h-.042c-.317.373-.653.672-1.008.896-.355.224-.765.336-1.232.336Z"/><g filter="url(#a)"><g clip-path="url(#b)"><rect width="80" height="36.0003" x="229.5" y="211" fill="#0C419A" rx="4"/></g></g><rect width="191" height="19" x="177" y="153" fill="#CED9EB" opacity=".5" rx="9.5"/><g clip-path="url(#c)"><path fill="#0C419A" d="M282.25 116.733c-1.133-5.75-6.183-10.066-12.25-10.066-4.817 0-9 2.733-11.083 6.733-5.017.533-8.917 4.783-8.917 9.933 0 5.517 4.483 10 10 10h21.667c4.6 0 8.333-3.733 8.333-8.333 0-4.4-3.417-7.967-7.75-8.267Zm-8.917 4.934v6.666h-6.666v-6.666h-5l8.333-8.334 8.333 8.334h-5Z"/></g><rect width="57" height="19" x="241" y="219" fill="#CED9EB" opacity=".5" rx="9.5"/><defs><clipPath id="b"><rect width="80" height="36.0003" x="229.5" y="211" fill="#fff" rx="4"/></clipPath><clipPath id="c"><path fill="#fff" d="M250 100h40v40h-40z"/></clipPath><filter id="a" width="90" height="46.0002" x="224.5" y="207" color-interpolation-filters="sRGB" filterUnits="userSpaceOnUse"><feFlood flood-opacity="0" result="BackgroundImageFix"/><feColorMatrix in="SourceAlpha" result="hardAlpha" values="0 0 0 0 0 0 0 0 0 0 0 0 0 0 0 0 0 0 127 0"/><feOffset dy="1"/><feGaussianBlur stdDeviation="2.5"/><feColorMatrix values="0 0 0 0 0 0 0 0 0 0 0 0 0 0 0 0 0 0 0.12 0"/><feBlend in2="BackgroundImageFix" result="effect1_dropShadow_213_106951"/><feColorMatrix in="SourceAlpha" result="hardAlpha" values="0 0 0 0 0 0 0 0 0 0 0 0 0 0 0 0 0 0 127 0"/><feOffset dy="2"/><feGaussianBlur stdDeviation="1"/><feColorMatrix values="0 0 0 0 0 0 0 0 0 0 0 0 0 0 0 0 0 0 0.14 0"/><feBlend in2="effect1_dropShadow_213_106951" result="effect2_dropShadow_213_106951"/><feColorMatrix in="SourceAlpha" result="hardAlpha" values="0 0 0 0 0 0 0 0 0 0 0 0 0 0 0 0 0 0 127 0"/><feMorphology in="SourceAlpha" radius="2" result="effect3_dropShadow_213_106951"/><feOffset dy="3"/><feGaussianBlur stdDeviation=".5"/><feColorMatrix values="0 0 0 0 0 0 0 0 0 0 0 0 0 0 0 0 0 0 0.2 0"/><feBlend in2="effect2_dropShadow_213_106951" result="effect3_dropShadow_213_106951"/><feBlend in="SourceGraphic" in2="effect3_dropShadow_213_106951" result="shape"/></filter></defs></svg>
