<svg xmlns="http://www.w3.org/2000/svg" width="541" height="357" fill="none"><path fill="#E7ECF5" d="M0 0h541v357H0z"/><path fill="#fff" d="M63 88h415v181H63z"/><g filter="url(#a)"><rect width="156" height="181" x="322" y="88" fill="#fff" rx="3.3913"/><rect width="128" height="19" x="336" y="102" fill="#CED9EB" opacity=".5" rx="9.5"/><rect width="128" height="19" x="336" y="129" fill="#CED9EB" opacity=".5" rx="9.5"/><rect width="128" height="19" x="336" y="156" fill="#CED9EB" opacity=".5" rx="9.5"/><path fill="#0C419A" d="m453.695 110.787-.787-.787-2.561 2.555-2.56-2.555-.787.787 3.347 3.347 3.348-3.347ZM453.695 137.787l-.787-.787-2.561 2.555-2.56-2.555-.787.787 3.347 3.347 3.348-3.347ZM453.695 164.787l-.787-.787-2.561 2.555-2.56-2.555-.787.787 3.347 3.347 3.348-3.347Z"/><g filter="url(#b)"><g clip-path="url(#c)"><rect width="80" height="30" x="360" y="220" fill="#0C419A" rx="4"/></g></g><rect width="57" height="16" x="372" y="227" fill="#CED9EB" opacity=".5" rx="8"/></g><path fill="#0C419A" d="M90.5191 127.557h2.5823v-1.291h-2.5823v1.291ZM86 119.81v1.291h11.6204v-1.291H86Zm1.9367 4.519h7.747v-1.291h-7.747v1.291ZM106.653 129v-10.133h6.121v1.518h-4.323v2.867h3.687v1.518h-3.687V129h-1.798Zm7.782 0v-7.607h1.782V129h-1.782Zm.899-8.94c-.32 0-.578-.093-.775-.279-.196-.186-.294-.434-.294-.744 0-.299.098-.542.294-.728.197-.186.455-.279.775-.279s.579.093.775.279c.196.186.294.429.294.728 0 .31-.098.558-.294.744-.196.186-.455.279-.775.279Zm4.931 9.126c-.631 0-1.08-.191-1.348-.573-.259-.383-.388-.904-.388-1.565v-8.987h1.782v9.08c0 .217.041.372.124.465.083.082.17.124.263.124h.109c.041-.011.098-.021.17-.031l.233 1.332c-.104.041-.238.077-.403.108-.155.031-.336.047-.542.047Zm5.19 0c-.878 0-1.503-.253-1.875-.759-.362-.517-.542-1.183-.542-1.999v-3.626h-1.085v-1.332l1.178-.077.217-2.077h1.487v2.077h1.937v1.409h-1.937v3.626c0 .888.356 1.332 1.069 1.332.134 0 .274-.015.418-.046.145-.041.269-.083.372-.124l.31 1.317c-.206.072-.444.134-.713.186-.258.062-.537.093-.836.093Zm2.956-.186v-7.607h1.472l.124 1.347h.062c.269-.495.594-.872.976-1.131.383-.268.775-.402 1.178-.402.361 0 .651.051.868.155l-.31 1.549a3.4776 3.4776 0 0 0-.372-.093c-.114-.021-.253-.031-.418-.031-.3 0-.615.119-.946.356-.33.228-.614.63-.852 1.209V129h-1.782Zm8.922.186c-.703 0-1.338-.155-1.906-.465-.568-.32-1.018-.775-1.348-1.363-.331-.599-.496-1.317-.496-2.154 0-.826.165-1.539.496-2.138.341-.599.78-1.059 1.317-1.379.537-.32 1.1-.48 1.689-.48.692 0 1.27.155 1.735.464.465.3.816.723 1.054 1.271.237.537.356 1.162.356 1.875 0 .372-.026.661-.078.867h-4.834c.083.672.326 1.193.729 1.565.402.372.909.558 1.518.558.33 0 .635-.047.914-.139.289-.104.573-.243.852-.419l.605 1.116c-.362.237-.765.434-1.209.589-.444.154-.909.232-1.394.232Zm-2.03-4.71h3.377c0-.589-.129-1.049-.387-1.379-.258-.341-.645-.511-1.162-.511-.444 0-.842.165-1.193.495-.341.321-.553.785-.635 1.395ZM141.97 129v-7.607h1.472l.124 1.347h.062c.269-.495.594-.872.976-1.131.383-.268.775-.402 1.178-.402.361 0 .651.051.868.155l-.31 1.549a3.4776 3.4776 0 0 0-.372-.093c-.114-.021-.253-.031-.419-.031-.299 0-.614.119-.945.356-.33.228-.614.63-.852 1.209V129h-1.782Z"/><defs><filter id="a" width="172.957" height="197.957" x="313.522" y="80.3696" color-interpolation-filters="sRGB" filterUnits="userSpaceOnUse"><feFlood flood-opacity="0" result="BackgroundImageFix"/><feColorMatrix in="SourceAlpha" result="hardAlpha" values="0 0 0 0 0 0 0 0 0 0 0 0 0 0 0 0 0 0 127 0"/><feOffset dy=".8478"/><feGaussianBlur stdDeviation="4.2391"/><feColorMatrix values="0 0 0 0 0 0 0 0 0 0 0 0 0 0 0 0 0 0 0.12 0"/><feBlend in2="BackgroundImageFix" result="effect1_dropShadow_714_106270"/><feBlend in="SourceGraphic" in2="effect1_dropShadow_714_106270" result="shape"/></filter><filter id="b" width="90" height="40" x="355" y="216" color-interpolation-filters="sRGB" filterUnits="userSpaceOnUse"><feFlood flood-opacity="0" result="BackgroundImageFix"/><feColorMatrix in="SourceAlpha" result="hardAlpha" values="0 0 0 0 0 0 0 0 0 0 0 0 0 0 0 0 0 0 127 0"/><feOffset dy="1"/><feGaussianBlur stdDeviation="2.5"/><feColorMatrix values="0 0 0 0 0 0 0 0 0 0 0 0 0 0 0 0 0 0 0.12 0"/><feBlend in2="BackgroundImageFix" result="effect1_dropShadow_714_106270"/><feColorMatrix in="SourceAlpha" result="hardAlpha" values="0 0 0 0 0 0 0 0 0 0 0 0 0 0 0 0 0 0 127 0"/><feOffset dy="2"/><feGaussianBlur stdDeviation="1"/><feColorMatrix values="0 0 0 0 0 0 0 0 0 0 0 0 0 0 0 0 0 0 0.14 0"/><feBlend in2="effect1_dropShadow_714_106270" result="effect2_dropShadow_714_106270"/><feColorMatrix in="SourceAlpha" result="hardAlpha" values="0 0 0 0 0 0 0 0 0 0 0 0 0 0 0 0 0 0 127 0"/><feMorphology in="SourceAlpha" radius="2" result="effect3_dropShadow_714_106270"/><feOffset dy="3"/><feGaussianBlur stdDeviation=".5"/><feColorMatrix values="0 0 0 0 0 0 0 0 0 0 0 0 0 0 0 0 0 0 0.2 0"/><feBlend in2="effect2_dropShadow_714_106270" result="effect3_dropShadow_714_106270"/><feBlend in="SourceGraphic" in2="effect3_dropShadow_714_106270" result="shape"/></filter><clipPath id="c"><rect width="80" height="30" x="360" y="220" fill="#fff" rx="4"/></clipPath></defs></svg>