<svg xmlns="http://www.w3.org/2000/svg" fill="none" viewBox="0 0 541 357"><path fill="#E7ECF5" d="M0 0h541v357H0z"/><path fill="#fff" d="M63 88h415v181H63z"/><path fill="#0C419A" d="m438.67 124 .94.94 3.72-3.72v8.11h1.34v-8.11l3.72 3.73.94-.95-5.33-5.33-5.33 5.33Z"/><g fill="#0C419A" clip-path="url(#a)"><path d="M133.39 139.6h.84l1.31 4.04h-.77l-.61-2.15c-.14-.43-.25-.88-.36-1.33h-.03c-.11.45-.22.9-.36 1.33l-.64 2.15h-.72l1.34-4.05Zm-.55 2.4h1.9v.56h-1.9v-.57Zm3.13 2.2c0-.24.16-.47.44-.65v-.02a.56.56 0 0 1-.28-.5c0-.23.16-.45.35-.56v-.03c-.21-.16-.41-.45-.41-.81 0-.7.56-1.09 1.2-1.09.16 0 .32.03.45.07h1.1v.52h-.57c.09.11.18.3.18.52 0 .68-.52 1.04-1.16 1.04a.89.89 0 0 1-.4-.09.35.35 0 0 0-.17.3c0 .18.12.27.5.27h.55c.72 0 1.1.22 1.1.74 0 .61-.63 1.09-1.63 1.09-.7 0-1.24-.25-1.24-.8Zm2.23-.15c0-.23-.18-.3-.55-.3h-.4c-.16 0-.3-.02-.41-.04a.5.5 0 0 0-.23.4c0 .28.3.44.77.44.48 0 .82-.23.82-.5Zm-.39-2.42c0-.39-.22-.61-.52-.61-.3 0-.52.22-.52.6 0 .4.23.62.52.62.3 0 .52-.23.52-.61Zm1.75-1.97c0-.25.18-.4.46-.4.25 0 .45.15.45.4 0 .23-.18.4-.45.4-.25 0-.46-.15-.46-.4Zm.1.95h.72v3.05h-.73v-3.05Zm1.83 0h.6l.04.54h.02c.23-.4.54-.6.86-.6a.7.7 0 0 1 .34.06l-.11.61c-.11-.02-.18-.04-.32-.04-.25 0-.54.16-.72.63v1.85h-.73v-3.05h.02Zm3.8 1.52c0-1 .67-1.61 1.4-1.61.82 0 1.27.59 1.27 1.45l-.02.34h-1.95c.07.54.4.86.9.86.28 0 .48-.1.7-.23l.26.45c-.3.2-.66.34-1.05.34-.86 0-1.52-.58-1.52-1.6Zm2.06-.3c0-.47-.2-.74-.64-.74-.36 0-.68.27-.72.74h1.36Zm1.5-1.22h.59l.04.4h.03c.27-.26.59-.49 1-.49.65 0 .93.45.93 1.22v1.9h-.73v-1.8c0-.5-.14-.7-.48-.7-.27 0-.45.13-.7.38v2.12h-.73v-3.03h.05Zm3.4 2.7.34-.46c.28.2.55.34.84.34.34 0 .5-.16.5-.36 0-.25-.34-.36-.66-.5-.4-.16-.86-.38-.86-.88 0-.52.43-.9 1.12-.9.43 0 .77.17 1.02.35l-.32.43c-.2-.15-.43-.27-.68-.27-.32 0-.46.14-.46.34 0 .25.32.34.64.46.4.15.88.36.88.92 0 .52-.4.95-1.18.95-.43 0-.88-.18-1.18-.43Zm3-1.18c0-1 .68-1.61 1.4-1.61.83 0 1.28.59 1.28 1.45l-.02.34h-1.95c.06.54.4.86.9.86.27 0 .48-.1.7-.23l.26.45c-.3.2-.66.34-1.05.34-.86 0-1.52-.58-1.52-1.6Zm2.04-.3c0-.47-.2-.74-.63-.74-.36 0-.68.27-.73.74h1.36Zm1.53-1.22h.59l.04.4h.02c.25-.26.55-.49.93-.49.46 0 .7.2.84.54.3-.31.6-.54.98-.54.64 0 .95.45.95 1.22v1.9h-.72v-1.8c0-.5-.16-.7-.48-.7-.2 0-.4.1-.63.38v2.12h-.73v-1.8c0-.5-.16-.7-.48-.7-.18 0-.4.1-.63.38v2.12h-.73v-3.03h.04Zm6.1 2.74-.09.31h-.57v-4.38h.73v1.13l-.02.5c.25-.23.57-.39.88-.39.77 0 1.2.61 1.2 1.54 0 1.04-.63 1.65-1.31 1.65-.25.02-.55-.11-.82-.36Zm1.41-1.25c0-.6-.2-.97-.66-.97-.22 0-.43.11-.66.34v1.43c.2.18.44.24.62.24.38 0 .7-.36.7-1.04Zm1.63.77v-3.6h.73v3.65c0 .18.1.25.16.25.02 0 .07 0 .11-.03l.1.55c-.1.04-.21.07-.4.07-.51-.03-.7-.37-.7-.89Zm1.7-.74c0-1 .69-1.61 1.42-1.61.81 0 1.27.59 1.27 1.45 0 .13-.03.27-.03.34h-1.95c.07.54.41.86.91.86.27 0 .48-.1.7-.23l.25.45c-.3.2-.65.34-1.04.34-.86 0-1.52-.58-1.52-1.6Zm2.05-.3c0-.47-.2-.74-.63-.74-.37 0-.69.27-.73.74h1.36Zm1.95.93c-.27 0-.47.18-.47.43 0 .3.22.43.45.43h.05c0 .32-.23.61-.64.75l.16.38c.61-.2.97-.68.97-1.29 0-.43-.18-.7-.52-.7Zm3.02-2.15h.6l.04.32h.02c.25-.23.6-.41.93-.41.77 0 1.2.61 1.2 1.56 0 1.04-.63 1.65-1.31 1.65-.27 0-.55-.11-.8-.34l.03.5v.95h-.73v-4.23h.02Zm2.05 1.5c0-.62-.2-.98-.66-.98-.23 0-.43.11-.66.34v1.43c.23.18.43.24.61.24.39 0 .7-.36.7-1.04Zm1.65-1.5h.6l.04.54h.02c.23-.4.55-.6.86-.6a.7.7 0 0 1 .34.06l-.1.61c-.12-.02-.19-.04-.33-.04-.25 0-.54.16-.72.63v1.85h-.73v-3.05h.02Zm2.16 1.52c0-1.02.7-1.61 1.45-1.61s1.46.59 1.46 1.6-.7 1.61-1.46 1.61c-.75 0-1.45-.58-1.45-1.6Zm2.16 0c0-.61-.27-1.02-.73-1.02-.45 0-.72.4-.72 1.02s.27 1.02.72 1.02c.46 0 .73-.41.73-1.02Zm1.66.5v-1.45h-.44v-.55l.48-.02.1-.84h.58v.84h.77v.57h-.77v1.44c0 .37.14.55.43.55.12 0 .23-.05.32-.07l.11.52c-.16.04-.38.11-.63.11-.68 0-.96-.45-.96-1.1Zm2.06-.5c0-1 .68-1.61 1.4-1.61.83 0 1.28.59 1.28 1.45l-.02.34h-1.96c.07.54.41.86.91.86.27 0 .48-.1.7-.23l.26.45c-.3.2-.66.34-1.05.34-.86 0-1.52-.58-1.52-1.6Zm2.04-.3c0-.47-.2-.74-.63-.74-.37 0-.68.27-.73.74h1.36Zm-1.02-2.08.91-1.08.5.47-1.04.95-.37-.34Zm2.3 4.46c0-.25.15-.48.43-.66v-.02a.56.56 0 0 1-.27-.5c0-.23.15-.45.34-.56v-.03c-.2-.16-.41-.45-.41-.81 0-.7.56-1.09 1.2-1.09.16 0 .32.03.45.07h1.1v.52H194c.09.11.18.3.18.52 0 .68-.52 1.04-1.16 1.04a.9.9 0 0 1-.4-.09.35.35 0 0 0-.17.3c0 .18.12.27.5.27h.55c.72 0 1.1.22 1.1.74 0 .61-.63 1.09-1.62 1.09-.7 0-1.25-.25-1.25-.8Zm2.22-.16c0-.23-.18-.3-.54-.3H193a2 2 0 0 1-.41-.04.5.5 0 0 0-.23.4c0 .28.3.44.77.44.48 0 .82-.23.82-.5Zm-.39-2.42c0-.39-.22-.61-.52-.61-.3 0-.52.22-.52.6 0 .4.23.62.52.62.3 0 .52-.23.52-.61Zm1.5.5c0-1 .68-1.61 1.41-1.61.82 0 1.27.59 1.27 1.45l-.02.34h-1.95c.06.54.4.86.9.86.28 0 .48-.1.7-.23l.26.45c-.3.2-.66.34-1.05.34-.86 0-1.52-.58-1.52-1.6Zm2.05-.3c0-.47-.2-.74-.64-.74-.36 0-.68.27-.73.74h1.37Zm1.52-1.22h.59l.04.54h.03c.22-.4.54-.6.86-.6a.7.7 0 0 1 .34.06l-.11.61c-.12-.02-.19-.04-.32-.04-.25 0-.55.16-.73.63v1.85h-.73v-3.05h.03Zm3.79 1.52c0-1.02.73-1.61 1.54-1.61.39 0 .68.16.89.34l-.34.47c-.16-.13-.32-.22-.5-.22-.5 0-.84.4-.84 1.02s.34 1.02.82 1.02c.25 0 .45-.12.63-.28l.3.48c-.3.25-.66.38-1 .38-.87 0-1.5-.58-1.5-1.6Zm3.27-2.85h.73v1.13l-.03.59c.25-.25.57-.46.98-.46.66 0 .93.46.93 1.23v1.9h-.73v-1.81c0-.5-.13-.7-.47-.7-.28 0-.46.13-.7.38v2.13h-.73v-4.4h.02Zm3.47 3.55c0-.66.55-1 1.8-1.13 0-.32-.14-.61-.55-.61-.3 0-.59.13-.86.29l-.27-.47c.34-.2.77-.41 1.24-.41.78 0 1.14.47 1.14 1.31v1.81h-.57l-.04-.34h-.03c-.27.23-.59.4-.95.4-.55.05-.9-.3-.9-.85Zm1.8.02v-.68c-.84.12-1.12.32-1.12.64 0 .27.19.38.44.38.27-.02.45-.14.68-.34Zm1.56-.72c0-1.02.73-1.61 1.55-1.61.38 0 .68.16.88.34l-.34.47c-.16-.13-.32-.22-.5-.22-.5 0-.84.4-.84 1.02s.34 1.02.82 1.02c.25 0 .45-.12.64-.28l.29.48c-.3.25-.66.38-1 .38-.86 0-1.5-.58-1.5-1.6Zm3.23.38v-1.9h.72v1.81c0 .5.14.7.48.7.27 0 .45-.11.68-.43v-2.08h.73v3.05h-.6l-.04-.45h-.04c-.28.32-.57.52-.98.52-.66 0-.95-.45-.95-1.22Zm3.65-1.9h.6l.04.4h.02c.27-.26.59-.49 1-.49.66 0 .93.45.93 1.22v1.9h-.68v-1.8c0-.5-.14-.7-.48-.7-.27 0-.45.13-.7.38v2.12h-.73v-3.03ZM92.07 125.16l-.28-.25c.12-.14.2-.3.23-.45 0-.18-.07-.27-.16-.27-.11 0-.16.09-.23.27l-.1.25c-.1.18-.26.36-.53.36-.32-.03-.55-.3-.52-.7 0-.23.11-.43.27-.6l.25.23a.59.59 0 0 0-.16.39c0 .13.05.25.16.25s.16-.12.23-.27l.1-.23c.12-.23.28-.36.53-.34.32.02.57.3.55.75-.05.16-.16.43-.34.6Zm-1.75-2.7-.32-.54.3-.18.27.57-.25.16Zm.22.44.19-1.18.36.04-.11.75.38.05.1-.64.36.05-.1.63.44.07.11-.77.36.05-.18 1.2-1.9-.25Zm1.2-1.66c-.6-.15-.85-.63-.74-1.1.07-.23.23-.41.38-.5l.2.3c-.1.06-.2.15-.22.29-.07.24.12.5.48.58.38.1.63-.02.7-.29.05-.16 0-.3-.09-.4l.32-.17c.14.2.18.43.11.66-.09.5-.52.8-1.13.63Zm.6-1.96-.96-.37.16-.4 1 .38c.34.14.5.07.6-.13.06-.2 0-.37-.35-.5l-1-.39.14-.38.95.36c.6.23.75.57.6 1.02-.19.47-.55.61-1.14.4Zm-.02-2.67.31-.62c.19-.36.46-.58.87-.38.38.2.4.57.2.93l-.11.22.61.32-.2.39-1.68-.86Zm1.06-.19c.12-.2.07-.33-.09-.43-.16-.09-.27 0-.38.19l-.1.2.46.25.11-.2Zm.18.16-.1-.38 1.22-.05-.23.43h-.89Zm-.15-2.01.22-.36 1.6 1.02-.24.36-1.58-1.02Zm1.2-1.13-.32.4-.3-.22.9-1.15.29.22-.32.41 1.22.93-.25.34-1.22-.93Zm.75-1.54.82-.86.27.25-.52.54.27.25.43-.47.27.24-.43.48.32.3.54-.57.28.25-.82.88-1.43-1.29Zm.04-.48.05-.63.36.02-.11.61h-.3Zm3.14-.36.02-.38c.18 0 .36-.02.48-.14.13-.11.16-.22.09-.31-.07-.1-.18-.07-.37 0l-.25.06c-.2.07-.45.05-.6-.18-.2-.25-.12-.6.17-.86.18-.13.41-.2.64-.18v.34a.66.66 0 0 0-.41.12c-.11.09-.16.2-.1.27.08.09.21.04.37 0l.25-.07c.25-.07.46-.05.61.18.19.25.16.61-.2.9a.9.9 0 0 1-.7.25Zm1.15-1.8c-.31-.53-.2-1.03.23-1.27.43-.27.91-.14 1.23.38.32.52.2 1.02-.23 1.3-.4.24-.9.1-1.23-.42Zm1.12-.66c-.2-.32-.46-.43-.68-.3-.23.14-.25.41-.05.73.2.31.46.45.68.31.2-.13.23-.43.05-.74Zm.9-.52c-.27-.57-.04-1.07.4-1.27.22-.11.44-.1.6-.02l-.09.34a.5.5 0 0 0-.36 0c-.23.11-.32.4-.16.74.16.37.43.48.68.37a.44.44 0 0 0 .25-.32l.32.16c-.07.22-.2.4-.43.5-.43.2-.93.06-1.2-.5Zm1.69-1.77.4-.13.66 1.76-.4.14-.67-1.77Zm1.7-.56.5-.14 1.07 1.68-.44.1-.47-.85-.3-.54.02.63v1l-.43.1.05-1.98Zm.09 1.1.88-.22.1.32-.89.22-.1-.32Zm1.68-1.53.43-.07.23 1.51.72-.1.05.35-1.16.18-.27-1.87Zm1.84-.25 1.18-.07.02.36-.75.05.03.38.63-.04.02.36-.63.04.02.43.8-.04.02.36-1.2.07-.14-1.9Zm44.09 28.08v-9.05h2.38v9.14c0 .52.23.67.43.67.1 0 .16 0 .3-.02l.3 1.79c-.28.11-.66.2-1.2.2-1.64.03-2.21-1.08-2.21-2.73Zm-15.3-2.9c.2-.66 2.34-5.34 2.34-5.34h2.52v10.8h-2.27v-6.68l-1.89 4.84h-1.45l-1.89-4.84v6.67h-2.27v-10.79h2.52s2.11 4.68 2.34 5.34h.05Zm19.68 3.17c0-1.72 1.45-2.7 4.66-3.03-.05-.73-.5-1.16-1.39-1.16-.68 0-1.36.3-2.13.75l-.84-1.6a6.55 6.55 0 0 1 3.45-1.1c2.06 0 3.2 1.2 3.2 3.72v4.68h-2.27v-.8s-.93 1-2.25 1c-1.5.03-2.43-1.08-2.43-2.46Zm4.66-.14v-1.42c-1.7.22-2.37.77-2.37 1.38 0 .52.37.79.94.79.52-.02 1-.32 1.43-.75Zm-17.83.14c0-1.72 1.46-2.7 4.66-3.03-.05-.73-.5-1.16-1.39-1.16-.68 0-1.36.3-2.13.75l-.84-1.6a6.55 6.55 0 0 1 3.45-1.1c2.07 0 3.2 1.2 3.2 3.72v4.68h-2.27v-.8s-.93 1-2.25 1c-1.5.03-2.43-1.08-2.43-2.46Zm4.66-.14v-1.42c-1.7.22-2.36.77-2.36 1.38 0 .52.36.79.93.79.52-.02 1-.32 1.43-.75Zm22.2-9.19v3.99a2.59 2.59 0 0 0-1.97-.8c-1.7 0-3.34 1.63-3.34 4.3 0 2.7 1.3 4.3 3.29 4.3 1.09 0 1.95-.81 2.02-.88v.7h2.39v-11.6h-2.39Zm-1.4 9.82c-.94 0-1.48-.72-1.48-2.33 0-1.56.68-2.28 1.45-2.28.43 0 .9.13 1.43.52v3.37c-.48.52-.88.72-1.4.72Zm5.62-8.89c0-.74.6-1.26 1.39-1.26s1.38.52 1.38 1.26c0 .75-.59 1.27-1.38 1.27s-1.39-.54-1.39-1.27Zm.19 2.47h2.38v8.21h-2.38v-8.21Zm3.88 4.1c0-2.68 1.68-4.3 3.7-4.3 2.3 0 3.56 1.7 3.56 3.93 0 .43-.04.88-.09 1.09h-4.83c.2 1.2 1.02 1.74 2.08 1.74.62 0 1.14-.25 1.73-.59l.82 1.52c-.82.59-1.9.93-2.86.93-2.39 0-4.11-1.59-4.11-4.33Zm5.22-.89c0-.9-.52-1.56-1.48-1.56-.75 0-1.27.52-1.43 1.56h2.91Zm-51.79-11.13v-9.05h2.39v9.14c0 .52.22.68.43.68.09 0 .16 0 .3-.02l.29 1.78c-.27.12-.66.2-1.2.2-1.66 0-2.2-1.08-2.2-2.73Zm12.67-.02.66 2.58h2.47l-3.33-10.8h-2.75l-3.34 10.8h2.48l.66-2.58h3.15Zm-2.65-1.9 1.04-4.1h.09l1.04 4.1h-2.17Zm6.26 3.53 1.07-1.52c.73.57 1.4.86 2.09.86.7 0 1.02-.27 1.02-.7 0-.54-.8-.8-1.64-1.11-1-.38-2.13-1.06-2.13-2.42 0-1.54 1.23-2.58 3.09-2.58 1.22 0 2.16.5 2.84 1.04l-1.07 1.47a2.91 2.91 0 0 0-1.7-.7c-.62 0-.93.25-.93.66 0 .52.74.72 1.58 1.04 1.03.38 2.18.97 2.18 2.46 0 1.5-1.15 2.65-3.31 2.65a5.35 5.35 0 0 1-3.09-1.15Zm7.15 0 1.07-1.52c.73.57 1.4.86 2.09.86.7 0 1.02-.27 1.02-.7 0-.54-.8-.8-1.63-1.11-1-.38-2.14-1.06-2.14-2.42 0-1.54 1.23-2.58 3.09-2.58 1.22 0 2.16.5 2.84 1.04l-1.07 1.47a2.9 2.9 0 0 0-1.7-.7c-.62 0-.93.25-.93.66 0 .52.75.72 1.59 1.04 1.02.38 2.17.97 2.17 2.46 0 1.5-1.15 2.65-3.3 2.65a5.34 5.34 0 0 1-3.1-1.15Zm16.92-7.27h2.38v1.18c.46-.9 1.57-1.22 2.14-1.22.45 0 .72.07.95.16l-.25 2.21c-.32-.09-.68-.24-1.02-.24-.93.02-1.75.81-1.82 1.85v4.28h-2.38v-8.22Zm14.7 0h2.4v1.05c.67-.66 1.35-1.25 2.47-1.25 1.75 0 2.5 1.27 2.5 3.3v5.1h-2.39v-4.8c0-1.18-.32-1.56-1-1.56-.59 0-1.04.3-1.56.79v5.54h-2.39v-8.17h-.02Zm15.63 4.1c0-2.67 1.68-4.3 3.7-4.3 2.3 0 3.56 1.7 3.56 3.94 0 .43-.04.88-.09 1.08h-4.83c.2 1.2 1.02 1.74 2.09 1.74.61 0 1.13-.24 1.72-.58l.82 1.51c-.82.6-1.9.93-2.86.93-2.36-.02-4.11-1.6-4.11-4.32Zm5.24-.88c0-.9-.52-1.56-1.47-1.56-.75 0-1.27.52-1.43 1.56h2.9Zm-29.58 2.71c0-1.72 1.45-2.7 4.66-3.03-.05-.72-.5-1.15-1.39-1.15-.68 0-1.36.29-2.13.74l-.84-1.6a6.56 6.56 0 0 1 3.45-1.09c2.06 0 3.2 1.2 3.2 3.71v4.68h-2.27v-.79s-.93 1-2.25 1c-1.5 0-2.43-1.09-2.43-2.47Zm4.66-.13v-1.43c-1.7.23-2.37.77-2.37 1.38 0 .52.37.8.94.8a2.12 2.12 0 0 0 1.43-.75Zm-45.48-9.23c-.5 0-1.18.38-1.18 1.06 0 .6.48.97.97.97h.07c-.02.72-.68 1.13-1 1.31l.64.89c2.09-.66 2.52-4.21.5-4.24Zm30.47 3.43v5.43c-.48.66-.84.9-1.43.9-.68 0-1-.35-1-1.55v-4.78h-2.39v5.18c0 1.95.85 3.24 2.55 3.24a2.97 2.97 0 0 0 2.31-1.04v.84H171v-8.22h-2.41Zm31.96 6.45c-1.04 0-1.81-.93-1.81-2.33 0-1.42.75-2.35 1.88-2.35.37 0 .68.13 1.05.45l1.13-1.56a3.48 3.48 0 0 0-2.31-.84 4.08 4.08 0 0 0-4.18 4.3c0 2.72 1.7 4.3 3.95 4.3.88 0 1.88-.27 2.66-.97l-.87-1.65c-.45.38-.95.65-1.5.65Zm-88.74-9.77c-.05-.1-.2-.16-.32-.18l-.2-.03c-.16-.04-3.32 0-4.07.5-.07-.5-.25-1.1-1.11-1.29-.62-.13-1.93.45-1.5 1.77.07.22.23.38.45.5.12.06.3.02.43.38.05.09.12.09.19.07.04-.03.06 0 .13.04s.11.03.11.03.03.02.07.02c.03 0 .12-.02.12 0 .25.2.54-.12.65-.32l.41 1.22c-.09-.09-1.09-.36-1.56.16-.41.45-.73 1.09-1.07 2.15-.09.3-.27.43-.61.57-.55.2-.23.45-.1.47a3.8 3.8 0 0 0 1.28-.04c.2-.1.04-.57.27-.86.2-.25.36-.48.5-.64 0 .34 0 .52-.18.95-.16.41-.66.61-.82.8-.27.34.34.36.5.31.4-.13.68-.13.84-.22.23-.14.07-.5.14-.64.2-.4.9-1.29 1-1.42.02-.03.02-.05.02-.07.5.16 1.07.2 1.27.18 1.16-.14 1.4-.95 1.3-1.6-.12-.6-.48-.96-.6-1.14a7.7 7.7 0 0 0-.59-.86c.34-.09 2.18-.59 2.18-.56.07.15.23.18.28.22.1.07.18-.04.13-.06-.09-.07-.11-.12-.11-.12.16 0 .3.03.4.03.19.02.26-.25.17-.32Z"/><path fill-rule="evenodd" d="M128.21 121.67c-.3-1.58-1.77-2.55-2.54-2.9-.52-.22-.75-.26-.84-.29-.12-.04-.2-.06-.25-.09.04-.34.45-.36.7-.86.68-1.4-.73-2.37-1.75-2.14-.5.1-.81.27-.9.65-.05.2-.2.2-.46.48-.09.09.1.22.14.29 0 .02-.05.09-.07.18-.02.1 0 .07 0 .1 0 0-.05.08-.05.2 0 0-.11.22 0 .47.03.07.16.2.2.52 0 .05 0 .07-.17 0-.05-.02-1.93-.57-2.14-.7a23.5 23.5 0 0 1-2.3-2.56c-.1-.22-.22-.36-.29-.36-.43.02.32.82-.1.54a6.7 6.7 0 0 1-.46-.31c-.1-.07-.07-.05-.12-.14-.04-.09-.09-.16-.13-.18-.05-.02-.07-.04-.12-.04-.07.02-.04.06-.07.06h-.06c-.12.03-.03.3 0 .43 0 .03.3.73.38.84.48.32.93.61.96.61.52.59 1.1 1.34 1.65 1.9.44.45 2.39 1.59 2.43 1.6.14.08.34.5.05 3.47-.12 1.1-.9 3.48-.52 4.7.25.8.52 1.34.81 3.51.07.48-.31.8-.86 1.18-.2.16-.82.52-.86.56-.1.1 0 .23.11.3.14.04.36.18.5.2.23.05.57.02.93-.18l.66-.4c.27-.16.6-.21.68-.48.11-.36-.2-.88-.16-1.11.23-1.7.52-2.53.1-3.57-.1-.2.6-2.47.67-2.18.12.6.16 2.38.19 3.7 0 .58.47 2.62.63 3.36.23 1.13-1.68 2.04-1.27 2.38.1.07.34.18.57.22.27.05.47 0 .7-.09.14-.04.34-.3.39-.34.4-.5.27-.36.61-.72.27-.32.07-.86.05-1.13-.07-.57 0-.73-.03-1.77 0-1.2.07-1.54.14-1.99.3-1.99.48-3.07.59-3.91v-.05s.14.05.2-.04c.12-.18.1-.34.12-.45.02-.12.07.02.07.02s.09.27.09.36c0 .14-.1.3-.16.5-.07.22.11.25.16.27.04.02.63-.4.72-.57.1-.18.07-.4.1-.52.02-.3-.16-1.13-.16-1.13.13-.56.63-1.99.54-2.4Zm-1.36 2.29c-.07.27-.1.02-.34 1.06l.02-.16v-.45c0-1.29-1-4.05-.39-3.48 0 0 .73.5.87.88.11.34.09 1.15-.16 2.15Z" clip-rule="evenodd"/><path d="M102.58 127.06c-.23-.2-1.02-1.27-1.52-1.7-.34-.36-.44-.54-.7-.93-.94-1.22-1.14-1.3-1.78-1.4-.13-.09-.09-.18-.07-.2.84-.32.57-1.04.55-1.06-.05-.16.07-.23.07-.39 0-.25-.05-.43-.12-.61.03-.11.05-.27-.06-.43-.46-.57-1.6-.59-2.18-.2-.48.31-.2.54-.34 1.01-.1.27 0 .52.18.73.02.16.5.45.4.77-.09.34-.63.4-.63.4l-.16.07c-.86.5-1.7 1.22-1.82 2 .05.63 1.05 1.55 1.68 2.05.1 1.09.78 2.74.82 2.8.1.21-.2-.15-.88-.38-.34-.11-.78-.56-.89-.02-.04.23.05.61-.16 1.1-.16.37.02.96.43.96.3 0 .48-.9.48-.9s1.43.7 2.11.47c.41-.14.5-1.72.1-3.15-.14-.5.24.82 1.2 1.95.2.25.02.45.15 1.4.05.36.05.45.05.61-.02.46-.45 1 .55 1.25 1.02.27.93.5 1.56.07.3-.19-.88-.32-1.11-1l-.02-.16c-.03-.54.22-1.79.13-2.24-.36-2.15-1.27-3.14-1.38-3.64 0-1.5-.12-1.97.02-1.63a7.48 7.48 0 0 0 .77 1.13c.1.11.18.2.27.25.64.54 1.64 1.2 1.78 1.34 0 0 .06.65.34.6.25-.04 1.45-.56 1.43-.7-.05-.18-1.23-.18-1.25-.22Zm-6.54-.82c-.18-.33-.68-1-.64-1.1.28-.46.57-.6.66-.57.07.02-.02 1.67-.02 1.67Z"/><path d="M122.47 139.23c-.05-.02-.75-.3-1.39-1.29a80.14 80.14 0 0 1-2.66-5.07c-.56-1.49-4.99-4.18-5.17-4.34-.14-.11-.12-.36-.07-.54.36-1.27.23-2.38.3-2.56.18-.43.45-1.04.24-1.45l-.45-.72s2.34.83 2.88.72c.48-.09 2.82-1.72 2.96-1.79.31-.15 1.1.07 1.9-.79.3-.31.1-.43.03-.38.02-.02-.14-.16-.28-.07-.18.11-.84.3-.72.2.47-.36.13-.45.13-.45-.2.18-1.13.4-1.34.57l-.45.38c-.57.32-1.54.8-2.52 1.02-.2.04-2.07-1.18-3.16-1.33-.59-.1-.8-.05-1.1.04-.4.11-.37-.45-.08-.59.16-.07.41-.11.5-.3.12-.22-.02-.42-.02-.47 0-.02.02-.04-.02-.13-.03-.07-.03-.03-.03-.1a.31.31 0 0 0-.04-.13c0-.02 0-.11.02-.13.23-.19.14-.28.1-.3-.08-.07-.42-.2-.44-.43-.04-.36-.18-.54-.23-.72-.02-.07-.06-.5-.25-.66-.22-.2-.7-.45-1.74-.18-.34.09-.28.25-1.1.4-1 .19-1.54 1.66-1.45 2.27.07.5.5.25.48.47-.02.34-.07.9.66 1.11.16.05 1.11-.11 1.47-.04 0 0 .3.02.14.32-.07.13-1.02.52-1.27.6-.61.25-2.23 2.88-2.7 3.13-.41.2-.66.36-.82.47-.66.41-1.3.93-1.66.9-.47-.02-.86.21-1.18.91-.09.2-.04.32.14.37.07.06.16.15.3.15.13.14.29.05.42-.02.37-.2.46-.36.6-.4.36-.12 2.5-.96 2.97-1.32.73-.38 2.18-1.88 2.5-1.9.3-.02 1.02.63.8 1.9-.08.43-.62 1.2-.92 1.65-.59.88-.13 1.68-.25 1.86-.6 1-1.36 2.33-2.63 3.46-.5.32-1.52.38-2.09.54-1.27.36-2.61 1.27-3.56 1.81-.32.18-.62-.2-1.03-.25-.38-.04-.43.57-.63 1.11l-.39.93c-.11.27-.43 1.06-.11 1.4.3.41.98-.86 1.52-1.47.27-.31.45-.43 1.07-.56.38-.1 3.5-.93 5.54-1.38.04 0 .11-.03.16-.05 2.65-.68 5.4-4.14 5.45-4.12l4.51 2.22c.46.25.46 1.1 1 2.13.32.6.8 1.13 2.73 3 .25.26.04.64.16 1.02.11.41.31.41.68.39.34-.02.63-.1.97-.11.44-.03.32.02.82.09.25.04.8.1 1.2-.27.7-.75-.72-.39-1.4-.73Z"/><path d="M117.58 137.28c-.06-.13-.22-.18-.36-.1a13.96 13.96 0 0 1-13.17-.35.32.32 0 0 0-.38.1c-.07.13-.03.29.09.38a14.48 14.48 0 0 0 13.69.34c.16-.07.2-.23.13-.37Zm-19.5-17.98c-.04 0-.07 0-.11-.02-.14-.07-.2-.23-.14-.37a14.46 14.46 0 0 1 5.86-6.47c.14-.06.3-.02.39.1.06.13.02.29-.1.38a13.62 13.62 0 0 0-5.62 6.22.3.3 0 0 1-.28.16Zm23.46-3.5c-.07 0-.16-.03-.2-.1a13.8 13.8 0 0 0-8.43-4.52c-.16-.03-.25-.16-.23-.32.02-.16.16-.25.32-.23 3.38.48 6.5 2.15 8.76 4.71.1.11.1.3-.02.38a.37.37 0 0 1-.2.07Z"/></g><rect width="162" height="20" x="190" y="225" fill="#CED9EB" opacity=".5" rx="10"/><rect width="115" height="20" x="90" y="186" fill="#CED9EB" opacity=".5" rx="10"/><rect width="116" height="20" x="213" y="186" fill="#CED9EB" opacity=".5" rx="10"/><rect width="115" height="20" x="337" y="186" fill="#CED9EB" opacity=".5" rx="10"/><path stroke="#E4E4E4" d="M90 165.5h362"/><defs><clipPath id="a"><path fill="#fff" d="M90 105h132v40H90z"/></clipPath></defs></svg>
