<svg xmlns="http://www.w3.org/2000/svg" width="541" height="357" fill="none"><g clip-path="url(#a)"><path fill="#E7ECF5" d="M0 0h541v357H0z"/><g filter="url(#b)"><g clip-path="url(#c)"><path fill="#E2E7EE" d="M62 60h780v56H62z"/><path fill="#ED6A5E" fill-rule="evenodd" d="M92 94c3.3137 0 6-2.6863 6-6s-2.6863-6-6-6-6 2.6863-6 6 2.6863 6 6 6Z" clip-rule="evenodd"/><path fill="#F4BF4F" fill-rule="evenodd" d="M112 94c3.314 0 6-2.6863 6-6s-2.686-6-6-6-6 2.6863-6 6 2.686 6 6 6Z" clip-rule="evenodd"/><path fill="#61C554" fill-rule="evenodd" d="M132 94c3.314 0 6-2.6863 6-6s-2.686-6-6-6-6 2.6863-6 6 2.686 6 6 6Z" clip-rule="evenodd"/><path fill="#F6F8FC" d="M62 116h780v344H62z"/></g></g><rect width="136" height="19" x="86" y="148" fill="#CED9EB" opacity=".5" rx="9.5"/><rect width="200" height="56" x="86" y="190" fill="#fff" rx="4"/><rect width="199" height="55" x="86.5" y="190.5" stroke="#000" stroke-opacity=".38" rx="3.5"/><rect width="145" height="19" x="102" y="209" fill="#CED9EB" opacity=".5" rx="9.5"/><rect width="200" height="56" x="86" y="269" fill="#fff" rx="4"/><rect width="199" height="55" x="86.5" y="269.5" stroke="#000" stroke-opacity=".38" rx="3.5"/><rect width="165" height="19" x="102" y="288" fill="#CED9EB" opacity=".5" rx="9.5"/><rect width="200" height="56" x="310" y="190" fill="#fff" rx="4"/><rect width="199" height="55" x="310.5" y="190.5" stroke="#000" stroke-opacity=".38" rx="3.5"/><rect width="97" height="19" x="326" y="209" fill="#CED9EB" opacity=".5" rx="9.5"/></g><defs><clipPath id="a"><path fill="#fff" d="M0 0h541v357H0z"/></clipPath><clipPath id="c"><rect width="780" height="400" x="62" y="60" fill="#fff" rx="16"/></clipPath><filter id="b" width="940" height="580" x="-18" y="60" color-interpolation-filters="sRGB" filterUnits="userSpaceOnUse"><feFlood flood-opacity="0" result="BackgroundImageFix"/><feColorMatrix in="SourceAlpha" result="hardAlpha" values="0 0 0 0 0 0 0 0 0 0 0 0 0 0 0 0 0 0 127 0"/><feOffset dy="2.7673"/><feGaussianBlur stdDeviation="1.1069"/><feColorMatrix values="0 0 0 0 0 0 0 0 0 0 0 0 0 0 0 0 0 0 0.0196802 0"/><feBlend in2="BackgroundImageFix" result="effect1_dropShadow_213_106550"/><feColorMatrix in="SourceAlpha" result="hardAlpha" values="0 0 0 0 0 0 0 0 0 0 0 0 0 0 0 0 0 0 127 0"/><feOffset dy="6.6501"/><feGaussianBlur stdDeviation="2.66"/><feColorMatrix values="0 0 0 0 0 0 0 0 0 0 0 0 0 0 0 0 0 0 0.0282725 0"/><feBlend in2="effect1_dropShadow_213_106550" result="effect2_dropShadow_213_106550"/><feColorMatrix in="SourceAlpha" result="hardAlpha" values="0 0 0 0 0 0 0 0 0 0 0 0 0 0 0 0 0 0 127 0"/><feOffset dy="12.5216"/><feGaussianBlur stdDeviation="5.0086"/><feColorMatrix values="0 0 0 0 0 0 0 0 0 0 0 0 0 0 0 0 0 0 0.035 0"/><feBlend in2="effect2_dropShadow_213_106550" result="effect3_dropShadow_213_106550"/><feColorMatrix in="SourceAlpha" result="hardAlpha" values="0 0 0 0 0 0 0 0 0 0 0 0 0 0 0 0 0 0 127 0"/><feOffset dy="22.3363"/><feGaussianBlur stdDeviation="8.9345"/><feColorMatrix values="0 0 0 0 0 0 0 0 0 0 0 0 0 0 0 0 0 0 0.0417275 0"/><feBlend in2="effect3_dropShadow_213_106550" result="effect4_dropShadow_213_106550"/><feColorMatrix in="SourceAlpha" result="hardAlpha" values="0 0 0 0 0 0 0 0 0 0 0 0 0 0 0 0 0 0 127 0"/><feOffset dy="41.7776"/><feGaussianBlur stdDeviation="16.711"/><feColorMatrix values="0 0 0 0 0 0 0 0 0 0 0 0 0 0 0 0 0 0 0.0503198 0"/><feBlend in2="effect4_dropShadow_213_106550" result="effect5_dropShadow_213_106550"/><feColorMatrix in="SourceAlpha" result="hardAlpha" values="0 0 0 0 0 0 0 0 0 0 0 0 0 0 0 0 0 0 127 0"/><feOffset dy="100"/><feGaussianBlur stdDeviation="40"/><feColorMatrix values="0 0 0 0 0 0 0 0 0 0 0 0 0 0 0 0 0 0 0.07 0"/><feBlend in2="effect5_dropShadow_213_106550" result="effect6_dropShadow_213_106550"/><feBlend in="SourceGraphic" in2="effect6_dropShadow_213_106550" result="shape"/></filter></defs></svg>
