<svg xmlns="http://www.w3.org/2000/svg" fill="none" viewBox="0 0 541 357"><g clip-path="url(#a)"><path fill="#E7ECF5" d="M0 0h541v357H0z"/><g filter="url(#b)"><g clip-path="url(#c)"><path fill="#E2E7EE" d="M62 60h780v56H62z"/><path fill="#ED6A5E" fill-rule="evenodd" d="M92 94a6 6 0 1 0 0-12 6 6 0 0 0 0 12Z" clip-rule="evenodd"/><path fill="#F4BF4F" fill-rule="evenodd" d="M112 94a6 6 0 1 0 0-12 6 6 0 0 0 0 12Z" clip-rule="evenodd"/><path fill="#61C554" fill-rule="evenodd" d="M132 94a6 6 0 1 0 0-12 6 6 0 0 0 0 12Z" clip-rule="evenodd"/><path fill="#F6F8FC" d="M62 116h780v344H62z"/></g></g><g clip-path="url(#d)"><path fill="#fff" d="M62 117h1440v168H62z"/><path fill="#fff" d="M62 117h1440v120H62z"/><path fill="#0C419A" d="M187.18 200.35h1.34l2.1 6.48h-1.24l-.97-3.44a36.72 36.72 0 0 1-.58-2.14h-.04c-.18.73-.36 1.45-.58 2.14l-1.01 3.44h-1.16l2.14-6.48Zm-.87 3.84h3.04v.9h-3.04v-.9Zm5 3.54c0-.4.25-.76.68-1.05v-.03a.9.9 0 0 1-.43-.8c0-.36.25-.72.54-.9v-.04a1.7 1.7 0 0 1-.65-1.3c0-1.13.9-1.74 1.92-1.74.25 0 .5.03.72.1h1.74v.84h-.9c.14.18.28.47.28.83 0 1.09-.83 1.67-1.84 1.67-.22 0-.44-.04-.65-.15a.56.56 0 0 0-.26.47c0 .3.18.44.8.44h.87c1.16 0 1.77.36 1.77 1.2 0 .97-1.01 1.73-2.6 1.73-1.13 0-2-.4-2-1.27Zm3.54-.25c0-.36-.29-.47-.87-.47h-.65c-.25 0-.47-.04-.65-.07a.81.81 0 0 0-.36.65c0 .43.47.69 1.23.69s1.3-.37 1.3-.8Zm-.61-3.87c0-.62-.37-.98-.84-.98s-.83.36-.83.98c0 .61.36.97.83.97s.83-.36.83-.97Zm2.78-3.15c0-.4.3-.65.73-.65.4 0 .72.25.72.65 0 .36-.29.65-.72.65-.4 0-.73-.26-.73-.65Zm.15 1.52h1.16v4.88h-1.16v-4.88Zm2.93 0h.94l.07.87h.04c.36-.66.87-.98 1.37-.98.26 0 .4.03.55.1l-.18.98c-.18-.03-.3-.07-.51-.07-.4 0-.87.26-1.16 1.02v2.96h-1.16v-4.88h.04Zm6.04 2.42c0-1.59 1.1-2.57 2.25-2.57 1.3 0 2.03.94 2.03 2.32 0 .22-.04.43-.04.54h-3.11c.1.87.65 1.38 1.44 1.38.44 0 .76-.15 1.13-.36l.4.72c-.48.33-1.06.54-1.67.54-1.38 0-2.42-.94-2.42-2.57Zm3.3-.47c0-.76-.33-1.2-1.02-1.2-.57 0-1.08.44-1.15 1.2h2.17Zm2.39-1.95h.94l.07.65h.04c.43-.44.94-.8 1.6-.8 1.04 0 1.48.73 1.48 1.96v3.04h-1.16v-2.9c0-.8-.22-1.12-.76-1.12-.44 0-.73.22-1.13.61v3.4h-1.15v-4.84h.07Zm5.43 4.3.54-.72c.44.33.87.54 1.34.54.54 0 .8-.25.8-.58 0-.4-.55-.57-1.05-.8-.65-.25-1.38-.6-1.38-1.4 0-.84.69-1.45 1.78-1.45.68 0 1.23.29 1.62.58l-.5.69a1.79 1.79 0 0 0-1.09-.44c-.5 0-.72.22-.72.54 0 .4.5.55 1.01.73.65.25 1.41.58 1.41 1.48 0 .83-.65 1.52-1.88 1.52-.69 0-1.41-.29-1.88-.69Zm4.78-1.88c0-1.59 1.08-2.57 2.24-2.57 1.3 0 2.03.94 2.03 2.32 0 .22-.04.43-.04.54h-3.11c.1.87.65 1.38 1.45 1.38.43 0 .76-.15 1.12-.36l.4.72a2.95 2.95 0 0 1-1.67.54c-1.37 0-2.42-.94-2.42-2.57Zm3.25-.47c0-.76-.32-1.2-1.01-1.2-.58 0-1.08.44-1.16 1.2h2.17Zm2.43-1.95h.94l.07.65h.04c.4-.44.87-.8 1.48-.8.73 0 1.13.33 1.34.87.47-.5.94-.87 1.56-.87 1.01 0 1.52.73 1.52 1.96v3.04h-1.16v-2.9c0-.8-.25-1.12-.76-1.12-.32 0-.65.18-1.01.61v3.4h-1.16v-2.89c0-.8-.25-1.12-.76-1.12-.3 0-.65.18-1.01.61v3.4h-1.16v-4.84h.07Zm9.74 4.38-.15.5h-.9v-7.02h1.16v1.81l-.04.8c.4-.36.9-.62 1.41-.62 1.23 0 1.92.98 1.92 2.46 0 1.67-1.01 2.65-2.1 2.65-.4.03-.87-.18-1.3-.58Zm2.24-2c0-.97-.32-1.55-1.05-1.55-.36 0-.69.18-1.05.54v2.28c.33.3.69.4.98.4.61 0 1.12-.58 1.12-1.66Zm2.6 1.24v-5.76h1.17v5.83c0 .29.14.4.25.4.04 0 .1 0 .18-.04l.14.87c-.14.07-.32.1-.61.1-.83-.03-1.12-.57-1.12-1.4Zm2.72-1.2c0-1.59 1.09-2.57 2.25-2.57 1.3 0 2.02.94 2.02 2.32 0 .22-.03.43-.03.54h-3.11c.1.87.65 1.38 1.44 1.38.44 0 .76-.15 1.13-.36l.4.72c-.48.33-1.06.54-1.67.54-1.38 0-2.43-.94-2.43-2.57Zm3.26-.47c0-.76-.32-1.2-1.01-1.2-.58 0-1.09.44-1.16 1.2h2.17Zm3.11 1.49c-.43 0-.76.29-.76.68 0 .47.37.7.73.7h.07c0 .5-.36.97-1.01 1.19l.25.61c.98-.32 1.56-1.08 1.56-2.06 0-.69-.3-1.12-.84-1.12Zm4.82-3.44h.94l.07.5h.04c.4-.36.94-.65 1.48-.65 1.23 0 1.92.98 1.92 2.5 0 1.66-1.01 2.64-2.1 2.64-.43 0-.87-.18-1.27-.54l.04.8v1.52h-1.16v-6.77h.04Zm3.26 2.39c0-.98-.33-1.56-1.05-1.56-.37 0-.7.18-1.05.54v2.28c.36.3.68.4.97.4.62 0 1.13-.58 1.13-1.66Zm2.64-2.4h.94l.07.88h.04c.36-.66.87-.98 1.37-.98.26 0 .4.03.55.1l-.18.98c-.19-.03-.3-.07-.51-.07-.4 0-.87.26-1.16 1.02v2.96h-1.16v-4.88h.04Zm3.44 2.43c0-1.63 1.12-2.57 2.31-2.57 1.2 0 2.32.94 2.32 2.57s-1.12 2.57-2.32 2.57c-1.19 0-2.31-.94-2.31-2.57Zm3.44 0c0-.98-.44-1.63-1.16-1.63s-1.16.65-1.16 1.63c0 .98.43 1.63 1.16 1.63s1.16-.65 1.16-1.63Zm2.64.8v-2.32h-.69v-.87l.76-.03.15-1.34h.94v1.34h1.23v.9h-1.23v2.32c0 .58.21.87.68.87.19 0 .37-.07.51-.11l.18.83c-.25.07-.61.18-1.01.18-1.09 0-1.52-.72-1.52-1.77Zm3.3-.8c0-1.59 1.08-2.57 2.24-2.57 1.3 0 2.02.94 2.02 2.32 0 .22-.03.43-.03.54h-3.12c.11.87.66 1.38 1.45 1.38.44 0 .76-.15 1.12-.36l.4.72a2.94 2.94 0 0 1-1.66.54c-1.38 0-2.43-.94-2.43-2.57Zm3.25-.47c0-.76-.33-1.2-1.01-1.2-.58 0-1.09.44-1.16 1.2h2.17Zm-1.63-3.33 1.45-1.74.8.76-1.67 1.52-.58-.54Zm3.66 7.13c0-.4.25-.76.69-1.05v-.03a.9.9 0 0 1-.44-.8c0-.36.25-.72.54-.9v-.04a1.7 1.7 0 0 1-.65-1.3c0-1.13.9-1.74 1.92-1.74.25 0 .5.03.73.1h1.73v.84h-.9c.14.18.29.47.29.83 0 1.09-.84 1.67-1.85 1.67-.22 0-.43-.04-.65-.15a.56.56 0 0 0-.25.47c0 .3.18.44.8.44h.86c1.16 0 1.78.36 1.78 1.2 0 .97-1.02 1.73-2.61 1.73-1.12 0-2-.4-2-1.27Zm3.55-.25c0-.36-.3-.47-.87-.47h-.66c-.25 0-.47-.04-.65-.07a.81.81 0 0 0-.36.65c0 .43.47.69 1.23.69s1.3-.37 1.3-.8Zm-.62-3.87c0-.62-.36-.98-.83-.98s-.84.36-.84.98c0 .61.37.97.84.97s.83-.36.83-.97Zm2.39.8c0-1.6 1.08-2.58 2.24-2.58 1.3 0 2.03.94 2.03 2.32 0 .22-.04.43-.04.54h-3.1c.1.87.64 1.38 1.44 1.38.43 0 .76-.15 1.12-.36l.4.72a2.95 2.95 0 0 1-1.67.54c-1.37 0-2.42-.94-2.42-2.57Zm3.26-.48c0-.76-.33-1.2-1.02-1.2-.58 0-1.08.44-1.16 1.2h2.18Zm2.42-1.95h.94l.08.87h.03c.36-.66.87-.98 1.38-.98.25 0 .4.03.54.1l-.18.98c-.18-.03-.29-.07-.5-.07-.4 0-.88.26-1.17 1.02v2.96h-1.15v-4.88h.03Zm6.05 2.42c0-1.63 1.16-2.57 2.46-2.57.61 0 1.08.26 1.41.55l-.54.76c-.26-.22-.5-.37-.8-.37-.8 0-1.34.65-1.34 1.63 0 .98.54 1.63 1.3 1.63.4 0 .73-.18 1.02-.43l.47.76c-.47.4-1.05.61-1.6.61-1.37 0-2.38-.94-2.38-2.57Zm5.21-4.56h1.16v1.81l-.04.94c.4-.4.9-.72 1.56-.72 1.05 0 1.48.72 1.48 1.95v3.04h-1.16v-2.9c0-.79-.21-1.11-.76-1.11-.43 0-.72.21-1.12.61v3.4h-1.16v-7.02h.04Zm5.54 5.68c0-1.05.87-1.59 2.86-1.8 0-.51-.22-.98-.87-.98-.47 0-.94.21-1.38.47l-.43-.76a3.94 3.94 0 0 1 2-.65c1.22 0 1.8.76 1.8 2.1v2.9h-.9l-.08-.55h-.03c-.44.36-.94.65-1.52.65-.87.07-1.45-.5-1.45-1.38Zm2.86.04v-1.09c-1.34.19-1.78.51-1.78 1.02 0 .43.3.61.7.61.43-.03.72-.21 1.08-.54Zm2.5-1.16c0-1.63 1.15-2.57 2.46-2.57.61 0 1.08.26 1.41.55l-.54.76c-.26-.22-.51-.37-.8-.37-.8 0-1.34.65-1.34 1.63 0 .98.54 1.63 1.3 1.63.4 0 .73-.18 1.02-.43l.47.76c-.47.4-1.05.61-1.6.61-1.37 0-2.38-.94-2.38-2.57Zm5.14.62v-3.04h1.16v2.9c0 .79.21 1.12.76 1.12.43 0 .72-.19 1.08-.7v-3.32h1.16v4.88h-.94l-.07-.72h-.08c-.43.5-.9.83-1.55.83-1.05 0-1.52-.72-1.52-1.95Zm5.83-3.04h.94l.07.65h.03c.44-.44.95-.8 1.6-.8 1.05 0 1.48.73 1.48 1.96v3.04h-1.08v-2.9c0-.8-.22-1.12-.76-1.12-.44 0-.73.22-1.13.61v3.4h-1.16v-4.84Zm-203.05-24.73-.43-.4c.18-.21.32-.47.36-.72 0-.29-.1-.43-.25-.43-.18 0-.26.14-.36.43l-.19.4c-.14.29-.4.58-.83.58-.5-.04-.87-.47-.83-1.12 0-.37.18-.7.43-.95l.4.37a.94.94 0 0 0-.25.61c0 .22.07.4.25.4s.26-.18.36-.43l.19-.37c.18-.36.43-.58.83-.54.5.04.9.47.87 1.2-.08.25-.26.68-.55.97Zm-2.78-4.3-.51-.87.47-.3.43.91-.4.26Zm.36.68.29-1.88.58.07-.18 1.2.61.07.15-1.01.58.07-.15 1.01.69.11.18-1.23.58.07-.29 1.92-3.04-.4Zm1.92-2.64c-.98-.25-1.38-1.01-1.2-1.77.11-.37.36-.65.62-.8l.32.47c-.18.11-.32.25-.36.47-.1.4.18.8.76.94.62.15 1.02-.03 1.12-.47a.7.7 0 0 0-.14-.65l.5-.25c.22.32.3.68.19 1.05-.15.8-.84 1.26-1.81 1.01Zm.94-3.15-1.52-.58.25-.65 1.6.62c.54.21.8.1.94-.22.1-.33 0-.58-.55-.8l-1.59-.61.22-.62 1.52.58c.94.36 1.2.9.94 1.63-.3.76-.87.98-1.81.65Zm-.04-4.27.5-.98c.3-.58.73-.94 1.38-.61.62.32.66.9.33 1.48l-.18.36.98.51-.33.62-2.68-1.38Zm1.7-.29c.18-.33.11-.54-.14-.69-.26-.14-.44 0-.62.3l-.14.32.72.4.18-.33Zm.3.25-.19-.61 1.96-.07-.37.68h-1.4Zm-.26-3.22.36-.58 2.54 1.63-.37.58-2.53-1.63Zm1.92-1.8-.5.64-.48-.36 1.41-1.84.47.36-.5.65 1.95 1.48-.4.55-1.95-1.49Zm1.2-2.47 1.3-1.38.43.4-.83.87.43.4.69-.76.43.4-.68.76.5.47.87-.9.44.4-1.3 1.4-2.29-2.06Zm.06-.76.08-1.01.58.03-.18.98h-.48Zm5-.58.04-.61c.29 0 .58-.04.76-.22.21-.18.25-.36.14-.5-.1-.15-.29-.12-.58 0l-.4.1c-.32.1-.72.07-.97-.29-.3-.4-.18-.98.29-1.38a1.45 1.45 0 0 1 1.01-.28v.54c-.25 0-.43.03-.65.18-.18.14-.26.32-.15.43.11.15.33.08.58 0l.4-.1c.4-.11.72-.08.98.28.29.4.25.98-.33 1.45a1.44 1.44 0 0 1-1.12.4Zm1.85-2.9c-.51-.83-.33-1.62.36-2.02.69-.44 1.45-.22 1.95.61.51.84.33 1.63-.36 2.07-.65.4-1.45.18-1.95-.66Zm1.77-1.05c-.33-.5-.72-.68-1.09-.47-.36.22-.4.66-.07 1.16.33.51.73.73 1.09.51.32-.22.36-.69.07-1.2Zm1.45-.83c-.44-.9-.07-1.7.61-2.02a1.16 1.16 0 0 1 .98-.04l-.14.54a.8.8 0 0 0-.58 0c-.37.18-.5.65-.26 1.2.26.58.7.76 1.09.58a.7.7 0 0 0 .4-.51l.5.25c-.1.36-.32.65-.68.8-.7.32-1.49.1-1.92-.8Zm2.68-2.82.65-.22 1.05 2.83-.65.21-1.05-2.82Zm2.71-.9.8-.22 1.7 2.68-.69.18-.76-1.38a18.06 18.06 0 0 1-.47-.87c0 .33.04.7.04 1.02v1.59l-.69.18.07-3.19Zm.15 1.77 1.4-.36.15.5-1.4.36-.15-.5Zm2.68-2.46.68-.11.37 2.42 1.15-.18.08.58-1.85.3-.43-3.01Zm2.93-.4 1.88-.11.04.58-1.2.07.04.62 1.01-.08.04.58-1.01.08.03.68 1.27-.07.03.58-1.92.1-.21-3.03Zm70.3 44.92v-14.48h3.8v14.63c0 .83.36 1.08.68 1.08.15 0 .26 0 .48-.03l.47 2.86c-.44.18-1.05.32-1.92.32-2.6.04-3.51-1.74-3.51-4.38Zm-24.4-4.63c.32-1.05 3.73-8.55 3.73-8.55h4.01v17.27h-3.62v-10.68l-3 7.75h-2.32l-3-7.75v10.68h-3.62v-17.27h4.02s3.36 7.5 3.73 8.55h.07Zm31.38 5.07c0-2.76 2.32-4.31 7.42-4.85-.07-1.16-.8-1.85-2.2-1.85-1.09 0-2.18.47-3.4 1.2l-1.35-2.58a10.41 10.41 0 0 1 5.5-1.73c3.3 0 5.11 1.91 5.11 5.93v7.5h-3.62v-1.27s-1.48 1.6-3.58 1.6c-2.4.03-3.88-1.75-3.88-3.95Zm7.42-.22v-2.28c-2.71.36-3.76 1.23-3.76 2.2 0 .84.58 1.27 1.48 1.27.84-.03 1.6-.5 2.28-1.2Zm-28.41.22c0-2.76 2.31-4.31 7.42-4.85-.07-1.16-.8-1.85-2.21-1.85-1.09 0-2.17.47-3.4 1.2l-1.34-2.58a10.41 10.41 0 0 1 5.5-1.73c3.3 0 5.1 1.91 5.1 5.93v7.5h-3.62v-1.27s-1.48 1.6-3.58 1.6c-2.39.03-3.87-1.75-3.87-3.95Zm7.42-.22v-2.28c-2.72.36-3.77 1.23-3.77 2.2 0 .84.58 1.27 1.49 1.27.83-.03 1.6-.5 2.28-1.2Zm35.4-14.7v6.37a4.12 4.12 0 0 0-3.15-1.26c-2.71 0-5.32 2.6-5.32 6.87 0 4.31 2.06 6.88 5.25 6.88 1.74 0 3.11-1.3 3.22-1.41v1.12h3.8v-18.57h-3.8Zm-2.24 15.71c-1.49 0-2.36-1.16-2.36-3.73 0-2.5 1.09-3.65 2.32-3.65.69 0 1.45.21 2.28.83v5.4c-.76.83-1.41 1.15-2.24 1.15Zm8.97-14.22c0-1.2.94-2.03 2.21-2.03s2.21.83 2.21 2.03c0 1.2-.94 2.02-2.2 2.02-1.28 0-2.22-.87-2.22-2.02Zm.3 3.94h3.8v13.14h-3.8v-13.14Zm6.18 6.55c0-4.27 2.68-6.87 5.9-6.87 3.66 0 5.69 2.71 5.69 6.3 0 .68-.08 1.4-.15 1.73h-7.7c.32 1.92 1.62 2.79 3.32 2.79.98 0 1.81-.4 2.75-.94l1.3 2.42a8.15 8.15 0 0 1-4.55 1.49c-3.8 0-6.56-2.54-6.56-6.92Zm8.33-1.4c0-1.46-.83-2.5-2.35-2.5-1.2 0-2.03.83-2.28 2.5h4.63Zm-82.57-17.82v-14.48h3.8v14.63c0 .83.36 1.08.69 1.08.14 0 .25 0 .47-.03l.47 2.86c-.44.18-1.05.32-1.92.32-2.64 0-3.51-1.74-3.51-4.38Zm20.2-.03 1.05 4.12h3.94l-5.32-17.26h-4.38l-5.32 17.26h3.95l1.05-4.12h5.03Zm-4.24-3.05 1.67-6.55h.14l1.67 6.55h-3.48Zm10 5.65 1.7-2.42a5.46 5.46 0 0 0 3.33 1.37c1.12 0 1.62-.43 1.62-1.12 0-.87-1.26-1.27-2.6-1.77-1.6-.62-3.4-1.7-3.4-3.88 0-2.46 1.95-4.12 4.92-4.12 1.95 0 3.44.8 4.52 1.66l-1.7 2.35a4.63 4.63 0 0 0-2.71-1.12c-.98 0-1.49.4-1.49 1.05 0 .83 1.2 1.16 2.54 1.67 1.63.61 3.47 1.55 3.47 3.94 0 2.4-1.84 4.24-5.28 4.24a8.5 8.5 0 0 1-4.93-1.85Zm11.4 0 1.7-2.42a5.47 5.47 0 0 0 3.33 1.37c1.12 0 1.63-.43 1.63-1.12 0-.87-1.27-1.27-2.6-1.77-1.6-.62-3.41-1.7-3.41-3.88 0-2.46 1.95-4.12 4.92-4.12 1.96 0 3.44.8 4.53 1.66l-1.7 2.35a4.63 4.63 0 0 0-2.72-1.12c-.98 0-1.48.4-1.48 1.05 0 .83 1.2 1.16 2.53 1.67 1.63.61 3.47 1.55 3.47 3.94 0 2.4-1.84 4.24-5.28 4.24a8.5 8.5 0 0 1-4.92-1.85Zm26.96-11.62h3.8v1.88c.73-1.44 2.5-1.95 3.4-1.95.73 0 1.17.1 1.53.25l-.4 3.55c-.5-.14-1.09-.4-1.63-.4-1.48.04-2.79 1.3-2.9 2.97v6.84h-3.8v-13.14Zm23.46 0h3.8v1.67c1.09-1.05 2.17-2 3.95-2 2.79 0 3.98 2.03 3.98 5.3v8.14h-3.8v-7.68c0-1.88-.5-2.5-1.6-2.5-.93 0-1.66.47-2.5 1.27v8.87h-3.8v-13.07h-.03Zm24.9 6.55c0-4.27 2.69-6.87 5.9-6.87 3.66 0 5.7 2.71 5.7 6.3 0 .68-.08 1.4-.15 1.73h-7.71c.32 1.92 1.63 2.79 3.33 2.79.97 0 1.8-.4 2.75-.94l1.3 2.42a8.15 8.15 0 0 1-4.56 1.49c-3.77-.04-6.55-2.57-6.55-6.92Zm8.37-1.4c0-1.46-.83-2.5-2.35-2.5-1.2 0-2.03.83-2.28 2.5h4.63Zm-47.17 4.34c0-2.76 2.32-4.31 7.42-4.85-.07-1.16-.8-1.85-2.2-1.85-1.1 0-2.18.47-3.4 1.2l-1.35-2.58a10.41 10.41 0 0 1 5.5-1.73c3.3 0 5.1 1.91 5.1 5.93v7.5h-3.61v-1.27s-1.48 1.6-3.58 1.6c-2.4 0-3.88-1.75-3.88-3.95Zm7.42-.22v-2.28c-2.71.36-3.76 1.23-3.76 2.2 0 .84.58 1.27 1.48 1.27.87-.03 1.63-.5 2.28-1.2Zm-72.5-14.77c-.8 0-1.89.62-1.89 1.7 0 .98.76 1.56 1.56 1.56h.1c-.03 1.16-1.08 1.8-1.58 2.1l1 1.4c3.34-1.04 4.03-6.72.8-6.76Zm48.58 5.5v8.69c-.76 1.05-1.34 1.45-2.28 1.45-1.1 0-1.6-.58-1.6-2.5v-7.64h-3.8v8.3c0 3.1 1.34 5.17 4.06 5.17 2.46 0 3.69-1.67 3.69-1.67v1.34h3.76v-13.14h-3.83Zm50.96 10.32c-1.66 0-2.9-1.49-2.9-3.73 0-2.28 1.2-3.76 3.01-3.76.58 0 1.09.21 1.67.72l1.8-2.5a5.53 5.53 0 0 0-3.68-1.34c-3.55 0-6.67 2.54-6.67 6.88s2.72 6.88 6.3 6.88c1.42 0 3-.44 4.24-1.56l-1.38-2.64a3.76 3.76 0 0 1-2.39 1.05Zm-141.5-15.64c-.07-.14-.32-.25-.5-.29-.22-.04-.33-.04-.33-.04-.25-.07-5.29 0-6.48.8-.11-.8-.4-1.77-1.77-2.06-.98-.22-3.08.72-2.4 2.82.11.36.37.62.73.8.18.1.47.03.69.61.07.15.18.15.29.11.07-.03.1 0 .21.07.11.08.18.04.18.04s.04.04.11.04c.04 0 .19-.04.19 0 .4.32.86-.18 1.05-.51l.65 1.95c-.15-.14-1.74-.57-2.5.26-.65.72-1.16 1.74-1.7 3.44-.15.47-.44.68-.98.9-.87.33-.36.73-.14.76.54.11 1.77.04 2.02-.07.33-.15.08-.9.44-1.38.32-.4.58-.76.8-1 0 .53 0 .82-.3 1.51-.25.65-1.05.98-1.3 1.27-.43.54.54.58.8.5.65-.21 1.08-.21 1.34-.36.36-.21.1-.8.21-1.01.33-.65 1.45-2.06 1.6-2.28.03-.04.03-.07.03-.11.8.25 1.7.33 2.03.29 1.84-.22 2.24-1.52 2.06-2.57-.18-.94-.76-1.52-.94-1.81-.47-.76-.76-1.16-.94-1.38.54-.14 3.47-.94 3.47-.9.11.25.37.29.44.36.18.11.29-.07.22-.1-.15-.12-.18-.19-.18-.19.25 0 .47.04.65.04.29.03.4-.4.25-.5Z"/><path fill="#0C419A" fill-rule="evenodd" d="M178.92 171.68c-.47-2.54-2.82-4.1-4.05-4.64-.83-.36-1.2-.43-1.34-.46-.18-.08-.33-.11-.4-.15.07-.54.73-.58 1.12-1.38 1.09-2.24-1.15-3.8-2.78-3.44-.8.19-1.3.44-1.45 1.05-.08.33-.33.33-.73.77-.14.14.15.36.22.47 0 .03-.07.14-.1.29-.04.14 0 .1 0 .14 0 0-.08.14-.08.33 0 0-.18.36 0 .76.04.1.25.32.33.83 0 .07 0 .1-.3 0-.07-.04-3.07-.9-3.4-1.12a37.54 37.54 0 0 1-3.65-4.1c-.18-.36-.36-.57-.47-.57-.7.03.5 1.3-.18.87a10.94 10.94 0 0 1-.73-.51c-.14-.11-.1-.07-.18-.22-.07-.14-.14-.25-.22-.29-.07-.03-.1-.07-.18-.07-.1.04-.07.1-.1.1h-.12c-.18.04-.03.48 0 .7 0 .03.48 1.15.62 1.33.76.51 1.48.98 1.52.98.83.94 1.77 2.14 2.64 3.04.7.73 3.8 2.54 3.88 2.57.21.11.54.8.07 5.54-.18 1.78-1.45 5.58-.83 7.53.4 1.27.83 2.14 1.3 5.61.1.76-.5 1.27-1.38 1.88-.32.26-1.3.84-1.37.91-.15.14 0 .36.18.47.22.07.58.29.8.33.36.07.9.03 1.48-.3.62-.36.69-.4 1.05-.65.43-.25.94-.32 1.09-.76.18-.57-.33-1.4-.26-1.77.37-2.71.84-4.05.15-5.72-.15-.32.98-3.94 1.08-3.47.19.94.26 3.8.3 5.9 0 .94.75 4.2 1 5.4.37 1.8-2.67 3.25-2.02 3.8.14.1.54.28.9.35.44.08.77 0 1.13-.14.21-.07.54-.47.61-.54.65-.8.44-.58.98-1.16.43-.5.1-1.38.07-1.81-.1-.9 0-1.16-.03-2.83 0-1.92.1-2.46.21-3.18.47-3.19.76-4.93.94-6.26V178s.22.08.33-.07c.18-.29.15-.54.18-.72.04-.18.1.03.1.03s.15.44.15.58c0 .22-.14.47-.25.8-.1.36.18.4.25.43a3.9 3.9 0 0 0 1.16-.9c.15-.3.11-.65.15-.83.03-.48-.26-1.81-.26-1.81.22-.9 1.02-3.19.87-3.84Zm-2.17 3.65c-.1.44-.14.04-.54 1.7l.03-.25v-.72c0-2.06-1.59-6.48-.61-5.58 0 0 1.16.8 1.37 1.42.18.54.15 1.84-.25 3.44Z" clip-rule="evenodd"/><path fill="#0C419A" d="M138.05 180.3c-.36-.33-1.63-2.03-2.42-2.72-.54-.58-.69-.87-1.12-1.49-1.49-1.95-1.81-2.1-2.83-2.24-.21-.14-.14-.29-.1-.32 1.33-.51.9-1.67.86-1.7-.07-.26.11-.37.11-.62 0-.4-.07-.69-.18-.98.04-.18.07-.43-.1-.69-.73-.9-2.54-.94-3.48-.32-.76.5-.33.87-.55 1.63-.14.43 0 .83.3 1.15.03.26.79.73.64 1.23-.14.55-1 .66-1 .66-.12.03-.19.07-.26.1-1.38.8-2.72 1.96-2.9 3.2.07 1 1.67 2.49 2.68 3.28a17.82 17.82 0 0 0 1.3 4.5c.15.32-.32-.26-1.4-.62-.55-.18-1.24-.9-1.42-.04-.07.36.07.98-.25 1.78-.26.57.03 1.52.68 1.52.48 0 .76-1.45.76-1.45s2.29 1.12 3.37.76c.65-.22.8-2.75.15-5.03-.22-.8.4 1.3 1.91 3.11.33.4.04.72.26 2.24.07.58.07.73.07.98-.04.73-.72 1.6.87 2 1.63.43 1.48.79 2.5.1.47-.29-1.41-.5-1.78-1.6l-.03-.24c-.04-.87.36-2.86.21-3.59-.57-3.44-2.02-5.03-2.2-5.83 0-2.39-.18-3.15.03-2.6.04.1.55.94 1.05 1.59a.94.94 0 0 0 .18.22c.15.18.3.32.44.4 1.01.86 2.6 1.91 2.82 2.13 0 0 .11 1.05.54.98.4-.07 2.32-.9 2.28-1.12-.07-.3-1.95-.3-1.99-.37Zm-10.42-1.3c-.3-.55-1.09-1.6-1.01-1.78.43-.73.9-.94 1.05-.9.1.03-.04 2.67-.04 2.67Z"/><path fill="#0C419A" d="M169.76 199.77c-.07-.04-1.19-.47-2.2-2.06-.44-.73-3.8-6.92-4.24-8.11-.9-2.4-7.96-6.7-8.25-6.95-.22-.18-.18-.58-.11-.87.58-2.03.36-3.8.47-4.1.29-.68.72-1.66.4-2.3l-.73-1.17s3.73 1.34 4.6 1.16c.76-.14 4.49-2.75 4.7-2.86.51-.25 1.78.11 3.05-1.27.47-.5.14-.68.03-.61.04-.04-.21-.26-.43-.11-.29.18-1.34.47-1.16.33.76-.58.22-.73.22-.73-.33.3-1.81.65-2.14.9-.32.3-.58.51-.72.62-.9.5-2.46 1.27-4.02 1.63-.32.07-3.3-1.88-5.03-2.13a3.37 3.37 0 0 0-1.77.07c-.62.18-.58-.73-.11-.94.25-.11.65-.18.8-.47.17-.37-.04-.7-.04-.76 0-.04.03-.08-.04-.22-.04-.11-.04-.04-.04-.15a.52.52 0 0 0-.07-.21c0-.04 0-.18.04-.22.36-.29.21-.44.14-.47-.1-.11-.65-.33-.69-.69-.07-.58-.28-.87-.36-1.16-.03-.1-.1-.8-.4-1.05-.36-.32-1.12-.72-2.78-.29-.54.15-.44.4-1.74.65-1.6.3-2.46 2.65-2.32 3.62.11.8.8.4.76.76-.03.55-.1 1.45 1.05 1.78.26.07 1.78-.18 2.36-.07 0 0 .47.03.21.5-.1.22-1.63.84-2.02.98-.98.4-3.55 4.6-4.31 5a9.69 9.69 0 0 0-1.3.76c-1.05.65-2.07 1.48-2.65 1.44-.76-.03-1.37.33-1.88 1.45-.14.33-.07.5.22.58.1.11.25.26.47.26.22.21.47.07.69-.04.58-.33.72-.58.94-.65.58-.18 3.98-1.52 4.74-2.1 1.16-.62 3.47-3 3.98-3.04.47-.04 1.63 1.01 1.27 3.04-.11.69-.98 1.92-1.45 2.64-.94 1.41-.22 2.68-.4 2.97-.97 1.6-2.17 3.73-4.2 5.54-.8.5-2.42.61-3.33.87-2.03.57-4.16 2.02-5.68 2.9-.5.28-.98-.33-1.63-.4-.61-.08-.69.9-1.01 1.77-.11.25-.15.4-.62 1.48-.18.44-.69 1.7-.18 2.25.47.65 1.56-1.38 2.43-2.36.43-.5.72-.69 1.7-.9.61-.15 5.57-1.49 8.83-2.21a.67.67 0 0 0 .25-.07c4.24-1.09 8.62-6.63 8.7-6.6l7.2 3.56c.72.4.72 1.77 1.59 3.4.5.98 1.26 1.8 4.34 4.81.4.4.07 1.02.25 1.63.19.65.51.65 1.1.62.53-.04 1-.15 1.55-.18.68-.04.5.03 1.3.14.4.07 1.27.18 1.92-.43 1.12-1.2-1.16-.62-2.25-1.16Z"/><path fill="#0C419A" d="M161.98 196.66a.42.42 0 0 0-.58-.18 22.2 22.2 0 0 1-9.99 2.38 22.06 22.06 0 0 1-11-2.93.5.5 0 0 0-.62.15.5.5 0 0 0 .15.61 23.01 23.01 0 0 0 11.43 3.04c3.62 0 7.2-.87 10.4-2.5a.41.41 0 0 0 .21-.57Zm-31.1-28.78c-.07 0-.1 0-.17-.04-.22-.1-.33-.36-.22-.58a23.12 23.12 0 0 1 9.34-10.35.5.5 0 0 1 .61.14.5.5 0 0 1-.14.62 21.77 21.77 0 0 0-8.98 9.95.47.47 0 0 1-.43.26Zm37.4-5.61c-.1 0-.25-.04-.33-.15a21.99 21.99 0 0 0-13.42-7.24c-.26-.03-.4-.25-.37-.5.04-.26.26-.4.51-.37a22.96 22.96 0 0 1 13.97 7.53c.15.18.15.47-.03.62a.58.58 0 0 1-.33.1ZM62 237h1440v48H62z"/></g><rect width="106" height="20" x="118" y="251" fill="#fff" opacity=".5" rx="10"/><rect width="95" height="20" x="245" y="251" fill="#fff" opacity=".5" rx="10"/></g><defs><clipPath id="a"><path fill="#fff" d="M0 0h541v357H0z"/></clipPath><clipPath id="c"><rect width="780" height="400" x="62" y="60" fill="#fff" rx="16"/></clipPath><clipPath id="d"><path fill="#fff" d="M62 117h1440v168H62z"/></clipPath><filter id="b" width="940" height="580" x="-18" y="60" color-interpolation-filters="sRGB" filterUnits="userSpaceOnUse"><feFlood flood-opacity="0" result="BackgroundImageFix"/><feColorMatrix in="SourceAlpha" result="hardAlpha" values="0 0 0 0 0 0 0 0 0 0 0 0 0 0 0 0 0 0 127 0"/><feOffset dy="2.77"/><feGaussianBlur stdDeviation="1.11"/><feColorMatrix values="0 0 0 0 0 0 0 0 0 0 0 0 0 0 0 0 0 0 0.0196802 0"/><feBlend in2="BackgroundImageFix" result="effect1_dropShadow_248_105939"/><feColorMatrix in="SourceAlpha" result="hardAlpha" values="0 0 0 0 0 0 0 0 0 0 0 0 0 0 0 0 0 0 127 0"/><feOffset dy="6.65"/><feGaussianBlur stdDeviation="2.66"/><feColorMatrix values="0 0 0 0 0 0 0 0 0 0 0 0 0 0 0 0 0 0 0.0282725 0"/><feBlend in2="effect1_dropShadow_248_105939" result="effect2_dropShadow_248_105939"/><feColorMatrix in="SourceAlpha" result="hardAlpha" values="0 0 0 0 0 0 0 0 0 0 0 0 0 0 0 0 0 0 127 0"/><feOffset dy="12.52"/><feGaussianBlur stdDeviation="5.01"/><feColorMatrix values="0 0 0 0 0 0 0 0 0 0 0 0 0 0 0 0 0 0 0.035 0"/><feBlend in2="effect2_dropShadow_248_105939" result="effect3_dropShadow_248_105939"/><feColorMatrix in="SourceAlpha" result="hardAlpha" values="0 0 0 0 0 0 0 0 0 0 0 0 0 0 0 0 0 0 127 0"/><feOffset dy="22.34"/><feGaussianBlur stdDeviation="8.94"/><feColorMatrix values="0 0 0 0 0 0 0 0 0 0 0 0 0 0 0 0 0 0 0.0417275 0"/><feBlend in2="effect3_dropShadow_248_105939" result="effect4_dropShadow_248_105939"/><feColorMatrix in="SourceAlpha" result="hardAlpha" values="0 0 0 0 0 0 0 0 0 0 0 0 0 0 0 0 0 0 127 0"/><feOffset dy="41.78"/><feGaussianBlur stdDeviation="16.71"/><feColorMatrix values="0 0 0 0 0 0 0 0 0 0 0 0 0 0 0 0 0 0 0.0503198 0"/><feBlend in2="effect4_dropShadow_248_105939" result="effect5_dropShadow_248_105939"/><feColorMatrix in="SourceAlpha" result="hardAlpha" values="0 0 0 0 0 0 0 0 0 0 0 0 0 0 0 0 0 0 127 0"/><feOffset dy="100"/><feGaussianBlur stdDeviation="40"/><feColorMatrix values="0 0 0 0 0 0 0 0 0 0 0 0 0 0 0 0 0 0 0.07 0"/><feBlend in2="effect5_dropShadow_248_105939" result="effect6_dropShadow_248_105939"/><feBlend in="SourceGraphic" in2="effect6_dropShadow_248_105939" result="shape"/></filter></defs></svg>
