<svg xmlns="http://www.w3.org/2000/svg" width="541" height="357" fill="none"><path fill="#E7ECF5" d="M0 0h541v357H0z"/><path fill="#fff" d="M63 88h415v181H63z"/><path fill="#0C419A" d="M371.519 182.747h2.582v-1.291h-2.582v1.291ZM367 175v1.291h11.62V175H367Zm1.937 4.519h7.747v-1.291h-7.747v1.291Z"/><rect width="86" height="19" x="163" y="169" fill="#CED9EB" opacity=".5" rx="9.5"/><rect width="86" height="19" x="263" y="169" fill="#CED9EB" opacity=".5" rx="9.5"/><path fill="#0C419A" d="m339.695 177.787-.787-.787-2.561 2.555-2.56-2.555-.787.787 3.347 3.347 3.348-3.347ZM239.695 177.787l-.787-.787-2.561 2.555-2.56-2.555-.787.787 3.347 3.347 3.348-3.347Z"/></svg>