<svg xmlns="http://www.w3.org/2000/svg" width="541" height="357" fill="none"><path fill="#E7ECF5" d="M0 0h541v357H0z"/><path fill="#fff" d="M63 88h415v181H63z"/><rect width="72" height="20" x="88" y="168" fill="#CED9EB" opacity=".5" rx="10"/><rect width="73" height="20" x="172" y="168" fill="#CED9EB" opacity=".5" rx="10"/><rect width="72" height="20" x="257" y="168" fill="#CED9EB" opacity=".5" rx="10"/><rect width="111" height="35" x="341.5" y="160.5" stroke="#0C419A" rx="3.5"/><path fill="#0C419A" d="M358.328 184v-10.464h6.32v1.568h-4.464v2.96h3.808v1.568h-3.808V184h-1.856Zm7.724 0v-7.856h1.52l.128 1.392h.064c.277-.512.613-.901 1.008-1.168.394-.277.8-.416 1.216-.416.373 0 .672.054.896.16l-.32 1.6a3.706 3.706 0 0 0-.384-.096 2.51 2.51 0 0 0-.432-.032c-.31 0-.635.123-.976.368-.342.235-.635.651-.88 1.248v4.8h-1.84Zm7.491.192c-.683 0-1.243-.213-1.68-.64-.427-.426-.64-.981-.64-1.664 0-.842.368-1.493 1.104-1.952.736-.469 1.909-.789 3.52-.96-.011-.416-.123-.773-.336-1.072-.203-.309-.571-.464-1.104-.464a3.04 3.04 0 0 0-1.136.224c-.363.15-.72.331-1.072.544l-.672-1.232a7.901 7.901 0 0 1 1.472-.72 5.1 5.1 0 0 1 1.76-.304c.981 0 1.712.294 2.192.88.49.576.736 1.414.736 2.512V184h-1.52l-.128-.864h-.064c-.352.299-.731.55-1.136.752a2.793 2.793 0 0 1-1.296.304Zm.592-1.44c.32 0 .608-.074.864-.224a5.73 5.73 0 0 0 .848-.64v-1.76c-1.067.139-1.808.347-2.224.624-.416.267-.624.598-.624.992 0 .352.106.608.32.768.213.16.485.24.816.24Zm5.794 1.248v-7.856h1.52l.128 1.056h.064a6.148 6.148 0 0 1 1.152-.88c.416-.245.89-.368 1.424-.368.842 0 1.456.272 1.84.816.384.544.576 1.312.576 2.304V184h-1.84v-4.688c0-.65-.096-1.109-.288-1.376-.192-.266-.507-.4-.944-.4-.342 0-.646.086-.912.256-.256.16-.55.4-.88.72V184h-1.84Zm12.273.192c-.715 0-1.36-.16-1.936-.48a3.664 3.664 0 0 1-1.36-1.408c-.331-.618-.496-1.36-.496-2.224 0-.874.181-1.616.544-2.224a3.646 3.646 0 0 1 1.44-1.408 4.029 4.029 0 0 1 1.952-.496c.501 0 .938.086 1.312.256.373.171.704.379.992.624l-.896 1.2a2.469 2.469 0 0 0-.624-.416 1.529 1.529 0 0 0-.688-.16c-.63 0-1.147.24-1.552.72-.395.48-.592 1.115-.592 1.904 0 .779.192 1.408.576 1.888.394.48.901.72 1.52.72.309 0 .597-.064.864-.192.277-.138.528-.298.752-.48l.752 1.216c-.363.32-.768.56-1.216.72-.448.16-.896.24-1.344.24Zm-1.728 3.536-.16-.8c.65-.042 1.093-.122 1.328-.24.245-.106.368-.277.368-.512 0-.181-.091-.33-.272-.448-.171-.117-.491-.208-.96-.272l.736-1.504h1.12l-.464 1.04c.384.096.677.23.88.4.213.182.32.438.32.768 0 .502-.256.875-.768 1.12-.502.256-1.211.406-2.128.448Zm7.626-3.536c-.683 0-1.243-.213-1.68-.64-.427-.426-.64-.981-.64-1.664 0-.842.368-1.493 1.104-1.952.736-.469 1.909-.789 3.52-.96-.011-.416-.123-.773-.336-1.072-.203-.309-.571-.464-1.104-.464a3.04 3.04 0 0 0-1.136.224c-.363.15-.72.331-1.072.544l-.672-1.232a7.901 7.901 0 0 1 1.472-.72 5.103 5.103 0 0 1 1.76-.304c.981 0 1.712.294 2.192.88.491.576.736 1.414.736 2.512V184h-1.52l-.128-.864h-.064c-.352.299-.731.55-1.136.752a2.793 2.793 0 0 1-1.296.304Zm.592-1.44c.32 0 .608-.074.864-.224.267-.16.549-.373.848-.64v-1.76c-1.067.139-1.808.347-2.224.624-.416.267-.624.598-.624.992 0 .352.107.608.32.768.213.16.485.24.816.24Zm5.794 1.248v-7.856h1.84V184h-1.84Zm.928-9.232c-.331 0-.597-.096-.8-.288-.203-.192-.304-.448-.304-.768 0-.309.101-.56.304-.752.203-.192.469-.288.8-.288.331 0 .597.096.8.288.203.192.304.443.304.752 0 .32-.101.576-.304.768-.203.192-.469.288-.8.288Zm5.492 9.424a4.465 4.465 0 0 1-1.6-.304 5.295 5.295 0 0 1-1.376-.784l.864-1.184c.352.267.704.48 1.056.64.352.16.725.24 1.12.24.426 0 .741-.09.944-.272a.867.867 0 0 0 .304-.672.67.67 0 0 0-.256-.544 2.087 2.087 0 0 0-.624-.384 14.464 14.464 0 0 0-.8-.336 8.502 8.502 0 0 1-1.024-.464 2.658 2.658 0 0 1-.816-.72c-.214-.298-.32-.666-.32-1.104 0-.693.256-1.258.768-1.696.512-.437 1.205-.656 2.08-.656.554 0 1.05.096 1.488.288.437.192.816.411 1.136.656l-.848 1.12a4.068 4.068 0 0 0-.848-.48 2.079 2.079 0 0 0-.88-.192c-.395 0-.688.086-.88.256a.758.758 0 0 0-.288.608c0 .31.16.544.48.704.32.16.693.315 1.12.464.362.128.714.288 1.056.48.341.182.624.422.848.72.234.299.352.694.352 1.184 0 .672-.262 1.248-.784 1.728-.523.47-1.28.704-2.272.704Z"/><g clip-path="url(#a)"><path fill="#0C419A" d="M432.06 175.727 429 178.78l-3.06-3.053-.94.94 4 4 4-4-.94-.94Z"/></g><defs><clipPath id="a"><path fill="#fff" d="M421 170h16v16h-16z"/></clipPath></defs></svg>
