<svg xmlns="http://www.w3.org/2000/svg" width="541" height="357" fill="none"><path fill="#E7ECF5" d="M0 0h541v357H0z"/><path fill="#fff" d="M63 88h415v181H63z"/><rect width="200" height="56" x="171" y="149" fill="#fff" rx="4"/><rect width="31" height="19" x="325" y="167.5" fill="#CED9EB" opacity=".5" rx="9.5"/><rect width="199" height="55" x="171.5" y="149.5" stroke="#000" stroke-opacity=".38" rx="3.5"/><path fill="#fff" d="M183 141h168v16H183z"/><path fill="#000" fill-opacity=".6" d="M188.26 154v-9.184h1.204l3.318 5.768.994 1.904h.056a98.32 98.32 0 0 0-.098-1.442c-.028-.504-.042-.999-.042-1.484v-4.746h1.106V154h-1.204l-3.332-5.782-.994-1.89h-.056c.037.457.07.929.098 1.414.037.485.056.971.056 1.456V154h-1.106Zm10.996.168c-.718 0-1.246-.224-1.582-.672-.336-.457-.504-1.12-.504-1.988v-4.312h1.162v4.158c0 .635.098 1.097.294 1.386.206.289.532.434.98.434.355 0 .668-.089.938-.266.28-.187.579-.481.896-.882v-4.83h1.148V154h-.952l-.098-1.064h-.042c-.317.373-.653.672-1.008.896-.354.224-.765.336-1.232.336Zm5.684-.168v-6.804h.952l.098.98h.042c.298-.327.625-.597.98-.812.354-.224.732-.336 1.134-.336.522 0 .928.117 1.218.35.298.224.518.541.658.952.354-.383.714-.695 1.078-.938.364-.243.751-.364 1.162-.364.7 0 1.218.229 1.554.686.345.448.518 1.106.518 1.974V154h-1.148v-4.158c0-.635-.103-1.097-.308-1.386-.206-.289-.523-.434-.952-.434-.504 0-1.074.35-1.708 1.05V154h-1.148v-4.158c0-.635-.103-1.097-.308-1.386-.206-.289-.528-.434-.966-.434-.504 0-1.074.35-1.708 1.05V154h-1.148Zm14.421.168c-.607 0-1.157-.14-1.652-.42-.495-.289-.887-.7-1.176-1.232-.289-.532-.434-1.167-.434-1.904 0-.747.145-1.386.434-1.918.299-.532.681-.943 1.148-1.232.467-.289.957-.434 1.47-.434.868 0 1.535.289 2.002.868.476.579.714 1.353.714 2.324 0 .121-.005.243-.014.364 0 .112-.009.21-.028.294h-4.592c.047.719.271 1.293.672 1.722.411.429.943.644 1.596.644.327 0 .625-.047.896-.14.28-.103.546-.233.798-.392l.406.756c-.289.187-.621.35-.994.49-.364.14-.779.21-1.246.21Zm-2.142-4.116h3.64c0-.691-.149-1.213-.448-1.568-.289-.364-.7-.546-1.232-.546-.476 0-.905.187-1.288.56-.373.364-.597.882-.672 1.554Zm1.736-4.074-.588-.574 1.974-2.338.812.77-2.198 2.142Zm4.649 8.022v-6.804h.952l.098 1.232h.042c.234-.429.518-.77.854-1.022.336-.252.696-.378 1.078-.378.271 0 .514.047.728.14l-.224 1.008a2.6851 2.6851 0 0 0-.308-.084c-.093-.019-.21-.028-.35-.028-.289 0-.592.117-.91.35-.308.233-.578.639-.812 1.218V154h-1.148Zm7.419.168c-.55 0-1.068-.14-1.554-.42-.476-.28-.863-.686-1.162-1.218-.289-.532-.434-1.171-.434-1.918 0-.765.145-1.414.434-1.946.299-.532.686-.938 1.162-1.218.486-.28 1.004-.42 1.554-.42.56 0 1.078.14 1.554.42.476.28.859.686 1.148 1.218.299.532.448 1.181.448 1.946 0 .747-.149 1.386-.448 1.918-.289.532-.672.938-1.148 1.218-.476.28-.994.42-1.554.42Zm0-.952c.588 0 1.06-.238 1.414-.714.364-.485.546-1.115.546-1.89 0-.784-.182-1.419-.546-1.904-.354-.485-.826-.728-1.414-.728-.578 0-1.05.243-1.414.728-.364.485-.546 1.12-.546 1.904 0 .775.182 1.405.546 1.89.364.476.836.714 1.414.714Zm10.181.952c-.849 0-1.531-.308-2.044-.924-.513-.625-.77-1.503-.77-2.632 0-.737.135-1.372.406-1.904.28-.541.644-.957 1.092-1.246.457-.289.943-.434 1.456-.434.392 0 .733.07 1.022.21.289.14.583.331.882.574l-.056-1.162v-2.618h1.162V154h-.952l-.098-.798h-.042c-.261.261-.569.49-.924.686-.355.187-.733.28-1.134.28Zm.252-.966c.597 0 1.176-.313 1.736-.938v-3.556c-.289-.261-.569-.443-.84-.546a2.04 2.04 0 0 0-.812-.168c-.364 0-.695.112-.994.336-.289.215-.523.518-.7.91-.177.383-.266.835-.266 1.358 0 .812.163 1.451.49 1.918.327.457.789.686 1.386.686Zm8.003.966c-.606 0-1.157-.14-1.652-.42-.494-.289-.886-.7-1.176-1.232-.289-.532-.434-1.167-.434-1.904 0-.747.145-1.386.434-1.918.299-.532.682-.943 1.148-1.232.467-.289.957-.434 1.47-.434.868 0 1.536.289 2.002.868.476.579.714 1.353.714 2.324 0 .121-.004.243-.014.364 0 .112-.009.21-.028.294h-4.592c.047.719.271 1.293.672 1.722.411.429.943.644 1.596.644.327 0 .626-.047.896-.14.28-.103.546-.233.798-.392l.406.756c-.289.187-.62.35-.994.49-.364.14-.779.21-1.246.21Zm-2.142-4.116h3.64c0-.691-.149-1.213-.448-1.568-.289-.364-.7-.546-1.232-.546-.476 0-.905.187-1.288.56-.373.364-.597.882-.672 1.554Zm11.023 4.116c-.486 0-.948-.089-1.386-.266-.439-.187-.822-.411-1.148-.672l.574-.77c.298.233.606.429.924.588.317.149.676.224 1.078.224.448 0 .784-.103 1.008-.308.224-.215.336-.467.336-.756 0-.233-.08-.429-.238-.588-.15-.159-.346-.289-.588-.392a8.5012 8.5012 0 0 0-.728-.308c-.318-.121-.63-.257-.938-.406-.308-.159-.56-.359-.756-.602-.196-.252-.294-.569-.294-.952 0-.551.205-1.008.616-1.372.42-.373.998-.56 1.736-.56.42 0 .812.075 1.176.224.364.149.676.331.938.546l-.56.728c-.234-.177-.476-.322-.728-.434-.252-.112-.528-.168-.826-.168-.43 0-.747.098-.952.294-.196.196-.294.425-.294.686 0 .215.07.392.21.532.14.131.322.247.546.35.224.093.462.191.714.294.326.121.648.261.966.42.317.149.578.355.784.616.214.252.322.593.322 1.022 0 .364-.098.7-.294 1.008-.187.308-.467.555-.84.742-.364.187-.817.28-1.358.28Zm6.901 0c-.607 0-1.158-.14-1.652-.42-.495-.289-.887-.7-1.176-1.232-.29-.532-.434-1.167-.434-1.904 0-.747.144-1.386.434-1.918.298-.532.681-.943 1.148-1.232.466-.289.956-.434 1.47-.434.868 0 1.535.289 2.002.868.476.579.714 1.353.714 2.324 0 .121-.005.243-.014.364 0 .112-.01.21-.028.294h-4.592c.046.719.27 1.293.672 1.722.41.429.942.644 1.596.644.326 0 .625-.047.896-.14.28-.103.546-.233.798-.392l.406.756c-.29.187-.621.35-.994.49-.364.14-.78.21-1.246.21Zm-2.142-4.116h3.64c0-.691-.15-1.213-.448-1.568-.29-.364-.7-.546-1.232-.546-.476 0-.906.187-1.288.56-.374.364-.598.882-.672 1.554Zm1.736-4.074-.588-.574 1.974-2.338.812.77-2.198 2.142Zm7.337 8.19c-.597 0-1.139-.14-1.624-.42-.485-.28-.868-.686-1.148-1.218-.28-.532-.42-1.171-.42-1.918 0-.765.149-1.414.448-1.946.308-.532.709-.938 1.204-1.218.504-.28 1.045-.42 1.624-.42.448 0 .831.079 1.148.238.327.159.607.345.84.56l-.588.756c-.196-.177-.406-.322-.63-.434-.215-.112-.457-.168-.728-.168-.411 0-.779.112-1.106.336-.317.215-.569.523-.756.924-.177.392-.266.849-.266 1.372 0 .775.191 1.405.574 1.89.392.476.901.714 1.526.714.317 0 .611-.065.882-.196.271-.14.509-.303.714-.49l.504.77c-.308.271-.649.485-1.022.644-.373.149-.765.224-1.176.224Zm5.741 0c-.719 0-1.246-.224-1.582-.672-.336-.457-.504-1.12-.504-1.988v-4.312h1.162v4.158c0 .635.098 1.097.294 1.386.205.289.532.434.98.434.354 0 .667-.089.938-.266.28-.187.578-.481.896-.882v-4.83h1.148V154h-.952l-.098-1.064h-.042c-.318.373-.654.672-1.008.896-.355.224-.766.336-1.232.336Zm5.683-.168v-6.804h.952l.098 1.232h.042c.233-.429.518-.77.854-1.022.336-.252.695-.378 1.078-.378.271 0 .513.047.728.14l-.224 1.008a2.7415 2.7415 0 0 0-.308-.084c-.093-.019-.21-.028-.35-.028-.289 0-.593.117-.91.35-.308.233-.579.639-.812 1.218V154h-1.148Zm4.91 0v-6.804h1.148V154h-1.148Zm.588-8.204c-.224 0-.411-.065-.56-.196-.14-.14-.21-.327-.21-.56 0-.224.07-.406.21-.546.149-.14.336-.21.56-.21.224 0 .406.07.546.21.149.14.224.322.224.546 0 .233-.075.42-.224.56-.14.131-.322.196-.546.196Zm5.055 8.372c-.728 0-1.237-.21-1.526-.63-.28-.42-.42-.966-.42-1.638v-3.766h-1.008v-.868l1.064-.07.14-1.904h.966v1.904h1.834v.938h-1.834v3.78c0 .42.075.747.224.98.159.224.434.336.826.336.121 0 .252-.019.392-.056.14-.047.266-.089.378-.126l.224.868c-.187.065-.392.121-.616.168-.215.056-.429.084-.644.084Zm5.211 0c-.607 0-1.157-.14-1.652-.42-.495-.289-.887-.7-1.176-1.232-.289-.532-.434-1.167-.434-1.904 0-.747.145-1.386.434-1.918.299-.532.681-.943 1.148-1.232.467-.289.957-.434 1.47-.434.868 0 1.535.289 2.002.868.476.579.714 1.353.714 2.324 0 .121-.005.243-.014.364 0 .112-.009.21-.028.294h-4.592c.047.719.271 1.293.672 1.722.411.429.943.644 1.596.644.327 0 .625-.047.896-.14.28-.103.546-.233.798-.392l.406.756c-.289.187-.621.35-.994.49-.364.14-.779.21-1.246.21Zm-2.142-4.116h3.64c0-.691-.149-1.213-.448-1.568-.289-.364-.7-.546-1.232-.546-.476 0-.905.187-1.288.56-.373.364-.597.882-.672 1.554Zm1.736-4.074-.588-.574 1.974-2.338.812.77-2.198 2.142Zm9.286 8.19c-.485 0-.947-.089-1.386-.266-.439-.187-.821-.411-1.148-.672l.574-.77c.299.233.607.429.924.588.317.149.677.224 1.078.224.448 0 .784-.103 1.008-.308.224-.215.336-.467.336-.756 0-.233-.079-.429-.238-.588-.149-.159-.345-.289-.588-.392a8.3682 8.3682 0 0 0-.728-.308c-.317-.121-.63-.257-.938-.406-.308-.159-.56-.359-.756-.602-.196-.252-.294-.569-.294-.952 0-.551.205-1.008.616-1.372.42-.373.999-.56 1.736-.56.42 0 .812.075 1.176.224.364.149.677.331.938.546l-.56.728c-.233-.177-.476-.322-.728-.434-.252-.112-.527-.168-.826-.168-.429 0-.747.098-.952.294-.196.196-.294.425-.294.686 0 .215.07.392.21.532.14.131.322.247.546.35.224.093.462.191.714.294.327.121.649.261.966.42.317.149.579.355.784.616.215.252.322.593.322 1.022 0 .364-.098.7-.294 1.008-.187.308-.467.555-.84.742-.364.187-.817.28-1.358.28Zm6.789 0c-.55 0-1.068-.14-1.554-.42-.476-.28-.863-.686-1.162-1.218-.289-.532-.434-1.171-.434-1.918 0-.765.145-1.414.434-1.946.299-.532.686-.938 1.162-1.218.486-.28 1.004-.42 1.554-.42.56 0 1.078.14 1.554.42.476.28.859.686 1.148 1.218.299.532.448 1.181.448 1.946 0 .747-.149 1.386-.448 1.918-.289.532-.672.938-1.148 1.218-.476.28-.994.42-1.554.42Zm0-.952c.588 0 1.06-.238 1.414-.714.364-.485.546-1.115.546-1.89 0-.784-.182-1.419-.546-1.904-.354-.485-.826-.728-1.414-.728-.578 0-1.05.243-1.414.728-.364.485-.546 1.12-.546 1.904 0 .775.182 1.405.546 1.89.364.476.836.714 1.414.714Zm7.686.952c-.597 0-1.139-.14-1.624-.42-.485-.28-.868-.686-1.148-1.218-.28-.532-.42-1.171-.42-1.918 0-.765.149-1.414.448-1.946.308-.532.709-.938 1.204-1.218.504-.28 1.045-.42 1.624-.42.448 0 .831.079 1.148.238.327.159.607.345.84.56l-.588.756c-.196-.177-.406-.322-.63-.434-.215-.112-.457-.168-.728-.168-.411 0-.779.112-1.106.336-.317.215-.569.523-.756.924-.177.392-.266.849-.266 1.372 0 .775.191 1.405.574 1.89.392.476.901.714 1.526.714.317 0 .611-.065.882-.196.271-.14.509-.303.714-.49l.504.77c-.308.271-.649.485-1.022.644-.373.149-.765.224-1.176.224Zm3.753-.168v-6.804h1.148V154h-1.148Zm.588-8.204c-.224 0-.411-.065-.56-.196-.14-.14-.21-.327-.21-.56 0-.224.07-.406.21-.546.149-.14.336-.21.56-.21.224 0 .406.07.546.21.149.14.224.322.224.546 0 .233-.075.42-.224.56-.14.131-.322.196-.546.196Zm4.481 8.372c-.569 0-1.045-.168-1.428-.504-.373-.345-.56-.821-.56-1.428 0-.747.332-1.316.994-1.708.672-.401 1.732-.681 3.178-.84 0-.289-.042-.565-.126-.826-.074-.261-.214-.471-.42-.63-.196-.168-.48-.252-.854-.252-.392 0-.76.075-1.106.224-.345.149-.653.317-.924.504l-.448-.798c.318-.205.705-.401 1.162-.588.467-.196.971-.294 1.512-.294.831 0 1.433.257 1.806.77.374.504.56 1.181.56 2.03V154h-.952l-.098-.812h-.042c-.317.261-.667.49-1.05.686-.373.196-.774.294-1.204.294Zm.336-.924c.327 0 .635-.079.924-.238.29-.159.598-.383.924-.672v-1.89c-1.129.14-1.922.35-2.38.63-.448.28-.672.639-.672 1.078 0 .383.117.663.35.84.234.168.518.252.854.252Zm6.425.924c-.429 0-.742-.131-.938-.392-.187-.271-.28-.653-.28-1.148v-8.596h1.148v8.68c0 .177.033.308.098.392.065.075.14.112.224.112h.098c.037-.009.089-.019.154-.028l.154.868c-.075.037-.163.065-.266.084-.103.019-.233.028-.392.028Zm5.164 0c-.606 0-1.157-.14-1.652-.42-.494-.289-.886-.7-1.176-1.232-.289-.532-.434-1.167-.434-1.904 0-.747.145-1.386.434-1.918.299-.532.682-.943 1.148-1.232.467-.289.957-.434 1.47-.434.868 0 1.536.289 2.002.868.476.579.714 1.353.714 2.324 0 .121-.004.243-.014.364 0 .112-.009.21-.028.294h-4.592c.047.719.271 1.293.672 1.722.411.429.943.644 1.596.644.327 0 .626-.047.896-.14.28-.103.546-.233.798-.392l.406.756c-.289.187-.62.35-.994.49-.364.14-.779.21-1.246.21Zm-2.142-4.116h3.64c0-.691-.149-1.213-.448-1.568-.289-.364-.7-.546-1.232-.546-.476 0-.905.187-1.288.56-.373.364-.597.882-.672 1.554ZM187.79 217v-.68h1.46v-4.7h-1.16v-.53c.293-.053.547-.117.76-.19.22-.08.417-.173.59-.28h.63v5.7h1.32v.68h-3.6Zm6.561.12c-.507 0-.927-.09-1.26-.27-.334-.18-.61-.38-.83-.6l.4-.54c.193.187.416.357.67.51.253.147.566.22.94.22.393 0 .723-.13.99-.39.273-.267.41-.623.41-1.07 0-.44-.124-.783-.37-1.03-.247-.247-.577-.37-.99-.37-.22 0-.41.033-.57.1-.154.067-.327.163-.52.29l-.44-.28.21-3.07h3.19v.71h-2.47l-.17 1.89c.153-.08.306-.143.46-.19.153-.047.326-.07.52-.07.366 0 .696.073.99.22.3.14.54.357.72.65.18.293.27.67.27 1.13 0 .46-.104.853-.31 1.18-.2.32-.464.563-.79.73-.327.167-.677.25-1.05.25Zm7.452 0c-.426 0-.813-.1-1.16-.3-.346-.2-.62-.49-.82-.87-.2-.38-.3-.837-.3-1.37 0-.547.107-1.01.32-1.39.22-.38.507-.67.86-.87.36-.2.747-.3 1.16-.3.32 0 .594.057.82.17.234.113.434.247.6.4l-.42.54c-.14-.127-.29-.23-.45-.31-.153-.08-.326-.12-.52-.12-.293 0-.556.08-.79.24-.226.153-.406.373-.54.66-.126.28-.19.607-.19.98 0 .553.137 1.003.41 1.35.28.34.644.51 1.09.51.227 0 .437-.047.63-.14.194-.1.364-.217.51-.35l.36.55c-.22.193-.463.347-.73.46-.266.107-.546.16-.84.16Zm3.703 0c-.406 0-.746-.12-1.02-.36-.266-.247-.4-.587-.4-1.02 0-.533.237-.94.71-1.22.48-.287 1.237-.487 2.27-.6 0-.207-.03-.403-.09-.59-.053-.187-.153-.337-.3-.45-.14-.12-.343-.18-.61-.18-.28 0-.543.053-.79.16-.246.107-.466.227-.66.36l-.32-.57c.227-.147.504-.287.83-.42.334-.14.694-.21 1.08-.21.594 0 1.024.183 1.29.55.267.36.4.843.4 1.45V217h-.68l-.07-.58h-.03c-.226.187-.476.35-.75.49-.266.14-.553.21-.86.21Zm.24-.66c.234 0 .454-.057.66-.17.207-.113.427-.273.66-.48v-1.35c-.806.1-1.373.25-1.7.45-.32.2-.48.457-.48.77 0 .273.084.473.25.6.167.12.37.18.61.18Zm3.719.54v-4.86h.68l.07.88h.03c.167-.307.37-.55.61-.73.24-.18.497-.27.77-.27.194 0 .367.033.52.1l-.16.72c-.08-.027-.153-.047-.22-.06-.066-.013-.15-.02-.25-.02-.206 0-.423.083-.65.25-.22.167-.413.457-.58.87V217h-.82Zm4.383.12c-.407 0-.747-.12-1.02-.36-.267-.247-.4-.587-.4-1.02 0-.533.237-.94.71-1.22.48-.287 1.237-.487 2.27-.6 0-.207-.03-.403-.09-.59-.053-.187-.153-.337-.3-.45-.14-.12-.343-.18-.61-.18-.28 0-.543.053-.79.16-.247.107-.467.227-.66.36l-.32-.57c.227-.147.503-.287.83-.42.333-.14.693-.21 1.08-.21.593 0 1.023.183 1.29.55.267.36.4.843.4 1.45V217h-.68l-.07-.58h-.03c-.227.187-.477.35-.75.49-.267.14-.553.21-.86.21Zm.24-.66c.233 0 .453-.057.66-.17.207-.113.427-.273.66-.48v-1.35c-.807.1-1.373.25-1.7.45-.32.2-.48.457-.48.77 0 .273.083.473.25.6.167.12.37.18.61.18Zm5.639.66c-.427 0-.813-.1-1.16-.3-.347-.2-.62-.49-.82-.87-.2-.38-.3-.837-.3-1.37 0-.547.107-1.01.32-1.39.22-.38.507-.67.86-.87.36-.2.747-.3 1.16-.3.32 0 .593.057.82.17.233.113.433.247.6.4l-.42.54c-.14-.127-.29-.23-.45-.31-.153-.08-.327-.12-.52-.12-.293 0-.557.08-.79.24-.227.153-.407.373-.54.66-.127.28-.19.607-.19.98 0 .553.137 1.003.41 1.35.28.34.643.51 1.09.51.227 0 .437-.047.63-.14.193-.1.363-.217.51-.35l.36.55c-.22.193-.463.347-.73.46-.267.107-.547.16-.84.16Zm4.113 0c-.52 0-.883-.15-1.09-.45-.2-.3-.3-.69-.3-1.17v-2.69h-.72v-.62l.76-.05.1-1.36h.69v1.36h1.31v.67h-1.31v2.7c0 .3.053.533.16.7.113.16.31.24.59.24.087 0 .18-.013.28-.04.1-.033.19-.063.27-.09l.16.62c-.133.047-.28.087-.44.12-.153.04-.307.06-.46.06Zm3.722 0c-.433 0-.827-.1-1.18-.3-.353-.207-.633-.5-.84-.88-.207-.38-.31-.833-.31-1.36 0-.533.103-.99.31-1.37.213-.38.487-.673.82-.88.333-.207.683-.31 1.05-.31.62 0 1.097.207 1.43.62.34.413.51.967.51 1.66 0 .087-.003.173-.01.26 0 .08-.007.15-.02.21h-3.28c.033.513.193.923.48 1.23.293.307.673.46 1.14.46.233 0 .447-.033.64-.1.2-.073.39-.167.57-.28l.29.54c-.207.133-.443.25-.71.35-.26.1-.557.15-.89.15Zm-1.53-2.94h2.6c0-.493-.107-.867-.32-1.12-.207-.26-.5-.39-.88-.39-.34 0-.647.133-.92.4-.267.26-.427.63-.48 1.11Zm1.52-2.91-1.57-1.53.58-.55 1.41 1.67-.42.41Zm3.041 5.73v-4.86h.68l.07.88h.03c.167-.307.37-.55.61-.73.24-.18.497-.27.77-.27.193 0 .367.033.52.1l-.16.72c-.08-.027-.153-.047-.22-.06-.067-.013-.15-.02-.25-.02-.207 0-.423.083-.65.25-.22.167-.413.457-.58.87V217h-.82Zm5.379.12c-.433 0-.826-.1-1.18-.3-.353-.207-.633-.5-.84-.88-.206-.38-.31-.833-.31-1.36 0-.533.104-.99.31-1.37.214-.38.487-.673.82-.88.334-.207.684-.31 1.05-.31.62 0 1.097.207 1.43.62.34.413.51.967.51 1.66 0 .087-.003.173-.01.26 0 .08-.006.15-.02.21h-3.28c.034.513.194.923.48 1.23.294.307.674.46 1.14.46.234 0 .447-.033.64-.1.2-.073.39-.167.57-.28l.29.54c-.206.133-.443.25-.71.35-.26.1-.556.15-.89.15Zm-1.53-2.94h2.6c0-.493-.106-.867-.32-1.12-.206-.26-.5-.39-.88-.39-.34 0-.646.133-.92.4-.266.26-.426.63-.48 1.11Zm5.831 2.94c-.347 0-.677-.063-.99-.19-.313-.133-.587-.293-.82-.48l.41-.55c.213.167.433.307.66.42.227.107.483.16.77.16.32 0 .56-.073.72-.22.16-.153.24-.333.24-.54 0-.167-.057-.307-.17-.42-.107-.113-.247-.207-.42-.28-.167-.08-.34-.153-.52-.22-.227-.087-.45-.183-.67-.29-.22-.113-.4-.257-.54-.43-.14-.18-.21-.407-.21-.68 0-.393.147-.72.44-.98.3-.267.713-.4 1.24-.4.3 0 .58.053.84.16.26.107.483.237.67.39l-.4.52a2.606 2.606 0 0 0-.52-.31c-.18-.08-.377-.12-.59-.12-.307 0-.533.07-.68.21-.14.14-.21.303-.21.49 0 .153.05.28.15.38.1.093.23.177.39.25.16.067.33.137.51.21.233.087.463.187.69.3.227.107.413.253.56.44.153.18.23.423.23.73 0 .26-.07.5-.21.72-.133.22-.333.397-.6.53-.26.133-.583.2-.97.2ZM334.878 217.12c-.64 0-1.143-.287-1.51-.86-.36-.58-.54-1.403-.54-2.47 0-1.073.18-1.89.54-2.45.367-.56.87-.84 1.51-.84.633 0 1.13.28 1.49.84.367.56.55 1.377.55 2.45 0 1.067-.183 1.89-.55 2.47-.36.573-.857.86-1.49.86Zm0-.66c.373 0 .673-.21.9-.63.227-.427.34-1.107.34-2.04s-.113-1.603-.34-2.01c-.227-.413-.527-.62-.9-.62s-.677.207-.91.62c-.227.407-.34 1.077-.34 2.01 0 .933.113 1.613.34 2.04.233.42.537.63.91.63Zm4.663 2.14 2.67-8.7h.6l-2.67 8.7h-.6Zm6.268-1.6v-.68h1.46v-4.7h-1.16v-.53c.293-.053.546-.117.76-.19.22-.08.416-.173.59-.28h.63v5.7h1.32v.68h-3.6Zm6.56.12c-.506 0-.926-.09-1.26-.27-.333-.18-.61-.38-.83-.6l.4-.54c.194.187.417.357.67.51.254.147.567.22.94.22.394 0 .724-.13.99-.39.274-.267.41-.623.41-1.07 0-.44-.123-.783-.37-1.03-.246-.247-.576-.37-.99-.37-.22 0-.41.033-.57.1-.153.067-.326.163-.52.29l-.44-.28.21-3.07h3.19v.71h-2.47l-.17 1.89c.154-.08.307-.143.46-.19.154-.047.327-.07.52-.07.367 0 .697.073.99.22.3.14.54.357.72.65.18.293.27.67.27 1.13 0 .46-.103.853-.31 1.18-.2.32-.463.563-.79.73-.326.167-.676.25-1.05.25Z"/><rect width="130" height="19" x="187" y="168" fill="#CED9EB" opacity=".5" rx="9.5"/></svg>
