<svg xmlns="http://www.w3.org/2000/svg" width="541" height="357" fill="none"><path fill="#E7ECF5" d="M0 0h541v357H0z"/><path fill="#fff" d="M63 88h415v181H63z"/><rect width="200" height="56" x="171" y="112" fill="#fff" rx="4"/><g clip-path="url(#a)"><path fill="#000" fill-opacity=".6" d="M352 140h-5v5h5v-5Zm-1-11v2h-8v-2h-2v2h-1c-1.11 0-1.99.9-1.99 2l-.01 14c0 1.1.89 2 2 2h14c1.1 0 2-.9 2-2v-14c0-1.1-.9-2-2-2h-1v-2h-2Zm3 18h-14v-11h14v11Z"/></g><rect width="199" height="55" x="171.5" y="112.5" stroke="#000" stroke-opacity=".38" rx="3.5"/><path fill="#fff" d="M183 105h44v13h-44z"/><path fill="#000" fill-opacity=".6" d="M188.26 116.5v-9.184h2.296c1.419 0 2.497.397 3.234 1.19.737.784 1.106 1.904 1.106 3.36 0 1.465-.369 2.604-1.106 3.416-.728.812-1.787 1.218-3.178 1.218h-2.352Zm1.162-.952h1.05c1.073 0 1.876-.322 2.408-.966.541-.653.812-1.559.812-2.716 0-1.157-.271-2.044-.812-2.66-.532-.625-1.335-.938-2.408-.938h-1.05v7.28Zm10.153 1.12c-.606 0-1.157-.14-1.652-.42-.494-.289-.886-.7-1.176-1.232-.289-.532-.434-1.167-.434-1.904 0-.747.145-1.386.434-1.918.299-.532.682-.943 1.148-1.232.467-.289.957-.434 1.47-.434.868 0 1.536.289 2.002.868.476.579.714 1.353.714 2.324 0 .121-.004.243-.014.364 0 .112-.009.21-.028.294h-4.592c.047.719.271 1.293.672 1.722.411.429.943.644 1.596.644.327 0 .626-.047.896-.14.28-.103.546-.233.798-.392l.406.756c-.289.187-.62.35-.994.49-.364.14-.779.21-1.246.21Zm-2.142-4.116h3.64c0-.691-.149-1.213-.448-1.568-.289-.364-.7-.546-1.232-.546-.476 0-.905.187-1.288.56-.373.364-.597.882-.672 1.554Zm1.736-4.074-.588-.574 1.974-2.338.812.77-2.198 2.142Zm7.66 8.19c-.318 0-.649-.075-.994-.224-.336-.159-.654-.373-.952-.644h-.042l-.098.7h-.924v-9.968h1.148v2.716l-.028 1.232c.308-.271.644-.495 1.008-.672.373-.187.746-.28 1.12-.28.886 0 1.558.313 2.016.938.457.625.686 1.465.686 2.52 0 .775-.14 1.437-.42 1.988-.271.551-.63.971-1.078 1.26-.439.289-.92.434-1.442.434Zm-.196-.966c.56 0 1.022-.238 1.386-.714.373-.485.56-1.148.56-1.988 0-.747-.14-1.349-.42-1.806-.271-.467-.728-.7-1.372-.7-.29 0-.584.079-.882.238-.299.159-.612.387-.938.686v3.57c.298.261.592.448.882.56.298.103.56.154.784.154Zm6.968.966c-.719 0-1.246-.224-1.582-.672-.336-.457-.504-1.12-.504-1.988v-4.312h1.162v4.158c0 .635.098 1.097.294 1.386.205.289.532.434.98.434.355 0 .667-.089.938-.266.28-.187.579-.481.896-.882v-4.83h1.148v6.804h-.952l-.098-1.064h-.042c-.317.373-.653.672-1.008.896-.355.224-.765.336-1.232.336Zm7.825 0c-.728 0-1.237-.21-1.526-.63-.28-.42-.42-.966-.42-1.638v-3.766h-1.008v-.868l1.064-.07.14-1.904h.966v1.904h1.834v.938h-1.834v3.78c0 .42.075.747.224.98.159.224.434.336.826.336.121 0 .252-.019.392-.056.14-.047.266-.089.378-.126l.224.868c-.187.065-.392.121-.616.168-.215.056-.429.084-.644.084Z"/><rect width="200" height="56" x="171" y="190" fill="#fff" rx="4"/><g clip-path="url(#b)"><path fill="#000" fill-opacity=".6" d="M352 218h-5v5h5v-5Zm-1-11v2h-8v-2h-2v2h-1c-1.11 0-1.99.9-1.99 2l-.01 14c0 1.1.89 2 2 2h14c1.1 0 2-.9 2-2v-14c0-1.1-.9-2-2-2h-1v-2h-2Zm3 18h-14v-11h14v11Z"/></g><rect width="199" height="55" x="171.5" y="190.5" stroke="#000" stroke-opacity=".38" rx="3.5"/><path fill="#fff" d="M183 183h27v13h-27z"/><path fill="#000" fill-opacity=".6" d="M188.26 194.5v-9.184h5.292v.98h-4.13v3.108h3.5v.98h-3.5v4.116h-1.162Zm6.862 0v-6.804h1.148v6.804h-1.148Zm.588-8.204c-.224 0-.411-.065-.56-.196-.14-.14-.21-.327-.21-.56 0-.224.07-.406.21-.546.149-.14.336-.21.56-.21.224 0 .406.07.546.21.149.14.224.322.224.546 0 .233-.075.42-.224.56-.14.131-.322.196-.546.196Zm2.913 8.204v-6.804h.952l.098.98h.042c.327-.327.672-.597 1.036-.812.364-.224.78-.336 1.246-.336.719 0 1.242.229 1.568.686.336.448.504 1.106.504 1.974v4.312h-1.148v-4.158c0-.635-.102-1.097-.308-1.386-.205-.289-.532-.434-.98-.434-.345 0-.658.089-.938.266-.27.177-.578.439-.924.784v4.928h-1.148Z"/><rect width="136" height="19" x="187" y="131" fill="#CED9EB" opacity=".5" rx="9.5"/><rect width="136" height="19" x="187" y="209" fill="#CED9EB" opacity=".5" rx="9.5"/><defs><clipPath id="a"><path fill="#fff" d="M335 128h24v24h-24z"/></clipPath><clipPath id="b"><path fill="#fff" d="M335 206h24v24h-24z"/></clipPath></defs></svg>