<svg xmlns="http://www.w3.org/2000/svg" width="541" height="357" fill="none"><path fill="#E7ECF5" d="M0 0h541v357H0z"/><path fill="#fff" d="M63 88h415v181H63z"/><rect width="141" height="19" x="191" y="162" fill="#E7ECF5" opacity=".5" rx="9.5"/><rect width="103" height="19" x="191" y="192" fill="#E7ECF5" opacity=".5" rx="9.5"/><rect width="165" height="19" x="191" y="222" fill="#E7ECF5" opacity=".5" rx="9.5"/><rect width="200" height="30" x="170" y="116" fill="#fff" rx="4"/><path fill="#000" fill-opacity=".4" d="M191 132.8h-.63l-.22-.21a5.18 5.18 0 0 0 1.26-3.39 5.2 5.2 0 0 0-.88-2.89 5.2 5.2 0 0 0-2.34-1.91 5.2 5.2 0 0 0-3-.3 5.2 5.2 0 0 0-2.67 1.42 5.2 5.2 0 0 0-1.42 2.67 5.2 5.2 0 0 0 .3 3 5.2 5.2 0 0 0 1.91 2.34 5.2 5.2 0 0 0 2.9.88c1.28 0 2.47-.48 3.38-1.26l.21.22v.64l4 3.99 1.2-1.2-4-4Zm-4.8 0a3.6 3.6 0 1 1 0-7.19 3.6 3.6 0 0 1 0 7.2Z"/><path fill="#fff" d="M204 123h58v16h-58z"/><path fill="#000" fill-opacity=".6" d="M205.08 135.5v-7.87h2.46c.54 0 1.01.07 1.43.21.41.14.74.37.97.7.24.32.36.75.36 1.3 0 .6-.16 1.1-.48 1.47-.32.37-.75.62-1.3.76l2 3.43h-1.12l-1.9-3.32h-1.42v3.32h-1Zm1-4.14h1.32c.61 0 1.08-.12 1.41-.37.33-.26.5-.64.5-1.15 0-.52-.17-.89-.5-1.1-.33-.2-.8-.3-1.41-.3h-1.32v2.92Zm8.03 4.28a2.67 2.67 0 0 1-2.42-1.42c-.25-.45-.37-1-.37-1.62 0-.64.12-1.2.37-1.65.25-.45.58-.8.98-1.05s.82-.38 1.26-.38c.75 0 1.32.25 1.72.75.4.5.6 1.16.6 1.99a4.07 4.07 0 0 1-.03.56h-3.93c.04.62.23 1.11.57 1.48.35.37.81.55 1.37.55.28 0 .54-.04.77-.12.24-.09.47-.2.68-.33l.35.64c-.25.16-.53.3-.85.42-.31.12-.67.18-1.07.18Zm-1.83-3.52h3.12c0-.6-.13-1.04-.39-1.35-.25-.31-.6-.47-1.05-.47-.41 0-.78.16-1.1.48-.33.32-.52.76-.59 1.34Zm7.77 3.52c-.51 0-.97-.12-1.39-.36a2.53 2.53 0 0 1-.98-1.04c-.24-.46-.36-1-.36-1.64 0-.66.12-1.22.38-1.67a2.75 2.75 0 0 1 2.42-1.4c.39 0 .72.06.99.2.28.13.52.3.72.48l-.5.65a2.41 2.41 0 0 0-.55-.38c-.18-.1-.39-.14-.62-.14-.35 0-.67.1-.95.29-.27.18-.49.45-.65.79-.15.34-.22.73-.22 1.18 0 .66.16 1.2.49 1.62.33.4.77.6 1.3.6.28 0 .53-.05.76-.16.23-.12.44-.26.61-.42l.44.66c-.27.23-.56.42-.88.55-.32.13-.66.2-1 .2Zm3.22-.14v-8.54h.98v2.32l-.03 1.2c.28-.26.57-.48.87-.67a2 2 0 0 1 1.07-.29c.62 0 1.07.2 1.35.6.28.38.43.94.43 1.68v3.7h-.99v-3.56c0-.55-.08-.94-.26-1.2-.18-.24-.46-.36-.84-.36-.3 0-.57.07-.8.22-.24.16-.5.38-.8.68v4.22h-.98Zm8.94.14a2.67 2.67 0 0 1-2.42-1.42c-.25-.45-.38-1-.38-1.62 0-.64.13-1.2.37-1.65.26-.45.59-.8.99-1.05s.82-.38 1.26-.38c.74 0 1.31.25 1.71.75.41.5.62 1.16.62 1.99a4.07 4.07 0 0 1-.04.56h-3.94c.04.62.24 1.11.58 1.48.35.37.8.55 1.37.55.28 0 .53-.04.77-.12.24-.09.46-.2.68-.33l.35.64c-.25.16-.53.3-.85.42-.32.12-.67.18-1.07.18Zm-1.84-3.52h3.12c0-.6-.13-1.04-.38-1.35-.25-.31-.6-.47-1.06-.47-.4 0-.77.16-1.1.48-.32.32-.51.76-.58 1.34Zm5.47 3.38v-5.83h.82l.09 1.05h.03c.2-.36.45-.66.73-.87a1.55 1.55 0 0 1 1.55-.2l-.2.86a2.22 2.22 0 0 0-.26-.07 1.33 1.33 0 0 0-1.08.28c-.26.2-.5.54-.7 1.04v3.74h-.98Zm6.4.14c-.51 0-.98-.12-1.4-.36a2.53 2.53 0 0 1-.98-1.04c-.24-.46-.36-1-.36-1.64 0-.66.13-1.22.39-1.67a2.75 2.75 0 0 1 2.42-1.4c.39 0 .71.06.99.2.28.13.52.3.72.48l-.5.65a2.41 2.41 0 0 0-.55-.38c-.18-.1-.39-.14-.62-.14-.35 0-.67.1-.95.29-.27.18-.49.45-.65.79-.15.34-.23.73-.23 1.18 0 .66.17 1.2.5 1.62.33.4.77.6 1.3.6.28 0 .53-.05.76-.16.23-.12.44-.26.61-.42l.43.66a2.69 2.69 0 0 1-1.88.74Zm3.22-.14v-8.54h.98v2.32l-.03 1.2c.28-.26.57-.48.87-.67a2 2 0 0 1 1.07-.29c.62 0 1.06.2 1.34.6.3.38.44.94.44 1.68v3.7h-.99v-3.56c0-.55-.09-.94-.26-1.2-.18-.24-.46-.36-.84-.36-.3 0-.57.07-.8.22-.24.16-.5.38-.8.68v4.22h-.98Zm8.94.14a2.67 2.67 0 0 1-2.42-1.42c-.26-.45-.38-1-.38-1.62 0-.64.12-1.2.37-1.65.26-.45.59-.8.99-1.05s.82-.38 1.26-.38c.74 0 1.31.25 1.71.75.41.5.61 1.16.61 1.99a4.07 4.07 0 0 1-.03.56h-3.94c.04.62.23 1.11.58 1.48.35.37.8.55 1.37.55.28 0 .53-.04.76-.12.24-.09.47-.2.69-.33l.35.64c-.25.16-.54.3-.86.42-.3.12-.66.18-1.06.18Zm-1.84-3.52h3.12c0-.6-.13-1.04-.38-1.35-.25-.31-.6-.47-1.06-.47-.4 0-.78.16-1.1.48-.32.32-.52.76-.58 1.34Zm5.47 3.38v-5.83h.82l.08 1.05h.04c.2-.36.44-.66.73-.87a1.55 1.55 0 0 1 1.55-.2l-.2.86a2.22 2.22 0 0 0-.26-.07 1.33 1.33 0 0 0-1.08.28c-.26.2-.5.54-.7 1.04v3.74h-.98Z"/><rect width="199" height="29" x="170.5" y="116.5" stroke="#000" stroke-opacity=".38" rx="3.5"/><rect width="12" height="12" x="170" y="166" fill="#0C419A" rx="2"/><rect width="11" height="11" x="170.5" y="196.5" stroke="#0C419A" rx="1.5"/><rect width="11" height="11" x="170.5" y="226.5" stroke="#0C419A" rx="1.5"/></svg>
