<svg xmlns="http://www.w3.org/2000/svg" width="541" height="357" fill="none"><g clip-path="url(#a)"><path fill="#E7ECF5" d="M0 0h541v357H0z"/><g filter="url(#b)"><g clip-path="url(#c)"><path fill="#E2E7EE" d="M62 60h780v56H62z"/><path fill="#ED6A5E" fill-rule="evenodd" d="M92 94a6 6 0 1 0 0-12 6 6 0 0 0 0 12Z" clip-rule="evenodd"/><path fill="#F4BF4F" fill-rule="evenodd" d="M112 94a6 6 0 1 0 0-12 6 6 0 0 0 0 12Z" clip-rule="evenodd"/><path fill="#61C554" fill-rule="evenodd" d="M132 94a6 6 0 1 0 0-12 6 6 0 0 0 0 12Z" clip-rule="evenodd"/><path fill="#F6F8FC" d="M62 116h780v344H62z"/></g></g><g clip-path="url(#d)"><path fill="#0C419A" d="m96.472 141.432-.368 1.28h2.672l-.368-1.28a55.203 55.203 0 0 1-.496-1.712c-.15-.587-.299-1.168-.448-1.744H97.4a53.266 53.266 0 0 1-.448 1.76c-.15.576-.31 1.141-.48 1.696ZM92.968 147l3.408-10.464h2.176L101.96 147h-1.952l-.816-2.832h-3.52L94.856 147h-1.888Zm11.954.192c-.651 0-1.115-.197-1.392-.592-.267-.395-.4-.933-.4-1.616v-9.28h1.84v9.376c0 .224.043.384.128.48a.383.383 0 0 0 .272.128h.112c.043-.011.101-.021.176-.032l.24 1.376a2.886 2.886 0 0 1-.976.16Zm4.384 0c-.651 0-1.115-.197-1.392-.592-.267-.395-.4-.933-.4-1.616v-9.28h1.84v9.376c0 .224.042.384.128.48a.383.383 0 0 0 .272.128h.112c.042-.011.101-.021.176-.032l.24 1.376a2.886 2.886 0 0 1-.976.16Zm5.951 0c-.725 0-1.381-.16-1.968-.48a3.617 3.617 0 0 1-1.392-1.408c-.341-.619-.512-1.36-.512-2.224 0-.853.171-1.589.512-2.208.352-.619.806-1.093 1.36-1.424a3.354 3.354 0 0 1 1.744-.496c.715 0 1.312.16 1.792.48.48.309.843.747 1.088 1.312.246.555.368 1.2.368 1.936 0 .384-.026.683-.08.896h-4.992c.086.693.336 1.232.752 1.616.416.384.939.576 1.568.576.342 0 .656-.048.944-.144.299-.107.592-.251.88-.432l.624 1.152a5.65 5.65 0 0 1-1.248.608c-.458.16-.938.24-1.44.24Zm-2.096-4.864h3.488c0-.608-.133-1.083-.4-1.424-.266-.352-.666-.528-1.2-.528-.458 0-.869.171-1.232.512-.352.331-.57.811-.656 1.44Zm6.886 4.672v-7.856h1.52l.128 1.392h.064c.277-.512.613-.901 1.008-1.168.394-.277.8-.416 1.216-.416.373 0 .672.053.896.16l-.32 1.6a3.257 3.257 0 0 0-.384-.096 2.51 2.51 0 0 0-.432-.032c-.31 0-.635.123-.976.368-.342.235-.635.651-.88 1.248v4.8h-1.84Zm11.156.192c-.683 0-1.243-.213-1.68-.64-.427-.427-.64-.981-.64-1.664 0-.843.368-1.493 1.104-1.952.736-.469 1.909-.789 3.52-.96-.011-.416-.123-.773-.336-1.072-.203-.309-.571-.464-1.104-.464a3.04 3.04 0 0 0-1.136.224c-.363.149-.72.331-1.072.544l-.672-1.232a7.901 7.901 0 0 1 1.472-.72 5.076 5.076 0 0 1 1.76-.304c.981 0 1.712.293 2.192.88.49.576.736 1.413.736 2.512V147h-1.52l-.128-.864h-.064a5.68 5.68 0 0 1-1.136.752 2.793 2.793 0 0 1-1.296.304Zm.592-1.44c.32 0 .608-.075.864-.224a5.73 5.73 0 0 0 .848-.64v-1.76c-1.067.139-1.808.347-2.224.624-.416.267-.624.597-.624.992 0 .352.106.608.32.768.213.16.485.24.816.24Zm8.13 1.44c-.843 0-1.456-.272-1.84-.816-.384-.544-.576-1.312-.576-2.304v-4.928h1.84v4.688c0 .651.096 1.109.288 1.376.192.267.501.4.928.4.341 0 .64-.085.896-.256.266-.171.549-.448.848-.832v-5.376h1.84V147h-1.504l-.144-1.152h-.048a4.567 4.567 0 0 1-1.12.976c-.406.245-.875.368-1.408.368Zm13.117 0a3.92 3.92 0 0 1-1.936-.48 3.685 3.685 0 0 1-1.36-1.408c-.33-.619-.496-1.36-.496-2.224 0-.875.182-1.616.544-2.224a3.653 3.653 0 0 1 1.44-1.408 4.02 4.02 0 0 1 1.952-.496c.502 0 .939.085 1.312.256.374.171.704.379.992.624l-.896 1.2a2.434 2.434 0 0 0-.624-.416 1.51 1.51 0 0 0-.688-.16c-.629 0-1.146.24-1.552.72-.394.48-.592 1.115-.592 1.904 0 .779.192 1.408.576 1.888.395.48.902.72 1.52.72.31 0 .598-.064.864-.192.278-.139.528-.299.752-.48l.752 1.216c-.362.32-.768.56-1.216.72-.448.16-.896.24-1.344.24Zm6.976 0c-.65 0-1.258-.16-1.824-.48a3.798 3.798 0 0 1-1.376-1.408c-.352-.619-.528-1.36-.528-2.224 0-.875.176-1.616.528-2.224.352-.619.811-1.088 1.376-1.408a3.552 3.552 0 0 1 1.824-.496c.662 0 1.275.165 1.84.496.566.32 1.024.789 1.376 1.408.352.608.528 1.349.528 2.224 0 .864-.176 1.605-.528 2.224a3.79 3.79 0 0 1-1.376 1.408 3.67 3.67 0 0 1-1.84.48Zm0-1.504c.576 0 1.03-.24 1.36-.72.331-.48.496-1.109.496-1.888 0-.789-.165-1.424-.496-1.904-.33-.48-.784-.72-1.36-.72-.576 0-1.029.24-1.36.72-.32.48-.48 1.115-.48 1.904 0 .779.16 1.408.48 1.888.331.48.784.72 1.36.72Zm5.606 1.312v-7.856h1.52l.128 1.056h.064a6.105 6.105 0 0 1 1.152-.88c.416-.245.89-.368 1.424-.368.842 0 1.456.272 1.84.816.384.544.576 1.312.576 2.304V147h-1.84v-4.688c0-.651-.096-1.109-.288-1.376-.192-.267-.507-.4-.944-.4a1.65 1.65 0 0 0-.912.256c-.256.16-.55.4-.88.72V147h-1.84Zm11.761.192c-.907 0-1.552-.261-1.936-.784-.374-.533-.56-1.221-.56-2.064V140.6h-1.12v-1.376l1.216-.08.224-2.144h1.536v2.144h2v1.456h-2v3.744c0 .917.368 1.376 1.104 1.376.138 0 .282-.016.432-.048.149-.043.277-.085.384-.128l.32 1.36a5.177 5.177 0 0 1-.736.192 3.7 3.7 0 0 1-.864.096Zm6.163 0c-.725 0-1.381-.16-1.968-.48a3.604 3.604 0 0 1-1.392-1.408c-.341-.619-.512-1.36-.512-2.224 0-.853.171-1.589.512-2.208.352-.619.805-1.093 1.36-1.424a3.354 3.354 0 0 1 1.744-.496c.715 0 1.312.16 1.792.48.48.309.843.747 1.088 1.312.245.555.368 1.2.368 1.936 0 .384-.027.683-.08.896h-4.992c.085.693.336 1.232.752 1.616.416.384.939.576 1.568.576.341 0 .656-.048.944-.144.299-.107.592-.251.88-.432l.624 1.152a5.65 5.65 0 0 1-1.248.608c-.459.16-.939.24-1.44.24Zm-2.096-4.864h3.488c0-.608-.133-1.083-.4-1.424-.267-.352-.667-.528-1.2-.528-.459 0-.869.171-1.232.512-.352.331-.571.811-.656 1.44Zm6.885 4.672v-7.856h1.52l.128 1.056h.064a6.105 6.105 0 0 1 1.152-.88 2.754 2.754 0 0 1 1.424-.368c.843 0 1.456.272 1.84.816.384.544.576 1.312.576 2.304V147h-1.84v-4.688c0-.651-.096-1.109-.288-1.376-.192-.267-.506-.4-.944-.4-.341 0-.645.085-.912.256-.256.16-.549.4-.88.72V147h-1.84Zm11.329.192c-.842 0-1.456-.272-1.84-.816-.384-.544-.576-1.312-.576-2.304v-4.928h1.84v4.688c0 .651.096 1.109.288 1.376.192.267.502.4.928.4.342 0 .64-.085.896-.256.267-.171.55-.448.848-.832v-5.376h1.84V147h-1.504l-.144-1.152h-.048a4.531 4.531 0 0 1-1.12.976c-.405.245-.874.368-1.408.368Zm9.838 2.912v-10.96h1.52l.128.832h.064a5.673 5.673 0 0 1 1.104-.72 2.857 2.857 0 0 1 1.264-.304c.982 0 1.739.363 2.272 1.088.544.725.816 1.696.816 2.912 0 .896-.16 1.664-.48 2.304-.32.629-.736 1.109-1.248 1.44a2.902 2.902 0 0 1-1.632.496c-.341 0-.682-.075-1.024-.224a4.602 4.602 0 0 1-.992-.64l.048 1.312v2.464h-1.84Zm3.424-4.432c.523 0 .96-.229 1.312-.688.352-.459.528-1.131.528-2.016 0-.789-.133-1.403-.4-1.84-.266-.437-.698-.656-1.296-.656-.554 0-1.13.293-1.728.88v3.664c.288.235.566.405.832.512.267.096.518.144.752.144Zm5.648 1.328v-7.856h1.52l.128 1.392h.064c.277-.512.613-.901 1.008-1.168.394-.277.8-.416 1.216-.416.373 0 .672.053.896.16l-.32 1.6a3.257 3.257 0 0 0-.384-.096 2.51 2.51 0 0 0-.432-.032c-.31 0-.635.123-.976.368-.342.235-.635.651-.88 1.248v4.8h-1.84Zm6.008 0v-7.856h1.84V147h-1.84Zm.928-9.232c-.33 0-.597-.096-.8-.288-.202-.192-.304-.448-.304-.768 0-.309.102-.56.304-.752.203-.192.47-.288.8-.288.331 0 .598.096.8.288.203.192.304.443.304.752 0 .32-.101.576-.304.768-.202.192-.469.288-.8.288Zm3.3 9.232v-7.856h1.52l.128 1.056h.064a6.105 6.105 0 0 1 1.152-.88c.416-.245.89-.368 1.424-.368.842 0 1.456.272 1.84.816.384.544.576 1.312.576 2.304V147h-1.84v-4.688c0-.651-.096-1.109-.288-1.376-.192-.267-.507-.4-.944-.4a1.65 1.65 0 0 0-.912.256c-.256.16-.55.4-.88.72V147h-1.84Zm12.273.192c-.715 0-1.36-.16-1.936-.48a3.678 3.678 0 0 1-1.36-1.408c-.331-.619-.496-1.36-.496-2.224 0-.875.181-1.616.544-2.224a3.653 3.653 0 0 1 1.44-1.408 4.02 4.02 0 0 1 1.952-.496c.501 0 .939.085 1.312.256.373.171.704.379.992.624l-.896 1.2a2.469 2.469 0 0 0-.624-.416 1.513 1.513 0 0 0-.688-.16c-.629 0-1.147.24-1.552.72-.395.48-.592 1.115-.592 1.904 0 .779.192 1.408.576 1.888.395.48.901.72 1.52.72.309 0 .597-.064.864-.192.277-.139.528-.299.752-.48l.752 1.216c-.363.32-.768.56-1.216.72-.448.16-.896.24-1.344.24Zm4.151-.192v-7.856h1.84V147h-1.84Zm.928-9.232c-.331 0-.598-.096-.8-.288-.203-.192-.304-.448-.304-.768 0-.309.101-.56.304-.752.202-.192.469-.288.8-.288.33 0 .597.096.8.288.202.192.304.443.304.752 0 .32-.102.576-.304.768-.203.192-.47.288-.8.288Zm3.299 12.336v-10.96h1.52l.128.832h.064a5.673 5.673 0 0 1 1.104-.72 2.854 2.854 0 0 1 1.264-.304c.981 0 1.739.363 2.272 1.088.544.725.816 1.696.816 2.912 0 .896-.16 1.664-.48 2.304-.32.629-.736 1.109-1.248 1.44a2.902 2.902 0 0 1-1.632.496c-.341 0-.683-.075-1.024-.224a4.602 4.602 0 0 1-.992-.64l.048 1.312v2.464h-1.84Zm3.424-4.432c.523 0 .96-.229 1.312-.688.352-.459.528-1.131.528-2.016 0-.789-.133-1.403-.4-1.84-.267-.437-.699-.656-1.296-.656-.555 0-1.131.293-1.728.88v3.664c.288.235.565.405.832.512.267.096.517.144.752.144Zm7.364 1.52c-.683 0-1.243-.213-1.68-.64-.427-.427-.64-.981-.64-1.664 0-.843.368-1.493 1.104-1.952.736-.469 1.909-.789 3.52-.96-.011-.416-.123-.773-.336-1.072-.203-.309-.571-.464-1.104-.464a3.04 3.04 0 0 0-1.136.224c-.363.149-.72.331-1.072.544l-.672-1.232a7.901 7.901 0 0 1 1.472-.72 5.076 5.076 0 0 1 1.76-.304c.981 0 1.712.293 2.192.88.49.576.736 1.413.736 2.512V147h-1.52l-.128-.864h-.064a5.68 5.68 0 0 1-1.136.752 2.793 2.793 0 0 1-1.296.304Zm.592-1.44c.32 0 .608-.075.864-.224a5.73 5.73 0 0 0 .848-.64v-1.76c-1.067.139-1.808.347-2.224.624-.416.267-.624.597-.624.992 0 .352.106.608.32.768.213.16.485.24.816.24Zm7.586 1.44c-.651 0-1.115-.197-1.392-.592-.267-.395-.4-.933-.4-1.616v-9.28h1.84v9.376c0 .224.042.384.128.48a.383.383 0 0 0 .272.128h.112c.042-.011.101-.021.176-.032l.24 1.376a2.886 2.886 0 0 1-.976.16Z"/></g><rect width="451" height="27" x="77.5" y="127.5" stroke="#0C419A" rx="3.5"/></g><defs><clipPath id="a"><path fill="#fff" d="M0 0h541v357H0z"/></clipPath><clipPath id="c"><rect width="780" height="400" x="62" y="60" fill="#fff" rx="16"/></clipPath><clipPath id="d"><rect width="452" height="28" x="77" y="127" fill="#fff" rx="4"/></clipPath><filter id="b" width="940" height="580" x="-18" y="60" color-interpolation-filters="sRGB" filterUnits="userSpaceOnUse"><feFlood flood-opacity="0" result="BackgroundImageFix"/><feColorMatrix in="SourceAlpha" result="hardAlpha" values="0 0 0 0 0 0 0 0 0 0 0 0 0 0 0 0 0 0 127 0"/><feOffset dy="2.767"/><feGaussianBlur stdDeviation="1.107"/><feColorMatrix values="0 0 0 0 0 0 0 0 0 0 0 0 0 0 0 0 0 0 0.0196802 0"/><feBlend in2="BackgroundImageFix" result="effect1_dropShadow_506_106173"/><feColorMatrix in="SourceAlpha" result="hardAlpha" values="0 0 0 0 0 0 0 0 0 0 0 0 0 0 0 0 0 0 127 0"/><feOffset dy="6.65"/><feGaussianBlur stdDeviation="2.66"/><feColorMatrix values="0 0 0 0 0 0 0 0 0 0 0 0 0 0 0 0 0 0 0.0282725 0"/><feBlend in2="effect1_dropShadow_506_106173" result="effect2_dropShadow_506_106173"/><feColorMatrix in="SourceAlpha" result="hardAlpha" values="0 0 0 0 0 0 0 0 0 0 0 0 0 0 0 0 0 0 127 0"/><feOffset dy="12.522"/><feGaussianBlur stdDeviation="5.009"/><feColorMatrix values="0 0 0 0 0 0 0 0 0 0 0 0 0 0 0 0 0 0 0.035 0"/><feBlend in2="effect2_dropShadow_506_106173" result="effect3_dropShadow_506_106173"/><feColorMatrix in="SourceAlpha" result="hardAlpha" values="0 0 0 0 0 0 0 0 0 0 0 0 0 0 0 0 0 0 127 0"/><feOffset dy="22.336"/><feGaussianBlur stdDeviation="8.935"/><feColorMatrix values="0 0 0 0 0 0 0 0 0 0 0 0 0 0 0 0 0 0 0.0417275 0"/><feBlend in2="effect3_dropShadow_506_106173" result="effect4_dropShadow_506_106173"/><feColorMatrix in="SourceAlpha" result="hardAlpha" values="0 0 0 0 0 0 0 0 0 0 0 0 0 0 0 0 0 0 127 0"/><feOffset dy="41.778"/><feGaussianBlur stdDeviation="16.711"/><feColorMatrix values="0 0 0 0 0 0 0 0 0 0 0 0 0 0 0 0 0 0 0.0503198 0"/><feBlend in2="effect4_dropShadow_506_106173" result="effect5_dropShadow_506_106173"/><feColorMatrix in="SourceAlpha" result="hardAlpha" values="0 0 0 0 0 0 0 0 0 0 0 0 0 0 0 0 0 0 127 0"/><feOffset dy="100"/><feGaussianBlur stdDeviation="40"/><feColorMatrix values="0 0 0 0 0 0 0 0 0 0 0 0 0 0 0 0 0 0 0.07 0"/><feBlend in2="effect5_dropShadow_506_106173" result="effect6_dropShadow_506_106173"/><feBlend in="SourceGraphic" in2="effect6_dropShadow_506_106173" result="shape"/></filter></defs></svg>
