<svg xmlns="http://www.w3.org/2000/svg" width="541" height="357" fill="none"><path fill="#E7ECF5" d="M0 0h541v357H0z"/><path fill="#fff" d="M63 88h415v181H63z"/><rect width="191" height="19" x="177" y="231" fill="#CED9EB" opacity=".5" rx="9.5"/><rect width="97" height="19" x="143" y="108" fill="#CED9EB" opacity=".5" rx="9.5"/><rect width="116" height="19" x="143" y="143" fill="#CED9EB" opacity=".5" rx="9.5"/><g clip-path="url(#a)"><path fill="#0C419A" d="M282.25 194.733c-1.133-5.75-6.183-10.066-12.25-10.066-4.817 0-9 2.733-11.083 6.733-5.017.533-8.917 4.783-8.917 9.933 0 5.517 4.483 10 10 10h21.667c4.6 0 8.333-3.733 8.333-8.333 0-4.4-3.417-7.967-7.75-8.267Zm-8.917 4.934v6.666h-6.666v-6.666h-5l8.333-8.334 8.333 8.334h-5Z"/></g><path fill="#000" fill-opacity=".38" d="M123.125 112c-.619 0-1.119.54-1.119 1.2l-.006 9.6c0 .66.501 1.2 1.119 1.2h6.756c.619 0 1.125-.54 1.125-1.2v-7.2l-3.375-3.6h-4.5Zm3.937 4.2v-3.3l3.094 3.3h-3.094ZM123.125 146c-.619 0-1.119.54-1.119 1.2l-.006 9.6c0 .66.501 1.2 1.119 1.2h6.756c.619 0 1.125-.54 1.125-1.2v-7.2l-3.375-3.6h-4.5Zm3.937 4.2v-3.3l3.094 3.3h-3.094Z"/><path fill="#000" fill-opacity=".6" d="M397.286 120.647h3.428v-3.529H403L399 113l-4 4.118h2.286v3.529ZM395 121.824h8V123h-8v-1.176ZM397.286 154.647h3.428v-3.529H403L399 147l-4 4.118h2.286v3.529ZM395 155.824h8V157h-8v-1.176Z"/><path stroke="#000" stroke-opacity=".12" d="M122 134.5h285M122 169.5h285"/><defs><clipPath id="a"><path fill="#fff" d="M250 178h40v40h-40z"/></clipPath></defs></svg>