<svg width="417" height="121" viewBox="0 0 417 121" fill="none" xmlns="http://www.w3.org/2000/svg">
<rect width="416" height="120" transform="translate(0.253418 0.503906)" fill="white"/>
<path d="M277.329 77.7515C277.076 77.7515 276.896 77.5707 276.896 77.3537V42.678C276.896 42.4611 277.076 42.2803 277.329 42.2803C277.583 42.2803 277.763 42.4611 277.763 42.678V77.3537C277.763 77.5707 277.583 77.7515 277.329 77.7515Z" fill="#00A5DF" fill-opacity="0.8"/>
<path d="M122.43 83.8525H123.769L125.869 90.3322H124.638L123.66 86.8933C123.443 86.2055 123.262 85.4815 123.081 84.7575H123.045C122.864 85.4815 122.683 86.2055 122.466 86.8933L121.452 90.3322H120.294L122.43 83.8525ZM121.561 87.6896H124.602V88.5946H121.561V87.6896Z" fill="#0C419A"/>
<path d="M126.556 91.2368C126.556 90.8386 126.81 90.4766 127.244 90.187V90.1508C126.991 90.006 126.81 89.7165 126.81 89.3545C126.81 88.9925 127.063 88.6305 127.353 88.4495V88.4133C127.027 88.1599 126.701 87.6893 126.701 87.1101C126.701 85.9879 127.606 85.3726 128.619 85.3726C128.873 85.3726 129.126 85.4088 129.343 85.4812H131.081V86.3137H130.176C130.321 86.4947 130.466 86.7843 130.466 87.1463C130.466 88.2323 129.633 88.8115 128.619 88.8115C128.402 88.8115 128.185 88.7753 127.968 88.6667C127.823 88.7753 127.715 88.9201 127.715 89.1373C127.715 89.4269 127.896 89.5717 128.511 89.5717H129.38C130.538 89.5717 131.153 89.9336 131.153 90.7662C131.153 91.7436 130.14 92.5038 128.547 92.5038C127.425 92.5038 126.556 92.1056 126.556 91.2368ZM130.104 90.9834C130.104 90.6214 129.814 90.5128 129.235 90.5128H128.583C128.33 90.5128 128.113 90.4766 127.932 90.4404C127.678 90.6214 127.57 90.8748 127.57 91.092C127.57 91.5264 128.04 91.7798 128.8 91.7798C129.561 91.7798 130.104 91.4178 130.104 90.9834ZM129.488 87.1101C129.488 86.4947 129.126 86.1327 128.656 86.1327C128.185 86.1327 127.823 86.4947 127.823 87.1101C127.823 87.7255 128.185 88.0875 128.656 88.0875C129.126 88.0875 129.488 87.7255 129.488 87.1101Z" fill="#0C419A"/>
<path d="M132.276 83.9612C132.276 83.563 132.565 83.3096 133 83.3096C133.398 83.3096 133.724 83.563 133.724 83.9612C133.724 84.3231 133.434 84.6127 133 84.6127C132.602 84.6127 132.276 84.3593 132.276 83.9612ZM132.421 85.4815H133.579V90.3684H132.421V85.4815Z" fill="#0C419A"/>
<path d="M135.353 85.4812H136.294L136.366 86.3499H136.402C136.764 85.6983 137.271 85.3726 137.778 85.3726C138.031 85.3726 138.176 85.4088 138.321 85.4812L138.14 86.4585C137.959 86.4223 137.85 86.3861 137.633 86.3861C137.235 86.3861 136.764 86.6395 136.475 87.3997V90.368H135.316V85.4812H135.353Z" fill="#0C419A"/>
<path d="M141.398 87.9066C141.398 86.3138 142.484 85.3364 143.642 85.3364C144.945 85.3364 145.669 86.2776 145.669 87.6532C145.669 87.8704 145.633 88.0876 145.633 88.1962H142.52C142.629 89.0649 143.172 89.5717 143.968 89.5717C144.402 89.5717 144.728 89.4269 145.09 89.2097L145.488 89.9337C145.018 90.2595 144.439 90.4767 143.823 90.4767C142.448 90.4767 141.398 89.5355 141.398 87.9066ZM144.692 87.436C144.692 86.6758 144.366 86.2414 143.678 86.2414C143.099 86.2414 142.593 86.6758 142.52 87.436H144.692Z" fill="#0C419A"/>
<path d="M147.081 85.4812H148.022L148.095 86.1328H148.131C148.565 85.6984 149.072 85.3364 149.724 85.3364C150.773 85.3364 151.208 86.0604 151.208 87.2912V90.3319H150.05V87.436C150.05 86.6396 149.832 86.3138 149.289 86.3138C148.855 86.3138 148.565 86.531 148.167 86.9292V90.3319H147.009V85.4812H147.081Z" fill="#0C419A"/>
<path d="M152.511 89.7888L153.054 89.0649C153.489 89.3907 153.923 89.6079 154.394 89.6079C154.937 89.6079 155.19 89.3545 155.19 89.0287C155.19 88.6305 154.647 88.4495 154.14 88.2323C153.489 87.9789 152.765 87.6169 152.765 86.8205C152.765 85.9879 153.452 85.3726 154.538 85.3726C155.226 85.3726 155.769 85.6622 156.167 85.9517L155.661 86.6395C155.335 86.3861 154.973 86.2051 154.575 86.2051C154.068 86.2051 153.851 86.4223 153.851 86.7481C153.851 87.1463 154.357 87.2911 154.864 87.4721C155.516 87.7255 156.276 88.0513 156.276 88.9563C156.276 89.7889 155.624 90.4766 154.394 90.4766C153.706 90.4766 152.982 90.187 152.511 89.7888Z" fill="#0C419A"/>
<path d="M157.29 87.9066C157.29 86.3138 158.376 85.3364 159.534 85.3364C160.837 85.3364 161.561 86.2776 161.561 87.6532C161.561 87.8704 161.525 88.0876 161.525 88.1962H158.412C158.52 89.0649 159.063 89.5717 159.86 89.5717C160.294 89.5717 160.62 89.4269 160.982 89.2097L161.38 89.9337C160.909 90.2595 160.33 90.4767 159.715 90.4767C158.339 90.4767 157.29 89.5355 157.29 87.9066ZM160.547 87.436C160.547 86.6758 160.222 86.2414 159.534 86.2414C158.955 86.2414 158.448 86.6758 158.376 87.436H160.547Z" fill="#0C419A"/>
<path d="M162.973 85.4812H163.914L163.986 86.1328H164.023C164.421 85.6984 164.891 85.3364 165.507 85.3364C166.231 85.3364 166.629 85.6622 166.846 86.2052C167.317 85.6984 167.787 85.3364 168.403 85.3364C169.416 85.3364 169.923 86.0604 169.923 87.2912V90.3319H168.765V87.436C168.765 86.6396 168.511 86.3138 168.004 86.3138C167.679 86.3138 167.353 86.4948 166.991 86.9292V90.3319H165.833V87.436C165.833 86.6396 165.579 86.3138 165.072 86.3138C164.783 86.3138 164.421 86.4948 164.059 86.9292V90.3319H162.9V85.4812H162.973Z" fill="#0C419A"/>
<path d="M172.71 89.8615L172.566 90.3683H171.661V83.3457H172.819V85.1557L172.783 85.952C173.181 85.59 173.688 85.3367 174.195 85.3367C175.425 85.3367 176.113 86.314 176.113 87.7982C176.113 89.4633 175.1 90.4407 174.014 90.4407C173.615 90.4769 173.145 90.2597 172.71 89.8615ZM174.955 87.8706C174.955 86.8932 174.629 86.314 173.905 86.314C173.543 86.314 173.217 86.495 172.855 86.857V89.1376C173.181 89.4272 173.543 89.5357 173.833 89.5357C174.448 89.5357 174.955 88.9566 174.955 87.8706Z" fill="#0C419A"/>
<path d="M177.561 89.1014V83.3457H178.719V89.1738C178.719 89.4633 178.864 89.5719 178.973 89.5719C179.009 89.5719 179.081 89.5719 179.154 89.5357L179.299 90.4045C179.154 90.4769 178.973 90.5131 178.683 90.5131C177.851 90.4769 177.561 89.9339 177.561 89.1014Z" fill="#0C419A"/>
<path d="M180.276 87.9066C180.276 86.3138 181.362 85.3364 182.52 85.3364C183.823 85.3364 184.547 86.2776 184.547 87.6532C184.547 87.8704 184.511 88.0876 184.511 88.1962H181.398C181.507 89.0649 182.05 89.5717 182.846 89.5717C183.28 89.5717 183.606 89.4269 183.968 89.2097L184.366 89.9337C183.896 90.2595 183.317 90.4767 182.701 90.4767C181.326 90.4767 180.276 89.5355 180.276 87.9066ZM183.534 87.436C183.534 86.6758 183.208 86.2414 182.52 86.2414C181.941 86.2414 181.434 86.6758 181.362 87.436H183.534Z" fill="#0C419A"/>
<path d="M186.647 88.9204C186.212 88.9204 185.887 89.21 185.887 89.6082C185.887 90.0788 186.249 90.296 186.611 90.296C186.647 90.296 186.683 90.296 186.683 90.296C186.683 90.8028 186.321 91.2734 185.669 91.4905L185.923 92.1059C186.9 91.7801 187.479 91.02 187.479 90.0426C187.479 89.3548 187.19 88.9204 186.647 88.9204Z" fill="#0C419A"/>
<path d="M191.461 85.4812H192.403L192.475 85.988H192.511C192.909 85.626 193.452 85.3364 193.995 85.3364C195.226 85.3364 195.914 86.3138 195.914 87.8342C195.914 89.4993 194.9 90.4767 193.814 90.4767C193.38 90.4767 192.946 90.2957 192.547 89.9337L192.584 90.7301V92.2505H191.425V85.4812H191.461ZM194.719 87.8704C194.719 86.893 194.394 86.3138 193.67 86.3138C193.308 86.3138 192.982 86.4948 192.62 86.8568V89.1373C192.982 89.4269 193.308 89.5355 193.597 89.5355C194.213 89.5355 194.719 88.9563 194.719 87.8704Z" fill="#0C419A"/>
<path d="M197.362 85.4812H198.303L198.375 86.3499H198.412C198.774 85.6983 199.28 85.3726 199.787 85.3726C200.041 85.3726 200.185 85.4088 200.33 85.4812L200.149 86.4585C199.968 86.4223 199.86 86.3861 199.642 86.3861C199.244 86.3861 198.774 86.6395 198.484 87.3997V90.368H197.326V85.4812H197.362Z" fill="#0C419A"/>
<path d="M200.801 87.9066C200.801 86.2776 201.923 85.3364 203.118 85.3364C204.312 85.3364 205.434 86.2776 205.434 87.9066C205.434 89.5355 204.312 90.4767 203.118 90.4767C201.923 90.4767 200.801 89.5355 200.801 87.9066ZM204.24 87.9066C204.24 86.9292 203.805 86.2776 203.081 86.2776C202.357 86.2776 201.923 86.9292 201.923 87.9066C201.923 88.8839 202.357 89.5355 203.081 89.5355C203.805 89.5355 204.24 88.8839 204.24 87.9066Z" fill="#0C419A"/>
<path d="M206.882 88.7032V86.3864H206.194V85.5177L206.955 85.4815L207.099 84.1421H208.04V85.4815H209.271V86.3864H208.04V88.7032C208.04 89.2824 208.258 89.572 208.728 89.572C208.909 89.572 209.09 89.4996 209.235 89.4634L209.416 90.2959C209.163 90.3683 208.801 90.4769 208.402 90.4769C207.317 90.4769 206.882 89.7529 206.882 88.7032Z" fill="#0C419A"/>
<path d="M210.176 87.9066C210.176 86.3139 211.262 85.3365 212.421 85.3365C213.724 85.3365 214.448 86.2777 214.448 87.6532C214.448 87.8704 214.412 88.0876 214.412 88.1962H211.298C211.407 89.065 211.95 89.5718 212.746 89.5718C213.181 89.5718 213.507 89.427 213.869 89.2098L214.267 89.9338C213.796 90.2596 213.217 90.4768 212.602 90.4768C211.226 90.4768 210.176 89.5356 210.176 87.9066ZM213.434 87.436C213.434 86.6759 213.108 86.2415 212.421 86.2415C211.841 86.2415 211.335 86.6759 211.262 87.436H213.434ZM211.805 84.1057L213.253 82.3682L214.05 83.1283L212.384 84.6487L211.805 84.1057Z" fill="#0C419A"/>
<path d="M215.461 91.2368C215.461 90.8386 215.715 90.4766 216.149 90.187V90.1508C215.896 90.006 215.715 89.7165 215.715 89.3545C215.715 88.9925 215.968 88.6305 216.258 88.4495V88.4133C215.932 88.1599 215.606 87.6893 215.606 87.1101C215.606 85.9879 216.511 85.3726 217.525 85.3726C217.778 85.3726 218.032 85.4088 218.249 85.4812H219.986V86.3137H219.081C219.226 86.4947 219.371 86.7843 219.371 87.1463C219.371 88.2323 218.538 88.8115 217.525 88.8115C217.308 88.8115 217.09 88.7753 216.873 88.6667C216.728 88.7753 216.62 88.9201 216.62 89.1373C216.62 89.4269 216.801 89.5717 217.416 89.5717H218.285C219.443 89.5717 220.059 89.9336 220.059 90.7662C220.059 91.7436 219.045 92.5038 217.452 92.5038C216.33 92.5038 215.461 92.1056 215.461 91.2368ZM219.009 90.9834C219.009 90.6214 218.719 90.5128 218.14 90.5128H217.489C217.235 90.5128 217.018 90.4766 216.837 90.4404C216.584 90.6214 216.475 90.8748 216.475 91.092C216.475 91.5264 216.946 91.7798 217.706 91.7798C218.466 91.7798 219.009 91.4178 219.009 90.9834ZM218.394 87.1101C218.394 86.4947 218.032 86.1327 217.561 86.1327C217.09 86.1327 216.728 86.4947 216.728 87.1101C216.728 87.7255 217.09 88.0875 217.561 88.0875C218.032 88.0875 218.394 87.7255 218.394 87.1101Z" fill="#0C419A"/>
<path d="M220.783 87.9066C220.783 86.3138 221.869 85.3364 223.027 85.3364C224.33 85.3364 225.054 86.2776 225.054 87.6532C225.054 87.8704 225.018 88.0876 225.018 88.1962H221.905C222.013 89.0649 222.556 89.5717 223.353 89.5717C223.787 89.5717 224.113 89.4269 224.475 89.2097L224.873 89.9337C224.403 90.2595 223.823 90.4767 223.208 90.4767C221.832 90.4767 220.783 89.5355 220.783 87.9066ZM224.041 87.436C224.041 86.6758 223.715 86.2414 223.027 86.2414C222.448 86.2414 221.941 86.6758 221.869 87.436H224.041Z" fill="#0C419A"/>
<path d="M226.466 85.4812H227.407L227.479 86.3499H227.516C227.878 85.6983 228.384 85.3726 228.891 85.3726C229.145 85.3726 229.289 85.4088 229.434 85.4812L229.253 86.4585C229.072 86.4223 228.964 86.3861 228.746 86.3861C228.348 86.3861 227.878 86.6395 227.588 87.3997V90.368H226.43V85.4812H226.466Z" fill="#0C419A"/>
<path d="M232.511 87.9066C232.511 86.2776 233.67 85.3364 234.973 85.3364C235.588 85.3364 236.059 85.5898 236.385 85.8794L235.842 86.6396C235.588 86.4224 235.335 86.2776 235.045 86.2776C234.249 86.2776 233.706 86.9292 233.706 87.9066C233.706 88.8839 234.249 89.5355 235.009 89.5355C235.407 89.5355 235.733 89.3545 236.023 89.1011L236.493 89.8613C236.023 90.2595 235.443 90.4767 234.9 90.4767C233.525 90.4767 232.511 89.5355 232.511 87.9066Z" fill="#0C419A"/>
<path d="M237.724 83.3457H238.882V85.1557L238.846 86.0968C239.244 85.6986 239.751 85.3728 240.402 85.3728C241.452 85.3728 241.887 86.0968 241.887 87.3276V90.3683H240.728V87.4724C240.728 86.676 240.511 86.3502 239.968 86.3502C239.534 86.3502 239.244 86.5674 238.846 86.9656V90.3683H237.688V83.3457H237.724Z" fill="#0C419A"/>
<path d="M243.262 89.0288C243.262 87.979 244.131 87.436 246.122 87.2188C246.122 86.7121 245.905 86.2415 245.253 86.2415C244.783 86.2415 244.312 86.4587 243.878 86.7121L243.443 85.9519C243.986 85.6261 244.674 85.3003 245.434 85.3003C246.665 85.3003 247.244 86.0605 247.244 87.3998V90.2958H246.339L246.267 89.7528H246.231C245.796 90.1148 245.289 90.4044 244.71 90.4044C243.841 90.4768 243.262 89.8976 243.262 89.0288ZM246.122 89.065V87.979C244.783 88.16 244.348 88.4858 244.348 88.9926C244.348 89.427 244.638 89.608 245.036 89.608C245.47 89.5718 245.76 89.3908 246.122 89.065Z" fill="#0C419A"/>
<path d="M248.62 87.9066C248.62 86.2776 249.778 85.3364 251.081 85.3364C251.697 85.3364 252.167 85.5898 252.493 85.8794L251.95 86.6396C251.697 86.4224 251.443 86.2776 251.154 86.2776C250.357 86.2776 249.814 86.9292 249.814 87.9066C249.814 88.8839 250.357 89.5355 251.117 89.5355C251.516 89.5355 251.841 89.3545 252.131 89.1011L252.602 89.8613C252.131 90.2595 251.552 90.4767 251.009 90.4767C249.633 90.4767 248.62 89.5355 248.62 87.9066Z" fill="#0C419A"/>
<path d="M253.76 88.5222V85.4814H254.918V88.3774C254.918 89.1738 255.135 89.4995 255.678 89.4995C256.113 89.4995 256.402 89.3185 256.764 88.8118V85.4814H257.923V90.3683H256.981L256.909 89.6443H256.837C256.402 90.1511 255.932 90.4769 255.28 90.4769C254.23 90.4769 253.76 89.7529 253.76 88.5222Z" fill="#0C419A"/>
<path d="M259.588 85.4812H260.529L260.601 86.1328H260.638C261.072 85.6984 261.579 85.3364 262.23 85.3364C263.28 85.3364 263.715 86.0604 263.715 87.2912V90.3319H262.629V87.436C262.629 86.6396 262.411 86.3138 261.868 86.3138C261.434 86.3138 261.144 86.531 260.746 86.9292V90.3319H259.588V85.4812Z" fill="#0C419A"/>
<path d="M56.5477 60.7575L56.1133 60.3593C56.2943 60.1421 56.4391 59.8887 56.4753 59.6353C56.4753 59.3457 56.3667 59.2009 56.2219 59.2009C56.0409 59.2009 55.9685 59.3457 55.8599 59.6353L55.6789 60.0335C55.5341 60.3231 55.2807 60.6127 54.8463 60.6127C54.3395 60.5765 53.9775 60.1421 54.0137 59.4905C54.0137 59.1285 54.1947 58.8027 54.4481 58.5493L54.8463 58.9113C54.7015 59.0923 54.5929 59.2733 54.5929 59.5267C54.5929 59.7439 54.6653 59.9249 54.8463 59.9249C55.0273 59.9249 55.0997 59.7439 55.2083 59.4905L55.3893 59.1285C55.5703 58.7665 55.8237 58.5493 56.2219 58.5855C56.7287 58.6217 57.1268 59.0561 57.0906 59.7801C57.0182 60.0335 56.8373 60.4679 56.5477 60.7575Z" fill="#0C419A"/>
<path d="M53.7602 56.4495L53.2534 55.5807L53.724 55.2911L54.1584 56.1961L53.7602 56.4495ZM54.1222 57.1372L54.4118 55.2549L54.991 55.3273L54.81 56.5219L55.4254 56.5942L55.5702 55.5807L56.1493 55.6531L56.0045 56.6666L56.6923 56.7752L56.8733 55.5445L57.4525 55.6169L57.1629 57.5354L54.1222 57.1372Z" fill="#0C419A"/>
<path d="M56.0407 54.4949C55.0633 54.2415 54.6651 53.4814 54.8461 52.7212C54.9547 52.3592 55.2081 52.0696 55.4615 51.9248L55.7873 52.3954C55.6063 52.504 55.4615 52.6488 55.4253 52.866C55.3167 53.2642 55.6063 53.6624 56.1855 53.8072C56.8009 53.952 57.1991 53.771 57.3077 53.3366C57.3801 53.0832 57.3077 52.866 57.1629 52.685L57.6697 52.4316C57.8869 52.7574 57.9593 53.1194 57.8507 53.4814C57.7059 54.2777 57.0181 54.7483 56.0407 54.4949Z" fill="#0C419A"/>
<path d="M56.9818 51.3456L55.4614 50.7664L55.7148 50.1148L57.3076 50.7302C57.8506 50.9474 58.104 50.8388 58.2488 50.513C58.3574 50.1872 58.2488 49.9338 57.7058 49.7166L56.113 49.1012L56.3302 48.4858L57.8506 49.065C58.7917 49.427 59.0451 49.97 58.7917 50.694C58.5022 51.4542 57.923 51.6714 56.9818 51.3456Z" fill="#0C419A"/>
<path d="M56.9458 47.0741L57.4526 46.0967C57.7422 45.5175 58.1766 45.1555 58.8282 45.4813C59.4435 45.8071 59.4797 46.3863 59.1539 46.9655L58.9729 47.3275L59.9503 47.8342L59.6245 48.4496L56.9458 47.0741ZM58.6472 46.7845C58.8282 46.4587 58.7558 46.2415 58.5024 46.0967C58.249 45.9519 58.068 46.0967 57.887 46.3863L57.7422 46.7121L58.4662 47.1103L58.6472 46.7845ZM58.9368 47.0379L58.7558 46.4225L60.7105 46.3501L60.3485 47.0379H58.9368Z" fill="#0C419A"/>
<path d="M58.6831 43.816L59.0451 43.2368L61.579 44.8658L61.217 45.445L58.6831 43.816Z" fill="#0C419A"/>
<path d="M60.6019 42.0063L60.0951 42.6579L59.6245 42.2959L61.0363 40.4497L61.5069 40.8117L61.0001 41.4633L62.9548 42.9474L62.5566 43.4904L60.6019 42.0063Z" fill="#0C419A"/>
<path d="M61.7964 39.5448L63.0996 38.1692L63.5339 38.5674L62.7014 39.4362L63.1358 39.8343L63.8235 39.0742L64.2579 39.4724L63.5701 40.2325L64.0769 40.7031L64.9457 39.7981L65.3801 40.1963L64.0769 41.6081L61.7964 39.5448ZM61.8688 38.7846L61.9412 37.771L62.5204 37.8072L62.3394 38.7846H61.8688Z" fill="#0C419A"/>
<path d="M66.8642 38.2051L66.9004 37.5897C67.19 37.5897 67.4796 37.5535 67.6606 37.3725C67.8778 37.1915 67.914 37.0105 67.8054 36.8657C67.6968 36.7209 67.5158 36.7571 67.2262 36.8657L66.828 36.9743C66.5022 37.0829 66.1041 37.0467 65.8507 36.6847C65.5611 36.2865 65.6697 35.7073 66.1403 35.3091C66.4298 35.092 66.7918 34.9834 67.1538 35.0196V35.5625C66.9004 35.5625 66.7194 35.5987 66.5022 35.7435C66.3213 35.8883 66.2489 36.0693 66.3575 36.1779C66.466 36.3227 66.6832 36.2503 66.9366 36.1779L67.3348 36.0693C67.733 35.9607 68.0588 35.9969 68.3122 36.3589C68.6018 36.7571 68.5656 37.3363 67.9864 37.8069C67.6968 38.0965 67.2624 38.2413 66.8642 38.2051Z" fill="#0C419A"/>
<path d="M68.7103 35.3092C68.2035 34.4766 68.3845 33.6802 69.0722 33.282C69.76 32.8476 70.5202 33.0648 71.027 33.8974C71.5338 34.73 71.3528 35.5264 70.665 35.9608C70.0134 36.359 69.217 36.1418 68.7103 35.3092ZM70.484 34.2594C70.1582 33.7526 69.76 33.5716 69.398 33.7888C69.036 34.006 68.9998 34.4404 69.3256 34.9472C69.6514 35.454 70.0496 35.6712 70.4116 35.454C70.7374 35.2368 70.7736 34.7662 70.484 34.2594Z" fill="#0C419A"/>
<path d="M71.9323 33.4268C71.4979 32.5218 71.8599 31.7254 72.5477 31.3996C72.9097 31.2187 73.2717 31.2548 73.5251 31.3634L73.3803 31.9064C73.1993 31.834 72.9821 31.834 72.8011 31.9064C72.4391 32.0874 72.2943 32.558 72.5477 33.101C72.8011 33.6802 73.2355 33.8612 73.6336 33.6802C73.8508 33.5716 73.9956 33.3906 74.0318 33.1734L74.5386 33.4268C74.43 33.7888 74.2128 34.0784 73.8508 34.2232C73.1631 34.549 72.3667 34.3318 71.9323 33.4268Z" fill="#0C419A"/>
<path d="M74.6108 30.6034L75.2624 30.3862L76.3122 33.2098L75.6606 33.427L74.6108 30.6034Z" fill="#0C419A"/>
<path d="M77.3258 29.6986L78.1222 29.4814L79.8236 32.1602L79.1358 32.3412L78.3756 30.9656C78.2308 30.7122 78.0498 30.3864 77.905 30.0968C77.905 30.4226 77.9412 30.7846 77.9412 31.1104V32.7032L77.2534 32.8842L77.3258 29.6986ZM77.4706 31.4724L78.8824 31.1104L79.0272 31.6172L77.6154 31.9792L77.4706 31.4724Z" fill="#0C419A"/>
<path d="M80.1494 29.0105L80.8372 28.9019L81.1992 31.3272L82.3576 31.1462L82.43 31.7254L80.5838 32.015L80.1494 29.0105Z" fill="#0C419A"/>
<path d="M83.0815 28.6125L84.9639 28.5039L85.0001 29.0831L83.8055 29.1555L83.8417 29.7709L84.8553 29.6985L84.8915 30.2777L83.8779 30.3501L83.9141 31.0378L85.1811 30.9654L85.2173 31.5446L83.2987 31.6532L83.0815 28.6125Z" fill="#0C419A"/>
<path d="M153.38 73.5358V59.0562H157.181V73.6806C157.181 74.5132 157.543 74.7666 157.869 74.7666C158.014 74.7666 158.122 74.7666 158.34 74.7304L158.81 77.5901C158.376 77.7711 157.76 77.9159 156.892 77.9159C154.285 77.9521 153.38 76.1783 153.38 73.5358Z" fill="#0C419A"/>
<path d="M128.982 68.9024C129.308 67.8526 132.711 60.3594 132.711 60.3594H136.729V77.6263H133.109V66.9476L130.104 74.6942H127.788L124.783 66.9476V77.6263H121.163V60.3594H125.181C125.181 60.3594 128.548 67.8526 128.91 68.9024H128.982Z" fill="#0C419A"/>
<path d="M160.367 73.9701C160.367 71.219 162.683 69.6624 167.788 69.1194C167.715 67.9611 166.991 67.2733 165.579 67.2733C164.493 67.2733 163.407 67.7439 162.177 68.4678L160.837 65.8977C162.466 64.8841 164.312 64.1602 166.34 64.1602C169.634 64.1602 171.444 66.0787 171.444 70.0968V77.59H167.824V76.323C167.824 76.323 166.34 77.9158 164.24 77.9158C161.851 77.952 160.367 76.1783 160.367 73.9701ZM167.788 73.7529V71.4724C165.073 71.8344 164.023 72.7031 164.023 73.6805C164.023 74.5131 164.602 74.9475 165.507 74.9475C166.34 74.9113 167.1 74.4407 167.788 73.7529Z" fill="#0C419A"/>
<path d="M139.371 73.9701C139.371 71.219 141.688 69.6624 146.792 69.1194C146.72 67.9611 145.996 67.2733 144.584 67.2733C143.498 67.2733 142.412 67.7439 141.181 68.4678L139.842 65.8977C141.471 64.8841 143.317 64.1602 145.344 64.1602C148.638 64.1602 150.448 66.0787 150.448 70.0968V77.59H146.828V76.323C146.828 76.323 145.344 77.9158 143.244 77.9158C140.855 77.952 139.371 76.1783 139.371 73.9701ZM146.792 73.7529V71.4724C144.077 71.8344 143.027 72.7031 143.027 73.6805C143.027 74.5131 143.606 74.9475 144.511 74.9475C145.344 74.9113 146.104 74.4407 146.792 73.7529Z" fill="#0C419A"/>
<path d="M182.195 59.0562V65.4272C181.326 64.5946 180.457 64.1602 179.045 64.1602C176.33 64.1602 173.724 66.7666 173.724 71.0381C173.724 75.3457 175.787 77.9159 178.973 77.9159C180.711 77.9159 182.086 76.6127 182.195 76.5041V77.6263H185.996V59.0562H182.195ZM179.95 74.7666C178.466 74.7666 177.597 73.6082 177.597 71.0381C177.597 68.5403 178.683 67.3819 179.914 67.3819C180.602 67.3819 181.362 67.5991 182.195 68.2145V73.6082C181.435 74.4408 180.783 74.7666 179.95 74.7666Z" fill="#0C419A"/>
<path d="M188.928 60.5403C188.928 59.3458 189.869 58.5132 191.136 58.5132C192.403 58.5132 193.344 59.3458 193.344 60.5403C193.344 61.7349 192.403 62.5675 191.136 62.5675C189.869 62.5675 188.928 61.6987 188.928 60.5403ZM189.217 64.486H193.018V77.6263H189.217V64.486Z" fill="#0C419A"/>
<path d="M195.407 71.038C195.407 66.7665 198.086 64.1602 201.308 64.1602C204.964 64.1602 206.991 66.8751 206.991 70.4588C206.991 71.1466 206.919 71.8706 206.846 72.1964H199.136C199.462 74.1149 200.765 74.9837 202.466 74.9837C203.443 74.9837 204.276 74.5855 205.217 74.0425L206.52 76.4678C205.217 77.409 203.48 77.952 201.959 77.952C198.158 77.952 195.407 75.4181 195.407 71.038ZM203.733 69.6262C203.733 68.1783 202.9 67.1285 201.38 67.1285C200.186 67.1285 199.353 67.9611 199.1 69.6262H203.733Z" fill="#0C419A"/>
<path d="M121.163 51.8161V37.3364H124.964V51.9609C124.964 52.7934 125.326 53.0468 125.652 53.0468C125.797 53.0468 125.905 53.0468 126.122 53.0106L126.593 55.8704C126.159 56.0514 125.543 56.1962 124.674 56.1962C122.032 56.1962 121.163 54.4586 121.163 51.8161Z" fill="#0C419A"/>
<path d="M141.362 51.7799L142.412 55.9066H146.358L141.036 38.6396H136.656L131.335 55.9066H135.281L136.33 51.7799H141.362ZM137.127 48.7392L138.792 42.1872H138.937L140.602 48.7392H137.127Z" fill="#0C419A"/>
<path d="M147.118 54.3861L148.819 51.9608C149.977 52.8658 151.063 53.3364 152.149 53.3364C153.272 53.3364 153.778 52.902 153.778 52.2142C153.778 51.3454 152.511 50.9472 151.172 50.4404C149.579 49.825 147.769 48.7391 147.769 46.5671C147.769 44.1056 149.724 42.4404 152.692 42.4404C154.647 42.4404 156.131 43.2368 157.217 44.1056L155.516 46.4585C154.611 45.7707 153.706 45.3364 152.801 45.3364C151.824 45.3364 151.317 45.7345 151.317 46.3861C151.317 47.2187 152.511 47.5445 153.851 48.0513C155.48 48.6667 157.326 49.6079 157.326 51.997C157.326 54.3861 155.48 56.2323 152.041 56.2323C150.376 56.1961 148.421 55.4721 147.118 54.3861Z" fill="#0C419A"/>
<path d="M158.521 54.3861L160.222 51.9608C161.38 52.8658 162.466 53.3364 163.552 53.3364C164.674 53.3364 165.181 52.902 165.181 52.2142C165.181 51.3454 163.914 50.9472 162.575 50.4404C160.982 49.825 159.172 48.7391 159.172 46.5671C159.172 44.1056 161.127 42.4404 164.095 42.4404C166.05 42.4404 167.534 43.2368 168.62 44.1056L166.919 46.4585C166.014 45.7707 165.109 45.3364 164.204 45.3364C163.226 45.3364 162.72 45.7345 162.72 46.3861C162.72 47.2187 163.914 47.5445 165.254 48.0513C166.883 48.6667 168.729 49.6079 168.729 51.997C168.729 54.3861 166.883 56.2323 163.444 56.2323C161.778 56.1961 159.824 55.4721 158.521 54.3861Z" fill="#0C419A"/>
<path d="M185.489 42.7662H189.29V44.6486C190.014 43.2006 191.787 42.6938 192.692 42.6938C193.416 42.6938 193.851 42.8024 194.213 42.9472L193.815 46.4948C193.308 46.35 192.729 46.0966 192.186 46.0966C190.701 46.1328 189.398 47.3997 189.29 49.0649V55.9065H185.489V42.7662Z" fill="#0C419A"/>
<path d="M208.946 42.7662H212.747V44.4314C213.833 43.3816 214.919 42.4404 216.692 42.4404C219.48 42.4404 220.674 44.4676 220.674 47.7255V55.8703H216.873V48.1961C216.873 46.3137 216.367 45.6983 215.281 45.6983C214.339 45.6983 213.615 46.1689 212.783 46.9653V55.8341H208.982V42.7662H208.946Z" fill="#0C419A"/>
<path d="M233.851 49.3183C233.851 45.0468 236.53 42.4404 239.752 42.4404C243.408 42.4404 245.435 45.1554 245.435 48.7391C245.435 49.4269 245.362 50.1508 245.29 50.4766H237.58C237.905 52.3952 239.209 53.264 240.91 53.264C241.887 53.264 242.72 52.8658 243.661 52.3228L244.964 54.7481C243.661 55.6893 241.923 56.2323 240.403 56.2323C236.638 56.1961 233.851 53.6622 233.851 49.3183ZM242.213 47.9065C242.213 46.4585 241.38 45.4088 239.86 45.4088C238.666 45.4088 237.833 46.2413 237.58 47.9065H242.213Z" fill="#0C419A"/>
<path d="M195.045 52.2504C195.045 49.4993 197.362 47.9427 202.466 47.3997C202.394 46.2413 201.67 45.5536 200.258 45.5536C199.172 45.5536 198.086 46.0241 196.855 46.7481L195.516 44.178C197.145 43.1644 198.991 42.4404 201.018 42.4404C204.312 42.4404 206.122 44.359 206.122 48.3771V55.8703H202.502V54.6033C202.502 54.6033 201.018 56.1961 198.919 56.1961C196.53 56.1961 195.045 54.4585 195.045 52.2504ZM202.466 52.0332V49.7526C199.751 50.1146 198.702 50.9834 198.702 51.9608C198.702 52.7934 199.281 53.2278 200.186 53.2278C201.054 53.1916 201.815 52.721 202.466 52.0332Z" fill="#0C419A"/>
<path d="M129.96 37.2642C129.163 37.2642 128.077 37.8795 128.077 38.9655C128.077 39.9429 128.837 40.5221 129.634 40.5221C129.67 40.5221 129.706 40.5221 129.742 40.5221C129.706 41.6805 128.656 42.332 128.15 42.6216L129.163 44.0334C132.493 42.9836 133.181 37.3004 129.96 37.2642Z" fill="#0C419A"/>
<path d="M178.538 42.7666V51.4544C177.778 52.5042 177.199 52.9023 176.258 52.9023C175.172 52.9023 174.665 52.3232 174.665 50.4046V42.7666H170.864V51.0562C170.864 54.1693 172.204 56.2327 174.919 56.2327C177.38 56.2327 178.611 54.5675 178.611 54.5675V55.9069H182.376V42.7666H178.538Z" fill="#0C419A"/>
<path d="M229.507 53.0834C227.842 53.0834 226.611 51.5992 226.611 49.3549C226.611 47.0743 227.806 45.5902 229.616 45.5902C230.195 45.5902 230.702 45.8074 231.281 46.3142L233.091 43.8164C232.15 43.02 230.955 42.4771 229.398 42.4771C225.851 42.4771 222.738 45.011 222.738 49.3549C222.738 53.6988 225.453 56.2327 229.036 56.2327C230.448 56.2327 232.041 55.7983 233.272 54.6761L231.896 52.0336C231.172 52.649 230.376 53.0834 229.507 53.0834Z" fill="#0C419A"/>
<path d="M88.0044 37.4451C87.932 37.3003 87.6786 37.1917 87.4976 37.1555C87.2804 37.1193 87.1718 37.1193 87.1718 37.1193C86.9184 37.0469 81.8867 37.1193 80.6921 37.9157C80.5835 37.1193 80.2939 36.1419 78.9184 35.8523C77.941 35.6351 75.8414 36.5763 76.5292 38.6758C76.6378 39.0378 76.8912 39.2912 77.2532 39.4722C77.4342 39.5808 77.7238 39.5084 77.941 40.0876C78.0134 40.2324 78.122 40.2324 78.2306 40.1962C78.303 40.16 78.3392 40.1962 78.4478 40.2686C78.5564 40.341 78.6288 40.3048 78.6288 40.3048C78.6288 40.3048 78.665 40.341 78.7374 40.341C78.7736 40.341 78.9184 40.3048 78.9184 40.341C79.3166 40.6668 79.7872 40.16 79.9681 39.8342C80.1491 40.3772 80.6197 41.789 80.6197 41.789C80.4749 41.6442 78.8822 41.2098 78.122 42.0424C77.4704 42.7663 76.9636 43.7799 76.4206 45.4813C76.2758 45.9519 75.9862 46.1691 75.4433 46.3863C74.5745 46.712 75.0813 47.1102 75.2985 47.1464C75.8415 47.255 77.0722 47.1826 77.3256 47.074C77.6514 46.9292 77.398 46.1691 77.76 45.6985C78.0858 45.3003 78.3392 44.9383 78.5564 44.6849C78.5564 45.2279 78.5564 45.5175 78.2668 46.2053C78.0134 46.8568 77.217 47.1826 76.9636 47.4722C76.5292 48.0152 77.5066 48.0514 77.76 47.979C78.4116 47.7618 78.846 47.7618 79.0994 47.617C79.4614 47.3998 79.208 46.8206 79.3166 46.6035C79.6424 45.9519 80.7645 44.5401 80.9093 44.3229C80.9455 44.2867 80.9455 44.2505 80.9455 44.2143C81.7419 44.4677 82.6469 44.5401 82.9727 44.5039C84.8188 44.2867 85.217 42.9835 85.036 41.9338C84.855 40.9926 84.2758 40.4134 84.0948 40.1238C83.6243 39.3636 83.3347 38.9654 83.1537 38.7482C83.6967 38.6035 86.6288 37.8071 86.6288 37.8433C86.7374 38.0967 86.9908 38.1329 87.0632 38.2053C87.2442 38.3139 87.3528 38.1329 87.2804 38.0967C87.1356 37.9881 87.0994 37.9157 87.0994 37.9157C87.3528 37.9157 87.57 37.9519 87.751 37.9519C88.0405 37.9881 88.1491 37.5537 88.0044 37.4451Z" fill="#0C419A"/>
<path fill-rule="evenodd" clip-rule="evenodd" d="M114.176 55.1826C113.706 52.6486 111.353 51.0921 110.122 50.5491C109.289 50.1871 108.927 50.1147 108.783 50.0785C108.602 50.0061 108.457 49.9699 108.384 49.9337C108.457 49.3907 109.108 49.3545 109.507 48.5581C110.593 46.3138 108.348 44.7572 106.719 45.1192C105.923 45.3002 105.416 45.5536 105.271 46.169C105.199 46.4948 104.945 46.4948 104.547 46.9292C104.402 47.074 104.692 47.2912 104.764 47.3998C104.764 47.436 104.692 47.5446 104.656 47.6894C104.62 47.8342 104.656 47.798 104.656 47.8342C104.656 47.8342 104.583 47.9789 104.583 48.1599C104.583 48.1599 104.402 48.5219 104.583 48.9201C104.62 49.0287 104.837 49.2459 104.909 49.7527C104.909 49.8251 104.909 49.8613 104.62 49.7527C104.547 49.7165 101.543 48.8477 101.217 48.6305C100.855 48.3771 97.8866 45.1554 97.5609 44.54C97.3799 44.178 97.1989 43.9608 97.0903 43.9608C96.4025 43.997 97.5971 45.264 96.9093 44.8296C96.7283 44.721 96.2215 44.359 96.1853 44.3228C96.0405 44.2142 96.0767 44.2504 96.0043 44.1056C95.9319 43.9608 95.8595 43.8523 95.7871 43.8161C95.7147 43.7799 95.6785 43.7437 95.6061 43.7437C95.4975 43.7799 95.5337 43.8523 95.4975 43.8523C95.4975 43.8523 95.4251 43.8523 95.3889 43.8523C95.2079 43.8884 95.3527 44.3228 95.3889 44.54C95.3889 44.5762 95.8595 45.6984 96.0043 45.8794C96.7645 46.3862 97.4885 46.8568 97.5247 46.8568C98.3572 47.798 99.2984 48.9925 100.167 49.8975C100.855 50.6215 103.968 52.4314 104.04 52.4676C104.258 52.5762 104.583 53.264 104.113 58.0061C103.932 59.7799 102.665 63.5808 103.28 65.5355C103.679 66.8025 104.113 67.6713 104.583 71.1464C104.692 71.9065 104.077 72.4133 103.208 73.0287C102.882 73.2821 101.905 73.8613 101.832 73.9337C101.688 74.0785 101.832 74.2957 102.013 74.4043C102.231 74.4767 102.593 74.6939 102.81 74.7301C103.172 74.8025 103.715 74.7663 104.294 74.4405C104.909 74.0785 104.982 74.0423 105.344 73.7889C105.778 73.5355 106.285 73.4631 106.43 73.0287C106.611 72.4495 106.104 71.617 106.176 71.255C106.538 68.54 107.009 67.2007 106.321 65.5355C106.176 65.2097 107.298 61.5898 107.407 62.0604C107.588 63.0016 107.66 65.8613 107.697 67.9609C107.697 68.902 108.457 72.1599 108.71 73.3545C109.072 75.1645 106.031 76.6124 106.683 77.1554C106.828 77.264 107.226 77.445 107.588 77.5174C108.022 77.5898 108.348 77.5174 108.71 77.3726C108.927 77.3002 109.253 76.902 109.326 76.8296C109.977 76.0333 109.76 76.2504 110.303 75.6713C110.737 75.1645 110.412 74.2957 110.375 73.8613C110.267 72.9563 110.375 72.7029 110.339 71.0378C110.339 69.1192 110.448 68.5762 110.556 67.8523C111.027 64.6667 111.317 62.9292 111.498 61.5898V61.5174C111.498 61.5174 111.715 61.5898 111.823 61.445C112.004 61.1554 111.968 60.902 112.004 60.721C112.04 60.54 112.113 60.7572 112.113 60.7572C112.113 60.7572 112.258 61.1916 112.258 61.3364C112.258 61.5536 112.113 61.807 112.004 62.1328C111.896 62.4948 112.185 62.531 112.258 62.5672C112.33 62.6034 113.271 61.9156 113.416 61.6622C113.561 61.3726 113.525 61.0106 113.561 60.8296C113.597 60.359 113.307 59.0197 113.307 59.0197C113.525 58.1147 114.321 55.8342 114.176 55.1826ZM112.004 58.8387C111.896 59.2731 111.859 58.8749 111.461 60.54L111.498 60.2866C111.498 60.0694 111.498 59.8161 111.498 59.5627C111.498 57.4993 109.905 53.083 110.882 53.988C110.882 53.988 112.04 54.7844 112.258 55.3998C112.439 55.9427 112.402 57.2459 112.004 58.8387Z" fill="#0C419A"/>
<path d="M73.3076 63.798C72.9456 63.4722 71.6786 61.7708 70.8822 61.083C70.3392 60.5038 70.1944 60.2142 69.76 59.5989C68.2759 57.6441 67.9501 57.4993 66.9365 57.3545C66.7193 57.2097 66.7917 57.0649 66.8279 57.0287C68.1673 56.5219 67.7329 55.3636 67.6967 55.3274C67.6243 55.074 67.8053 54.9654 67.8053 54.712C67.8053 54.3138 67.7329 54.0242 67.6243 53.7346C67.6605 53.5536 67.6967 53.3002 67.5157 53.0468C66.7917 52.1418 64.9818 52.1056 64.0406 52.721C63.2804 53.2278 63.7148 53.5898 63.4976 54.35C63.3528 54.7844 63.4976 55.1826 63.7872 55.5084C63.8234 55.7618 64.5836 56.2323 64.4388 56.7391C64.294 57.2821 63.4252 57.3907 63.4252 57.3907C63.3166 57.4269 63.2442 57.4631 63.1718 57.4993C61.7962 58.2957 60.4569 59.4541 60.2759 60.6848C60.3483 61.6984 61.941 63.1826 62.9546 63.979C63.0994 65.7165 64.1854 68.359 64.2578 68.4676C64.4026 68.7934 63.932 68.2142 62.846 67.8523C62.303 67.6713 61.6152 66.9473 61.4342 67.8161C61.3619 68.178 61.5066 68.7934 61.1809 69.5898C60.9275 70.169 61.2171 71.1102 61.8686 71.1102C62.3392 71.1102 62.6288 69.6622 62.6288 69.6622C62.6288 69.6622 64.9094 70.7844 65.9953 70.4224C66.6469 70.2052 66.7917 67.6713 66.1401 65.3907C65.9229 64.5943 66.5383 66.6939 68.0587 68.5038C68.3845 68.902 68.0949 69.2278 68.3121 70.7482C68.3845 71.3274 68.3845 71.4722 68.3845 71.7256C68.3483 72.4495 67.6605 73.3183 69.2533 73.7165C70.8822 74.1509 70.7374 74.5129 71.751 73.8251C72.2216 73.5355 70.3392 73.3183 69.9772 72.2323C69.9772 72.1961 69.941 72.0513 69.941 71.979C69.9048 71.1102 70.303 69.1192 70.1582 68.3952C69.579 64.9563 68.1311 63.3636 67.9501 62.5672C67.9501 60.178 67.7691 59.4179 67.9863 59.9609C68.0225 60.0694 68.5293 60.902 69.0361 61.5536C69.0723 61.626 69.1447 61.6984 69.2171 61.7708C69.3619 61.9518 69.5066 62.0966 69.6514 62.169C70.665 63.0378 72.2578 64.0875 72.475 64.3047C72.475 64.3047 72.5836 65.3545 73.018 65.2821C73.4161 65.2097 75.3347 64.3771 75.2985 64.1599C75.2261 63.8704 73.3438 63.8704 73.3076 63.798ZM62.8822 62.4948C62.5926 61.9518 61.7962 60.902 61.8686 60.721C62.303 59.9971 62.7736 59.7799 62.9184 59.8161C63.027 59.8523 62.8822 62.4948 62.8822 62.4948Z" fill="#0C419A"/>
<path d="M105.018 83.273C104.945 83.2368 103.823 82.8024 102.81 81.2096C102.375 80.4856 99.0088 74.2956 98.5744 73.101C97.6694 70.7119 90.6106 66.4042 90.321 66.1508C90.1038 65.9698 90.14 65.5716 90.2124 65.282C90.7916 63.2549 90.5744 61.4811 90.683 61.1915C90.9726 60.5037 91.407 59.5263 91.0812 58.8748L90.3572 57.7164C90.3572 57.7164 94.0857 59.0558 94.9545 58.8748C95.7147 58.73 99.4432 56.1236 99.6604 56.015C100.167 55.7616 101.434 56.1236 102.701 54.7481C103.172 54.2413 102.846 54.0603 102.737 54.1327C102.774 54.0965 102.52 53.8793 102.303 54.0241C102.013 54.2051 100.964 54.4947 101.145 54.3499C101.905 53.7707 101.362 53.6259 101.362 53.6259C101.036 53.9155 99.5518 54.2775 99.226 54.5309C98.9002 54.8205 98.6468 55.0377 98.502 55.1463C97.597 55.653 96.0405 56.4132 94.4839 56.7752C94.1581 56.8476 91.1898 54.8929 89.4523 54.6395C88.5111 54.4947 88.1853 54.5671 87.6785 54.7119C87.0631 54.8929 87.0993 53.9879 87.5699 53.7707C87.8233 53.6621 88.2215 53.5897 88.3663 53.3001C88.5473 52.9381 88.3301 52.6123 88.3301 52.5399C88.3301 52.5037 88.3663 52.4675 88.2939 52.3227C88.2577 52.2141 88.2577 52.2865 88.2577 52.1779C88.2577 52.1055 88.2215 52.0331 88.1853 51.9607C88.1853 51.9245 88.1853 51.7797 88.2215 51.7435C88.5835 51.4539 88.4387 51.3092 88.3663 51.273C88.2577 51.1644 87.7147 50.9472 87.6785 50.5852C87.6061 50.006 87.3889 49.7164 87.3165 49.4268C87.2803 49.3182 87.2079 48.6304 86.9183 48.377C86.5563 48.0512 85.7961 47.653 84.131 48.0874C83.588 48.2322 83.6966 48.4856 82.3934 48.739C80.8007 49.0286 79.9319 51.3815 80.0767 52.3589C80.1853 53.1553 80.8731 52.7571 80.8369 53.1191C80.8007 53.6621 80.7283 54.5671 81.8866 54.8929C82.14 54.9653 83.6604 54.7119 84.2396 54.8205C84.2396 54.8205 84.7102 54.8567 84.4568 55.3272C84.3482 55.5444 82.8278 56.1598 82.4296 56.3046C81.4522 56.7028 78.8821 60.9019 78.1219 61.3001C77.4703 61.6259 77.0722 61.8793 76.8188 62.0603C75.769 62.7119 74.7554 63.5444 74.1762 63.5082C73.416 63.472 72.8007 63.834 72.2939 64.9562C72.1491 65.282 72.2215 65.463 72.5111 65.5354C72.6197 65.644 72.7645 65.7888 72.9817 65.7888C73.1989 66.006 73.4522 65.8612 73.6694 65.7526C74.2486 65.4268 74.3934 65.1734 74.6106 65.101C75.1898 64.92 78.5925 63.5806 79.3527 63.0015C80.5111 62.3861 82.8278 59.9969 83.3346 59.9607C83.8052 59.9245 84.9636 60.9743 84.6016 63.0015C84.493 63.6892 83.6242 64.92 83.1536 65.644C82.2124 67.0558 82.9364 68.3227 82.7554 68.6123C81.778 70.2051 80.5835 72.3408 78.5563 74.1508C77.7599 74.6576 76.131 74.7662 75.226 75.0196C73.1989 75.5987 71.0631 77.0467 69.5427 77.9155C69.036 78.2051 68.5654 77.5897 67.9138 77.5173C67.2984 77.4449 67.226 78.4223 66.9002 79.2911C66.7916 79.5444 66.7554 79.6892 66.2848 80.7752C66.1038 81.2096 65.597 82.4766 66.1038 83.0196C66.5744 83.6711 67.6604 81.644 68.5292 80.6666C68.9636 80.1598 69.2532 79.9788 70.2305 79.7616C70.8459 79.6168 75.8052 78.2775 79.0631 77.5535C79.1355 77.5535 79.2441 77.5173 79.3165 77.4811C83.5518 76.3951 87.9319 70.8567 88.0043 70.8929L95.2079 74.4404C95.9319 74.8386 95.9319 76.2141 96.8007 77.8431C97.3075 78.8205 98.0676 79.653 101.145 82.6576C101.543 83.0558 101.217 83.6711 101.398 84.2865C101.579 84.9381 101.905 84.9381 102.484 84.9019C103.027 84.8657 103.497 84.7571 104.04 84.7209C104.728 84.6847 104.547 84.7571 105.344 84.8657C105.742 84.9381 106.611 85.0467 107.262 84.4313C108.384 83.2368 106.104 83.8159 105.018 83.273Z" fill="#0C419A"/>
<path d="M97.2352 80.1598C97.1266 79.9426 96.8732 79.8702 96.656 79.9788C93.5791 81.5353 90.1402 82.3679 86.6651 82.3679C82.7918 82.3679 78.9909 81.3543 75.6605 79.4358C75.4434 79.3272 75.19 79.3996 75.0452 79.5806C74.9366 79.7978 75.009 80.0512 75.19 80.196C78.6651 82.1869 82.6108 83.2367 86.6289 83.2367C90.2488 83.2367 93.8325 82.3679 97.018 80.739C97.2714 80.6304 97.3438 80.377 97.2352 80.1598Z" fill="#0C419A"/>
<path d="M66.14 51.3817C66.0676 51.3817 66.0314 51.3817 65.959 51.3455C65.7418 51.2369 65.6332 50.9835 65.7418 50.7663C67.7328 46.4224 70.9545 42.8387 75.0812 40.4133C75.2984 40.3047 75.5518 40.3771 75.6966 40.5581C75.8052 40.7753 75.7328 41.0287 75.5518 41.1735C71.5699 43.4903 68.4568 46.9292 66.5744 51.1283C66.4658 51.3093 66.321 51.3817 66.14 51.3817Z" fill="#0C419A"/>
<path d="M103.534 45.7711C103.425 45.7711 103.28 45.7349 103.208 45.6263C99.7329 41.6806 94.9546 39.1105 89.7781 38.3865C89.5247 38.3503 89.3799 38.1331 89.4161 37.8797C89.4523 37.6263 89.6695 37.4815 89.9229 37.5177C95.3166 38.2779 100.276 40.9566 103.896 45.0471C104.041 45.2281 104.041 45.5177 103.86 45.6625C103.751 45.7349 103.642 45.7711 103.534 45.7711Z" fill="#0C419A"/>
<path d="M349.777 69.8705C350.33 70.1757 351.252 70.4809 352.121 70.4809C354.911 70.4809 357.57 68.6496 357.57 64.8852V62.0874C357.57 58.5773 354.911 56.5171 351.805 56.5171C348.672 56.5171 346.013 58.5773 346.013 62.0874V75.5171H349.777V69.8705ZM349.777 66.9455V62.2145C349.777 60.4595 350.646 59.5947 351.805 59.5947C352.937 59.5947 353.805 60.4595 353.805 62.2145V64.7581C353.805 66.6911 352.91 67.4033 351.778 67.4033C351.094 67.4033 350.436 67.1998 349.777 66.9455Z" fill="#00A5DF" fill-opacity="0.8"/>
<path d="M359.44 70.1503H363.178V61.655C363.178 60.4595 363.863 59.5947 365.047 59.5947C365.679 59.5947 366.338 59.7219 366.917 59.8745L367.628 56.9241C366.838 56.6697 365.89 56.5171 365.021 56.5171C361.888 56.5171 359.44 58.5773 359.44 61.655V70.1503Z" fill="#00A5DF" fill-opacity="0.8"/>
<path d="M368.271 64.6563C368.271 68.2935 370.746 70.4809 374.142 70.4809C377.538 70.4809 380.013 68.2935 380.013 64.6563V62.3417C380.013 58.7045 377.538 56.5171 374.142 56.5171C370.746 56.5171 368.271 58.7045 368.271 62.3417V64.6563ZM372.009 64.5291V62.4689C372.009 60.7139 372.536 59.5947 374.142 59.5947C375.721 59.5947 376.274 60.7139 376.274 62.4689V64.5291C376.274 66.2842 375.721 67.4033 374.142 67.4033C372.562 67.4033 372.009 66.2842 372.009 64.5291Z" fill="#00A5DF" fill-opacity="0.8"/>
<path d="M283.513 66.4874C283.513 63.6647 285.898 62.0677 291.152 61.5106C291.078 60.3221 290.332 59.6164 288.879 59.6164C287.761 59.6164 286.643 60.0993 285.376 60.8421L283.997 58.2051C285.674 57.1652 287.575 56.4224 289.662 56.4224C293.053 56.4224 294.916 58.3908 294.916 62.5134V70.2386H291.189V68.9387C291.189 68.9387 289.662 70.5729 287.5 70.5729C285.041 70.5357 283.513 68.753 283.513 66.4874ZM291.152 66.2646V63.9247C288.357 64.2961 287.277 65.1875 287.277 66.1903C287.277 67.0445 287.873 67.4902 288.804 67.4902C289.662 67.4531 290.444 66.9702 291.152 66.2646Z" fill="#0C419A"/>
<path d="M339.635 52.597C339.635 51.3713 340.604 50.5171 341.908 50.5171C343.212 50.5171 344.181 51.3713 344.181 52.597C344.181 53.8226 343.212 54.6768 341.908 54.6768C340.566 54.6768 339.635 53.7854 339.635 52.597ZM339.933 56.6453H343.846V70.1272H339.933V56.6453Z" fill="#0C419A"/>
<path d="M318.67 63.5533C318.67 59.1707 321.428 56.4966 324.745 56.4966C328.509 56.4966 330.595 59.2821 330.595 62.959C330.595 63.6647 330.521 64.4075 330.446 64.7418H322.509C322.844 66.7102 324.186 67.6016 325.937 67.6016C326.943 67.6016 327.801 67.193 328.769 66.6359L330.111 69.1243C328.769 70.09 326.981 70.6471 325.416 70.6471C321.54 70.6099 318.67 68.0101 318.67 63.5533ZM327.279 62.0676C327.279 60.582 326.422 59.505 324.857 59.505C323.627 59.505 322.77 60.3592 322.509 62.0676H327.279Z" fill="#0C419A"/>
<path d="M300.905 58.5022C301.985 57.4251 303.178 56.4966 304.929 56.4966C306.793 56.4966 307.948 57.2765 308.619 58.6879C309.774 57.4994 311.004 56.4966 312.792 56.4966C315.699 56.4966 317.003 58.5764 317.003 61.8819V70.1643H312.867V62.439C312.867 60.582 312.345 60.0249 311.302 60.0249C310.668 60.0249 309.96 60.4335 309.14 61.2506V70.2014H304.967V62.439C304.967 60.582 304.482 60.0249 303.401 60.0249C302.768 60.0249 302.06 60.4335 301.24 61.2506V70.2014H297.104V56.868H300.905V58.5022Z" fill="#0C419A"/>
<path d="M332.485 66.0417V51.1855H336.398V66.1903C336.398 67.0445 336.77 67.3045 337.106 67.3045C337.255 67.3045 337.367 67.3045 337.59 67.2673L338.075 70.2014C337.628 70.3871 336.994 70.5357 336.1 70.5357C333.379 70.5728 332.485 68.7901 332.485 66.0417Z" fill="#0C419A"/>
</svg>
