<svg width="280" height="120" viewBox="0 0 280 120" fill="none" xmlns="http://www.w3.org/2000/svg">
<rect width="280" height="120" fill="white"/>
<path d="M122.176 83.3484H123.516L125.615 89.828H124.384L123.407 86.3891C123.19 85.7013 123.009 84.9773 122.828 84.2534H122.792C122.611 84.9773 122.43 85.7013 122.212 86.3891L121.199 89.828H120.041L122.176 83.3484ZM121.307 87.1855H124.348V88.0905H121.307V87.1855Z" fill="#0C419A"/>
<path d="M126.303 90.733C126.303 90.3348 126.556 89.9728 126.991 89.6833V89.6471C126.737 89.5023 126.556 89.2127 126.556 88.8507C126.556 88.4887 126.81 88.1267 127.099 87.9457V87.9095C126.773 87.6561 126.448 87.1855 126.448 86.6063C126.448 85.4842 127.353 84.8688 128.366 84.8688C128.619 84.8688 128.873 84.905 129.09 84.9774H130.828V85.81H129.923C130.067 85.9909 130.212 86.2805 130.212 86.6425C130.212 87.7285 129.38 88.3077 128.366 88.3077C128.149 88.3077 127.932 88.2715 127.714 88.1629C127.57 88.2715 127.461 88.4163 127.461 88.6335C127.461 88.9231 127.642 89.0679 128.257 89.0679H129.126C130.285 89.0679 130.9 89.4299 130.9 90.2624C130.9 91.2398 129.886 92 128.294 92C127.172 92 126.303 91.6018 126.303 90.733ZM129.85 90.4796C129.85 90.1176 129.561 90.009 128.981 90.009H128.33C128.076 90.009 127.859 89.9728 127.678 89.9366C127.425 90.1176 127.316 90.371 127.316 90.5882C127.316 91.0226 127.787 91.276 128.547 91.276C129.307 91.276 129.85 90.914 129.85 90.4796ZM129.235 86.6063C129.235 85.9909 128.873 85.629 128.402 85.629C127.932 85.629 127.57 85.9909 127.57 86.6063C127.57 87.2217 127.932 87.5837 128.402 87.5837C128.873 87.5837 129.235 87.2217 129.235 86.6063Z" fill="#0C419A"/>
<path d="M132.022 83.457C132.022 83.0588 132.312 82.8054 132.746 82.8054C133.145 82.8054 133.47 83.0588 133.47 83.457C133.47 83.819 133.181 84.1086 132.746 84.1086C132.348 84.1086 132.022 83.8552 132.022 83.457ZM132.167 84.9774H133.326V89.8642H132.167V84.9774Z" fill="#0C419A"/>
<path d="M135.099 84.9774H136.04L136.113 85.8461H136.149C136.511 85.1946 137.018 84.8688 137.525 84.8688C137.778 84.8688 137.923 84.905 138.068 84.9774L137.887 85.9547C137.706 85.9185 137.597 85.8824 137.38 85.8824C136.982 85.8824 136.511 86.1357 136.221 86.8959V89.8643H135.063V84.9774H135.099Z" fill="#0C419A"/>
<path d="M141.145 87.4028C141.145 85.81 142.23 84.8326 143.389 84.8326C144.692 84.8326 145.416 85.7738 145.416 87.1494C145.416 87.3666 145.38 87.5838 145.38 87.6924H142.267C142.375 88.5611 142.918 89.0679 143.715 89.0679C144.149 89.0679 144.475 88.9231 144.837 88.7059L145.235 89.4299C144.764 89.7557 144.185 89.9729 143.57 89.9729C142.194 89.9729 141.145 89.0317 141.145 87.4028ZM144.439 86.9322C144.439 86.172 144.113 85.7376 143.425 85.7376C142.846 85.7376 142.339 86.172 142.267 86.9322H144.439Z" fill="#0C419A"/>
<path d="M146.828 84.9774H147.769L147.841 85.629H147.878C148.312 85.1946 148.819 84.8326 149.47 84.8326C150.52 84.8326 150.954 85.5566 150.954 86.7874V89.8281H149.796V86.9322C149.796 86.1358 149.579 85.81 149.036 85.81C148.602 85.81 148.312 86.0272 147.914 86.4254V89.8281H146.755V84.9774H146.828Z" fill="#0C419A"/>
<path d="M152.258 89.2851L152.801 88.5611C153.235 88.8869 153.67 89.1041 154.14 89.1041C154.683 89.1041 154.937 88.8507 154.937 88.5249C154.937 88.1267 154.394 87.9457 153.887 87.7285C153.235 87.4751 152.511 87.1131 152.511 86.3167C152.511 85.4842 153.199 84.8688 154.285 84.8688C154.973 84.8688 155.516 85.1584 155.914 85.448L155.407 86.1357C155.081 85.8823 154.719 85.7014 154.321 85.7014C153.814 85.7014 153.597 85.9185 153.597 86.2443C153.597 86.6425 154.104 86.7873 154.611 86.9683C155.262 87.2217 156.023 87.5475 156.023 88.4525C156.023 89.2851 155.371 89.9728 154.14 89.9728C153.452 89.9728 152.728 89.6833 152.258 89.2851Z" fill="#0C419A"/>
<path d="M157.036 87.4028C157.036 85.81 158.122 84.8326 159.28 84.8326C160.584 84.8326 161.308 85.7738 161.308 87.1494C161.308 87.3666 161.271 87.5838 161.271 87.6924H158.158C158.267 88.5611 158.81 89.0679 159.606 89.0679C160.041 89.0679 160.366 88.9231 160.728 88.7059L161.127 89.4299C160.656 89.7557 160.077 89.9729 159.461 89.9729C158.086 89.9729 157.036 89.0317 157.036 87.4028ZM160.294 86.9322C160.294 86.172 159.968 85.7376 159.28 85.7376C158.701 85.7376 158.195 86.172 158.122 86.9322H160.294Z" fill="#0C419A"/>
<path d="M162.719 84.9774H163.661L163.733 85.629H163.769C164.167 85.1946 164.638 84.8326 165.253 84.8326C165.977 84.8326 166.375 85.1584 166.593 85.7014C167.063 85.1946 167.534 84.8326 168.149 84.8326C169.163 84.8326 169.67 85.5566 169.67 86.7874V89.8281H168.511V86.9322C168.511 86.1358 168.258 85.81 167.751 85.81C167.425 85.81 167.099 85.991 166.737 86.4254V89.8281H165.579V86.9322C165.579 86.1358 165.326 85.81 164.819 85.81C164.529 85.81 164.167 85.991 163.805 86.4254V89.8281H162.647V84.9774H162.719Z" fill="#0C419A"/>
<path d="M172.457 89.3575L172.312 89.8643H171.407V82.8417H172.566V84.6516L172.529 85.448C172.928 85.086 173.434 84.8326 173.941 84.8326C175.172 84.8326 175.86 85.81 175.86 87.2942C175.86 88.9593 174.846 89.9367 173.76 89.9367C173.362 89.9729 172.891 89.7557 172.457 89.3575ZM174.701 87.3666C174.701 86.3892 174.376 85.81 173.652 85.81C173.29 85.81 172.964 85.991 172.602 86.353V88.6335C172.928 88.9231 173.29 89.0317 173.579 89.0317C174.195 89.0317 174.701 88.4525 174.701 87.3666Z" fill="#0C419A"/>
<path d="M177.308 88.5973V82.8417H178.466V88.6697C178.466 88.9593 178.611 89.0679 178.719 89.0679C178.756 89.0679 178.828 89.0679 178.9 89.0317L179.045 89.9005C178.9 89.9729 178.719 90.0091 178.43 90.0091C177.597 89.9729 177.308 89.4299 177.308 88.5973Z" fill="#0C419A"/>
<path d="M180.022 87.4028C180.022 85.81 181.108 84.8326 182.267 84.8326C183.57 84.8326 184.294 85.7738 184.294 87.1494C184.294 87.3666 184.258 87.5838 184.258 87.6924H181.145C181.253 88.5611 181.796 89.0679 182.593 89.0679C183.027 89.0679 183.353 88.9231 183.715 88.7059L184.113 89.4299C183.642 89.7557 183.063 89.9729 182.448 89.9729C181.072 89.9729 180.022 89.0317 180.022 87.4028ZM183.28 86.9322C183.28 86.172 182.955 85.7376 182.267 85.7376C181.688 85.7376 181.181 86.172 181.108 86.9322H183.28Z" fill="#0C419A"/>
<path d="M186.393 88.4163C185.959 88.4163 185.633 88.7059 185.633 89.104C185.633 89.5746 185.995 89.7918 186.357 89.7918C186.393 89.7918 186.43 89.7918 186.43 89.7918C186.43 90.2986 186.068 90.7692 185.416 90.9864L185.669 91.6018C186.647 91.276 187.226 90.5158 187.226 89.5384C187.226 88.8507 186.936 88.4163 186.393 88.4163Z" fill="#0C419A"/>
<path d="M191.208 84.9774H192.149L192.222 85.4842H192.258C192.656 85.1222 193.199 84.8326 193.742 84.8326C194.973 84.8326 195.661 85.81 195.661 87.3304C195.661 88.9955 194.647 89.9729 193.561 89.9729C193.127 89.9729 192.692 89.7919 192.294 89.4299L192.33 90.2263V91.7467H191.172V84.9774H191.208ZM194.466 87.3666C194.466 86.3892 194.14 85.81 193.416 85.81C193.054 85.81 192.728 85.991 192.366 86.353V88.6335C192.728 88.9231 193.054 89.0317 193.344 89.0317C193.959 89.0317 194.466 88.4526 194.466 87.3666Z" fill="#0C419A"/>
<path d="M197.108 84.9774H198.05L198.122 85.8461H198.158C198.52 85.1946 199.027 84.8688 199.534 84.8688C199.787 84.8688 199.932 84.905 200.077 84.9774L199.896 85.9547C199.715 85.9185 199.606 85.8824 199.389 85.8824C198.991 85.8824 198.52 86.1357 198.231 86.8959V89.8643H197.072V84.9774H197.108Z" fill="#0C419A"/>
<path d="M200.547 87.4028C200.547 85.7738 201.67 84.8326 202.864 84.8326C204.059 84.8326 205.181 85.7738 205.181 87.4028C205.181 89.0317 204.059 89.9729 202.864 89.9729C201.67 89.9729 200.547 89.0317 200.547 87.4028ZM203.986 87.4028C203.986 86.4254 203.552 85.7738 202.828 85.7738C202.104 85.7738 201.67 86.4254 201.67 87.4028C201.67 88.3801 202.104 89.0317 202.828 89.0317C203.552 89.0317 203.986 88.3801 203.986 87.4028Z" fill="#0C419A"/>
<path d="M206.629 88.1991V85.8824H205.941V85.0136L206.701 84.9774L206.846 83.6381H207.787V84.9774H209.018V85.8824H207.787V88.1991C207.787 88.7783 208.004 89.0679 208.475 89.0679C208.656 89.0679 208.837 88.9955 208.982 88.9593L209.163 89.7919C208.909 89.8643 208.547 89.9729 208.149 89.9729C207.063 89.9729 206.629 89.2489 206.629 88.1991Z" fill="#0C419A"/>
<path d="M209.923 87.4027C209.923 85.81 211.009 84.8326 212.167 84.8326C213.47 84.8326 214.194 85.7738 214.194 87.1493C214.194 87.3665 214.158 87.5837 214.158 87.6923H211.045C211.154 88.5611 211.697 89.0679 212.493 89.0679C212.927 89.0679 213.253 88.9231 213.615 88.7059L214.013 89.4299C213.543 89.7557 212.964 89.9729 212.348 89.9729C210.973 89.9729 209.923 89.0317 209.923 87.4027ZM213.181 86.9321C213.181 86.172 212.855 85.7376 212.167 85.7376C211.588 85.7376 211.081 86.172 211.009 86.9321H213.181ZM211.552 83.6018L213 81.8643L213.796 82.6244L212.131 84.1448L211.552 83.6018Z" fill="#0C419A"/>
<path d="M215.208 90.733C215.208 90.3348 215.461 89.9728 215.896 89.6833V89.6471C215.642 89.5023 215.461 89.2127 215.461 88.8507C215.461 88.4887 215.715 88.1267 216.004 87.9457V87.9095C215.679 87.6561 215.353 87.1855 215.353 86.6063C215.353 85.4842 216.258 84.8688 217.271 84.8688C217.525 84.8688 217.778 84.905 217.995 84.9774H219.733V85.81H218.828C218.973 85.9909 219.118 86.2805 219.118 86.6425C219.118 87.7285 218.285 88.3077 217.271 88.3077C217.054 88.3077 216.837 88.2715 216.62 88.1629C216.475 88.2715 216.366 88.4163 216.366 88.6335C216.366 88.9231 216.547 89.0679 217.163 89.0679H218.032C219.19 89.0679 219.805 89.4299 219.805 90.2624C219.805 91.2398 218.792 92 217.199 92C216.077 92 215.208 91.6018 215.208 90.733ZM218.756 90.4796C218.756 90.1176 218.466 90.009 217.887 90.009H217.235C216.982 90.009 216.765 89.9728 216.584 89.9366C216.33 90.1176 216.222 90.371 216.222 90.5882C216.222 91.0226 216.692 91.276 217.452 91.276C218.213 91.276 218.756 90.914 218.756 90.4796ZM218.14 86.6063C218.14 85.9909 217.778 85.629 217.308 85.629C216.837 85.629 216.475 85.9909 216.475 86.6063C216.475 87.2217 216.837 87.5837 217.308 87.5837C217.778 87.5837 218.14 87.2217 218.14 86.6063Z" fill="#0C419A"/>
<path d="M220.529 87.4028C220.529 85.81 221.615 84.8326 222.774 84.8326C224.077 84.8326 224.801 85.7738 224.801 87.1494C224.801 87.3666 224.765 87.5838 224.765 87.6924H221.651C221.76 88.5611 222.303 89.0679 223.099 89.0679C223.534 89.0679 223.86 88.9231 224.222 88.7059L224.62 89.4299C224.149 89.7557 223.57 89.9729 222.955 89.9729C221.579 89.9729 220.529 89.0317 220.529 87.4028ZM223.787 86.9322C223.787 86.172 223.461 85.7376 222.774 85.7376C222.194 85.7376 221.688 86.172 221.615 86.9322H223.787Z" fill="#0C419A"/>
<path d="M226.212 84.9774H227.154L227.226 85.8461H227.262C227.624 85.1946 228.131 84.8688 228.638 84.8688C228.891 84.8688 229.036 84.905 229.181 84.9774L229 85.9547C228.819 85.9185 228.71 85.8824 228.493 85.8824C228.095 85.8824 227.624 86.1357 227.335 86.8959V89.8643H226.176V84.9774H226.212Z" fill="#0C419A"/>
<path d="M232.258 87.4028C232.258 85.7738 233.416 84.8326 234.719 84.8326C235.335 84.8326 235.805 85.086 236.131 85.3756L235.588 86.1358C235.335 85.9186 235.081 85.7738 234.792 85.7738C233.995 85.7738 233.452 86.4254 233.452 87.4028C233.452 88.3801 233.995 89.0317 234.756 89.0317C235.154 89.0317 235.48 88.8507 235.769 88.5973L236.24 89.3575C235.769 89.7557 235.19 89.9729 234.647 89.9729C233.271 89.9729 232.258 89.0317 232.258 87.4028Z" fill="#0C419A"/>
<path d="M237.47 82.8417H238.629V84.6516L238.592 85.5928C238.991 85.1946 239.497 84.8688 240.149 84.8688C241.199 84.8688 241.633 85.5928 241.633 86.8236V89.8643H240.475V86.9684C240.475 86.172 240.258 85.8462 239.715 85.8462C239.28 85.8462 238.991 86.0634 238.592 86.4616V89.8643H237.434V82.8417H237.47Z" fill="#0C419A"/>
<path d="M243.009 88.5249C243.009 87.4751 243.878 86.9321 245.869 86.7149C245.869 86.2082 245.651 85.7376 245 85.7376C244.529 85.7376 244.059 85.9548 243.624 86.2081L243.19 85.448C243.733 85.1222 244.421 84.7964 245.181 84.7964C246.412 84.7964 246.991 85.5566 246.991 86.8959V89.7919H246.086L246.013 89.2489H245.977C245.543 89.6109 245.036 89.9005 244.457 89.9005C243.588 89.9729 243.009 89.3937 243.009 88.5249ZM245.869 88.5611V87.4751C244.529 87.6561 244.095 87.9819 244.095 88.4887C244.095 88.9231 244.384 89.1041 244.783 89.1041C245.217 89.0679 245.507 88.8869 245.869 88.5611Z" fill="#0C419A"/>
<path d="M248.366 87.4028C248.366 85.7738 249.525 84.8326 250.828 84.8326C251.443 84.8326 251.914 85.086 252.24 85.3756L251.697 86.1358C251.443 85.9186 251.19 85.7738 250.9 85.7738C250.104 85.7738 249.561 86.4254 249.561 87.4028C249.561 88.3801 250.104 89.0317 250.864 89.0317C251.262 89.0317 251.588 88.8507 251.878 88.5973L252.348 89.3575C251.878 89.7557 251.298 89.9729 250.755 89.9729C249.38 89.9729 248.366 89.0317 248.366 87.4028Z" fill="#0C419A"/>
<path d="M253.506 88.0181V84.9774H254.665V87.8733C254.665 88.6697 254.882 88.9955 255.425 88.9955C255.859 88.9955 256.149 88.8145 256.511 88.3077V84.9774H257.669V89.8643H256.728L256.656 89.1403H256.583C256.149 89.6471 255.678 89.9729 255.027 89.9729C253.977 89.9729 253.506 89.2489 253.506 88.0181Z" fill="#0C419A"/>
<path d="M259.334 84.9774H260.276L260.348 85.629H260.384C260.819 85.1946 261.325 84.8326 261.977 84.8326C263.027 84.8326 263.461 85.5566 263.461 86.7874V89.8281H262.375V86.9322C262.375 86.1358 262.158 85.81 261.615 85.81C261.181 85.81 260.891 86.0272 260.493 86.4254V89.8281H259.334V84.9774Z" fill="#0C419A"/>
<path d="M56.2942 60.2534L55.8599 59.8552C56.0408 59.638 56.1856 59.3847 56.2218 59.1313C56.2218 58.8417 56.1132 58.6969 55.9685 58.6969C55.7875 58.6969 55.7151 58.8417 55.6065 59.1313L55.4255 59.5294C55.2807 59.819 55.0273 60.1086 54.5929 60.1086C54.0861 60.0724 53.7241 59.638 53.7603 58.9865C53.7603 58.6245 53.9413 58.2987 54.1947 58.0453L54.5929 58.4073C54.4481 58.5883 54.3395 58.7693 54.3395 59.0227C54.3395 59.2399 54.4119 59.4208 54.5929 59.4208C54.7739 59.4208 54.8463 59.2399 54.9549 58.9865L55.1359 58.6245C55.3169 58.2625 55.5703 58.0453 55.9685 58.0815C56.4752 58.1177 56.8734 58.5521 56.8372 59.2761C56.7648 59.5294 56.5838 59.9638 56.2942 60.2534Z" fill="#0C419A"/>
<path d="M53.5068 55.9457L53 55.0769L53.4706 54.7873L53.905 55.6923L53.5068 55.9457ZM53.8688 56.6335L54.1584 54.7511L54.7376 54.8235L54.5566 56.0181L55.1719 56.0905L55.3167 55.0769L55.8959 55.1493L55.7511 56.1629L56.4389 56.2715L56.6199 55.0407L57.1991 55.1131L56.9095 57.0316L53.8688 56.6335Z" fill="#0C419A"/>
<path d="M55.7873 53.9909C54.8099 53.7375 54.4117 52.9773 54.5927 52.2172C54.7013 51.8552 54.9547 51.5656 55.2081 51.4208L55.5339 51.8914C55.3529 52 55.2081 52.1448 55.1719 52.3619C55.0633 52.7601 55.3529 53.1583 55.9321 53.3031C56.5475 53.4479 56.9457 53.2669 57.0543 52.8325C57.1267 52.5791 57.0543 52.3619 56.9095 52.181L57.4162 51.9276C57.6334 52.2534 57.7058 52.6153 57.5972 52.9773C57.4524 53.7737 56.7647 54.2443 55.7873 53.9909Z" fill="#0C419A"/>
<path d="M56.7284 50.8417L55.208 50.2625L55.4614 49.6109L57.0542 50.2263C57.5972 50.4435 57.8505 50.3349 57.9953 50.0091C58.1039 49.6833 57.9953 49.4299 57.4524 49.2127L55.8596 48.5973L56.0768 47.9819L57.5972 48.5611C58.5383 48.9231 58.7917 49.4661 58.5383 50.1901C58.2487 50.9503 57.6695 51.1675 56.7284 50.8417Z" fill="#0C419A"/>
<path d="M56.6924 46.5702L57.1992 45.5928C57.4888 45.0136 57.9232 44.6516 58.5747 44.9774C59.1901 45.3032 59.2263 45.8824 58.9005 46.4616L58.7195 46.8236L59.6969 47.3303L59.3711 47.9457L56.6924 46.5702ZM58.3937 46.2806C58.5747 45.9548 58.5023 45.7376 58.2489 45.5928C57.9955 45.448 57.8146 45.5928 57.6336 45.8824L57.4888 46.2082L58.2127 46.6064L58.3937 46.2806ZM58.6833 46.534L58.5023 45.9186L60.4571 45.8462L60.0951 46.534H58.6833Z" fill="#0C419A"/>
<path d="M58.4297 43.3122L58.7917 42.733L61.3256 44.362L60.9636 44.9412L58.4297 43.3122Z" fill="#0C419A"/>
<path d="M60.3485 41.5022L59.8417 42.1538L59.3711 41.7918L60.7829 39.9457L61.2534 40.3077L60.7467 40.9593L62.7014 42.4434L62.3032 42.9864L60.3485 41.5022Z" fill="#0C419A"/>
<path d="M61.543 39.0407L62.8461 37.6652L63.2805 38.0633L62.4479 38.9321L62.8823 39.3303L63.5701 38.5701L64.0045 38.9683L63.3167 39.7285L63.8235 40.1991L64.6923 39.2941L65.1267 39.6923L63.8235 41.1041L61.543 39.0407ZM61.6154 38.2805L61.6878 37.267L62.267 37.3032L62.086 38.2805H61.6154Z" fill="#0C419A"/>
<path d="M66.6108 37.7014L66.647 37.086C66.9366 37.086 67.2262 37.0498 67.4072 36.8688C67.6244 36.6878 67.6606 36.5068 67.552 36.362C67.4434 36.2172 67.2624 36.2534 66.9728 36.362L66.5746 36.4706C66.2488 36.5792 65.8506 36.543 65.5972 36.1811C65.3077 35.7829 65.4162 35.2037 65.8868 34.8055C66.1764 34.5883 66.5384 34.4797 66.9004 34.5159V35.0589C66.647 35.0589 66.466 35.0951 66.2488 35.2399C66.0678 35.3847 65.9954 35.5657 66.104 35.6743C66.2126 35.8191 66.4298 35.7467 66.6832 35.6743L67.0814 35.5657C67.4796 35.4571 67.8054 35.4933 68.0588 35.8553C68.3484 36.2535 68.3122 36.8326 67.733 37.3032C67.4434 37.5928 67.009 37.7376 66.6108 37.7014Z" fill="#0C419A"/>
<path d="M68.4568 34.8054C67.9501 33.9728 68.131 33.1764 68.8188 32.7782C69.5066 32.3439 70.2668 32.5611 70.7736 33.3936C71.2804 34.2262 71.0994 35.0226 70.4116 35.457C69.76 35.8552 68.9636 35.638 68.4568 34.8054ZM70.2306 33.7556C69.9048 33.2488 69.5066 33.0678 69.1446 33.285C68.7826 33.5022 68.7464 33.9366 69.0722 34.4434C69.398 34.9502 69.7962 35.1674 70.1582 34.9502C70.484 34.733 70.5202 34.2624 70.2306 33.7556Z" fill="#0C419A"/>
<path d="M71.6789 32.9231C71.2445 32.0182 71.6065 31.2218 72.2943 30.896C72.6562 30.715 73.0182 30.7512 73.2716 30.8598L73.1268 31.4028C72.9458 31.3304 72.7286 31.3304 72.5476 31.4028C72.1857 31.5838 72.0409 32.0544 72.2943 32.5973C72.5476 33.1765 72.982 33.3575 73.3802 33.1765C73.5974 33.0679 73.7422 32.8869 73.7784 32.6697L74.2852 32.9231C74.1766 33.2851 73.9594 33.5747 73.5974 33.7195C72.9096 34.0453 72.1133 33.8281 71.6789 32.9231Z" fill="#0C419A"/>
<path d="M74.3574 30.0995L75.009 29.8823L76.0588 32.7059L75.4072 32.923L74.3574 30.0995Z" fill="#0C419A"/>
<path d="M77.0724 29.1946L77.8688 28.9774L79.5701 31.6561L78.8824 31.8371L78.1222 30.4616C77.9774 30.2082 77.7964 29.8824 77.6516 29.5928C77.6516 29.9186 77.6878 30.2806 77.6878 30.6064V32.1991L77 32.3801L77.0724 29.1946ZM77.2172 30.9684L78.629 30.6064L78.7738 31.1132L77.362 31.4752L77.2172 30.9684Z" fill="#0C419A"/>
<path d="M79.896 28.5068L80.5838 28.3982L80.9458 30.8235L82.1041 30.6425L82.1765 31.2217L80.3304 31.5113L79.896 28.5068Z" fill="#0C419A"/>
<path d="M82.8281 28.1086L84.7105 28L84.7467 28.5792L83.5521 28.6516L83.5883 29.267L84.6019 29.1946L84.6381 29.7738L83.6245 29.8462L83.6607 30.5339L84.9277 30.4615L84.9639 31.0407L83.0453 31.1493L82.8281 28.1086Z" fill="#0C419A"/>
<path d="M153.126 73.0316V58.552H156.927V73.1764C156.927 74.009 157.289 74.2624 157.615 74.2624C157.76 74.2624 157.869 74.2624 158.086 74.2262L158.556 77.0859C158.122 77.2669 157.507 77.4117 156.638 77.4117C154.031 77.4479 153.126 75.6742 153.126 73.0316Z" fill="#0C419A"/>
<path d="M128.728 68.3982C129.054 67.3484 132.457 59.8552 132.457 59.8552H136.475V77.1222H132.855V66.4435L129.85 74.1901H127.534L124.529 66.4435V77.1222H120.909V59.8552H124.927C124.927 59.8552 128.294 67.3484 128.656 68.3982H128.728Z" fill="#0C419A"/>
<path d="M160.113 73.4661C160.113 70.7149 162.43 69.1584 167.534 68.6154C167.461 67.457 166.737 66.7692 165.325 66.7692C164.239 66.7692 163.154 67.2398 161.923 67.9638L160.583 65.3937C162.212 64.3801 164.058 63.6561 166.086 63.6561C169.38 63.6561 171.19 65.5747 171.19 69.5928V77.086H167.57V75.819C167.57 75.819 166.086 77.4118 163.986 77.4118C161.597 77.448 160.113 75.6742 160.113 73.4661ZM167.534 73.2489V70.9683C164.819 71.3303 163.769 72.1991 163.769 73.1765C163.769 74.0091 164.348 74.4435 165.253 74.4435C166.086 74.4073 166.846 73.9367 167.534 73.2489Z" fill="#0C419A"/>
<path d="M139.117 73.4661C139.117 70.7149 141.434 69.1584 146.538 68.6154C146.466 67.457 145.742 66.7692 144.33 66.7692C143.244 66.7692 142.158 67.2398 140.927 67.9638L139.588 65.3937C141.217 64.3801 143.063 63.6561 145.09 63.6561C148.384 63.6561 150.194 65.5747 150.194 69.5928V77.086H146.574V75.819C146.574 75.819 145.09 77.4118 142.99 77.4118C140.601 77.448 139.117 75.6742 139.117 73.4661ZM146.538 73.2489V70.9683C143.823 71.3303 142.773 72.1991 142.773 73.1765C142.773 74.0091 143.352 74.4435 144.257 74.4435C145.09 74.4073 145.85 73.9367 146.538 73.2489Z" fill="#0C419A"/>
<path d="M181.941 58.552V64.923C181.072 64.0905 180.203 63.6561 178.791 63.6561C176.077 63.6561 173.47 66.2624 173.47 70.5339C173.47 74.8416 175.534 77.4117 178.719 77.4117C180.457 77.4117 181.832 76.1086 181.941 76V77.1221H185.742V58.552H181.941ZM179.696 74.2624C178.212 74.2624 177.344 73.104 177.344 70.5339C177.344 68.0362 178.429 66.8778 179.66 66.8778C180.348 66.8778 181.108 67.095 181.941 67.7104V73.104C181.181 73.9366 180.529 74.2624 179.696 74.2624Z" fill="#0C419A"/>
<path d="M188.674 60.0362C188.674 58.8416 189.615 58.009 190.882 58.009C192.149 58.009 193.09 58.8416 193.09 60.0362C193.09 61.2308 192.149 62.0633 190.882 62.0633C189.615 62.0633 188.674 61.1946 188.674 60.0362ZM188.963 63.9819H192.764V77.1222H188.963V63.9819Z" fill="#0C419A"/>
<path d="M195.153 70.534C195.153 66.2625 197.832 63.6561 201.054 63.6561C204.71 63.6561 206.737 66.3711 206.737 69.9548C206.737 70.6426 206.665 71.3665 206.592 71.6923H198.882C199.208 73.6109 200.511 74.4797 202.212 74.4797C203.19 74.4797 204.022 74.0815 204.963 73.5385L206.266 75.9638C204.963 76.905 203.226 77.448 201.705 77.448C197.904 77.448 195.153 74.914 195.153 70.534ZM203.479 69.1222C203.479 67.6742 202.647 66.6245 201.126 66.6245C199.932 66.6245 199.099 67.457 198.846 69.1222H203.479Z" fill="#0C419A"/>
<path d="M120.909 51.3123V36.8326H124.71V51.4571C124.71 52.2897 125.072 52.543 125.398 52.543C125.543 52.543 125.651 52.5431 125.868 52.5069L126.339 55.3666C125.905 55.5476 125.289 55.6924 124.42 55.6924C121.778 55.6924 120.909 53.9548 120.909 51.3123Z" fill="#0C419A"/>
<path d="M141.108 51.2761L142.158 55.4028H146.104L140.782 38.1359H136.402L131.081 55.4028H135.027L136.077 51.2761H141.108ZM136.873 48.2354L138.538 41.6834H138.683L140.348 48.2354H136.873Z" fill="#0C419A"/>
<path d="M146.864 53.8825L148.565 51.4571C149.724 52.3621 150.809 52.8327 151.895 52.8327C153.018 52.8327 153.524 52.3983 153.524 51.7105C153.524 50.8417 152.257 50.4436 150.918 49.9368C149.325 49.3214 147.515 48.2354 147.515 46.0635C147.515 43.6019 149.47 41.9368 152.438 41.9368C154.393 41.9368 155.877 42.7331 156.963 43.6019L155.262 45.9549C154.357 45.2671 153.452 44.8327 152.547 44.8327C151.57 44.8327 151.063 45.2309 151.063 45.8825C151.063 46.715 152.257 47.0408 153.597 47.5476C155.226 48.163 157.072 49.1042 157.072 51.4933C157.072 53.8825 155.226 55.7286 151.787 55.7286C150.122 55.6924 148.167 54.9684 146.864 53.8825Z" fill="#0C419A"/>
<path d="M158.267 53.8825L159.968 51.4571C161.126 52.3621 162.212 52.8327 163.298 52.8327C164.42 52.8327 164.927 52.3983 164.927 51.7105C164.927 50.8417 163.66 50.4436 162.321 49.9368C160.728 49.3214 158.918 48.2354 158.918 46.0635C158.918 43.6019 160.873 41.9368 163.841 41.9368C165.796 41.9368 167.28 42.7331 168.366 43.6019L166.665 45.9549C165.76 45.2671 164.855 44.8327 163.95 44.8327C162.972 44.8327 162.466 45.2309 162.466 45.8825C162.466 46.715 163.66 47.0408 165 47.5476C166.629 48.163 168.475 49.1042 168.475 51.4933C168.475 53.8825 166.629 55.7286 163.19 55.7286C161.525 55.6924 159.57 54.9684 158.267 53.8825Z" fill="#0C419A"/>
<path d="M185.235 42.2625H189.036V44.1448C189.76 42.6968 191.534 42.1901 192.438 42.1901C193.162 42.1901 193.597 42.2987 193.959 42.4435L193.561 45.991C193.054 45.8462 192.475 45.5928 191.932 45.5928C190.448 45.629 189.144 46.8959 189.036 48.5611V55.4027H185.235V42.2625Z" fill="#0C419A"/>
<path d="M208.692 42.2626H212.493V43.9277C213.579 42.8779 214.665 41.9368 216.438 41.9368C219.226 41.9368 220.42 43.9639 220.42 47.2218V55.3666H216.619V47.6924C216.619 45.8101 216.113 45.1947 215.027 45.1947C214.086 45.1947 213.362 45.6653 212.529 46.4617V55.3304H208.728V42.2626H208.692Z" fill="#0C419A"/>
<path d="M233.597 48.8146C233.597 44.5431 236.276 41.9368 239.498 41.9368C243.154 41.9368 245.181 44.6517 245.181 48.2354C245.181 48.9232 245.108 49.6472 245.036 49.973H237.326C237.651 51.8915 238.955 52.7603 240.656 52.7603C241.633 52.7603 242.466 52.3621 243.407 51.8191L244.71 54.2445C243.407 55.1856 241.67 55.7286 240.149 55.7286C236.384 55.6924 233.597 53.1585 233.597 48.8146ZM241.959 47.4028C241.959 45.9549 241.127 44.9051 239.606 44.9051C238.412 44.9051 237.579 45.7377 237.326 47.4028H241.959Z" fill="#0C419A"/>
<path d="M194.792 51.7467C194.792 48.9956 197.108 47.439 202.212 46.896C202.14 45.7377 201.416 45.0499 200.004 45.0499C198.918 45.0499 197.832 45.5205 196.601 46.2445L195.262 43.6743C196.891 42.6608 198.737 41.9368 200.764 41.9368C204.058 41.9368 205.868 43.8553 205.868 47.8734V55.3666H202.249V54.0997C202.249 54.0997 200.764 55.6924 198.665 55.6924C196.276 55.6924 194.792 53.9549 194.792 51.7467ZM202.212 51.5295V49.249C199.497 49.611 198.448 50.4798 198.448 51.4571C198.448 52.2897 199.027 52.7241 199.932 52.7241C200.801 52.6879 201.561 52.2173 202.212 51.5295Z" fill="#0C419A"/>
<path d="M129.706 36.7603C128.909 36.7603 127.823 37.3756 127.823 38.4616C127.823 39.439 128.583 40.0182 129.38 40.0182C129.416 40.0182 129.452 40.0182 129.488 40.0182C129.452 41.1765 128.402 41.8281 127.896 42.1177L128.909 43.5295C132.24 42.4797 132.927 36.7965 129.706 36.7603Z" fill="#0C419A"/>
<path d="M178.285 42.2625V50.9502C177.524 52 176.945 52.3982 176.004 52.3982C174.918 52.3982 174.411 51.819 174.411 49.9005V42.2625H170.61V50.552C170.61 53.6652 171.95 55.7285 174.665 55.7285C177.126 55.7285 178.357 54.0634 178.357 54.0634V55.4027H182.122V42.2625H178.285Z" fill="#0C419A"/>
<path d="M229.253 52.5792C227.588 52.5792 226.357 51.0951 226.357 48.8507C226.357 46.5702 227.552 45.086 229.362 45.086C229.941 45.086 230.448 45.3032 231.027 45.81L232.837 43.3123C231.896 42.5159 230.701 41.9729 229.145 41.9729C225.597 41.9729 222.484 44.5068 222.484 48.8507C222.484 53.1946 225.199 55.7286 228.783 55.7286C230.194 55.7286 231.787 55.2942 233.018 54.172L231.642 51.5295C230.918 52.1449 230.122 52.5792 229.253 52.5792Z" fill="#0C419A"/>
<path d="M87.7509 36.9412C87.6785 36.7964 87.4251 36.6878 87.2441 36.6516C87.0269 36.6154 86.9184 36.6154 86.9184 36.6154C86.665 36.543 81.6333 36.6154 80.4387 37.4118C80.3301 36.6154 80.0405 35.638 78.665 35.3484C77.6876 35.1312 75.588 36.0724 76.2758 38.1719C76.3844 38.5339 76.6378 38.7873 76.9998 38.9683C77.1808 39.0769 77.4704 39.0045 77.6876 39.5837C77.76 39.7285 77.8686 39.7285 77.9772 39.6923C78.0496 39.6561 78.0858 39.6923 78.1944 39.7647C78.303 39.8371 78.3754 39.8009 78.3754 39.8009C78.3754 39.8009 78.4116 39.8371 78.484 39.8371C78.5202 39.8371 78.665 39.8009 78.665 39.8371C79.0631 40.1629 79.5337 39.6561 79.7147 39.3303C79.8957 39.8733 80.3663 41.2851 80.3663 41.2851C80.2215 41.1403 78.6288 40.7059 77.8686 41.5385C77.217 42.2624 76.7102 43.276 76.1672 44.9774C76.0224 45.448 75.7328 45.6652 75.1898 45.8824C74.3211 46.2081 74.8279 46.6063 75.045 46.6425C75.588 46.7511 76.8188 46.6787 77.0722 46.5701C77.398 46.4253 77.1446 45.6652 77.5066 45.1946C77.8324 44.7964 78.0858 44.4344 78.303 44.181C78.303 44.724 78.303 45.0136 78.0134 45.7014C77.76 46.3529 76.9636 46.6787 76.7102 46.9683C76.2758 47.5113 77.2532 47.5475 77.5066 47.4751C78.1582 47.2579 78.5926 47.2579 78.846 47.1131C79.2079 46.8959 78.9546 46.3167 79.0631 46.0995C79.3889 45.448 80.5111 44.0362 80.6559 43.819C80.6921 43.7828 80.6921 43.7466 80.6921 43.7104C81.4885 43.9638 82.3935 44.0362 82.7193 44C84.5654 43.7828 84.9636 42.4796 84.7826 41.4299C84.6016 40.4887 84.0224 39.9095 83.8414 39.6199C83.3708 38.8597 83.0812 38.4615 82.9002 38.2443C83.4432 38.0995 86.3754 37.3032 86.3754 37.3394C86.484 37.5928 86.7374 37.629 86.8098 37.7014C86.9908 37.81 87.0993 37.629 87.027 37.5928C86.8822 37.4842 86.846 37.4118 86.846 37.4118C87.0993 37.4118 87.3165 37.448 87.4975 37.448C87.7871 37.4842 87.8957 37.0498 87.7509 36.9412Z" fill="#0C419A"/>
<path fill-rule="evenodd" clip-rule="evenodd" d="M113.923 54.6788C113.452 52.1448 111.099 50.5883 109.869 50.0453C109.036 49.6833 108.674 49.6109 108.529 49.5747C108.348 49.5023 108.203 49.4661 108.131 49.4299C108.203 48.8869 108.855 48.8507 109.253 48.0543C110.339 45.81 108.095 44.2534 106.466 44.6154C105.669 44.7964 105.163 45.0498 105.018 45.6652C104.945 45.991 104.692 45.991 104.294 46.4254C104.149 46.5702 104.439 46.7874 104.511 46.896C104.511 46.9322 104.439 47.0408 104.402 47.1856C104.366 47.3304 104.402 47.2942 104.402 47.3304C104.402 47.3304 104.33 47.4752 104.33 47.6562C104.33 47.6562 104.149 48.0182 104.33 48.4163C104.366 48.5249 104.583 48.7421 104.656 49.2489C104.656 49.3213 104.656 49.3575 104.366 49.2489C104.294 49.2127 101.289 48.3439 100.964 48.1267C100.602 47.8734 97.6332 44.6516 97.3074 44.0362C97.1264 43.6743 96.9454 43.4571 96.8369 43.4571C96.1491 43.4933 97.3436 44.7602 96.6559 44.3258C96.4749 44.2172 95.9681 43.8553 95.9319 43.8191C95.7871 43.7105 95.8233 43.7467 95.7509 43.6019C95.6785 43.4571 95.6061 43.3485 95.5337 43.3123C95.4613 43.2761 95.4251 43.2399 95.3527 43.2399C95.2441 43.2761 95.2803 43.3485 95.2441 43.3485C95.2441 43.3485 95.1717 43.3485 95.1355 43.3485C94.9545 43.3847 95.0993 43.8191 95.1355 44.0362C95.1355 44.0724 95.6061 45.1946 95.7509 45.3756C96.5111 45.8824 97.235 46.353 97.2712 46.353C98.1038 47.2942 99.045 48.4887 99.9138 49.3937C100.602 50.1177 103.715 51.9277 103.787 51.9639C104.004 52.0725 104.33 52.7602 103.859 57.5023C103.678 59.2761 102.412 63.077 103.027 65.0317C103.425 66.2987 103.859 67.1675 104.33 70.6426C104.439 71.4028 103.823 71.9096 102.955 72.5249C102.629 72.7783 101.651 73.3575 101.579 73.4299C101.434 73.5747 101.579 73.7919 101.76 73.9005C101.977 73.9729 102.339 74.1901 102.556 74.2263C102.918 74.2987 103.461 74.2625 104.04 73.9367C104.656 73.5747 104.728 73.5385 105.09 73.2851C105.525 73.0317 106.031 72.9593 106.176 72.5249C106.357 71.9458 105.85 71.1132 105.923 70.7512C106.285 68.0363 106.755 66.6969 106.068 65.0317C105.923 64.7059 107.045 61.086 107.154 61.5566C107.335 62.4978 107.407 65.3575 107.443 67.4571C107.443 68.3982 108.203 71.6562 108.457 72.8507C108.819 74.6607 105.778 76.1087 106.43 76.6516C106.574 76.7602 106.973 76.9412 107.335 77.0136C107.769 77.086 108.095 77.0136 108.457 76.8688C108.674 76.7964 109 76.3982 109.072 76.3258C109.724 75.5295 109.507 75.7467 110.05 75.1675C110.484 74.6607 110.158 73.7919 110.122 73.3575C110.013 72.4525 110.122 72.1992 110.086 70.534C110.086 68.6154 110.194 68.0725 110.303 67.3485C110.774 64.1629 111.063 62.4254 111.244 61.086V61.0136C111.244 61.0136 111.461 61.086 111.57 60.9412C111.751 60.6516 111.715 60.3982 111.751 60.2172C111.787 60.0363 111.859 60.2534 111.859 60.2534C111.859 60.2534 112.004 60.6878 112.004 60.8326C112.004 61.0498 111.859 61.3032 111.751 61.629C111.642 61.991 111.932 62.0272 112.004 62.0634C112.077 62.0996 113.018 61.4118 113.163 61.1584C113.307 60.8688 113.271 60.5068 113.307 60.3258C113.344 59.8553 113.054 58.5159 113.054 58.5159C113.271 57.6109 114.068 55.3304 113.923 54.6788ZM111.751 58.3349C111.642 58.7693 111.606 58.3711 111.208 60.0363L111.244 59.7829C111.244 59.5657 111.244 59.3123 111.244 59.0589C111.244 56.9955 109.651 52.5792 110.629 53.4842C110.629 53.4842 111.787 54.2806 112.004 54.896C112.185 55.439 112.149 56.7421 111.751 58.3349Z" fill="#0C419A"/>
<path d="M73.0541 63.2941C72.6921 62.9683 71.4252 61.2669 70.6288 60.5791C70.0858 59.9999 69.941 59.7103 69.5066 59.095C68.0225 57.1402 67.6967 56.9954 66.6831 56.8506C66.4659 56.7058 66.5383 56.561 66.5745 56.5248C67.9139 56.018 67.4795 54.8597 67.4433 54.8235C67.3709 54.5701 67.5519 54.4615 67.5519 54.2081C67.5519 53.8099 67.4795 53.5203 67.3709 53.2307C67.4071 53.0497 67.4433 52.7963 67.2623 52.5429C66.5383 51.6379 64.7283 51.6017 63.7872 52.2171C63.027 52.7239 63.4614 53.0859 63.2442 53.8461C63.0994 54.2805 63.2442 54.6787 63.5338 55.0045C63.57 55.2578 64.3302 55.7284 64.1854 56.2352C64.0406 56.7782 63.1718 56.8868 63.1718 56.8868C63.0632 56.923 62.9908 56.9592 62.9184 56.9954C61.5428 57.7918 60.2035 58.9502 60.0225 60.1809C60.0949 61.1945 61.6876 62.6787 62.7012 63.475C62.846 65.2126 63.932 67.8551 64.0044 67.9637C64.1492 68.2895 63.6786 67.7103 62.5926 67.3483C62.0496 67.1674 61.3618 66.4434 61.1808 67.3121C61.1084 67.6741 61.2532 68.2895 60.9274 69.0859C60.674 69.6651 60.9636 70.6063 61.6152 70.6063C62.0858 70.6063 62.3754 69.1583 62.3754 69.1583C62.3754 69.1583 64.6559 70.2805 65.7419 69.9185C66.3935 69.7013 66.5383 67.1674 65.8867 64.8868C65.6695 64.0904 66.2849 66.19 67.8053 67.9999C68.1311 68.3981 67.8415 68.7239 68.0587 70.2443C68.1311 70.8235 68.1311 70.9683 68.1311 71.2217C68.0949 71.9456 67.4071 72.8144 68.9998 73.2126C70.6288 73.647 70.484 74.009 71.4976 73.3212C71.9682 73.0316 70.0858 72.8144 69.7238 71.7284C69.7238 71.6922 69.6876 71.5474 69.6876 71.475C69.6514 70.6063 70.0496 68.6153 69.9048 67.8913C69.3256 64.4524 67.8777 62.8597 67.6967 62.0633C67.6967 59.6741 67.5157 58.914 67.7329 59.4569C67.7691 59.5655 68.2759 60.3981 68.7826 61.0497C68.8188 61.1221 68.8912 61.1945 68.9636 61.2669C69.1084 61.4479 69.2532 61.5927 69.398 61.6651C70.4116 62.5339 72.0044 63.5836 72.2216 63.8008C72.2216 63.8008 72.3302 64.8506 72.7645 64.7782C73.1627 64.7058 75.0813 63.8732 75.0451 63.656C74.9727 63.3665 73.0903 63.3664 73.0541 63.2941ZM62.6288 61.9909C62.3392 61.4479 61.5428 60.3981 61.6152 60.2171C62.0496 59.4931 62.5202 59.276 62.665 59.3122C62.7736 59.3483 62.6288 61.9909 62.6288 61.9909Z" fill="#0C419A"/>
<path d="M104.764 82.7693C104.692 82.7331 103.57 82.2987 102.556 80.7059C102.122 79.982 98.7554 73.7919 98.321 72.5973C97.416 70.2082 90.3572 65.9005 90.0676 65.6471C89.8504 65.4661 89.8866 65.0679 89.959 64.7783C90.5382 62.7512 90.321 60.9774 90.4296 60.6878C90.7192 60.0001 91.1536 59.0227 90.8278 58.3711L90.1038 57.2127C90.1038 57.2127 93.8323 58.5521 94.7011 58.3711C95.4613 58.2263 99.1898 55.62 99.407 55.5114C99.9138 55.258 101.181 55.62 102.448 54.2444C102.918 53.7376 102.592 53.5566 102.484 53.629C102.52 53.5928 102.267 53.3756 102.05 53.5204C101.76 53.7014 100.71 53.991 100.891 53.8462C101.651 53.267 101.108 53.1222 101.108 53.1222C100.783 53.4118 99.2984 53.7738 98.9726 54.0272C98.6468 54.3168 98.3934 54.534 98.2486 54.6426C97.3436 55.1494 95.7871 55.9096 94.2305 56.2716C93.9047 56.3439 90.9364 54.3892 89.1988 54.1358C88.2577 53.991 87.9319 54.0634 87.4251 54.2082C86.8097 54.3892 86.8459 53.4842 87.3165 53.267C87.5699 53.1584 87.9681 53.086 88.1129 52.7964C88.2939 52.4345 88.0767 52.1087 88.0767 52.0363C88.0767 52.0001 88.1129 51.9639 88.0405 51.8191C88.0043 51.7105 88.0043 51.7829 88.0043 51.6743C88.0043 51.6019 87.9681 51.5295 87.9319 51.4571C87.9319 51.4209 87.9319 51.2761 87.9681 51.2399C88.33 50.9503 88.1853 50.8055 88.1129 50.7693C88.0043 50.6607 87.4613 50.4435 87.4251 50.0815C87.3527 49.5023 87.1355 49.2127 87.0631 48.9231C87.0269 48.8145 86.9545 48.1268 86.6649 47.8734C86.3029 47.5476 85.5427 47.1494 83.8776 47.5838C83.3346 47.7286 83.4432 47.982 82.14 48.2354C80.5472 48.5249 79.6785 50.8779 79.8233 51.8553C79.9319 52.6516 80.6196 52.2535 80.5834 52.6154C80.5472 53.1584 80.4748 54.0634 81.6332 54.3892C81.8866 54.4616 83.407 54.2082 83.9862 54.3168C83.9862 54.3168 84.4567 54.353 84.2034 54.8236C84.0948 55.0408 82.5744 55.6562 82.1762 55.801C81.1988 56.1992 78.6287 60.3982 77.8685 60.7964C77.2169 61.1222 76.8187 61.3756 76.5653 61.5566C75.5156 62.2082 74.502 63.0408 73.9228 63.0046C73.1626 62.9684 72.5472 63.3304 72.0405 64.4526C71.8957 64.7783 71.9681 64.9593 72.2577 65.0317C72.3663 65.1403 72.511 65.2851 72.7282 65.2851C72.9454 65.5023 73.1988 65.3575 73.416 65.2489C73.9952 64.9231 74.14 64.6697 74.3572 64.5973C74.9364 64.4163 78.3391 63.077 79.0993 62.4978C80.2577 61.8824 82.5744 59.4933 83.0812 59.4571C83.5518 59.4209 84.7101 60.4706 84.3481 62.4978C84.2396 63.1856 83.3708 64.4163 82.9002 65.1403C81.959 66.5521 82.683 67.8191 82.502 68.1087C81.5246 69.7014 80.3301 71.8372 78.3029 73.6471C77.5065 74.1539 75.8776 74.2625 74.9726 74.5159C72.9454 75.0951 70.8097 76.5431 69.2893 77.4118C68.7825 77.7014 68.3119 77.086 67.6604 77.0136C67.045 76.9412 66.9726 77.9186 66.6468 78.7874C66.5382 79.0408 66.502 79.1856 66.0314 80.2716C65.8504 80.7059 65.3436 81.9729 65.8504 82.5159C66.321 83.1675 67.407 81.1403 68.2758 80.163C68.7101 79.6562 68.9997 79.4752 69.9771 79.258C70.5925 79.1132 75.5518 77.7738 78.8097 77.0498C78.8821 77.0498 78.9907 77.0136 79.0631 76.9774C83.2984 75.8915 87.6785 70.353 87.7509 70.3892L94.9545 73.9367C95.6785 74.3349 95.6785 75.7105 96.5472 77.3394C97.054 78.3168 97.8142 79.1494 100.891 82.1539C101.289 82.5521 100.964 83.1675 101.145 83.7829C101.326 84.4345 101.651 84.4344 102.231 84.3983C102.773 84.3621 103.244 84.2535 103.787 84.2173C104.475 84.1811 104.294 84.2535 105.09 84.3621C105.488 84.4345 106.357 84.5431 107.009 83.9277C108.131 82.7331 105.85 83.3123 104.764 82.7693Z" fill="#0C419A"/>
<path d="M96.9818 79.6561C96.8732 79.4389 96.6198 79.3665 96.4026 79.4751C93.3257 81.0317 89.8868 81.8643 86.4117 81.8643C82.5384 81.8643 78.7374 80.8507 75.4071 78.9321C75.1899 78.8235 74.9365 78.8959 74.7917 79.0769C74.6831 79.2941 74.7555 79.5475 74.9365 79.6923C78.4117 81.6833 82.3574 82.733 86.3755 82.733C89.9954 82.733 93.5791 81.8643 96.7646 80.2353C97.018 80.1267 97.0904 79.8733 96.9818 79.6561Z" fill="#0C419A"/>
<path d="M65.8866 50.8779C65.8142 50.8779 65.778 50.8779 65.7056 50.8417C65.4884 50.7331 65.3798 50.4797 65.4884 50.2625C67.4794 45.9186 70.7011 42.3349 74.8278 39.9095C75.045 39.8009 75.2984 39.8733 75.4432 40.0543C75.5518 40.2715 75.4794 40.5249 75.2984 40.6697C71.3165 42.9865 68.2033 46.4254 66.321 50.6245C66.2124 50.8055 66.0676 50.8779 65.8866 50.8779Z" fill="#0C419A"/>
<path d="M103.28 45.267C103.172 45.267 103.027 45.2308 102.955 45.1222C99.4795 41.1765 94.7012 38.6063 89.5247 37.8823C89.2713 37.8461 89.1265 37.6289 89.1627 37.3756C89.1989 37.1222 89.4161 36.9774 89.6695 37.0136C95.0632 37.7737 100.022 40.4525 103.642 44.543C103.787 44.724 103.787 45.0136 103.606 45.1584C103.498 45.2308 103.389 45.267 103.28 45.267Z" fill="#0C419A"/>
</svg>
