<svg width="280" height="120" viewBox="0 0 280 120" fill="none" xmlns="http://www.w3.org/2000/svg">
<rect width="280" height="120" fill="white"/>
<path d="M56.2942 60.2536L55.8599 59.8554C56.0408 59.6382 56.1856 59.3848 56.2218 59.1314C56.2218 58.8418 56.1132 58.697 55.9685 58.697C55.7875 58.697 55.7151 58.8418 55.6065 59.1314L55.4255 59.5296C55.2807 59.8192 55.0273 60.1088 54.5929 60.1088C54.0861 60.0726 53.7241 59.6382 53.7603 58.9866C53.7603 58.6246 53.9413 58.2988 54.1947 58.0454L54.5929 58.4074C54.4481 58.5884 54.3395 58.7694 54.3395 59.0228C54.3395 59.24 54.4119 59.421 54.5929 59.421C54.7739 59.421 54.8463 59.24 54.9549 58.9866L55.1359 58.6246C55.3169 58.2626 55.5703 58.0454 55.9685 58.0816C56.4752 58.1178 56.8734 58.5522 56.8372 59.2762C56.7648 59.5296 56.5838 59.964 56.2942 60.2536Z" fill="#0C419A"/>
<path d="M53.5068 55.9455L53 55.0768L53.4706 54.7872L53.905 55.6922L53.5068 55.9455ZM53.8688 56.6333L54.1584 54.751L54.7376 54.8234L54.5566 56.0179L55.1719 56.0903L55.3167 55.0768L55.8959 55.1492L55.7511 56.1627L56.4389 56.2713L56.6199 55.0406L57.1991 55.113L56.9095 57.0315L53.8688 56.6333Z" fill="#0C419A"/>
<path d="M55.7873 53.991C54.8099 53.7376 54.4117 52.9775 54.5927 52.2173C54.7013 51.8553 54.9547 51.5657 55.2081 51.4209L55.5339 51.8915C55.3529 52.0001 55.2081 52.1449 55.1719 52.3621C55.0633 52.7603 55.3529 53.1585 55.9321 53.3033C56.5475 53.448 56.9457 53.2671 57.0543 52.8327C57.1267 52.5793 57.0543 52.3621 56.9095 52.1811L57.4162 51.9277C57.6334 52.2535 57.7058 52.6155 57.5972 52.9775C57.4524 53.7738 56.7647 54.2444 55.7873 53.991Z" fill="#0C419A"/>
<path d="M56.7284 50.8417L55.208 50.2625L55.4614 49.6109L57.0542 50.2263C57.5972 50.4435 57.8505 50.3349 57.9953 50.0091C58.1039 49.6833 57.9953 49.4299 57.4524 49.2127L55.8596 48.5973L56.0768 47.9819L57.5972 48.5611C58.5383 48.9231 58.7917 49.4661 58.5383 50.1901C58.2487 50.9503 57.6695 51.1675 56.7284 50.8417Z" fill="#0C419A"/>
<path d="M56.6924 46.5702L57.1992 45.5928C57.4888 45.0136 57.9232 44.6516 58.5747 44.9774C59.1901 45.3032 59.2263 45.8824 58.9005 46.4616L58.7195 46.8236L59.6969 47.3303L59.3711 47.9457L56.6924 46.5702ZM58.3937 46.2806C58.5747 45.9548 58.5023 45.7376 58.2489 45.5928C57.9955 45.448 57.8146 45.5928 57.6336 45.8824L57.4888 46.2082L58.2127 46.6064L58.3937 46.2806ZM58.6833 46.534L58.5023 45.9186L60.4571 45.8462L60.0951 46.534H58.6833Z" fill="#0C419A"/>
<path d="M58.4297 43.3121L58.7917 42.7329L61.3256 44.3619L60.9636 44.9411L58.4297 43.3121Z" fill="#0C419A"/>
<path d="M60.3485 41.5024L59.8417 42.1539L59.3711 41.792L60.7829 39.9458L61.2534 40.3078L60.7467 40.9594L62.7014 42.4435L62.3032 42.9865L60.3485 41.5024Z" fill="#0C419A"/>
<path d="M61.543 39.0408L62.8461 37.6653L63.2805 38.0635L62.4479 38.9323L62.8823 39.3304L63.5701 38.5703L64.0045 38.9684L63.3167 39.7286L63.8235 40.1992L64.6923 39.2942L65.1267 39.6924L63.8235 41.1042L61.543 39.0408ZM61.6154 38.2807L61.6878 37.2671L62.267 37.3033L62.086 38.2807H61.6154Z" fill="#0C419A"/>
<path d="M66.6108 37.7012L66.647 37.0858C66.9366 37.0858 67.2262 37.0496 67.4072 36.8686C67.6244 36.6876 67.6606 36.5066 67.552 36.3618C67.4434 36.217 67.2624 36.2532 66.9728 36.3618L66.5746 36.4704C66.2488 36.579 65.8506 36.5428 65.5972 36.1808C65.3077 35.7826 65.4162 35.2034 65.8868 34.8052C66.1764 34.588 66.5384 34.4794 66.9004 34.5156V35.0586C66.647 35.0586 66.466 35.0948 66.2488 35.2396C66.0678 35.3844 65.9954 35.5654 66.104 35.674C66.2126 35.8188 66.4298 35.7464 66.6832 35.674L67.0814 35.5654C67.4796 35.4568 67.8054 35.493 68.0588 35.855C68.3484 36.2532 68.3122 36.8324 67.733 37.303C67.4434 37.5926 67.009 37.7374 66.6108 37.7012Z" fill="#0C419A"/>
<path d="M68.4568 34.8053C67.9501 33.9727 68.131 33.1763 68.8188 32.7781C69.5066 32.3437 70.2668 32.5609 70.7736 33.3935C71.2804 34.2261 71.0994 35.0225 70.4116 35.4569C69.76 35.855 68.9636 35.6379 68.4568 34.8053ZM70.2306 33.7555C69.9048 33.2487 69.5066 33.0677 69.1446 33.2849C68.7826 33.5021 68.7464 33.9365 69.0722 34.4433C69.398 34.9501 69.7962 35.1673 70.1582 34.9501C70.484 34.7329 70.5202 34.2623 70.2306 33.7555Z" fill="#0C419A"/>
<path d="M71.6789 32.9229C71.2445 32.0179 71.6065 31.2215 72.2943 30.8957C72.6562 30.7147 73.0182 30.7509 73.2716 30.8595L73.1268 31.4025C72.9458 31.3301 72.7286 31.3301 72.5476 31.4025C72.1857 31.5835 72.0409 32.0541 72.2943 32.5971C72.5476 33.1763 72.982 33.3573 73.3802 33.1763C73.5974 33.0677 73.7422 32.8867 73.7784 32.6695L74.2852 32.9229C74.1766 33.2849 73.9594 33.5745 73.5974 33.7193C72.9096 34.0451 72.1133 33.8279 71.6789 32.9229Z" fill="#0C419A"/>
<path d="M74.3574 30.0995L75.009 29.8823L76.0588 32.7059L75.4072 32.923L74.3574 30.0995Z" fill="#0C419A"/>
<path d="M77.0724 29.1947L77.8688 28.9775L79.5701 31.6563L78.8824 31.8373L78.1222 30.4617C77.9774 30.2083 77.7964 29.8825 77.6516 29.5929C77.6516 29.9187 77.6878 30.2807 77.6878 30.6065V32.1993L77 32.3803L77.0724 29.1947ZM77.2172 30.9685L78.629 30.6065L78.7738 31.1133L77.362 31.4753L77.2172 30.9685Z" fill="#0C419A"/>
<path d="M79.896 28.5065L80.5838 28.3979L80.9458 30.8233L82.1041 30.6423L82.1765 31.2215L80.3304 31.5111L79.896 28.5065Z" fill="#0C419A"/>
<path d="M82.8281 28.1086L84.7105 28L84.7467 28.5792L83.5521 28.6516L83.5883 29.267L84.6019 29.1946L84.6381 29.7738L83.6245 29.8462L83.6607 30.5339L84.9277 30.4615L84.9639 31.0407L83.0453 31.1493L82.8281 28.1086Z" fill="#0C419A"/>
<path d="M153.126 73.0319V58.5522H156.927V73.1767C156.927 74.0093 157.289 74.2627 157.615 74.2627C157.76 74.2627 157.869 74.2627 158.086 74.2265L158.556 77.0862C158.122 77.2672 157.507 77.412 156.638 77.412C154.031 77.4482 153.126 75.6744 153.126 73.0319Z" fill="#0C419A"/>
<path d="M128.728 68.3985C129.054 67.3487 132.457 59.8555 132.457 59.8555H136.475V77.1224H132.855V66.4437L129.85 74.1903H127.534L124.529 66.4437V77.1224H120.909V59.8555H124.927C124.927 59.8555 128.294 67.3487 128.656 68.3985H128.728V68.3985Z" fill="#0C419A"/>
<path d="M160.113 73.4662C160.113 70.7151 162.43 69.1585 167.534 68.6155C167.461 67.4572 166.737 66.7694 165.325 66.7694C164.239 66.7694 163.154 67.24 161.923 67.9639L160.583 65.3938C162.212 64.3802 164.058 63.6562 166.086 63.6562C169.38 63.6562 171.19 65.5748 171.19 69.5929V77.0861H167.57V75.8191C167.57 75.8191 166.086 77.4119 163.986 77.4119C161.597 77.4481 160.113 75.6743 160.113 73.4662ZM167.534 73.249V70.9685C164.819 71.3305 163.769 72.1992 163.769 73.1766C163.769 74.0092 164.348 74.4436 165.253 74.4436C166.086 74.4074 166.846 73.9368 167.534 73.249Z" fill="#0C419A"/>
<path d="M139.117 73.4662C139.117 70.7151 141.434 69.1585 146.538 68.6155C146.466 67.4572 145.742 66.7694 144.33 66.7694C143.244 66.7694 142.158 67.24 140.927 67.9639L139.588 65.3938C141.217 64.3802 143.063 63.6562 145.09 63.6562C148.384 63.6562 150.194 65.5748 150.194 69.5929V77.0861H146.574V75.8191C146.574 75.8191 145.09 77.4119 142.99 77.4119C140.601 77.4481 139.117 75.6743 139.117 73.4662ZM146.538 73.249V70.9685C143.823 71.3305 142.773 72.1992 142.773 73.1766C142.773 74.0092 143.352 74.4436 144.257 74.4436C145.09 74.4074 145.85 73.9368 146.538 73.249Z" fill="#0C419A"/>
<path d="M181.941 58.5522V64.9233C181.072 64.0907 180.203 63.6563 178.791 63.6563C176.077 63.6563 173.47 66.2627 173.47 70.5341C173.47 74.8418 175.534 77.412 178.719 77.412C180.457 77.412 181.832 76.1088 181.941 76.0002V77.1224H185.742V58.5522H181.941ZM179.696 74.2627C178.212 74.2627 177.344 73.1043 177.344 70.5341C177.344 68.0364 178.429 66.878 179.66 66.878C180.348 66.878 181.108 67.0952 181.941 67.7106V73.1043C181.181 73.9369 180.529 74.2627 179.696 74.2627Z" fill="#0C419A"/>
<path d="M188.674 60.0364C188.674 58.8419 189.615 58.0093 190.882 58.0093C192.149 58.0093 193.09 58.8419 193.09 60.0364C193.09 61.231 192.149 62.0636 190.882 62.0636C189.615 62.0636 188.674 61.1948 188.674 60.0364ZM188.963 63.9821H192.764V77.1224H188.963V63.9821Z" fill="#0C419A"/>
<path d="M195.153 70.5341C195.153 66.2626 197.832 63.6562 201.054 63.6562C204.71 63.6562 206.737 66.3712 206.737 69.9549C206.737 70.6427 206.665 71.3667 206.592 71.6924H198.882C199.208 73.611 200.511 74.4798 202.212 74.4798C203.19 74.4798 204.022 74.0816 204.963 73.5386L206.266 75.9639C204.963 76.9051 203.226 77.4481 201.705 77.4481C197.904 77.4481 195.153 74.9142 195.153 70.5341ZM203.479 69.1223C203.479 67.6743 202.647 66.6246 201.126 66.6246C199.932 66.6246 199.099 67.4572 198.846 69.1223H203.479Z" fill="#0C419A"/>
<path d="M120.909 51.3122V36.8325H124.71V51.457C124.71 52.2895 125.072 52.5429 125.398 52.5429C125.543 52.5429 125.651 52.5429 125.868 52.5067L126.339 55.3665C125.905 55.5475 125.289 55.6923 124.42 55.6923C121.778 55.6923 120.909 53.9547 120.909 51.3122Z" fill="#0C419A"/>
<path d="M141.108 51.276L142.158 55.4027H146.104L140.782 38.1357H136.402L131.081 55.4027H135.027L136.077 51.276H141.108ZM136.873 48.2353L138.538 41.6833H138.683L140.348 48.2353H136.873Z" fill="#0C419A"/>
<path d="M146.864 53.8822L148.565 51.4569C149.724 52.3619 150.809 52.8325 151.895 52.8325C153.018 52.8325 153.524 52.3981 153.524 51.7103C153.524 50.8415 152.257 50.4433 150.918 49.9365C149.325 49.3211 147.515 48.2352 147.515 46.0632C147.515 43.6017 149.47 41.9365 152.438 41.9365C154.393 41.9365 155.877 42.7329 156.963 43.6017L155.262 45.9546C154.357 45.2668 153.452 44.8325 152.547 44.8325C151.57 44.8325 151.063 45.2306 151.063 45.8822C151.063 46.7148 152.257 47.0406 153.597 47.5474C155.226 48.1628 157.072 49.1039 157.072 51.4931C157.072 53.8822 155.226 55.7284 151.787 55.7284C150.122 55.6922 148.167 54.9682 146.864 53.8822Z" fill="#0C419A"/>
<path d="M158.267 53.8822L159.968 51.4569C161.126 52.3619 162.212 52.8325 163.298 52.8325C164.42 52.8325 164.927 52.3981 164.927 51.7103C164.927 50.8415 163.66 50.4433 162.321 49.9365C160.728 49.3211 158.918 48.2352 158.918 46.0632C158.918 43.6017 160.873 41.9365 163.841 41.9365C165.796 41.9365 167.28 42.7329 168.366 43.6017L166.665 45.9546C165.76 45.2668 164.855 44.8325 163.95 44.8325C162.972 44.8325 162.466 45.2306 162.466 45.8822C162.466 46.7148 163.66 47.0406 165 47.5474C166.629 48.1628 168.475 49.1039 168.475 51.4931C168.475 53.8822 166.629 55.7284 163.19 55.7284C161.525 55.6922 159.57 54.9682 158.267 53.8822Z" fill="#0C419A"/>
<path d="M185.235 42.2623H189.036V44.1447C189.76 42.6967 191.534 42.1899 192.438 42.1899C193.162 42.1899 193.597 42.2985 193.959 42.4433L193.561 45.9908C193.054 45.8461 192.475 45.5927 191.932 45.5927C190.448 45.6289 189.144 46.8958 189.036 48.561V55.4026H185.235V42.2623V42.2623Z" fill="#0C419A"/>
<path d="M208.692 42.2623H212.493V43.9275C213.579 42.8777 214.665 41.9365 216.438 41.9365C219.226 41.9365 220.42 43.9637 220.42 47.2216V55.3664H216.619V47.6922C216.619 45.8098 216.113 45.1944 215.027 45.1944C214.086 45.1944 213.362 45.665 212.529 46.4614V55.3302H208.728V42.2623H208.692Z" fill="#0C419A"/>
<path d="M233.597 48.8144C233.597 44.5429 236.276 41.9365 239.498 41.9365C243.154 41.9365 245.181 44.6515 245.181 48.2352C245.181 48.923 245.108 49.6469 245.036 49.9727H237.326C237.651 51.8913 238.955 52.7601 240.656 52.7601C241.633 52.7601 242.466 52.3619 243.407 51.8189L244.71 54.2442C243.407 55.1854 241.67 55.7284 240.149 55.7284C236.384 55.6922 233.597 53.1582 233.597 48.8144ZM241.959 47.4026C241.959 45.9546 241.127 44.9049 239.606 44.9049C238.412 44.9049 237.579 45.7374 237.326 47.4026H241.959Z" fill="#0C419A"/>
<path d="M194.792 51.7465C194.792 48.9953 197.108 47.4388 202.212 46.8958C202.14 45.7374 201.416 45.0496 200.004 45.0496C198.918 45.0496 197.832 45.5202 196.601 46.2442L195.262 43.6741C196.891 42.6605 198.737 41.9365 200.764 41.9365C204.058 41.9365 205.868 43.8551 205.868 47.8732V55.3664H202.249V54.0994C202.249 54.0994 200.764 55.6922 198.665 55.6922C196.276 55.6922 194.792 53.9546 194.792 51.7465ZM202.212 51.5293V49.2487C199.497 49.6107 198.448 50.4795 198.448 51.4569C198.448 52.2895 199.027 52.7239 199.932 52.7239C200.801 52.6877 201.561 52.2171 202.212 51.5293Z" fill="#0C419A"/>
<path d="M129.706 36.7603C128.909 36.7603 127.823 37.3756 127.823 38.4616C127.823 39.439 128.583 40.0182 129.38 40.0182C129.416 40.0182 129.452 40.0182 129.488 40.0182C129.452 41.1765 128.402 41.8281 127.896 42.1177L128.909 43.5295C132.24 42.4797 132.927 36.7965 129.706 36.7603Z" fill="#0C419A"/>
<path d="M178.285 42.2627V50.9505C177.524 52.0003 176.945 52.3984 176.004 52.3984C174.918 52.3984 174.411 51.8193 174.411 49.9007V42.2627H170.61V50.5523C170.61 53.6654 171.95 55.7288 174.665 55.7288C177.126 55.7288 178.357 54.0636 178.357 54.0636V55.403H182.122V42.2627H178.285Z" fill="#0C419A"/>
<path d="M229.253 52.5795C227.588 52.5795 226.357 51.0953 226.357 48.851C226.357 46.5704 227.552 45.0863 229.362 45.0863C229.941 45.0863 230.448 45.3035 231.027 45.8103L232.837 43.3125C231.896 42.5161 230.701 41.9731 229.145 41.9731C225.597 41.9731 222.484 44.5071 222.484 48.851C222.484 53.1949 225.199 55.7288 228.783 55.7288C230.194 55.7288 231.787 55.2944 233.018 54.1722L231.642 51.5297C230.918 52.1451 230.122 52.5795 229.253 52.5795Z" fill="#0C419A"/>
<path d="M87.7509 36.9412C87.6785 36.7964 87.4251 36.6878 87.2441 36.6516C87.0269 36.6154 86.9184 36.6154 86.9184 36.6154C86.665 36.543 81.6333 36.6154 80.4387 37.4118C80.3301 36.6154 80.0405 35.638 78.665 35.3484C77.6876 35.1312 75.588 36.0724 76.2758 38.1719C76.3844 38.5339 76.6378 38.7873 76.9998 38.9683C77.1808 39.0769 77.4704 39.0045 77.6876 39.5837C77.76 39.7285 77.8686 39.7285 77.9772 39.6923C78.0496 39.6561 78.0858 39.6923 78.1944 39.7647C78.303 39.8371 78.3754 39.8009 78.3754 39.8009C78.3754 39.8009 78.4116 39.8371 78.484 39.8371C78.5202 39.8371 78.665 39.8009 78.665 39.8371C79.0631 40.1629 79.5337 39.6561 79.7147 39.3303C79.8957 39.8733 80.3663 41.2851 80.3663 41.2851C80.2215 41.1403 78.6288 40.7059 77.8686 41.5385C77.217 42.2624 76.7102 43.276 76.1672 44.9774C76.0224 45.448 75.7328 45.6652 75.1898 45.8824C74.3211 46.2081 74.8279 46.6063 75.045 46.6425C75.588 46.7511 76.8188 46.6787 77.0722 46.5701C77.398 46.4253 77.1446 45.6652 77.5066 45.1946C77.8324 44.7964 78.0858 44.4344 78.303 44.181C78.303 44.724 78.303 45.0136 78.0134 45.7014C77.76 46.3529 76.9636 46.6787 76.7102 46.9683C76.2758 47.5113 77.2532 47.5475 77.5066 47.4751C78.1582 47.2579 78.5926 47.2579 78.846 47.1131C79.2079 46.8959 78.9546 46.3167 79.0631 46.0995C79.3889 45.448 80.5111 44.0362 80.6559 43.819C80.6921 43.7828 80.6921 43.7466 80.6921 43.7104C81.4885 43.9638 82.3935 44.0362 82.7193 44C84.5654 43.7828 84.9636 42.4796 84.7826 41.4299C84.6016 40.4887 84.0224 39.9095 83.8414 39.6199C83.3708 38.8597 83.0812 38.4615 82.9002 38.2443C83.4432 38.0995 86.3754 37.3032 86.3754 37.3394C86.484 37.5928 86.7374 37.629 86.8098 37.7014C86.9907 37.81 87.0993 37.629 87.027 37.5928C86.8822 37.4842 86.846 37.4118 86.846 37.4118C87.0993 37.4118 87.3165 37.448 87.4975 37.448C87.7871 37.4842 87.8957 37.0498 87.7509 36.9412Z" fill="#0C419A"/>
<path fill-rule="evenodd" clip-rule="evenodd" d="M113.923 54.6787C113.452 52.1447 111.099 50.5882 109.869 50.0452C109.036 49.6832 108.674 49.6108 108.529 49.5746C108.348 49.5022 108.203 49.466 108.131 49.4298C108.203 48.8868 108.855 48.8506 109.253 48.0542C110.339 45.8099 108.095 44.2533 106.466 44.6153C105.669 44.7963 105.163 45.0497 105.018 45.6651C104.945 45.9909 104.692 45.9909 104.294 46.4253C104.149 46.5701 104.439 46.7873 104.511 46.8959C104.511 46.9321 104.439 47.0407 104.402 47.1854C104.366 47.3302 104.402 47.294 104.402 47.3302C104.402 47.3302 104.33 47.475 104.33 47.656C104.33 47.656 104.149 48.018 104.33 48.4162C104.366 48.5248 104.583 48.742 104.656 49.2488C104.656 49.3212 104.656 49.3574 104.366 49.2488C104.294 49.2126 101.289 48.3438 100.964 48.1266C100.602 47.8732 97.6332 44.6515 97.3074 44.0361C97.1264 43.6741 96.9454 43.4569 96.8369 43.4569C96.1491 43.4931 97.3436 44.7601 96.6559 44.3257C96.4749 44.2171 95.9681 43.8551 95.9319 43.8189C95.7871 43.7103 95.8233 43.7465 95.7509 43.6017C95.6785 43.4569 95.6061 43.3483 95.5337 43.3121C95.4613 43.2759 95.4251 43.2397 95.3527 43.2397C95.2441 43.2759 95.2803 43.3483 95.2441 43.3483C95.2441 43.3483 95.1717 43.3483 95.1355 43.3483C94.9545 43.3845 95.0993 43.8189 95.1355 44.0361C95.1355 44.0723 95.6061 45.1945 95.7509 45.3755C96.5111 45.8823 97.235 46.3529 97.2712 46.3529C98.1038 47.294 99.045 48.4886 99.9138 49.3936C100.602 50.1176 103.715 51.9275 103.787 51.9637C104.004 52.0723 104.33 52.7601 103.859 57.5022C103.678 59.276 102.412 63.0769 103.027 65.0316C103.425 66.2986 103.859 67.1673 104.33 70.6425C104.439 71.4026 103.823 71.9094 102.955 72.5248C102.629 72.7782 101.651 73.3574 101.579 73.4298C101.434 73.5746 101.579 73.7918 101.76 73.9004C101.977 73.9728 102.339 74.19 102.556 74.2262C102.918 74.2986 103.461 74.2624 104.04 73.9366C104.656 73.5746 104.728 73.5384 105.09 73.285C105.525 73.0316 106.031 72.9592 106.176 72.5248C106.357 71.9456 105.85 71.1131 105.923 70.7511C106.285 68.0361 106.755 66.6968 106.068 65.0316C105.923 64.7058 107.045 61.0859 107.154 61.5565C107.335 62.4977 107.407 65.3574 107.443 67.4569C107.443 68.3981 108.203 71.656 108.457 72.8506C108.819 74.6606 105.778 76.1085 106.43 76.6515C106.574 76.7601 106.973 76.9411 107.335 77.0135C107.769 77.0859 108.095 77.0135 108.457 76.8687C108.674 76.7963 109 76.3981 109.072 76.3257C109.724 75.5293 109.507 75.7465 110.05 75.1674C110.484 74.6606 110.158 73.7918 110.122 73.3574C110.013 72.4524 110.122 72.199 110.086 70.5339C110.086 68.6153 110.194 68.0723 110.303 67.3483C110.774 64.1628 111.063 62.4253 111.244 61.0859V61.0135C111.244 61.0135 111.461 61.0859 111.57 60.9411C111.751 60.6515 111.715 60.3981 111.751 60.2171C111.787 60.0361 111.859 60.2533 111.859 60.2533C111.859 60.2533 112.004 60.6877 112.004 60.8325C112.004 61.0497 111.859 61.3031 111.751 61.6289C111.642 61.9909 111.932 62.0271 112.004 62.0633C112.077 62.0995 113.018 61.4117 113.163 61.1583C113.307 60.8687 113.271 60.5067 113.307 60.3257C113.344 59.8551 113.054 58.5158 113.054 58.5158C113.271 57.6108 114.068 55.3302 113.923 54.6787ZM111.751 58.3348C111.642 58.7692 111.606 58.371 111.208 60.0361L111.244 59.7827C111.244 59.5655 111.244 59.3121 111.244 59.0588C111.244 56.9954 109.651 52.5791 110.629 53.4841C110.629 53.4841 111.787 54.2805 112.004 54.8959C112.185 55.4388 112.149 56.742 111.751 58.3348Z" fill="#0C419A"/>
<path d="M73.0541 63.2941C72.6921 62.9683 71.4252 61.2669 70.6288 60.5791C70.0858 59.9999 69.941 59.7103 69.5066 59.095C68.0225 57.1402 67.6967 56.9954 66.6831 56.8506C66.4659 56.7058 66.5383 56.561 66.5745 56.5248C67.9139 56.018 67.4795 54.8597 67.4433 54.8235C67.3709 54.5701 67.5519 54.4615 67.5519 54.2081C67.5519 53.8099 67.4795 53.5203 67.3709 53.2307C67.4071 53.0497 67.4433 52.7963 67.2623 52.5429C66.5383 51.6379 64.7283 51.6017 63.7872 52.2171C63.027 52.7239 63.4614 53.0859 63.2442 53.8461C63.0994 54.2805 63.2442 54.6787 63.5338 55.0045C63.57 55.2578 64.3302 55.7284 64.1854 56.2352C64.0406 56.7782 63.1718 56.8868 63.1718 56.8868C63.0632 56.923 62.9908 56.9592 62.9184 56.9954C61.5428 57.7918 60.2035 58.9502 60.0225 60.1809C60.0949 61.1945 61.6876 62.6787 62.7012 63.475C62.846 65.2126 63.932 67.8551 64.0044 67.9637C64.1492 68.2895 63.6786 67.7103 62.5926 67.3483C62.0496 67.1674 61.3618 66.4434 61.1808 67.3121C61.1084 67.6741 61.2532 68.2895 60.9274 69.0859C60.674 69.6651 60.9636 70.6063 61.6152 70.6063C62.0858 70.6063 62.3754 69.1583 62.3754 69.1583C62.3754 69.1583 64.6559 70.2805 65.7419 69.9185C66.3935 69.7013 66.5383 67.1674 65.8867 64.8868C65.6695 64.0904 66.2849 66.19 67.8053 67.9999C68.1311 68.3981 67.8415 68.7239 68.0587 70.2443C68.1311 70.8235 68.1311 70.9683 68.1311 71.2217C68.0949 71.9456 67.4071 72.8144 68.9998 73.2126C70.6288 73.647 70.484 74.009 71.4976 73.3212C71.9682 73.0316 70.0858 72.8144 69.7238 71.7284C69.7238 71.6922 69.6876 71.5474 69.6876 71.475C69.6514 70.6063 70.0496 68.6153 69.9048 67.8913C69.3256 64.4524 67.8777 62.8597 67.6967 62.0633C67.6967 59.6741 67.5157 58.914 67.7329 59.4569C67.7691 59.5655 68.2759 60.3981 68.7826 61.0497C68.8188 61.1221 68.8912 61.1945 68.9636 61.2669C69.1084 61.4479 69.2532 61.5927 69.398 61.6651C70.4116 62.5339 72.0044 63.5836 72.2216 63.8008C72.2216 63.8008 72.3302 64.8506 72.7645 64.7782C73.1627 64.7058 75.0813 63.8732 75.0451 63.656C74.9727 63.3665 73.0903 63.3664 73.0541 63.2941ZM62.6288 61.9909C62.3392 61.4479 61.5428 60.3981 61.6152 60.2171C62.0496 59.4931 62.5202 59.276 62.665 59.3122C62.7736 59.3483 62.6288 61.9909 62.6288 61.9909Z" fill="#0C419A"/>
<path d="M104.764 82.769C104.692 82.7328 103.57 82.2985 102.556 80.7057C102.122 79.9817 98.7554 73.7917 98.321 72.5971C97.416 70.208 90.3572 65.9003 90.0676 65.6469C89.8504 65.4659 89.8866 65.0677 89.959 64.7781C90.5382 62.7509 90.321 60.9772 90.4296 60.6876C90.7192 59.9998 91.1536 59.0224 90.8278 58.3709L90.1038 57.2125C90.1038 57.2125 93.8323 58.5519 94.7011 58.3709C95.4613 58.2261 99.1898 55.6197 99.407 55.5111C99.9138 55.2577 101.181 55.6197 102.448 54.2442C102.918 53.7374 102.592 53.5564 102.484 53.6288C102.52 53.5926 102.267 53.3754 102.05 53.5202C101.76 53.7012 100.71 53.9908 100.891 53.846C101.651 53.2668 101.108 53.122 101.108 53.122C100.783 53.4116 99.2984 53.7736 98.9726 54.027C98.6468 54.3166 98.3934 54.5338 98.2486 54.6423C97.3436 55.1491 95.7871 55.9093 94.2305 56.2713C93.9047 56.3437 90.9364 54.389 89.1988 54.1356C88.2577 53.9908 87.9319 54.0632 87.4251 54.208C86.8097 54.389 86.8459 53.484 87.3165 53.2668C87.5699 53.1582 87.9681 53.0858 88.1129 52.7962C88.2939 52.4342 88.0767 52.1084 88.0767 52.036C88.0767 51.9998 88.1129 51.9636 88.0405 51.8188C88.0043 51.7102 88.0043 51.7826 88.0043 51.674C88.0043 51.6016 87.9681 51.5292 87.9319 51.4568C87.9319 51.4206 87.9319 51.2758 87.9681 51.2396C88.33 50.95 88.1853 50.8052 88.1129 50.769C88.0043 50.6604 87.4613 50.4433 87.4251 50.0813C87.3527 49.5021 87.1355 49.2125 87.0631 48.9229C87.0269 48.8143 86.9545 48.1265 86.6649 47.8731C86.3029 47.5473 85.5427 47.1491 83.8776 47.5835C83.3346 47.7283 83.4432 47.9817 82.14 48.2351C80.5472 48.5247 79.6785 50.8776 79.8233 51.855C79.9319 52.6514 80.6196 52.2532 80.5834 52.6152C80.5472 53.1582 80.4748 54.0632 81.6332 54.389C81.8866 54.4614 83.407 54.208 83.9862 54.3166C83.9862 54.3166 84.4567 54.3528 84.2034 54.8233C84.0948 55.0405 82.5744 55.6559 82.1762 55.8007C81.1988 56.1989 78.6287 60.398 77.8685 60.7962C77.2169 61.122 76.8187 61.3754 76.5653 61.5564C75.5156 62.208 74.502 63.0405 73.9228 63.0043C73.1626 62.9681 72.5472 63.3301 72.0405 64.4523C71.8957 64.7781 71.9681 64.9591 72.2577 65.0315C72.3663 65.1401 72.511 65.2849 72.7282 65.2849C72.9454 65.5021 73.1988 65.3573 73.416 65.2487C73.9952 64.9229 74.14 64.6695 74.3572 64.5971C74.9364 64.4161 78.3391 63.0767 79.0993 62.4976C80.2577 61.8822 82.5744 59.493 83.0812 59.4568C83.5518 59.4206 84.7101 60.4704 84.3481 62.4976C84.2396 63.1853 83.3708 64.4161 82.9002 65.1401C81.959 66.5519 82.683 67.8188 82.502 68.1084C81.5246 69.7012 80.3301 71.8369 78.3029 73.6469C77.5065 74.1537 75.8776 74.2623 74.9726 74.5157C72.9454 75.0948 70.8097 76.5428 69.2893 77.4116C68.7825 77.7012 68.3119 77.0858 67.6604 77.0134C67.045 76.941 66.9726 77.9184 66.6468 78.7871C66.5382 79.0405 66.502 79.1853 66.0314 80.2713C65.8504 80.7057 65.3436 81.9727 65.8504 82.5157C66.321 83.1672 67.407 81.1401 68.2758 80.1627C68.7101 79.6559 68.9997 79.4749 69.9771 79.2577C70.5925 79.1129 75.5518 77.7736 78.8097 77.0496C78.8821 77.0496 78.9907 77.0134 79.0631 76.9772C83.2984 75.8912 87.6785 70.3528 87.7509 70.389L94.9545 73.9365C95.6785 74.3347 95.6785 75.7102 96.5472 77.3392C97.054 78.3166 97.8142 79.1491 100.891 82.1537C101.289 82.5519 100.964 83.1672 101.145 83.7826C101.326 84.4342 101.651 84.4342 102.231 84.398C102.773 84.3618 103.244 84.2532 103.787 84.217C104.475 84.1808 104.294 84.2532 105.09 84.3618C105.488 84.4342 106.357 84.5428 107.009 83.9274C108.131 82.7329 105.85 83.312 104.764 82.769Z" fill="#0C419A"/>
<path d="M96.9818 79.6559C96.8732 79.4387 96.6198 79.3663 96.4026 79.4749C93.3257 81.0314 89.8868 81.864 86.4117 81.864C82.5384 81.864 78.7374 80.8504 75.4071 78.9319C75.1899 78.8233 74.9365 78.8957 74.7917 79.0767C74.6831 79.2939 74.7555 79.5473 74.9365 79.6921C78.4117 81.683 82.3574 82.7328 86.3755 82.7328C89.9954 82.7328 93.5791 81.864 96.7646 80.235C97.018 80.1265 97.0904 79.8731 96.9818 79.6559Z" fill="#0C419A"/>
<path d="M65.8866 50.8777C65.8142 50.8777 65.778 50.8777 65.7056 50.8415C65.4884 50.733 65.3798 50.4796 65.4884 50.2624C67.4794 45.9185 70.7011 42.3348 74.8278 39.9094C75.045 39.8008 75.2984 39.8732 75.4432 40.0542C75.5518 40.2714 75.4794 40.5248 75.2984 40.6696C71.3165 42.9863 68.2033 46.4253 66.321 50.6244C66.2124 50.8054 66.0676 50.8777 65.8866 50.8777Z" fill="#0C419A"/>
<path d="M103.28 45.2672C103.172 45.2672 103.027 45.231 102.955 45.1224C99.4795 41.1767 94.7012 38.6066 89.5247 37.8826C89.2713 37.8464 89.1265 37.6292 89.1627 37.3758C89.1989 37.1224 89.4161 36.9776 89.6695 37.0138C95.0632 37.774 100.022 40.4527 103.642 44.5432C103.787 44.7242 103.787 45.0138 103.606 45.1586C103.498 45.231 103.389 45.2672 103.28 45.2672Z" fill="#0C419A"/>
</svg>
