<svg width="281" height="121" viewBox="0 0 281 121" fill="none" xmlns="http://www.w3.org/2000/svg">
<rect width="280" height="120" transform="translate(0.253418 0.503906)" fill="white"/>
<path d="M57.0272 58.6203L56.5928 58.2221C56.7738 58.0049 56.9186 57.7515 56.9548 57.4981C56.9548 57.2085 56.8462 57.0637 56.7014 57.0637C56.5204 57.0637 56.448 57.2085 56.3394 57.4981L56.1584 57.8963C56.0136 58.1859 55.7602 58.4755 55.3258 58.4755C54.819 58.4393 54.457 58.0049 54.4932 57.3533C54.4932 56.9913 54.6742 56.6655 54.9276 56.4121L55.3258 56.7741C55.181 56.9551 55.0724 57.1361 55.0724 57.3895C55.0724 57.6067 55.1448 57.7877 55.3258 57.7877C55.5068 57.7877 55.5792 57.6067 55.6878 57.3533L55.8688 56.9913C56.0498 56.6293 56.3032 56.4121 56.7014 56.4483C57.2081 56.4845 57.6063 56.9189 57.5701 57.6429C57.4977 57.8963 57.3167 58.3307 57.0272 58.6203Z" fill="#0C419A"/>
<path d="M54.2397 54.3122L53.7329 53.4435L54.2035 53.1539L54.6379 54.0589L54.2397 54.3122ZM54.6017 55L54.8913 53.1177L55.4705 53.1901L55.2895 54.3846L55.9049 54.457L56.0497 53.4435L56.6288 53.5159L56.484 54.5294L57.1718 54.638L57.3528 53.4073L57.932 53.4797L57.6424 55.3982L54.6017 55Z" fill="#0C419A"/>
<path d="M56.5202 52.3577C55.5428 52.1043 55.1446 51.3442 55.3256 50.584C55.4342 50.222 55.6876 49.9324 55.941 49.7876L56.2668 50.2582C56.0858 50.3668 55.941 50.5116 55.9048 50.7288C55.7962 51.127 56.0858 51.5252 56.665 51.6699C57.2804 51.8147 57.6786 51.6337 57.7872 51.1994C57.8596 50.946 57.7872 50.7288 57.6424 50.5478L58.1492 50.2944C58.3663 50.6202 58.4387 50.9822 58.3302 51.3442C58.1854 52.1405 57.4976 52.6111 56.5202 52.3577Z" fill="#0C419A"/>
<path d="M57.4613 49.2084L55.9409 48.6292L56.1943 47.9776L57.7871 48.593C58.3301 48.8102 58.5835 48.7016 58.7283 48.3758C58.8368 48.05 58.7283 47.7966 58.1853 47.5794L56.5925 46.964L56.8097 46.3486L58.3301 46.9278C59.2712 47.2898 59.5246 47.8328 59.2712 48.5568C58.9816 49.317 58.4025 49.5342 57.4613 49.2084Z" fill="#0C419A"/>
<path d="M57.4253 44.9369L57.9321 43.9595C58.2217 43.3803 58.6561 43.0183 59.3076 43.3441C59.923 43.6699 59.9592 44.2491 59.6334 44.8283L59.4524 45.1903L60.4298 45.697L60.104 46.3124L57.4253 44.9369ZM59.1266 44.6473C59.3076 44.3215 59.2352 44.1043 58.9819 43.9595C58.7285 43.8147 58.5475 43.9595 58.3665 44.2491L58.2217 44.5749L58.9457 44.9731L59.1266 44.6473ZM59.4162 44.9007L59.2352 44.2853L61.19 44.2129L60.828 44.9007H59.4162Z" fill="#0C419A"/>
<path d="M59.1626 41.6788L59.5246 41.0996L62.0585 42.7286L61.6965 43.3078L59.1626 41.6788Z" fill="#0C419A"/>
<path d="M61.0814 39.8691L60.5746 40.5206L60.104 40.1587L61.5158 38.3125L61.9864 38.6745L61.4796 39.3261L63.4343 40.8102L63.0361 41.3532L61.0814 39.8691Z" fill="#0C419A"/>
<path d="M62.2759 37.4075L63.579 36.032L64.0134 36.4302L63.1809 37.2989L63.6152 37.6971L64.303 36.937L64.7374 37.3351L64.0496 38.0953L64.5564 38.5659L65.4252 37.6609L65.8596 38.0591L64.5564 39.4709L62.2759 37.4075ZM62.3483 36.6474L62.4207 35.6338L62.9999 35.67L62.8189 36.6474H62.3483Z" fill="#0C419A"/>
<path d="M67.3437 36.0679L67.3799 35.4525C67.6695 35.4525 67.9591 35.4163 68.1401 35.2353C68.3573 35.0543 68.3935 34.8733 68.2849 34.7285C68.1763 34.5837 67.9953 34.6199 67.7057 34.7285L67.3075 34.8371C66.9817 34.9457 66.5835 34.9095 66.3302 34.5475C66.0406 34.1493 66.1492 33.5701 66.6197 33.1719C66.9093 32.9547 67.2713 32.8461 67.6333 32.8823V33.4253C67.3799 33.4253 67.1989 33.4615 66.9817 33.6063C66.8007 33.7511 66.7283 33.9321 66.8369 34.0407C66.9455 34.1855 67.1627 34.1131 67.4161 34.0407L67.8143 33.9321C68.2125 33.8235 68.5383 33.8597 68.7917 34.2217C69.0813 34.6199 69.0451 35.1991 68.4659 35.6697C68.1763 35.9593 67.7419 36.1041 67.3437 36.0679Z" fill="#0C419A"/>
<path d="M69.1898 33.172C68.683 32.3394 68.864 31.543 69.5517 31.1448C70.2395 30.7104 70.9997 30.9276 71.5065 31.7602C72.0133 32.5928 71.8323 33.3892 71.1445 33.8236C70.4929 34.2217 69.6965 34.0046 69.1898 33.172ZM70.9635 32.1222C70.6377 31.6154 70.2395 31.4344 69.8775 31.6516C69.5155 31.8688 69.4793 32.3032 69.8051 32.81C70.1309 33.3168 70.5291 33.534 70.8911 33.3168C71.2169 33.0996 71.2531 32.629 70.9635 32.1222Z" fill="#0C419A"/>
<path d="M72.4118 31.2896C71.9774 30.3846 72.3394 29.5882 73.0272 29.2624C73.3892 29.0814 73.7511 29.1176 74.0045 29.2262L73.8597 29.7692C73.6787 29.6968 73.4616 29.6968 73.2806 29.7692C72.9186 29.9502 72.7738 30.4208 73.0272 30.9638C73.2806 31.543 73.7149 31.724 74.1131 31.543C74.3303 31.4344 74.4751 31.2534 74.5113 31.0362L75.0181 31.2896C74.9095 31.6516 74.6923 31.9412 74.3303 32.086C73.6425 32.4118 72.8462 32.1946 72.4118 31.2896Z" fill="#0C419A"/>
<path d="M75.0903 28.4662L75.7419 28.249L76.7917 31.0726L76.1401 31.2897L75.0903 28.4662Z" fill="#0C419A"/>
<path d="M77.8053 27.5614L78.6017 27.3442L80.303 30.023L79.6153 30.204L78.8551 28.8284C78.7103 28.575 78.5293 28.2492 78.3845 27.9596C78.3845 28.2854 78.4207 28.6474 78.4207 28.9732V30.566L77.7329 30.747L77.8053 27.5614ZM77.9501 29.3352L79.3619 28.9732L79.5067 29.48L78.0949 29.842L77.9501 29.3352Z" fill="#0C419A"/>
<path d="M80.6289 26.8732L81.3167 26.7646L81.6787 29.19L82.8371 29.009L82.9095 29.5882L81.0633 29.8778L80.6289 26.8732Z" fill="#0C419A"/>
<path d="M83.561 26.4753L85.4434 26.3667L85.4796 26.9459L84.285 27.0183L84.3212 27.6337L85.3348 27.5613L85.371 28.1405L84.3574 28.2129L84.3936 28.9006L85.6606 28.8282L85.6968 29.4074L83.7782 29.516L83.561 26.4753Z" fill="#0C419A"/>
<path d="M153.86 71.3986V56.9189H157.661V71.5434C157.661 72.376 158.023 72.6294 158.349 72.6294C158.493 72.6294 158.602 72.6294 158.819 72.5932L159.29 75.4529C158.855 75.6339 158.24 75.7787 157.371 75.7787C154.765 75.8149 153.86 74.0411 153.86 71.3986Z" fill="#0C419A"/>
<path d="M129.462 66.7652C129.787 65.7154 133.19 58.2222 133.19 58.2222H137.208V75.4891H133.588V64.8104L130.584 72.557H128.267L125.262 64.8104V75.4891H121.643V58.2222H125.661C125.661 58.2222 129.027 65.7154 129.389 66.7652H129.462Z" fill="#0C419A"/>
<path d="M160.846 71.8329C160.846 69.0818 163.163 67.5252 168.267 66.9822C168.195 65.8239 167.471 65.1361 166.059 65.1361C164.973 65.1361 163.887 65.6067 162.656 66.3306L161.317 63.7605C162.946 62.7469 164.792 62.0229 166.819 62.0229C170.113 62.0229 171.923 63.9415 171.923 67.9596V75.4528H168.303V74.1858C168.303 74.1858 166.819 75.7786 164.719 75.7786C162.33 75.8148 160.846 74.041 160.846 71.8329ZM168.267 71.6157V69.3352C165.552 69.6972 164.502 70.5659 164.502 71.5433C164.502 72.3759 165.081 72.8103 165.986 72.8103C166.819 72.7741 167.579 72.3035 168.267 71.6157Z" fill="#0C419A"/>
<path d="M139.851 71.8329C139.851 69.0818 142.167 67.5252 147.271 66.9822C147.199 65.8239 146.475 65.1361 145.063 65.1361C143.977 65.1361 142.891 65.6067 141.661 66.3306L140.321 63.7605C141.95 62.7469 143.796 62.0229 145.823 62.0229C149.118 62.0229 150.928 63.9415 150.928 67.9596V75.4528H147.308V74.1858C147.308 74.1858 145.823 75.7786 143.724 75.7786C141.335 75.8148 139.851 74.041 139.851 71.8329ZM147.271 71.6157V69.3352C144.556 69.6972 143.507 70.5659 143.507 71.5433C143.507 72.3759 144.086 72.8103 144.991 72.8103C145.823 72.7741 146.584 72.3035 147.271 71.6157Z" fill="#0C419A"/>
<path d="M182.674 56.9189V63.29C181.805 62.4574 180.937 62.023 179.525 62.023C176.81 62.023 174.204 64.6294 174.204 68.9008C174.204 73.2085 176.267 75.7787 179.452 75.7787C181.19 75.7787 182.566 74.4755 182.674 74.3669V75.4891H186.475V56.9189H182.674ZM180.43 72.6294C178.946 72.6294 178.077 71.471 178.077 68.9008C178.077 66.4031 179.163 65.2447 180.394 65.2447C181.081 65.2447 181.842 65.4619 182.674 66.0773V71.471C181.914 72.3036 181.262 72.6294 180.43 72.6294Z" fill="#0C419A"/>
<path d="M189.407 58.4031C189.407 57.2086 190.348 56.376 191.615 56.376C192.882 56.376 193.824 57.2086 193.824 58.4031C193.824 59.5977 192.882 60.4303 191.615 60.4303C190.348 60.4303 189.407 59.5615 189.407 58.4031ZM189.697 62.3488H193.498V75.4891H189.697V62.3488Z" fill="#0C419A"/>
<path d="M195.887 68.9008C195.887 64.6293 198.565 62.0229 201.787 62.0229C205.443 62.0229 207.47 64.7379 207.47 68.3216C207.47 69.0094 207.398 69.7334 207.326 70.0591H199.615C199.941 71.9777 201.244 72.8465 202.946 72.8465C203.923 72.8465 204.755 72.4483 205.697 71.9053L207 74.3306C205.697 75.2718 203.959 75.8148 202.439 75.8148C198.638 75.8148 195.887 73.2809 195.887 68.9008ZM204.213 67.489C204.213 66.041 203.38 64.9913 201.86 64.9913C200.665 64.9913 199.832 65.8239 199.579 67.489H204.213Z" fill="#0C419A"/>
<path d="M121.643 49.6789V35.1992H125.443V49.8237C125.443 50.6562 125.805 50.9096 126.131 50.9096C126.276 50.9096 126.385 50.9096 126.602 50.8734L127.072 53.7332C126.638 53.9142 126.023 54.059 125.154 54.059C122.511 54.059 121.643 52.3214 121.643 49.6789Z" fill="#0C419A"/>
<path d="M141.842 49.6427L142.891 53.7694H146.837L141.516 36.5024H137.136L131.814 53.7694H135.76L136.81 49.6427H141.842ZM137.606 46.602L139.271 40.05H139.416L141.081 46.602H137.606Z" fill="#0C419A"/>
<path d="M147.597 52.2489L149.299 49.8236C150.457 50.7286 151.543 51.1992 152.629 51.1992C153.751 51.1992 154.258 50.7648 154.258 50.077C154.258 49.2082 152.991 48.81 151.651 48.3032C150.059 47.6878 148.249 46.6019 148.249 44.4299C148.249 41.9684 150.204 40.3032 153.172 40.3032C155.127 40.3032 156.611 41.0996 157.697 41.9684L155.995 44.3213C155.09 43.6335 154.185 43.1992 153.28 43.1992C152.303 43.1992 151.796 43.5973 151.796 44.2489C151.796 45.0815 152.991 45.4073 154.33 45.9141C155.959 46.5295 157.805 47.4706 157.805 49.8598C157.805 52.2489 155.959 54.0951 152.52 54.0951C150.855 54.0589 148.9 53.3349 147.597 52.2489Z" fill="#0C419A"/>
<path d="M159 52.2489L160.701 49.8236C161.86 50.7286 162.946 51.1992 164.032 51.1992C165.154 51.1992 165.661 50.7648 165.661 50.077C165.661 49.2082 164.394 48.81 163.054 48.3032C161.462 47.6878 159.652 46.6019 159.652 44.4299C159.652 41.9684 161.606 40.3032 164.575 40.3032C166.529 40.3032 168.014 41.0996 169.1 41.9684L167.398 44.3213C166.493 43.6335 165.588 43.1992 164.683 43.1992C163.706 43.1992 163.199 43.5973 163.199 44.2489C163.199 45.0815 164.394 45.4073 165.733 45.9141C167.362 46.5295 169.208 47.4706 169.208 49.8598C169.208 52.2489 167.362 54.0951 163.923 54.0951C162.258 54.0589 160.303 53.3349 159 52.2489Z" fill="#0C419A"/>
<path d="M185.968 40.629H189.769V42.5114C190.493 41.0634 192.267 40.5566 193.172 40.5566C193.896 40.5566 194.33 40.6652 194.692 40.81L194.294 44.3575C193.787 44.2127 193.208 43.9594 192.665 43.9594C191.181 43.9956 189.878 45.2625 189.769 46.9277V53.7693H185.968V40.629Z" fill="#0C419A"/>
<path d="M209.425 40.6295H213.226V42.2947C214.312 41.2449 215.398 40.3037 217.172 40.3037C219.959 40.3037 221.154 42.3309 221.154 45.5888V53.7336H217.353V46.0594C217.353 44.177 216.846 43.5616 215.76 43.5616C214.819 43.5616 214.095 44.0322 213.262 44.8286V53.6974H209.461V40.6295H209.425Z" fill="#0C419A"/>
<path d="M234.331 47.1811C234.331 42.9096 237.009 40.3032 240.231 40.3032C243.887 40.3032 245.914 43.0182 245.914 46.6019C245.914 47.2896 245.842 48.0136 245.769 48.3394H238.059C238.385 50.258 239.688 51.1268 241.389 51.1268C242.367 51.1268 243.199 50.7286 244.141 50.1856L245.444 52.6109C244.141 53.5521 242.403 54.0951 240.883 54.0951C237.118 54.0589 234.331 51.5249 234.331 47.1811ZM242.693 45.7693C242.693 44.3213 241.86 43.2716 240.34 43.2716C239.145 43.2716 238.312 44.1041 238.059 45.7693H242.693Z" fill="#0C419A"/>
<path d="M195.525 50.1132C195.525 47.362 197.842 45.8055 202.946 45.2625C202.873 44.1041 202.149 43.4163 200.738 43.4163C199.652 43.4163 198.566 43.8869 197.335 44.6109L195.995 42.0408C197.624 41.0272 199.471 40.3032 201.498 40.3032C204.792 40.3032 206.602 42.2218 206.602 46.2399V53.7331H202.982V52.4661C202.982 52.4661 201.498 54.0589 199.398 54.0589C197.009 54.0589 195.525 52.3213 195.525 50.1132ZM202.946 49.896V47.6154C200.231 47.9774 199.181 48.8462 199.181 49.8236C199.181 50.6562 199.76 51.0906 200.665 51.0906C201.534 51.0544 202.294 50.5838 202.946 49.896Z" fill="#0C419A"/>
<path d="M130.439 35.127C129.643 35.127 128.557 35.7423 128.557 36.8283C128.557 37.8057 129.317 38.3849 130.113 38.3849C130.149 38.3849 130.186 38.3849 130.222 38.3849C130.186 39.5432 129.136 40.1948 128.629 40.4844L129.643 41.8962C132.973 40.8464 133.661 35.1632 130.439 35.127Z" fill="#0C419A"/>
<path d="M179.018 40.6294V49.3172C178.258 50.367 177.679 50.7651 176.737 50.7651C175.651 50.7651 175.145 50.186 175.145 48.2674V40.6294H171.344V48.919C171.344 52.0321 172.683 54.0955 175.398 54.0955C177.86 54.0955 179.09 52.4303 179.09 52.4303V53.7697H182.855V40.6294H179.018Z" fill="#0C419A"/>
<path d="M229.987 50.9462C228.321 50.9462 227.091 49.462 227.091 47.2177C227.091 44.9371 228.285 43.453 230.095 43.453C230.674 43.453 231.181 43.6702 231.76 44.177L233.57 41.6792C232.629 40.8828 231.434 40.3398 229.878 40.3398C226.33 40.3398 223.217 42.8738 223.217 47.2177C223.217 51.5616 225.932 54.0955 229.516 54.0955C230.928 54.0955 232.52 53.6611 233.751 52.5389L232.376 49.8964C231.652 50.5118 230.855 50.9462 229.987 50.9462Z" fill="#0C419A"/>
<path d="M88.4838 35.3079C88.4114 35.1631 88.158 35.0545 87.9771 35.0183C87.7599 34.9821 87.6513 34.9821 87.6513 34.9821C87.3979 34.9097 82.3662 34.9821 81.1716 35.7785C81.063 34.9821 80.7734 34.0047 79.3979 33.7151C78.4205 33.4979 76.3209 34.4391 77.0087 36.5386C77.1173 36.9006 77.3707 37.154 77.7327 37.335C77.9137 37.4436 78.2033 37.3712 78.4205 37.9504C78.4929 38.0952 78.6015 38.0952 78.7101 38.059C78.7825 38.0228 78.8187 38.059 78.9273 38.1314C79.0359 38.2038 79.1083 38.1676 79.1083 38.1676C79.1083 38.1676 79.1445 38.2038 79.2169 38.2038C79.2531 38.2038 79.3979 38.1676 79.3979 38.2038C79.7961 38.5296 80.2666 38.0228 80.4476 37.697C80.6286 38.24 81.0992 39.6518 81.0992 39.6518C80.9544 39.507 79.3617 39.0726 78.6015 39.9052C77.9499 40.6291 77.4431 41.6427 76.9001 43.3441C76.7553 43.8147 76.4657 44.0319 75.9228 44.2491C75.054 44.5748 75.5608 44.973 75.778 45.0092C76.3209 45.1178 77.5517 45.0454 77.8051 44.9368C78.1309 44.792 77.8775 44.0319 78.2395 43.5613C78.5653 43.1631 78.8187 42.8011 79.0359 42.5477C79.0359 43.0907 79.0359 43.3803 78.7463 44.0681C78.4929 44.7196 77.6965 45.0454 77.4431 45.335C77.0087 45.878 77.9861 45.9142 78.2395 45.8418C78.8911 45.6246 79.3255 45.6246 79.5789 45.4798C79.9409 45.2626 79.6875 44.6834 79.7961 44.4662C80.1219 43.8147 81.244 42.4029 81.3888 42.1857C81.425 42.1495 81.425 42.1133 81.425 42.0771C82.2214 42.3305 83.1264 42.4029 83.4522 42.3667C85.2983 42.1495 85.6965 40.8463 85.5155 39.7966C85.3345 38.8554 84.7553 38.2762 84.5743 37.9866C84.1038 37.2264 83.8142 36.8282 83.6332 36.611C84.1761 36.4662 87.1083 35.6699 87.1083 35.7061C87.2169 35.9595 87.4703 35.9957 87.5427 36.0681C87.7237 36.1767 87.8323 35.9957 87.7599 35.9595C87.6151 35.8509 87.5789 35.7785 87.5789 35.7785C87.8323 35.7785 88.0494 35.8147 88.2304 35.8147C88.52 35.8509 88.6286 35.4165 88.4838 35.3079Z" fill="#0C419A"/>
<path fill-rule="evenodd" clip-rule="evenodd" d="M114.656 53.0454C114.185 50.5114 111.832 48.9549 110.601 48.4119C109.769 48.0499 109.407 47.9775 109.262 47.9413C109.081 47.8689 108.936 47.8327 108.864 47.7965C108.936 47.2535 109.588 47.2173 109.986 46.4209C111.072 44.1766 108.828 42.62 107.199 42.982C106.402 43.163 105.896 43.4164 105.751 44.0318C105.678 44.3576 105.425 44.3576 105.027 44.792C104.882 44.9368 105.172 45.154 105.244 45.2626C105.244 45.2988 105.172 45.4074 105.135 45.5521C105.099 45.6969 105.135 45.6607 105.135 45.6969C105.135 45.6969 105.063 45.8417 105.063 46.0227C105.063 46.0227 104.882 46.3847 105.063 46.7829C105.099 46.8915 105.316 47.1087 105.389 47.6155C105.389 47.6879 105.389 47.7241 105.099 47.6155C105.027 47.5793 102.022 46.7105 101.696 46.4933C101.334 46.2399 98.3661 43.0182 98.0403 42.4028C97.8594 42.0408 97.6784 41.8236 97.5698 41.8236C96.882 41.8598 98.0765 43.1268 97.3888 42.6924C97.2078 42.5838 96.701 42.2218 96.6648 42.1856C96.52 42.077 96.5562 42.1132 96.4838 41.9684C96.4114 41.8236 96.339 41.715 96.2666 41.6788C96.1942 41.6426 96.158 41.6064 96.0856 41.6064C95.977 41.6426 96.0132 41.715 95.977 41.715C95.977 41.715 95.9046 41.715 95.8684 41.715C95.6874 41.7512 95.8322 42.1856 95.8684 42.4028C95.8684 42.439 96.339 43.5612 96.4838 43.7422C97.244 44.249 97.9679 44.7196 98.0041 44.7196C98.8367 45.6607 99.7779 46.8553 100.647 47.7603C101.334 48.4843 104.448 50.2942 104.52 50.3304C104.737 50.439 105.063 51.1268 104.592 55.8689C104.411 57.6426 103.144 61.4436 103.76 63.3983C104.158 64.6653 104.592 65.534 105.063 69.0092C105.172 69.7693 104.556 70.2761 103.687 70.8915C103.362 71.1449 102.384 71.7241 102.312 71.7965C102.167 71.9413 102.312 72.1585 102.493 72.2671C102.71 72.3395 103.072 72.5567 103.289 72.5929C103.651 72.6653 104.194 72.6291 104.773 72.3033C105.389 71.9413 105.461 71.9051 105.823 71.6517C106.258 71.3983 106.764 71.3259 106.909 70.8915C107.09 70.3123 106.583 69.4798 106.656 69.1178C107.018 66.4028 107.488 65.0635 106.801 63.3983C106.656 63.0725 107.778 59.4526 107.887 59.9232C108.067 60.8644 108.14 63.7241 108.176 65.8236C108.176 66.7648 108.936 70.0227 109.19 71.2173C109.552 73.0273 106.511 74.4752 107.163 75.0182C107.307 75.1268 107.706 75.3078 108.067 75.3802C108.502 75.4526 108.828 75.3802 109.19 75.2354C109.407 75.163 109.733 74.7648 109.805 74.6924C110.457 73.896 110.239 74.1132 110.782 73.534C111.217 73.0273 110.891 72.1585 110.855 71.7241C110.746 70.8191 110.855 70.5657 110.819 68.9006C110.819 66.982 110.927 66.439 111.036 65.715C111.506 62.5295 111.796 60.792 111.977 59.4526V59.3802C111.977 59.3802 112.194 59.4526 112.303 59.3078C112.484 59.0182 112.448 58.7648 112.484 58.5838C112.52 58.4028 112.592 58.62 112.592 58.62C112.592 58.62 112.737 59.0544 112.737 59.1992C112.737 59.4164 112.592 59.6698 112.484 59.9956C112.375 60.3576 112.665 60.3938 112.737 60.43C112.81 60.4662 113.751 59.7784 113.896 59.525C114.04 59.2354 114.004 58.8734 114.04 58.6924C114.077 58.2218 113.787 56.8825 113.787 56.8825C114.004 55.9775 114.801 53.6969 114.656 53.0454ZM112.484 56.7015C112.375 57.1359 112.339 56.7377 111.941 58.4028L111.977 58.1494C111.977 57.9322 111.977 57.6788 111.977 57.4255C111.977 55.3621 110.384 50.9458 111.362 51.8508C111.362 51.8508 112.52 52.6472 112.737 53.2626C112.918 53.8055 112.882 55.1087 112.484 56.7015Z" fill="#0C419A"/>
<path d="M73.787 61.6608C73.4251 61.335 72.1581 59.6336 71.3617 58.9458C70.8187 58.3666 70.6739 58.077 70.2395 57.4617C68.7554 55.5069 68.4296 55.3621 67.416 55.2173C67.1988 55.0725 67.2712 54.9277 67.3074 54.8915C68.6468 54.3847 68.2124 53.2264 68.1762 53.1902C68.1038 52.9368 68.2848 52.8282 68.2848 52.5748C68.2848 52.1766 68.2124 51.887 68.1038 51.5974C68.14 51.4164 68.1762 51.163 67.9952 50.9096C67.2712 50.0046 65.4613 49.9684 64.5201 50.5838C63.7599 51.0906 64.1943 51.4526 63.9771 52.2128C63.8323 52.6472 63.9771 53.0454 64.2667 53.3712C64.3029 53.6245 65.0631 54.0951 64.9183 54.6019C64.7735 55.1449 63.9047 55.2535 63.9047 55.2535C63.7961 55.2897 63.7237 55.3259 63.6513 55.3621C62.2757 56.1585 60.9364 57.3169 60.7554 58.5476C60.8278 59.5612 62.4205 61.0454 63.4341 61.8417C63.5789 63.5793 64.6649 66.2218 64.7373 66.3304C64.8821 66.6562 64.4115 66.077 63.3255 65.715C62.7825 65.5341 62.0947 64.8101 61.9137 65.6788C61.8413 66.0408 61.9861 66.6562 61.6603 67.4526C61.407 68.0318 61.6965 68.973 62.3481 68.973C62.8187 68.973 63.1083 67.525 63.1083 67.525C63.1083 67.525 65.3889 68.6472 66.4748 68.2852C67.1264 68.068 67.2712 65.5341 66.6196 63.2535C66.4024 62.4571 67.0178 64.5567 68.5382 66.3666C68.864 66.7648 68.5744 67.0906 68.7916 68.611C68.864 69.1902 68.864 69.335 68.864 69.5884C68.8278 70.3123 68.14 71.1811 69.7327 71.5793C71.3617 72.0137 71.2169 72.3757 72.2305 71.6879C72.7011 71.3983 70.8187 71.1811 70.4567 70.0951C70.4567 70.0589 70.4205 69.9141 70.4205 69.8417C70.3843 68.973 70.7825 66.982 70.6377 66.258C70.0585 62.8191 68.6106 61.2264 68.4296 60.43C68.4296 58.0408 68.2486 57.2807 68.4658 57.8236C68.502 57.9322 69.0088 58.7648 69.5156 59.4164C69.5518 59.4888 69.6241 59.5612 69.6965 59.6336C69.8413 59.8146 69.9861 59.9594 70.1309 60.0318C71.1445 60.9006 72.7373 61.9503 72.9545 62.1675C72.9545 62.1675 73.0631 63.2173 73.4975 63.1449C73.8956 63.0725 75.8142 62.2399 75.778 62.0227C75.7056 61.7331 73.8232 61.7331 73.787 61.6608ZM63.3617 60.3576C63.0721 59.8146 62.2757 58.7648 62.3481 58.5838C62.7825 57.8598 63.2531 57.6427 63.3979 57.6788C63.5065 57.715 63.3617 60.3576 63.3617 60.3576Z" fill="#0C419A"/>
<path d="M105.497 81.1357C105.425 81.0995 104.303 80.6652 103.289 79.0724C102.855 78.3484 99.4883 72.1584 99.0539 70.9638C98.1489 68.5747 91.0901 64.267 90.8005 64.0136C90.5833 63.8326 90.6195 63.4344 90.6919 63.1448C91.2711 61.1176 91.0539 59.3439 91.1625 59.0543C91.4521 58.3665 91.8865 57.3891 91.5607 56.7376L90.8367 55.5792C90.8367 55.5792 94.5652 56.9186 95.434 56.7376C96.1942 56.5928 99.9227 53.9864 100.14 53.8778C100.647 53.6244 101.914 53.9864 103.181 52.6109C103.651 52.1041 103.325 51.9231 103.217 51.9955C103.253 51.9593 103 51.7421 102.782 51.8869C102.493 52.0679 101.443 52.3575 101.624 52.2127C102.384 51.6335 101.841 51.4887 101.841 51.4887C101.515 51.7783 100.031 52.1403 99.7055 52.3937C99.3797 52.6833 99.1263 52.9004 98.9815 53.009C98.0765 53.5158 96.52 54.276 94.9634 54.638C94.6376 54.7104 91.6693 52.7557 89.9317 52.5023C88.9906 52.3575 88.6648 52.4299 88.158 52.5747C87.5426 52.7557 87.5788 51.8507 88.0494 51.6335C88.3028 51.5249 88.701 51.4525 88.8458 51.1629C89.0268 50.8009 88.8096 50.4751 88.8096 50.4027C88.8096 50.3665 88.8458 50.3303 88.7734 50.1855C88.7372 50.0769 88.7372 50.1493 88.7372 50.0407C88.7372 49.9683 88.701 49.8959 88.6648 49.8235C88.6648 49.7873 88.6648 49.6425 88.701 49.6063C89.063 49.3167 88.9182 49.1719 88.8458 49.1357C88.7372 49.0271 88.1942 48.81 88.158 48.448C88.0856 47.8688 87.8684 47.5792 87.796 47.2896C87.7598 47.181 87.6874 46.4932 87.3978 46.2398C87.0358 45.914 86.2756 45.5158 84.6105 45.9502C84.0675 46.095 84.1761 46.3484 82.8729 46.6018C81.2802 46.8914 80.4114 49.2443 80.5562 50.2217C80.6648 51.0181 81.3526 50.6199 81.3164 50.9819C81.2802 51.5249 81.2078 52.4299 82.3661 52.7557C82.6195 52.8281 84.1399 52.5747 84.7191 52.6833C84.7191 52.6833 85.1897 52.7195 84.9363 53.19C84.8277 53.4072 83.3073 54.0226 82.9091 54.1674C81.9317 54.5656 79.3616 58.7647 78.6014 59.1629C77.9498 59.4887 77.5516 59.7421 77.2983 59.9231C76.2485 60.5747 75.2349 61.4072 74.6557 61.371C73.8955 61.3348 73.2802 61.6968 72.7734 62.819C72.6286 63.1448 72.701 63.3258 72.9906 63.3982C73.0992 63.5068 73.244 63.6516 73.4611 63.6516C73.6783 63.8688 73.9317 63.724 74.1489 63.6154C74.7281 63.2896 74.8729 63.0362 75.0901 62.9638C75.6693 62.7828 79.072 61.4434 79.8322 60.8643C80.9906 60.2489 83.3073 57.8597 83.8141 57.8235C84.2847 57.7873 85.4431 58.8371 85.0811 60.8643C84.9725 61.552 84.1037 62.7828 83.6331 63.5068C82.6919 64.9186 83.4159 66.1855 83.2349 66.4751C82.2575 68.0679 81.063 70.2036 79.0358 72.0136C78.2394 72.5204 76.6105 72.629 75.7055 72.8824C73.6783 73.4615 71.5426 74.9095 70.0222 75.7783C69.5154 76.0679 69.0449 75.4525 68.3933 75.3801C67.7779 75.3077 67.7055 76.2851 67.3797 77.1538C67.2711 77.4072 67.2349 77.552 66.7643 78.638C66.5833 79.0724 66.0765 80.3394 66.5833 80.8824C67.0539 81.5339 68.1399 79.5068 69.0087 78.5294C69.4431 78.0226 69.7326 77.8416 70.71 77.6244C71.3254 77.4796 76.2847 76.1403 79.5426 75.4163C79.615 75.4163 79.7236 75.3801 79.796 75.3439C84.0313 74.2579 88.4114 68.7195 88.4838 68.7557L95.6874 72.3032C96.4114 72.7014 96.4114 74.0769 97.2802 75.7059C97.7869 76.6833 98.5471 77.5158 101.624 80.5204C102.022 80.9186 101.696 81.5339 101.877 82.1493C102.058 82.8009 102.384 82.8009 102.963 82.7647C103.506 82.7285 103.977 82.6199 104.52 82.5837C105.208 82.5475 105.027 82.6199 105.823 82.7285C106.221 82.8009 107.09 82.9095 107.742 82.2941C108.864 81.0996 106.583 81.6787 105.497 81.1357Z" fill="#0C419A"/>
<path d="M97.7147 78.0226C97.6061 77.8054 97.3527 77.733 97.1355 77.8416C94.0586 79.3981 90.6197 80.2307 87.1446 80.2307C83.2713 80.2307 79.4704 79.2171 76.14 77.2986C75.9228 77.19 75.6695 77.2624 75.5247 77.4434C75.4161 77.6606 75.4885 77.914 75.6695 78.0588C79.1446 80.0497 83.0903 81.0995 87.1084 81.0995C90.7283 81.0995 94.312 80.2307 97.4975 78.6017C97.7509 78.4931 97.8233 78.2398 97.7147 78.0226Z" fill="#0C419A"/>
<path d="M66.6195 49.2444C66.5471 49.2444 66.5109 49.2444 66.4385 49.2082C66.2213 49.0997 66.1127 48.8463 66.2213 48.6291C68.2123 44.2852 71.434 40.7015 75.5607 38.2761C75.7779 38.1675 76.0313 38.2399 76.1761 38.4209C76.2847 38.6381 76.2123 38.8915 76.0313 39.0363C72.0494 41.353 68.9362 44.792 67.0539 48.9911C66.9453 49.1721 66.8005 49.2444 66.6195 49.2444Z" fill="#0C419A"/>
<path d="M104.013 43.6339C103.905 43.6339 103.76 43.5977 103.688 43.4891C100.212 39.5434 95.4341 36.9733 90.2576 36.2493C90.0042 36.2131 89.8594 35.9959 89.8956 35.7425C89.9318 35.4891 90.149 35.3443 90.4024 35.3805C95.7961 36.1407 100.755 38.8194 104.375 42.9099C104.52 43.0909 104.52 43.3805 104.339 43.5253C104.23 43.5977 104.122 43.6339 104.013 43.6339Z" fill="#0C419A"/>
<path d="M121.709 83.9667H124.661C125.565 83.9667 126.273 84.1787 126.785 84.6027C127.297 85.0267 127.553 85.6627 127.553 86.5107C127.553 87.0947 127.429 87.5747 127.181 87.9507C126.933 88.3267 126.577 88.6267 126.113 88.8507L127.997 92.3667H126.401L124.757 89.1867H124.697H123.125V92.3667H121.709V83.9667ZM124.397 87.9987C124.981 87.9987 125.409 87.8747 125.681 87.6267C125.961 87.3707 126.101 87.0187 126.101 86.5707C126.101 85.6267 125.545 85.1547 124.433 85.1547H123.125V87.9987H124.397ZM129.127 83.9667H130.519V92.3667H129.127V83.9667ZM134.821 92.5347C134.341 92.5347 133.837 92.4747 133.309 92.3547C132.781 92.2347 132.361 92.0987 132.049 91.9467L132.217 90.4707C133.257 90.9667 134.197 91.2147 135.037 91.2147C135.509 91.2147 135.877 91.1267 136.141 90.9507C136.405 90.7747 136.537 90.5107 136.537 90.1587C136.537 89.8867 136.465 89.6667 136.321 89.4987C136.185 89.3307 135.981 89.1867 135.709 89.0667C135.437 88.9387 135.033 88.7867 134.497 88.6107C133.977 88.4427 133.545 88.2627 133.201 88.0707C132.857 87.8707 132.581 87.6187 132.373 87.3147C132.173 87.0027 132.073 86.6147 132.073 86.1507C132.073 85.4467 132.333 84.8787 132.853 84.4467C133.381 84.0147 134.133 83.7987 135.109 83.7987C135.589 83.7987 136.061 83.8507 136.525 83.9547C136.989 84.0587 137.401 84.1907 137.761 84.3507L137.617 85.7907C137.137 85.5587 136.689 85.3867 136.273 85.2747C135.865 85.1627 135.449 85.1067 135.025 85.1067C134.545 85.1067 134.173 85.1907 133.909 85.3587C133.645 85.5187 133.513 85.7667 133.513 86.1027C133.513 86.3427 133.577 86.5427 133.705 86.7027C133.841 86.8547 134.025 86.9827 134.257 87.0867C134.497 87.1907 134.841 87.3147 135.289 87.4587C136.249 87.7547 136.953 88.1027 137.401 88.5027C137.857 88.8947 138.085 89.4347 138.085 90.1227C138.085 90.8027 137.837 91.3747 137.341 91.8387C136.845 92.3027 136.005 92.5347 134.821 92.5347ZM147.158 88.1667C147.158 89.2787 146.878 90.2067 146.318 90.9507L147.086 91.6827L146.246 92.5707L145.454 91.8027C144.75 92.2907 143.938 92.5347 143.018 92.5347C142.218 92.5347 141.506 92.3547 140.882 91.9947C140.258 91.6347 139.766 91.1267 139.406 90.4707C139.054 89.8067 138.878 89.0387 138.878 88.1667C138.878 87.2947 139.054 86.5307 139.406 85.8747C139.766 85.2107 140.258 84.6987 140.882 84.3387C141.506 83.9787 142.218 83.7987 143.018 83.7987C143.818 83.7987 144.53 83.9787 145.154 84.3387C145.778 84.6987 146.266 85.2107 146.618 85.8747C146.978 86.5307 147.158 87.2947 147.158 88.1667ZM143.018 91.1907C143.554 91.1907 144.026 91.0707 144.434 90.8307L143.426 89.8587L144.254 88.9707L145.274 89.9427C145.546 89.4547 145.682 88.8627 145.682 88.1667C145.682 87.2707 145.45 86.5427 144.986 85.9827C144.53 85.4227 143.874 85.1427 143.018 85.1427C142.162 85.1427 141.502 85.4227 141.038 85.9827C140.574 86.5427 140.342 87.2707 140.342 88.1667C140.342 89.0627 140.574 89.7907 141.038 90.3507C141.502 90.9107 142.162 91.1907 143.018 91.1907ZM151.918 92.5347C150.766 92.5347 149.898 92.2027 149.314 91.5387C148.73 90.8747 148.438 89.9547 148.438 88.7787V83.9667H149.83V88.4187C149.83 89.3147 149.974 90.0067 150.262 90.4947C150.558 90.9747 151.11 91.2147 151.918 91.2147C152.726 91.2147 153.274 90.9747 153.562 90.4947C153.858 90.0067 154.006 89.3147 154.006 88.4187V83.9667H155.398V88.7787C155.398 89.9547 155.106 90.8747 154.522 91.5387C153.938 92.2027 153.07 92.5347 151.918 92.5347ZM157.17 83.9667H162.45V85.2867H158.586V87.3267H161.622V88.6467H158.586V91.0467H162.57V92.3667H157.17V83.9667ZM166.356 92.5347C165.876 92.5347 165.372 92.4747 164.844 92.3547C164.316 92.2347 163.896 92.0987 163.584 91.9467L163.752 90.4707C164.792 90.9667 165.732 91.2147 166.572 91.2147C167.044 91.2147 167.412 91.1267 167.676 90.9507C167.94 90.7747 168.072 90.5107 168.072 90.1587C168.072 89.8867 168 89.6667 167.856 89.4987C167.72 89.3307 167.516 89.1867 167.244 89.0667C166.972 88.9387 166.568 88.7867 166.032 88.6107C165.512 88.4427 165.08 88.2627 164.736 88.0707C164.392 87.8707 164.116 87.6187 163.908 87.3147C163.708 87.0027 163.608 86.6147 163.608 86.1507C163.608 85.4467 163.868 84.8787 164.388 84.4467C164.916 84.0147 165.668 83.7987 166.644 83.7987C167.124 83.7987 167.596 83.8507 168.06 83.9547C168.524 84.0587 168.936 84.1907 169.296 84.3507L169.152 85.7907C168.672 85.5587 168.224 85.3867 167.808 85.2747C167.4 85.1627 166.984 85.1067 166.56 85.1067C166.08 85.1067 165.708 85.1907 165.444 85.3587C165.18 85.5187 165.048 85.7667 165.048 86.1027C165.048 86.3427 165.112 86.5427 165.24 86.7027C165.376 86.8547 165.56 86.9827 165.792 87.0867C166.032 87.1907 166.376 87.3147 166.824 87.4587C167.784 87.7547 168.488 88.1027 168.936 88.5027C169.392 88.8947 169.62 89.4347 169.62 90.1227C169.62 90.8027 169.372 91.3747 168.876 91.8387C168.38 92.3027 167.54 92.5347 166.356 92.5347ZM173.6 83.9667H176.516C178.468 83.9667 179.444 84.8707 179.444 86.6787C179.444 87.6067 179.192 88.2987 178.688 88.7547C178.184 89.2107 177.464 89.4387 176.528 89.4387H175.016V92.3667H173.6V83.9667ZM176.36 88.2507C176.92 88.2507 177.336 88.1267 177.608 87.8787C177.888 87.6227 178.028 87.2307 178.028 86.7027C178.028 86.1667 177.888 85.7747 177.608 85.5267C177.336 85.2787 176.912 85.1547 176.336 85.1547H175.016V88.2507H176.36ZM180.643 83.9667H183.595C184.499 83.9667 185.207 84.1787 185.719 84.6027C186.231 85.0267 186.487 85.6627 186.487 86.5107C186.487 87.0947 186.363 87.5747 186.115 87.9507C185.867 88.3267 185.511 88.6267 185.047 88.8507L186.931 92.3667H185.335L183.691 89.1867H183.631H182.059V92.3667H180.643V83.9667ZM183.331 87.9987C183.915 87.9987 184.343 87.8747 184.615 87.6267C184.895 87.3707 185.035 87.0187 185.035 86.5707C185.035 85.6267 184.479 85.1547 183.367 85.1547H182.059V87.9987H183.331ZM191.709 92.5347C190.909 92.5347 190.197 92.3547 189.573 91.9947C188.949 91.6347 188.457 91.1267 188.097 90.4707C187.745 89.8067 187.569 89.0387 187.569 88.1667C187.569 87.2947 187.745 86.5307 188.097 85.8747C188.457 85.2107 188.949 84.6987 189.573 84.3387C190.197 83.9787 190.909 83.7987 191.709 83.7987C192.509 83.7987 193.221 83.9787 193.845 84.3387C194.469 84.6987 194.957 85.2107 195.309 85.8747C195.669 86.5307 195.849 87.2947 195.849 88.1667C195.849 89.0387 195.669 89.8067 195.309 90.4707C194.957 91.1267 194.469 91.6347 193.845 91.9947C193.221 92.3547 192.509 92.5347 191.709 92.5347ZM191.709 91.1907C192.565 91.1907 193.221 90.9107 193.677 90.3507C194.141 89.7907 194.373 89.0627 194.373 88.1667C194.373 87.2707 194.141 86.5427 193.677 85.9827C193.221 85.4227 192.565 85.1427 191.709 85.1427C190.853 85.1427 190.193 85.4227 189.729 85.9827C189.265 86.5427 189.033 87.2707 189.033 88.1667C189.033 89.0627 189.265 89.7907 189.729 90.3507C190.193 90.9107 190.853 91.1907 191.709 91.1907ZM197.225 83.9667H202.385V85.2867H198.617V87.3267H201.521V88.6467H198.617V92.3667H197.225V83.9667ZM203.518 83.9667H208.798V85.2867H204.934V87.3267H207.97V88.6467H204.934V91.0467H208.918V92.3667H203.518V83.9667ZM212.704 92.5347C212.224 92.5347 211.72 92.4747 211.192 92.3547C210.664 92.2347 210.244 92.0987 209.932 91.9467L210.1 90.4707C211.14 90.9667 212.08 91.2147 212.92 91.2147C213.392 91.2147 213.76 91.1267 214.024 90.9507C214.288 90.7747 214.42 90.5107 214.42 90.1587C214.42 89.8867 214.348 89.6667 214.204 89.4987C214.068 89.3307 213.864 89.1867 213.592 89.0667C213.32 88.9387 212.916 88.7867 212.38 88.6107C211.86 88.4427 211.428 88.2627 211.084 88.0707C210.74 87.8707 210.464 87.6187 210.256 87.3147C210.056 87.0027 209.956 86.6147 209.956 86.1507C209.956 85.4467 210.216 84.8787 210.736 84.4467C211.264 84.0147 212.016 83.7987 212.992 83.7987C213.472 83.7987 213.944 83.8507 214.408 83.9547C214.872 84.0587 215.284 84.1907 215.644 84.3507L215.5 85.7907C215.02 85.5587 214.572 85.3867 214.156 85.2747C213.748 85.1627 213.332 85.1067 212.908 85.1067C212.428 85.1067 212.056 85.1907 211.792 85.3587C211.528 85.5187 211.396 85.7667 211.396 86.1027C211.396 86.3427 211.46 86.5427 211.588 86.7027C211.724 86.8547 211.908 86.9827 212.14 87.0867C212.38 87.1907 212.724 87.3147 213.172 87.4587C214.132 87.7547 214.836 88.1027 215.284 88.5027C215.74 88.8947 215.968 89.4347 215.968 90.1227C215.968 90.8027 215.72 91.3747 215.224 91.8387C214.728 92.3027 213.888 92.5347 212.704 92.5347ZM219.676 92.5347C219.196 92.5347 218.692 92.4747 218.164 92.3547C217.636 92.2347 217.216 92.0987 216.904 91.9467L217.072 90.4707C218.112 90.9667 219.052 91.2147 219.892 91.2147C220.364 91.2147 220.732 91.1267 220.996 90.9507C221.26 90.7747 221.392 90.5107 221.392 90.1587C221.392 89.8867 221.32 89.6667 221.176 89.4987C221.04 89.3307 220.836 89.1867 220.564 89.0667C220.292 88.9387 219.888 88.7867 219.352 88.6107C218.832 88.4427 218.4 88.2627 218.056 88.0707C217.712 87.8707 217.436 87.6187 217.228 87.3147C217.028 87.0027 216.928 86.6147 216.928 86.1507C216.928 85.4467 217.188 84.8787 217.708 84.4467C218.236 84.0147 218.988 83.7987 219.964 83.7987C220.444 83.7987 220.916 83.8507 221.38 83.9547C221.844 84.0587 222.256 84.1907 222.616 84.3507L222.472 85.7907C221.992 85.5587 221.544 85.3867 221.128 85.2747C220.72 85.1627 220.304 85.1067 219.88 85.1067C219.4 85.1067 219.028 85.1907 218.764 85.3587C218.5 85.5187 218.368 85.7667 218.368 86.1027C218.368 86.3427 218.432 86.5427 218.56 86.7027C218.696 86.8547 218.88 86.9827 219.112 87.0867C219.352 87.1907 219.696 87.3147 220.144 87.4587C221.104 87.7547 221.808 88.1027 222.256 88.5027C222.712 88.8947 222.94 89.4347 222.94 90.1227C222.94 90.8027 222.692 91.3747 222.196 91.8387C221.7 92.3027 220.86 92.5347 219.676 92.5347ZM224.225 83.9667H225.617V92.3667H224.225V83.9667ZM231.143 92.5347C230.343 92.5347 229.631 92.3547 229.007 91.9947C228.383 91.6347 227.891 91.1267 227.531 90.4707C227.179 89.8067 227.003 89.0387 227.003 88.1667C227.003 87.2947 227.179 86.5307 227.531 85.8747C227.891 85.2107 228.383 84.6987 229.007 84.3387C229.631 83.9787 230.343 83.7987 231.143 83.7987C231.943 83.7987 232.655 83.9787 233.279 84.3387C233.903 84.6987 234.391 85.2107 234.743 85.8747C235.103 86.5307 235.283 87.2947 235.283 88.1667C235.283 89.0387 235.103 89.8067 234.743 90.4707C234.391 91.1267 233.903 91.6347 233.279 91.9947C232.655 92.3547 231.943 92.5347 231.143 92.5347ZM231.143 91.1907C231.999 91.1907 232.655 90.9107 233.111 90.3507C233.575 89.7907 233.807 89.0627 233.807 88.1667C233.807 87.2707 233.575 86.5427 233.111 85.9827C232.655 85.4227 231.999 85.1427 231.143 85.1427C230.287 85.1427 229.627 85.4227 229.163 85.9827C228.699 86.5427 228.467 87.2707 228.467 88.1667C228.467 89.0627 228.699 89.7907 229.163 90.3507C229.627 90.9107 230.287 91.1907 231.143 91.1907ZM236.659 83.9667H238.075L241.855 89.7027V83.9667H243.259V92.3667H242.107L238.051 86.2827V92.3667H236.659V83.9667ZM245.131 83.9667H246.547L250.327 89.7027V83.9667H251.731V92.3667H250.579L246.523 86.2827V92.3667H245.131V83.9667ZM253.604 83.9667H258.884V85.2867H255.02V87.3267H258.056V88.6467H255.02V91.0467H259.004V92.3667H253.604V83.9667ZM260.366 83.9667H261.758V91.1187H265.358V92.3667H260.366V83.9667ZM268.79 92.5347C268.31 92.5347 267.806 92.4747 267.278 92.3547C266.75 92.2347 266.33 92.0987 266.018 91.9467L266.186 90.4707C267.226 90.9667 268.166 91.2147 269.006 91.2147C269.478 91.2147 269.846 91.1267 270.11 90.9507C270.374 90.7747 270.506 90.5107 270.506 90.1587C270.506 89.8867 270.434 89.6667 270.29 89.4987C270.154 89.3307 269.95 89.1867 269.678 89.0667C269.406 88.9387 269.002 88.7867 268.466 88.6107C267.946 88.4427 267.514 88.2627 267.17 88.0707C266.826 87.8707 266.55 87.6187 266.342 87.3147C266.142 87.0027 266.042 86.6147 266.042 86.1507C266.042 85.4467 266.302 84.8787 266.822 84.4467C267.35 84.0147 268.102 83.7987 269.078 83.7987C269.558 83.7987 270.03 83.8507 270.494 83.9547C270.958 84.0587 271.37 84.1907 271.73 84.3507L271.586 85.7907C271.106 85.5587 270.658 85.3867 270.242 85.2747C269.834 85.1627 269.418 85.1067 268.994 85.1067C268.514 85.1067 268.142 85.1907 267.878 85.3587C267.614 85.5187 267.482 85.7667 267.482 86.1027C267.482 86.3427 267.546 86.5427 267.674 86.7027C267.81 86.8547 267.994 86.9827 268.226 87.0867C268.466 87.1907 268.81 87.3147 269.258 87.4587C270.218 87.7547 270.922 88.1027 271.37 88.5027C271.826 88.8947 272.054 89.4347 272.054 90.1227C272.054 90.8027 271.806 91.3747 271.31 91.8387C270.814 92.3027 269.974 92.5347 268.79 92.5347Z" fill="#CD545B"/>
</svg>
