<svg xmlns="http://www.w3.org/2000/svg" width="682.7" height="682.7" version="1.0" viewBox="0 0 512 512"><path d="M188.1 85.2c-5.1 3.4-7.2 6.9-7.3 11.6-.1 6.1 1.8 9.6 6.3 12.1 2.1 1.2 3.9 2.7 3.9 3.2 0 1.1 2.8 2.3 7.7 3.3 2.5.6 3.6.3 5.3-1.4 1.2-1.2 2.3-2 2.4-1.8.2.1 1.2 3 2.3 6.3l2 6h-7.3c-6.3 0-7.6.3-9.9 2.5a47 47 0 0 0-10.5 18.9c-3.3 8.8-3.9 9.7-8 12.1-2.5 1.5-4.5 3.3-4.5 4 0 1.9 5.9 3.1 11.8 2.3 5-.6 6.7-2.2 6.7-6.3 0-1.2 1.5-4.2 3.3-6.7 2.7-3.9 3.2-4.3 3.5-2.4.6 4.2-2 9.6-7.1 14.2-6.1 5.7-5.7 7.4 1.7 6.6 8.4-.9 10.6-2.1 10.6-5.9a17 17 0 0 1 3.3-7.9c8.1-11.6 9.2-12.9 10.7-12.3.8.3 4.5.8 8.1 1.1 13.8 1.2 21.8-6.6 19.5-19-.4-1.9-3.3-7.5-6.6-12.3-3.3-4.9-6-9.1-6-9.5 0-.3 5.4-2 12.1-3.8 10.7-2.8 12.2-3 13.5-1.6 1.8 1.7 3.4 2 3.4.5 0-.6 1.1-1 2.4-1 3 0 4-2.4 1.8-4.6-1.4-1.5-3.5-1.6-18.2-1.1-14.3.5-22.9 1.7-31.6 4.2-1.8.6-2.2.1-2.7-2.4-.4-1.7-2.2-4.7-4-6.8-3.1-3.3-4-3.7-9.3-4.1-5-.3-6.4 0-9.3 2zM274.6 96.6c-1.1 2.8 1.1 4.1 10.7 5.9a161.6 161.6 0 0 1 85.7 47.8c2.2 2.6 4 3.7 5.4 3.5 5.8-.8 1-8.1-13.4-20.2A167.7 167.7 0 0 0 290.3 97c-11-2.4-14.9-2.5-15.7-.4zM161.5 121.7a197.8 197.8 0 0 0-43.8 43.8c-9.7 14.7-14.9 25.3-13.6 27.7 1.9 3.5 4.3 1.4 9.6-8.5a159.3 159.3 0 0 1 52.6-58.4c5.3-3.6 9.7-7 9.7-7.7 0-1.5-2-3.6-3.4-3.6-.6 0-5.6 3-11.1 6.7z"/><path d="M317 142.2c0 1.3 1.1 4.6 2.4 7.5 1.9 4 3.7 6 7.9 8.8 3 2 9.8 8.6 15.1 14.7a93.5 93.5 0 0 0 28.1 23.7c5.5 3.4 10.3 7 10.7 7.9 2.3 5.7.1 34.4-4.2 55.8-1.7 8.1-3.3 18.4-3.6 22.9-.5 7.2-.2 9.2 3.1 20a238 238 0 0 1 7.5 36.1c0 2.3-6.7 9-13.5 13.4-3.6 2.3-6.5 4.8-6.5 5.6 0 .7 1.4 2.1 3.2 3 5.1 2.6 11 1.4 20.8-4.3l8.5-5-.2-4.4-.5-8.4c-.1-2.2.6-10.1 1.7-17.6 1.7-12.8 1.7-14.1.2-20.2a20.2 20.2 0 0 1-.2-12.4c2.3-9.8 5.6-17.8 6.6-16.1.5.9 1.1 10.7 1.5 21.9.6 20.8 1.5 28.6 6 48.7 3.2 14.6 2.7 16.4-6.6 26.7a52 52 0 0 0-7 8.6c0 2.1 6.4 4.1 11.4 3.6 4.5-.4 5.4-.9 9.8-5.8 7.1-8.1 8-10.4 6.7-17.5-2-10.8-.6-36.3 3.6-64.4 3-20 4.2-25.9 5.7-27.3 1-1 1.8-2.8 1.9-4v-2.2l1.1 2.3c.8 1.6.8 3.2 0 5.9-1.9 6.2.3 7 6.2 2.1l3.9-3.2-.6-10c-.5-9.1-.3-11.2 2.5-21.5 3.4-13.1 3.3-16.4-.8-24.8a59.5 59.5 0 0 0-32.9-26.3c-6-1.9-6-1.9-1.7-6.4 4.7-4.7 6.2-8.1 6.2-13.7 0-5.3-2.2-9.3-7.1-12.8a18.1 18.1 0 0 0-16-3.1c-4.5 1.2-8.9 4.4-8.9 6.5 0 .6-1.3 2.4-3 4-1.9 1.9-2.6 3.2-2 4 .5.6.5 2.8-.1 5.4-.8 3.5-.6 5.3.6 8.3l1.5 4.3c0 1-2.4.4-13.8-3.2-9.5-2.9-12.4-4.3-15.9-7.6a348.1 348.1 0 0 1-23.7-27c-3.1-4.3-5.4-3.9-3.7.6 1.5 3.8-.1 3.4-5-1.3-4.8-4.5-6.9-5.1-6.9-1.8zm116.1 74.5c6.3 5.7 7.3 8.3 6.5 17.5a93.7 93.7 0 0 1-2.9 15.1l-2.3 7.2-1.3-8.5a375 375 0 0 0-3.7-19.4c-3.7-16.9-3.3-18.2 3.7-11.9z"/><path d="M234.4 171.9c-2.3 1-6.7 2.6-9.8 3.5a26.8 26.8 0 0 0-17.6 24.1c0 3.2 2.1 6.5 4.1 6.5.5 0 .9 1.1.9 2.4 0 4.4 2.2 8.6 5.3 10.3 2.4 1.2 4.8 1.4 11.1.9 13.7-1 14.3 2.3 1.4 8.3-9.4 4.3-11.1 5.9-24.7 23.9a90.8 90.8 0 0 1-12.9 14.6l-14.1 8.9a53.8 53.8 0 0 1-12.6 6.7c-1.2 0-3.6.3-5.2.6-2.7.5-3.6-.2-12.4-10.1a474.8 474.8 0 0 1-15.6-18.9c-7.5-9.7-12.4-14.3-16.7-15.2-5-1-5.1-1.5-1.2-4.8 3.6-3.1 3.6-3.1 3.6-11.1 0-15-1.8-18.5-10.6-20.6-4.8-1.1-13.3.5-16.7 3.1-2 1.6-2.5 3.2-3 8.7-.7 6.6-.6 6.9 2.9 12 3.7 5.3 4.2 9 1.4 10.4l-7 3.3a40.7 40.7 0 0 0-18.5 17.1l-2.7 5.4 2.2 4.5c1.1 2.5 5.6 7.9 9.9 12.2 7 6.8 7.9 8.2 8.5 12.3.4 2.5 2.3 9.7 4.4 15.8 2.1 6.2 3.7 11.3 3.6 11.3l-8.3-4c-4.4-2.2-8.5-4-9.1-4-1.5 0-3 4.5-3 8.9 0 2.1-.5 5.2-1.1 7-1.3 3.6-.6 7.2 1.7 9.5 2.6 2.7 4.4 1.8 6.6-3.2a74 74 0 0 1 2.2-4.9c.1-.1 3.4.9 7.4 2.3 8.3 2.8 15.7 3.4 17.8 1.2 3-3 3.5-19.7.9-31.3-.4-1.9.8-.4 3.2 4.1 2.2 3.9 5.4 9 7.3 11.4 3.2 4.1 3.4 4.8 4.1 15.4a79 79 0 0 1-.1 15.1c-1.3 5.7.8 8.3 9.6 11.2a48 48 0 0 0 9.4 2.2c2.3 0 6-1.9 6-3.2 0-.3-2.5-1.9-5.5-3.6-7.6-4.3-8-5.5-6.7-20.3 1.6-17.2-.4-26.1-10-45.3-4.8-9.6-5-10.4-5.5-20.5l-.5-10.5 3.8 5.6c6.1 8.9 7.3 10 18.4 18.4l10.9 8.2c.2.1 0 1.9-.6 3.8-1 3.2-.9 3.7 1.4 5.5 3.4 2.7 6.3 2.5 10.8-.6a96 96 0 0 1 13.4-6.4 112.7 112.7 0 0 0 42.1-24.9 46.2 46.2 0 0 1 11.6-8.1c4.9 0 9.4 7.7 9.4 16.2 0 6-1.6 9.8-8.9 21.8-5.1 8.4-5.2 8.5-5 16.1.2 7-.1 8.2-3 13.3-7.4 12.8-21.9 31.1-27.6 34.6-1.7 1-8.4 3-14.8 4.4-13.7 2.9-19.4 5.3-37.9 15.8l-13.8 7.9-5-2.2c-2.7-1.2-5.6-1.9-6.4-1.6-.7.3-2.2 2.7-3.1 5.4l-5.2 13.3c-4.1 10.1-5.3 18.9-3 20.8 2.2 1.9 4.2.3 10.2-7.6 9.2-12.2 10.2-13 17.3-15.1A2021 2021 0 0 1 173 390c44.9-11.1 51.9-14.9 78.4-41.3l12.8-12.8 5.2 2.2a795 795 0 0 1 26.8 13c23.5 11.8 22.9 11.2 26.3 21.9 3.9 12.3 8.3 18.7 23.2 34.1 14 14.3 14.3 14.8 14.3 19 0 2.4.6 5.5 1.3 6.9 1.3 2.6 1.9 2.7 33.4 3.1 5.8.1 12.8-6 9.3-8.1-.6-.4-4.1-1-7.6-1.3-14.8-1.4-20.6-7.4-36.6-37.3-6.4-12-14.1-26.8-17-32.9-4.4-9-6.5-12.2-12.4-18a294 294 0 0 0-40.1-31c-11.6-7.7-11.3-7.1-8.8-19 .8-3.9 1.5-10.2 1.5-14.1 0-4.4.7-9.3 2-12.9 2.7-7.7 2.5-11.3-.6-15.8-1.4-2.1-2.4-4-2.2-4.3.2-.2 5.3 1.2 11.4 3 6 1.8 13 3.6 15.6 4 5.7.9 7.9-.2 26.4-12 10.5-6.7 14.3-8.6 19-9.5 6.8-1.2 13.7-4.9 16.1-8.6 1.6-2.4 1.6-2.6-.1-3.8-1.4-1.1-2.4-1.1-5.1.1-4.7 1.9-5.8 1.8-4.6-.5.6-1 .8-2.1.5-2.3-.9-1-15.3 5-18.5 7.7-4.4 3.7-13.3 8-23.6 11.4l-8.6 3L299 228c-16.8-8.4-22.8-10.3-32-9.8l-7.5.3-.3-2.7c-.3-2.3.3-3 3.5-4.5l3.8-1.8.1-7.5c0-6.4-.3-7.8-2.1-9.5a22.7 22.7 0 0 1-3.9-8c-2.8-9.7-3.7-11.5-6.7-13-4-2.1-14.5-1.9-19.5.4zm-151 85c.3.4.3 4.5-.1 9.1l-.6 8.2-3.4-5.3a26.8 26.8 0 0 1-3.3-6.5c0-1.4 4.6-6.4 5.9-6.4a2 2 0 0 1 1.5.9z"/><path d="M170.6 398.5c-.9 2.4 2.9 5.4 12.8 10 11 5.2 27.9 10.7 40.1 13.2a230 230 0 0 0 63.1-.5c21.4-4.6 43.9-13.7 43.9-17.7 0-3.2-3.1-2.9-11.4.8-9.4 4.3-24.6 9-36.6 11.4a199.3 199.3 0 0 1-58.2-.5 163.2 163.2 0 0 1-40.4-13.8c-9.4-4.7-12.3-5.3-13.3-2.9z"/></svg>
