<svg width="105" height="16" viewBox="0 0 105 16" fill="none" xmlns="http://www.w3.org/2000/svg">
<g clip-path="url(#clip0_743_7490)">
<path d="M7.55724 10.3C6.67724 10.604 5.79724 10.732 4.90124 10.732C3.62124 10.732 2.82124 10.044 2.82124 8.076V6.14C2.82124 4.188 3.62124 3.5 4.90124 3.5C5.79724 3.5 6.67724 3.644 7.55724 3.916L8.00524 1.996C6.96524 1.66 5.94124 1.5 4.88524 1.5C2.35724 1.5 0.469238 2.956 0.469238 5.948V8.284C0.469238 11.276 2.35724 12.732 4.88524 12.732C5.94124 12.732 6.96524 12.572 8.00524 12.236L7.55724 10.3Z" fill="#0084B2"/>
<path d="M9.52261 9.068C9.52261 11.356 11.0266 12.732 13.0906 12.732C15.1546 12.732 16.6586 11.356 16.6586 9.068V7.612C16.6586 5.324 15.1546 3.948 13.0906 3.948C11.0266 3.948 9.52261 5.324 9.52261 7.612V9.068ZM11.7946 8.988V7.692C11.7946 6.588 12.1146 5.884 13.0906 5.884C14.0506 5.884 14.3866 6.588 14.3866 7.692V8.988C14.3866 10.092 14.0506 10.796 13.0906 10.796C12.1306 10.796 11.7946 10.092 11.7946 8.988Z" fill="#0084B2"/>
<path d="M18.4105 12.524H20.6985V7.548C20.6985 6.444 21.0025 5.884 21.6745 5.884C22.3465 5.884 22.6505 6.556 22.6505 7.82V12.524H24.9385V7.82C24.9385 6.556 25.2425 5.884 25.9145 5.884C26.5865 5.884 26.8905 6.444 26.8905 7.548V12.524H29.1785V7.388C29.1785 5.084 27.7065 3.948 25.9145 3.948C25.0025 3.948 24.2825 4.332 23.7865 5.02C23.3065 4.348 22.5865 3.948 21.6745 3.948C19.8985 3.948 18.4105 5.084 18.4105 7.388V12.524Z" fill="#0084B2"/>
<path d="M33.218 12.348C33.554 12.54 34.114 12.732 34.642 12.732C36.338 12.732 37.954 11.58 37.954 9.212V7.452C37.954 5.244 36.338 3.948 34.45 3.948C32.546 3.948 30.93 5.244 30.93 7.452V15.9H33.218V12.348ZM33.218 10.508V7.532C33.218 6.428 33.746 5.884 34.45 5.884C35.138 5.884 35.666 6.428 35.666 7.532V9.132C35.666 10.348 35.122 10.796 34.434 10.796C34.018 10.796 33.618 10.668 33.218 10.508Z" fill="#0084B2"/>
<path d="M40.2845 12.524H42.5725V5.676H43.9165V4.156H42.5725V1.596L40.2845 1.9V4.156H38.9245L39.2605 5.676H40.2845V12.524Z" fill="#0084B2"/>
<path d="M44.978 9.116C44.978 11.468 46.482 12.732 48.722 12.732C49.842 12.732 50.546 12.572 51.458 12.236L51.01 10.396C50.274 10.636 49.522 10.796 48.722 10.796C47.746 10.796 47.25 10.252 47.25 9.116V9.004H51.81V7.18C51.81 5.276 50.274 3.948 48.386 3.948C46.498 3.948 44.978 5.18 44.978 7.484V9.116ZM47.25 7.404V7.18C47.25 6.444 47.714 5.884 48.386 5.884C49.106 5.884 49.522 6.46 49.522 7.18V7.404H47.25Z" fill="#0084B2"/>
<path d="M58.1941 10.2241C58.1941 8.4655 59.6024 7.53447 62.9608 7.22412C62.9608 6.49998 62.5274 6.18964 61.6608 6.18964C60.7941 6.18964 60.2524 6.39653 59.3858 6.91378L58.4108 5.2586C59.4941 4.63791 60.7941 4.22412 62.0941 4.22412C64.2608 4.22412 65.5608 5.36205 65.5608 7.94826V12.6034H63.3941L63.1774 11.7758C62.5274 12.3965 61.6608 12.8103 60.6858 12.8103C59.0608 12.8103 58.1941 11.5689 58.1941 10.2241ZM62.9608 10.1207V8.77585C61.2274 8.98274 60.6858 9.39653 60.6858 10.0172C60.6858 10.6379 61.0108 10.7414 61.5524 10.7414C62.0941 10.7414 62.5274 10.5345 62.9608 10.1207Z" fill="#0C419A"/>
<path d="M67.7275 4.32756H69.8942L70.1109 5.36205C70.7609 4.74136 71.5192 4.12067 72.7109 4.12067C73.9025 4.12067 74.6609 4.63791 75.0942 5.46549C75.8525 4.74136 76.6109 4.12067 77.8025 4.12067C79.6442 4.12067 80.5109 5.36205 80.5109 7.43101V12.5H77.9109V7.74136C77.9109 6.60343 77.5859 6.29308 76.9359 6.29308C76.2859 6.29308 76.0692 6.49998 75.5275 7.01722V12.5H72.8192V7.74136C72.8192 6.60343 72.4942 6.29308 71.8442 6.29308C71.1942 6.29308 70.9775 6.49998 70.4359 7.01722V12.5H67.8359V4.32756H67.7275Z" fill="#0C419A"/>
<path d="M82.136 8.36205C82.136 5.67239 84.086 4.12067 86.1443 4.12067C88.2027 4.12067 89.8277 5.87929 89.8277 8.0517C89.8277 10.2241 89.8277 8.98274 89.8277 9.18963H84.736C84.9527 10.3276 85.8193 10.7414 86.9027 10.7414C87.986 10.7414 88.0943 10.5345 88.7443 10.2241L89.611 11.7758C88.7443 12.3965 87.5527 12.7069 86.4693 12.7069C83.9777 12.7069 82.136 11.1551 82.136 8.36205ZM87.5527 7.43101C87.5527 6.60343 87.2277 5.98274 86.2527 5.98274C85.2777 5.98274 84.8443 6.49998 84.6277 7.43101H87.5527Z" fill="#0C419A"/>
<path d="M91.6692 9.81037V0.913818H94.2692V9.91382C94.2692 10.4311 94.5942 10.638 94.8108 10.638C95.0275 10.638 95.0275 10.638 95.1359 10.638L95.4609 12.5C95.1359 12.6035 94.7025 12.7069 94.1609 12.7069C92.3192 12.7069 91.6692 11.569 91.6692 9.81037Z" fill="#0C419A"/>
<path d="M96.4358 1.84483C96.4358 1.01724 97.0858 0.5 97.9525 0.5C98.8191 0.5 99.4691 1.01724 99.4691 1.84483C99.4691 2.67241 98.8191 3.18966 97.9525 3.18966C97.0858 3.18966 96.4358 2.67241 96.4358 1.84483ZM96.6525 4.32759H99.2525V12.5H96.6525V4.32759Z" fill="#0C419A"/>
</g>
<defs>
<clipPath id="clip0_743_7490">
<rect width="104" height="15" fill="white" transform="translate(0.469238 0.5)"/>
</clipPath>
</defs>
</svg>
