<svg xmlns="http://www.w3.org/2000/svg" width="80" height="64" viewBox="0 0 80 64" fill="#0c419a"><path d="M.47 37.75c0-2.75 2.31-4.3 7.41-4.85-.07-1.15-.8-1.84-2.2-1.84-1.09 0-2.17.47-3.4 1.2L.94 29.68a10.4 10.4 0 0 1 5.5-1.74c3.29 0 5.1 1.92 5.1 5.93v7.52H7.91v-1.26s-1.48 1.59-3.58 1.59C1.95 41.69.47 39.95.47 37.75Zm7.41-.22v-2.28c-2.71.37-3.76 1.23-3.76 2.21 0 .83.58 1.27 1.48 1.27.84-.04 1.6-.51 2.28-1.2ZM56.98 24.23c0-1.2.94-2.03 2.21-2.03s2.2.83 2.2 2.03c0 1.19-.93 2.02-2.2 2.02-1.3 0-2.2-.87-2.2-2.02Zm.3 3.94h3.79v13.12h-3.8V28.17ZM35.76 34.9c0-4.27 2.68-6.88 5.9-6.88 3.65 0 5.67 2.71 5.67 6.3a9.7 9.7 0 0 1-.14 1.73h-7.7c.32 1.92 1.62 2.78 3.32 2.78.98 0 1.8-.4 2.75-.94l1.3 2.43a8.14 8.14 0 0 1-4.56 1.48c-3.76-.04-6.54-2.57-6.54-6.9Zm8.35-1.45c0-1.45-.83-2.5-2.35-2.5-1.2 0-2.02.83-2.28 2.5h4.63ZM17.93 29.98c1.05-1.05 2.2-1.96 3.9-1.96 1.82 0 2.94.76 3.59 2.14 1.12-1.16 2.31-2.14 4.05-2.14 2.82 0 4.08 2.03 4.08 5.25v8.06h-4V33.8c0-1.81-.52-2.35-1.53-2.35-.61 0-1.3.4-2.1 1.2v8.7h-4.05v-7.55c0-1.81-.47-2.35-1.51-2.35-.62 0-1.3.4-2.1 1.2v8.7h-4.01V28.39h3.68v1.6ZM64.98 40.42c0-.68.5-1.22 1.19-1.22s1.2.54 1.2 1.22c0 .7-.51 1.23-1.2 1.23s-1.2-.54-1.2-1.23ZM72.9 27.99c-1.45 0-2.25.97-2.25 2.7v1.92l-1.2.08v.8h1.2v8.1h.94v-8.14h2.06v-.87H71.6v-1.85c0-1.26.44-1.91 1.3-1.91.33 0 .65.07 1.02.22l.07.03.29-.76-.07-.03a3.8 3.8 0 0 0-1.3-.3ZM79.55 32.58c-.33-.18-.65-.18-.9-.18-.95 0-1.78.61-2.47 1.7l-.07-1.49h-.83v8.94h.94v-6.08c.58-1.37 1.41-2.2 2.31-2.2.33 0 .51.03.73.1l.07.04.25-.83h-.03ZM49.75 37.32V22.85h3.8v14.61c0 .83.36 1.08.69 1.08.14 0 .25 0 .47-.03l.47 2.86c-.44.18-1.05.32-1.92.32-2.64.04-3.5-1.7-3.5-4.37Z"/></svg>
