<svg xmlns="http://www.w3.org/2000/svg" width="99" height="64" viewBox="0 0 99 64" fill="none"><path fill="#00a5df" d="M68.38 38.78c.54.32 1.45.63 2.31.63 2.76 0 5.38-1.87 5.38-5.72v-2.86c0-3.59-2.62-5.7-5.7-5.7-3.09 0-5.71 2.11-5.71 5.7v13.73h3.72v-5.78Zm0-2.99v-4.83c0-1.8.85-2.68 2-2.68 1.12 0 1.97.88 1.97 2.68v2.6c0 1.97-.88 2.7-2 2.7-.67 0-1.32-.2-1.97-.47ZM77.97 39.07h3.7v-8.68c0-1.23.67-2.11 1.84-2.11.63 0 1.28.13 1.85.29l.7-3.02a8.47 8.47 0 0 0-2.57-.42c-3.1 0-5.52 2.11-5.52 5.26v8.68ZM86.43 33.45c0 3.72 2.44 5.96 5.8 5.96 3.35 0 5.8-2.24 5.8-5.96V31.1c0-3.72-2.45-5.96-5.8-5.96-3.36 0-5.8 2.24-5.8 5.96v2.36Zm3.69-.13v-2.1c0-1.8.52-2.94 2.1-2.94 1.56 0 2.11 1.14 2.11 2.94v2.1c0 1.8-.55 2.94-2.1 2.94-1.57 0-2.11-1.14-2.11-2.94Z"/><path fill="#0c419a" d="M.47 35.64c0-2.82 2.38-4.42 7.64-4.97-.08-1.2-.82-1.9-2.27-1.9-1.12 0-2.24.48-3.5 1.23L.94 27.36a10.75 10.75 0 0 1 5.67-1.78c3.39 0 5.25 1.97 5.25 6.09v7.72H8.15v-1.3s-1.53 1.64-3.7 1.64C2 39.69.48 37.9.48 35.64Zm7.64-.22v-2.34c-2.8.37-3.88 1.26-3.88 2.27 0 .85.6 1.3 1.53 1.3.86-.04 1.64-.52 2.35-1.23ZM57.84 21.75c0-1.22.97-2.08 2.28-2.08 1.3 0 2.27.86 2.27 2.08 0 1.23-.97 2.08-2.27 2.08-1.35 0-2.28-.89-2.28-2.08Zm.3 4.05h3.91v13.48h-3.9V25.8ZM36.24 32.7c0-4.37 2.76-7.05 6.07-7.05 3.77 0 5.85 2.79 5.85 6.46 0 .7-.07 1.45-.14 1.79h-7.94c.33 1.97 1.67 2.86 3.43 2.86 1 0 1.86-.41 2.83-.97l1.34 2.49a8.4 8.4 0 0 1-4.7 1.52c-3.87-.04-6.74-2.64-6.74-7.1Zm8.6-1.48c0-1.48-.85-2.56-2.41-2.56-1.23 0-2.1.85-2.35 2.56h4.77ZM18.18 27.66c1.08-1.08 2.28-2 4.03-2 1.86 0 3.02.77 3.69 2.18 1.15-1.19 2.38-2.19 4.17-2.19 2.9 0 4.21 2.08 4.21 5.39v8.28h-4.14v-7.73c0-1.85-.52-2.41-1.56-2.41-.63 0-1.34.4-2.16 1.23v8.95h-4.18v-7.77c0-1.85-.48-2.41-1.56-2.41-.63 0-1.34.4-2.16 1.23v8.95h-4.14V26.02h3.8v1.64ZM50.52 35.2V20.34h3.92v15c0 .86.37 1.12.7 1.12.15 0 .26 0 .49-.04l.48 2.94c-.44.18-1.08.33-1.97.33-2.72.04-3.62-1.75-3.62-4.5Z"/></svg>
