<?xml version="1.0" encoding="utf-8"?>
<!-- Generator: Adobe Illustrator 27.2.0, SVG Export Plug-In . SVG Version: 6.00 Build 0)  -->
<svg version="1.1" id="Calque_1" xmlns="http://www.w3.org/2000/svg" xmlns:xlink="http://www.w3.org/1999/xlink" x="0px" y="0px"
	 viewBox="0 0 104 64" style="enable-background:new 0 0 104 64;" xml:space="preserve">
<style type="text/css">
	.st0{clip-path:url(#SVGID_00000011008597237166341060000007484273314682470793_);}
	.st1{fill:#0084B2;}
	.st2{fill:#0C419A;}
</style>
<g>
	<g>
		<defs>
			<rect id="SVGID_1_" y="24.3" width="104" height="15"/>
		</defs>
		<clipPath id="SVGID_00000098216317174551079330000007777728015317781660_">
			<use xlink:href="#SVGID_1_"  style="overflow:visible;"/>
		</clipPath>
		<g style="clip-path:url(#SVGID_00000098216317174551079330000007777728015317781660_);">
			<path class="st1" d="M7.1,34.1c-0.9,0.3-1.8,0.4-2.7,0.4c-1.3,0-2.1-0.7-2.1-2.7v-1.9c0-2,0.8-2.6,2.1-2.6c0.9,0,1.8,0.1,2.7,0.4
				l0.4-1.9c-1-0.3-2.1-0.5-3.1-0.5c-2.5,0-4.4,1.5-4.4,4.4V32c0,3,1.9,4.4,4.4,4.4c1.1,0,2.1-0.2,3.1-0.5L7.1,34.1z"/>
			<path class="st1" d="M9.1,32.9c0,2.3,1.5,3.7,3.6,3.7s3.6-1.4,3.6-3.7v-1.5c0-2.3-1.5-3.7-3.6-3.7s-3.6,1.4-3.6,3.7V32.9z
				 M11.3,32.8v-1.3c0-1.1,0.3-1.8,1.3-1.8s1.3,0.7,1.3,1.8v1.3c0,1.1-0.3,1.8-1.3,1.8S11.3,33.9,11.3,32.8z"/>
			<path class="st1" d="M17.9,36.3h2.3v-5c0-1.1,0.3-1.7,1-1.7s1,0.7,1,1.9v4.7h2.3v-4.7c0-1.3,0.3-1.9,1-1.9s1,0.6,1,1.7v5h2.3
				v-5.1c0-2.3-1.5-3.4-3.3-3.4c-0.9,0-1.6,0.4-2.1,1.1c-0.5-0.7-1.2-1.1-2.1-1.1c-1.8,0-3.3,1.1-3.3,3.4L17.9,36.3L17.9,36.3z"/>
			<path class="st1" d="M32.7,36.1c0.3,0.2,0.9,0.4,1.4,0.4c1.7,0,3.3-1.2,3.3-3.5v-1.8c0-2.2-1.6-3.5-3.5-3.5s-3.5,1.3-3.5,3.5v8.4
				h2.3V36.1z M32.7,34.3v-3c0-1.1,0.5-1.6,1.2-1.6s1.2,0.5,1.2,1.6v1.6c0,1.2-0.5,1.7-1.2,1.7C33.5,34.6,33.1,34.5,32.7,34.3z"/>
			<path class="st1" d="M39.8,36.3h2.3v-6.8h1.3V28h-1.3v-2.6l-2.3,0.3V28h-1.4l0.3,1.5h1v6.8H39.8z"/>
			<path class="st1" d="M44.5,32.9c0,2.4,1.5,3.6,3.7,3.6c1.1,0,1.8-0.2,2.7-0.5l-0.4-1.8c-0.7,0.2-1.5,0.4-2.3,0.4
				c-1,0-1.5-0.5-1.5-1.7v-0.1h4.6V31c0-1.9-1.5-3.2-3.4-3.2s-3.4,1.2-3.4,3.5C44.5,31.3,44.5,32.9,44.5,32.9z M46.8,31.2V31
				c0-0.7,0.5-1.3,1.1-1.3c0.7,0,1.1,0.6,1.1,1.3v0.2H46.8z"/>
			<path class="st2" d="M57.7,34c0-1.8,1.4-2.7,4.8-3c0-0.7-0.4-1-1.3-1c-0.9,0-1.4,0.2-2.3,0.7l-1-1.7c1.1-0.6,2.4-1,3.7-1
				c2.2,0,3.5,1.1,3.5,3.7v4.7h-2.2l-0.2-0.8c-0.6,0.6-1.5,1-2.5,1C58.6,36.6,57.7,35.4,57.7,34z M62.5,33.9v-1.3
				c-1.7,0.2-2.3,0.6-2.3,1.2c0,0.6,0.3,0.7,0.9,0.7C61.6,34.5,62.1,34.3,62.5,33.9z"/>
			<path class="st2" d="M67.3,28.1h2.2l0.2,1c0.7-0.6,1.4-1.2,2.6-1.2s1.9,0.5,2.4,1.3c0.8-0.7,1.5-1.3,2.7-1.3
				c1.8,0,2.7,1.2,2.7,3.3v5.1h-2.6v-4.8c0-1.1-0.3-1.4-1-1.4s-0.9,0.2-1.4,0.7v5.5h-2.7v-4.8c0-1.1-0.3-1.4-1-1.4s-0.9,0.2-1.4,0.7
				v5.5h-2.6L67.3,28.1C67.4,28.1,67.3,28.1,67.3,28.1z"/>
			<path class="st2" d="M81.7,32.2c0-2.7,1.9-4.2,4-4.2s3.7,1.8,3.7,3.9c0,2.2,0,0.9,0,1.1h-5.1c0.2,1.1,1.1,1.6,2.2,1.6
				s1.2-0.2,1.8-0.5l0.9,1.6c-0.9,0.6-2.1,0.9-3.1,0.9C83.5,36.5,81.7,35,81.7,32.2z M87.1,31.2c0-0.8-0.3-1.4-1.3-1.4
				s-1.4,0.5-1.6,1.4H87.1z"/>
			<path class="st2" d="M91.2,33.6v-8.9h2.6v9c0,0.5,0.3,0.7,0.5,0.7s0.2,0,0.3,0l0.3,1.9c-0.3,0.1-0.8,0.2-1.3,0.2
				C91.8,36.5,91.2,35.4,91.2,33.6z"/>
			<path class="st2" d="M96,25.6c0-0.8,0.7-1.3,1.5-1.3c0.9,0,1.5,0.5,1.5,1.3s-0.7,1.3-1.5,1.3C96.6,27,96,26.5,96,25.6z
				 M96.2,28.1h2.6v8.2h-2.6V28.1z"/>
		</g>
	</g>
</g>
</svg>
