<svg xmlns="http://www.w3.org/2000/svg" width="104" height="64" viewBox="0 0 104 64"><path d="M7.1 34.1c-.9.3-1.8.4-2.7.4-1.3 0-2.1-.7-2.1-2.7v-1.9c0-2 .8-2.6 2.1-2.6.9 0 1.8.1 2.7.4l.4-1.9c-1-.3-2.1-.5-3.1-.5-2.5 0-4.4 1.5-4.4 4.4V32c0 3 1.9 4.4 4.4 4.4 1.1 0 2.1-.2 3.1-.5z" fill="#0084b2"/><path d="M9.1 32.9c0 2.3 1.5 3.7 3.6 3.7s3.6-1.4 3.6-3.7v-1.5c0-2.3-1.5-3.7-3.6-3.7s-3.6 1.4-3.6 3.7zm2.2-.1v-1.3c0-1.1.3-1.8 1.3-1.8s1.3.7 1.3 1.8v1.3c0 1.1-.3 1.8-1.3 1.8s-1.3-.7-1.3-1.8z" fill="#0084b2"/><path d="M17.9 36.3h2.3v-5c0-1.1.3-1.7 1-1.7s1 .7 1 1.9v4.7h2.3v-4.7c0-1.3.3-1.9 1-1.9s1 .6 1 1.7v5h2.3v-5.1c0-2.3-1.5-3.4-3.3-3.4-.9 0-1.6.4-2.1 1.1-.5-.7-1.2-1.1-2.1-1.1-1.8 0-3.3 1.1-3.3 3.4z" fill="#0084b2"/><path d="M32.7 36.1c.3.2.9.4 1.4.4 1.7 0 3.3-1.2 3.3-3.5v-1.8c0-2.2-1.6-3.5-3.5-3.5s-3.5 1.3-3.5 3.5v8.4h2.3zm0-1.8v-3c0-1.1.5-1.6 1.2-1.6s1.2.5 1.2 1.6v1.6c0 1.2-.5 1.7-1.2 1.7-.4 0-.8-.1-1.2-.3z" fill="#0084b2"/><path d="M39.8 36.3h2.3v-6.8h1.3V28h-1.3v-2.6l-2.3.3V28h-1.4l.3 1.5h1v6.8z" fill="#0084b2"/><path d="M44.5 32.9c0 2.4 1.5 3.6 3.7 3.6 1.1 0 1.8-.2 2.7-.5l-.4-1.8c-.7.2-1.5.4-2.3.4-1 0-1.5-.5-1.5-1.7v-.1h4.6V31c0-1.9-1.5-3.2-3.4-3.2s-3.4 1.2-3.4 3.5v1.6zm2.3-1.7V31c0-.7.5-1.3 1.1-1.3.7 0 1.1.6 1.1 1.3v.2z" fill="#0084b2"/><path d="M57.7 34c0-1.8 1.4-2.7 4.8-3 0-.7-.4-1-1.3-1s-1.4.2-2.3.7l-1-1.7c1.1-.6 2.4-1 3.7-1 2.2 0 3.5 1.1 3.5 3.7v4.7h-2.2l-.2-.8c-.6.6-1.5 1-2.5 1-1.6 0-2.5-1.2-2.5-2.6zm4.8-.1v-1.3c-1.7.2-2.3.6-2.3 1.2s.3.7.9.7c.5 0 1-.2 1.4-.6z" fill="#0c419a"/><path d="M67.3 28.1h2.2l.2 1c.7-.6 1.4-1.2 2.6-1.2 1.2 0 1.9.5 2.4 1.3.8-.7 1.5-1.3 2.7-1.3 1.8 0 2.7 1.2 2.7 3.3v5.1h-2.6v-4.8c0-1.1-.3-1.4-1-1.4s-.9.2-1.4.7v5.5h-2.7v-4.8c0-1.1-.3-1.4-1-1.4s-.9.2-1.4.7v5.5h-2.6l-.1-8.2c.1 0 0 0 0 0z" fill="#0c419a"/><path d="M81.7 32.2c0-2.7 1.9-4.2 4-4.2s3.7 1.8 3.7 3.9V33h-5.1c.2 1.1 1.1 1.6 2.2 1.6s1.2-.2 1.8-.5l.9 1.6c-.9.6-2.1.9-3.1.9-2.6-.1-4.4-1.6-4.4-4.4zm5.4-1c0-.8-.3-1.4-1.3-1.4s-1.4.5-1.6 1.4z" fill="#0c419a"/><path d="M91.2 33.6v-8.9h2.6v9c0 .5.3.7.5.7h.3l.3 1.9c-.3.1-.8.2-1.3.2-1.8 0-2.4-1.1-2.4-2.9z" fill="#0c419a"/><path d="M96 25.6c0-.8.7-1.3 1.5-1.3.9 0 1.5.5 1.5 1.3s-.7 1.3-1.5 1.3c-.9.1-1.5-.4-1.5-1.3Zm.2 2.5h2.6v8.2h-2.6z" fill="#0c419a"/></svg>
