<svg xmlns="http://www.w3.org/2000/svg" width="137" height="107" fill="none" viewBox="0 0 137 107"><path fill="#0C419A" d="m58.57.92-7.31 4.27c.85-2.2 1.85-3.46 2.84-4.15 2.28-1.58 4.47-.12 4.47-.12ZM14.06 40.36 30.4 35.5s2.24 3.92 8.82 1.81l.04.14c-1.37.45-16.2 5.19-22.3 7.02-6.41 1.92-16.66 0-16.66 0l13.76-4.1ZM112.32 95.27l24.38 4.25s-10.89 8.32-37.78 7.04c-23.44-1.11-29.37-3.2-30.51-3.72 4.64-.06 9.5-3.5 13.22-12.92l30.7 5.35Z"/><path stroke="#0C419A" stroke-linecap="round" stroke-linejoin="round" stroke-miterlimit="10" stroke-width="2" d="m50.89 5.4.37-.21L58.58.92s-2.2-1.47-4.48.12c-.99.69-2 1.95-2.84 4.15-.37.95-.71 2.08-1 3.41-2.57 11.53-1.93 24.97-9.62 28.18-.5.2-.97.38-1.43.52-6.57 2.11-8.81-1.8-8.81-1.8l-16.35 4.86L.3 44.46s10.25 1.92 16.65 0c6.1-1.83 20.93-6.57 22.31-7.01l.1-.04"/><path stroke="#0C419A" stroke-linecap="round" stroke-linejoin="round" stroke-miterlimit="10" stroke-width="2" d="m13.75 40.62.3-.26c1.28-1.1 6.19-5.62 6.74-10.63.64-5.76 2.56-12.17 7.69-14.73C33.44 12.52 52.82 1.63 54.03.95L54.1.9M27.2 19.49l16-8.33M25.92 25.25l16.65-8.32M112.36 95.04c-2.07-3.1 1.92-19.85 7.69-33.3 5.76-13.44-5.77-19.2-5.77-19.2L63.7 20.77"/><path stroke="#0C419A" stroke-linecap="round" stroke-linejoin="round" stroke-miterlimit="10" stroke-width="2" d="M63.7 20.77s0 0 0 0c.26.19 11.43 8.54 3.2 27.53-8.32 19.2-16.65 34.58-12.17 44.18 2.49 5.32 7.92 10.44 13.68 10.36 4.65-.06 9.5-3.5 13.22-12.92l30.7 5.35 24.37 4.26s-10.89 8.32-37.78 7.04c-23.44-1.12-29.37-3.2-30.5-3.72l-.24-.12M70.74 67.5l35.22 10.25M66.26 79.67l35.86 7.68M66.26 91.2l13.6 2.6"/></svg>
