<svg xmlns="http://www.w3.org/2000/svg" width="171" height="172" fill="none" viewBox="0 0 171 172"><path fill="#e7ecf5" fill-rule="evenodd" d="M170.98 85.88c-.67 23.17-21.93 38.99-39.79 53.75-15.66 12.94-33.5 21.47-53.71 23.52-23.03 2.34-49.9 5.4-65.83-11.4C-4.15 135.07-.9 108.28 4.2 85.88 8.22 68.22 23.74 57.72 36.11 44.5c13.13-14.02 22.4-33.9 41.37-36.9 20.81-3.3 40.79 7.79 56.95 21.32 17.98 15.05 37.24 33.52 36.55 56.97Z" clip-rule="evenodd"/><circle cx="123.87" cy="127.71" r="17.83" fill="#fff" stroke="#0c419a" stroke-width="2"/><circle cx="126.62" cy="126.25" r="15.08" fill="#fff" stroke="#0c419a" stroke-width="2"/><circle cx="126.95" cy="125.92" r="10.86" fill="#fff" stroke="#0c419a" stroke-width="2"/><path fill="#0c419a" d="M87.88 67.72c0-19.13 13.03-28.19 24.48-30.48 21.07-4.21 54.13 12.81 54.63 57.07.42 36.27-15.75 76.47-51.55 76.52-32.75.05-41.02-27.72-45.88-34.2-1.66-2.2-5.02-8.76-8.76-11.68-2.48-1.93-8.1-1.9-12.48-3.73-4.8-2-11.98-8.02-13.46-13.94l-5.19-22.54c2.4-1.93 3.9-2.06 6.65-1.78.97 2.54 3.37 10.22 6.49 20.6 3.74 12.47 13.61 11.83 22.37 9.4 8.75-2.44 10.7-13.46 9.73-19.46-.78-4.8-5.73-15.19-8.11-19.78 2.02-2.3 3.46-2.8 6.32-2.92 1.2 2.43 4.22 8.66 6.81 14.1 3.24 6.82 3.73 12.81 3.24 16.87-.48 4.05-4.37 12.32-6.32 13.62-2.43 1.78-1.93 3.73-2.1 6.8-.36 6.15 8.87 41.35 40.69 41.19 34.77-.19 45.7-47.56 45.4-69.07-.6-41.99-30.97-55.12-46.54-51.07-8.47 2.2-19.74 6.98-20.26 24.48-.46 15.12 12.9 31.98 21.23 41.52 1.42 1.63 2.7 3.04 3.73 4.2-.64 2.43-2.75 4.05-4.7 4.86a217.2 217.2 0 0 1-4.05-4.34c-12.78-14.09-22.37-28.9-22.37-46.24Z"/><path stroke="#0c419a" stroke-width="2" d="M42.8 103.55c3.75 12.48 13.62 11.84 22.38 9.4 8.75-2.43 10.7-13.45 9.73-19.45-.78-4.8-5.73-15.19-8.11-19.78 2.02-2.3 3.46-2.8 6.32-2.92 1.2 2.43 4.22 8.66 6.81 14.1 3.24 6.82 3.73 12.81 3.24 16.87-.48 4.05-4.37 12.32-6.32 13.62-2.43 1.78-1.93 3.73-2.1 6.8-.36 6.15 8.87 41.35 40.69 41.19 34.77-.19 45.7-47.56 45.4-69.07-.6-41.99-30.97-55.12-46.54-51.07-8.47 2.2-19.74 6.98-20.26 24.48-.46 15.12 12.9 31.98 21.23 41.52m-72.46-5.69c-3.12-10.37-5.52-18.05-6.49-20.59m6.49 20.6-6.49-20.6m0 0c-2.76-.28-4.25-.15-6.65 1.78l5.2 22.54c1.47 5.92 8.65 11.94 13.45 13.94 4.38 1.84 10 1.8 12.48 3.73 3.74 2.92 7.1 9.47 8.76 11.67 4.86 6.49 13.13 34.26 45.88 34.21 35.8-.05 51.97-40.25 51.55-76.52-.5-44.26-33.56-61.28-54.63-57.07-11.45 2.3-24.48 11.35-24.48 30.48 0 17.34 9.59 32.15 22.37 46.24m0 0a217.2 217.2 0 0 0 4.05 4.34c1.95-.8 4.06-2.43 4.7-4.86-1.03-1.16-2.3-2.57-3.72-4.2m-5.03 4.72a21.32 21.32 0 0 0 5.03-4.72"/><path fill="#fff" stroke="#0c419a" stroke-width="2" d="m34.44 82.53.1.36a6.74 6.74 0 0 0-3.73 1.04C26.1 64.48 15.89 25.9 28.38 12.6c4.54-4.54 10.21-6.1 12.48-6.32l.81 3.56a22.53 22.53 0 0 0-12 6.81c-9.96 10.61 1.1 52.13 4.77 65.88Z"/><path fill="#fff" stroke="#0c419a" stroke-width="2" d="M37.94 18.27c18 11.03 28.86 42.16 33.4 52.7-1.25.21-2.24.68-3.34 1.62-6.39-16.54-19.2-44.02-30.06-50.75C29.25 16.46 21.9 18.6 18 20.71c-.05-1.7-.35-2.44-1.3-3.4 6.65-2.44 14.1-3.74 21.24.96Z"/><path fill="#0c419a" stroke="#0c419a" stroke-width="2" d="M46.86 10c-2.47 0-4.7 1.3-5.84-1.61-.65-1.79.16-3.41 1.46-3.9 1.3-.48 2.43-.64 2.92-1.13a7.2 7.2 0 0 1 3.73-2.1c2.24-.38 4.54.48 5.51 2.91a4.28 4.28 0 0 1-2.76 5.84c-1.45.48-3.72 0-5.02 0Z"/><ellipse cx="52.51" cy="5.35" fill="#fff" stroke="#fff" stroke-width="2" rx="1.12" ry="2.28" transform="rotate(-13 52.51 5.35)"/><path fill="#0c419a" stroke="#0c419a" stroke-width="2" d="M10.7 17.3c2.47 0 5.74-1.94 6.98 1.46.64 1.78.11 3.7-1.18 4.18-1.3.48-2.44.65-2.92 1.13a7.2 7.2 0 0 1-3.73 2.11c-2.25.38-4.67-.44-5.51-2.92-.77-2.23-.26-4.37 1.83-5.47 1.78-.94 2.75-.49 4.53-.49Z"/><ellipse cx="6.47" cy="22.53" fill="#fff" stroke="#fff" stroke-width="2" rx="1.12" ry="2.28" transform="rotate(158 6.47 22.53)"/></svg>
