<svg width="417" height="121" fill="none" xmlns="http://www.w3.org/2000/svg"><path fill="#fff" d="M.253.504h416v120h-416z"/><path d="M277.329 77.751c-.253 0-.433-.18-.433-.397V42.678c0-.217.18-.398.433-.398.254 0 .434.181.434.398v34.676c0 .217-.18.397-.434.397z" fill="#00A5DF" fill-opacity=".8"/><path d="M122.43 83.853h1.339l2.1 6.48h-1.231l-.978-3.44a36.92 36.92 0 01-.579-2.136h-.036a36.92 36.92 0 01-.579 2.136l-1.014 3.44h-1.158l2.136-6.48zm-.869 3.837h3.041v.905h-3.041v-.905zM126.556 91.237c0-.398.254-.76.688-1.05v-.036c-.253-.145-.434-.434-.434-.796 0-.362.253-.725.543-.906v-.036c-.326-.253-.652-.724-.652-1.303 0-1.122.905-1.737 1.918-1.737.254 0 .507.036.724.108h1.738v.833h-.905c.145.18.29.47.29.832 0 1.086-.833 1.665-1.847 1.665-.217 0-.434-.036-.651-.144-.145.108-.253.253-.253.47 0 .29.181.435.796.435h.869c1.158 0 1.773.362 1.773 1.194 0 .978-1.013 1.738-2.606 1.738-1.122 0-1.991-.398-1.991-1.267zm3.548-.254c0-.362-.29-.47-.869-.47h-.652c-.253 0-.47-.036-.651-.073a.812.812 0 00-.362.652c0 .434.47.688 1.23.688.761 0 1.304-.362 1.304-.797zm-.616-3.873c0-.615-.362-.977-.832-.977-.471 0-.833.362-.833.977s.362.978.833.978c.47 0 .832-.362.832-.978zM132.276 83.961c0-.398.289-.651.724-.651.398 0 .724.253.724.651 0 .362-.29.652-.724.652-.398 0-.724-.254-.724-.652zm.145 1.52h1.158v4.887h-1.158v-4.886zM135.353 85.481h.941l.072.869h.036c.362-.652.869-.977 1.376-.977.253 0 .398.036.543.108l-.181.978c-.181-.037-.29-.073-.507-.073-.398 0-.869.254-1.158 1.014v2.968h-1.159v-4.887h.037zM141.398 87.907c0-1.593 1.086-2.57 2.244-2.57 1.303 0 2.027.94 2.027 2.316 0 .217-.036.435-.036.543h-3.113c.109.869.652 1.376 1.448 1.376.434 0 .76-.145 1.122-.362l.398.724a2.946 2.946 0 01-1.665.543c-1.375 0-2.425-.942-2.425-2.57zm3.294-.471c0-.76-.326-1.195-1.014-1.195-.579 0-1.085.435-1.158 1.195h2.172zM147.081 85.481h.941l.073.652h.036c.434-.435.941-.797 1.593-.797 1.049 0 1.484.724 1.484 1.955v3.04h-1.158v-2.895c0-.796-.218-1.122-.761-1.122-.434 0-.724.217-1.122.615v3.403h-1.158v-4.85h.072zM152.511 89.789l.543-.724c.435.326.869.543 1.34.543.543 0 .796-.254.796-.58 0-.398-.543-.579-1.05-.796-.651-.253-1.375-.615-1.375-1.412 0-.832.687-1.447 1.773-1.447.688 0 1.231.29 1.629.579l-.506.688c-.326-.254-.688-.435-1.086-.435-.507 0-.724.217-.724.543 0 .398.506.543 1.013.724.652.254 1.412.58 1.412 1.484 0 .833-.652 1.52-1.882 1.52a3.07 3.07 0 01-1.883-.687zM157.29 87.907c0-1.593 1.086-2.57 2.244-2.57 1.303 0 2.027.94 2.027 2.316 0 .217-.036.435-.036.543h-3.113c.108.869.651 1.376 1.448 1.376.434 0 .76-.145 1.122-.362l.398.724a2.95 2.95 0 01-1.665.543c-1.376 0-2.425-.942-2.425-2.57zm3.257-.471c0-.76-.325-1.195-1.013-1.195-.579 0-1.086.435-1.158 1.195h2.171zM162.973 85.481h.941l.072.652h.037c.398-.435.868-.797 1.484-.797.724 0 1.122.326 1.339.87.471-.508.941-.87 1.557-.87 1.013 0 1.52.724 1.52 1.955v3.04h-1.158v-2.895c0-.796-.254-1.122-.761-1.122-.325 0-.651.18-1.013.615v3.403h-1.158v-2.896c0-.796-.254-1.122-.761-1.122-.289 0-.651.18-1.013.615v3.403H162.9v-4.85h.073zM172.71 89.862l-.144.506h-.905v-7.022h1.158v1.81l-.036.796c.398-.362.905-.615 1.412-.615 1.23 0 1.918.977 1.918 2.461 0 1.665-1.013 2.643-2.099 2.643-.399.036-.869-.181-1.304-.58zm2.245-1.991c0-.978-.326-1.557-1.05-1.557-.362 0-.688.181-1.05.543v2.28c.326.29.688.399.978.399.615 0 1.122-.58 1.122-1.665zM177.561 89.101v-5.755h1.158v5.828c0 .29.145.398.254.398.036 0 .108 0 .181-.036l.145.868c-.145.073-.326.11-.616.11-.832-.037-1.122-.58-1.122-1.413zM180.276 87.907c0-1.593 1.086-2.57 2.244-2.57 1.303 0 2.027.94 2.027 2.316 0 .217-.036.435-.036.543h-3.113c.109.869.652 1.376 1.448 1.376.434 0 .76-.145 1.122-.362l.398.724a2.946 2.946 0 01-1.665.543c-1.375 0-2.425-.942-2.425-2.57zm3.258-.471c0-.76-.326-1.195-1.014-1.195-.579 0-1.086.435-1.158 1.195h2.172zM186.647 88.92c-.435 0-.76.29-.76.688 0 .47.362.688.724.688h.072c0 .507-.362.977-1.014 1.194l.254.616c.977-.326 1.556-1.086 1.556-2.063 0-.688-.289-1.123-.832-1.123zM191.461 85.481h.942l.072.507h.036c.398-.362.941-.652 1.484-.652 1.231 0 1.919.978 1.919 2.498 0 1.665-1.014 2.643-2.1 2.643-.434 0-.868-.181-1.267-.543l.037.796v1.52h-1.159v-6.769h.036zm3.258 2.39c0-.978-.325-1.557-1.049-1.557-.362 0-.688.18-1.05.543v2.28c.362.29.688.398.977.398.616 0 1.122-.579 1.122-1.665zM197.362 85.481h.941l.072.869h.037c.362-.652.868-.977 1.375-.977.254 0 .398.036.543.108l-.181.978c-.181-.037-.289-.073-.507-.073-.398 0-.868.254-1.158 1.014v2.968h-1.158v-4.887h.036zM200.801 87.907c0-1.63 1.122-2.57 2.317-2.57 1.194 0 2.316.94 2.316 2.57 0 1.629-1.122 2.57-2.316 2.57-1.195 0-2.317-.942-2.317-2.57zm3.439 0c0-.978-.435-1.63-1.159-1.63s-1.158.652-1.158 1.63c0 .977.434 1.629 1.158 1.629s1.159-.652 1.159-1.63zM206.882 88.703v-2.317h-.688v-.868l.761-.037.144-1.339h.941v1.34h1.231v.904h-1.231v2.317c0 .58.218.869.688.869.181 0 .362-.072.507-.109l.181.833c-.253.072-.615.18-1.014.18-1.085 0-1.52-.723-1.52-1.773zM210.176 87.907c0-1.593 1.086-2.57 2.245-2.57 1.303 0 2.027.94 2.027 2.316 0 .217-.036.435-.036.543h-3.114c.109.869.652 1.376 1.448 1.376.435 0 .761-.145 1.123-.362l.398.724a2.95 2.95 0 01-1.665.543c-1.376 0-2.426-.941-2.426-2.57zm3.258-.471c0-.76-.326-1.195-1.013-1.195-.58 0-1.086.435-1.159 1.195h2.172zm-1.629-3.33l1.448-1.738.797.76-1.666 1.52-.579-.542zM215.461 91.237c0-.398.254-.76.688-1.05v-.036c-.253-.145-.434-.434-.434-.796 0-.362.253-.725.543-.906v-.036c-.326-.253-.652-.724-.652-1.303 0-1.122.905-1.737 1.919-1.737.253 0 .507.036.724.108h1.737v.833h-.905c.145.18.29.47.29.832 0 1.086-.833 1.665-1.846 1.665-.217 0-.435-.036-.652-.144-.145.108-.253.253-.253.47 0 .29.181.435.796.435h.869c1.158 0 1.774.362 1.774 1.194 0 .978-1.014 1.738-2.607 1.738-1.122 0-1.991-.398-1.991-1.267zm3.548-.254c0-.362-.29-.47-.869-.47h-.651c-.254 0-.471-.036-.652-.073a.815.815 0 00-.362.652c0 .434.471.688 1.231.688.76 0 1.303-.362 1.303-.797zm-.615-3.873c0-.615-.362-.977-.833-.977s-.833.362-.833.977.362.978.833.978.833-.362.833-.978zM220.783 87.907c0-1.593 1.086-2.57 2.244-2.57 1.303 0 2.027.94 2.027 2.316 0 .217-.036.435-.036.543h-3.113c.108.869.651 1.376 1.448 1.376.434 0 .76-.145 1.122-.362l.398.724c-.47.326-1.05.543-1.665.543-1.376 0-2.425-.942-2.425-2.57zm3.258-.471c0-.76-.326-1.195-1.014-1.195-.579 0-1.086.435-1.158 1.195h2.172zM226.466 85.481h.941l.072.869h.037c.362-.652.868-.977 1.375-.977.254 0 .398.036.543.108l-.181.978c-.181-.037-.289-.073-.507-.073-.398 0-.868.254-1.158 1.014v2.968h-1.158v-4.887h.036zM232.511 87.907c0-1.63 1.159-2.57 2.462-2.57.615 0 1.086.253 1.412.542l-.543.76c-.254-.217-.507-.361-.797-.361-.796 0-1.339.651-1.339 1.629 0 .977.543 1.629 1.303 1.629.398 0 .724-.181 1.014-.435l.47.76c-.47.398-1.05.616-1.593.616-1.375 0-2.389-.942-2.389-2.57zM237.724 83.346h1.158v1.81l-.036.94c.398-.397.905-.723 1.556-.723 1.05 0 1.485.724 1.485 1.955v3.04h-1.159v-2.896c0-.796-.217-1.122-.76-1.122-.434 0-.724.217-1.122.616v3.402h-1.158v-7.022h.036zM243.262 89.029c0-1.05.869-1.593 2.86-1.81 0-.507-.217-.977-.869-.977-.47 0-.941.217-1.375.47l-.435-.76c.543-.326 1.231-.652 1.991-.652 1.231 0 1.81.76 1.81 2.1v2.896h-.905l-.072-.543h-.036c-.435.362-.942.651-1.521.651-.869.073-1.448-.506-1.448-1.375zm2.86.036v-1.086c-1.339.181-1.774.507-1.774 1.014 0 .434.29.615.688.615.434-.036.724-.217 1.086-.543zM248.62 87.907c0-1.63 1.158-2.57 2.461-2.57.616 0 1.086.253 1.412.542l-.543.76c-.253-.217-.507-.361-.796-.361-.797 0-1.34.651-1.34 1.629 0 .977.543 1.629 1.303 1.629.399 0 .724-.181 1.014-.435l.471.76c-.471.398-1.05.616-1.593.616-1.376 0-2.389-.942-2.389-2.57zM253.76 88.522v-3.04h1.158v2.895c0 .797.217 1.123.76 1.123.435 0 .724-.181 1.086-.688v-3.33h1.159v4.886h-.942l-.072-.724h-.072c-.435.507-.905.833-1.557.833-1.05 0-1.52-.724-1.52-1.955zM259.588 85.481h.941l.072.652h.037c.434-.435.941-.797 1.592-.797 1.05 0 1.485.724 1.485 1.955v3.04h-1.086v-2.895c0-.796-.218-1.122-.761-1.122-.434 0-.724.217-1.122.615v3.403h-1.158v-4.85zM56.548 60.758l-.435-.399c.181-.217.326-.47.362-.724 0-.29-.108-.434-.253-.434-.181 0-.254.145-.362.434l-.181.398c-.145.29-.398.58-.833.58-.506-.036-.868-.47-.832-1.123 0-.361.18-.687.434-.94l.398.361c-.144.181-.253.362-.253.616 0 .217.072.398.253.398s.254-.181.362-.434l.181-.362c.181-.362.435-.58.833-.543.507.036.905.47.869 1.194-.073.253-.254.688-.543.977zM53.76 56.45l-.507-.87.471-.289.434.905-.398.254zm.362.687l.29-1.882.579.072-.181 1.195.615.072.145-1.013.58.072-.145 1.014.687.108.181-1.23.58.072-.29 1.918-3.04-.398zM56.04 54.495c-.977-.253-1.375-1.014-1.194-1.774.109-.362.362-.651.616-.796l.325.47c-.18.109-.325.254-.362.471-.108.398.181.796.76.941.616.145 1.014-.036 1.123-.47a.694.694 0 00-.145-.652l.507-.253c.217.325.29.687.18 1.05-.144.796-.832 1.266-1.81 1.013zM56.982 51.346l-1.52-.58.253-.651 1.593.615c.543.217.796.109.94-.217.11-.326 0-.58-.542-.796l-1.593-.616.217-.615 1.52.579c.942.362 1.195.905.942 1.629-.29.76-.869.977-1.81.652zM56.946 47.074l.507-.977c.29-.58.724-.941 1.375-.616.615.326.652.905.326 1.484l-.181.362.977.507-.326.616-2.678-1.376zm1.701-.29c.181-.325.109-.542-.145-.687-.253-.145-.434 0-.615.29l-.145.325.724.398.181-.325zm.29.254l-.181-.615 1.955-.073-.362.688h-1.412zM58.683 43.816l.362-.58 2.534 1.63-.362.579-2.534-1.629zM60.602 42.006l-.507.652-.47-.362 1.411-1.846.47.362-.506.651 1.955 1.484-.398.543-1.955-1.484zM61.796 39.545l1.304-1.376.434.398-.833.87.435.397.688-.76.434.398-.688.76.507.471.869-.905.434.398-1.303 1.412-2.28-2.063zm.073-.76l.072-1.014.58.036-.182.978h-.47zM66.864 38.205l.036-.615c.29 0 .58-.037.76-.218.218-.18.254-.361.145-.506-.108-.145-.29-.109-.579 0l-.398.108c-.326.109-.724.073-.977-.29-.29-.398-.181-.977.29-1.375.289-.217.65-.326 1.013-.29v.544c-.254 0-.435.036-.652.18-.18.145-.253.326-.144.435.108.145.325.072.579 0l.398-.109c.398-.108.724-.072.977.29.29.398.254.977-.326 1.448a1.44 1.44 0 01-1.122.398zM68.71 35.31c-.506-.833-.325-1.63.362-2.028.688-.434 1.448-.217 1.955.615.507.833.326 1.63-.362 2.064-.652.398-1.448.18-1.955-.652zm1.774-1.05c-.326-.507-.724-.688-1.086-.471-.362.217-.398.651-.072 1.158.325.507.724.724 1.086.507.325-.217.362-.688.072-1.195zM71.932 33.427c-.434-.905-.072-1.702.616-2.027.362-.181.724-.145.977-.037l-.145.543a.8.8 0 00-.579 0c-.362.181-.507.652-.253 1.195.253.58.688.76 1.086.58a.7.7 0 00.398-.508l.507.254c-.109.362-.326.651-.688.796-.688.326-1.484.109-1.919-.796zM74.61 30.603l.652-.217 1.05 2.824-.651.217-1.05-2.824zM77.326 29.699l.796-.218 1.702 2.68-.688.18-.76-1.375c-.145-.254-.326-.58-.471-.87 0 .327.036.689.036 1.014v1.593l-.688.181.073-3.185zm.145 1.773l1.411-.362.145.507-1.412.362-.144-.507zM80.15 29.01l.687-.108.362 2.425 1.159-.18.072.578-1.846.29-.435-3.005zM83.082 28.613l1.882-.11.036.58-1.195.073.037.615 1.013-.073.036.58-1.013.072.036.688 1.267-.073.036.58-1.918.108-.218-3.04zM153.38 73.536v-14.48h3.801v14.625c0 .832.362 1.086.688 1.086.145 0 .253 0 .471-.037l.47 2.86c-.434.181-1.05.326-1.918.326-2.607.036-3.512-1.738-3.512-4.38zM128.982 68.902c.326-1.05 3.729-8.543 3.729-8.543h4.018v17.267h-3.62V66.948l-3.005 7.746h-2.316l-3.005-7.746v10.678h-3.62V60.36h4.018s3.367 7.494 3.729 8.543h.072zM160.367 73.97c0-2.751 2.316-4.308 7.421-4.85-.073-1.159-.797-1.847-2.209-1.847-1.086 0-2.172.47-3.402 1.195l-1.34-2.57c1.629-1.014 3.475-1.738 5.503-1.738 3.294 0 5.104 1.919 5.104 5.937v7.493h-3.62v-1.267s-1.484 1.593-3.584 1.593c-2.389.036-3.873-1.738-3.873-3.946zm7.421-.217v-2.28c-2.715.361-3.765 1.23-3.765 2.207 0 .833.579 1.267 1.484 1.267.833-.036 1.593-.506 2.281-1.194zM139.371 73.97c0-2.751 2.317-4.308 7.421-4.85-.072-1.159-.796-1.847-2.208-1.847-1.086 0-2.172.47-3.403 1.195l-1.339-2.57c1.629-1.014 3.475-1.738 5.502-1.738 3.294 0 5.104 1.919 5.104 5.937v7.493h-3.62v-1.267s-1.484 1.593-3.584 1.593c-2.389.036-3.873-1.738-3.873-3.946zm7.421-.217v-2.28c-2.715.361-3.765 1.23-3.765 2.207 0 .833.579 1.267 1.484 1.267.833-.036 1.593-.506 2.281-1.194zM182.195 59.056v6.371c-.869-.832-1.738-1.267-3.15-1.267-2.715 0-5.321 2.607-5.321 6.878 0 4.308 2.063 6.878 5.249 6.878 1.738 0 3.113-1.303 3.222-1.412v1.122h3.801v-18.57h-3.801zm-2.245 15.71c-1.484 0-2.353-1.158-2.353-3.728 0-2.498 1.086-3.656 2.317-3.656.688 0 1.448.217 2.281.832v5.394c-.76.833-1.412 1.159-2.245 1.159zM188.928 60.54c0-1.194.941-2.027 2.208-2.027 1.267 0 2.208.833 2.208 2.027 0 1.195-.941 2.028-2.208 2.028-1.267 0-2.208-.87-2.208-2.028zm.289 3.946h3.801v13.14h-3.801v-13.14zM195.407 71.038c0-4.272 2.679-6.878 5.901-6.878 3.656 0 5.683 2.715 5.683 6.299 0 .688-.072 1.412-.145 1.737h-7.71c.326 1.919 1.629 2.788 3.33 2.788.977 0 1.81-.398 2.751-.941l1.303 2.425c-1.303.941-3.04 1.484-4.561 1.484-3.801 0-6.552-2.534-6.552-6.914zm8.326-1.412c0-1.448-.833-2.498-2.353-2.498-1.194 0-2.027.833-2.28 2.498h4.633zM121.163 51.816v-14.48h3.801v14.625c0 .832.362 1.086.688 1.086.145 0 .253 0 .47-.036l.471 2.86c-.434.18-1.05.325-1.919.325-2.642 0-3.511-1.737-3.511-4.38zM141.362 51.78l1.05 4.127h3.946l-5.322-17.267h-4.38l-5.321 17.267h3.946l1.049-4.127h5.032zm-4.235-3.04l1.665-6.553h.145l1.665 6.552h-3.475zM147.118 54.386l1.701-2.425c1.158.905 2.244 1.375 3.33 1.375 1.123 0 1.629-.434 1.629-1.122 0-.869-1.267-1.267-2.606-1.774-1.593-.615-3.403-1.7-3.403-3.873 0-2.461 1.955-4.127 4.923-4.127 1.955 0 3.439.797 4.525 1.666l-1.701 2.352c-.905-.687-1.81-1.122-2.715-1.122-.977 0-1.484.398-1.484 1.05 0 .833 1.194 1.158 2.534 1.665 1.629.616 3.475 1.557 3.475 3.946 0 2.39-1.846 4.235-5.285 4.235-1.665-.036-3.62-.76-4.923-1.846zM158.521 54.386l1.701-2.425c1.158.905 2.244 1.375 3.33 1.375 1.122 0 1.629-.434 1.629-1.122 0-.869-1.267-1.267-2.606-1.774-1.593-.615-3.403-1.7-3.403-3.873 0-2.461 1.955-4.127 4.923-4.127 1.955 0 3.439.797 4.525 1.666l-1.701 2.352c-.905-.687-1.81-1.122-2.715-1.122-.978 0-1.484.398-1.484 1.05 0 .833 1.194 1.158 2.534 1.665 1.629.616 3.475 1.557 3.475 3.946 0 2.39-1.846 4.235-5.285 4.235-1.666-.036-3.62-.76-4.923-1.846zM185.489 42.766h3.801v1.883c.724-1.448 2.497-1.955 3.402-1.955.724 0 1.159.108 1.521.253l-.398 3.548c-.507-.145-1.086-.398-1.629-.398-1.485.036-2.788 1.303-2.896 2.968v6.842h-3.801v-13.14zM208.946 42.766h3.801v1.665c1.086-1.05 2.172-1.99 3.945-1.99 2.788 0 3.982 2.027 3.982 5.284v8.145h-3.801v-7.674c0-1.882-.506-2.498-1.592-2.498-.942 0-1.666.47-2.498 1.267v8.87h-3.801V42.765h-.036zM233.851 49.318c0-4.271 2.679-6.878 5.901-6.878 3.656 0 5.683 2.715 5.683 6.3 0 .687-.073 1.41-.145 1.737h-7.71c.325 1.918 1.629 2.787 3.33 2.787.977 0 1.81-.398 2.751-.941l1.303 2.425c-1.303.941-3.041 1.484-4.561 1.484-3.765-.036-6.552-2.57-6.552-6.914zm8.362-1.411c0-1.448-.833-2.498-2.353-2.498-1.194 0-2.027.832-2.28 2.498h4.633zM195.045 52.25c0-2.75 2.317-4.307 7.421-4.85-.072-1.159-.796-1.846-2.208-1.846-1.086 0-2.172.47-3.403 1.194l-1.339-2.57c1.629-1.014 3.475-1.738 5.502-1.738 3.294 0 5.104 1.919 5.104 5.937v7.493h-3.62v-1.267s-1.484 1.593-3.583 1.593c-2.389 0-3.874-1.737-3.874-3.946zm7.421-.217v-2.28c-2.715.362-3.764 1.23-3.764 2.208 0 .832.579 1.267 1.484 1.267.868-.036 1.629-.507 2.28-1.195zM129.96 37.264c-.797 0-1.883.615-1.883 1.701 0 .978.76 1.557 1.557 1.557h.108c-.036 1.159-1.086 1.81-1.592 2.1l1.013 1.411c3.33-1.05 4.018-6.733.797-6.769zM178.538 42.767v8.687c-.76 1.05-1.339 1.448-2.28 1.448-1.086 0-1.593-.579-1.593-2.497v-7.638h-3.801v8.29c0 3.112 1.34 5.176 4.055 5.176 2.461 0 3.692-1.665 3.692-1.665v1.339h3.765v-13.14h-3.838zM229.507 53.083c-1.665 0-2.896-1.484-2.896-3.728 0-2.28 1.195-3.765 3.005-3.765.579 0 1.086.217 1.665.724l1.81-2.498c-.941-.796-2.136-1.339-3.693-1.339-3.547 0-6.66 2.534-6.66 6.878s2.715 6.878 6.298 6.878c1.412 0 3.005-.435 4.236-1.557l-1.376-2.642c-.724.615-1.52 1.05-2.389 1.05zM88.004 37.445c-.072-.145-.325-.253-.506-.29-.218-.036-.326-.036-.326-.036-.254-.072-5.285 0-6.48.797-.108-.797-.398-1.774-1.774-2.064-.977-.217-3.077.724-2.389 2.824.109.362.362.615.724.796.181.109.47.036.688.616.072.144.181.144.29.108.072-.036.108 0 .217.073.108.072.18.036.18.036s.037.036.11.036c.036 0 .18-.036.18 0 .399.326.87-.181 1.05-.507l.652 1.955c-.145-.145-1.738-.58-2.498.253-.652.724-1.158 1.738-1.701 3.44-.145.47-.435.687-.978.904-.868.326-.362.724-.144.76.542.109 1.773.037 2.027-.072.325-.145.072-.905.434-1.375.326-.399.58-.76.796-1.014 0 .543 0 .832-.29 1.52-.253.652-1.049.978-1.302 1.267-.435.543.543.58.796.507.652-.217 1.086-.217 1.34-.362.361-.217.108-.796.217-1.014.325-.651 1.448-2.063 1.592-2.28.036-.036.036-.072.036-.109.797.254 1.702.326 2.028.29 1.846-.217 2.244-1.52 2.063-2.57-.181-.941-.76-1.52-.941-1.81-.47-.76-.76-1.159-.941-1.376.543-.145 3.475-.94 3.475-.905.108.254.362.29.434.362.181.109.29-.072.217-.108-.144-.109-.18-.181-.18-.181.253 0 .47.036.651.036.29.036.398-.398.253-.507z" fill="#0C419A"/><path fill-rule="evenodd" clip-rule="evenodd" d="M114.176 55.183c-.47-2.534-2.823-4.09-4.054-4.634-.833-.362-1.195-.434-1.339-.47-.181-.073-.326-.11-.399-.145.073-.543.724-.58 1.123-1.376 1.086-2.244-1.159-3.8-2.788-3.439-.796.181-1.303.435-1.448 1.05-.072.326-.326.326-.724.76-.145.145.145.362.217.47 0 .037-.072.146-.108.29-.036.145 0 .109 0 .145 0 0-.073.145-.073.326 0 0-.181.362 0 .76.037.109.254.326.326.833 0 .072 0 .108-.289 0-.073-.036-3.077-.905-3.403-1.123-.362-.253-3.33-3.475-3.656-4.09-.181-.362-.362-.58-.47-.58-.688.037.506 1.304-.182.87-.18-.109-.688-.471-.724-.507-.145-.109-.108-.073-.18-.217-.073-.145-.145-.254-.218-.29-.072-.036-.109-.072-.18-.072-.11.036-.073.108-.11.108h-.108c-.181.036-.036.47 0 .688 0 .036.47 1.158.615 1.34.76.506 1.484.977 1.52.977.833.941 1.774 2.136 2.643 3.04.688.724 3.801 2.534 3.873 2.57.218.11.543.797.073 5.54-.181 1.773-1.448 5.574-.833 7.529.399 1.266.833 2.135 1.303 5.61.109.76-.506 1.267-1.375 1.883-.326.253-1.303.832-1.376.905-.144.145 0 .362.181.47.218.073.58.29.797.326.362.072.905.036 1.484-.29.615-.361.688-.398 1.05-.651.434-.254.941-.326 1.086-.76.181-.58-.326-1.412-.254-1.774.362-2.715.833-4.054.145-5.72-.145-.325.977-3.945 1.086-3.475.181.942.253 3.801.29 5.9 0 .942.76 4.2 1.013 5.395.362 1.81-2.679 3.257-2.027 3.8.145.109.543.29.905.362.434.073.76 0 1.122-.144.217-.073.543-.471.616-.543.651-.797.434-.58.977-1.159.434-.507.109-1.375.072-1.81-.108-.905 0-1.158-.036-2.823 0-1.919.109-2.462.217-3.186.471-3.185.761-4.923.942-6.262v-.073s.217.073.325-.072c.181-.29.145-.543.181-.724.036-.181.109.036.109.036s.145.435.145.58c0 .217-.145.47-.254.796-.108.362.181.398.254.434.072.036 1.013-.651 1.158-.905.145-.29.109-.651.145-.832.036-.471-.254-1.81-.254-1.81.218-.905 1.014-3.186.869-3.837zm-2.172 3.656c-.108.434-.145.036-.543 1.701l.037-.253v-.724c0-2.064-1.593-6.48-.616-5.575 0 0 1.158.796 1.376 1.412.181.543.144 1.846-.254 3.439z" fill="#0C419A"/><path d="M73.308 63.798c-.362-.326-1.63-2.027-2.426-2.715-.543-.58-.688-.869-1.122-1.484-1.484-1.955-1.81-2.1-2.824-2.244-.217-.145-.144-.29-.108-.326 1.34-.507.905-1.665.869-1.702-.073-.253.108-.362.108-.615 0-.398-.072-.688-.18-.977.035-.181.072-.435-.11-.688-.723-.905-2.533-.941-3.474-.326-.76.507-.326.869-.543 1.629-.145.434 0 .833.29 1.158.035.254.796.724.65 1.231-.144.543-1.013.652-1.013.652a1.765 1.765 0 00-.253.108c-1.376.797-2.715 1.955-2.896 3.186.072 1.013 1.665 2.498 2.679 3.294.144 1.737 1.23 4.38 1.303 4.489.145.325-.326-.254-1.412-.616-.543-.18-1.23-.905-1.412-.036-.072.362.073.977-.253 1.774-.253.579.036 1.52.688 1.52.47 0 .76-1.448.76-1.448s2.28 1.122 3.366.76c.652-.217.797-2.75.145-5.031-.217-.797.398 1.303 1.919 3.113.326.398.036.724.253 2.244.073.58.073.724.073.978-.037.724-.725 1.592.868 1.99 1.63.435 1.484.797 2.498.11.47-.29-1.412-.508-1.774-1.594 0-.036-.036-.18-.036-.253-.036-.869.362-2.86.217-3.584-.579-3.439-2.027-5.031-2.208-5.828 0-2.389-.18-3.15.036-2.606.036.108.543.941 1.05 1.593a.96.96 0 00.181.217c.145.18.29.326.434.398 1.014.869 2.607 1.919 2.824 2.136 0 0 .109 1.05.543.977.398-.072 2.317-.905 2.28-1.122-.072-.29-1.954-.29-1.99-.362zm-10.426-1.303c-.29-.543-1.086-1.593-1.013-1.774.434-.724.905-.941 1.05-.905.108.036-.037 2.679-.037 2.679z" fill="#0C419A"/><path d="M105.018 83.273c-.073-.036-1.195-.47-2.208-2.063-.435-.724-3.801-6.914-4.236-8.109-.905-2.39-7.963-6.697-8.253-6.95-.217-.181-.181-.58-.109-.869.58-2.027.362-3.8.471-4.09.29-.688.724-1.666.398-2.317l-.724-1.159s3.729 1.34 4.597 1.159c.76-.145 4.49-2.751 4.706-2.86.507-.253 1.774.109 3.041-1.267.471-.507.145-.688.036-.615.037-.037-.217-.254-.434-.109-.29.181-1.339.47-1.158.326.76-.58.217-.724.217-.724-.326.29-1.81.652-2.136.905-.326.29-.58.507-.724.615-.905.507-2.462 1.267-4.018 1.63-.326.072-3.294-1.883-5.032-2.137-.94-.144-1.267-.072-1.773.073-.616.18-.58-.724-.11-.941.254-.109.653-.181.797-.47.181-.363-.036-.689-.036-.761 0-.036.036-.072-.036-.217-.036-.109-.036-.037-.036-.145a.515.515 0 00-.073-.217c0-.036 0-.181.037-.218.362-.29.217-.434.144-.47-.108-.109-.651-.326-.688-.688-.072-.579-.29-.869-.361-1.158-.037-.109-.11-.797-.399-1.05-.362-.326-1.122-.724-2.787-.29-.543.145-.434.399-1.738.652-1.592.29-2.461 2.643-2.316 3.62.108.796.796.398.76.76-.036.543-.109 1.448 1.05 1.774.253.072 1.773-.181 2.353-.072 0 0 .47.036.217.506-.109.217-1.63.833-2.027.978-.978.398-3.548 4.597-4.308 4.995-.652.326-1.05.58-1.303.76-1.05.652-2.064 1.484-2.643 1.448-.76-.036-1.375.326-1.882 1.448-.145.326-.072.507.217.58.109.108.254.253.47.253.218.217.471.072.688-.036.58-.326.724-.58.942-.652.579-.181 3.981-1.52 4.742-2.1 1.158-.615 3.475-3.004 3.982-3.04.47-.036 1.629 1.013 1.267 3.04-.109.688-.978 1.919-1.448 2.643-.942 1.412-.218 2.679-.399 2.968-.977 1.593-2.171 3.729-4.199 5.539-.796.507-2.425.615-3.33.869-2.027.579-4.163 2.027-5.683 2.895-.507.29-.978-.325-1.63-.398-.615-.072-.687.905-1.013 1.774-.108.253-.145.398-.615 1.484-.181.435-.688 1.702-.181 2.245.47.651 1.556-1.376 2.425-2.353.435-.507.724-.688 1.702-.905.615-.145 5.574-1.484 8.832-2.209a.671.671 0 00.254-.072c4.235-1.086 8.615-6.624 8.687-6.588l7.204 3.547c.724.399.724 1.774 1.593 3.403.507.977 1.267 1.81 4.344 4.815.398.398.072 1.013.253 1.629.181.651.507.651 1.086.615.543-.036 1.013-.145 1.556-.181.688-.036.507.036 1.304.145.398.072 1.267.18 1.918-.435 1.122-1.194-1.158-.615-2.244-1.158z" fill="#0C419A"/><path d="M97.235 80.16a.422.422 0 00-.579-.181 22.198 22.198 0 01-9.99 2.389 22.06 22.06 0 01-11.005-2.932.502.502 0 00-.616.145.502.502 0 00.145.615 23.017 23.017 0 0011.439 3.04c3.62 0 7.203-.868 10.389-2.497a.409.409 0 00.217-.58zM66.14 51.382c-.072 0-.109 0-.181-.036-.217-.11-.326-.362-.217-.58a23.111 23.111 0 019.34-10.353.502.502 0 01.615.145.502.502 0 01-.145.615c-3.982 2.317-7.095 5.756-8.978 9.955a.473.473 0 01-.434.254zM103.534 45.771c-.109 0-.254-.036-.326-.145a21.98 21.98 0 00-13.43-7.24c-.253-.036-.398-.253-.362-.506.036-.254.254-.399.507-.362a22.965 22.965 0 0113.973 7.53c.145.18.145.47-.036.614a.587.587 0 01-.326.11z" fill="#0C419A"/><path d="M349.777 69.87c.553.306 1.475.61 2.344.61 2.79 0 5.449-1.83 5.449-5.595v-2.798c0-3.51-2.659-5.57-5.765-5.57-3.133 0-5.792 2.06-5.792 5.57v13.43h3.764v-5.646zm0-2.925v-4.73c0-1.756.869-2.62 2.028-2.62 1.132 0 2 .864 2 2.62v2.543c0 1.933-.895 2.645-2.027 2.645-.684 0-1.342-.203-2.001-.458zM359.44 70.15h3.738v-8.495c0-1.196.685-2.06 1.869-2.06.632 0 1.291.127 1.87.28l.711-2.95a8.854 8.854 0 00-2.607-.408c-3.133 0-5.581 2.06-5.581 5.138v8.495zM368.271 64.656c0 3.637 2.475 5.825 5.871 5.825 3.396 0 5.871-2.188 5.871-5.825v-2.314c0-3.637-2.475-5.825-5.871-5.825-3.396 0-5.871 2.188-5.871 5.825v2.314zm3.738-.127v-2.06c0-1.755.527-2.874 2.133-2.874 1.579 0 2.132 1.119 2.132 2.874v2.06c0 1.755-.553 2.874-2.132 2.874-1.58 0-2.133-1.119-2.133-2.874z" fill="#00A5DF" fill-opacity=".8"/><path d="M283.513 66.487c0-2.822 2.385-4.42 7.639-4.976-.074-1.189-.82-1.895-2.273-1.895-1.118 0-2.236.483-3.503 1.226l-1.379-2.637c1.677-1.04 3.578-1.783 5.665-1.783 3.391 0 5.254 1.969 5.254 6.091v7.726h-3.727v-1.3s-1.527 1.634-3.689 1.634c-2.459-.037-3.987-1.82-3.987-4.086zm7.639-.222v-2.34c-2.795.371-3.875 1.263-3.875 2.265 0 .855.596 1.3 1.527 1.3.858-.037 1.64-.52 2.348-1.225zM339.635 52.597c0-1.226.969-2.08 2.273-2.08 1.304 0 2.273.854 2.273 2.08s-.969 2.08-2.273 2.08c-1.342 0-2.273-.892-2.273-2.08zm.298 4.048h3.913v13.482h-3.913V56.645zM318.67 63.553c0-4.382 2.758-7.056 6.075-7.056 3.764 0 5.85 2.785 5.85 6.462 0 .706-.074 1.448-.149 1.783h-7.937c.335 1.968 1.677 2.86 3.428 2.86 1.006 0 1.864-.409 2.832-.966l1.342 2.488c-1.342.966-3.13 1.523-4.695 1.523-3.876-.037-6.746-2.637-6.746-7.094zm8.609-1.485c0-1.486-.857-2.563-2.422-2.563-1.23 0-2.087.854-2.348 2.563h4.77zM300.905 58.502c1.08-1.077 2.273-2.005 4.024-2.005 1.864 0 3.019.78 3.69 2.19 1.155-1.188 2.385-2.19 4.173-2.19 2.907 0 4.211 2.08 4.211 5.385v8.282h-4.136V62.44c0-1.857-.522-2.414-1.565-2.414-.634 0-1.342.409-2.162 1.226v8.95h-4.173V62.44c0-1.857-.485-2.414-1.566-2.414-.633 0-1.341.409-2.161 1.226v8.95h-4.136V56.868h3.801v1.634zM332.485 66.042V51.185h3.913V66.19c0 .855.372 1.115.708 1.115.149 0 .261 0 .484-.038l.485 2.934c-.447.186-1.081.335-1.975.335-2.721.037-3.615-1.746-3.615-4.494z" fill="#0C419A"/></svg>