<svg width="280" height="120" fill="none" xmlns="http://www.w3.org/2000/svg"><path fill="#fff" d="M0 0h280v120H0z"/><path d="M122.176 83.348h1.34l2.099 6.48h-1.231l-.977-3.439c-.217-.688-.398-1.412-.579-2.136h-.036c-.181.724-.362 1.448-.58 2.136l-1.013 3.439h-1.158l2.135-6.48zm-.869 3.838h3.041v.904h-3.041v-.904zM126.303 90.733c0-.398.253-.76.688-1.05v-.036c-.254-.145-.435-.434-.435-.796 0-.362.254-.724.543-.905v-.037c-.326-.253-.651-.724-.651-1.303 0-1.122.905-1.737 1.918-1.737.253 0 .507.036.724.108h1.738v.833h-.905c.144.18.289.47.289.832 0 1.087-.832 1.666-1.846 1.666-.217 0-.434-.037-.652-.145-.144.109-.253.253-.253.47 0 .29.181.435.796.435h.869c1.159 0 1.774.362 1.774 1.194 0 .978-1.014 1.738-2.606 1.738-1.122 0-1.991-.398-1.991-1.267zm3.547-.253c0-.362-.289-.471-.869-.471h-.651c-.254 0-.471-.036-.652-.072a.815.815 0 00-.362.651c0 .435.471.688 1.231.688.76 0 1.303-.362 1.303-.796zm-.615-3.874c0-.615-.362-.977-.833-.977-.47 0-.832.362-.832.977 0 .616.362.978.832.978.471 0 .833-.362.833-.978zM132.022 83.457c0-.398.29-.652.724-.652.399 0 .724.254.724.652 0 .362-.289.652-.724.652-.398 0-.724-.254-.724-.652zm.145 1.52h1.159v4.887h-1.159v-4.887zM135.099 84.977h.941l.073.87h.036c.362-.652.869-.978 1.376-.978.253 0 .398.036.543.108l-.181.978c-.181-.037-.29-.073-.507-.073-.398 0-.869.254-1.159 1.014v2.968h-1.158v-4.887h.036zM141.145 87.403c0-1.593 1.085-2.57 2.244-2.57 1.303 0 2.027.94 2.027 2.316 0 .218-.036.435-.036.543h-3.113c.108.87.651 1.376 1.448 1.376.434 0 .76-.145 1.122-.362l.398.724a2.95 2.95 0 01-1.665.543c-1.376 0-2.425-.941-2.425-2.57zm3.294-.47c0-.761-.326-1.195-1.014-1.195-.579 0-1.086.434-1.158 1.194h2.172zM146.828 84.977h.941l.072.652h.037c.434-.434.941-.796 1.592-.796 1.05 0 1.484.724 1.484 1.954v3.041h-1.158v-2.896c0-.796-.217-1.122-.76-1.122-.434 0-.724.217-1.122.615v3.403h-1.159v-4.85h.073zM152.258 89.285l.543-.724c.434.326.869.543 1.339.543.543 0 .797-.253.797-.58 0-.397-.543-.578-1.05-.796-.652-.253-1.376-.615-1.376-1.411 0-.833.688-1.448 1.774-1.448.688 0 1.231.29 1.629.579l-.507.688c-.326-.254-.688-.435-1.086-.435-.507 0-.724.218-.724.543 0 .398.507.543 1.014.724.651.254 1.412.58 1.412 1.484 0 .833-.652 1.52-1.883 1.52-.688 0-1.412-.289-1.882-.687zM157.036 87.403c0-1.593 1.086-2.57 2.244-2.57 1.304 0 2.028.94 2.028 2.316 0 .218-.037.435-.037.543h-3.113c.109.87.652 1.376 1.448 1.376.435 0 .76-.145 1.122-.362l.399.724a2.951 2.951 0 01-1.666.543c-1.375 0-2.425-.941-2.425-2.57zm3.258-.47c0-.761-.326-1.195-1.014-1.195-.579 0-1.085.434-1.158 1.194h2.172zM162.719 84.977h.942l.072.652h.036c.398-.434.869-.796 1.484-.796.724 0 1.122.325 1.34.868.47-.506.941-.868 1.556-.868 1.014 0 1.521.724 1.521 1.954v3.041h-1.159v-2.896c0-.796-.253-1.122-.76-1.122-.326 0-.652.181-1.014.615v3.403h-1.158v-2.896c0-.796-.253-1.122-.76-1.122-.29 0-.652.181-1.014.615v3.403h-1.158v-4.85h.072zM172.457 89.358l-.145.506h-.905v-7.022h1.159v1.81l-.037.796c.399-.362.905-.615 1.412-.615 1.231 0 1.919.977 1.919 2.461 0 1.665-1.014 2.643-2.1 2.643-.398.036-.869-.181-1.303-.58zm2.244-1.991c0-.978-.325-1.557-1.049-1.557-.362 0-.688.181-1.05.543v2.28c.326.29.688.399.977.399.616 0 1.122-.58 1.122-1.665zM177.308 88.597v-5.755h1.158v5.828c0 .29.145.398.253.398.037 0 .109 0 .181-.036l.145.868c-.145.073-.326.11-.615.11-.833-.037-1.122-.58-1.122-1.413zM180.022 87.403c0-1.593 1.086-2.57 2.245-2.57 1.303 0 2.027.94 2.027 2.316 0 .218-.036.435-.036.543h-3.113c.108.87.651 1.376 1.448 1.376.434 0 .76-.145 1.122-.362l.398.724a2.95 2.95 0 01-1.665.543c-1.376 0-2.426-.941-2.426-2.57zm3.258-.47c0-.761-.325-1.195-1.013-1.195-.579 0-1.086.434-1.159 1.194h2.172zM186.393 88.416c-.434 0-.76.29-.76.688 0 .47.362.688.724.688h.073c0 .507-.362.977-1.014 1.194l.253.616c.978-.326 1.557-1.086 1.557-2.064 0-.687-.29-1.122-.833-1.122zM191.208 84.977h.941l.073.507h.036c.398-.362.941-.651 1.484-.651 1.231 0 1.919.977 1.919 2.497 0 1.666-1.014 2.643-2.1 2.643-.434 0-.869-.181-1.267-.543l.036.796v1.52h-1.158v-6.769h.036zm3.258 2.39c0-.978-.326-1.557-1.05-1.557-.362 0-.688.181-1.05.543v2.28c.362.29.688.399.978.399.615 0 1.122-.58 1.122-1.665zM197.108 84.977h.942l.072.87h.036c.362-.652.869-.978 1.376-.978.253 0 .398.036.543.108l-.181.978c-.181-.037-.29-.073-.507-.073-.398 0-.869.254-1.158 1.014v2.968h-1.159v-4.887h.036zM200.547 87.403c0-1.63 1.123-2.57 2.317-2.57 1.195 0 2.317.94 2.317 2.57 0 1.629-1.122 2.57-2.317 2.57-1.194 0-2.317-.941-2.317-2.57zm3.439 0c0-.978-.434-1.63-1.158-1.63s-1.158.652-1.158 1.63c0 .977.434 1.629 1.158 1.629s1.158-.652 1.158-1.63zM206.629 88.2v-2.318h-.688v-.868l.76-.037.145-1.339h.941v1.34h1.231v.904h-1.231V88.2c0 .58.217.869.688.869.181 0 .362-.072.507-.109l.181.833c-.254.072-.616.18-1.014.18-1.086 0-1.52-.723-1.52-1.773zM209.923 87.403c0-1.593 1.086-2.57 2.244-2.57 1.303 0 2.027.94 2.027 2.316 0 .218-.036.435-.036.543h-3.113c.109.87.652 1.376 1.448 1.376.434 0 .76-.145 1.122-.362l.398.724a2.946 2.946 0 01-1.665.543c-1.375 0-2.425-.941-2.425-2.57zm3.258-.47c0-.761-.326-1.195-1.014-1.195-.579 0-1.086.434-1.158 1.194h2.172zm-1.629-3.331L213 81.864l.796.76-1.665 1.52-.579-.542zM215.208 90.733c0-.398.253-.76.688-1.05v-.036c-.254-.145-.435-.434-.435-.796 0-.362.254-.724.543-.905v-.037c-.325-.253-.651-.724-.651-1.303 0-1.122.905-1.737 1.918-1.737.254 0 .507.036.724.108h1.738v.833h-.905c.145.18.29.47.29.832 0 1.087-.833 1.666-1.847 1.666-.217 0-.434-.037-.651-.145-.145.109-.254.253-.254.47 0 .29.181.435.797.435h.869c1.158 0 1.773.362 1.773 1.194 0 .978-1.013 1.738-2.606 1.738-1.122 0-1.991-.398-1.991-1.267zm3.548-.253c0-.362-.29-.471-.869-.471h-.652c-.253 0-.47-.036-.651-.072a.812.812 0 00-.362.651c0 .435.47.688 1.23.688.761 0 1.304-.362 1.304-.796zm-.616-3.874c0-.615-.362-.977-.832-.977-.471 0-.833.362-.833.977 0 .616.362.978.833.978.47 0 .832-.362.832-.978zM220.529 87.403c0-1.593 1.086-2.57 2.245-2.57 1.303 0 2.027.94 2.027 2.316 0 .218-.036.435-.036.543h-3.114c.109.87.652 1.376 1.448 1.376.435 0 .761-.145 1.123-.362l.398.724a2.95 2.95 0 01-1.665.543c-1.376 0-2.426-.941-2.426-2.57zm3.258-.47c0-.761-.326-1.195-1.013-1.195-.58 0-1.086.434-1.159 1.194h2.172zM226.212 84.977h.942l.072.87h.036c.362-.652.869-.978 1.376-.978.253 0 .398.036.543.108l-.181.978c-.181-.037-.29-.073-.507-.073-.398 0-.869.254-1.158 1.014v2.968h-1.159v-4.887h.036zM232.258 87.403c0-1.63 1.158-2.57 2.461-2.57.616 0 1.086.253 1.412.543l-.543.76c-.253-.217-.507-.362-.796-.362-.797 0-1.34.651-1.34 1.629 0 .977.543 1.629 1.304 1.629.398 0 .724-.181 1.013-.435l.471.76c-.471.399-1.05.616-1.593.616-1.376 0-2.389-.941-2.389-2.57zM237.47 82.842h1.159v1.81l-.037.94c.399-.397.905-.723 1.557-.723 1.05 0 1.484.724 1.484 1.955v3.04h-1.158v-2.896c0-.796-.217-1.122-.76-1.122-.435 0-.724.217-1.123.616v3.402h-1.158v-7.022h.036zM243.009 88.525c0-1.05.869-1.593 2.86-1.81 0-.507-.218-.977-.869-.977-.471 0-.941.217-1.376.47l-.434-.76c.543-.326 1.231-.652 1.991-.652 1.231 0 1.81.76 1.81 2.1v2.896h-.905l-.073-.543h-.036c-.434.362-.941.651-1.52.651-.869.073-1.448-.506-1.448-1.375zm2.86.036v-1.086c-1.34.181-1.774.507-1.774 1.014 0 .434.289.615.688.615.434-.036.724-.217 1.086-.543zM248.366 87.403c0-1.63 1.159-2.57 2.462-2.57.615 0 1.086.253 1.412.543l-.543.76c-.254-.217-.507-.362-.797-.362-.796 0-1.339.651-1.339 1.629 0 .977.543 1.629 1.303 1.629.398 0 .724-.181 1.014-.435l.47.76c-.47.399-1.05.616-1.593.616-1.375 0-2.389-.941-2.389-2.57zM253.506 88.018v-3.04h1.159v2.895c0 .797.217 1.123.76 1.123.434 0 .724-.181 1.086-.688v-3.33h1.158v4.886h-.941l-.072-.724h-.073c-.434.507-.905.833-1.556.833-1.05 0-1.521-.724-1.521-1.955zM259.334 84.977h.942l.072.652h.036c.435-.434.941-.796 1.593-.796 1.05 0 1.484.724 1.484 1.954v3.041h-1.086v-2.896c0-.796-.217-1.122-.76-1.122-.434 0-.724.217-1.122.615v3.403h-1.159v-4.85zM56.294 60.253l-.434-.398c.18-.217.326-.47.362-.724 0-.29-.109-.434-.254-.434-.18 0-.253.145-.362.434l-.18.398c-.145.29-.399.58-.833.58-.507-.037-.869-.471-.833-1.123 0-.361.181-.687.435-.94l.398.361c-.145.181-.254.362-.254.616 0 .217.073.398.254.398.18 0 .253-.181.362-.434l.18-.363c.182-.361.435-.579.834-.543.506.037.904.471.868 1.195-.072.253-.253.688-.543.977zM53.507 55.946l-.507-.87.47-.289.435.905-.398.254zm.362.688l.29-1.883.579.073-.181 1.194.615.072.145-1.013.579.072-.145 1.014.688.109.18-1.231.58.072-.29 1.919-3.04-.398zM55.787 53.99c-.977-.253-1.375-1.013-1.194-1.773.108-.362.362-.651.615-.796l.326.47c-.181.109-.326.254-.362.47-.109.4.18.797.76.942.615.145 1.014-.036 1.122-.47a.694.694 0 00-.145-.652l.507-.253c.217.325.29.687.181 1.05-.145.796-.832 1.266-1.81 1.013zM56.728 50.842l-1.52-.58.253-.651 1.593.615c.543.218.796.109.941-.217.109-.326 0-.58-.543-.796l-1.592-.616.217-.615 1.52.58c.941.361 1.195.904.941 1.628-.29.76-.868.977-1.81.652zM56.692 46.57l.507-.977c.29-.58.724-.941 1.376-.616.615.326.651.905.325 1.485l-.18.362.977.506-.326.616-2.679-1.376zm1.702-.29c.18-.325.108-.542-.145-.687-.254-.145-.434 0-.615.29l-.145.325.724.398.18-.325zm.29.254l-.182-.615 1.955-.073-.362.688h-1.412zM58.43 43.312l.362-.579 2.534 1.629-.362.58-2.534-1.63zM60.349 41.502l-.507.652-.47-.362 1.41-1.846.471.362-.506.651 1.954 1.484-.398.543-1.954-1.484zM61.543 39.04l1.303-1.375.435.398-.833.87.434.397.688-.76.434.398-.687.76.507.471.868-.905.435.398-1.303 1.412-2.281-2.063zm.072-.76l.073-1.013.579.036-.181.978h-.47zM66.61 37.701l.037-.615c.29 0 .58-.036.76-.217.217-.181.254-.362.145-.507-.109-.145-.29-.109-.58 0l-.397.109c-.326.108-.724.072-.978-.29-.29-.398-.18-.977.29-1.375.29-.218.651-.326 1.013-.29v.543c-.253 0-.434.036-.651.18-.181.146-.254.327-.145.435.109.145.326.073.58 0l.397-.108c.399-.109.724-.073.978.29.29.398.253.977-.326 1.447a1.44 1.44 0 01-1.122.398zM68.457 34.805c-.507-.832-.326-1.629.362-2.027.688-.434 1.448-.217 1.955.616.506.832.325 1.629-.362 2.063-.652.398-1.448.181-1.955-.652zm1.774-1.05c-.326-.506-.724-.687-1.086-.47-.362.217-.399.652-.073 1.158.326.507.724.724 1.086.507.326-.217.362-.688.073-1.194zM71.679 32.923c-.434-.905-.073-1.701.615-2.027.362-.181.724-.145.978-.036l-.145.543a.8.8 0 00-.58 0c-.361.18-.506.651-.253 1.194.254.58.688.76 1.086.58a.7.7 0 00.398-.507l.507.253c-.108.362-.326.652-.688.796-.687.326-1.484.11-1.918-.796zM74.357 30.1l.652-.218 1.05 2.824-.652.217-1.05-2.824zM77.072 29.195l.797-.218 1.701 2.68-.688.18-.76-1.375c-.145-.254-.326-.58-.47-.87 0 .327.036.689.036 1.014V32.2L77 32.38l.072-3.185zm.145 1.773l1.412-.362.145.507-1.412.362-.145-.507zM79.896 28.507l.688-.109.362 2.425 1.158-.18.073.579-1.847.29-.434-3.005zM82.828 28.109L84.71 28l.037.58-1.195.072.036.615 1.014-.072.036.579-1.014.072.037.688 1.267-.072.036.579-1.919.108-.217-3.04zM153.126 73.032v-14.48h3.801v14.624c0 .833.362 1.086.688 1.086.145 0 .254 0 .471-.036l.47 2.86c-.434.18-1.049.326-1.918.326-2.607.036-3.512-1.738-3.512-4.38zM128.728 68.398c.326-1.05 3.729-8.543 3.729-8.543h4.018v17.267h-3.62V66.444l-3.005 7.746h-2.316l-3.005-7.746v10.678h-3.62V59.855h4.018s3.367 7.493 3.729 8.543h.072zM160.113 73.466c0-2.751 2.317-4.308 7.421-4.85-.073-1.159-.797-1.847-2.209-1.847-1.086 0-2.171.47-3.402 1.195l-1.34-2.57c1.629-1.014 3.475-1.738 5.503-1.738 3.294 0 5.104 1.919 5.104 5.937v7.493h-3.62v-1.267s-1.484 1.593-3.584 1.593c-2.389.036-3.873-1.738-3.873-3.946zm7.421-.217v-2.28c-2.715.361-3.765 1.23-3.765 2.208 0 .832.579 1.266 1.484 1.266.833-.036 1.593-.506 2.281-1.194zM139.117 73.466c0-2.751 2.317-4.308 7.421-4.85-.072-1.159-.796-1.847-2.208-1.847-1.086 0-2.172.47-3.403 1.195l-1.339-2.57c1.629-1.014 3.475-1.738 5.502-1.738 3.294 0 5.104 1.919 5.104 5.937v7.493h-3.62v-1.267s-1.484 1.593-3.584 1.593c-2.389.036-3.873-1.738-3.873-3.946zm7.421-.217v-2.28c-2.715.361-3.765 1.23-3.765 2.208 0 .832.579 1.266 1.484 1.266.833-.036 1.593-.506 2.281-1.194zM181.941 58.552v6.371c-.869-.832-1.738-1.267-3.15-1.267-2.714 0-5.321 2.606-5.321 6.878 0 4.308 2.064 6.878 5.249 6.878 1.738 0 3.113-1.303 3.222-1.412v1.122h3.801v-18.57h-3.801zm-2.245 15.71c-1.484 0-2.352-1.158-2.352-3.728 0-2.498 1.085-3.656 2.316-3.656.688 0 1.448.217 2.281.832v5.394c-.76.833-1.412 1.158-2.245 1.158zM188.674 60.036c0-1.194.941-2.027 2.208-2.027 1.267 0 2.208.833 2.208 2.027 0 1.195-.941 2.027-2.208 2.027-1.267 0-2.208-.868-2.208-2.027zm.289 3.946h3.801v13.14h-3.801v-13.14zM195.153 70.534c0-4.272 2.679-6.878 5.901-6.878 3.656 0 5.683 2.715 5.683 6.299 0 .688-.072 1.412-.145 1.737h-7.71c.326 1.919 1.629 2.788 3.33 2.788.978 0 1.81-.398 2.751-.942l1.303 2.426c-1.303.941-3.04 1.484-4.561 1.484-3.801 0-6.552-2.534-6.552-6.914zm8.326-1.412c0-1.448-.832-2.498-2.353-2.498-1.194 0-2.027.833-2.28 2.498h4.633zM120.909 51.312v-14.48h3.801v14.625c0 .833.362 1.086.688 1.086.145 0 .253 0 .47-.036l.471 2.86c-.434.18-1.05.325-1.919.325-2.642 0-3.511-1.737-3.511-4.38zM141.108 51.276l1.05 4.127h3.946l-5.322-17.267h-4.38l-5.321 17.267h3.946l1.05-4.127h5.031zm-4.235-3.04l1.665-6.553h.145l1.665 6.552h-3.475zM146.864 53.883l1.701-2.426c1.159.905 2.244 1.376 3.33 1.376 1.123 0 1.629-.435 1.629-1.122 0-.87-1.267-1.267-2.606-1.774-1.593-.616-3.403-1.702-3.403-3.873 0-2.462 1.955-4.127 4.923-4.127 1.955 0 3.439.796 4.525 1.665l-1.701 2.353c-.905-.688-1.81-1.122-2.715-1.122-.977 0-1.484.398-1.484 1.05 0 .832 1.194 1.158 2.534 1.665 1.629.615 3.475 1.556 3.475 3.945 0 2.39-1.846 4.236-5.285 4.236-1.665-.037-3.62-.76-4.923-1.846zM158.267 53.883l1.701-2.426c1.158.905 2.244 1.376 3.33 1.376 1.122 0 1.629-.435 1.629-1.122 0-.87-1.267-1.267-2.606-1.774-1.593-.616-3.403-1.702-3.403-3.873 0-2.462 1.955-4.127 4.923-4.127 1.955 0 3.439.796 4.525 1.665l-1.701 2.353c-.905-.688-1.81-1.122-2.715-1.122-.978 0-1.484.398-1.484 1.05 0 .832 1.194 1.158 2.534 1.665 1.629.615 3.475 1.556 3.475 3.945 0 2.39-1.846 4.236-5.285 4.236-1.665-.037-3.62-.76-4.923-1.846zM185.235 42.263h3.801v1.882c.724-1.448 2.498-1.955 3.402-1.955.724 0 1.159.109 1.521.254l-.398 3.547c-.507-.145-1.086-.398-1.629-.398-1.484.036-2.788 1.303-2.896 2.968v6.842h-3.801v-13.14zM208.692 42.263h3.801v1.665c1.086-1.05 2.172-1.991 3.945-1.991 2.788 0 3.982 2.027 3.982 5.285v8.145h-3.801v-7.675c0-1.882-.506-2.497-1.592-2.497-.941 0-1.665.47-2.498 1.267v8.868h-3.801V42.263h-.036zM233.597 48.815c0-4.272 2.679-6.878 5.901-6.878 3.656 0 5.683 2.715 5.683 6.298 0 .688-.073 1.412-.145 1.738h-7.71c.325 1.919 1.629 2.787 3.33 2.787.977 0 1.81-.398 2.751-.94l1.303 2.425c-1.303.94-3.04 1.484-4.561 1.484-3.765-.037-6.552-2.57-6.552-6.914zm8.362-1.412c0-1.448-.832-2.498-2.353-2.498-1.194 0-2.027.833-2.28 2.498h4.633zM194.792 51.747c0-2.751 2.316-4.308 7.42-4.851-.072-1.158-.796-1.846-2.208-1.846-1.086 0-2.172.47-3.403 1.195l-1.339-2.57c1.629-1.014 3.475-1.738 5.502-1.738 3.294 0 5.104 1.918 5.104 5.936v7.494h-3.619V54.1s-1.485 1.592-3.584 1.592c-2.389 0-3.873-1.737-3.873-3.945zm7.42-.218v-2.28c-2.715.362-3.764 1.23-3.764 2.208 0 .833.579 1.267 1.484 1.267.869-.036 1.629-.507 2.28-1.194zM129.706 36.76c-.797 0-1.883.616-1.883 1.702 0 .977.76 1.556 1.557 1.556h.108c-.036 1.158-1.086 1.81-1.592 2.1l1.013 1.411c3.331-1.05 4.018-6.733.797-6.769zM178.285 42.263v8.687c-.761 1.05-1.34 1.448-2.281 1.448-1.086 0-1.593-.579-1.593-2.498v-7.637h-3.801v8.289c0 3.113 1.34 5.176 4.055 5.176 2.461 0 3.692-1.665 3.692-1.665v1.34h3.765v-13.14h-3.837zM229.253 52.58c-1.665 0-2.896-1.485-2.896-3.73 0-2.28 1.195-3.764 3.005-3.764.579 0 1.086.217 1.665.724l1.81-2.498c-.941-.796-2.136-1.34-3.692-1.34-3.548 0-6.661 2.535-6.661 6.879 0 4.344 2.715 6.878 6.299 6.878 1.411 0 3.004-.435 4.235-1.557l-1.376-2.642c-.724.615-1.52 1.05-2.389 1.05zM87.75 36.941c-.072-.145-.325-.253-.506-.29-.217-.036-.326-.036-.326-.036-.253-.072-5.285 0-6.48.797-.108-.797-.398-1.774-1.773-2.064-.977-.217-3.077.724-2.39 2.824.11.362.363.615.725.796.18.109.47.036.688.616.072.144.18.144.29.108.072-.036.108 0 .216.073.109.072.181.036.181.036s.037.036.109.036c.036 0 .181-.036.181 0 .398.326.869-.18 1.05-.507l.651 1.955c-.144-.145-1.737-.58-2.497.254-.652.723-1.159 1.737-1.702 3.438-.145.471-.434.688-.977.905-.869.326-.362.724-.145.76.543.11 1.774.037 2.027-.072.326-.145.073-.905.435-1.375.325-.399.579-.76.796-1.014 0 .543 0 .833-.29 1.52-.253.652-1.05.978-1.303 1.267-.434.543.543.58.797.507.651-.217 1.086-.217 1.339-.362.362-.217.109-.796.217-1.014.326-.651 1.448-2.063 1.593-2.28.036-.036.036-.072.036-.109.797.254 1.702.326 2.027.29 1.846-.217 2.245-1.52 2.064-2.57-.181-.941-.76-1.52-.942-1.81-.47-.76-.76-1.158-.94-1.376.542-.145 3.474-.94 3.474-.905.109.254.362.29.435.362.18.109.29-.072.217-.108-.145-.109-.181-.181-.181-.181.253 0 .47.036.651.036.29.036.399-.398.254-.507z" fill="#0C419A"/><path fill-rule="evenodd" clip-rule="evenodd" d="M113.923 54.679c-.471-2.534-2.824-4.09-4.054-4.634-.833-.362-1.195-.434-1.34-.47-.181-.073-.326-.109-.398-.145.072-.543.724-.58 1.122-1.376 1.086-2.244-1.158-3.8-2.787-3.439-.797.181-1.303.435-1.448 1.05-.073.326-.326.326-.724.76-.145.145.145.362.217.471 0 .036-.072.145-.109.29-.036.144 0 .108 0 .144 0 0-.072.145-.072.326 0 0-.181.362 0 .76.036.109.253.326.326.833 0 .072 0 .108-.29 0-.072-.036-3.077-.905-3.402-1.122-.362-.254-3.33-3.475-3.657-4.09-.18-.363-.362-.58-.47-.58-.688.036.507 1.303-.181.869a10.78 10.78 0 01-.724-.507c-.145-.108-.109-.072-.181-.217-.073-.145-.145-.253-.217-.29-.073-.036-.109-.072-.181-.072-.109.036-.073.108-.109.108h-.109c-.18.037-.036.471 0 .688 0 .036.471 1.159.616 1.34.76.506 1.484.977 1.52.977.833.941 1.774 2.136 2.643 3.04.688.725 3.801 2.535 3.873 2.57.217.11.543.797.072 5.54-.181 1.773-1.447 5.574-.832 7.529.398 1.267.832 2.136 1.303 5.61.109.76-.507 1.268-1.375 1.883-.326.253-1.304.832-1.376.905-.145.145 0 .362.181.47.217.073.579.29.796.326.362.073.905.037 1.484-.29.616-.361.688-.398 1.05-.65.435-.254.941-.327 1.086-.761.181-.58-.326-1.412-.253-1.774.362-2.715.832-4.054.145-5.72-.145-.325.977-3.945 1.086-3.474.181.94.253 3.8.289 5.9 0 .941.76 4.2 1.014 5.394.362 1.81-2.679 3.258-2.027 3.8.144.11.543.29.905.363.434.072.76 0 1.122-.145.217-.073.543-.47.615-.543.652-.796.435-.58.978-1.158.434-.507.108-1.376.072-1.81-.109-.906 0-1.159-.036-2.824 0-1.919.108-2.462.217-3.186.471-3.185.76-4.923.941-6.262v-.072s.217.072.326-.073c.181-.29.145-.543.181-.724.036-.18.108.036.108.036s.145.435.145.58c0 .217-.145.47-.253.796-.109.362.181.398.253.434.073.037 1.014-.651 1.159-.905.144-.29.108-.651.144-.832.037-.47-.253-1.81-.253-1.81.217-.905 1.014-3.186.869-3.837zm-2.172 3.656c-.109.434-.145.036-.543 1.701l.036-.253v-.724c0-2.063-1.593-6.48-.615-5.575 0 0 1.158.797 1.375 1.412.181.543.145 1.846-.253 3.439z" fill="#0C419A"/><path d="M73.054 63.294c-.362-.326-1.629-2.027-2.425-2.715-.543-.58-.688-.869-1.122-1.484-1.485-1.955-1.81-2.1-2.824-2.244-.217-.145-.145-.29-.109-.326 1.34-.507.906-1.665.87-1.701-.073-.254.108-.362.108-.616 0-.398-.073-.688-.181-.977.036-.181.072-.435-.109-.688-.724-.905-2.534-.941-3.475-.326-.76.507-.326.869-.543 1.63-.145.434 0 .832.29 1.157.036.254.796.724.651 1.231-.144.543-1.013.652-1.013.652-.109.036-.181.072-.254.108-1.375.797-2.715 1.955-2.895 3.186.072 1.014 1.665 2.498 2.678 3.294.145 1.738 1.231 4.38 1.303 4.489.145.326-.325-.254-1.411-.616-.543-.18-1.231-.905-1.412-.036-.073.362.072.978-.254 1.774-.253.58.037 1.52.688 1.52.47 0 .76-1.448.76-1.448s2.28 1.123 3.367.76c.651-.217.796-2.75.145-5.031-.218-.797.398 1.303 1.918 3.113.326.398.036.724.254 2.244.072.58.072.724.072.978-.036.724-.724 1.592.869 1.99 1.629.435 1.484.797 2.498.11.47-.29-1.412-.508-1.774-1.594 0-.036-.036-.18-.036-.253-.037-.869.362-2.86.217-3.584-.58-3.439-2.027-5.031-2.208-5.828 0-2.389-.181-3.149.036-2.606.036.108.543.941 1.05 1.593.036.072.108.145.18.217.145.18.29.326.435.398 1.014.869 2.606 1.919 2.824 2.136 0 0 .108 1.05.543.977.398-.072 2.316-.905 2.28-1.122-.072-.29-1.955-.29-1.99-.362zM62.63 61.991c-.29-.543-1.086-1.593-1.014-1.774.435-.724.905-.941 1.05-.905.109.036-.036 2.679-.036 2.679z" fill="#0C419A"/><path d="M104.764 82.77c-.072-.037-1.194-.471-2.208-2.064-.434-.724-3.8-6.914-4.235-8.109-.905-2.389-7.964-6.697-8.253-6.95-.218-.18-.181-.58-.109-.869.58-2.027.362-3.8.47-4.09.29-.688.725-1.665.399-2.317l-.724-1.158s3.728 1.34 4.597 1.158c.76-.145 4.489-2.751 4.706-2.86.507-.253 1.774.109 3.041-1.267.47-.506.144-.687.036-.615.036-.036-.217-.253-.434-.109-.29.181-1.34.471-1.159.326.76-.579.217-.724.217-.724-.325.29-1.81.652-2.135.905-.326.29-.58.507-.724.616-.905.506-2.462 1.267-4.018 1.629-.326.072-3.295-1.883-5.032-2.136-.941-.145-1.267-.073-1.774.072-.615.181-.58-.724-.108-.941.253-.109.651-.181.796-.47.18-.362-.036-.688-.036-.76 0-.037.036-.073-.037-.218-.036-.108-.036-.036-.036-.145a.515.515 0 00-.072-.217c0-.036 0-.18.036-.217.362-.29.217-.434.145-.47-.109-.11-.652-.327-.688-.689-.072-.579-.29-.868-.362-1.158-.036-.108-.109-.796-.398-1.05-.362-.325-1.122-.724-2.787-.29-.543.146-.435.399-1.738.652-1.593.29-2.462 2.643-2.317 3.62.109.797.797.399.76.76-.036.543-.108 1.448 1.05 1.774.254.073 1.774-.18 2.353-.072 0 0 .47.036.217.507-.108.217-1.629.832-2.027.977-.977.398-3.547 4.597-4.308 4.995-.651.326-1.05.58-1.303.76-1.05.652-2.063 1.485-2.642 1.449-.76-.037-1.376.325-1.883 1.448-.144.325-.072.506.218.579.108.108.253.253.47.253.217.217.47.073.688-.036.58-.326.724-.58.941-.652.58-.18 3.982-1.52 4.742-2.1 1.159-.615 3.475-3.004 3.982-3.04.47-.036 1.63 1.014 1.267 3.04-.108.689-.977 1.92-1.448 2.643-.941 1.412-.217 2.68-.398 2.969-.977 1.592-2.172 3.728-4.2 5.538-.796.507-2.424.615-3.33.869-2.027.58-4.162 2.027-5.683 2.896-.507.29-.977-.326-1.629-.398-.615-.073-.687.905-1.013 1.773-.109.254-.145.399-.616 1.485-.18.434-.687 1.7-.18 2.244.47.651 1.556-1.376 2.425-2.353.434-.507.724-.688 1.701-.905.615-.145 5.575-1.484 8.833-2.208a.671.671 0 00.253-.073c4.235-1.086 8.615-6.624 8.688-6.588l7.203 3.548c.725.398.725 1.773 1.593 3.402.507.978 1.267 1.81 4.344 4.815.398.398.073 1.014.254 1.629.181.651.506.651 1.086.615.542-.036 1.013-.144 1.556-.18.688-.037.507.035 1.303.144.398.073 1.267.181 1.919-.434 1.122-1.195-1.159-.616-2.245-1.159z" fill="#0C419A"/><path d="M96.982 79.656a.422.422 0 00-.58-.18 22.196 22.196 0 01-9.99 2.388 22.058 22.058 0 01-11.005-2.932.502.502 0 00-.615.145.502.502 0 00.144.615 23.016 23.016 0 0011.44 3.041c3.62 0 7.203-.869 10.389-2.498a.409.409 0 00.217-.579zM65.887 50.878c-.073 0-.109 0-.181-.036-.218-.109-.326-.362-.218-.58a23.111 23.111 0 019.34-10.352.502.502 0 01.615.144.502.502 0 01-.145.616c-3.981 2.316-7.095 5.755-8.977 9.954a.473.473 0 01-.434.254zM103.28 45.267c-.108 0-.253-.036-.325-.145a21.983 21.983 0 00-13.43-7.24c-.254-.036-.399-.253-.362-.506.036-.254.253-.399.507-.362a22.963 22.963 0 0113.972 7.529c.145.181.145.47-.036.615a.582.582 0 01-.326.109z" fill="#0C419A"/></svg>