<svg width="281" height="121" fill="none" xmlns="http://www.w3.org/2000/svg"><path fill="#fff" d="M.253.504h280v120h-280z"/><path d="M57.027 58.62l-.434-.398c.18-.217.326-.47.362-.724 0-.29-.109-.434-.254-.434-.18 0-.253.145-.362.434l-.18.398c-.145.29-.399.58-.833.58-.507-.037-.869-.471-.833-1.123 0-.362.181-.688.435-.94l.398.361c-.145.181-.254.362-.254.615 0 .218.073.399.254.399.18 0 .253-.181.362-.435l.18-.362c.182-.362.435-.579.833-.543.507.036.905.47.87 1.195-.073.253-.254.688-.544.977zM54.24 54.312l-.507-.868.47-.29.435.905-.398.253zm.362.688l.29-1.882.578.072-.18 1.195.615.072.145-1.014.579.073-.145 1.013.688.109.18-1.23.58.072-.29 1.918-3.04-.398zM56.52 52.358c-.977-.254-1.375-1.014-1.194-1.774.108-.362.362-.652.615-.796l.326.47c-.181.109-.326.254-.362.47-.109.399.18.797.76.942.615.145 1.014-.036 1.122-.47a.694.694 0 00-.145-.652l.507-.254c.217.326.29.688.181 1.05-.145.797-.832 1.267-1.81 1.014zM57.461 49.208l-1.52-.579.253-.651 1.593.615c.543.217.797.109.941-.217.109-.326 0-.58-.543-.797l-1.593-.615.218-.615 1.52.579c.941.362 1.195.905.941 1.629-.29.76-.868.977-1.81.651zM57.425 44.937l.507-.977c.29-.58.724-.942 1.376-.616.615.326.651.905.325 1.484l-.18.362.977.507-.326.615-2.679-1.375zm1.702-.29c.18-.325.108-.543-.145-.688-.254-.144-.434 0-.615.29l-.145.326.724.398.18-.326zm.29.254l-.182-.616 1.955-.072-.362.688h-1.412zM59.163 41.679l.362-.58 2.534 1.63-.362.579-2.534-1.63zM61.081 39.87l-.506.65-.471-.361 1.412-1.846.47.361-.506.652 1.954 1.484-.398.543-1.955-1.484zM62.276 37.407l1.303-1.375.434.398-.832.869.434.398.688-.76.434.398-.687.76.506.47.87-.904.434.398-1.304 1.412-2.28-2.063zm.072-.76l.073-1.013.579.036-.181.977h-.47zM67.344 36.068l.036-.615c.29 0 .58-.037.76-.218.217-.18.254-.362.145-.507-.109-.144-.29-.108-.58 0l-.397.11c-.326.108-.725.072-.978-.29-.29-.399-.18-.978.29-1.376.29-.217.651-.326 1.013-.29v.543c-.253 0-.434.037-.651.181-.181.145-.254.326-.145.435.108.145.326.072.58 0l.397-.109c.399-.108.724-.072.978.29.29.398.253.977-.326 1.448a1.44 1.44 0 01-1.122.398zM69.19 33.172c-.507-.833-.326-1.629.362-2.027.688-.435 1.448-.217 1.954.615.507.833.326 1.63-.362 2.064-.651.398-1.448.18-1.954-.652zm1.773-1.05c-.325-.507-.723-.688-1.085-.47-.362.217-.399.651-.073 1.158.326.507.724.724 1.086.507.326-.217.362-.688.072-1.195zM72.412 31.29c-.435-.905-.073-1.702.615-2.028.362-.18.724-.144.977-.036l-.144.543a.8.8 0 00-.58 0c-.361.181-.506.652-.253 1.195.254.579.688.76 1.086.579a.7.7 0 00.398-.507l.507.254c-.109.362-.326.651-.688.796-.688.326-1.484.109-1.918-.796zM75.09 28.466l.652-.217 1.05 2.824-.652.217-1.05-2.824zM77.805 27.561l.797-.217 1.701 2.679-.688.181-.76-1.376c-.145-.253-.326-.579-.47-.868 0 .325.036.687.036 1.013v1.593l-.688.181.072-3.186zm.145 1.774l1.412-.362.145.507-1.412.362-.145-.507zM80.629 26.873l.688-.108.362 2.425 1.158-.181.072.58-1.846.289-.434-3.005zM83.561 26.475l1.882-.108.037.579-1.195.072.036.616 1.014-.073.036.58-1.014.072.037.688 1.267-.073.036.58-1.919.108-.217-3.04zM153.86 71.399v-14.48h3.801v14.624c0 .833.362 1.086.688 1.086.144 0 .253 0 .47-.036l.471 2.86c-.435.18-1.05.326-1.919.326-2.606.036-3.511-1.738-3.511-4.38zM129.462 66.765c.325-1.05 3.728-8.543 3.728-8.543h4.018V75.49h-3.62V64.81l-3.004 7.747h-2.317l-3.005-7.747v10.68h-3.619V58.221h4.018s3.366 7.493 3.728 8.543h.073zM160.846 71.833c0-2.751 2.317-4.308 7.421-4.85-.072-1.16-.796-1.847-2.208-1.847-1.086 0-2.172.47-3.403 1.195l-1.339-2.57c1.629-1.014 3.475-1.738 5.502-1.738 3.294 0 5.104 1.918 5.104 5.937v7.493h-3.62v-1.267s-1.484 1.593-3.584 1.593c-2.389.036-3.873-1.738-3.873-3.946zm7.421-.217v-2.28c-2.715.361-3.765 1.23-3.765 2.207 0 .833.579 1.267 1.484 1.267.833-.036 1.593-.507 2.281-1.194zM139.851 71.833c0-2.751 2.316-4.308 7.42-4.85-.072-1.16-.796-1.847-2.208-1.847-1.086 0-2.172.47-3.402 1.195l-1.34-2.57c1.629-1.014 3.475-1.738 5.502-1.738 3.295 0 5.105 1.918 5.105 5.937v7.493h-3.62v-1.267s-1.485 1.593-3.584 1.593c-2.389.036-3.873-1.738-3.873-3.946zm7.42-.217v-2.28c-2.715.361-3.764 1.23-3.764 2.207 0 .833.579 1.267 1.484 1.267.832-.036 1.593-.507 2.28-1.194zM182.674 56.919v6.371c-.869-.833-1.737-1.267-3.149-1.267-2.715 0-5.321 2.606-5.321 6.878 0 4.308 2.063 6.878 5.248 6.878 1.738 0 3.114-1.303 3.222-1.412v1.122h3.801V56.92h-3.801zm-2.244 15.71c-1.484 0-2.353-1.158-2.353-3.728 0-2.498 1.086-3.656 2.317-3.656.687 0 1.448.217 2.28.832v5.394c-.76.833-1.412 1.158-2.244 1.158zM189.407 58.403c0-1.194.941-2.027 2.208-2.027 1.267 0 2.209.833 2.209 2.027 0 1.195-.942 2.027-2.209 2.027-1.267 0-2.208-.868-2.208-2.027zm.29 3.946h3.801v13.14h-3.801V62.35zM195.887 68.9c0-4.27 2.678-6.877 5.9-6.877 3.656 0 5.683 2.715 5.683 6.299 0 .687-.072 1.411-.144 1.737h-7.711c.326 1.919 1.629 2.788 3.331 2.788.977 0 1.809-.399 2.751-.942L207 74.331c-1.303.94-3.041 1.484-4.561 1.484-3.801 0-6.552-2.534-6.552-6.914zm8.326-1.411c0-1.448-.833-2.498-2.353-2.498-1.195 0-2.028.833-2.281 2.498h4.634zM121.643 49.679v-14.48h3.8v14.625c0 .832.362 1.086.688 1.086.145 0 .254 0 .471-.037l.47 2.86c-.434.181-1.049.326-1.918.326-2.643 0-3.511-1.738-3.511-4.38zM141.842 49.643l1.049 4.126h3.946l-5.321-17.267h-4.38l-5.322 17.267h3.946l1.05-4.126h5.032zm-4.236-3.041l1.665-6.552h.145l1.665 6.552h-3.475zM147.597 52.249l1.702-2.425c1.158.905 2.244 1.375 3.33 1.375 1.122 0 1.629-.434 1.629-1.122 0-.869-1.267-1.267-2.607-1.774-1.592-.615-3.402-1.701-3.402-3.873 0-2.462 1.955-4.127 4.923-4.127 1.955 0 3.439.797 4.525 1.665l-1.702 2.353c-.905-.688-1.81-1.122-2.715-1.122-.977 0-1.484.398-1.484 1.05 0 .832 1.195 1.158 2.534 1.665 1.629.615 3.475 1.557 3.475 3.946 0 2.389-1.846 4.235-5.285 4.235-1.665-.036-3.62-.76-4.923-1.846zM159 52.249l1.701-2.425c1.159.905 2.245 1.375 3.331 1.375 1.122 0 1.629-.434 1.629-1.122 0-.869-1.267-1.267-2.607-1.774-1.592-.615-3.402-1.701-3.402-3.873 0-2.462 1.954-4.127 4.923-4.127 1.954 0 3.439.797 4.525 1.665l-1.702 2.353c-.905-.688-1.81-1.122-2.715-1.122-.977 0-1.484.398-1.484 1.05 0 .832 1.195 1.158 2.534 1.665 1.629.615 3.475 1.557 3.475 3.946 0 2.389-1.846 4.235-5.285 4.235-1.665-.036-3.62-.76-4.923-1.846zM185.968 40.629h3.801v1.882c.724-1.448 2.498-1.954 3.403-1.954.724 0 1.158.108 1.52.253l-.398 3.547c-.507-.144-1.086-.398-1.629-.398-1.484.037-2.787 1.303-2.896 2.969v6.841h-3.801V40.63zM209.425 40.63h3.801v1.665c1.086-1.05 2.172-1.991 3.946-1.991 2.787 0 3.982 2.027 3.982 5.285v8.145h-3.801v-7.675c0-1.882-.507-2.497-1.593-2.497-.941 0-1.665.47-2.498 1.267v8.868h-3.801V40.63h-.036zM234.331 47.181c0-4.271 2.678-6.878 5.9-6.878 3.656 0 5.683 2.715 5.683 6.299 0 .688-.072 1.412-.145 1.737h-7.71c.326 1.919 1.629 2.788 3.33 2.788.978 0 1.81-.398 2.752-.941l1.303 2.425c-1.303.941-3.041 1.484-4.561 1.484-3.765-.036-6.552-2.57-6.552-6.914zm8.362-1.412c0-1.448-.833-2.497-2.353-2.497-1.195 0-2.028.832-2.281 2.497h4.634zM195.525 50.113c0-2.751 2.317-4.307 7.421-4.85-.073-1.159-.797-1.847-2.208-1.847-1.086 0-2.172.47-3.403 1.195l-1.34-2.57c1.629-1.014 3.476-1.738 5.503-1.738 3.294 0 5.104 1.919 5.104 5.937v7.493h-3.62v-1.267s-1.484 1.593-3.584 1.593c-2.389 0-3.873-1.738-3.873-3.946zm7.421-.217v-2.28c-2.715.361-3.765 1.23-3.765 2.208 0 .832.579 1.267 1.484 1.267.869-.037 1.629-.507 2.281-1.195zM130.439 35.127c-.796 0-1.882.615-1.882 1.701 0 .978.76 1.557 1.556 1.557h.109c-.036 1.158-1.086 1.81-1.593 2.1l1.014 1.411c3.33-1.05 4.018-6.733.796-6.769zM179.018 40.63v8.687c-.76 1.05-1.339 1.448-2.281 1.448-1.086 0-1.592-.579-1.592-2.498V40.63h-3.801v8.29c0 3.113 1.339 5.177 4.054 5.177 2.462 0 3.692-1.666 3.692-1.666v1.34h3.765V40.63h-3.837zM229.987 50.946c-1.666 0-2.896-1.484-2.896-3.728 0-2.28 1.194-3.765 3.004-3.765.579 0 1.086.217 1.665.724l1.81-2.498c-.941-.796-2.136-1.34-3.692-1.34-3.548 0-6.661 2.535-6.661 6.879 0 4.344 2.715 6.877 6.299 6.877 1.412 0 3.004-.434 4.235-1.556l-1.375-2.643c-.724.616-1.521 1.05-2.389 1.05zM88.484 35.308c-.073-.145-.326-.254-.507-.29-.217-.036-.326-.036-.326-.036-.253-.072-5.285 0-6.48.797-.108-.797-.398-1.774-1.773-2.064-.977-.217-3.077.724-2.39 2.824.11.362.363.615.725.796.18.109.47.036.688.615.072.145.18.145.29.109.072-.036.108 0 .216.072.109.073.181.037.181.037s.036.036.109.036c.036 0 .18-.036.18 0 .4.326.87-.181 1.05-.507l.652 1.955c-.145-.145-1.737-.58-2.498.253-.651.724-1.158 1.738-1.7 3.44-.146.47-.435.687-.978.904-.869.326-.362.724-.145.76.543.109 1.774.036 2.027-.072.326-.145.072-.905.434-1.376.326-.398.58-.76.797-1.013 0 .543 0 .832-.29 1.52-.253.652-1.05.977-1.303 1.267-.434.543.543.58.797.507.651-.217 1.086-.217 1.339-.362.362-.217.109-.797.217-1.014.326-.651 1.448-2.063 1.593-2.28.036-.036.036-.073.036-.109.796.254 1.701.326 2.027.29 1.846-.217 2.245-1.52 2.064-2.57-.181-.942-.76-1.52-.942-1.81-.47-.76-.76-1.159-.94-1.376.542-.145 3.474-.941 3.474-.905.109.253.362.29.435.362.18.109.29-.072.217-.108-.145-.11-.181-.181-.181-.181.253 0 .47.036.651.036.29.036.399-.398.254-.507z" fill="#0C419A"/><path fill-rule="evenodd" clip-rule="evenodd" d="M114.656 53.045c-.471-2.534-2.824-4.09-4.055-4.633-.832-.362-1.194-.434-1.339-.47-.181-.073-.326-.11-.398-.145.072-.543.724-.58 1.122-1.376 1.086-2.244-1.158-3.801-2.787-3.439-.797.181-1.303.434-1.448 1.05-.073.326-.326.326-.724.76-.145.145.145.362.217.47 0 .037-.072.145-.109.29-.036.145 0 .109 0 .145 0 0-.072.145-.072.326 0 0-.181.362 0 .76.036.108.253.326.326.832 0 .073 0 .11-.29 0-.072-.036-3.077-.904-3.403-1.122-.362-.253-3.33-3.475-3.656-4.09-.18-.362-.362-.58-.47-.58-.688.037.507 1.304-.181.87-.181-.11-.688-.471-.724-.507-.145-.109-.109-.073-.181-.218-.073-.144-.145-.253-.217-.29-.073-.035-.109-.072-.181-.072-.109.037-.073.109-.109.109h-.109c-.18.036-.036.47 0 .688 0 .036.471 1.158.616 1.34.76.506 1.484.977 1.52.977.833.94 1.774 2.135 2.643 3.04.687.724 3.801 2.534 3.873 2.57.217.109.543.797.072 5.539-.181 1.774-1.448 5.575-.832 7.53.398 1.266.832 2.135 1.303 5.61.109.76-.507 1.267-1.376 1.882-.325.254-1.303.833-1.375.905-.145.145 0 .362.181.471.217.073.579.29.796.326.362.072.905.036 1.484-.29.616-.362.688-.398 1.05-.651.435-.254.941-.326 1.086-.76.181-.58-.326-1.412-.253-1.774.362-2.715.832-4.054.145-5.72-.145-.326.977-3.945 1.086-3.475.18.941.253 3.801.289 5.9 0 .942.76 4.2 1.014 5.394.362 1.81-2.679 3.258-2.027 3.801.144.109.543.29.904.362.435.073.761 0 1.123-.145.217-.072.543-.47.615-.543.652-.796.434-.579.977-1.158.435-.507.109-1.376.073-1.81-.109-.905 0-1.158-.036-2.823 0-1.919.108-2.462.217-3.186.47-3.186.76-4.923.941-6.262v-.073s.217.073.326-.072c.181-.29.145-.543.181-.724.036-.181.108.036.108.036s.145.434.145.58c0 .216-.145.47-.253.796-.109.362.181.398.253.434.073.036 1.014-.652 1.159-.905.144-.29.108-.652.144-.833.037-.47-.253-1.81-.253-1.81.217-.904 1.014-3.185.869-3.837zm-2.172 3.657c-.109.434-.145.036-.543 1.7l.036-.253v-.724c0-2.063-1.593-6.48-.615-5.574 0 0 1.158.796 1.375 1.412.181.543.145 1.846-.253 3.439z" fill="#0C419A"/><path d="M73.787 61.66c-.362-.325-1.629-2.026-2.425-2.714-.543-.58-.688-.869-1.122-1.484-1.485-1.955-1.81-2.1-2.824-2.245-.217-.145-.145-.29-.109-.325 1.34-.507.905-1.666.87-1.702-.073-.253.108-.362.108-.615 0-.398-.073-.688-.181-.978.036-.18.072-.434-.109-.687-.724-.905-2.534-.942-3.475-.326-.76.507-.326.869-.543 1.629-.145.434 0 .832.29 1.158.036.253.796.724.651 1.23-.145.544-1.013.653-1.013.653a1.765 1.765 0 00-.254.108c-1.375.796-2.715 1.955-2.896 3.186.073 1.013 1.665 2.497 2.68 3.294.144 1.737 1.23 4.38 1.302 4.488.145.326-.325-.253-1.411-.615-.544-.18-1.231-.905-1.412-.036-.073.362.072.977-.254 1.774-.253.579.037 1.52.688 1.52.47 0 .76-1.448.76-1.448s2.28 1.122 3.367.76c.651-.217.796-2.75.145-5.031-.218-.797.398 1.303 1.918 3.113.326.398.036.724.254 2.244.072.58.072.724.072.977-.036.724-.724 1.593.869 1.991 1.629.435 1.484.797 2.498.109.47-.29-1.412-.507-1.774-1.593 0-.036-.036-.18-.036-.253-.037-.869.361-2.86.217-3.584-.58-3.439-2.027-5.032-2.208-5.828 0-2.39-.181-3.15.036-2.606.036.108.543.94 1.05 1.592a.96.96 0 00.18.218c.145.18.29.325.435.398 1.013.869 2.606 1.918 2.823 2.136 0 0 .11 1.05.544.977.398-.073 2.316-.905 2.28-1.122-.072-.29-1.955-.29-1.991-.362zm-10.425-1.302c-.29-.543-1.086-1.593-1.014-1.774.434-.724.905-.941 1.05-.905.108.036-.036 2.679-.036 2.679z" fill="#0C419A"/><path d="M105.497 81.136c-.072-.036-1.194-.47-2.208-2.064-.434-.724-3.8-6.914-4.235-8.108-.905-2.39-7.964-6.697-8.254-6.95-.217-.181-.18-.58-.108-.87.58-2.026.362-3.8.47-4.09.29-.688.724-1.665.399-2.316l-.724-1.159s3.728 1.34 4.597 1.159c.76-.145 4.489-2.752 4.706-2.86.507-.254 1.774.108 3.041-1.267.47-.507.144-.688.036-.615.036-.037-.217-.254-.435-.11-.289.182-1.339.471-1.158.327.76-.58.217-.724.217-.724-.326.29-1.81.651-2.135.905-.326.29-.58.506-.725.615-.904.507-2.461 1.267-4.018 1.629-.325.072-3.294-1.882-5.031-2.136-.941-.145-1.267-.072-1.774.073-.615.18-.58-.724-.109-.942.254-.108.652-.18.797-.47.18-.362-.036-.688-.036-.76 0-.036.036-.073-.037-.218-.036-.108-.036-.036-.036-.144 0-.073-.036-.145-.072-.217 0-.037 0-.181.036-.218.362-.29.217-.434.145-.47-.109-.109-.652-.326-.688-.688-.072-.58-.29-.869-.362-1.158-.036-.109-.109-.797-.398-1.05-.362-.326-1.122-.724-2.787-.29-.544.145-.435.398-1.738.652-1.593.29-2.462 2.642-2.317 3.62.109.796.797.398.76.76-.036.543-.108 1.448 1.05 1.774.254.072 1.774-.181 2.353-.073 0 0 .47.036.217.507-.108.217-1.629.833-2.027.977-.977.399-3.547 4.598-4.308 4.996-.651.326-1.05.58-1.303.76-1.05.652-2.063 1.484-2.642 1.448-.76-.036-1.376.326-1.883 1.448-.144.326-.072.507.218.58.108.108.253.253.47.253.217.217.47.072.688-.037.58-.325.724-.579.941-.651.58-.181 3.982-1.52 4.742-2.1 1.159-.615 3.475-3.004 3.982-3.04.47-.037 1.63 1.013 1.267 3.04-.109.688-.977 1.919-1.448 2.643-.941 1.412-.217 2.679-.398 2.968-.978 1.593-2.172 3.729-4.2 5.539-.796.506-2.424.615-3.33.868-2.027.58-4.162 2.027-5.683 2.896-.507.29-.977-.326-1.629-.398-.615-.072-.688.905-1.013 1.774-.109.253-.145.398-.616 1.484-.18.434-.688 1.701-.18 2.244.47.652 1.556-1.375 2.425-2.353.434-.506.724-.687 1.701-.905.615-.144 5.575-1.484 8.833-2.208a.671.671 0 00.253-.072c4.235-1.086 8.615-6.624 8.688-6.588l7.203 3.547c.724.398.724 1.774 1.593 3.403.507.977 1.267 1.81 4.344 4.814.398.399.072 1.014.253 1.63.181.65.507.65 1.086.615.543-.037 1.014-.145 1.557-.181.688-.037.507.036 1.303.144.398.073 1.267.181 1.919-.434 1.122-1.194-1.159-.615-2.245-1.158z" fill="#0C419A"/><path d="M97.715 78.023a.422.422 0 00-.58-.181 22.198 22.198 0 01-9.99 2.389 22.06 22.06 0 01-11.005-2.932.502.502 0 00-.615.144.502.502 0 00.144.616 23.017 23.017 0 0011.44 3.04c3.62 0 7.203-.868 10.389-2.497a.409.409 0 00.217-.58zM66.62 49.244c-.073 0-.11 0-.181-.036-.218-.108-.326-.362-.218-.579a23.111 23.111 0 019.34-10.353.502.502 0 01.615.145.502.502 0 01-.145.615c-3.982 2.317-7.095 5.756-8.977 9.955a.473.473 0 01-.434.253zM104.013 43.634c-.108 0-.253-.036-.325-.145a21.984 21.984 0 00-13.43-7.24c-.254-.036-.399-.253-.362-.507.036-.253.253-.398.506-.361a22.963 22.963 0 0113.973 7.529c.145.18.145.47-.036.615a.584.584 0 01-.326.109z" fill="#0C419A"/><path d="M121.709 83.967h2.952c.904 0 1.612.212 2.124.636.512.424.768 1.06.768 1.908 0 .584-.124 1.064-.372 1.44-.248.376-.604.676-1.068.9l1.884 3.516h-1.596l-1.644-3.18H123.125v3.18h-1.416v-8.4zm2.688 4.032c.584 0 1.012-.124 1.284-.372.28-.256.42-.608.42-1.056 0-.944-.556-1.416-1.668-1.416h-1.308v2.844h1.272zm4.73-4.032h1.392v8.4h-1.392v-8.4zm5.694 8.568c-.48 0-.984-.06-1.512-.18s-.948-.256-1.26-.408l.168-1.476c1.04.496 1.98.744 2.82.744.472 0 .84-.088 1.104-.264.264-.176.396-.44.396-.792 0-.272-.072-.492-.216-.66-.136-.168-.34-.312-.612-.432-.272-.128-.676-.28-1.212-.456a7.281 7.281 0 01-1.296-.54c-.344-.2-.62-.452-.828-.756-.2-.312-.3-.7-.3-1.164 0-.704.26-1.272.78-1.704.528-.432 1.28-.648 2.256-.648.48 0 .952.052 1.416.156.464.104.876.236 1.236.396l-.144 1.44a7.75 7.75 0 00-1.344-.516 4.693 4.693 0 00-1.248-.168c-.48 0-.852.084-1.116.252-.264.16-.396.408-.396.744 0 .24.064.44.192.6.136.152.32.28.552.384.24.104.584.228 1.032.372.96.296 1.664.644 2.112 1.044.456.392.684.932.684 1.62 0 .68-.248 1.252-.744 1.716-.496.464-1.336.696-2.52.696zm12.337-4.368c0 1.112-.28 2.04-.84 2.784l.768.732-.84.888-.792-.768c-.704.488-1.516.732-2.436.732-.8 0-1.512-.18-2.136-.54a3.867 3.867 0 01-1.476-1.524c-.352-.664-.528-1.432-.528-2.304 0-.872.176-1.636.528-2.292a3.847 3.847 0 011.476-1.536c.624-.36 1.336-.54 2.136-.54s1.512.18 2.136.54c.624.36 1.112.872 1.464 1.536.36.656.54 1.42.54 2.292zm-4.14 3.024c.536 0 1.008-.12 1.416-.36l-1.008-.972.828-.888 1.02.972c.272-.488.408-1.08.408-1.776 0-.896-.232-1.624-.696-2.184-.456-.56-1.112-.84-1.968-.84-.856 0-1.516.28-1.98.84-.464.56-.696 1.288-.696 2.184 0 .896.232 1.624.696 2.184.464.56 1.124.84 1.98.84zm8.9 1.344c-1.152 0-2.02-.332-2.604-.996-.584-.664-.876-1.584-.876-2.76v-4.812h1.392v4.452c0 .896.144 1.588.432 2.076.296.48.848.72 1.656.72.808 0 1.356-.24 1.644-.72.296-.488.444-1.18.444-2.076v-4.452h1.392v4.812c0 1.176-.292 2.096-.876 2.76-.584.664-1.452.996-2.604.996zm5.252-8.568h5.28v1.32h-3.864v2.04h3.036v1.32h-3.036v2.4h3.984v1.32h-5.4v-8.4zm9.186 8.568c-.48 0-.984-.06-1.512-.18s-.948-.256-1.26-.408l.168-1.476c1.04.496 1.98.744 2.82.744.472 0 .84-.088 1.104-.264.264-.176.396-.44.396-.792 0-.272-.072-.492-.216-.66-.136-.168-.34-.312-.612-.432-.272-.128-.676-.28-1.212-.456a7.281 7.281 0 01-1.296-.54c-.344-.2-.62-.452-.828-.756-.2-.312-.3-.7-.3-1.164 0-.704.26-1.272.78-1.704.528-.432 1.28-.648 2.256-.648.48 0 .952.052 1.416.156.464.104.876.236 1.236.396l-.144 1.44a7.75 7.75 0 00-1.344-.516 4.693 4.693 0 00-1.248-.168c-.48 0-.852.084-1.116.252-.264.16-.396.408-.396.744 0 .24.064.44.192.6.136.152.32.28.552.384.24.104.584.228 1.032.372.96.296 1.664.644 2.112 1.044.456.392.684.932.684 1.62 0 .68-.248 1.252-.744 1.716-.496.464-1.336.696-2.52.696zm7.244-8.568h2.916c1.952 0 2.928.904 2.928 2.712 0 .928-.252 1.62-.756 2.076-.504.456-1.224.684-2.16.684h-1.512v2.928H173.6v-8.4zm2.76 4.284c.56 0 .976-.124 1.248-.372.28-.256.42-.648.42-1.176 0-.536-.14-.928-.42-1.176-.272-.248-.696-.372-1.272-.372h-1.32v3.096h1.344zm4.283-4.284h2.952c.904 0 1.612.212 2.124.636.512.424.768 1.06.768 1.908 0 .584-.124 1.064-.372 1.44-.248.376-.604.676-1.068.9l1.884 3.516h-1.596l-1.644-3.18H182.059v3.18h-1.416v-8.4zm2.688 4.032c.584 0 1.012-.124 1.284-.372.28-.256.42-.608.42-1.056 0-.944-.556-1.416-1.668-1.416h-1.308v2.844h1.272zm8.378 4.536c-.8 0-1.512-.18-2.136-.54a3.867 3.867 0 01-1.476-1.524c-.352-.664-.528-1.432-.528-2.304 0-.872.176-1.636.528-2.292a3.847 3.847 0 011.476-1.536c.624-.36 1.336-.54 2.136-.54s1.512.18 2.136.54c.624.36 1.112.872 1.464 1.536.36.656.54 1.42.54 2.292 0 .872-.18 1.64-.54 2.304a3.785 3.785 0 01-1.464 1.524c-.624.36-1.336.54-2.136.54zm0-1.344c.856 0 1.512-.28 1.968-.84.464-.56.696-1.288.696-2.184 0-.896-.232-1.624-.696-2.184-.456-.56-1.112-.84-1.968-.84-.856 0-1.516.28-1.98.84-.464.56-.696 1.288-.696 2.184 0 .896.232 1.624.696 2.184.464.56 1.124.84 1.98.84zm5.516-7.224h5.16v1.32h-3.768v2.04h2.904v1.32h-2.904v3.72h-1.392v-8.4zm6.293 0h5.28v1.32h-3.864v2.04h3.036v1.32h-3.036v2.4h3.984v1.32h-5.4v-8.4zm9.186 8.568c-.48 0-.984-.06-1.512-.18s-.948-.256-1.26-.408l.168-1.476c1.04.496 1.98.744 2.82.744.472 0 .84-.088 1.104-.264.264-.176.396-.44.396-.792 0-.272-.072-.492-.216-.66-.136-.168-.34-.312-.612-.432-.272-.128-.676-.28-1.212-.456a7.281 7.281 0 01-1.296-.54c-.344-.2-.62-.452-.828-.756-.2-.312-.3-.7-.3-1.164 0-.704.26-1.272.78-1.704.528-.432 1.28-.648 2.256-.648.48 0 .952.052 1.416.156.464.104.876.236 1.236.396l-.144 1.44a7.75 7.75 0 00-1.344-.516 4.693 4.693 0 00-1.248-.168c-.48 0-.852.084-1.116.252-.264.16-.396.408-.396.744 0 .24.064.44.192.6.136.152.32.28.552.384.24.104.584.228 1.032.372.96.296 1.664.644 2.112 1.044.456.392.684.932.684 1.62 0 .68-.248 1.252-.744 1.716-.496.464-1.336.696-2.52.696zm6.972 0c-.48 0-.984-.06-1.512-.18s-.948-.256-1.26-.408l.168-1.476c1.04.496 1.98.744 2.82.744.472 0 .84-.088 1.104-.264.264-.176.396-.44.396-.792 0-.272-.072-.492-.216-.66-.136-.168-.34-.312-.612-.432-.272-.128-.676-.28-1.212-.456a7.281 7.281 0 01-1.296-.54c-.344-.2-.62-.452-.828-.756-.2-.312-.3-.7-.3-1.164 0-.704.26-1.272.78-1.704.528-.432 1.28-.648 2.256-.648.48 0 .952.052 1.416.156.464.104.876.236 1.236.396l-.144 1.44a7.75 7.75 0 00-1.344-.516 4.693 4.693 0 00-1.248-.168c-.48 0-.852.084-1.116.252-.264.16-.396.408-.396.744 0 .24.064.44.192.6.136.152.32.28.552.384.24.104.584.228 1.032.372.96.296 1.664.644 2.112 1.044.456.392.684.932.684 1.62 0 .68-.248 1.252-.744 1.716-.496.464-1.336.696-2.52.696zm4.549-8.568h1.392v8.4h-1.392v-8.4zm6.918 8.568c-.8 0-1.512-.18-2.136-.54a3.867 3.867 0 01-1.476-1.524c-.352-.664-.528-1.432-.528-2.304 0-.872.176-1.636.528-2.292a3.847 3.847 0 011.476-1.536c.624-.36 1.336-.54 2.136-.54s1.512.18 2.136.54c.624.36 1.112.872 1.464 1.536.36.656.54 1.42.54 2.292 0 .872-.18 1.64-.54 2.304a3.785 3.785 0 01-1.464 1.524c-.624.36-1.336.54-2.136.54zm0-1.344c.856 0 1.512-.28 1.968-.84.464-.56.696-1.288.696-2.184 0-.896-.232-1.624-.696-2.184-.456-.56-1.112-.84-1.968-.84-.856 0-1.516.28-1.98.84-.464.56-.696 1.288-.696 2.184 0 .896.232 1.624.696 2.184.464.56 1.124.84 1.98.84zm5.516-7.224h1.416l3.78 5.736v-5.736h1.404v8.4h-1.152l-4.056-6.084v6.084h-1.392v-8.4zm8.472 0h1.416l3.78 5.736v-5.736h1.404v8.4h-1.152l-4.056-6.084v6.084h-1.392v-8.4zm8.473 0h5.28v1.32h-3.864v2.04h3.036v1.32h-3.036v2.4h3.984v1.32h-5.4v-8.4zm6.762 0h1.392v7.152h3.6v1.248h-4.992v-8.4zm8.424 8.568c-.48 0-.984-.06-1.512-.18s-.948-.256-1.26-.408l.168-1.476c1.04.496 1.98.744 2.82.744.472 0 .84-.088 1.104-.264.264-.176.396-.44.396-.792 0-.272-.072-.492-.216-.66-.136-.168-.34-.312-.612-.432-.272-.128-.676-.28-1.212-.456a7.281 7.281 0 01-1.296-.54c-.344-.2-.62-.452-.828-.756-.2-.312-.3-.7-.3-1.164 0-.704.26-1.272.78-1.704.528-.432 1.28-.648 2.256-.648.48 0 .952.052 1.416.156.464.104.876.236 1.236.396l-.144 1.44a7.75 7.75 0 00-1.344-.516 4.693 4.693 0 00-1.248-.168c-.48 0-.852.084-1.116.252-.264.16-.396.408-.396.744 0 .24.064.44.192.6.136.152.32.28.552.384.24.104.584.228 1.032.372.96.296 1.664.644 2.112 1.044.456.392.684.932.684 1.62 0 .68-.248 1.252-.744 1.716-.496.464-1.336.696-2.52.696z" fill="#CD545B"/></svg>